<?xml version="1.0" encoding="UTF-8" standalone="no"?>
<!-- Created with Inkscape (http://www.inkscape.org/) -->

<svg
        xmlns:dc="http://purl.org/dc/elements/1.1/"
        xmlns:cc="http://creativecommons.org/ns#"
        xmlns:rdf="http://www.w3.org/1999/02/22-rdf-syntax-ns#"
        xmlns="http://www.w3.org/2000/svg"
        xmlns:sodipodi="http://sodipodi.sourceforge.net/DTD/sodipodi-0.dtd"
        xmlns:inkscape="http://www.inkscape.org/namespaces/inkscape"
        width="1000"
        height="736.45056"
        viewBox="0 0 1000 736.45055"
        id="svg2"
        version="1.1"
        inkscape:version="0.91 r13725"
        sodipodi:docname="floor_first.svg">
    <defs
            id="defs4"/>
    <sodipodi:namedview
            id="base"
            pagecolor="#ffffff"
            bordercolor="#666666"
            borderopacity="1.0"
            inkscape:pageopacity="0.0"
            inkscape:pageshadow="2"
            inkscape:zoom="0.98994949"
            inkscape:cx="623.10948"
            inkscape:cy="389.34541"
            inkscape:document-units="px"
            inkscape:current-layer="layer1"
            showgrid="false"
            inkscape:window-width="1920"
            inkscape:window-height="1171"
            inkscape:window-x="1920"
            inkscape:window-y="0"
            inkscape:window-maximized="1"
            units="px"
            fit-margin-top="0"
            fit-margin-left="0"
            fit-margin-right="0"
            fit-margin-bottom="0"
            showborder="true"/>
    <metadata
            id="metadata7">
        <rdf:RDF>
            <cc:Work
                    rdf:about="">
                <dc:format>image/svg+xml</dc:format>
                <dc:type
                        rdf:resource="http://purl.org/dc/dcmitype/StillImage"/>
                <dc:title></dc:title>
            </cc:Work>
        </rdf:RDF>
    </metadata>
    <g
            inkscape:label="Ebene 1"
            inkscape:groupmode="layer"
            id="layer1"
            transform="translate(-1.0133251,-316.65905)">
        <g
                id="g3575"
                transform="matrix(1.1335459,0,0,1.1335459,-0.13532538,-140.63843)">
            <rect
                    ry="0.021860223"
                    y="471.33646"
                    x="274.84146"
                    height="10"
                    width="103.10317"
                    id="rect3334"
                    style="fill:#00c5ff;fill-opacity:1"/>
            <rect
                    ry="0.021860223"
                    y="471.51352"
                    x="724.86865"
                    height="10"
                    width="104.11333"
                    id="rect3334-6"
                    style="fill:#00c5ff;fill-opacity:1"/>
            <rect
                    ry="0.021860223"
                    y="411.53378"
                    x="478.3049"
                    height="10"
                    width="147.38889"
                    id="rect3334-4"
                    style="fill:#00c5ff;fill-opacity:1"/>
            <rect
                    ry="0.021860221"
                    y="1035.9346"
                    x="703.3866"
                    height="10"
                    width="88.203423"
                    id="rect3334-6-0"
                    style="fill:#00c5ff;fill-opacity:1"/>
            <rect
                    ry="0.021860221"
                    y="1035.7097"
                    x="327.35724"
                    height="10"
                    width="43.251633"
                    id="rect3334-6-0-4"
                    style="fill:#00c5ff;fill-opacity:1"/>
            <rect
                    ry="0.11114126"
                    y="834.66388"
                    x="225.20209"
                    height="50.841782"
                    width="15"
                    id="rect3334-6-0-4-3"
                    style="fill:#000080;fill-opacity:1"/>
            <rect
                    ry="0.032790333"
                    y="1033.7917"
                    x="479.09122"
                    height="15"
                    width="116.50251"
                    id="rect3334-6-0-2"
                    style="fill:#000080;fill-opacity:1"/>
            <path
                    inkscape:connector-curvature="0"
                    id="path3486"
                    d="m 1.0133251,810.29711 0,-242.8125 22.4999989,0 22.5,0 0,7.96875 0,7.96875 -14.5312,0 -14.5313,0 0,227.34375 0,227.34374 53.9063,0 53.906206,0 0,7.5 0,7.5 -61.875006,0 -61.8749989,0 0,-242.81249 z m 186.5625049,235.31249 0,-7.5 15.9375,0 15.9375,0 0,-76.40624 0,-76.40625 12.6563,0 12.6562,0 0,22.5 0,22.5 98.4375,0 98.4375,0 0,-22.5 0,-22.5 7.0313,0 7.0312,0 0,46.40625 0,46.40625 -7.0312,0 -7.0313,0 0,-19.21875 0,-19.21875 -98.4375,0 -98.4375,0 0,44.0625 0,44.06249 41.25,0 41.25,0 0,12.6563 0,12.6562 -69.8437,0 -69.8438,0 0,-7.5 z m 182.8125,-5.1562 0,-12.6563 35.625,0 35.625,0 0,-3.75 0,-3.75 7.0313,0 7.0312,0 0,3.75 0,3.75 11.7188,0 11.7187,0 0,12.6563 0,12.6562 -54.375,0 -54.375,0 0,-12.6562 z m 225,0 0,-12.6563 26.7188,0 26.7187,0 0,-74.99999 0,-75 6.5625,0 6.5625,0 0,75 0,74.99999 20.625,0 20.625,0 0,12.6563 0,12.6562 -53.9062,0 -53.9063,0 0,-12.6562 z m 195.9375,0 0,-12.6563 33.75,0 33.75,0 0,-104.06249 0,-104.0625 -98.4375,0 -98.4375,0 0,3.75 0,3.75 -6.5625,0 -6.5625,0 0,-3.75 0,-3.75 -45.4687,0 -45.4688,0 0,-6.5625 0,-6.5625 150.4688,0 150.4687,0 0,-158.90625 0,-158.90625 -15,0 -15,0 0,-12.1875 0,-12.1875 27.1875,0 27.1875,0 0,294.375 0,294.37499 -45.9375,0 -45.9375,0 0,-12.6562 z m -571.875,-331.40629 0,-125.625 -16.4062,0 -16.4063,0 0,-7.96875 0,-7.96875 16.4063,0 16.4062,0 0,-51.5625 0,-51.5625 27.6563,0 27.6562,0 0,12.1875 0,12.1875 -15,0 -15,0 0,96.5625 0,96.5625 22.5,0 22.5,0 0,7.03125 0,7.03125 -22.5,0 -22.5,0 0,42.1875 0,42.1875 98.4375,0 98.4375,0 0,-42.1875 0,-42.1875 -50.625,0 -50.625,0 0,-7.03125 0,-7.03125 57.1875,0 57.1875,0 0,62.34375 0,62.34375 12.1875,0 12.1875,0 0,6.5625 0,6.5625 -11.7187,0 -11.7188,0 0,7.5 0,7.5 -7.0312,0 -7.0313,0 0,-22.5 0,-22.5 -98.4375,0 -98.4375,0 0,22.5 0,22.5 -12.6562,0 -12.6563,0 0,-125.625 z M 91.013337,575.45336 l 0,-7.96875 16.874993,0 16.875,0 0,7.96875 0,7.96875 -16.875,0 -16.874993,0 0,-7.96875 z m 286.874993,-98.90625 0,-12.1875 26.25,0 26.25,0 0,-30.46875 0,-30.46875 23.9063,0 23.9062,0 0,12.65625 0,12.65625 -11.25,0 -11.25,0 0,30 0,30 -38.9062,0 -38.9063,0 0,-12.1875 z m 270.9375,-17.8125 0,-30 -11.7187,0 -11.7188,0 0,-12.65625 0,-12.65625 23.9063,0 23.9062,0 0,30.46875 0,30.46875 25.7813,0 25.7812,0 0,12.1875 0,12.1875 -37.9687,0 -37.9688,0 0,-30 z"
                    style="fill:#000000"/>
            <rect
                    ry="0.021860221"
                    y="570.37756"
                    x="45.952579"
                    height="10"
                    width="45.145668"
                    id="rect3334-6-0-4-7"
                    style="fill:#00c5ff;fill-opacity:1"/>
            <rect
                    ry="0.021860221"
                    y="570.34259"
                    x="124.47883"
                    height="10"
                    width="62.130543"
                    id="rect3334-6-0-4-3-7"
                    style="fill:#000080;fill-opacity:1"/>
            <rect
                    ry="0.021860221"
                    y="1040.3992"
                    x="124.61009"
                    height="10"
                    width="63.023399"
                    id="rect3334-6-0-4-3-7-5"
                    style="fill:#000080;fill-opacity:1"/>
        </g>
    </g>
</svg>
