<?xml version="1.0" encoding="UTF-8" standalone="no"?>
<!-- Created with Inkscape (http://www.inkscape.org/) -->

<svg
   xmlns:dc="http://purl.org/dc/elements/1.1/"
   xmlns:cc="http://creativecommons.org/ns#"
   xmlns:rdf="http://www.w3.org/1999/02/22-rdf-syntax-ns#"
   xmlns:svg="http://www.w3.org/2000/svg"
   xmlns="http://www.w3.org/2000/svg"
   xmlns:sodipodi="http://sodipodi.sourceforge.net/DTD/sodipodi-0.dtd"
   xmlns:inkscape="http://www.inkscape.org/namespaces/inkscape"
   width="1000"
   height="736.45056"
   viewBox="0 0 1000 736.45057"
   id="svg2"
   version="1.1"
   inkscape:version="0.91 r13725"
   sodipodi:docname="floor_attic.svg">
  <defs
     id="defs4" />
  <sodipodi:namedview
     id="base"
     pagecolor="#ffffff"
     bordercolor="#666666"
     borderopacity="1.0"
     inkscape:pageopacity="0.0"
     inkscape:pageshadow="2"
     inkscape:zoom="0.49497475"
     inkscape:cx="135.48787"
     inkscape:cy="230.86278"
     inkscape:document-units="px"
     inkscape:current-layer="layer1"
     showgrid="false"
     inkscape:window-width="1920"
     inkscape:window-height="1015"
     inkscape:window-x="1920"
     inkscape:window-y="0"
     inkscape:window-maximized="1"
     units="px" />
  <metadata
     id="metadata7">
    <rdf:RDF>
      <cc:Work
         rdf:about="">
        <dc:format>image/svg+xml</dc:format>
        <dc:type
           rdf:resource="http://purl.org/dc/dcmitype/StillImage" />
        <dc:title />
      </cc:Work>
    </rdf:RDF>
  </metadata>
  <g
     inkscape:label="Ebene 1"
     inkscape:groupmode="layer"
     id="layer1"
     transform="translate(0,-315.91157)">
    <rect
       style="fill:#00c5ff;fill-opacity:1"
       id="rect3334-4-2-8"
       width="11.338086"
       height="47.79631"
       x="256.29102"
       y="694.72614"
       ry="0.10448381" />
    <path
       style="fill:#000000"
       d="m 247.70161,898.08344 0,-155.15408 14.34644,0 14.34644,0 0,77.57704 0,77.57704 347.5026,0 347.50278,0 0,-179.06481 0,-179.06482 -122.74184,0 -122.74181,0 0,-97.23697 0,-97.23698 -102.01913,0 -102.01912,0 0,97.23698 0,97.23697 -122.74172,0 -122.74176,0 0,77.57704 0,77.57705 -14.34644,0 -14.34644,0 0,-155.15409 0,-155.15408 119.02231,0 119.02228,0 0,-34.00638 0,-34.00637 138.15089,0 138.1509,0 0,34.53772 0,34.53773 119.02231,0 119.0225,0 0,333.68755 0,333.68742 -376.19571,0 -376.19548,0 0,-155.15396 z m 724.76096,71.7322 0,-54.72901 -348.03407,0 -348.03401,0 0,54.72901 0,54.72886 348.03401,0 348.03407,0 0,-54.72886 z m -465.46239,-501.59402 0,-54.72901 -115.30283,0 -115.30286,0 0,54.72901 0,54.72901 115.30286,0 115.30283,0 0,-54.72901 z m 465.46239,0 0,-54.72901 -115.83435,0 -115.83421,0 0,54.72901 0,54.72901 115.83421,0 115.83435,0 0,-54.72901 z"
       id="path3493"
       inkscape:connector-curvature="0" />
  </g>
</svg>
