<svg xmlns="http://www.w3.org/2000/svg" width="64" height="64"><path class="st0" fill="#ecf0f1" d="M44.8 3.25V64l-25.6-3.15V0z"/><path class="st1" fill="#bdc3c7" d="M19.2 0v60.85L0 64V3.25zM64 0v60.85L44.8 64V3.25z"/><path class="st2" fill="#6bc305" d="M19.2 3.25V57.6L3.25 60.85V6.4z"/><path class="st3" fill="#6bc305" d="M44.8 6.4v54.45L19.2 57.6V3.25z"/><path class="st2" fill="#6bc305" d="M44.8 60.85V6.4l16.05-3.15V57.6z"/><path class="st4" fill="#f39c12" d="M4.43 6.105L19.2 21.76v-9.255l-7.385-7.976zM44.8 54.45v-19.2l16.05-9.65v25.6z"/><path class="st5" fill="#2980b9" d="M44.8 60.85v-19.2L60.85 32v25.6z"/><path class="st6" fill="#f1c40f" d="M44.8 35.25v19.2L19.2 51.2V38.4z"/><path class="st7" fill="#3498db" d="M44.8 41.65v19.2L19.2 57.6V44.8z"/><path class="st4" fill="#f39c12" d="M19.2 38.4v12.8L3.25 54.45v-6.4z"/><path class="st5" fill="#2980b9" d="M19.2 44.8v12.8L3.25 60.85v-6.4z"/><path class="st6" fill="#f1c40f" d="M19.2 12.505L32 40.172h-4.726L19.2 21.76z"/><path class="st0" d="M32.227 19.442a8.4 8.4 0 0 0-8.407 8.407c0 1.473.387 2.867 1.084 4.107l.35.581 6.973 12.088 6.935-12.088c.116-.155.193-.31.31-.503l.077-.117a8.12 8.12 0 0 0 1.085-4.106c0-4.61-3.758-8.369-8.407-8.369zm0 4.185a4.191 4.191 0 0 1 4.184 4.184c0 2.324-1.86 4.223-4.184 4.223a4.191 4.191 0 0 1-4.184-4.185c0-2.324 1.86-4.222 4.184-4.222z" fill="#e74c3c"/><path class="st1" d="M32.227 22.58a5.233 5.233 0 0 0-5.23 5.23 5.233 5.233 0 0 0 5.23 5.23 5.233 5.233 0 0 0 5.23-5.23 5.233 5.233 0 0 0-5.23-5.23zm0 2.093a3.125 3.125 0 0 1 3.138 3.138 3.125 3.125 0 0 1-3.138 3.138 3.125 3.125 0 0 1-3.138-3.138 3.125 3.125 0 0 1 3.138-3.138z" fill="#c0392b"/></svg>