<svg xmlns="http://www.w3.org/2000/svg" width="64" height="64" viewBox="0 0 16.933 16.933"><g stroke="#000" stroke-width="1.629"><path d="M-196.896 80.108c-.36-.115-.477-.23-.261-.253.215-.025-.18-.22-.877-.434-1.831-.562-3.61-2.416-4.245-4.423l-.49-1.545-3.738-.073c-2.087-.04-3.7-.177-3.654-.309.247-.689 3.298-3.779 4.037-4.087.698-.292 3.895-.36 17.049-.36 10.619 0 16.189-.09 16.189-.26 0-.144.117-.262.261-.262.338 0 .338 3.914 0 4.437-.169.261-.254.283-.257.065-.002-.197-.21-.12-.526.196-.498.498-.87.522-7.966.522h-7.443l-.273.718c-.87 2.295-1.757 3.625-2.958 4.437-.69.467-1.623.955-2.073 1.086-.45.13-.642.259-.427.286.444.056-.704.468-1.305.468-.215 0-.685-.094-1.043-.21zm-60.027-.261l.653-.21-.746-.025c-1.412-.05-3.958-.842-6.17-1.922-1.77-.863-2.673-1.535-4.459-3.313-1.858-1.85-2.449-2.653-3.464-4.71-1.593-3.225-2.086-5.563-1.917-9.084.07-1.48.186-2.749.256-2.819.07-.07.91.01 1.865.176l1.739.303-.166 2.124c-.336 4.307 1.096 8.162 4.188 11.27 2.928 2.943 6.147 4.295 10.227 4.295 3.012 0 5.184-.65 8.342-2.5l.821-.48 1.19 1.294 1.19 1.295-.706.596c-1.736 1.466-6.636 3.404-8.787 3.475-.774.025-.777.03-.14.235.418.134-.282.209-1.958.209s-2.377-.075-1.958-.21z" fill="#cfcfcf" transform="matrix(.15981 0 0 .17622 44.343 -1.775)"/><path d="M-240.215 72.981c-.703-.24-2.017-1.61-5.809-6.053-6.927-8.115-7.945-9.212-9.088-9.795-.685-.35-3.662-.938-9.177-1.814-4.49-.713-8.608-1.423-9.153-1.578-1.21-.344-1.82-1.26-2.279-3.418-.182-.862-.416-1.432-.518-1.267-.292.472-.517-.756-.256-1.4.124-.31.234-.468.243-.352.009.115 1.26-1.646 2.78-3.915 2.952-4.407 4.812-6.45 6.139-6.741.517-.114.706-.254.508-.376-.51-.316 1.234-.452 3.378-.265 1.386.121 1.652.193.913.245-.574.04.835.23 3.132.421 6.697.558 16.039 1.854 18.138 2.517.535.168 1.516.918 2.365 1.808l1.452 1.52 5.595.798c21.53 3.067 40.868 7.36 48.135 10.685 3.532 1.617 7.721 5.85 9.757 9.86l.563 1.11h-16.009c-17.269 0-17.482.015-19.496 1.393-.502.343-1.976 1.844-3.275 3.335-1.299 1.49-2.767 2.915-3.262 3.166-.818.415-1.951.455-12.384.442-8.182-.01-11.744-.104-12.392-.326z" fill="#4c7871" transform="matrix(.15981 0 0 .17622 44.343 -1.775)"/><path d="M-257.621 70.352c-2.412-.788-4.61-2.793-5.713-5.21-.548-1.201-.698-1.935-.708-3.467-.007-1.069.11-2.066.26-2.215.385-.386 6.126.507 7.111 1.107.421.256 2.241 2.19 4.044 4.297 2.438 2.85 3.208 3.915 3.006 4.159-1.06 1.278-5.764 2.06-8 1.33z" fill="#cfcfcf" transform="matrix(.15981 0 0 .17622 44.343 -1.775)"/></g></svg>