<svg xmlns="http://www.w3.org/2000/svg" width="64" height="64"><path d="M64 2.4v43.2H30.4l-16 16v-16H0V2.4z" fill="#3660bf" fill-rule="evenodd"/><path d="M17.6 10.4h3.2V12h-3.2zm4.8 0h4.8V12h-4.8zm9.6 0h4.8V12H32zm8 0h9.6V12H40zm11.2 0h6.4V12h-6.4z" fill="#fcfcfc"/><path d="M17.6 15.2H24v1.6h-6.4zm8 0h3.2v1.6h-3.2zm6.4 0h12.8v1.6H32z" fill="#7fe9d6"/><path d="M17.6 20h3.2v1.6h-3.2zm4.8 0h4.8v1.6h-4.8zm9.6 0h6.4v1.6H32zm9.6 0H48v1.6h-6.4zm8 0h8v1.6h-8zm0 12.8h-3.2v1.6h3.2zm-4.8 0H32v1.6h12.8zm-16 0H17.6v1.6h11.2zm28.8-6.4h-3.2V28h3.2zm-4.8 0H48V28h4.8zm-6.4 0H32V28h14.4zm-20.8 0h-8V28h8z" fill="#fcfcfc"/><circle cx="8.8" cy="11.2" r="2.4" color="#000" fill="#abdaf9" fill-rule="evenodd"/><circle cx="8.8" cy="20.8" r="2.4" color="#000" fill="#abdaf9" fill-rule="evenodd"/><circle cx="8.8" cy="27.2" r="2.4" color="#000" fill="#abdaf9" fill-rule="evenodd"/><circle cx="8.8" cy="33.6" r="2.4" color="#000" fill="#abdaf9" fill-rule="evenodd"/><path d="M17.6 37.6h8v1.6h-8zm9.6 0h6.4v1.6h-6.4zm8 0h19.2v1.6H35.2z" fill="#7fe9d6"/></svg>