<svg xmlns="http://www.w3.org/2000/svg" width="64" height="64"><circle r="30.158" cy="32" cx="32.032" fill="#443f2f" stroke="#9b9c9e" stroke-width="3.619" stroke-linecap="square" stroke-linejoin="round" stroke-miterlimit="10"/><path d="M3.745 30.215L0 32.299l3.745 2.084.024-.013v-4.142zm56.611 4.168l3.63-2.084-3.63-2.084-.023.013v4.142z"/><circle r="1.81" cy="1.842" cx="32"/><path d="M31.999 3.75a30.158 30.158 0 0 0-13.086 3.016 6.506 6.506 0 0 0-.707 2.953v21.745a6.51 6.51 0 0 0 6.523 6.523h14.542a6.51 6.51 0 0 0 6.523-6.523V9.719a6.506 6.506 0 0 0-.7-2.935A30.158 30.158 0 0 0 32 3.75z" fill="#1d211c"/><rect ry="0" y="11.179" x="18.393" height="1" width="27.588" fill="#443f2f"/><circle r="4" cy="18.285" cx="32" fill="#9b9c9e"/><circle r="2" cy="18.24" cx="23.555" fill="#443f2f"/><circle r="2" cy="18.337" cx="40.445" fill="#443f2f"/><path d="M27.65 26.22v3.941c0 .979.79 1.766 1.768 1.766h5.164c.979 0 1.768-.787 1.768-1.766V26.22z" fill="#3d423d"/><path d="M45 45.045L31.808 20.926l-13.192 24.12z" fill="#e59305" stroke="#e59305" stroke-width="3.496" stroke-linecap="square" stroke-linejoin="round" stroke-miterlimit="10"/><g transform="translate(34.627 -29.714) scale(1.9008)"><rect width="1.181" height="5.902" x="-1.882" y="29.868" ry="0"/><rect width="1.181" height="1.181" x="-1.882" y="36.951" ry="0"/></g></svg>