<svg xmlns="http://www.w3.org/2000/svg" width="64" height="64"><circle r="30.158" cy="32" cx="32.032" fill="#443f2f" stroke="#9b9c9e" stroke-width="3.619" stroke-linecap="square" stroke-linejoin="round" stroke-miterlimit="10"/><path d="M3.745 30.215L0 32.299l3.745 2.084.024-.013v-4.142zm56.611 4.168l3.63-2.084-3.63-2.084-.023.013v4.142z"/><circle r="1.81" cy="1.842" cx="32"/><path d="M31.999 3.75a30.158 30.158 0 0 0-13.086 3.016 6.506 6.506 0 0 0-.707 2.953v21.745a6.51 6.51 0 0 0 6.523 6.523h14.542a6.51 6.51 0 0 0 6.523-6.523V9.719a6.506 6.506 0 0 0-.7-2.935A30.158 30.158 0 0 0 32 3.75z" fill="#1d211c"/><rect ry="0" y="11.179" x="18.393" height="1" width="27.588" fill="#443f2f"/><circle r="4" cy="18.285" cx="32" fill="#9b9c9e"/><circle r="2" cy="18.24" cx="23.555" fill="#443f2f"/><circle r="2" cy="18.337" cx="40.445" fill="#443f2f"/><path d="M27.65 26.22v3.941c0 .979.79 1.766 1.768 1.766h5.164c.979 0 1.768-.787 1.768-1.766V26.22z" fill="#3d423d"/><g stroke-width="6.373"><path d="M30.959 51.033c-.13 0-.326-.065-.52-.065-.391-.065-.782-.065-1.107-.195h-.065c-5.596-.976-10.346-6.637-10.607-12.559v-1.757c.196-1.106.39-2.277.846-3.383.52-.976.911-1.822 1.432-2.603l1.692-2.408c4.034-4.945 7.158-9.696 9.5-14.641l.39.846c2.278 5.791 6.052 10.672 9.046 14.316.39.585.78 1.171 1.236 1.692.65.976 1.301 2.082 1.822 3.253.325.846.586 1.887.716 2.993v1.627c-.065.195-.065.39-.065.52 0 .196 0 .326-.065.456v.131c-.586 5.466-5.206 10.476-10.477 11.387h-.065a3.04 3.04 0 0 1-1.106.195c-.195 0-.39.065-.52.065h-2.083z"/><path d="M32.13 14.203l.13.26c2.343 5.792 6.052 10.737 9.045 14.381.39.586.846 1.171 1.237 1.692.65.976 1.301 2.082 1.822 3.188.325.846.52 1.822.65 2.929v1.561c-.065.196-.065.39-.065.586 0 .13 0 .26-.065.39l-.065.066v.065c-.586 5.335-5.075 10.216-10.151 11.127h-.13c-.326.13-.65.13-1.041.195-.196 0-.39.065-.52.065h-1.953c-.195 0-.325-.065-.52-.065-.391-.065-.782-.065-1.042-.195h-.13c-5.466-.976-10.086-6.442-10.346-12.169v-1.691c.195-1.107.39-2.213.846-3.32.455-.845.91-1.756 1.431-2.537l1.692-2.342c3.84-4.816 6.833-9.501 9.175-14.186m0-1.562c-2.538 5.466-5.921 10.542-9.76 15.227l-1.692 2.408c-.521.846-.977 1.757-1.497 2.668-.456 1.106-.716 2.342-.846 3.513v1.757c.26 5.987 5.01 11.778 10.867 12.82.52.195 1.171.195 1.757.325h2.082c.586-.065 1.237-.065 1.757-.326 5.401-.976 10.086-6.051 10.737-11.712.13-.326.065-.781.13-1.107v-1.692c-.13-1.04-.325-2.082-.716-3.123a20.803 20.803 0 0 0-1.887-3.319 27.864 27.864 0 0 1-1.236-1.691c-3.644-4.36-6.898-8.98-8.98-14.251z"/><g stroke="#6bc305" stroke-width="2.88"><path d="M31.263 47.155c-.09 0-.226-.045-.361-.045-.271-.045-.542-.045-.768-.136h-.045c-3.887-.678-7.185-4.609-7.366-8.721v-1.22c.135-.768.27-1.582.587-2.35.362-.678.633-1.265.994-1.808l1.175-1.672c2.802-3.434 4.971-6.733 6.598-10.167l.271.587c1.582 4.022 4.203 7.411 6.281 9.942.271.407.542.813.859 1.175.452.678.904 1.446 1.265 2.26.226.587.407 1.31.497 2.078v1.13c-.045.135-.045.27-.045.361 0 .136 0 .226-.045.316v.091c-.407 3.796-3.615 7.275-7.276 7.908h-.045a2.11 2.11 0 0 1-.768.135c-.136 0-.271.046-.362.046h-1.446z"/><path d="M32.077 21.578l.09.18c1.627 4.023 4.203 7.457 6.281 9.988.272.406.588.813.859 1.175.452.677.904 1.446 1.265 2.214.226.587.362 1.265.452 2.033v1.085c-.045.135-.045.271-.045.407 0 .09 0 .18-.045.27l-.045.046v.045c-.407 3.706-3.525 7.095-7.05 7.727h-.09c-.226.09-.452.09-.723.136-.136 0-.271.045-.362.045H31.31c-.136 0-.226-.045-.362-.045-.271-.045-.542-.045-.723-.136h-.09c-3.796-.678-7.005-4.473-7.185-8.45v-1.175c.135-.768.27-1.536.587-2.305.316-.587.633-1.22.994-1.762l1.175-1.627c2.666-3.344 4.745-6.597 6.372-9.85m0-1.085c-1.763 3.796-4.112 7.32-6.778 10.574l-1.175 1.672c-.362.587-.678 1.22-1.04 1.853-.316.768-.497 1.626-.587 2.44v1.22c.18 4.157 3.48 8.179 7.546 8.902.362.136.814.136 1.22.226h1.446c.407-.045.86-.045 1.22-.226 3.751-.678 7.005-4.203 7.457-8.134.09-.226.045-.542.09-.768v-1.175c-.09-.723-.226-1.446-.497-2.17a14.446 14.446 0 0 0-1.31-2.304 19.35 19.35 0 0 1-.859-1.175c-2.53-3.027-4.79-6.236-6.236-9.896z"/></g></g></svg>