<svg xmlns="http://www.w3.org/2000/svg" width="64" height="64"><circle r="30.158" cy="32" cx="32.032" fill="#443f2f" stroke="#9b9c9e" stroke-width="3.619" stroke-linecap="square" stroke-linejoin="round" stroke-miterlimit="10"/><path d="M3.745 30.215L0 32.299l3.745 2.084.024-.013v-4.142zm56.611 4.168l3.63-2.084-3.63-2.084-.023.013v4.142z"/><circle r="1.81" cy="1.842" cx="32"/><path d="M31.999 3.75a30.158 30.158 0 0 0-13.086 3.016 6.506 6.506 0 0 0-.707 2.953v21.745a6.51 6.51 0 0 0 6.523 6.523h14.542a6.51 6.51 0 0 0 6.523-6.523V9.719a6.506 6.506 0 0 0-.7-2.935A30.158 30.158 0 0 0 32 3.75z" fill="#1d211c"/><rect ry="0" y="11.179" x="18.393" height="1" width="27.588" fill="#443f2f"/><circle r="4" cy="18.285" cx="32" fill="#9b9c9e"/><circle r="2" cy="18.24" cx="23.555" fill="#443f2f"/><circle r="2" cy="18.337" cx="40.445" fill="#443f2f"/><path d="M27.65 26.22v3.941c0 .979.79 1.766 1.768 1.766h5.164c.979 0 1.768-.787 1.768-1.766V26.22z" fill="#3d423d"/><path d="M14.34 12.57c.612.2 1.252.36 1.828.61 2.477 1.054 4.594 2.455 6.513 4.029 4.494 3.689 7.62 8.022 9.88 12.738 1.685 3.515 2.793 7.135 3.505 10.838.657 3.425.936 6.865.972 10.325v.333h-7.287c-.018-.07-.045-.153-.045-.243-.135-2.69-.162-5.38-.423-8.058-.612-6.282-2.009-12.46-4.954-18.368-1.946-3.897-4.522-7.51-8.269-10.568-.468-.381-.955-.742-1.423-1.116-.144-.118-.27-.243-.405-.368a.625.625 0 0 1 .108-.152z"/><path d="M36.612 51.442c.07-1.168.096-2.305.21-3.427a31.876 31.876 0 0 1 1.994-8.288c1.985-5.09 5.106-9.562 9.514-13.332 1.198-1.023 2.457-1.984 3.987-2.618.297-.122.656-.122.988-.175-.105.267-.157.557-.323.786-.988 1.427-2.073 2.808-3.008 4.258-2.423 3.763-3.944 7.807-4.906 12.02-.76 3.335-1.084 6.716-1.146 10.112v.664h-7.31zm-6.367-.006h-7.593c-.12-1.728-.166-3.456-.376-5.169-.211-1.72-.496-3.44-.918-5.13a37.325 37.325 0 0 0-1.604-4.996 35.266 35.266 0 0 0-2.357-4.776c-.908-1.54-2.018-2.993-3.1-4.455-1.064-1.453-2.504-2.67-3.568-4.14.752-.07 1.32.212 1.88.487 2.055.998 3.852 2.286 5.521 3.7 4.457 3.771 7.796 8.163 9.877 13.23 1.138 2.765 1.853 5.601 2.082 8.523.055.896.092 1.791.156 2.726z"/><path d="M36.539 43.286c-.673-2.418-1.335-4.836-2.007-7.263-.012-.037-.012-.074-.023-.101-1.004-1.587-.48-3.064.387-4.577 1.768-3.036 3.764-5.943 6.547-8.463 2.315-2.094 4.938-3.875 8.222-4.9.605-.193 1.266-.295 1.894-.433l.102.138c-.091.102-.148.222-.262.295-5.691 3.904-9.215 8.933-11.656 14.544-1.46 3.35-2.417 6.801-3.102 10.308a8.687 8.687 0 0 1-.102.452z"/><path d="M21.023 18.574l-.067.117c.084.1.162.201.251.296.29.302.598.592.883.9 2.325 2.47 3.929 5.381 5.13 8.516 1.827 4.767 2.693 9.74 3.073 14.803.163 2.157.18 4.33.263 6.493 0 .067.022.134.028.196h4.52v-.269c-.022-2.788-.195-5.56-.603-8.32-.441-2.984-1.129-5.901-2.173-8.734-1.403-3.806-3.342-7.293-6.13-10.266-1.196-1.274-2.51-2.402-4.04-3.246-.358-.196-.755-.324-1.135-.486M37.776 49.9h4.683v-.486c.039-2.487.246-4.962.732-7.404.614-3.09 1.587-6.052 3.135-8.801.598-1.062 1.285-2.073 1.922-3.118.1-.174.14-.386.207-.576-.213.04-.442.04-.632.129-.978.469-1.788 1.167-2.548 1.916-2.816 2.76-4.811 6.035-6.08 9.763a25.91 25.91 0 0 0-1.274 6.068c-.084.822-.1 1.654-.145 2.51m-8.723.01c-.034-.67-.056-1.302-.1-1.939-.14-2.079-.582-4.102-1.27-6.063-1.268-3.61-3.302-6.728-6.018-9.41-1.017-1.006-2.112-1.923-3.364-2.632-.34-.196-.687-.397-1.145-.347.648 1.045 1.525 1.917 2.174 2.945.653 1.04 1.33 2.073 1.888 3.169a27.504 27.504 0 0 1 1.437 3.397c.402 1.157.726 2.353.977 3.554.258 1.202.43 2.425.56 3.65.128 1.217.156 2.447.228 3.676h4.633m7.426-10.59c.017-.077.034-.178.05-.273.336-2.123.805-4.208 1.52-6.242 1.197-3.397 2.923-6.443 5.712-8.807.056-.044.083-.117.128-.179l-.05-.083c-.313.09-.632.145-.928.262-1.61.626-2.894 1.705-4.029 2.968-1.363 1.52-2.341 3.285-3.207 5.124-.43.916-.682 1.805-.19 2.772.01.017.005.039.01.061.33 1.47.66 2.934.984 4.398"/><path d="M20.996 18.55c.38.162.776.29 1.134.491 1.537.85 2.85 1.978 4.04 3.247 2.789 2.973 4.728 6.465 6.13 10.265 1.045 2.833 1.733 5.75 2.174 8.734.408 2.76.581 5.533.604 8.321v.268h-4.521c-.011-.056-.028-.123-.028-.195-.084-2.169-.1-4.337-.263-6.494-.38-5.063-1.246-10.041-3.073-14.803-1.207-3.14-2.805-6.051-5.13-8.516-.29-.307-.592-.598-.883-.9-.09-.094-.168-.195-.251-.296a.528.528 0 0 1 .067-.123z" fill="#6bc305" stroke="#2aaa00" stroke-width=".14" stroke-miterlimit="10"/><path d="M37.749 49.876c.044-.855.061-1.687.134-2.509.19-2.073.603-4.096 1.274-6.069 1.268-3.727 3.263-7.001 6.08-9.762.765-.749 1.57-1.453 2.548-1.917.19-.089.419-.089.631-.128-.067.195-.1.408-.207.575-.631 1.045-1.324 2.057-1.922 3.119-1.548 2.755-2.52 5.716-3.135 8.8-.486 2.443-.693 4.918-.732 7.405v.486h-4.67z" fill="#569c04" stroke="#2aaa00" stroke-width=".14" stroke-miterlimit="10"/><path d="M29.026 49.887h-4.627c-.073-1.229-.1-2.458-.23-3.677a34.85 34.85 0 0 0-.558-3.649 29.836 29.836 0 0 0-.978-3.554 27.019 27.019 0 0 0-1.436-3.397c-.553-1.095-1.23-2.13-1.889-3.169-.648-1.033-1.526-1.9-2.174-2.945.458-.05.805.151 1.146.347 1.252.71 2.347 1.626 3.364 2.632 2.716 2.682 4.75 5.806 6.018 9.41a22.768 22.768 0 0 1 1.269 6.063c.033.637.056 1.274.095 1.94z" fill="#4b8903" stroke="#2aaa00" stroke-width=".14" stroke-miterlimit="10"/><path d="M36.452 39.298c-.33-1.464-.654-2.928-.983-4.398-.006-.022-.006-.045-.011-.061-.492-.961-.235-1.856.19-2.772.866-1.838 1.844-3.599 3.207-5.124 1.135-1.269 2.42-2.347 4.03-2.968.295-.117.62-.178.927-.262l.05.084c-.045.061-.073.134-.128.178-2.789 2.364-4.516 5.41-5.711 8.807-.716 2.029-1.185 4.119-1.52 6.242a8.69 8.69 0 0 1-.05.274z" fill="#407503" stroke="#009949" stroke-width=".14" stroke-miterlimit="10"/></svg>