<svg xmlns="http://www.w3.org/2000/svg" width="64" height="64"><circle r="30.158" cy="32" cx="32.032" fill="#443f2f" stroke="#9b9c9e" stroke-width="3.619" stroke-linecap="square" stroke-linejoin="round" stroke-miterlimit="10"/><path d="M3.745 30.215L0 32.299l3.745 2.084.024-.013v-4.142zm56.611 4.168l3.63-2.084-3.63-2.084-.023.013v4.142z"/><circle r="1.81" cy="1.842" cx="32"/><path d="M31.999 3.75a30.158 30.158 0 0 0-13.086 3.016 6.506 6.506 0 0 0-.707 2.953v21.745a6.51 6.51 0 0 0 6.523 6.523h14.542a6.51 6.51 0 0 0 6.523-6.523V9.719a6.506 6.506 0 0 0-.7-2.935A30.158 30.158 0 0 0 32 3.75z" fill="#1d211c"/><rect ry="0" y="11.179" x="18.393" height="1" width="27.588" fill="#443f2f"/><circle r="4" cy="18.285" cx="32" fill="#9b9c9e"/><circle r="2" cy="18.24" cx="23.555" fill="#443f2f"/><circle r="2" cy="18.337" cx="40.445" fill="#443f2f"/><path d="M27.65 26.22v3.941c0 .979.79 1.766 1.768 1.766h5.164c.979 0 1.768-.787 1.768-1.766V26.22z" fill="#3d423d"/><path d="M36.598 42.838c-.254 1.01-1.544 3.218-3.597 6.192.562.131 1.1.278 1.645.378.995.18 1.997.321 2.992.504.325.06.491-.06.665-.318 2.002-2.975 3.615-6.155 4.968-9.467.53-1.296.982-2.624 1.47-3.937l.157-.428 3.217 1.11c-.196.576-.374 1.12-.568 1.658-1.646 4.573-3.696 8.946-6.426 12.982-.226.336-.483.65-.707.988-.514.773-1.233 1.013-2.135.927a39.05 39.05 0 0 1-10.104-2.35c-5.936-2.234-11.047-5.654-15.097-10.583-.485-.59-.624-1.245-.308-1.938.306-.669.894-.973 1.611-.982 3.085-.041 6.058-.66 8.933-1.746 2.602-.984 4.972-2.346 6.797-4.502.528-.624.96-1.332 1.459-2.033l2.973 1.675c-.551.799-1.042 1.597-1.62 2.327-1.41 1.784-3.19 3.14-5.167 4.239-2.978 1.655-6.193 2.61-9.541 3.151-.066.01-.132.025-.293.055.479.44.883.849 1.326 1.208.832.673 1.677 1.33 2.54 1.962a.922.922 0 0 0 .67.129c1.717-.388 3.294-1.075 4.615-2.299-.114.601-1.2 2.128-2.724 3.828.957.477 1.925.895 2.826 1.424 1.167.687 2.283.5 3.429.005 1.935-.837 3.594-2.088 5.182-3.445.257-.22.509-.447.812-.714z" fill="#001500"/><path d="M48.835 37.302c-5.976-2.66-11.91-5.299-17.887-7.957a5.516 5.516 0 0 1 2.317-2.639c1.75-1.032 3.581-1.147 5.441-.338a337.444 337.444 0 0 1 7.138 3.183c2.778 1.286 4.085 4.18 3.24 7.053-.067.223-.157.44-.25.698z" fill="#001500"/><path d="M44.867 31.09c-2.277-1.014-4.525-2.015-6.772-3.018-.048-.022-.082-.073-.147-.133.084-.17.163-.34.251-.507l8.446-15.835c.47-.883 1.02-1.15 2.034-1.002.932.136 1.722.535 2.328 1.264.4.48.499 1.003.277 1.614-2.101 5.782-4.19 11.568-6.283 17.353-.025.071-.068.136-.134.264z" fill="#001500"/><path d="M36.492 42.732c-.21.835-1.276 2.66-2.973 5.118.465.108.91.23 1.36.312.822.15 1.65.266 2.472.416.27.05.407-.049.55-.262 1.655-2.46 2.988-5.087 4.106-7.824.438-1.072.812-2.169 1.215-3.254l.13-.354 2.659.917c-.163.476-.31.926-.47 1.371-1.36 3.78-3.055 7.393-5.31 10.729-.188.277-.4.538-.585.816-.425.64-1.019.837-1.764.766a32.272 32.272 0 0 1-8.351-1.941c-4.906-1.847-9.13-4.673-12.477-8.747-.4-.488-.516-1.029-.254-1.602.252-.553.738-.804 1.331-.812 2.55-.033 5.007-.544 7.383-1.442 2.15-.813 4.109-1.94 5.617-3.72.437-.517.793-1.101 1.206-1.681l2.457 1.385c-.456.66-.861 1.319-1.338 1.922-1.167 1.475-2.638 2.596-4.271 3.503-2.461 1.369-5.118 2.157-7.886 2.605-.054.009-.108.02-.241.045.395.363.729.702 1.096.999a52.12 52.12 0 0 0 2.1 1.62.754.754 0 0 0 .553.107c1.418-.32 2.721-.888 3.814-1.899-.095.496-.992 1.759-2.252 3.164.791.394 1.591.739 2.336 1.177.964.567 1.886.412 2.833.003 1.6-.691 2.97-1.725 4.283-2.847.213-.182.42-.37.671-.59zm10.366-7.294L33.42 29.459a4.145 4.145 0 0 1 1.741-1.982c1.314-.775 2.69-.862 4.088-.254 1.794.781 3.587 1.57 5.363 2.391 2.087.967 3.068 3.14 2.433 5.3-.05.167-.117.33-.187.524zm-1.993-7.827c-1.414-.63-2.81-1.25-4.205-1.874-.03-.013-.05-.045-.091-.082.052-.106.101-.212.156-.315l5.244-9.832c.292-.549.633-.714 1.263-.622.579.084 1.069.332 1.446.784.248.298.309.623.171 1.002-1.304 3.59-2.6 7.183-3.9 10.775-.016.045-.043.085-.084.164z" fill="#6bc305"/></svg>