<svg xmlns="http://www.w3.org/2000/svg" viewBox="0 0 64 64"><path d="M38.345 38.948c-1.471 0-2.738.558-3.381 1.369l-5.645-4.201-3.568-.904-3.577 1.35-2.095 1.352c-1.016-1.258-2.804-2.096-4.854-2.096-3.167 0-5.738 1.993-5.738 4.443 0 2.45 2.571 4.443 5.738 4.443 2.301 0 4.267-1.052 5.189-2.57.484 1.061 1.5 1.667 2.45 1.397a1.7 1.7 0 0 0 .717-.429c.578 1.127 2.254 1.518 3.847.866.41-.167.773-.39 1.08-.642.234 1.257 1.826 2.235 3.783 2.235 1.863 0 3.409-.885 3.754-2.05a5.223 5.223 0 0 0 2.291.523c2.115 0 3.829-1.137 3.829-2.543.009-1.398-1.705-2.543-3.82-2.543zm2.739-20.522c.177-.298.289-.652.289-1.024 0-1.137-.95-2.059-2.124-2.059-.447 0-.866.14-1.211.373l-3.624-3.037-7.135.95-6.735 4.835-10.07 7.228a2.159 2.159 0 0 0-1.257-.41c-1.174 0-2.124.922-2.124 2.059 0 1.136.95 2.059 2.124 2.059.298 0 .578-.066.839-.168l.614 1.928 8.71-1.127 1.22-3.754 14.27-2.71 6.96-4.472z" stroke-width=".233" fill="#356202" stroke="#009949" stroke-miterlimit="10"/><path d="M28.183 60.931a.23.23 0 0 1-.177-.084c-.01-.01-.885-1.043-2.534-1.043-.764 0-1.584.223-2.44.652a.212.212 0 0 1-.103.028.243.243 0 0 1-.196-.103.24.24 0 0 1 .038-.307c.018-.019 1.956-1.76 1.956-5.02 0-3.242-.941-4.276-.95-4.286-.084-.093-.084-.242.009-.326l.522-.493a.218.218 0 0 1 .158-.066c.056 0 .112.019.158.056.038.028.187.177.354.373v-6.52c0-.038.121-2.786-.624-4.062-.512-.876-1.108-1.332-1.928-1.947-.391-.298-.838-.633-1.332-1.062-.335-.289-.531-.512-.447-.736.028-.074.112-.205.354-.205.55 0 2.226.736 2.412.82.485.345 1.63 1.137 2.217 1.463.205-.96.28-2.003.066-2.17-.075-.066-.112-.169-.075-.262a.241.241 0 0 1 .224-.158h1.183c.065 0 .13.028.177.074a.216.216 0 0 1 .055.187c0 .01-.12 1.034.056 1.956.392-.913 1.006-2.133 1.481-2.217h.038c.037 0 .084.01.111.028l1.286.736c.093.056.14.167.102.28a.232.232 0 0 1-.223.158h-.028c-.196 0-1.723.13-1.723 4.294v4.648c.065-.046.13-.093.195-.121a.332.332 0 0 1 .093-.019.23.23 0 0 1 .233.233v.699a.23.23 0 0 1-.167.223c.009 0-.55.41-.55 3.53 0 3.922.289 7.816 2.394 9.819.056.056.084.13.075.205a.24.24 0 0 1-.122.177c-.028.01-.177.084-.465.084-.382 0-1.016-.121-1.938-.662.047.215.13.494.317.82a.238.238 0 0 1-.075.307c-.074.01-.12.019-.167.019" fill="#ad7440"/><path d="M28.816 35.697l1.286.735h-.047c-.298 0-1.938.196-1.938 4.528v5.197s.317-.363.522-.447v.699s-.726.205-.726 3.754.176 7.815 2.459 9.986c0 0-.112.055-.364.055-.382 0-1.099-.14-2.217-.875 0 0-.065.568.382 1.378 0 0-.922-1.136-2.72-1.136-.717 0-1.565.177-2.543.68 0 0 2.031-1.788 2.031-5.198s-1.015-4.452-1.015-4.452l.521-.494s.652.587.746 1.062v-7.387s.14-2.822-.653-4.182c-.791-1.36-1.77-1.742-3.316-3.074-.456-.392-.456-.531-.242-.531.512 0 2.32.8 2.32.8s1.928 1.38 2.477 1.584c0 0 .56-2.282.047-2.692h1.183s-.205 1.602.251 2.692c0 0 1.016-2.59 1.556-2.682m-1.798-.466h-1.183a.458.458 0 0 0-.438.317.465.465 0 0 0 .15.521c.093.15.055.857-.084 1.621-.55-.335-1.36-.885-1.873-1.258a.377.377 0 0 0-.084-.046c-.447-.196-1.937-.838-2.505-.838-.4 0-.54.27-.568.353-.159.42.242.764.512.997.503.438.95.773 1.35 1.071.802.606 1.38 1.044 1.873 1.882.587 1.015.624 3.177.596 3.922v5.97a.44.44 0 0 0-.28-.092.5.5 0 0 0-.325.13l-.522.494a.437.437 0 0 0-.14.326c0 .12.047.242.13.335 0 0 .886 1.006.886 4.127 0 3.139-1.854 4.825-1.873 4.843a.47.47 0 0 0 .308.82.61.61 0 0 0 .214-.046c.82-.42 1.602-.634 2.338-.634 1.556 0 2.347.95 2.357.96a.464.464 0 0 0 .624.083c.195-.14.26-.4.149-.614a5.774 5.774 0 0 1-.121-.233c.698.335 1.21.419 1.537.419.326 0 .512-.075.577-.112a.484.484 0 0 0 .252-.345.435.435 0 0 0-.14-.4c-2.04-1.938-2.32-5.775-2.32-9.641 0-2.636.41-3.26.485-3.344a.463.463 0 0 0 .242-.41V45.7a.47.47 0 0 0-.466-.466h-.056V40.95c0-2.142.41-3.148.764-3.605.326-.437.652-.456.708-.456.028.01.056.01.084.01a.447.447 0 0 0 .42-.308.484.484 0 0 0-.224-.568l-1.286-.736a.515.515 0 0 0-.233-.066c-.028 0-.046 0-.074.01-.159.028-.578.093-1.304 1.574-.019-.42.009-.801.028-1.015.009-.028.009-.066.009-.103a.511.511 0 0 0-.494-.456z" fill="#724524"/><path d="M21.234 36.535c1.537 1.332 2.524 1.714 3.316 3.074.792 1.35.652 4.182.652 4.182v3c.177.4.391.764.624.913.643.41.829 2.17.708 3.79-.121 1.631.782 1.948.782 1.948s.317-.354.634-.969a48.367 48.367 0 0 1-.047-2.3c0-3.55.727-3.755.727-3.755v-.717c-.205.093-.522.447-.522.447V40.95c0-4.77 1.984-4.527 1.984-4.527l-1.285-.736c-.54.093-1.556 2.692-1.556 2.692-.447-1.08-.251-2.692-.251-2.692h-1.183c.512.41-.047 2.692-.047 2.692-.55-.205-2.478-1.583-2.478-1.583s-3.595-1.602-2.058-.261" fill="#99561f"/><g stroke-width=".233" stroke-miterlimit="10"><g stroke="#2aaa00"><path d="M52.818 26.002c-.792-.894-1.798-1.35-2.543-1.239 1.08-1.015 1.323-2.608.494-3.754-.559-.773-1.472-1.155-2.413-1.1.205-.735.121-1.508-.316-2.123-.839-1.164-2.618-1.313-3.96-.345-.055.038-.092.084-.139.121a1.768 1.768 0 0 0-.326-.773c-.661-.922-2.04-1.052-3.083-.307a2.41 2.41 0 0 0-1.006 1.695c-.54-.503-1.304-.82-2.161-.82-1.621 0-2.944 1.118-2.944 2.497 0 .643.298 1.22.764 1.667l-.019.019c-.68-.876-2.021-.997-3.037-.26-1.034.744-1.34 2.104-.68 3.017.457.634 1.249.885 2.04.745l.243 3.149 7.005 2.254h6.278l.652-.344c.084.158.177.307.298.437.773.867 2.077.97 2.916.224.447-.4.67-.96.661-1.528.727.354 1.444.382 1.882-.01.698-.605.428-2.058-.606-3.222z" fill="#569d03"/><path d="M51.225 35.112c-.55-.466-1.164-.754-1.732-.848.605-.736.885-1.695.642-2.645-.41-1.649-2.16-2.636-3.921-2.198-1.51.372-2.515 1.676-2.515 3.074l-8.347.186-2.766 2.021a3.986 3.986 0 0 0-.755-.074c-1.77 0-3.204 1.07-3.204 2.384 0 .783.512 1.472 1.304 1.91-.484.699-.643 1.5-.335 2.189.55 1.202 2.291 1.574 3.912.838a4.09 4.09 0 0 0 .652-.372c-.01.605.177 1.164.596 1.546.96.904 2.72.578 3.931-.717a4.48 4.48 0 0 0 .485-.643c.782.661 2.021.94 3.297.624 1.034-.26 1.854-.848 2.338-1.556.745.587 1.854.83 2.981.55 1.481-.373 2.506-1.509 2.58-2.72.736.196 1.426.084 1.807-.363.653-.764.224-2.19-.95-3.186z" fill="#407503"/><path d="M48.99 31.824c.149-1.258-.457-2.357-1.351-2.46a1.191 1.191 0 0 0-.54.075c.177-.26.28-.559.28-.866 0-1.118-1.249-2.021-2.777-2.021-.754 0-1.443.223-1.937.577.01-.354-.075-.69-.289-.96-.633-.782-2.05-.689-3.167.215-.559.447-.932 1.015-1.09 1.565a3.3 3.3 0 0 0-1.379-.764c-1.378-.391-2.729.065-2.999 1.034-.27.969.615 2.077 2.003 2.468.065.019.14.028.205.047l-.522.913 1.239 1.248c-.168.615-.084 1.397.289 2.143.53 1.061 1.471 1.686 2.291 1.63-.065.875.373 1.695 1.155 2.002.988.392 2.143-.186 2.571-1.285.028-.075.047-.158.065-.233.233.186.513.354.82.494 1.192.54 2.394.447 2.702-.215.149-.316.046-.707-.215-1.08 1.109.456 2.208.335 2.506-.298.298-.652-.363-1.593-1.481-2.124.782-.102 1.49-.969 1.62-2.105z" fill="#6bc305"/></g><g stroke="#2aaa00"><path d="M38.246 12.529a4.596 4.596 0 0 0-1.993.037c.866-1.565.205-3.782-1.621-5.123-1.425-1.043-3.149-1.248-4.434-.67.056-.811-.196-1.715-.783-2.497-1.108-1.472-2.953-1.947-4.117-1.071-.848.633-1.09 1.807-.745 2.971a1.754 1.754 0 0 0-.969-.307c-1.323 0-2.394 1.602-2.394 3.567 0 1.453.587 2.692 1.416 3.251l-.475 1.034-1.397-.316c.28-.42.456-.895.456-1.416 0-1.537-1.425-2.776-3.186-2.776-1.76 0-3.185 1.248-3.185 2.776 0 1.527 1.425 2.776 3.185 2.776a3.42 3.42 0 0 0 1.929-.587l.475.587 1.537.503c-.941.82-1.435 1.62-1.183 2.151.437.923 2.887.68 5.477-.55 1.267-.595 2.329-1.313 3.027-2.002-.14.373-.158.736-.009 1.053.438.922 2.05 1.07 3.596.344.782-.372 1.397-.894 1.76-1.434.317.885 1.388 1.676 2.785 1.947 1.807.344 3.456-.317 3.68-1.49.251-1.175-1.025-2.404-2.832-2.758z" fill="#6bc305"/><path d="M21.786 37.335c-.372-.792-.968-1.341-1.527-1.49l-.522-3.186-9.446.54-3.94 1.481a3.098 3.098 0 0 0-2.291-.987c-1.649 0-2.981 1.21-2.981 2.701 0 1.49 1.332 2.701 2.98 2.701h.01c-.289.569-.345 1.184-.102 1.714.512 1.118 2.142 1.472 3.642.783.652 1.025 2.207 1.677 3.977 1.528 1.463-.121 2.692-.764 3.344-1.612.615.475 1.714.606 2.85.27 1.351-.4 2.302-1.332 2.32-2.198.475.42 1.006.587 1.416.391.699-.326.81-1.509.27-2.636z" fill="#407503"/><path d="M21.19 31.16l-3.66-5.6-4.882 1.09c-.12-.67-.466-1.22-1.024-1.453-1.034-.437-2.348.364-2.944 1.78a3.446 3.446 0 0 0-.242 1.872c-.494-.652-1.35-1.09-2.31-1.09-1.537 0-2.776 1.09-2.776 2.44 0 .308.074.606.195.876-.158-.037-.316-.074-.475-.093-1.527-.168-2.86.587-2.99 1.705-.093.838.531 1.64 1.5 2.049.056.317.186.596.41.82.652.652 1.788.596 2.785-.047-.158 1.1.224 2.096 1.034 2.44.857.364 1.919-.139 2.59-1.136-.047 1.062.354 1.947 1.07 2.152.83.242 1.79-.503 2.302-1.705.214.485.55.82.959.876.69.103 1.379-.568 1.76-1.593.252.848.839 1.481 1.603 1.593 1.164.177 2.3-.922 2.524-2.44a3.245 3.245 0 0 0-.251-1.845z" fill="#6bc305"/></g><path d="M26.247 19.848c.885-.41 1.49-1.23 1.49-2.18 0-1.36-1.22-2.458-2.729-2.458-1.509 0-2.73 1.099-2.73 2.459 0 .112.02.223.038.335l-11.038 3.232c-.373-1.136-1.379-1.965-2.562-1.965-1.509 0-2.73 1.313-2.73 2.934 0 1.137.606 2.105 1.491 2.6-.335.334-.55.744-.55 1.191 0 1.118 1.249 2.022 2.777 2.022.698 0 1.322-.196 1.807-.503.14 1.015 1.239 1.807 2.59 1.807 1.443 0 2.617-.904 2.617-2.021 0-.066-.019-.13-.028-.196l5.18-.708 1.666-2.05a5.186 5.186 0 0 0 1.752.308c2.03 0 3.68-1.1 3.68-2.46-.01-1.117-1.165-2.058-2.72-2.347z" fill="#407503" stroke="#009949"/><path d="M26.564 15.787c-.438-.699-1.202-1.025-1.807-.81a1.77 1.77 0 0 0 .13-.373c.233-1.1-.643-2.217-1.956-2.496-.997-.215-1.956.111-2.469.754-.363-.913-1.21-1.546-2.198-1.546-1.285 0-2.329 1.09-2.385 2.45-.503-.67-1.34-1.109-2.291-1.109-1.537 0-2.776 1.146-2.776 2.553 0 .4.103.763.28 1.099-.094-.028-.187-.065-.28-.084-1.5-.317-2.916.307-3.148 1.406-.15.7.205 1.407.866 1.92-1.22-.103-2.3.521-2.515 1.508-.233 1.1.698 2.227 2.077 2.525.736.158 1.444.037 1.984-.261.159.848.913 1.602 1.956 1.826 1.258.27 2.46-.336 2.767-1.35.68.483 1.77.381 2.608-.299.773-.633 1.1-1.556.885-2.3.41.409.997.744 1.686.884 1.341.289 2.599-.186 3.028-1.071.111.158.251.26.419.307.642.168 1.406-.633 1.704-1.788.15-.578.159-1.137.047-1.574.382.149.782.14 1.108-.056.643-.373.764-1.332.28-2.115z" fill="#569d03" stroke="#2aaa00"/><path d="M38.515 30.896c-.829-.94-2.086-1.192-2.813-.55-.047.047-.084.094-.13.14l-.522-.493-3.316-1.37-8.29.233-3.308.848a2.745 2.745 0 0 0-2.17-1.071c-1.537 0-2.776 1.257-2.776 2.803 0 1.034.568 1.929 1.397 2.422-.596.68-.866 1.453-.614 2.124.456 1.23 2.43 1.63 4.406.904a9.44 9.44 0 0 0 .614-.27c-.055.503.056.968.345 1.332.755.931 2.44.82 3.763-.252a4.06 4.06 0 0 0 .755-.801c.69.42 1.602.633 2.57.54 1.212-.12 2.236-.698 2.805-1.48.68.39 1.546.586 2.478.493 1.676-.168 2.971-1.211 3.241-2.45.634.242 1.286.186 1.733-.205.745-.68.661-1.956-.168-2.897z" fill="#407503" stroke="#009949"/><path d="M35.786 29.052c.084-.047.167-.093.242-.159 1.025-.847 1.062-2.477.102-3.651-.68-.83-1.686-1.183-2.58-1.034.242-.643.224-1.35-.13-1.938-.662-1.08-2.199-1.341-3.428-.586a3.174 3.174 0 0 0-.652.558c.018-.316-.038-.614-.205-.875-.54-.876-1.928-1.016-3.093-.298-.69.428-1.146 1.052-1.285 1.676-.01-.009-.01-.018-.019-.027-.708-.988-2.3-1.062-3.568-.159-1.061.755-1.537 1.956-1.248 2.906-1.201-.493-2.496-.214-3.018.727-.428.773-.214 1.76.457 2.515-1.174.28-2.012 1.155-1.975 2.161.046 1.183 1.295 2.087 2.776 2.03.14-.008.28-.027.419-.055-.168.484-.168.969.065 1.35.54.876 2.04.941 3.353.131.336-.205.625-.447.857-.708-.037.466.075.913.354 1.267.727.913 2.292.866 3.494-.093.13-.103.242-.214.344-.326.205.13.42.233.67.289 1.324.298 2.674-.671 3.01-2.18.065-.289.074-.568.065-.839.074.122.149.233.242.345.876 1.053 2.226 1.379 3.018.717.494-.41.662-1.108.494-1.825.102.046.205.074.317.111.903.243 1.76-.037 1.918-.633.159-.512-.279-1.09-.996-1.397z" fill="#569d03" stroke="#2aaa00"/></g><path d="M48.638 43.59l-.038.065c.047.056.09.112.14.165.163.169.335.331.494.503 1.299 1.38 2.195 3.006 2.866 4.758 1.02 2.663 1.505 5.441 1.717 8.27.09 1.204.1 2.419.147 3.627 0 .037.012.075.015.11h2.526v-.15a33.567 33.567 0 0 0-.337-4.649c-.247-1.667-.63-3.297-1.215-4.88-.783-2.125-1.867-4.073-3.424-5.734-.668-.712-1.402-1.343-2.257-1.814-.2-.11-.422-.181-.634-.272m9.36 17.501h2.615v-.271c.022-1.39.138-2.772.41-4.137.343-1.726.886-3.38 1.75-4.917.335-.593.719-1.158 1.074-1.742.057-.096.078-.215.116-.321-.119.022-.247.022-.353.072-.546.262-.999.652-1.423 1.07-1.574 1.543-2.688 3.372-3.397 5.454a14.475 14.475 0 0 0-.712 3.39c-.047.46-.056.925-.08 1.402m-4.874.006c-.019-.374-.031-.727-.056-1.083a12.817 12.817 0 0 0-.709-3.387c-.709-2.017-1.845-3.759-3.362-5.257-.568-.562-1.18-1.074-1.88-1.47-.19-.11-.384-.222-.64-.194.363.584.853 1.07 1.215 1.645.365.58.743 1.158 1.055 1.77.31.612.578 1.249.802 1.898.225.646.406 1.315.547 1.986.143.67.24 1.355.312 2.038.072.68.087 1.368.128 2.054h2.588m4.149-5.915c.01-.044.019-.1.028-.153.187-1.187.45-2.351.849-3.487.668-1.899 1.633-3.6 3.19-4.92.032-.025.047-.066.072-.1l-.028-.047c-.175.05-.353.08-.518.147-.899.35-1.617.952-2.25 1.657-.763.85-1.309 1.836-1.793 2.863-.24.512-.38 1.008-.106 1.548.006.01.003.022.006.035.184.82.369 1.639.55 2.457"/><path d="M48.623 43.576c.212.09.434.162.633.275.859.474 1.592 1.105 2.257 1.813 1.558 1.661 2.641 3.612 3.425 5.735.584 1.583.968 3.213 1.214 4.88a33.62 33.62 0 0 1 .338 4.648v.15h-2.526c-.006-.031-.016-.069-.016-.11-.046-1.21-.056-2.422-.146-3.627-.213-2.828-.696-5.61-1.717-8.27-.675-1.754-1.567-3.38-2.866-4.757-.162-.172-.331-.334-.493-.503-.05-.053-.094-.11-.14-.165a.295.295 0 0 1 .037-.07z" fill="#6bc305" stroke="#2aaa00" stroke-width=".078" stroke-miterlimit="10"/><path d="M57.982 61.077c.025-.478.034-.943.075-1.402.106-1.158.337-2.288.712-3.39.708-2.082 1.823-3.912 3.396-5.454.428-.418.877-.812 1.424-1.07.106-.05.234-.05.352-.073-.037.11-.056.228-.115.322-.353.584-.74 1.149-1.074 1.742-.865 1.54-1.408 3.194-1.751 4.917-.272 1.364-.387 2.747-.41 4.136v.272h-2.61z" fill="#569c04" stroke="#2aaa00" stroke-width=".078" stroke-miterlimit="10"/><path d="M53.109 61.083h-2.585c-.04-.687-.056-1.373-.128-2.054a19.47 19.47 0 0 0-.312-2.039 16.668 16.668 0 0 0-.547-1.985 15.094 15.094 0 0 0-.802-1.898c-.31-.612-.687-1.19-1.055-1.77-.362-.578-.852-1.062-1.215-1.645.256-.029.45.084.64.193.7.397 1.312.909 1.88 1.47 1.517 1.499 2.653 3.244 3.362 5.258A12.72 12.72 0 0 1 53.056 60c.018.356.03.712.053 1.083z" fill="#4b8903" stroke="#2aaa00" stroke-width=".078" stroke-miterlimit="10"/><path d="M57.258 55.167c-.185-.818-.366-1.636-.55-2.457-.003-.012-.003-.025-.006-.034-.275-.537-.131-1.036.106-1.548.484-1.027 1.03-2.01 1.792-2.863.634-.709 1.352-1.311 2.25-1.658.166-.065.347-.1.52-.147.008.016.018.032.027.047-.025.035-.04.075-.072.1-1.557 1.32-2.522 3.022-3.19 4.92-.4 1.133-.662 2.301-.85 3.487a3.61 3.61 0 0 1-.027.153z" fill="#407503" stroke="#009949" stroke-width=".078" stroke-miterlimit="10"/><g><path d="M35.734 49.386l-.024.043c.03.037.06.074.092.108.106.111.22.217.324.33.852.905 1.44 1.973 1.88 3.122.67 1.747.987 3.57 1.126 5.425.06.791.066 1.588.097 2.38 0 .025.008.05.01.072h1.657v-.098a22.055 22.055 0 0 0-.221-3.05 15.953 15.953 0 0 0-.797-3.201c-.514-1.395-1.225-2.673-2.247-3.763-.438-.467-.92-.88-1.48-1.19-.132-.072-.277-.119-.417-.178m6.141 11.482h1.716v-.178c.015-.911.09-1.819.269-2.714.225-1.133.581-2.218 1.149-3.226.219-.389.47-.76.704-1.143.037-.063.052-.141.076-.21-.078.014-.162.014-.231.046-.359.172-.656.428-.934.703-1.033 1.012-1.764 2.212-2.229 3.578a9.497 9.497 0 0 0-.467 2.225c-.03.3-.037.606-.053.92m-3.197.003c-.013-.246-.02-.477-.037-.71a8.41 8.41 0 0 0-.465-2.223 8.986 8.986 0 0 0-2.206-3.45 5.925 5.925 0 0 0-1.233-.964c-.125-.072-.252-.145-.42-.127.238.383.56.703.797 1.08.24.38.487.76.692 1.16a10.466 10.466 0 0 1 .885 2.549c.094.44.158.889.205 1.337.047.447.057.898.084 1.348h1.698m2.722-3.881l.018-.1c.123-.779.295-1.543.557-2.289.439-1.245 1.072-2.361 2.094-3.228.02-.016.03-.043.047-.065l-.019-.03c-.114.032-.231.052-.34.095-.59.23-1.06.625-1.476 1.088-.5.557-.859 1.204-1.176 1.878-.158.336-.25.662-.07 1.016.004.006.002.015.004.023.121.538.242 1.075.36 1.612"/><path d="M35.717 49.37c.14.06.285.107.416.181.563.311 1.045.725 1.481 1.19 1.022 1.09 1.733 2.37 2.247 3.763.383 1.038.635 2.107.797 3.201a21.77 21.77 0 0 1 .22 3.05v.098h-1.656c-.004-.02-.01-.045-.01-.071-.031-.795-.037-1.59-.097-2.38-.139-1.856-.456-3.681-1.126-5.426-.443-1.151-1.028-2.219-1.88-3.122-.107-.112-.218-.219-.324-.33-.033-.034-.062-.071-.092-.108a.191.191 0 0 1 .024-.045z" fill="#6bc305" stroke="#2aaa00" stroke-width=".051" stroke-miterlimit="10"/><path d="M41.858 60.853c.016-.313.022-.618.05-.92.069-.76.22-1.5.466-2.224.465-1.366 1.196-2.566 2.229-3.578.28-.275.575-.533.934-.703.07-.032.153-.032.231-.047-.025.072-.037.15-.076.211-.231.383-.485.754-.704 1.143-.568 1.01-.924 2.095-1.15 3.226a15.085 15.085 0 0 0-.268 2.714v.178h-1.712z" fill="#569c04" stroke="#2aaa00" stroke-width=".051" stroke-miterlimit="10"/><path d="M38.66 60.857h-1.695c-.027-.45-.037-.9-.084-1.347-.047-.449-.11-.898-.205-1.338-.094-.44-.211-.879-.359-1.303a9.904 9.904 0 0 0-.526-1.245c-.203-.401-.45-.78-.692-1.161-.238-.38-.56-.697-.797-1.08.168-.018.295.056.42.127.459.26.86.596 1.233.965a9.002 9.002 0 0 1 2.206 3.45c.254.72.414 1.46.465 2.222.012.233.02.467.035.71z" fill="#4b8903" stroke="#2aaa00" stroke-width=".051" stroke-miterlimit="10"/><path d="M41.383 56.976c-.121-.537-.24-1.073-.36-1.612-.003-.008-.003-.016-.005-.023-.18-.352-.086-.68.07-1.016.317-.673.676-1.319 1.175-1.878.416-.465.887-.86 1.477-1.087.109-.043.228-.066.34-.097l.019.031c-.017.023-.027.05-.047.066-1.022.866-1.655 1.982-2.094 3.228-.262.743-.434 1.51-.557 2.288a2.276 2.276 0 0 1-.018.1z" fill="#407503" stroke="#009949" stroke-width=".051" stroke-miterlimit="10"/></g></svg>