<svg xmlns="http://www.w3.org/2000/svg" width="64" height="64"><path d="M52.783 24.126c0-9.67-9.304-17.51-20.783-17.51-9.74 0-17.89 5.653-20.144 13.27-6.242.798-11.03 5.325-11.03 10.806 0 6.044 5.815 10.944 12.989 10.944h38.968c5.74 0 10.392-3.92 10.392-8.755 0-4.835-4.653-8.755-10.392-8.755" fill="#d3e8f1" stroke="#d7dfe9" stroke-width="1.65"/><path d="M22.997 41.775h-.142c-.143 0-.214 0-.285-.071h-.072c-1.64-.285-2.994-1.925-3.137-3.708v-.57c.071-.285.143-.642.214-.998.143-.214.285-.5.428-.785l.499-.713c1.14-1.354 2.068-2.709 2.71-4.135.712 1.711 1.853 3.209 2.78 4.35.071.141.214.356.428.57.142.285.356.641.57.927.071.214.143.57.214.855v.854c-.214 1.57-1.497 3.067-3.066 3.352h-.071c-.071 0-.143.07-.285.07h-.785" fill="#1e82ff"/><path d="M23.342 31.686c.713 1.497 1.711 2.71 2.495 3.708.143.213.286.356.357.499.214.285.356.57.5.927.07.213.142.499.142.713v.712c-.143 1.426-1.355 2.78-2.781 3.066h-1.569c-1.497-.285-2.709-1.782-2.78-3.351v-.5l.214-.855c.142-.285.285-.499.427-.713l.5-.713c.998-1.14 1.853-2.281 2.495-3.493m.071-1.64c-.784 1.71-1.853 3.28-3.066 4.777l-.57.713-.428.855c-.142.357-.214.713-.285 1.07v.57c.071 1.854 1.569 3.708 3.422 3.993.143.142.357.142.5.142h.641c.143 0 .357 0 .57-.071 1.712-.285 3.138-1.925 3.352-3.636.071-.071 0-.214.071-.357v-.57c-.071-.357-.143-.642-.214-.998-.143-.357-.356-.713-.57-1.07-.143-.142-.286-.356-.428-.57-1.14-1.355-2.14-2.852-2.78-4.492l-.215-.357z" fill="#1271d8"/><path d="M12.302 49.796h-.142c-.143 0-.214 0-.285-.07h-.072c-1.64-.286-2.994-1.926-3.137-3.708v-.57c.071-.286.143-.643.214-1 .143-.213.285-.498.428-.783l.499-.713c1.14-1.355 2.068-2.71 2.71-4.136.712 1.711 1.853 3.209 2.78 4.35.071.141.214.356.428.57.142.285.356.642.57.927.072.214.143.57.214.855v.855c-.214 1.569-1.497 3.066-3.066 3.351h-.071c-.071 0-.143.071-.285.071h-.785" fill="#1e82ff"/><path d="M12.641 39.713c.713 1.497 1.711 2.71 2.496 3.708.142.214.285.356.356.499.214.285.357.57.5.927.07.214.142.499.142.713v.712c-.143 1.426-1.355 2.781-2.78 3.066h-1.569c-1.498-.285-2.71-1.782-2.781-3.35v-.429l.214-.855c.142-.285.285-.5.428-.713l.499-.713c.998-1.212 1.853-2.353 2.495-3.565m.071-1.64c-.784 1.711-1.853 3.28-3.065 4.777l-.57.713-.429.856c-.142.356-.214.713-.285 1.069v.57c.071 1.854 1.569 3.708 3.423 3.993.142.071.356.071.57.071h.642c.142 0 .356 0 .57-.07 1.711-.286 3.137-1.926 3.351-3.637.071-.071 0-.214.071-.357v-.499c-.07-.356-.142-.641-.213-.998-.143-.356-.357-.713-.57-1.07-.143-.141-.286-.356-.429-.57-1.14-1.354-2.139-2.852-2.78-4.492z" fill="#1271d8"/><path d="M22.997 57.817h-.142c-.143 0-.214 0-.285-.07h-.072c-1.64-.286-2.994-1.926-3.137-3.708v-.57c.071-.286.143-.642.214-.999.143-.214.285-.499.428-.784l.499-.713c1.14-1.355 2.068-2.71 2.71-4.136.712 1.712 1.853 3.209 2.78 4.35.071.142.214.356.428.57.142.285.356.642.57.927.071.214.143.57.214.856v.854c-.214 1.569-1.497 3.066-3.066 3.351h-.071c-.071 0-.143.071-.285.071h-.785" fill="#1e82ff"/><path d="M23.342 47.728c.713 1.498 1.711 2.71 2.495 3.708.143.214.286.356.357.499.214.285.356.57.5.927.07.214.142.499.142.713v.712c-.143 1.427-1.355 2.781-2.781 3.066h-1.569c-1.497-.285-2.709-1.782-2.78-3.35v-.5l.214-.855c.142-.285.285-.5.427-.713l.5-.713c.998-1.141 1.853-2.282 2.495-3.494m.071-1.64c-.784 1.711-1.853 3.28-3.066 4.777l-.57.713-.428.856c-.142.356-.214.713-.285 1.07v.57c.071 1.853 1.569 3.707 3.422 3.992.143.142.357.142.5.142h.641c.143 0 .357 0 .57-.07 1.712-.286 3.138-1.926 3.352-3.637.071-.07 0-.214.071-.356v-.57c-.071-.357-.143-.642-.214-.999-.143-.356-.356-.713-.57-1.07-.143-.141-.286-.356-.428-.57-1.14-1.354-2.14-2.852-2.78-4.492l-.215-.356z" fill="#1271d8"/><path d="M32.668 49.088h-.115c-.116 0-.174 0-.231-.057h-.058c-1.329-.231-2.426-1.56-2.541-3.004v-.461c.057-.232.115-.52.173-.809.115-.173.23-.404.346-.635l.405-.578c.924-1.097 1.675-2.194 2.194-3.35.578 1.386 1.502 2.6 2.253 3.523.057.116.173.29.346.462.116.231.289.52.462.751.058.173.116.462.173.693v.693c-.173 1.27-1.212 2.484-2.483 2.715h-.058c-.057 0-.115.057-.23.057h-.636" fill="#1e82ff"/><path d="M32.947 40.916c.578 1.213 1.386 2.195 2.022 3.004.115.173.23.288.288.404.174.23.289.462.405.75.057.174.115.405.115.578v.578c-.115 1.155-1.097 2.252-2.252 2.483H32.254c-1.213-.231-2.194-1.444-2.252-2.714v-.405l.173-.693c.116-.23.231-.404.347-.577l.404-.578c.808-.924 1.501-1.848 2.021-2.83m.058-1.328c-.635 1.386-1.502 2.657-2.483 3.87l-.462.577-.347.693a4.812 4.812 0 0 0-.231.866v.462c.058 1.502 1.27 3.004 2.772 3.235.116.115.289.115.404.115h.52c.116 0 .289 0 .462-.058 1.386-.23 2.541-1.559 2.715-2.945.057-.058 0-.173.057-.289v-.462c-.057-.289-.115-.52-.173-.808-.115-.29-.289-.578-.462-.867a3.19 3.19 0 0 1-.346-.462c-.925-1.097-1.733-2.31-2.253-3.638l-.173-.289z" fill="#1271d8"/><path d="M43.763 43.903h-.143c-.142 0-.213 0-.285-.071h-.071c-1.64-.286-2.995-1.925-3.137-3.708v-.57c.071-.285.142-.642.214-.998.142-.214.285-.5.427-.785l.5-.713c1.14-1.354 2.067-2.71 2.709-4.135.713 1.711 1.854 3.208 2.78 4.35.072.141.215.356.428.57.143.285.357.641.57.926.072.214.143.57.215.856v.854c-.214 1.57-1.498 3.067-3.066 3.352h-.071c-.072 0-.143.07-.286.07h-.784" fill="#1e82ff"/><path d="M44.102 33.82c.713 1.497 1.71 2.71 2.495 3.707.143.214.285.357.357.5.214.285.356.57.499.926.071.214.142.5.142.713v.712c-.142 1.427-1.354 2.782-2.78 3.067H43.247c-1.498-.285-2.71-1.783-2.782-3.351v-.428l.214-.856c.143-.285.286-.499.428-.713l.5-.713c.997-1.212 1.853-2.353 2.495-3.565m.071-1.64c-.784 1.712-1.854 3.28-3.066 4.778l-.57.713-.428.855c-.143.357-.214.713-.285 1.07v.57c.071 1.854 1.568 3.708 3.422 3.993.143.07.357.07.57.07h.642c.143 0 .357 0 .57-.07 1.712-.285 3.138-1.925 3.352-3.636.071-.071 0-.214.071-.357v-.499c-.071-.357-.143-.642-.214-.998-.143-.357-.356-.713-.57-1.07-.143-.142-.286-.356-.428-.57-1.14-1.355-2.14-2.852-2.78-4.492z" fill="#1271d8"/><path d="M50.095 57.384h-.142c-.143 0-.214 0-.286-.07h-.07c-1.64-.286-2.995-1.926-3.138-3.708v-.57c.071-.286.143-.643.214-.999.142-.214.285-.5.428-.784l.499-.713c1.14-1.355 2.067-2.71 2.71-4.136.712 1.711 1.853 3.209 2.78 4.35.071.141.214.356.428.57.142.285.356.642.57.927.071.214.143.57.214.855v.855c-.214 1.569-1.497 3.066-3.066 3.351h-.071c-.072 0-.143.071-.285.071h-.785" fill="#1e82ff"/><path d="M50.434 47.301c.713 1.497 1.711 2.71 2.495 3.708.143.214.286.356.357.499.214.285.356.57.499.927.071.214.143.499.143.713v.712c-.143 1.426-1.355 2.781-2.781 3.066h-1.569c-1.497-.285-2.71-1.782-2.78-3.35v-.429c.07-.285.142-.57.214-.855.142-.285.285-.5.427-.713l.5-.713c.998-1.212 1.853-2.353 2.495-3.565m.071-1.64c-.784 1.711-1.854 3.28-3.066 4.777l-.57.713-.428.856c-.142.356-.214.713-.285 1.07v.57c.071 1.853 1.569 3.707 3.422 3.992.143.071.357.071.57.071h.642c.143 0 .357 0 .57-.07 1.712-.286 3.138-1.926 3.352-3.637.071-.071 0-.214.071-.357v-.499c-.071-.356-.142-.641-.214-.998-.142-.356-.356-.713-.57-1.07-.143-.141-.285-.356-.428-.57-1.14-1.354-2.139-2.852-2.78-4.492z" fill="#1271d8"/><g><path d="M39.364 56.277h-.115c-.116 0-.173 0-.231-.058h-.058c-1.328-.23-2.425-1.56-2.541-3.003v-.462c.058-.231.116-.52.173-.809.116-.173.231-.404.347-.635l.404-.577c.924-1.098 1.675-2.195 2.195-3.35.577 1.386 1.501 2.599 2.252 3.523.058.115.173.289.347.462.115.23.288.52.462.75.057.174.115.463.173.694v.693c-.173 1.27-1.213 2.483-2.484 2.714h-.057c-.058 0-.116.058-.231.058h-.636" fill="#1e82ff"/><path d="M39.644 48.105c.577 1.213 1.386 2.194 2.02 3.003.116.173.232.289.29.404.173.231.288.462.404.751.058.173.115.404.115.578v.577c-.115 1.155-1.097 2.253-2.252 2.483h-1.27c-1.213-.23-2.195-1.443-2.253-2.714v-.404l.173-.693c.116-.231.231-.405.347-.578l.404-.577c.809-.924 1.502-1.848 2.022-2.83m.057-1.328c-.635 1.386-1.501 2.656-2.483 3.869l-.462.578-.347.693a4.812 4.812 0 0 0-.23.866v.462c.057 1.501 1.27 3.003 2.772 3.234.115.116.288.116.404.116h.52c.115 0 .288 0 .462-.058 1.386-.231 2.54-1.56 2.714-2.946.058-.057 0-.173.058-.288v-.462c-.058-.29-.116-.52-.174-.809-.115-.289-.288-.577-.462-.866-.115-.116-.23-.29-.346-.462-.924-1.098-1.733-2.31-2.252-3.639l-.174-.288z" fill="#1271d8"/></g></svg>