<svg xmlns="http://www.w3.org/2000/svg" xmlns:xlink="http://www.w3.org/1999/xlink" height="64" width="64"><defs><linearGradient gradientUnits="userSpaceOnUse" x2="31" y2="57" x1="32" y1="6" id="b" xlink:href="#a"/><linearGradient id="a"><stop stop-color="#42a603"/><stop offset="1" stop-color="#78da06"/></linearGradient><radialGradient gradientUnits="userSpaceOnUse" r="31" cy="32" cx="32" id="c" gradientTransform="matrix(.405 0 0 .405 38.023 -5.367)"><stop offset=".8" stop-color="#f8f5e5" stop-opacity="0"/><stop offset=".8" stop-color="#ffde52" stop-opacity=".2"/><stop offset="1" stop-color="#ffde52" stop-opacity="0"/></radialGradient></defs><path d="M15.517 11.715h3.878v1.939h-3.878zm5.818 0h5.818v1.939h-5.818z" fill="#da4453"/><path d="M32.97 11.715h5.819v1.939H32.97zm9.697 0h11.636v1.939H42.667zm13.576 0H64v1.939h-7.757z" fill="#95a5a6"/><path d="M15.517 15.593h7.757v1.94h-7.757zm9.696 0h3.879v1.94h-3.879z" fill="#bdc3c7"/><path fill="#95a5a6" d="M32.971 15.593h15.515v1.939H32.971z"/><path d="M15.517 29.169h3.878v1.939h-3.878zm5.818 0h5.818v1.939h-5.818z" fill="#3daefd"/><path d="M32.97 29.169h7.758v1.939h-7.757zm11.637 0h7.757v1.939h-7.757zm9.696 0H64v1.939h-9.697z" fill="#95a5a6"/><path fill="#bdc3c7" d="M15.517 33.047h5.818v1.939h-5.818z"/><path d="M32.97 33.047h5.819v1.94H32.97zm7.758 0h1.94v1.94h-1.94zm3.879 0h9.696v1.94h-9.696zm9.696 17.454h-3.878v1.94h3.878zm-5.818 0H32.971v1.94h15.514z" fill="#95a5a6"/><path fill="#bdc3c7" d="M29.092 50.501H15.517v1.94h13.575z"/><path d="M64 46.623h-3.879v1.939H64zm-5.818 0h-5.818v1.939h5.818zm-7.757 0H32.97v1.939h17.454z" fill="#95a5a6"/><path fill="#3daefd" d="M25.213 46.623h-9.696v1.939h9.696z"/><path d="M32 6c-6.333 3.354-12.667 4.725-19 6v25c0 7 10.263 16.561 19 20.998C40.737 53.561 51 44 51 37V12c-6.333-1.275-12.667-2.646-19-6z" transform="translate(-2.943 6.962) scale(.26384)" fill="url(#b)"/><path d="M.487 16.196v.528c0 1.847 2.708 4.37 5.013 5.54 2.305-1.17 5.013-3.693 5.013-5.54v-.528c0 1.847-2.708 4.37-5.013 5.54-2.305-1.17-5.013-3.693-5.013-5.54z" fill="#368902"/><g transform="translate(0 27.86) scale(.17187)"><path d="M30.11 49.862a17.642 17.43 0 0 0 3.615.005l.419-2.702a14.996 14.815 0 0 0 3.252-.858l1.726 2.127a17.642 17.43 0 0 0 3.13-1.79l-1.001-2.537a14.996 14.815 0 0 0 2.39-2.349l2.552.982a17.642 17.43 0 0 0 1.809-3.096l-2.137-1.692a14.996 14.815 0 0 0 .537-1.585 14.996 14.815 0 0 0 .326-1.635l2.729-.414a17.642 17.43 0 0 0 .005-3.57l-2.734-.414a14.996 14.815 0 0 0-.87-3.214l2.154-1.704a17.642 17.43 0 0 0-1.812-3.093l-2.568.989a14.996 14.815 0 0 0-2.377-2.362l.994-2.52a17.642 17.43 0 0 0-3.134-1.787l-1.711 2.11a14.996 14.815 0 0 0-1.606-.53 14.996 14.815 0 0 0-1.655-.322l-.417-2.696a17.642 17.43 0 0 0-3.614-.005l-.422 2.7a14.996 14.815 0 0 0-3.252.86l-1.726-2.128a17.642 17.43 0 0 0-3.13 1.79l1 2.537a14.996 14.815 0 0 0-2.39 2.349l-2.552-.983a17.642 17.43 0 0 0-1.808 3.097l2.137 1.691a14.996 14.815 0 0 0-.537 1.585 14.996 14.815 0 0 0-.326 1.635l-2.73.414a17.642 17.43 0 0 0-.005 3.57l2.735.415a14.996 14.815 0 0 0 .87 3.213l-2.154 1.705a17.642 17.43 0 0 0 1.812 3.093l2.567-.99a14.996 14.815 0 0 0 2.378 2.362l-.994 2.521a17.642 17.43 0 0 0 3.134 1.787l1.712-2.11a14.996 14.815 0 0 0 1.604.53 14.996 14.815 0 0 0 1.656.321zm-1.389-5.544a12.35 12.2 0 0 1-8.732-14.942 12.35 12.2 0 0 1 15.125-8.628 12.35 12.2 0 0 1 8.732 14.943 12.35 12.2 0 0 1-15.125 8.627" color="#000" opacity=".98" fill="#6bc206" stroke="#569b05" stroke-linejoin="round"/><path d="M28.81 24.546v15.975l8.084-7.988z" fill="#d72a2a"/><ellipse cx="4.696" cy="4.64" rx="4.595" ry="4.54" fill="#3660bf"/><ellipse cx="59.405" cy="4.54" rx="4.595" ry="4.54" fill="#3660bf"/><ellipse cx="4.595" cy="59.46" rx="4.595" ry="4.54" fill="#3660bf"/><ellipse cx="59.304" cy="59.36" rx="4.595" ry="4.54" fill="#3660bf"/><g transform="matrix(1.14872 0 0 1.1349 -4.842 -3.783)" fill="#9b9c9e"><rect ry="0" y="6.483" x="30.348" height="3" width="3"/><rect ry="0" y="6.483" x="25.006" height="3" width="3"/><rect ry="0" y="6.483" x="19.664" height="3" width="3"/><rect ry="0" y="6.483" x="14.322" height="3" width="3"/><rect ry="0" y="11.412" x="30.32" height="3" width="3"/></g><g transform="matrix(0 -1.1349 1.14872 0 -4.557 68.716)" fill="#9b9c9e"><rect ry="0" y="6.483" x="30.348" height="3" width="3"/><rect ry="0" y="6.483" x="25.006" height="3" width="3"/><rect ry="0" y="6.483" x="19.664" height="3" width="3"/><rect ry="0" y="6.483" x="14.322" height="3" width="3"/><rect ry="0" y="11.412" x="30.32" height="3" width="3"/></g><g transform="matrix(-1.14872 0 0 -1.1349 68.533 68.87)" fill="#9b9c9e"><rect ry="0" y="6.483" x="30.348" height="3" width="3"/><rect ry="0" y="6.483" x="25.006" height="3" width="3"/><rect ry="0" y="6.483" x="19.664" height="3" width="3"/><rect ry="0" y="6.483" x="14.322" height="3" width="3"/><rect ry="0" y="11.412" x="30.32" height="3" width="3"/></g><g transform="matrix(0 1.1349 -1.14872 0 68.79 -3.742)" fill="#9b9c9e"><rect ry="0" y="6.483" x="30.348" height="3" width="3"/><rect ry="0" y="6.483" x="25.006" height="3" width="3"/><rect ry="0" y="6.483" x="19.664" height="3" width="3"/><rect ry="0" y="6.483" x="14.322" height="3" width="3"/><rect ry="0" y="11.412" x="30.32" height="3" width="3"/></g></g><g transform="translate(-16.834 46.629) scale(.43807)"><circle cx="50.983" cy="7.593" r="12.555" fill="url(#c)"/><circle cx="50.983" cy="7.593" r="9.315" fill="#ffde52"/></g></svg>