<svg xmlns="http://www.w3.org/2000/svg" width="64" height="64"><path d="M30.11 49.862a17.642 17.43 0 0 0 3.615.005l.419-2.702a14.996 14.815 0 0 0 3.252-.858l1.726 2.127a17.642 17.43 0 0 0 3.13-1.79l-1.001-2.537a14.996 14.815 0 0 0 2.39-2.349l2.552.982a17.642 17.43 0 0 0 1.809-3.096l-2.137-1.692a14.996 14.815 0 0 0 .537-1.585 14.996 14.815 0 0 0 .326-1.635l2.729-.414a17.642 17.43 0 0 0 .005-3.57l-2.734-.414a14.996 14.815 0 0 0-.87-3.214l2.154-1.704a17.642 17.43 0 0 0-1.812-3.093l-2.568.989a14.996 14.815 0 0 0-2.377-2.362l.994-2.52a17.642 17.43 0 0 0-3.134-1.787l-1.711 2.11a14.996 14.815 0 0 0-1.606-.53 14.996 14.815 0 0 0-1.655-.322l-.417-2.696a17.642 17.43 0 0 0-3.614-.005l-.422 2.7a14.996 14.815 0 0 0-3.252.86l-1.726-2.128a17.642 17.43 0 0 0-3.13 1.79l1 2.537a14.996 14.815 0 0 0-2.39 2.349l-2.552-.983a17.642 17.43 0 0 0-1.808 3.097l2.137 1.691a14.996 14.815 0 0 0-.537 1.585 14.996 14.815 0 0 0-.326 1.635l-2.73.414a17.642 17.43 0 0 0-.005 3.57l2.735.415a14.996 14.815 0 0 0 .87 3.213l-2.154 1.705a17.642 17.43 0 0 0 1.812 3.093l2.567-.99a14.996 14.815 0 0 0 2.378 2.362l-.994 2.521a17.642 17.43 0 0 0 3.134 1.787l1.712-2.11a14.996 14.815 0 0 0 1.604.53 14.996 14.815 0 0 0 1.656.321zm-1.389-5.544a12.35 12.2 0 0 1-8.732-14.942 12.35 12.2 0 0 1 15.125-8.628 12.35 12.2 0 0 1 8.732 14.943 12.35 12.2 0 0 1-15.125 8.627" color="#000" opacity=".98" fill="#6bc206" stroke-linejoin="round" stroke="#569b05"/><path d="M28.81 24.546v15.975l8.084-7.988z" fill="#d72a2a"/><ellipse cx="4.696" cy="4.64" rx="4.595" ry="4.54" fill="#3660bf"/><ellipse cx="59.405" cy="4.54" rx="4.595" ry="4.54" fill="#3660bf"/><ellipse cx="4.595" cy="59.46" rx="4.595" ry="4.54" fill="#3660bf"/><ellipse cx="59.304" cy="59.36" rx="4.595" ry="4.54" fill="#3660bf"/><g transform="matrix(1.14872 0 0 1.1349 -4.842 -3.783)" fill="#9b9c9e"><rect ry="0" y="6.483" x="30.348" height="3" width="3"/><rect ry="0" y="6.483" x="25.006" height="3" width="3"/><rect ry="0" y="6.483" x="19.664" height="3" width="3"/><rect ry="0" y="6.483" x="14.322" height="3" width="3"/><rect ry="0" y="11.412" x="30.32" height="3" width="3"/></g><g transform="matrix(0 -1.1349 1.14872 0 -4.557 68.716)" fill="#9b9c9e"><rect ry="0" y="6.483" x="30.348" height="3" width="3"/><rect ry="0" y="6.483" x="25.006" height="3" width="3"/><rect ry="0" y="6.483" x="19.664" height="3" width="3"/><rect ry="0" y="6.483" x="14.322" height="3" width="3"/><rect ry="0" y="11.412" x="30.32" height="3" width="3"/></g><g transform="matrix(-1.14872 0 0 -1.1349 68.533 68.87)" fill="#9b9c9e"><rect ry="0" y="6.483" x="30.348" height="3" width="3"/><rect ry="0" y="6.483" x="25.006" height="3" width="3"/><rect ry="0" y="6.483" x="19.664" height="3" width="3"/><rect ry="0" y="6.483" x="14.322" height="3" width="3"/><rect ry="0" y="11.412" x="30.32" height="3" width="3"/></g><g transform="matrix(0 1.1349 -1.14872 0 68.79 -3.742)" fill="#9b9c9e"><rect ry="0" y="6.483" x="30.348" height="3" width="3"/><rect ry="0" y="6.483" x="25.006" height="3" width="3"/><rect ry="0" y="6.483" x="19.664" height="3" width="3"/><rect ry="0" y="6.483" x="14.322" height="3" width="3"/><rect ry="0" y="11.412" x="30.32" height="3" width="3"/></g></svg>