<svg xmlns="http://www.w3.org/2000/svg" viewBox="0 0 64 64"><rect width="49.786" height="62.121" x="7.107" y=".94" ry="0" fill="#fff" fill-opacity=".846"/><path d="M40.769 25.046c-1.345-11.506-8.353-14.4-10.222-14.974a.32.32 0 0 0-.42.32c.3 4.536-2.056 7.106-2.056 7.106s-3.107 3.68-3.968 4.906c-.861 1.227-2.151 5.914 1.19 9.812 2.857 3.336 6.055.962 6.917.207a.34.34 0 0 1 .452.015c1.436 1.344 3.091 1.691 4.536.533 4.527-3.627 3.57-7.925 3.57-7.925" fill="#f01428"/><path d="M32.436 32.216s-2.333 2.011-3.968 0c-1.635-2.012-.794-5.283-.794-5.283s1.274-2.816 3.968-5.66c0 0 1.06-1.103 1.19-1.888 0 0 3.604 1.823 3.969 6.416.365 4.592-3.572 7.17-3.572 7.17l-.793-.755" fill="#ff8200"/><path d="M32.436 32.216s2.694-.74 3.174-5.283c0 0 .35-1.465-2.38-3.774l-3.175 3.396s-1.19 1.147-1.19 3.02c0 1.871 1.19 2.64 1.19 2.64s1.06 1.257 2.38 0" fill="#ffc800"/><rect width="51.162" height="10.03" x="6.395" y="52.274" ry="0"/><rect width="49.786" height="62.121" x="7.107" y=".94" ry="0" fill="none" stroke="#9b9c9e" stroke-width="1.927" stroke-linecap="square" stroke-linejoin="round" stroke-miterlimit="10"/><rect width="13.111" height="5.265" x="25.444" y="54.392" ry="0" fill="#9b9c9e"/><path d="M16.97 53.903a3.621 3.122 0 0 0-3.62 3.121 3.621 3.122 0 0 0 3.62 3.122 3.621 3.122 0 0 0 3.622-3.122 3.621 3.122 0 0 0-.888-2.041l-1.714 1.478-.58-.498 1.692-1.458a3.621 3.122 0 0 0-2.131-.602zm26.438 3.121a3.621 3.122 0 0 0 3.621 3.122 3.621 3.122 0 0 0 3.622-3.122 3.621 3.122 0 0 0-3.622-3.121 3.621 3.122 0 0 0-2.367.765l1.714 1.478-.578.499-1.69-1.458a3.621 3.122 0 0 0-.7 1.837z" fill="#9b9c9e"/><g transform="matrix(1.32461 0 0 1.14194 -10.926 39.897)" fill="#9b9c9e"><rect ry="0" x="13.22" height="1.627" width="4.068"/><rect ry="0" x="46.78" height="1.627" width="4.068"/></g></svg>