<svg xmlns="http://www.w3.org/2000/svg" viewBox="0 0 64 64"><path d="M12 8h40v48H12z" fill="#f0f0f0"/><path d="M51.394 8.727v46.546H12.606V8.727h38.788m1.212-1.454H11.394v49.454h41.212z" fill="#646464"/><path d="M16.849 13.818H47.15v36.364h-30.3z" fill="#d9f1ff"/><path d="M46.545 14.545v34.91h-29.09v-34.91h29.09m1.212-1.454H16.243v37.818h31.514z" fill="#7aadcc"/><path d="M5.94 63.273V.727h52.12v62.546H5.94m4.848-5.818h42.424V6.545H10.788v50.91" fill="#ececed"/><path d="M57.454 1.455v61.09H6.546V1.455h50.908M10.182 58.182h43.636V5.818H10.182v52.364M58.666 0H5.334v64h53.332zM11.394 56.727V7.273h41.212v49.454H11.394" fill="#9b9c9e"/><g fill="#646464" transform="matrix(1.21211 0 0 1.45455 -6.788 -14.545)"><path d="M46 36.5v-5c0-.27.22-.5.5-.5.27 0 .5.23.5.5v5c0 .28-.23.5-.5.5-.28 0-.5-.22-.5-.5"/><circle r="1" cy="31.5" cx="46.5"/></g></svg>