<svg xmlns="http://www.w3.org/2000/svg" width="64" height="64"><g fill="#3660bf"><path d="M19.324 6.797h26.328v4.174H19.324zm.161 46.233h26.328v4.174H19.485zM47.05 34.778L64 52.33l-3.003 2.9-16.95-17.552zm-3.002-8.294L60.998 8.93l3.004 2.9-16.95 17.553z"/><g transform="translate(-914.573 -1228.039) scale(2.36788)"><circle cx="397.815" cy="525.787" r="1.65"/><circle cx="402.334" cy="525.787" r="1.65"/></g><g transform="translate(-914.573 -1218.157) scale(2.36788)"><circle cx="397.815" cy="525.787" r="1.65"/><circle cx="402.334" cy="525.787" r="1.65"/></g><g transform="translate(-914.573 -1208.276) scale(2.36788)"><circle cx="397.815" cy="525.787" r="1.65"/><circle cx="402.334" cy="525.787" r="1.65"/></g><g transform="translate(-914.573 -1198.394) scale(2.36788)"><circle cx="397.815" cy="525.787" r="1.65"/><circle cx="402.334" cy="525.787" r="1.65"/></g><path d="M7.766 25.74h11.238v13.485H7.766z"/><path d="M11.617 20.862L0 32.479l11.617 11.622z"/></g></svg>