<svg xmlns="http://www.w3.org/2000/svg" xmlns:xlink="http://www.w3.org/1999/xlink" width="64" height="64"><defs><linearGradient id="a"><stop stop-color="#ed868d"/><stop offset="1" stop-color="#fbe6e8"/></linearGradient><linearGradient id="b"><stop stop-color="#c61423"/><stop offset="1" stop-color="#dc2b41"/></linearGradient><linearGradient id="d" xlink:href="#a" y1="201.934" y2="177.934" gradientUnits="userSpaceOnUse" x2="0" gradientTransform="translate(0 -3)"/><linearGradient xlink:href="#b" id="c" y1="58" y2="6" x2="0" gradientUnits="userSpaceOnUse"/></defs><path transform="translate(-7.386 -7.385) scale(1.23082)" d="M32 6c-6.333 3.354-12.667 4.725-19 6v25c0 7 10.263 16.561 19 20.998C40.737 53.561 51 44 51 37V12c-6.333-1.275-12.667-2.646-19-6z" fill="url(#c)"/><path d="M779.443 174.934l1.414 1.414-10.586 10.586 10.586 10.586-1.414 1.414-10.586-10.586-10.586 10.586-1.414-1.414 10.586-10.586-10.586-10.586 1.414-1.414 10.586 10.586z" fill="url(#d)" transform="translate(-914.321 -201.772) scale(1.23082)"/><path d="M8.615 35.694v2.461C8.615 46.771 21.247 58.54 32 64c10.753-5.46 23.385-17.229 23.385-25.845v-2.461c0 8.615-12.632 20.384-23.385 25.844C21.247 56.078 8.615 44.31 8.615 35.694z" fill="#aa111e"/></svg>