<svg xmlns="http://www.w3.org/2000/svg" viewBox="0 0 64 64"><g transform="translate(-2.597 -3.746) scale(1.08954)"><ellipse ry="5.694" rx="6" cx="23.489" cy="9.133" fill="#dae1e4"/><ellipse ry="4.745" rx="5" cx="23.489" cy="9.133" fill="#c4cacc"/><path d="M17.49 9.505h12v42.708h-12z" fill="#dae1e4"/><path d="M18.49 9.455h10v41.802h-10z" fill="#c4cacc"/><ellipse ry="8.542" rx="9" cx="23.489" cy="53.637" fill="#dae1e4"/><ellipse ry="7.593" rx="8" cy="53.637" cx="23.489" fill="#d72a2a"/><path d="M18.49 12.4h10v35.47h-10z" fill="#d72a2a"/><path d="M9.478 10.425h5v2h-5zm0 8h5v2h-5zm0 8h5v2h-5zm0 8h5v2h-5zm0 8h5v2h-5z" fill="#c4cacc"/></g><g transform="translate(-2.597 -4.373) scale(1.08954)"><circle cx="47.729" cy="8.213" r="4.2" fill="#dae1e4"/><circle cx="47.729" cy="8.213" r="3.5" fill="#c4cacc"/><path d="M43.529 7.963h8.4v31.5h-8.4z" fill="#dae1e4"/><path d="M44.229 7.926h7V38.76h-7z" fill="#c4cacc"/><circle cx="47.729" cy="40.513" r="6.3" fill="#dae1e4"/><g transform="matrix(.7 0 0 .7 25.329 2.013)" fill="#2e7de5"><circle cx="32" cy="55" r="8"/><path d="M27 39h10v12H27z"/></g><path d="M37.86 9.49h3.676v1.47H37.86zm0 5.88h3.676v1.47H37.86zm0 5.88h3.676v1.47H37.86zm0 5.88h3.676v1.47H37.86zm0 5.88h3.676v1.47H37.86z" fill="#c4cacc"/></g></svg>