<svg xmlns="http://www.w3.org/2000/svg" width="64" height="64"><path d="M28.774 63.32a31.503 31.504 0 0 0 6.453.01l.749-4.883a26.778 26.778 0 0 0 5.808-1.553l3.08 3.845a31.503 31.504 0 0 0 5.59-3.235l-1.787-4.585a26.778 26.778 0 0 0 4.268-4.245l4.557 1.775a31.503 31.504 0 0 0 3.23-5.597l-3.815-3.058a26.778 26.778 0 0 0 .958-2.864 26.778 26.778 0 0 0 .582-2.956l4.873-.748a31.503 31.504 0 0 0 .01-6.454l-4.883-.748a26.778 26.778 0 0 0-1.552-5.808l3.845-3.081a31.503 31.504 0 0 0-3.235-5.59l-4.586 1.787a26.778 26.778 0 0 0-4.245-4.268l1.776-4.556a31.503 31.504 0 0 0-5.598-3.23l-3.055 3.816a26.778 26.778 0 0 0-2.867-.96 26.778 26.778 0 0 0-2.955-.581L35.229.679A31.503 31.504 0 0 0 28.775.67l-.75 4.883a26.778 26.778 0 0 0-5.808 1.553L19.136 3.26a31.503 31.504 0 0 0-5.59 3.235l1.787 4.586a26.778 26.778 0 0 0-4.268 4.245L6.508 13.55a31.503 31.504 0 0 0-3.23 5.597l3.815 3.058a26.778 26.778 0 0 0-.958 2.864 26.778 26.778 0 0 0-.582 2.956l-4.874.748a31.503 31.504 0 0 0-.009 6.454l4.883.748a26.778 26.778 0 0 0 1.552 5.808L3.26 44.864a31.503 31.504 0 0 0 3.235 5.59l4.586-1.787a26.778 26.778 0 0 0 4.245 4.268l-1.775 4.557a31.503 31.504 0 0 0 5.597 3.23l3.057-3.816a26.778 26.778 0 0 0 2.865.959 26.778 26.778 0 0 0 2.956.582zm-2.482-10.019A22.052 22.052 0 0 1 10.7 26.293a22.052 22.052 0 0 1 27.008-15.594 22.052 22.052 0 0 1 15.594 27.009A22.052 22.052 0 0 1 26.292 53.3" color="#000" opacity=".98" fill="#6bc206" stroke="#569b05" stroke-width="1.018" stroke-linejoin="round"/><path d="M26.45 17.736v28.528L40.888 32z" fill="#d72a2a"/></svg>