<svg xmlns="http://www.w3.org/2000/svg" viewBox="0 0 64 64"><g transform="translate(0 6.657)"><path d="M48.146 38.074v10.458H42.38V38.074h5.766m1.153-1.162h-8.073v12.782H49.3zm-24.282-14.32v6.159h-4.959v-6.159h4.96m1.037-1.046h-6.92v8.134h6.92z" fill="#c8c8c8"/><path d="M8.453 51.449l45.71-.076.064-27.798L31.93 1.202 8.635 24.767z" fill="#f8f7e6" fill-rule="evenodd" stroke="#989898" stroke-width=".191"/><rect width="45.282" height="15.243" x="8.723" y="36.004" ry="0" fill="#ffccd3" stroke="#f66" stroke-width=".276" stroke-linecap="square" stroke-linejoin="round"/><rect width="45.085" height="2.491" x="-21.939" y="21.939" ry="0" transform="scale(.99622 1.00376) rotate(-45)" fill="#99a0b1"/><rect width="45.085" height="2.491" x="-67.365" y="20.997" ry="0" transform="scale(-.99622 -1.00376) rotate(45)" fill="#99a0b1"/><path d="M28.902 9.587v6.886h5.695V9.587zm.69.835h4.314v5.216h-4.314z" fill="#f0f0f0"/><path d="M34.51 9.692v6.676h-5.522V9.692h5.522m.173-.209h-5.867v7.094h5.867z" fill="#646464"/><path d="M29.573 10.441h4.314v5.217h-4.314z" fill="#d9f1ff"/><path d="M33.82 10.526v5.008h-4.142v-5.008h4.142m.173-.208h-4.487v5.425h4.487z" fill="#7aadcc"/><path d="M28.04 17.516V8.544h7.42v8.972h-7.42m.69-.835h6.04V9.38h-6.04v7.302" fill="#ececed"/><path d="M35.373 8.648v8.764h-7.248V8.648h7.248m-6.73 8.138h6.213V9.274h-6.213v7.512m6.903-8.346h-7.593v9.18h7.593zm-6.73 8.137V9.483h5.867v7.094h-5.867" fill="#9b9c9e"/><path d="M28.643 9.274h6.213v.835h-6.213z" fill="#282828"/><path d="M16.684 22.804v6.886h5.695v-6.886zm.69.835h4.315v5.216h-4.315z" fill="#f0f0f0"/><path d="M22.293 22.909v6.676H16.77V22.91h5.523m.172-.21h-5.867v7.095h5.867z" fill="#646464"/><path d="M17.355 23.658h4.314v5.217h-4.314z" fill="#d9f1ff"/><path d="M21.602 23.743v5.008h-4.141v-5.008h4.141m.173-.209h-4.487v5.425h4.487z" fill="#7aadcc"/><path d="M15.821 30.733v-8.972h7.42v8.972h-7.42m.69-.835h6.04v-7.302h-6.04v7.302" fill="#ececed"/><path d="M23.155 21.865v8.764h-7.248v-8.764h7.248m-6.73 8.138h6.213V22.49h-6.213v7.512m6.903-8.346h-7.593v9.18h7.593zm-6.73 8.137V22.7h5.867v7.094h-5.867" fill="#9b9c9e"/><path d="M16.425 22.491h6.213v.835h-6.213z" fill="#282828"/><g><path d="M40.945 22.804v6.886h5.695v-6.886zm.69.835h4.315v5.216h-4.314z" fill="#f0f0f0"/><path d="M46.554 22.909v6.676h-5.522V22.91h5.522m.173-.21h-5.868v7.095h5.868z" fill="#646464"/><path d="M41.616 23.658h4.315v5.217h-4.315z" fill="#d9f1ff"/><path d="M45.864 23.743v5.008h-4.142v-5.008h4.142m.172-.209H41.55v5.425h4.487z" fill="#7aadcc"/><path d="M40.083 30.733v-8.972h7.42v8.972h-7.42m.69-.835h6.04v-7.302h-6.04v7.302" fill="#ececed"/><path d="M47.417 21.865v8.764h-7.248v-8.764h7.248m-6.73 8.138h6.212V22.49h-6.212v7.512m6.902-8.346h-7.593v9.18h7.593zm-6.73 8.137V22.7h5.868v7.094h-5.868" fill="#9b9c9e"/><path d="M40.687 22.491h6.212v.835h-6.212z" fill="#282828"/></g><rect width="36.834" height="15.188" x="17.329" y="36.184" ry="0" fill="none" stroke="#989898" stroke-width=".191" stroke-linecap="square" stroke-linejoin="round"/><rect width="3.548" height="5.849" x="36.809" y="1.389" ry="0" fill="#99a0b1"/></g></svg>