<svg xmlns="http://www.w3.org/2000/svg" width="64" height="64"><g fill="#6bc305" stroke="#559c04" stroke-linejoin="round"><path stroke-width=".985" d="M44.48 56.816H18.559v-4.11H44.48zm-.157-45.522H18.4v-4.11h25.923zM17.181 29.265L.491 11.983l2.957-2.855 16.69 17.282zm2.957 8.166L3.448 54.714.492 51.86l16.69-17.283z"/><g transform="rotate(180 482.005 636.327) scale(2.33146)" stroke-width=".422"><circle r="1.65" cy="525.787" cx="397.815"/><circle r="1.65" cy="525.787" cx="402.334"/></g><g transform="rotate(180 482.005 631.462) scale(2.33146)" stroke-width=".422"><circle r="1.65" cy="525.787" cx="397.815"/><circle r="1.65" cy="525.787" cx="402.334"/></g><g transform="rotate(180 482.005 626.597) scale(2.33146)" stroke-width=".422"><circle r="1.65" cy="525.787" cx="397.815"/><circle r="1.65" cy="525.787" cx="402.334"/></g><g transform="rotate(180 482.005 621.733) scale(2.33146)" stroke-width=".422"><circle r="1.65" cy="525.787" cx="397.815"/><circle r="1.65" cy="525.787" cx="402.334"/></g><path d="M52.068 20.084v4.803h-7.271v13.277h7.271v4.803l11.44-11.44z" stroke-width=".985"/></g></svg>