<svg xmlns="http://www.w3.org/2000/svg" viewBox="0 0 64 64"><path d="M5.94 63.273V.727h52.12v62.546H5.94m4.848-5.818h42.424V6.545H10.788v50.91" fill="#ececed"/><path d="M57.454 1.455v61.09H6.546V1.455h50.908M10.182 58.182h43.636V5.818H10.182v52.364M58.666 0H5.334v64h53.332zM11.394 56.727V7.273h41.212v49.454H11.394" fill="#9b9c9e"/><path d="M12 56.145V7.855l20.606-5.499v59.288z" fill="#f0f0f0"/><path d="M32 3.273v57.469l-19.394-5.178V8.436L32 3.273m1.212-1.818L11.394 7.273v49.454l21.818 5.818z" fill="#646464"/><path d="M15.636 50.342V13.658l13.334-4v44.684z" fill="#d9f1ff"/><path d="M28.364 10.59v42.82l-12.121-3.635v-35.55l12.12-3.636m1.213-1.862L15.03 13.091v37.818l14.546 4.364z" fill="#7aadcc"/><g fill="#646464" transform="matrix(1.21211 0 0 1.45455 -6.788 -14.545)"><path d="M25.46 30.4l4.98-.4a.503.503 0 0 1 .08 1l-4.98.4a.503.503 0 0 1-.08-1"/><ellipse ry="1" rx=".62" cy="30.5" cx="30.62"/></g></svg>