<svg xmlns="http://www.w3.org/2000/svg" viewBox="0 0 64 64"><path d="M16.713 13.818h30.303v36.364H16.713z" fill="#d9f1ff"/><path d="M12 8v48h40V8zm4.848 5.818h30.304v36.364H16.848z" fill="#f0f0f0"/><path d="M51.394 8.727v46.546H12.606V8.727h38.788m1.212-1.454H11.394v49.454h41.212z" fill="#646464"/><path d="M46.545 14.545v34.91h-29.09v-34.91h29.09m1.213-1.454H16.242v37.818h31.516z" fill="#7aadcc"/><path d="M5.94 63.273V.727h52.12v62.546H5.94m4.848-5.818h42.424V6.545H10.788v50.91" fill="#ececed"/><path d="M57.455 1.455v61.09H6.545V1.455h50.91M10.182 58.182h43.636V5.818H10.182v52.364M58.667 0H5.333v64h53.334zM11.394 56.727V7.273h41.212v49.454H11.394" fill="#9b9c9e"/><path d="M10.788 6.545h42.424v7.273H10.788z" fill="#c8c8c8"/><path d="M52.606 7.273v5.818H11.394V7.273h41.212m1.212-1.455H10.182v8.727h43.636z" fill="#646464"/><path d="M11.394 7.273h41.212v1.454H11.394z" opacity=".25"/><path d="M10.182 5.818h43.636v5.818H10.182z" fill="#282828"/></svg>