<svg xmlns="http://www.w3.org/2000/svg" viewBox="0 0 64 64"><g transform="matrix(1.37517 0 0 1.37908 146.422 -1.345)" stroke="#3660bf"><path d="M-95.892 5.056a3.262 3.262 0 0 0-.255 1.673c.047.332.15.622.273.895a20.482 20.482 0 0 1 9.822-4.025 8.83 8.83 0 0 0-1.116-.478 10.03 10.03 0 0 0-3.664-.556 22.504 22.504 0 0 0-5.06 2.491zm1.055 3.947c.465.405.881.625.881.625s.37.142.955.628a16.935 16.935 0 0 1 10.443-3.074 7.277 7.277 0 0 0-1.415-2.084 19.017 19.017 0 0 0-10.864 3.905zm3.014 2.47c.377.459.78 1 1.216 1.708a13.192 13.192 0 0 1 8.812-2.168c-.06-1.153-.18-1.834-.235-2.113a15.315 15.315 0 0 0-9.793 2.573zm-10.474 13.51a19.02 19.02 0 0 0 3.972 10.877c.368-.44.55-.825.55-.825s.12-.398.675-1.047a16.935 16.935 0 0 1-3.122-10.421 7.254 7.254 0 0 0-2.075 1.415zm-1.463 2.003a8.914 8.914 0 0 0-.537 1.247 9.846 9.846 0 0 0-.594 3.089 22.841 22.841 0 0 0 2.834 5.687c.403.133.87.207 1.406.152a3.182 3.182 0 0 0 1.073-.32 20.753 20.753 0 0 1-4.182-9.855zm5.255-3.94a15.312 15.312 0 0 0 2.64 9.786 16.09 16.09 0 0 1 1.724-1.193 13.195 13.195 0 0 1-2.26-8.804c-1.153.05-1.833.16-2.104.211zm8.96-7.883a7.89 7.89 0 0 1 .623 2.167 8.852 8.852 0 0 1 6.84-1.98 16.58 16.58 0 0 0 .259-2.08 11 11 0 0 0-7.722 1.893zm-4.6 7.71a10.996 10.996 0 0 0 1.989 7.704 7.858 7.858 0 0 1 2.21-.594 8.855 8.855 0 0 1-2.122-6.847 17.641 17.641 0 0 0-2.077-.262zm17.726-4.41a8.85 8.85 0 0 1 1.992 6.884c.727.139 1.416.21 2.08.257a11 11 0 0 0-1.882-7.737 8.058 8.058 0 0 1-2.19.597zm8.325-5.921a5.529 5.529 0 0 0-.573.84s-.14.408-.648 1.038a16.93 16.93 0 0 1 3.055 10.504 7.29 7.29 0 0 0 2.093-1.401 19.024 19.024 0 0 0-3.927-10.981zm-4.139 4.282a13.188 13.188 0 0 1 2.14 8.819c1.136-.051 1.808-.16 2.117-.217a15.318 15.318 0 0 0-2.549-9.816c-.458.381-1 .785-1.708 1.214zm5.378-5.286a20.753 20.753 0 0 1 4.17 9.999c.21-.394.407-.818.573-1.296a10.48 10.48 0 0 0 .59-3.044 22.826 22.826 0 0 0-2.87-5.843 3.209 3.209 0 0 0-1.379-.152 3.127 3.127 0 0 0-1.084.336zm-17.542 21.437a17.1 17.1 0 0 0-.254 2.08 11 11 0 0 0 7.793-1.944 8.001 8.001 0 0 1-.591-2.21 8.853 8.853 0 0 1-6.948 2.074zm-.28 4.338c.058 1.153.175 1.836.229 2.113a15.32 15.32 0 0 0 9.829-2.598 15.012 15.012 0 0 1-1.196-1.721 13.192 13.192 0 0 1-8.863 2.206zm.717 3.828a7.086 7.086 0 0 0 1.383 2.09 19.022 19.022 0 0 0 10.99-3.946c-.438-.364-.823-.537-.823-.537s-.407-.148-1.047-.691a16.936 16.936 0 0 1-10.503 3.084zm3.449 3.598c.368.186.76.362 1.2.51a10.36 10.36 0 0 0 3.56.547c1.79-.607 3.52-1.44 5.14-2.506a3.358 3.358 0 0 0 .28-1.682 3.2 3.2 0 0 0-.235-.931 20.486 20.486 0 0 1-9.945 4.062z" fill="#3660bf" fill-opacity=".494" stroke="none"/><path d="M-76.914 20.75s.42 4.015 5.105 5.564c4.684 1.549 6.529.54 6.529.54s2.029-.75 3.588.506c1.559 1.257 1.23 3.242 1.23 3.242s-.646 3.61-5.034 5.737c-4.389 2.127-7.566-.305-7.566-.305s-4.545-2.932-6.422-8.004c-1.877-5.072 2.57-7.28 2.57-7.28zm-9.694-2.833s4-.4 5.5-5.1c1.5-4.7.6-6.5.6-6.5s-.7-2 .5-3.6c1.3-1.6 3.2-1.2 3.2-1.2s3.6.7 5.7 5-.3 7.5-.3 7.5-2.9 4.6-8 6.4c-5 1.8-7.2-2.5-7.2-2.5zm6.882 12.599s-4.007.439-5.539 5.136c-1.531 4.697-.599 6.492-.599 6.492s.771 1.912-.553 3.492-3.198 1.211-3.198 1.211-3.551-.634-5.725-4.987c-2.175-4.354.334-7.536.334-7.536s2.95-4.616 7.958-6.4c5.148-1.762 7.322 2.592 7.322 2.592zm-9.919-2.899s-.35-3.988-5.145-5.479c-4.795-1.49-6.384-.554-6.384-.554s-1.966.744-3.537-.533c-1.572-1.277-1.241-3.172-1.241-3.172s.692-3.694 4.977-5.717c4.348-2.15 7.555.278 7.555.278s4.532 2.944 6.39 8.018c1.86 5.074-2.615 7.159-2.615 7.159z" fill="#3660bf" stroke-linecap="round" stroke-linejoin="round" stroke-miterlimit="10"/><path d="M-76.699 22.043a6.935 6.935 0 0 1-4.452 8.739 6.935 6.935 0 0 1-8.739-4.453 6.935 6.935 0 0 1 4.453-8.738 6.935 6.935 0 0 1 8.738 4.452z" fill="#fff" stroke-width="1.9" stroke-linecap="round" stroke-linejoin="round" stroke-miterlimit="10"/><ellipse cx="-83.418" cy="24.009" rx="2.952" ry="2.825" fill="#3660bf" stroke-width="1.605" stroke-linecap="square" stroke-linejoin="round"/></g></svg>