<svg xmlns="http://www.w3.org/2000/svg" viewBox="0 0 64 64"><g transform="translate(-2.478 -2.478) scale(1.07744)"><path d="M32 61.205C15.893 61.205 2.795 48.107 2.795 32S15.893 2.795 32 2.795 61.205 15.893 61.205 32 48.107 61.205 32 61.205z" fill="#ececed"/><path d="M32 3.29c15.83 0 28.71 12.88 28.71 28.71S47.83 60.71 32 60.71 3.29 47.83 3.29 32 16.17 3.29 32 3.29m0-.99C15.596 2.3 2.3 15.596 2.3 32S15.596 61.7 32 61.7 61.7 48.404 61.7 32 48.404 2.3 32 2.3z" fill="#9b9c9e"/><path d="M32 56.75C18.349 56.75 7.25 45.651 7.25 32S18.349 7.25 32 7.25 56.75 18.349 56.75 32 45.651 56.75 32 56.75z" fill="#fff"/><path d="M31.678 7.782v24.757l17.457 17.457c4.466-4.478 7.229-10.655 7.229-17.466 0-13.63-11.064-24.713-24.686-24.748z" fill="#9e8514"/><path d="M32 7.8c13.365 0 24.2 10.835 24.2 24.2 0 13.365-10.835 24.2-24.2 24.2C18.635 56.2 7.8 45.365 7.8 32 7.8 18.635 18.635 7.8 32 7.8m0-1.1C18.052 6.7 6.7 18.052 6.7 32S18.052 57.3 32 57.3 57.3 45.948 57.3 32 45.948 6.7 32 6.7z" fill="#9b9c9e"/><path d="M30.9 11.1h2.2v26.4h-2.2z" fill="#1a171b"/><path d="M28.966 26.896l15.556 15.556-1.556 1.556L27.41 28.45z" fill="#1a171b"/><path d="M23.079 14.345l-1.672-2.893-1.903 1.1 1.672 2.893c.605-.407 1.243-.77 1.903-1.1m-9.878 11.473l-3.223-.869-.572 2.123 3.212.858c.154-.704.352-1.419.583-2.112m14.74-13.2l-.858-3.212-2.123.572.869 3.223a19.293 19.293 0 0 1 2.112-.583m-9.13 4.642l-2.376-2.376-1.551 1.551 2.376 2.376a20.633 20.633 0 0 1 1.551-1.551m-3.377 3.905l-2.893-1.672-1.1 1.903 2.893 1.672c.341-.649.704-1.287 1.1-1.903m35.948 6.776l3.212-.858-.572-2.123-3.223.869c.231.682.429 1.397.583 2.112m-1.727-4.862l2.893-1.672-1.1-1.903-2.893 1.672c.407.605.77 1.243 1.1 1.903m-2.915-4.268l2.376-2.376-1.551-1.551-2.376 2.376a20.633 20.633 0 0 1 1.551 1.551" opacity=".15"/><path d="M32 12.2c.374 0 .737.033 1.1.055V8.9h-2.2v3.355c.363-.022.726-.055 1.1-.055M12.2 32c0-.374.033-.737.055-1.1H8.9v2.2h3.355c-.022-.363-.055-.726-.055-1.1"/><path d="M38.182 13.201l.869-3.223-2.123-.572-.858 3.212c.704.154 1.419.352 2.112.583m4.653 2.233l1.672-2.893-1.903-1.1-1.672 2.893c.649.341 1.287.704 1.903 1.1" opacity=".15"/><path d="M32 51.8c-.374 0-.737-.033-1.1-.055V55.1h2.2v-3.355c-.363.022-.726.055-1.1.055"/><path d="M48.566 42.835l2.893 1.672 1.1-1.903-2.893-1.672a25.124 25.124 0 0 1-1.1 1.903m-3.377 3.905l2.376 2.376 1.551-1.551-2.376-2.376a20.633 20.633 0 0 1-1.551 1.551m5.61-8.558l3.223.869.572-2.123-3.212-.858a20.755 20.755 0 0 1-.583 2.112" opacity=".15"/><path d="M51.745 30.9c.022.363.055.726.055 1.1 0 .374-.033.737-.055 1.1H55.1v-2.2h-3.355"/><path d="M40.921 49.655l1.672 2.893 1.903-1.1-1.672-2.893c-.605.407-1.243.77-1.903 1.1m-15.103 1.144l-.869 3.223 2.123.572.858-3.212a20.755 20.755 0 0 1-2.112-.583m-11.473-9.878l-2.893 1.672 1.1 1.903 2.893-1.672a17.116 17.116 0 0 1-1.1-1.903m2.915 4.268l-2.376 2.376 1.551 1.551 2.376-2.376a20.633 20.633 0 0 1-1.551-1.551m18.799 6.193l.858 3.212 2.123-.572-.869-3.223c-.682.231-1.397.429-2.112.583M12.618 36.059l-3.212.858.572 2.123 3.223-.869a19.293 19.293 0 0 1-.583-2.112m8.547 12.507l-1.672 2.893 1.903 1.1 1.672-2.893a25.124 25.124 0 0 1-1.903-1.1" opacity=".15"/><circle r="1.65" cy="32" cx="32" fill="#ececed"/><path d="M32 30.9c.605 0 1.1.495 1.1 1.1 0 .605-.495 1.1-1.1 1.1-.605 0-1.1-.495-1.1-1.1 0-.605.495-1.1 1.1-1.1m0-1.1c-1.21 0-2.2.99-2.2 2.2 0 1.21.99 2.2 2.2 2.2 1.21 0 2.2-.99 2.2-2.2 0-1.21-.99-2.2-2.2-2.2z" fill="#c80000"/></g></svg>