<svg xmlns="http://www.w3.org/2000/svg" width="64" height="64"><defs><filter id="i" color-interpolation-filters="sRGB"><feGaussianBlur stdDeviation="1.988"/></filter><filter id="c" color-interpolation-filters="sRGB"><feGaussianBlur stdDeviation="1.142"/></filter><filter id="a" color-interpolation-filters="sRGB"><feGaussianBlur stdDeviation="2.634"/></filter><filter id="b" color-interpolation-filters="sRGB"><feGaussianBlur stdDeviation="6.133"/></filter><filter id="d" color-interpolation-filters="sRGB"><feGaussianBlur stdDeviation=".765"/></filter><filter id="e" height="1.043" width="2.227" y="-.022" x="-.614" color-interpolation-filters="sRGB"><feGaussianBlur stdDeviation=".456"/></filter><filter id="f" width="2.227" y="-.022" x="-.614" height="1.043" color-interpolation-filters="sRGB"><feGaussianBlur stdDeviation=".456"/></filter><filter id="j" height="3.546" width="1.021" y="-1.273" x="-.011" color-interpolation-filters="sRGB"><feGaussianBlur stdDeviation="1.894"/></filter><filter id="k" width="1.021" y="-1.273" x="-.011" height="3.546" color-interpolation-filters="sRGB"><feGaussianBlur stdDeviation="1.894"/></filter><filter id="g" height="2.623" width="1.01" y="-.811" x="-.005" color-interpolation-filters="sRGB"><feGaussianBlur stdDeviation="1.366"/></filter><filter id="h" width="1.01" y="-.811" x="-.005" height="2.623" color-interpolation-filters="sRGB"><feGaussianBlur stdDeviation="1.366"/></filter><filter id="l" color-interpolation-filters="sRGB"><feGaussianBlur stdDeviation="1.142"/></filter></defs><g transform="matrix(.09865 0 0 .0988 41.917 -23.988)"><rect rx="48.869" ry="45.955" height="645.71" width="645.71" y="243.793" x="-422.848" fill="#e0e2dc" stroke="#000" stroke-width="2" stroke-linejoin="bevel"/><rect rx="14.368" ry="19.001" height="457.14" width="457.14" y="338.073" x="-328.568" fill="none" stroke="#000" stroke-width="2" stroke-linejoin="round"/><path d="M55.724 566.65c0 86-69.715 155.716-155.715 155.716-85.999 0-155.716-69.716-155.716-155.715 0-86 69.716-155.716 155.716-155.716 85.999 0 155.715 69.716 155.715 155.716z" fill="#9c9c9c" stroke="#1c1b1c" stroke-width="2" stroke-linejoin="round"/><path d="M36.132 491.363l-2.02 56.566 19.156.148-.505 46.108-18.651.21-.357 53.473c16.648-23.743 25.612-52.786 25.242-81.782-.337-26.399-8.372-52.655-22.865-74.722" fill="#e0e2dc"/><path d="M-152.858 566.652c0 12.624-10.233 22.857-22.857 22.857-12.624 0-22.857-10.233-22.857-22.857 0-12.624 10.233-22.857 22.857-22.857 12.624 0 22.857 10.234 22.857 22.857z" fill="#3e3e3e"/><path d="M974.29 598.08c0 83.632-67.797 151.43-151.43 151.43-83.632 0-151.43-67.797-151.43-151.43 0-83.632 67.797-151.43 151.43-151.43 83.632 0 151.43 67.797 151.43 151.43z" transform="translate(-963.618 -62.514) scale(1.0512)" fill="none" stroke="#939988" stroke-width="5.708" stroke-linejoin="round" filter="url(#a)"/><path d="M-98.134 411.963c-85.999 0-155.72 69.72-155.72 155.72 0 56.97 30.595 106.79 76.25 133.94-22.995-27.137-36.875-62.238-36.875-100.59 0-85.999 69.72-155.72 155.72-155.72 29.033 0 56.204 7.946 79.47 21.781-28.564-33.718-71.194-55.125-118.84-55.125z" fill="#636363" filter="url(#b)"/><rect rx="1.488" ry="19.001" height="42.426" width="32.325" y="398.953" x="-117.341" fill="#000303"/><rect rx="1.488" ry="19.001" height="42.426" width="32.325" y="690.573" x="-116.158"/><path d="M-46.465 577.61c0 14.504-11.758 26.263-26.263 26.263-14.504 0-26.263-11.758-26.263-26.263 0-14.504 11.758-26.263 26.263-26.263 14.504 0 26.263 11.758 26.263 26.263z" transform="translate(-109.531 38.849) scale(.91293)" fill="none" stroke="#aeb1ad" stroke-width="4.381" stroke-linejoin="round" filter="url(#c)"/><path d="M-78.488 564.72c0 12.625-10.233 22.858-22.857 22.858-12.624 0-22.857-10.233-22.857-22.857 0-12.624 10.233-22.857 22.857-22.857 12.624 0 22.857 10.234 22.857 22.857z" fill="#888"/><g transform="translate(-1038.548 11.284)" fill="#0e232e"><rect rx="0" ry="0" height="22.803" width="5.224" y="544.45" x="935.57"/><rect transform="rotate(-90)" rx="0" ry="0" height="22.803" width="5.224" y="926.76" x="-557.86"/></g><path d="M-101.56 543.873c-12.057 0-21.809 9.752-21.809 21.808 0 8.765 5.153 16.337 12.607 19.81a21.756 21.756 0 0 1-7.147-16.152c0-12.056 9.752-21.836 21.808-21.836 3.316 0 6.47.76 9.286 2.082a21.764 21.764 0 0 0-14.745-5.712z" fill="#b5b5b5" filter="url(#d)"/><g transform="translate(-973.908 -29.12)"><rect rx="2.226" ry="2.93" height="43.569" width="23.927" y="430.97" x="859.96" fill="#ccc"/><rect rx="2.226" ry="2.93" height="32.141" width="8.571" y="441.68" x="872.81" fill="#e9e9e9"/></g><g transform="matrix(1 0 0 -1 -973.098 1160.843)"><rect rx="2.226" ry="2.93" height="43.569" width="23.927" y="430.97" x="859.96" fill="#ccc"/><rect rx="2.226" ry="2.93" height="32.141" width="8.571" y="441.68" x="872.81" fill="#e9e9e9"/></g><path d="M-235.378 491.453l2.02 56.566-19.156.148.505 46.108 18.651.21.357 53.473c-16.648-23.743-25.612-52.786-25.242-81.782.337-26.399 8.372-52.655 22.865-74.722" fill="#e0e2dc"/><path d="M34.642 492.033l-1.786 56.426 19.642.357V593.1l-19.999.357v52.854m-266.507-154.888l2.02 57.576h-19.697l.505 44.95 19.192-.505v53.03" fill="none" stroke="#000"/><path d="M37.502 495.243l-1.786 50.712" fill="none" stroke="#e3e0e5" filter="url(#e)"/><path d="M36.252 594.533l-.714 46.426" fill="none" stroke="#e3e0e5" filter="url(#f)"/><rect transform="matrix(.8915 0 0 1.05063 -15.83 -12.581)" rx="14.368" ry="2.02" height="4.04" width="624.24" y="246.493" x="-413.298" fill="#f0f0f0" filter="url(#g)"/><rect ry="2.02" rx="14.368" transform="matrix(0 -.88978 1.05145 0 -632.646 387.167)" height="4.04" width="624.24" y="200.85" x="-515.15" fill="#f0f0f0" filter="url(#h)"/><rect rx="14.368" ry="19.001" height="457.14" width="457.14" y="337.073" x="-328.738" opacity=".75" fill="none" stroke="#000" stroke-width="2" stroke-linejoin="round" filter="url(#i)"/><path d="M-76.938 565.664c0 13.389-10.854 24.242-24.242 24.242-13.389 0-24.242-10.854-24.242-24.242 0-13.39 10.854-24.242 24.242-24.242 13.389 0 24.242 10.854 24.242 24.242z" fill="none" stroke="#000" stroke-width="3"/><rect ry="4.612" rx="14.368" transform="matrix(1 0 0 .7744 -97.138 73.846)" height="3.571" width="432.12" y="344.54" x="-219.27" fill="#f0f0f0" filter="url(#j)"/><rect ry="4.612" rx="14.368" transform="matrix(0 -1 .7744 0 -593.888 566.313)" height="3.571" width="432.12" y="344.54" x="-219.27" fill="#f0f0f0" filter="url(#k)"/><path d="M-1.91 565.054c0 12.624-10.233 22.857-22.857 22.857-12.624 0-22.857-10.233-22.857-22.857 0-12.624 10.233-22.857 22.857-22.857 12.624 0 22.857 10.234 22.857 22.857z" fill="#3e3e3e"/><path transform="translate(41.42 37.252) scale(.91293)" d="M-46.465 577.61c0 14.504-11.758 26.263-26.263 26.263-14.504 0-26.263-11.758-26.263-26.263 0-14.504 11.758-26.263 26.263-26.263 14.504 0 26.263 11.758 26.263 26.263z" fill="none" stroke="#aeb1ad" stroke-width="4.381" stroke-linejoin="round" filter="url(#l)"/></g></svg>