<svg xmlns="http://www.w3.org/2000/svg" viewBox="0 0 64 64"><defs><radialGradient id="a" cx="16.333" cy="15.167" r="43.668" gradientUnits="userSpaceOnUse" gradientTransform="translate(4.34 4.34) scale(.86436)"><stop stop-color="#6c9ac2"/><stop offset="1" stop-color="#005096"/></radialGradient></defs><path d="M.533.533h62.934v62.934H.533z" fill="#ececed"/><path d="M62.933 1.067v61.866H1.067V1.067h61.866M64 0H0v64h64z" fill="#9b9c9e"/><path d="M8.662 8.662h46.676v46.676H8.662z" fill="url(#a)" transform="translate(-7.49 -7.49) scale(1.23405)"/><g fill="#ececed"><path d="M13.867 1.067h1.066v61.866h-1.066z"/><path d="M5.333 1.067H6.4v61.866H5.333zm5.334 0h1.066v61.866h-1.066zm6.4 0h1.066v61.866h-1.066zm5.333 0h1.067v61.866H22.4zm6.4 0h1.067v61.866H28.8zm5.333 0H35.2v61.866h-1.067zm6.4 0H41.6v61.866h-1.067zm5.334 0h1.066v61.866h-1.066zm6.4 0h1.066v61.866h-1.066zm5.333 0h1.067v61.866H57.6z" opacity=".25"/><path d="M25.6 1.067h1.067v61.866H25.6zm23.467 0h1.066v61.866h-1.066zm-11.734 0H38.4v61.866h-1.067z"/><path d="M1.067 49.067h61.866v1.066H1.067zm0-11.734h61.866V38.4H1.067zm0-11.733h61.866v1.067H1.067zm0-11.733h61.866v1.066H1.067z"/><path d="M14.4 12.137H16v3.2h-3.2zm11.733 0h1.6v3.2h-3.2zm11.734 0h1.6v3.2h-3.2zm11.733 0h1.6v3.2H48zM14.4 23.87H16v3.2h-3.2zm11.733 0h1.6v3.2h-3.2zm11.734 0h1.6v3.2h-3.2zm11.733 0h1.6v3.2H48zM14.4 35.604H16v3.2h-3.2zm11.733 0h1.6v3.2h-3.2zm9.47 2.263h3.864v3.2h-3.2zm11.734 0H51.2v3.2H48zM14.4 47.337H16v3.2h-3.2zm11.734 0h1.6v3.2h-3.2zm11.733 0h1.6v3.2h-3.2zm11.733 0h1.6v3.2H48z"/></g></svg>