<svg xmlns="http://www.w3.org/2000/svg" viewBox="0 0 64 64"><path d="M28.229 50.101c1.077-.862 2.37-1.4 3.771-1.4 1.4 0 2.694.43 3.771 1.4L32 53.872l-3.771-3.771" fill="#6bc305"/><path d="M32 49.24c1.077 0 2.047.322 3.017.861L32 53.118 28.983 50.1c.97-.539 1.94-.862 3.017-.862m0-1.077c-1.616 0-3.34.646-4.525 1.939L32 54.626l4.525-4.525c-1.185-1.293-2.909-1.94-4.525-1.94z" fill="#569c04"/><path d="M41.158 44.714A13.538 13.538 0 0 0 32 41.158c-3.448 0-6.68 1.293-9.158 3.556l-3.771-3.771c3.555-3.34 8.08-5.172 12.929-5.172 4.848 0 9.481 1.832 12.93 5.172l-3.772 3.77" fill="#6bc305"/><path d="M32 36.31c4.525 0 8.835 1.616 12.175 4.633l-3.017 3.017c-2.586-2.155-5.71-3.34-9.158-3.34-3.448 0-6.572 1.185-9.158 3.34l-3.017-3.017c3.34-3.017 7.65-4.633 12.175-4.633m0-1.078c-4.956 0-9.912 1.94-13.684 5.71l4.526 4.526C25.32 42.99 28.66 41.697 32 41.697s6.572 1.293 9.158 3.771l4.526-4.525c-3.772-3.771-8.728-5.71-13.684-5.71z" fill="#569c04"/><path d="M50.316 35.556C45.36 30.815 38.896 28.229 32 28.229c-6.896 0-13.36 2.586-18.316 7.327l-3.772-3.771c5.926-5.71 13.792-8.943 22.088-8.943 8.296 0 16.162 3.124 22.088 8.943l-3.772 3.77" fill="#6bc305"/><path d="M32 23.38c7.973 0 15.515 3.017 21.333 8.405L50.316 34.8C45.253 30.167 38.788 27.69 32 27.69c-6.788 0-13.253 2.477-18.316 7.11l-3.017-3.016C16.485 26.397 24.027 23.38 32 23.38m0-1.077c-8.296 0-16.593 3.125-22.842 9.482l4.526 4.525C18.747 31.246 25.32 28.768 32 28.768s13.253 2.478 18.316 7.542l4.526-4.525c-6.25-6.357-14.546-9.482-22.842-9.482z" fill="#569c04"/><path d="M59.475 26.397C52.04 19.287 42.343 15.3 32 15.3S11.96 19.286 4.525 26.397l-3.77-3.77C9.157 14.436 20.254 9.911 32 9.911c11.744 0 22.842 4.526 31.246 12.714l-3.771 3.771" fill="#6bc305"/><path d="M32 10.451c11.42 0 22.195 4.31 30.492 12.175l-3.017 3.017C51.933 18.64 42.235 14.761 32 14.761c-10.236 0-19.933 3.879-27.367 10.882l-3.017-3.017C9.805 14.761 20.58 10.451 32 10.451m0-1.077c-11.636 0-23.165 4.417-32 13.252l4.525 4.526C12.067 19.609 21.98 15.838 32 15.838c10.02 0 19.825 3.771 27.475 11.314L64 22.626C55.165 13.791 43.529 9.374 32 9.374z" fill="#569c04"/></svg>