<svg xmlns="http://www.w3.org/2000/svg" width="64" height="64"><g fill="#852c2c"><path d="M44.676 57.203H18.348V53.03h26.328zm-.161-46.233H18.187V6.796h26.328zM16.95 29.222L0 11.67l3.003-2.9 16.95 17.552zm3.002 8.294L3.002 55.07l-3.004-2.9 16.95-17.553z"/><g transform="rotate(180 489.286 646.02) scale(2.36788)"><circle cx="397.815" cy="525.787" r="1.65"/><circle cx="402.334" cy="525.787" r="1.65"/></g><g transform="rotate(180 489.286 641.078) scale(2.36788)"><circle cx="397.815" cy="525.787" r="1.65"/><circle cx="402.334" cy="525.787" r="1.65"/></g><g transform="rotate(180 489.286 636.138) scale(2.36788)"><circle cx="397.815" cy="525.787" r="1.65"/><circle cx="402.334" cy="525.787" r="1.65"/></g><g transform="rotate(180 489.286 631.197) scale(2.36788)"><circle cx="397.815" cy="525.787" r="1.65"/><circle cx="402.334" cy="525.787" r="1.65"/></g><path d="M56.234 38.26H44.996V24.775h11.238z"/><path d="M52.383 43.138L64 31.521 52.383 19.899z"/></g></svg>