<svg xmlns="http://www.w3.org/2000/svg" xmlns:xlink="http://www.w3.org/1999/xlink" width="64" height="64"><defs><linearGradient xlink:href="#a" id="b" y1="6" x1="32" y2="57" x2="31" gradientUnits="userSpaceOnUse"/><linearGradient id="a"><stop stop-color="#42a603"/><stop offset="1" stop-color="#78da06"/></linearGradient></defs><path transform="translate(-7.386 -7.385) scale(1.23082)" d="M32 6c-6.333 3.354-12.667 4.725-19 6v25c0 7 10.263 16.561 19 20.998C40.737 53.561 51 44 51 37V12c-6.333-1.275-12.667-2.646-19-6z" fill="url(#b)"/><path d="M8.615 35.694v2.461C8.615 46.771 21.247 58.54 32 64c10.753-5.46 23.385-17.229 23.385-25.845v-2.461c0 8.615-12.632 20.384-23.385 25.844C21.247 56.078 8.615 44.31 8.615 35.694z" fill="#368902"/></svg>