<svg xmlns="http://www.w3.org/2000/svg" width="64" height="64"><defs><radialGradient id="a" cx="16.333" cy="15.167" r="43.668" gradientUnits="userSpaceOnUse" gradientTransform="translate(4.34 4.34) scale(.86436)"><stop stop-color="#6c9ac2"/><stop offset="1" stop-color="#005096"/></radialGradient></defs><path d="M33.443 15.399c-.026.052-1.95 3.708-4.276 8.132l-4.232 8.054h2.842c2.273 0 2.833.026 2.807.113-.027.105-7.791 15.207-8.439 16.413l-.306.569.306-.306c.167-.167 4.705-5.107 10.074-10.975l9.767-10.667-3.681-.044-3.682-.044 3.612-5.421c1.993-2.982 3.69-5.526 3.768-5.666l.158-.237h-4.329c-2.623 0-4.354.035-4.389.079z" fill="#ff9300"/><path d="M28.774 63.32a31.503 31.504 0 0 0 6.453.01l.748-4.883a26.778 26.778 0 0 0 5.809-1.553l3.08 3.845a31.503 31.504 0 0 0 5.59-3.235l-1.787-4.585a26.778 26.778 0 0 0 4.268-4.245l4.557 1.775a31.503 31.504 0 0 0 3.23-5.597l-3.816-3.058a26.778 26.778 0 0 0 .96-2.864 26.778 26.778 0 0 0 .58-2.956l4.874-.748a31.503 31.504 0 0 0 .01-6.454l-4.883-.748a26.778 26.778 0 0 0-1.552-5.808l3.845-3.081a31.503 31.504 0 0 0-3.235-5.59l-4.586 1.787a26.778 26.778 0 0 0-4.245-4.268l1.776-4.556a31.503 31.504 0 0 0-5.598-3.23l-3.055 3.816a26.778 26.778 0 0 0-2.867-.96 26.778 26.778 0 0 0-2.955-.581L35.229.679A31.503 31.504 0 0 0 28.775.67l-.75 4.883a26.778 26.778 0 0 0-5.808 1.553L19.136 3.26a31.503 31.504 0 0 0-5.59 3.235l1.787 4.586a26.778 26.778 0 0 0-4.268 4.245L6.508 13.55a31.503 31.504 0 0 0-3.23 5.597l3.815 3.058a26.778 26.778 0 0 0-.958 2.864 26.778 26.778 0 0 0-.582 2.956l-4.874.748a31.503 31.504 0 0 0-.009 6.454l4.883.748a26.778 26.778 0 0 0 1.552 5.808L3.26 44.864a31.503 31.504 0 0 0 3.235 5.59l4.586-1.787a26.778 26.778 0 0 0 4.245 4.268l-1.775 4.557a31.503 31.504 0 0 0 5.597 3.23l3.057-3.816a26.778 26.778 0 0 0 2.865.959 26.778 26.778 0 0 0 2.956.582zm-2.482-10.019A22.052 22.052 0 0 1 10.7 26.293a22.052 22.052 0 0 1 27.008-15.594 22.052 22.052 0 0 1 15.594 27.009A22.052 22.052 0 0 1 26.292 53.3" color="#000" opacity=".98" fill="#ff9300" stroke="#c87300" stroke-width="1.018" stroke-linejoin="round"/><path d="M34.25 34.25h29.5v29.5h-29.5z" fill="#ececed"/><path d="M63.5 34.5v29h-29v-29h29m.5-.5H34v30h30z" fill="#9b9c9e"/><path d="M8.662 8.662h46.676v46.676H8.662z" fill="url(#a)" transform="translate(30.49 30.49) scale(.57846)"/><g fill="#ececed"><path d="M40.5 34.5h.5v29h-.5z"/><path d="M36.5 34.5h.5v29h-.5zm2.5 0h.5v29H39zm3 0h.5v29H42zm2.5 0h.5v29h-.5zm3 0h.5v29h-.5zm2.5 0h.5v29H50zm3 0h.5v29H53zm2.5 0h.5v29h-.5zm3 0h.5v29h-.5zm2.5 0h.5v29H61z" opacity=".25"/><path d="M46 34.5h.5v29H46zm11 0h.5v29H57zm-5.5 0h.5v29h-.5z"/><path d="M34.5 57h29v.5h-29zm0-5.5h29v.5h-29zm0-5.5h29v.5h-29zm0-5.5h29v.5h-29z"/><path d="M40.75 39.69h.75v1.5H40zm5.5 0H47v1.5h-1.5zm5.5 0h.75v1.5H51zm5.5 0H58v1.5h-1.5zm-16.5 5.5h.75v1.5H40zm5.5 0H47v1.5h-1.5zm5.5 0h.75v1.5H51zm5.5 0H58v1.5h-1.5zm-16.5 5.5h.75v1.5H40zm5.5 0H47v1.5h-1.5zm4.44 1.06h1.81v1.5H51zm5.499 0H58v1.5h-1.5zM40.75 56.19h.75v1.5H40zm5.5 0H47v1.5h-1.5zm5.5-.001h.75v1.5H51zm5.5 0H58v1.5h-1.5z"/></g></svg>