<svg xmlns="http://www.w3.org/2000/svg" viewBox="0 0 64 64"><path d="M39.819 52.364H24.181c-.82 0-1.49-.524-1.49-1.164 0-.64.67-1.164 1.49-1.164h15.638c.82 0 1.49.524 1.49 1.164 0 .64-.67 1.164-1.49 1.164m0 3.491H24.181c-.82 0-1.49-.524-1.49-1.164 0-.64.67-1.164 1.49-1.164h15.638c.82 0 1.49.524 1.49 1.164 0 .64-.67 1.164-1.49 1.164m-.269 3.49h-15.1c-.969 0-1.758-.616-1.758-1.373 0-.523.55-.954 1.22-.954h16.16c.67 0 1.221.43 1.221.954.015.757-.774 1.373-1.742 1.373M32 64c3.291 0 5.957-1.56 5.957-3.49H26.043c0 1.93 2.666 3.49 5.957 3.49" fill="#9b9c9e"/><path d="M52.585 18.13C52.585 8.11 43.373 0 32 0 20.627 0 11.415 8.11 11.415 18.13c0 3.176.927 6.155 2.548 8.738.99 1.734 1.698 2.98 2.148 3.759.926 1.629 1.467 2.572 2.136 3.98.283.593.707 1.489 1.106 2.513 1.583 4.061 2.187 7.936 2.187 7.936s.296 2.025 1.493 3.014c.334.28.669.442.836.512.579.244 1.106.29 1.428.29H38.69c.309 0 .85-.046 1.428-.29.167-.07.502-.233.836-.512 1.197-.99 1.493-3.014 1.493-3.014s.604-3.875 2.187-7.936c.399-1.024.823-1.92 1.106-2.513.67-1.408 1.21-2.351 2.136-3.98.45-.791 1.158-2.025 2.148-3.759 1.634-2.595 2.56-5.573 2.56-8.739" fill="#dae1e4"/><path d="M52.585 18.13C52.585 8.11 43.373 0 32 0 20.627 0 11.415 8.11 11.415 18.13c0 3.176.927 6.155 2.548 8.738.99 1.734 1.698 2.98 2.148 3.759.926 1.629 1.467 2.572 2.136 3.98.283.593.707 1.489 1.106 2.513 1.583 4.061 2.187 7.936 2.187 7.936s.296 2.025 1.493 3.014c.334.28.669.442.836.512.579.244 1.106.29 1.428.29H38.69c.309 0 .85-.046 1.428-.29.167-.07.502-.233.836-.512 1.197-.99 1.493-3.014 1.493-3.014s.604-3.875 2.187-7.936c.399-1.024.823-1.92 1.106-2.513.67-1.408 1.21-2.351 2.136-3.98.45-.791 1.158-2.025 2.148-3.759 1.634-2.595 2.56-5.573 2.56-8.739" fill="#ffde52" fill-opacity=".6"/></svg>