<svg xmlns="http://www.w3.org/2000/svg" viewBox="0 0 64 64"><path d="M48.533 59.2V4.8H15.467v54.4H11.2V.533h41.6V59.2z" fill="#ececed"/><path d="M52.267 1.067v57.6h-3.2v-54.4H14.933v54.4h-3.2v-57.6h40.534M53.333 0H10.667v59.733H16v-54.4h32v54.4h5.333z" fill="#9b9c9e"/><path d="M16.533 59.317V5.75l16-4v61.568z" fill="#f0f0f0"/><g fill="#646464" transform="translate(-2.133 -3.2) scale(1.06667)"><path d="M32 5.28v56.44l-14-3.5V8.78l14-3.5M33 4L17 8v51l16 4z"/><circle r="1" cy="37" cx="29"/><path d="M26.05 31.84l3.99.33c.27.02.48.27.46.54a.51.51 0 0 1-.54.46l-3.99-.33a.51.51 0 0 1-.46-.54.49.49 0 0 1 .54-.46"/></g></svg>