<svg xmlns="http://www.w3.org/2000/svg" xmlns:xlink="http://www.w3.org/1999/xlink" viewBox="0 0 64 64"><defs><linearGradient id="a" gradientUnits="userSpaceOnUse" y1="36" x2="0" y2="46"><stop stop-color="#c80000"/><stop offset=".1" stop-color="#a60000"/><stop offset=".582" stop-color="#950000"/><stop offset="1" stop-color="#8c0000"/></linearGradient><linearGradient id="b" gradientUnits="userSpaceOnUse" y1="20.54" x2="0" y2="42.54"><stop stop-color="#c80000"/><stop offset=".266" stop-color="#a60000"/><stop offset=".659" stop-color="#950000"/><stop offset="1" stop-color="#8c0000"/></linearGradient><linearGradient id="e" gradientUnits="userSpaceOnUse" x1="9.5" x2="1.5" xlink:href="#a"/><linearGradient id="d" gradientUnits="userSpaceOnUse" x1="54.5" x2="62.5" xlink:href="#a"/><linearGradient xlink:href="#a" id="c" gradientUnits="userSpaceOnUse" y1="36" x2="0" y2="46"/></defs><path d="M15 42.54c-3.58 0-6.5-2.92-6.5-6.5v-9c0-3.58 2.92-6.5 6.5-6.5h34c3.58 0 6.5 2.92 6.5 6.5v9c0 3.58-2.92 6.5-6.5 6.5H15" fill="url(#b)" transform="translate(-1.032 -2.601) scale(1.03226)"/><path d="M49.548 19.117a6.198 6.198 0 0 1 6.194 6.194v9.29a6.198 6.198 0 0 1-6.194 6.194H14.452A6.198 6.198 0 0 1 8.258 34.6v-9.29a6.198 6.198 0 0 1 6.194-6.194h35.096m0-1.032H14.452c-3.975 0-7.226 3.252-7.226 7.226v9.29c0 3.974 3.251 7.226 7.226 7.226h35.096c3.975 0 7.226-3.252 7.226-7.226v-9.29c0-3.974-3.251-7.226-7.226-7.226z" fill="#8c0000"/><path d="M7 36h50v10H7z" fill="url(#c)" transform="translate(-1.032 -2.601) scale(1.03226)"/><path d="M54.5 46.5v-16h.06l-.01-.56-.02-.16c-.01-.09-.03-.19-.03-.28 0-2.21 1.79-4 4-4s4 1.79 4 4c0 2.03-1.53 3.73-3.56 3.95l-.44.05v13h-4" fill="url(#d)" transform="translate(-1.032 -2.601) scale(1.03226)"/><path d="M59.355 24.237a3.617 3.617 0 0 1 3.613 3.613 3.606 3.606 0 0 1-3.21 3.572l-.92.103v13.358h-3.096V29.399h.175l-.123-1.146-.021-.176a.805.805 0 0 1-.031-.227 3.617 3.617 0 0 1 3.613-3.613m0-1.032a4.639 4.639 0 0 0-4.645 4.645c0 .176.03.341.051.516h-.051v17.549h5.161V32.444C62.194 32.186 64 30.234 64 27.85a4.639 4.639 0 0 0-4.645-4.645z" fill="#8c0000"/><path d="M5.5 46.5v-13l-.44-.05A3.976 3.976 0 0 1 1.5 29.5c0-2.21 1.79-4 4-4s4 1.79 4 4c0 .1-.01.19-.03.28l-.08.72h.11v16h-4" fill="url(#e)" transform="translate(-1.032 -2.601) scale(1.03226)"/><path d="M4.645 24.237a3.617 3.617 0 0 1 3.613 3.613c0 .083-.01.155-.02.227l-.021.176-.134 1.146h.175v15.484H5.161V31.525l-.918-.103a3.606 3.606 0 0 1-3.21-3.572 3.617 3.617 0 0 1 3.612-3.613m0-1.032A4.639 4.639 0 0 0 0 27.85c0 2.385 1.806 4.336 4.129 4.594v13.47H9.29V28.367h-.05c.02-.175.051-.34.051-.516a4.639 4.639 0 0 0-4.645-4.645z" fill="#8c0000"/><path d="M12.387 44.883h4.13v1.032h-4.13zm35.097 0h4.129v1.032h-4.13z"/><g fill="#845340" stroke="#663629" stroke-miterlimit="10" transform="translate(-1.032 -2.601) scale(1.03226)"><circle r="2.04" cy="29.5" cx="5.5"/><circle r="2.04" cy="29.5" cx="58.5"/></g></svg>