<svg xmlns="http://www.w3.org/2000/svg" xmlns:xlink="http://www.w3.org/1999/xlink" viewBox="0 0 64 64"><defs><clipPath id="a"><use height="100%" width="100%" xlink:href="#0"/></clipPath></defs><path transform="translate(-25.012 6.34) scale(1.26264)" d="M29.3 17.3S32 25.2 32 28c0-2.7 2.7-10.7 2.7-10.7h-5.4" clip-path="url(#a)" fill="#fff"/><path transform="translate(-25.012 6.34) scale(1.26264)" d="M30 17l1.5 2-1.5 3 2 6 2-6-1.5-3 1.5-2z" clip-path="url(#a)" fill="#e70003"/><g fill="#d72a2a"><path d="M63.478 24.405a9.368 9.368 0 0 0-2.46 6.338c0 2.386.894 4.622 2.46 6.337l-2.61 2.61c-2.31-2.46-3.578-5.592-3.578-8.947 0-3.355 1.267-6.561 3.579-8.947l2.61 2.61"/><path d="M57.663 30.743c0-3.132 1.118-6.114 3.206-8.425l2.087 2.087c-1.491 1.79-2.311 3.952-2.311 6.338s.82 4.548 2.311 6.337l-2.087 2.088c-2.088-2.312-3.206-5.294-3.206-8.425m-.746 0c0 3.43 1.342 6.859 3.952 9.469L64 37.08a8.976 8.976 0 0 1-2.61-6.337c0-2.312.895-4.548 2.61-6.338l-3.131-3.131a13.389 13.389 0 0 0-3.952 9.469z"/><path d="M57.14 18.068c-3.28 3.43-5.07 7.903-5.07 12.675 0 4.771 1.79 9.245 5.07 12.675l-2.609 2.61c-3.951-4.102-6.188-9.544-6.188-15.285s2.162-11.184 6.188-15.285l2.61 2.61"/><path d="M48.716 30.743c0-5.518 2.087-10.737 5.815-14.763l2.088 2.088a18.657 18.657 0 0 0-4.921 12.675c0 4.697 1.715 9.17 4.92 12.675l-2.087 2.087c-3.728-4.026-5.815-9.245-5.815-14.762m-.746 0c0 5.74 2.162 11.482 6.561 15.806l3.132-3.131c-3.505-3.505-5.22-8.053-5.22-12.675 0-4.548 1.715-9.17 5.22-12.675l-3.132-3.132c-4.399 4.325-6.56 10.066-6.56 15.807z"/><path d="M50.803 11.73c-4.92 5.145-7.68 11.855-7.68 19.013 0 7.157 2.76 13.867 7.68 19.012l-2.61 2.61c-5.666-5.816-8.797-13.495-8.797-21.622s3.131-15.807 8.798-21.622l2.61 2.61"/><path d="M39.769 30.743c0-7.903 2.982-15.36 8.425-21.1l2.087 2.087c-4.846 5.22-7.53 11.93-7.53 19.013 0 7.083 2.684 13.793 7.53 18.937l-2.087 2.088c-5.443-5.666-8.425-13.122-8.425-21.025m-.746 0c0 8.052 3.057 16.03 9.17 22.143l3.132-3.131c-5.219-5.22-7.828-12.078-7.828-19.012 0-6.934 2.61-13.719 7.828-19.013L48.194 8.6a31.281 31.281 0 0 0-9.17 22.144z"/></g><path d="M30.303 56.622c-1.01 0-1.894-.884-1.894-1.894v-4.42h3.788v4.42c0 1.01-.883 1.894-1.894 1.894" fill="#d29e7c"/><path d="M31.566 50.94v3.788c0 .757-.505 1.262-1.263 1.262-.757 0-1.262-.505-1.262-1.262V50.94h2.525m1.263-1.263h-5.05v5.05a2.533 2.533 0 0 0 2.524 2.526 2.533 2.533 0 0 0 2.526-2.525z" fill="#c18a6b"/><path d="M2.525 56.622c-1.01 0-1.894-.884-1.894-1.894v-4.42H4.42v4.42c0 1.01-.757 1.894-1.894 1.894" fill="#d29e7c"/><path d="M3.788 50.94v3.788c0 .757-.505 1.262-1.263 1.262-.757 0-1.262-.505-1.262-1.262V50.94h2.525m1.263-1.263H0v5.05a2.533 2.533 0 0 0 2.525 2.526 2.533 2.533 0 0 0 2.526-2.525z" fill="#c18a6b"/><path d="M21.212 26.95h-9.47A11.586 11.586 0 0 0 .127 38.565v.757c0 .127-.126.38-.126.505v12.374h5.05V40.586c0-1.515.506-2.778 1.263-3.914v15.53h20.203V36.546c.63.883 1.136 2.02 1.262 3.156v12.5h5.05V38.44c0-6.313-5.176-11.49-11.616-11.49" fill="#569c04"/><ellipse ry="2.525" rx="4.419" cy="26.949" cx="16.414" fill="#fff"/><path d="M15.152 30.737h1.262v21.465h-1.262zm1.894 17.677c-.38 0-.632.253-.632.632 0 .378.253.631.632.631.378 0 .631-.253.631-.631 0-.38-.253-.632-.631-.632m0-2.524c-.38 0-.632.252-.632.63 0 .38.253.632.632.632.378 0 .631-.253.631-.632 0-.378-.253-.63-.631-.63m0-2.526c-.38 0-.632.252-.632.631s.253.631.632.631c.378 0 .631-.252.631-.63 0-.38-.253-.632-.631-.632m0-2.525c-.38 0-.632.252-.632.63 0 .38.253.632.632.632.378 0 .631-.252.631-.631s-.253-.631-.631-.631" opacity=".2" fill="#152701"/><path d="M17.23 27.11h4.361v1.894h-4.167zm-5.665-1.47h3.713v1.894h-4.167z" fill="#fff"/><path d="M16.414 26.318c-5.176 0-9.47-4.293-9.47-9.47 0-5.177 4.294-9.47 9.47-9.47 5.177 0 9.47 4.293 9.47 9.47 0 5.177-4.293 9.47-9.47 9.47" fill="#d29e7c"/><path d="M16.414 8.01a8.784 8.784 0 0 1 8.839 8.838 8.784 8.784 0 0 1-8.839 8.839 8.784 8.784 0 0 1-8.838-8.839 8.784 8.784 0 0 1 8.838-8.838m0-1.263c-5.555 0-10.1 4.546-10.1 10.101 0 5.556 4.545 10.101 10.1 10.101 5.556 0 10.102-4.545 10.102-10.1 0-5.556-4.546-10.102-10.102-10.102z" fill="#c18a6b"/><path d="M6.945 16.596c.126-5.177 4.293-9.218 9.47-9.218 5.176 0 9.343 4.04 9.47 9.218-1.263-1.263-2.274-2.778-2.779-4.42l-.126-.378h-.505c-.758 0-1.389.126-2.02.126-1.01 0-1.894-.126-2.778-.253l-3.41-.505 3.031 1.642c.379.252.758.505 1.137.631h-1.768c-2.525 0-4.672-.379-6.692-1.136l-.631-.253-.253.632c-.505 1.641-1.263 2.904-2.146 3.914" fill="#61452d"/><path d="M16.414 8.01c2.652 0 5.05 1.136 6.692 3.03l-.757.126c-.632 0-1.39.127-2.02.127-.884 0-1.894-.127-2.652-.253l-6.818-1.01 5.05 2.904c-2.146 0-4.166-.379-5.808-1.01l-.884-.253C10.985 9.4 13.51 8.01 16.414 8.01m7.197 3.661c.632.884 1.137 1.768 1.39 2.778-.506-.757-.885-1.641-1.263-2.525l-.127-.253m-7.197-4.924c-5.555 0-10.1 4.546-10.1 10.101 0 .38 0 .758.125 1.137 1.137-.884 2.4-2.4 3.283-4.925 1.768.632 4.04 1.137 6.819 1.137 1.262 0 2.777-.127 4.293-.253 0 0-1.642-.505-3.41-1.515.884.126 1.894.253 2.905.253.63 0 1.388 0 2.146-.127.631 1.768 1.894 3.662 4.04 5.43v-1.137c0-5.555-4.545-10.1-10.1-10.1z" fill="#513624"/></svg>