<svg xmlns="http://www.w3.org/2000/svg" xmlns:ns1="http://www.inkscape.org/namespaces/inkscape" xmlns:ns2="http://sodipodi.sourceforge.net/DTD/sodipodi-0.dtd" enable-background="new 0 0 64 64" version="1.1" viewBox="0 0 64 64" x="0px" xml:space="preserve" xmlns:xlink="http://www.w3.org/1999/xlink" y="0px">

<g id="solar"><g><g><path transform="matrix(.10298 0 0 .10298 21.382 -5.8051)" x="-200.89037" y="46.758968" width="130.34483" height="130.34483" d="m-190.59 100h109.54l16.6 77.104h-140.44z" stroke-linecap="round" stroke-linejoin="round" stroke-width="5.4962" style="font-variation-settings:'wght' 500"/><g transform="matrix(.10298 0 0 .099824 21.382 -5.2652)" stroke-width="1.9824"><path x="-192.71796" y="54.931381" width="34" height="34" d="m-184.34 103.82h28.973l-0.95562 17.126h-30.763z" style="font-variation-settings:'wght' 500"/><path x="-192.71796" y="94.931381" width="34" height="34" d="m-187.6 124.19h31.102l-1.1063 19.826h-33.175z" style="font-variation-settings:'wght' 500"/><path x="-192.71796" y="134.93138" width="34" height="34" d="m-191.39 147.8h33.569l-1.2956 23.218h-35.997z" style="font-variation-settings:'wght' 500"/><path x="-152.71794" y="54.931377" width="34" height="34" d="m-150.25 103.82h28.973l1.1506 17.126h-30.763z" style="font-variation-settings:'wght' 500"/><path x="-152.71794" y="94.931381" width="34" height="34" d="m-151.01 124.19h31.102l1.3319 19.826h-33.175z" style="font-variation-settings:'wght' 500"/><path x="-152.71794" y="134.93138" width="34" height="34" d="m-151.89 147.8h33.569l1.5599 23.218h-35.997z" style="font-variation-settings:'wght' 500"/><path x="-112.71795" y="54.931385" width="34" height="34" d="m-116.16 103.82h28.973l3.2567 17.126h-30.763z" style="font-variation-settings:'wght' 500"/><path x="-112.71795" y="94.931381" width="34" height="34" d="m-114.42 124.19h31.102l3.7702 19.826h-33.175z" style="font-variation-settings:'wght' 500"/><path x="-112.71795" y="134.93138" width="34" height="34" d="m-112.4 147.8h33.569l4.4154 23.218h-35.997z" style="font-variation-settings:'wght' 500"/></g><path d="m6.8637 13.178v2.4186h-1.4615v0.86339h4.2017v-0.86339h-1.5154v-2.4186z" stroke-linecap="round" stroke-linejoin="round" stroke-width=".566" style="font-variation-settings:'wght' 500"/></g><path d="m12.667 2.3884a2.2655 2.2655 0 0 0-0.95815 0.20914 2.2655 2.2655 0 0 0-1.172 1.266c0.07292 1.635e-4 0.13537 2.452e-4 0.30257 9.046e-4 0.45929 0.00178 1.3779 0.00534 1.8525 0.0075 0.47469 0.00216 0.50548 0.00292 0.55817 0.017561 0.05271 0.014642 0.12729 0.043172 0.18929 0.09845 0.062 0.055278 0.11142 0.13728 0.13943 0.19674 0.028 0.059463 0.0346 0.09639 0.13016 0.50545 0.09417 0.40308 0.27424 1.1655 0.39652 1.7078a2.2655 2.2655 0 0 0 0.61043-2.6947 2.2655 2.2655 0 0 0-2.049-1.3148z" stroke-width=".027246" style="font-variation-settings:'wght' 500"/><g stroke-width=".10298"><path d="m9.4321 1.8071 0.5352 0.99819a0.099775 0.099775 0 0 0 0.15941 0.02246l0.3871-0.39754a0.10126 0.10126 0 0 0-0.025821-0.16047l-0.99941-0.51983a0.042067 0.042067 0 0 0-0.056487 0.057199z"/><path d="m12.672 0.50275 0.3324 1.1593a0.10008 0.10008 0 0 1-0.09865 0.12763l-0.54998-0.013426a0.10436 0.10436 0 0 1-0.09751-0.13396l0.33752-1.1399a0.039699 0.039699 0 0 1 0.07623 3.2953e-4z"/><path d="m14.547 2.2588 1.0908-0.60505a0.037135 0.037135 0 0 1 0.05001 0.051315l-0.64876 1.1019a0.10009 0.10009 0 0 1-0.1605 0.016348l-0.3593-0.39736a0.10816 0.10816 0 0 1 0.02776-0.16713z"/><path d="m15.664 4.4307-8.24e-4 0.55001a0.10061 0.10061 0 0 0 0.13006 0.096347l1.1101-0.33993a0.04089 0.04089 0 0 0-4.12e-4 -0.078328l-1.1081-0.32589a0.10209 0.10209 0 0 0-0.1309 0.097794z"/><path d="m14.347 6.8332 0.34196-0.3082a0.10686 0.10686 0 0 1 0.16568 0.0288l0.54394 1.0123a0.036139 0.036139 0 0 1-0.051 0.047739l-0.9863-0.61719a0.10278 0.10278 0 0 1-0.01429-0.16347z"/></g></g></g>

<g id="heatpump" transform="matrix(3.7795 0 0 3.7795 9.5908 -61.019)"><rect x="-2.2632" y="16.506" width="16.409" height="16.21" ry=".50135" stroke-linejoin="round" stroke-width=".4992" style="paint-order:markers stroke fill"/><rect x="-.97995" y="17.521" width="7.5878" height=".98338" ry=".29738" stroke-linejoin="round" stroke-width=".4992" style="paint-order:markers stroke fill"/><g><rect x="-2.2724" y="19.55" width="16.379" height="1.6097" ry="0" stroke-width=".5303" style="paint-order:markers stroke fill"/><g stroke-width=".40942"><ellipse cx="8.7017" cy="17.99" rx=".44906" ry=".47627" style="paint-order:markers stroke fill"/><ellipse cx="10.456" cy="17.99" rx=".44906" ry=".47627" style="paint-order:markers stroke fill"/><ellipse cx="12.209" cy="17.99" rx=".44906" ry=".47627" style="paint-order:markers stroke fill"/></g></g></g>

<g id="watertank" ><path d="m16.259 8.8835c0.01504-5.175 7.8198-5.7802 15.422-5.8146 8.4708-0.017701 16.051 0.90629 16.151 5.9315l-0.06377 44.493c-0.03663 5.1186-3.5329 5.0241-15.675 5.1303-11.683-0.03609-15.775 0.21054-15.926-5.3232z"/><path d="m22.71 58.485c2.5863 2.5365 6.0402 2.4354 9.3355 2.4362 0.18674 4.3e-5 0.37375 0.0012 0.56078 3e-3 3.22 0.03068 6.1376 0.0827 8.3654-2.4977"/><rect x="25.385" y="50.977" width="13.23" height="2.4255" rx="2.7011" ry="1.2127"/><path d="m16.135 54.351c9.9346 0.86379 20.508 0.825 31.69-0.07796"/><path d="m16.298 8.7217c11.062-1.0745 21.551-1.0039 31.573-1e-7"/></g>

</svg>
