<svg xmlns="http://www.w3.org/2000/svg" xmlns:ns1="http://www.inkscape.org/namespaces/inkscape" xmlns:ns2="http://sodipodi.sourceforge.net/DTD/sodipodi-0.dtd" enable-background="new 0 0 64 64" version="1.1" viewBox="0 0 64 64" x="0px" xml:space="preserve" xmlns:xlink="http://www.w3.org/1999/xlink" y="0px">
    <g id="solar" transform="matrix(.10298 0 0 .10298 12.456 -5.0766)">
      <g transform="translate(-77.334,-18.948)">
          <g transform="translate(164.01,11.874)">
              <path x="-200.89037" y="46.758968" width="130.34483" height="130.34483" d="m-190.59 100h109.54l16.6 77.104h-140.44z" stroke-linecap="round" stroke-linejoin="round" stroke-width="5.5" style="font-variation-settings:'wght' 500"/>
              <g transform="matrix(1 0 0 .96935 0 5.2424)">
                  <path x="-192.71796" y="54.931381" width="34" height="34" d="m-184.34 103.82h28.973l-0.95562 17.126h-30.763z" style="font-variation-settings:'wght' 500"/>
                  <path x="-192.71796" y="94.931381" width="34" height="34" d="m-187.6 124.19h31.102l-1.1063 19.826h-33.175z" style="font-variation-settings:'wght' 500"/>
                  <path x="-192.71796" y="134.93138" width="34" height="34" d="m-191.39 147.8h33.569l-1.2956 23.218h-35.997z" style="font-variation-settings:'wght' 500"/>
                  <path x="-152.71794" y="54.931377" width="34" height="34" d="m-150.25 103.82h28.973l1.1506 17.126h-30.763z" style="font-variation-settings:'wght' 500"/>
                  <path x="-152.71794" y="94.931381" width="34" height="34" d="m-151.01 124.19h31.102l1.3319 19.826h-33.175z" style="font-variation-settings:'wght' 500"/>
                  <path x="-152.71794" y="134.93138" width="34" height="34" d="m-151.89 147.8h33.569l1.5599 23.218h-35.997z" style="font-variation-settings:'wght' 500"/>
                  <path x="-112.71795" y="54.931385" width="34" height="34" d="m-116.16 103.82h28.973l3.2567 17.126h-30.763z" stroke-width="1.0005" style="font-variation-settings:'wght' 500"/>
                  <path x="-112.71795" y="94.931381" width="34" height="34" d="m-114.42 124.19h31.102l3.7702 19.826h-33.175z" style="font-variation-settings:'wght' 500"/>
                  <path x="-112.71795" y="134.93138" width="34" height="34" d="m-112.4 147.8h33.569l4.4154 23.218h-35.997z" style="font-variation-settings:'wght' 500"/>
              </g>
          </g>
          <g>
              <path transform="matrix(.26458 0 0 .26458 -44.118 71.761)" d="m253.79 470.37v88.768h-53.641v31.688h154.21v-31.688h-55.617v-88.768z" style="font-variation-settings:'wght' 500"/>
              <path transform="matrix(.26458 0 0 .26458 -44.118 71.761)" d="m466.79 74.369a83.15 83.15 0 0 0-35.166 7.6758 83.15 83.15 0 0 0-43.016 46.465c2.6762 6e-3 4.9685 9e-3 11.105 0.0332 16.857 0.0653 50.571 0.19606 67.992 0.27539 17.422 0.0793 18.552 0.10713 20.486 0.64453 1.9344 0.5374 4.6718 1.5845 6.9473 3.6133s4.0895 5.0383 5.1172 7.2207 1.2698 3.5377 4.7773 18.551c3.4563 14.794 10.065 42.778 14.553 62.68a83.15 83.15 0 0 0 22.404-98.902 83.15 83.15 0 0 0-75.201-48.256z" style="font-variation-settings:'wght' 500"/>
              <path d="m47.97 85.793 5.1971 9.693a0.96888 0.96888 8.0193 0 0 1.548 0.2181l3.759-3.8604a0.98326 0.98326 80.859 0 0-0.25073-1.5583l-9.7049-5.0479a0.4085 0.4085 134.64 0 0-0.54852 0.55544z"/>
              <path d="m79.429 73.127 3.2278 11.258a0.97183 0.97183 127.7 0 1-0.95791 1.2394l-5.3406-0.13037a1.0134 1.0134 53.946 0 1-0.94694-1.3008l3.2775-11.069a0.3855 0.3855 0.24753 0 1 0.7402 0.0032z"/>
              <path d="m97.637 90.179 10.592-5.8754a0.3606 0.3606 45.736 0 1 0.48566 0.4983l-6.2999 10.7a0.97197 0.97197 174.18 0 1-1.5585 0.15875l-3.4891-3.8586a1.0503 1.0503 99.431 0 1 0.26958-1.6229z"/>
              <path d="m108.49 111.27-8e-3 5.3409a0.97694 0.97694 36.53 0 0 1.263 0.93559l10.78-3.3009a0.39707 0.39707 89.682 0 0-4e-3 -0.76061l-10.76-3.1646a0.99139 0.99139 143.24 0 0-1.2711 0.94964z"/>
              <path d="m95.696 134.6 3.3207-2.9928a1.0377 1.0377 9.8615 0 1 1.6089 0.27967l5.282 9.8303a0.35093 0.35093 136.89 0 1-0.49529 0.46358l-9.5776-5.9933a0.99804 0.99804 85.005 0 1-0.13874-1.5874z"/>
          </g>
      </g>
    </g>


    <g id="light" transform="matrix(.43001 0 0 .43001 -2.3415 -2.184)">
        <path d="m79.861 5.5859c-24.573 5.103e-4 -44.493 19.921-44.492 44.494 0.03914 7.5694 2.0088 15.004 5.7227 21.6l0.0293 0.04687c2.5341 4.8357 4.9136 9.6243 6.6367 13.75s2.6341 7.5416 3.2891 11.051c0.65496 3.5092 1.0535 7.1133 2.7852 8.9375 1.7317 1.8243 4.7963 1.871 9.4121 1.8945 4.5328 0.0231 10.56 0.0232 16.615 0.0234 6.0555-3e-4 12.084-3.5e-4 16.617-0.0234 4.6158-0.0235 7.6804-0.0703 9.4121-1.8945s2.1282-5.4283 2.7832-8.9375c0.65494-3.5092 1.5679-6.9251 3.291-11.051 1.7231-4.1257 4.0963-8.8972 6.6305-13.733l0.0375-0.064c3.7145-6.5957 5.6849-14.03 5.7246-21.6 5.6e-4 -24.574-19.92-44.495-44.494-44.494zm16.512 33.35c0.78139-0.01706 0.97347 0.3011 1.0801 1.2188 0.17057 1.4682 0.12217 4.4674 0.15039 8.6328s0.13323 9.4972-0.3125 13.393c-0.44573 3.8954-1.4415 6.3537-2.6406 9.0059s-2.6001 5.4982-5.2188 7.1484c-2.6186 1.6502-6.4569 2.1047-8.3164 2.8203-1.8595 0.71558-1.7394 1.6901-1.6016 4.4121s0.29465 7.1917 0.02344 9.4961-0.97242 2.4443-2.1699 2.5293c-1.1975 0.08497-2.8928 0.11507-4.5879 0.14453l0.28711-6.4961c1.3531-6.0173 2.7056-12.035 4.5488-16.971s4.1757-8.7894 5.3633-11.289c1.1876-2.4997 1.2302-3.6456 0.56055-3.9707-0.66965-0.32506-2.0517 0.17069-3.9453 1.6621-1.8936 1.4914-4.2893 3.9687-5.9238 7.7402s-2.4902 8.8174-3.7539 8.4023c-1.2637-0.41506-2.9713-6.323-3.377-11.363-0.40566-5.0403 0.47846-9.2553 3.2129-13.066 2.7344-3.8111 7.3193-7.2174 12.086-9.4121 4.7666-2.1947 9.715-3.1783 12.385-3.7012 1.0012-0.19609 1.6816-0.3257 2.1504-0.33594z" stroke-width="1.0138"/>
        <path x="55.779804" y="112.30907" width="48.500465" height="11.013996" d="m61.78 112.31h36.5a6 6 45 0 1 6 6 5.529 5.529 140.12 0 1-6 5.014h-36.5a6 6 45 0 1-6-6 5.529 5.529 140.12 0 1 6-5.014z"/>
        <path x="59.954498" y="142.28525" width="39.966003" height="11.104232" d="m65.954 142.29h27.966a6 6 45 0 1 6 6 5.5702 5.5702 139.61 0 1-6 5.1042h-27.966a6 6 45 0 1-6-6 5.5702 5.5702 139.61 0 1 6-5.1042z"/>
        <path x="54.779842" y="127.25028" width="50.000313" height="10.999432" d="m60.78 127.25h38a6 6 45 0 1 6 6 5.5224 5.5224 140.2 0 1-6 4.9994h-38a6 6 45 0 1-6-6 5.5224 5.5224 140.2 0 1 6-4.9994z"/>
    </g>

    <g id="battery">
        <path d="M57 39.5c-.3 0-.5-.2-.5-.5V25c0-.3.2-.5.5-.5h5c.8 0 1.5.7 1.5 1.5v12c0 .8-.7 1.5-1.5 1.5h-5"/><path d="M62 25c.6 0 1 .4 1 1v12c0 .6-.4 1-1 1h-5V25h5m0-1h-5c-.6 0-1 .4-1 1v14c0 .6.4 1 1 1h5c1.1 0 2-.9 2-2V26c0-1.1-.9-2-2-2z"/><path d="M3 46.5C1.6 46.5.5 45.4.5 44V20c0-1.4 1.1-2.5 2.5-2.5h51c1.4 0 2.5 1.1 2.5 2.5v24c0 1.4-1.1 2.5-2.5 2.5H3"/><path d="M54 18c1.1 0 2 .9 2 2v24c0 1.1-.9 2-2 2H3c-1.1 0-2-.9-2-2V20c0-1.1.9-2 2-2h51m0-1H3c-1.7 0-3 1.3-3 3v24c0 1.7 1.3 3 3 3h51c1.7 0 3-1.3 3-3V20c0-1.7-1.3-3-3-3z" /><path d="M30 46H3c-1.1 0-2-.9-2-2V20c0-1.1.9-2 2-2h27v28"/><path d="M29 18h1v28h-1z"/>
    </g>

    <g id="grid" transform="matrix(.50076 0 0 .50076 11.597 0)"><g transform="translate(-16.934,-56.113)">
        <g transform="translate(-59.22,38.929)">

            <g stroke-width="3.5">
              <path d="m77.742 32.692 17.992-13.758h42.333l17.992 13.758"/>
              <path d="m78.8 31.634h76.2"/>
              <path d="m114.78 18.934-33.867 123.83"/>
              <path d="m118.49 18.934 33.867 123.83"/>
            </g>
            <path d="m76.154 142.49h10.054" stroke-width="5"/>
            <path d="m147.59 142.49h10.054" stroke-width="5"/>

          <path d="m80.917 32.692v10.583" stroke-linecap="round" stroke-width="3.5"/>
          <path d="m152.88 32.692v10.583" stroke-linecap="round" stroke-width="3.5"/>

            <g stroke-width="3">
              <path d="m76.154 35.867h10.583"/>
              <path d="m76.154 40.101h10.583"/>
              <path d="m147.06 35.867h10.583"/>
              <path d="m147.06 40.101h10.583"/>
            </g>
            <path d="m97.585 53.33h38.365" stroke-width="3.5"/>
            <path d="m88.325 91.959h57.15" stroke-width="4.2718"/>
            <g stroke-width="3.5">
              <path d="m112.67 32.692 12.7 20.108"/>
              <path d="m121.13 32.692-12.7 20.108"/>
              <path d="m105.26 53.859 32.808 38.1"/>
              <path d="m128.54 53.859-32.808 38.1"/>
              <path d="m96.792 93.017 50.8 32.808"/>
              <path d="m136.48 93.017-50.8 32.808"/>
            </g>

        </g>
    </g></g>
</svg>
