<svg xmlns="http://www.w3.org/2000/svg" xmlns:ns1="http://www.inkscape.org/namespaces/inkscape" xmlns:ns2="http://sodipodi.sourceforge.net/DTD/sodipodi-0.dtd" enable-background="new 0 0 64 64" version="1.1" viewBox="0 0 64 64" x="0px" xml:space="preserve" xmlns:xlink="http://www.w3.org/1999/xlink" y="0px">
    <g id="solar"><g><g><path transform="matrix(.10298 0 0 .10298 21.382 -5.8051)" x="-200.89037" y="46.758968" width="130.34483" height="130.34483" d="m-190.59 100h109.54l16.6 77.104h-140.44z" stroke-linecap="round" stroke-linejoin="round" stroke-width="5.4962" style="font-variation-settings:'wght' 500"/><g transform="matrix(.10298 0 0 .099824 21.382 -5.2652)" stroke-width="1.9824"><path x="-192.71796" y="54.931381" width="34" height="34" d="m-184.34 103.82h28.973l-0.95562 17.126h-30.763z" style="font-variation-settings:'wght' 500"/><path x="-192.71796" y="94.931381" width="34" height="34" d="m-187.6 124.19h31.102l-1.1063 19.826h-33.175z" style="font-variation-settings:'wght' 500"/><path x="-192.71796" y="134.93138" width="34" height="34" d="m-191.39 147.8h33.569l-1.2956 23.218h-35.997z" style="font-variation-settings:'wght' 500"/><path x="-152.71794" y="54.931377" width="34" height="34" d="m-150.25 103.82h28.973l1.1506 17.126h-30.763z" style="font-variation-settings:'wght' 500"/><path x="-152.71794" y="94.931381" width="34" height="34" d="m-151.01 124.19h31.102l1.3319 19.826h-33.175z" style="font-variation-settings:'wght' 500"/><path x="-152.71794" y="134.93138" width="34" height="34" d="m-151.89 147.8h33.569l1.5599 23.218h-35.997z" style="font-variation-settings:'wght' 500"/><path x="-112.71795" y="54.931385" width="34" height="34" d="m-116.16 103.82h28.973l3.2567 17.126h-30.763z" style="font-variation-settings:'wght' 500"/><path x="-112.71795" y="94.931381" width="34" height="34" d="m-114.42 124.19h31.102l3.7702 19.826h-33.175z" style="font-variation-settings:'wght' 500"/><path x="-112.71795" y="134.93138" width="34" height="34" d="m-112.4 147.8h33.569l4.4154 23.218h-35.997z" style="font-variation-settings:'wght' 500"/></g><path d="m6.8637 13.178v2.4186h-1.4615v0.86339h4.2017v-0.86339h-1.5154v-2.4186z" stroke-linecap="round" stroke-linejoin="round" stroke-width=".566" style="font-variation-settings:'wght' 500"/></g><path d="m12.667 2.3884a2.2655 2.2655 0 0 0-0.95815 0.20914 2.2655 2.2655 0 0 0-1.172 1.266c0.07292 1.635e-4 0.13537 2.452e-4 0.30257 9.046e-4 0.45929 0.00178 1.3779 0.00534 1.8525 0.0075 0.47469 0.00216 0.50548 0.00292 0.55817 0.017561 0.05271 0.014642 0.12729 0.043172 0.18929 0.09845 0.062 0.055278 0.11142 0.13728 0.13943 0.19674 0.028 0.059463 0.0346 0.09639 0.13016 0.50545 0.09417 0.40308 0.27424 1.1655 0.39652 1.7078a2.2655 2.2655 0 0 0 0.61043-2.6947 2.2655 2.2655 0 0 0-2.049-1.3148z" stroke-width=".027246" style="font-variation-settings:'wght' 500"/><g stroke-width=".10298"><path d="m9.4321 1.8071 0.5352 0.99819a0.099775 0.099775 0 0 0 0.15941 0.02246l0.3871-0.39754a0.10126 0.10126 0 0 0-0.025821-0.16047l-0.99941-0.51983a0.042067 0.042067 0 0 0-0.056487 0.057199z"/><path d="m12.672 0.50275 0.3324 1.1593a0.10008 0.10008 0 0 1-0.09865 0.12763l-0.54998-0.013426a0.10436 0.10436 0 0 1-0.09751-0.13396l0.33752-1.1399a0.039699 0.039699 0 0 1 0.07623 3.2953e-4z"/><path d="m14.547 2.2588 1.0908-0.60505a0.037135 0.037135 0 0 1 0.05001 0.051315l-0.64876 1.1019a0.10009 0.10009 0 0 1-0.1605 0.016348l-0.3593-0.39736a0.10816 0.10816 0 0 1 0.02776-0.16713z"/><path d="m15.664 4.4307-8.24e-4 0.55001a0.10061 0.10061 0 0 0 0.13006 0.096347l1.1101-0.33993a0.04089 0.04089 0 0 0-4.12e-4 -0.078328l-1.1081-0.32589a0.10209 0.10209 0 0 0-0.1309 0.097794z"/><path d="m14.347 6.8332 0.34196-0.3082a0.10686 0.10686 0 0 1 0.16568 0.0288l0.54394 1.0123a0.036139 0.036139 0 0 1-0.051 0.047739l-0.9863-0.61719a0.10278 0.10278 0 0 1-0.01429-0.16347z"/></g></g></g>

    <g id="light" transform="matrix(.43001 0 0 .43001 -2.3415 -2.184)">
        <path d="m79.861 5.5859c-24.573 5.103e-4 -44.493 19.921-44.492 44.494 0.03914 7.5694 2.0088 15.004 5.7227 21.6l0.0293 0.04687c2.5341 4.8357 4.9136 9.6243 6.6367 13.75s2.6341 7.5416 3.2891 11.051c0.65496 3.5092 1.0535 7.1133 2.7852 8.9375 1.7317 1.8243 4.7963 1.871 9.4121 1.8945 4.5328 0.0231 10.56 0.0232 16.615 0.0234 6.0555-3e-4 12.084-3.5e-4 16.617-0.0234 4.6158-0.0235 7.6804-0.0703 9.4121-1.8945s2.1282-5.4283 2.7832-8.9375c0.65494-3.5092 1.5679-6.9251 3.291-11.051 1.7231-4.1257 4.0963-8.8972 6.6305-13.733l0.0375-0.064c3.7145-6.5957 5.6849-14.03 5.7246-21.6 5.6e-4 -24.574-19.92-44.495-44.494-44.494zm16.512 33.35c0.78139-0.01706 0.97347 0.3011 1.0801 1.2188 0.17057 1.4682 0.12217 4.4674 0.15039 8.6328s0.13323 9.4972-0.3125 13.393c-0.44573 3.8954-1.4415 6.3537-2.6406 9.0059s-2.6001 5.4982-5.2188 7.1484c-2.6186 1.6502-6.4569 2.1047-8.3164 2.8203-1.8595 0.71558-1.7394 1.6901-1.6016 4.4121s0.29465 7.1917 0.02344 9.4961-0.97242 2.4443-2.1699 2.5293c-1.1975 0.08497-2.8928 0.11507-4.5879 0.14453l0.28711-6.4961c1.3531-6.0173 2.7056-12.035 4.5488-16.971s4.1757-8.7894 5.3633-11.289c1.1876-2.4997 1.2302-3.6456 0.56055-3.9707-0.66965-0.32506-2.0517 0.17069-3.9453 1.6621-1.8936 1.4914-4.2893 3.9687-5.9238 7.7402s-2.4902 8.8174-3.7539 8.4023c-1.2637-0.41506-2.9713-6.323-3.377-11.363-0.40566-5.0403 0.47846-9.2553 3.2129-13.066 2.7344-3.8111 7.3193-7.2174 12.086-9.4121 4.7666-2.1947 9.715-3.1783 12.385-3.7012 1.0012-0.19609 1.6816-0.3257 2.1504-0.33594z" stroke-width="1.0138"/>
        <path x="55.779804" y="112.30907" width="48.500465" height="11.013996" d="m61.78 112.31h36.5a6 6 45 0 1 6 6 5.529 5.529 140.12 0 1-6 5.014h-36.5a6 6 45 0 1-6-6 5.529 5.529 140.12 0 1 6-5.014z"/>
        <path x="59.954498" y="142.28525" width="39.966003" height="11.104232" d="m65.954 142.29h27.966a6 6 45 0 1 6 6 5.5702 5.5702 139.61 0 1-6 5.1042h-27.966a6 6 45 0 1-6-6 5.5702 5.5702 139.61 0 1 6-5.1042z"/>
        <path x="54.779842" y="127.25028" width="50.000313" height="10.999432" d="m60.78 127.25h38a6 6 45 0 1 6 6 5.5224 5.5224 140.2 0 1-6 4.9994h-38a6 6 45 0 1-6-6 5.5224 5.5224 140.2 0 1 6-4.9994z"/>
    </g>

    <g id="grid" transform="matrix(.50076 0 0 .50076 11.597 0)"><g transform="translate(-16.934,-56.113)">
        <g transform="translate(-59.22,38.929)">

            <g stroke-width="3.5">
              <path d="m77.742 32.692 17.992-13.758h42.333l17.992 13.758"/>
              <path d="m78.8 31.634h76.2"/>
              <path d="m114.78 18.934-33.867 123.83"/>
              <path d="m118.49 18.934 33.867 123.83"/>
            </g>
            <path d="m76.154 142.49h10.054" stroke-width="5"/>
            <path d="m147.59 142.49h10.054" stroke-width="5"/>

          <path d="m80.917 32.692v10.583" stroke-linecap="round" stroke-width="3.5"/>
          <path d="m152.88 32.692v10.583" stroke-linecap="round" stroke-width="3.5"/>

            <g stroke-width="3">
              <path d="m76.154 35.867h10.583"/>
              <path d="m76.154 40.101h10.583"/>
              <path d="m147.06 35.867h10.583"/>
              <path d="m147.06 40.101h10.583"/>
            </g>
            <path d="m97.585 53.33h38.365" stroke-width="3.5"/>
            <path d="m88.325 91.959h57.15" stroke-width="4.2718"/>
            <g stroke-width="3.5">
              <path d="m112.67 32.692 12.7 20.108"/>
              <path d="m121.13 32.692-12.7 20.108"/>
              <path d="m105.26 53.859 32.808 38.1"/>
              <path d="m128.54 53.859-32.808 38.1"/>
              <path d="m96.792 93.017 50.8 32.808"/>
              <path d="m136.48 93.017-50.8 32.808"/>
            </g>

        </g>
    </g></g>

    <g id="battery">
      <path d="m57 39.5c-0.3 0-0.5-0.2-0.5-0.5v-14c0-0.3 0.2-0.5 0.5-0.5h5c0.8 0 1.5 0.7 1.5 1.5v12c0 0.8-0.7 1.5-1.5 1.5h-5" fill="#7d7d84"/>
      <rect x=".48758" y="17.488" width="56.025" height="29.025" ry="2.323" stroke-width="2"/>
    </g>

    <g id="arrow" transform="matrix(.0050035 0 0 -.0050035 1.6788 64.025)">
      <defs>
        <radialGradient id="arrowEffect" cx="50%" cy="100%" r="110%" >
          <stop offset="0%" stop-color="rgba(38,191,117,.60)"/>
          <stop offset="60%" stop-color="rgba(38,191,117,.80)"/>
          <stop offset="100%" stop-color="rgba(38,191,117,.60)"/>
          <animate attributeName="r" dur="2000ms" repeatCount="indefinite" values="0%; 400%;" />
        </radialGradient>
      </defs>
      <path fill="url(#arrowEffect)" d="m4905 12789c-1270-4-2353-9-2405-12-77-3-106-9-152-31-92-43-155-134-178-256-7-35-10-1085-10-3070v-3018l-213-7c-116-4-540-5-942-4-813 4-795 6-887-64-85-64-133-207-110-331 27-141-186 79 2936-3044 2787-2788 2873-2874 2945-2910 71-35 80-37 171-37s100 2 171 37c72 36 158 122 2945 2910 2493 2495 2875 2880 2898 2929 99 208 24 431-167 496-48 16-125 18-999 21l-948 3v3027c0 3251 2 3100-49 3201-30 58-85 109-150 140l-56 26-1245 1c-685 0-2284-3-3555-7z"/></g>
</svg>
