<?xml version="1.0" encoding="UTF-8" standalone="no"?>
<svg
   xmlns:dc="http://purl.org/dc/elements/1.1/"
   xmlns:cc="http://creativecommons.org/ns#"
   xmlns:rdf="http://www.w3.org/1999/02/22-rdf-syntax-ns#"
   xmlns:svg="http://www.w3.org/2000/svg"
   xmlns="http://www.w3.org/2000/svg"
   xmlns:sodipodi="http://sodipodi.sourceforge.net/DTD/sodipodi-0.dtd"
   xmlns:inkscape="http://www.inkscape.org/namespaces/inkscape"
   version="1.1"
   id="Layer_1"
   x="0px"
   y="0px"
   viewBox="0 0 64 64"
   xml:space="preserve"
   sodipodi:docname="map.svg"
   width="64"
   height="64"
   inkscape:version="0.92.2 5c3e80d, 2017-08-06"><metadata
     id="metadata24"><rdf:RDF><cc:Work
         rdf:about=""><dc:format>image/svg+xml</dc:format><dc:type
           rdf:resource="http://purl.org/dc/dcmitype/StillImage" /><dc:title /></cc:Work></rdf:RDF></metadata><defs
     id="defs22" /><sodipodi:namedview
     pagecolor="#ffffff"
     bordercolor="#666666"
     borderopacity="1"
     objecttolerance="10"
     gridtolerance="10"
     guidetolerance="10"
     inkscape:pageopacity="0"
     inkscape:pageshadow="2"
     inkscape:window-width="1920"
     inkscape:window-height="1013"
     id="namedview20"
     showgrid="false"
     inkscape:zoom="12.476923"
     inkscape:cx="39.776894"
     inkscape:cy="29.899416"
     inkscape:window-x="0"
     inkscape:window-y="0"
     inkscape:window-maximized="1"
     inkscape:current-layer="Layer_1" /><polygon
     style="fill:#ecf0f1"
     points="61,18.8 61,80.5 35,77.3 35,15.5 "
     class="st0"
     id="XMLID_3_"
     transform="matrix(0.98461538,0,0,0.98461538,-15.261538,-15.261538)" /><polygon
     style="fill:#bdc3c7"
     points="35,15.5 35,77.3 15.5,80.5 15.5,18.8 "
     class="st1"
     id="XMLID_4_"
     transform="matrix(0.98461538,0,0,0.98461538,-15.261538,-15.261538)" /><polygon
     style="fill:#bdc3c7"
     points="80.5,15.5 80.5,77.3 61,80.5 61,18.8 "
     class="st1"
     id="XMLID_5_"
     transform="matrix(0.98461538,0,0,0.98461538,-15.261538,-15.261538)" /><polygon
     style="fill:#6bc305;fill-opacity:1"
     points="35,18.8 35,74 18.8,77.3 18.8,22 "
     class="st2"
     id="XMLID_6_"
     transform="matrix(0.98461538,0,0,0.98461538,-15.261538,-15.261538)" /><polygon
     style="fill:#6bc305;fill-opacity:1"
     points="61,22 61,77.3 35,74 35,18.8 "
     class="st3"
     id="XMLID_7_"
     transform="matrix(0.98461538,0,0,0.98461538,-15.261538,-15.261538)" /><polygon
     style="fill:#6bc305;fill-opacity:1"
     points="61,77.3 61,22 77.3,18.8 77.3,74 "
     class="st2"
     id="XMLID_8_"
     transform="matrix(0.98461538,0,0,0.98461538,-15.261538,-15.261538)" /><polygon
     style="fill:#f39c12"
     points="20,21.7 35,37.6 35,28.2 27.5,20.1 "
     class="st4"
     id="XMLID_9_"
     transform="matrix(0.98461538,0,0,0.98461538,-15.261538,-15.261538)" /><polygon
     style="fill:#f39c12"
     points="61,70.8 61,51.3 77.3,41.5 77.3,67.5 "
     class="st4"
     id="XMLID_10_"
     transform="matrix(0.98461538,0,0,0.98461538,-15.261538,-15.261538)" /><polygon
     style="fill:#2980b9"
     points="61,77.3 61,57.8 77.3,48 77.3,74 "
     class="st5"
     id="XMLID_11_"
     transform="matrix(0.98461538,0,0,0.98461538,-15.261538,-15.261538)" /><polygon
     style="fill:#f1c40f"
     points="61,51.3 61,70.8 35,67.5 35,54.5 "
     class="st6"
     id="XMLID_12_"
     transform="matrix(0.98461538,0,0,0.98461538,-15.261538,-15.261538)" /><polygon
     style="fill:#3498db"
     points="61,57.8 61,77.3 35,74 35,61 "
     class="st7"
     id="XMLID_13_"
     transform="matrix(0.98461538,0,0,0.98461538,-15.261538,-15.261538)" /><polygon
     style="fill:#f39c12"
     points="35,54.5 35,67.5 18.8,70.8 18.8,64.3 "
     class="st4"
     id="XMLID_14_"
     transform="matrix(0.98461538,0,0,0.98461538,-15.261538,-15.261538)" /><polygon
     style="fill:#2980b9"
     points="35,61 35,74 18.8,77.3 18.8,70.8 "
     class="st5"
     id="XMLID_15_"
     transform="matrix(0.98461538,0,0,0.98461538,-15.261538,-15.261538)" /><polygon
     style="fill:#f1c40f"
     points="35,28.2 48,56.3 43.2,56.3 35,37.6 "
     class="st6"
     id="XMLID_16_"
     transform="matrix(0.98461538,0,0,0.98461538,-15.261538,-15.261538)" /><g
     id="g904"
     transform="matrix(0.38742049,0,0,0.38742049,46.893533,11.190853)"><path
       inkscape:connector-curvature="0"
       id="XMLID_5_-3"
       class="st0"
       d="m -37.857677,21.29883 c -12,0 -21.7,9.7 -21.7,21.7 0,3.8 1,7.4 2.8,10.6 0.3,0.5 0.6,1 0.9,1.5 l 18,31.2 17.9,-31.2 c 0.3,-0.4 0.5,-0.8 0.8,-1.3 l 0.2,-0.3 c 1.8,-3.1 2.8,-6.7 2.8,-10.6 0,-11.9 -9.7,-21.6 -21.7,-21.6 z m 0,10.8 c 6,0 10.8,4.9 10.8,10.8 0,6 -4.8,10.9 -10.8,10.9 -6,0 -10.8,-4.9 -10.8,-10.8 0,-6 4.8,-10.9 10.8,-10.9 z"
       style="fill:#e74c3c;fill-opacity:1" /><path
       inkscape:connector-curvature="0"
       id="XMLID_8_-5"
       class="st1"
       d="m -37.857677,29.39883 c -7.5,0 -13.5,6.1 -13.5,13.5 0,7.5 6.1,13.5 13.5,13.5 7.5,0 13.5,-6.1 13.5,-13.5 0,-7.4 -6,-13.5 -13.5,-13.5 z m 0,5.4 c 4.5,0 8.1,3.6 8.1,8.1 0,4.5 -3.6,8.1 -8.1,8.1 -4.5,0 -8.1,-3.6 -8.1,-8.1 0,-4.5 3.6,-8.1 8.1,-8.1 z"
       style="fill:#c0392b;fill-opacity:1" /></g></svg>