<svg xmlns="http://www.w3.org/2000/svg" width="64" height="64"><defs><linearGradient id="a" y1="655.51" y2="662.24" x2="0" gradientUnits="userSpaceOnUse" gradientTransform="translate(3.346 -3.716)"><stop stop-color="#172525"/><stop offset="1" stop-color="#172525" stop-opacity="0"/></linearGradient></defs><path d="M64 2.4v43.2H30.4l-16 16v-16H0V2.4z" fill="#3660bf" fill-rule="evenodd"/><g fill="#fcfcfc"><path d="M17.6 10.4h3.2V12h-3.2zM22.4 10.4h4.8V12h-4.8zM32 10.4h4.8V12H32zM40 10.4h9.6V12H40zM51.2 10.4h6.4V12h-6.4z"/></g><g fill="#7fe9d6"><path d="M17.6 15.2H24v1.6h-6.4zM25.6 15.2h3.2v1.6h-3.2zM32 15.2h12.8v1.6H32z"/></g><g fill="#fcfcfc"><path d="M17.6 20h3.2v1.6h-3.2zM22.4 20h4.8v1.6h-4.8zM32 20h6.4v1.6H32zM41.6 20H48v1.6h-6.4zM49.6 20h8v1.6h-8zM49.6 32.8h-3.2v1.6h3.2zM44.8 32.8H32v1.6h12.8zM28.8 32.8H17.6v1.6h11.2zM57.6 26.4h-3.2V28h3.2zM52.8 26.4H48V28h4.8zM46.4 26.4H32V28h14.4zM25.6 26.4h-8V28h8z"/></g><circle cx="8.8" cy="11.2" r="2.4" color="#000" fill="#abdaf9" fill-rule="evenodd"/><circle cx="8.8" cy="20.8" r="2.4" color="#000" fill="#abdaf9" fill-rule="evenodd"/><circle cx="8.8" cy="27.2" r="2.4" color="#000" fill="#abdaf9" fill-rule="evenodd"/><circle cx="8.8" cy="33.6" r="2.4" color="#000" fill="#abdaf9" fill-rule="evenodd"/><g fill="#7fe9d6"><path d="M17.6 37.6h8v1.6h-8zM27.2 37.6h6.4v1.6h-6.4zM35.2 37.6h19.2v1.6H35.2z"/></g></svg>