<svg xmlns="http://www.w3.org/2000/svg" width="64" height="64"><circle r="30.158" cy="32" cx="32.032" fill="#443f2f" stroke="#9b9c9e" stroke-width="3.619" stroke-linecap="square" stroke-linejoin="round" stroke-miterlimit="10"/><path d="M3.745 30.215L0 32.299l3.745 2.084.024-.013v-4.142zM60.356 34.383l3.63-2.084-3.63-2.084-.023.013v4.142z"/><circle r="1.81" cy="1.842" cx="32"/><path d="M31.999 3.75a30.158 30.158 0 0 0-13.086 3.016 6.506 6.506 0 0 0-.707 2.953v21.745a6.51 6.51 0 0 0 6.523 6.523h14.542a6.51 6.51 0 0 0 6.523-6.523V9.719a6.506 6.506 0 0 0-.7-2.935A30.158 30.158 0 0 0 32 3.75z" fill="#1d211c"/><rect ry="0" y="11.179" x="18.393" height="1" width="27.588" fill="#443f2f"/><circle r="4" cy="18.285" cx="32" fill="#9b9c9e"/><circle r="2" cy="18.24" cx="23.555" fill="#443f2f"/><circle r="2" cy="18.337" cx="40.445" fill="#443f2f"/><path d="M27.65 26.22v3.941c0 .979.79 1.766 1.768 1.766h5.164c.979 0 1.768-.787 1.768-1.766V26.22z" fill="#3d423d"/><g><path d="M47.625 40.34c-.187 0-.312-.126-.312-.313v-8.75c0-.188.125-.313.312-.313h3.125c.5 0 .938.438.938.938v7.5c0 .5-.438.937-.938.937h-3.125" fill="#bebec8"/><path d="M50.75 31.277c.375 0 .625.25.625.625v7.5c0 .375-.25.625-.625.625h-3.125v-8.75h3.125m0-.625h-3.125c-.375 0-.625.25-.625.625v8.75c0 .375.25.625.625.625h3.125c.688 0 1.25-.563 1.25-1.25v-7.5c0-.688-.562-1.25-1.25-1.25z" fill="#34383f"/><path d="M13.875 44.714a1.547 1.547 0 0 1-1.562-1.562v-15c0-.875.687-1.563 1.562-1.563H45.75c.875 0 1.563.688 1.563 1.563v15c0 .875-.688 1.562-1.563 1.562H13.875" fill="#f0f0f0"/><path d="M45.75 26.902c.688 0 1.25.562 1.25 1.25v15c0 .687-.562 1.25-1.25 1.25H13.875c-.687 0-1.25-.563-1.25-1.25v-15c0-.688.563-1.25 1.25-1.25H45.75m0-.625H13.875A1.842 1.842 0 0 0 12 28.152v15c0 1.062.813 1.875 1.875 1.875H45.75a1.842 1.842 0 0 0 1.875-1.875v-15a1.842 1.842 0 0 0-1.875-1.875z" fill="#34383f"/><path d="M40.125 44.402h-26.25c-.687 0-1.25-.563-1.25-1.25v-15c0-.688.563-1.25 1.25-1.25h26.25v17.5" fill="#6bc305"/><path d="M39.5 26.902h.625v17.5H39.5z" fill="#559c04"/></g></svg>