<svg xmlns="http://www.w3.org/2000/svg" viewBox="0 0 64 64"><g transform="matrix(1.1 0 0 1.1 -3.2 4.136)"><path d="M46.678 37.705v9.507h-5.242v-9.507h5.242m1.049-1.057h-7.34v11.62h7.34zM25.652 23.63v5.6h-4.508v-5.6h4.508m.944-.95h-6.291v7.394h6.29z" fill="#c8c8c8"/><path d="M10.593 49.864l41.555-.07.058-25.27-20.268-20.34-21.18 21.423z" fill="#f8f7e6" fill-rule="evenodd" stroke="#989898" stroke-width=".173"/><rect width="40.987" height="2.264" x="-20.058" y="24.187" ry="0" transform="scale(.99622 1.00376) rotate(-45)" fill="#99a0b1"/><rect width="40.987" height="2.264" x="-65.484" y="18.975" ry="0" transform="scale(-.99622 -1.00376) rotate(45)" fill="#99a0b1"/><path d="M29.184 11.808v6.26h5.177v-6.26zm.627.759h3.922v4.742h-3.922z" fill="#f0f0f0"/><path d="M34.282 11.903v6.07h-5.02v-6.07h5.02m.157-.19h-5.334v6.45h5.334z" fill="#646464"/><path d="M29.794 12.584h3.922v4.742h-3.922z" fill="#d9f1ff"/><path d="M33.655 12.661v4.553H29.89V12.66h3.765m.157-.19h-4.08v4.932h4.08z" fill="#7aadcc"/><path d="M28.4 19.016v-8.157h6.745v8.157H28.4m.628-.759h5.49v-6.639h-5.49v6.639" fill="#ececed"/><path d="M35.067 10.954v7.967h-6.59v-7.967h6.59m-6.119 7.398h5.648V11.523h-5.648V18.352m6.276-7.587H28.32v8.346h6.903zm-6.119 7.397v-6.45h5.334v6.45h-5.334" fill="#9b9c9e"/><path d="M28.948 11.523h5.648v.759h-5.648z" fill="#282828"/><g><path d="M18.076 23.823v6.26h5.178v-6.26zm.628.759h3.922v4.742h-3.922z" fill="#f0f0f0"/><path d="M23.175 23.918v6.07h-5.02v-6.07h5.02m.157-.19h-5.334v6.45h5.334z" fill="#646464"/><path d="M18.686 24.6h3.922v4.742h-3.922z" fill="#d9f1ff"/><path d="M22.548 24.677v4.552h-3.766v-4.552h3.766m.156-.19h-4.078v4.932h4.078z" fill="#7aadcc"/><path d="M17.292 31.031v-8.156h6.746v8.156h-6.746m.628-.759h5.49v-6.639h-5.49v6.64" fill="#ececed"/><path d="M23.96 22.97v7.966h-6.59V22.97h6.59m-6.119 7.397h5.648V23.538H17.84V30.369m6.275-7.588h-6.902v8.346h6.902zm-6.118 7.398v-6.45h5.334v6.45h-5.334" fill="#9b9c9e"/><path d="M17.841 23.539h5.648v.758H17.84z" fill="#282828"/></g><g><path d="M40.132 23.823v6.26h5.177v-6.26zm.628.759h3.922v4.742H40.76z" fill="#f0f0f0"/><path d="M45.23 23.918v6.07h-5.02v-6.07h5.02m.158-.19h-5.334v6.45h5.334z" fill="#646464"/><path d="M40.742 24.6h3.922v4.742h-3.922z" fill="#d9f1ff"/><path d="M44.603 24.677v4.552h-3.765v-4.552h3.765m.157-.19h-4.079v4.932h4.08z" fill="#7aadcc"/><path d="M39.348 31.031v-8.156h6.746v8.156h-6.746m.627-.759h5.491v-6.639h-5.49v6.64" fill="#ececed"/><path d="M46.015 22.97v7.966h-6.589V22.97h6.59m-6.12 7.397h5.649V23.538h-5.648V30.369m6.275-7.588H39.27v8.346h6.903zm-6.118 7.398v-6.45h5.334v6.45h-5.334" fill="#9b9c9e"/><path d="M39.897 23.539h5.648v.758h-5.648z" fill="#282828"/></g><rect width="33.485" height="13.808" x="18.662" y="35.987" ry="0" fill="#f8f7e6" stroke="#989898" stroke-width=".173" stroke-linecap="square" stroke-linejoin="round"/><rect width="3.225" height="5.317" x="36.181" y="4.244" ry="0" fill="#99a0b1"/></g></svg>