<svg xmlns="http://www.w3.org/2000/svg" viewBox="0 0 60 60" width="64" height="64"><path d="M15.668 13.209h28.41v34.09h-28.41z" fill="#d9f1ff"/><path d="M11.25 7.5v45h37.5v-45zm4.545 5.455h28.41v34.09h-28.41z" fill="#f0f0f0"/><path d="M48.182 8.182v43.636H11.818V8.182h36.364m1.136-1.364H10.682v46.364h38.636z" fill="#646464"/><path d="M43.636 13.636v32.728H16.364V13.636h27.272m1.137-1.363H15.227v35.454h29.546z" fill="#7aadcc"/><path d="M5.568 59.318V.682h48.864v58.636H5.568m4.546-5.454h39.772V6.136H10.114v47.728" fill="#ececed"/><path d="M53.864 1.364v57.272H6.136V1.364h47.728M9.545 54.545H50.455V5.455H9.545V54.545M55 0H5v60h50zM10.682 53.182V6.818h38.636v46.364H10.682" fill="#9b9c9e"/><path d="M10.114 6.136h39.772v34.091H10.114z" fill="#c8c8c8"/><path d="M49.318 6.818v32.727H10.682V6.818h38.636m1.137-1.363H9.545v35.454h40.91z" fill="#646464"/><path d="M10.682 12.273h38.636v1.363H10.682zM10.682 17.727h38.636v1.364H10.682zM10.682 23.182h38.636v1.363H10.682zM10.682 28.636h38.636V30H10.682zM10.682 34.09h38.636v1.365H10.682z" opacity=".25"/><path d="M9.545 5.455h40.91v5.454H9.545z" fill="#282828"/></svg>