<svg xmlns="http://www.w3.org/2000/svg" xmlns:xlink="http://www.w3.org/1999/xlink" viewBox="0 0 64 64"><defs><linearGradient id="b" gradientUnits="userSpaceOnUse" x1="19.71" y1="25.855" x2="11.144" y2="34.421" gradientTransform="translate(.542 10.034)"><stop stop-color="#fff"/><stop offset="1" stop-color="#c8c8c8"/></linearGradient><linearGradient id="a" gradientUnits="userSpaceOnUse" x1="2.469" x2="9.854" gradientTransform="matrix(1.2374 .212 -.1689 .9856 18.777 12.137)"><stop stop-color="#00255f"/><stop offset=".012" stop-color="#00255e"/><stop offset=".628" stop-color="#001945"/><stop offset="1" stop-color="#00143c"/></linearGradient><linearGradient id="d" gradientUnits="userSpaceOnUse" x1="18" x2="58" xlink:href="#a" gradientTransform="translate(.542 10.034)"/><linearGradient id="c" gradientUnits="userSpaceOnUse" y1="24.75" x2="0" y2="46" gradientTransform="translate(.542 10.034)"><stop stop-color="#0062ca"/><stop offset=".28" stop-color="#004ca0"/><stop offset=".597" stop-color="#003678"/><stop offset=".849" stop-color="#00295e"/><stop offset="1" stop-color="#002455"/></linearGradient><radialGradient gradientTransform="matrix(.405 0 0 .405 38.023 -5.367)" id="f" cx="32" cy="32" r="31" gradientUnits="userSpaceOnUse"><stop offset=".8" stop-color="#f8f5e5" stop-opacity="0"/><stop offset=".8" stop-color="#ffde52" stop-opacity=".2"/><stop offset="1" stop-color="#ffde52" stop-opacity="0"/></radialGradient><linearGradient xlink:href="#a" id="e" gradientUnits="userSpaceOnUse" gradientTransform="matrix(1.2374 .212 -.1689 .9856 19.32 22.171)" x1="2.469" x2="9.854"/></defs><path d="M58.5 34.83h5v24h-5z" fill="#845340"/><path d="M63 35.33v23h-4v-23h4m1-1h-6v25h6z" fill="#663629"/><path d="M21.292 46.954c-.5 0-.98-.11-1.43-.33l-11.38-5.62a3.221 3.221 0 0 1-1.64-1.87c-.28-.82-.22-1.71.16-2.48l.71-1.45a3.277 3.277 0 0 1 4.36-1.48l11.38 5.61c.78.38 1.36 1.05 1.64 1.87.28.83.22 1.71-.16 2.48l-.71 1.45a3.286 3.286 0 0 1-2.93 1.82" fill="url(#b)" transform="matrix(1 0 0 1 -.542 -.704)"/><path d="M10.1 32.44v.5c.46 0 .9.1 1.32.31l11.39 5.61c.72.35 1.25.97 1.51 1.73s.21 1.57-.15 2.29l-.71 1.45a3.016 3.016 0 0 1-2.7 1.67c-.46 0-.9-.1-1.32-.31L8.05 40.08a3.01 3.01 0 0 1-1.37-4.02l.71-1.45c.5-1.02 1.56-1.67 2.7-1.67v-.5m.01 0c-1.29 0-2.54.72-3.15 1.95l-.71 1.45a3.519 3.519 0 0 0 1.59 4.69l11.39 5.61c.49.24 1.02.36 1.54.36 1.29 0 2.54-.72 3.15-1.95l.71-1.45c.85-1.73.13-3.84-1.59-4.69L11.64 32.8c-.5-.24-1.02-.36-1.54-.36" fill="#bebebe"/><path d="M5.5 41.83h53v10h-53z" fill="#845340"/><path d="M58 42.33v9H6v-9h52m1-1H5v11h54z" fill="#663629"/><path d="M54.792 41.034h-13.75s-7.6-.1-12.5-2.5-10-3.75-10-3.75v17.5c0 2.07 1.68 3.75 3.75 3.75h31.25c2.76 0 5-2.24 5-5v-6.25c0-2.07-1.68-3.75-3.75-3.75" fill="url(#c)" transform="matrix(1 0 0 1 -.542 -.704)"/><path d="M19.542 36.114c1.8.55 5.25 1.69 8.56 3.32 5.04 2.46 12.61 2.6 12.94 2.6h13.75c1.52 0 2.75 1.23 2.75 2.75v6.25c0 2.21-1.79 4-4 4h-31.25c-1.52 0-2.75-1.23-2.75-2.75v-16.17m-1-1.33v17.5c0 2.07 1.68 3.75 3.75 3.75h31.25c2.76 0 5-2.24 5-5v-6.25c0-2.07-1.68-3.75-3.75-3.75h-13.75s-7.6-.1-12.5-2.5-10-3.75-10-3.75z" fill="url(#d)" transform="matrix(1 0 0 1 -.542 -.704)"/><path d="M28.332 42.814l-9.14-1.57.21-1.21 9.14 1.57z" opacity=".6" fill="url(#e)" transform="matrix(1 0 0 1 -.542 -.704)"/><path d="M.5 23.83h5v35h-5z" fill="#845340"/><path d="M5 24.33v34H1v-34h4m1-1H0v36h6z" fill="#663629"/><g transform="matrix(1 0 0 1 -.57 9.632)"><circle cx="50.983" cy="7.593" r="12.555" fill="url(#f)"/><circle cx="50.983" cy="7.593" r="9.315" fill="#ffde52"/></g></svg>