<svg xmlns="http://www.w3.org/2000/svg" viewBox="0 0 64 64"><path d="M32 63.429c-16.07 0-29.143-13.074-29.143-29.143 0-11.513 6.7-21.846 17.143-26.563v9.158a21.124 21.124 0 0 0-9.143 17.405c0 11.658 9.485 21.143 21.143 21.143 11.658 0 21.143-9.485 21.143-21.143A21.12 21.12 0 0 0 44 16.88V7.723a29.073 29.073 0 0 1 17.143 26.563c0 16.07-13.073 29.143-29.143 29.143z" fill="#d72a2a"/><path d="M44.571 8.624a28.501 28.501 0 0 1 16 25.662c0 15.754-12.817 28.571-28.571 28.571-15.754 0-28.571-12.817-28.571-28.571a28.501 28.501 0 0 1 16-25.662v7.96a21.69 21.69 0 0 0-9.143 17.703C10.286 46.26 20.026 56 32 56c11.974 0 21.714-9.74 21.714-21.714a21.692 21.692 0 0 0-9.143-17.703v-7.96M43.43 6.853v10.33c5.512 3.69 9.142 9.971 9.142 17.103 0 11.36-9.21 20.571-20.571 20.571s-20.571-9.21-20.571-20.571c0-7.132 3.63-13.413 9.142-17.103V6.853C9.834 11.33 2.286 21.926 2.286 34.286 2.286 50.696 15.59 64 32 64c16.41 0 29.714-13.304 29.714-29.714 0-12.36-7.548-22.956-18.285-27.433z" fill="#a82020"/><path fill="#d72a2a" d="M28 .571h8v26.286h-8z"/><path d="M35.429 1.143v25.143H28.57V1.143h6.858M36.57 0H27.43v27.429h9.142z" fill="#a82020"/></svg>