<svg xmlns="http://www.w3.org/2000/svg" width="64" height="64"><g fill="#6bc305" stroke="#559c04" stroke-linejoin="round"><path stroke-width=".985" d="M19.52 7.184h25.923v4.11H19.52zM19.678 52.706H45.6v4.11H19.678zM46.818 34.734l16.69 17.283-2.957 2.855-16.69-17.283zM43.862 26.568l16.69-17.283 2.956 2.855-16.69 17.283z"/><g transform="matrix(2.33146 0 0 2.33146 -900.011 -1208.654)" stroke-width=".422"><circle r="1.65" cy="525.787" cx="397.815"/><circle r="1.65" cy="525.787" cx="402.334"/></g><g transform="matrix(2.33146 0 0 2.33146 -900.011 -1198.925)" stroke-width=".422"><circle r="1.65" cy="525.787" cx="397.815"/><circle r="1.65" cy="525.787" cx="402.334"/></g><g transform="matrix(2.33146 0 0 2.33146 -900.011 -1189.195)" stroke-width=".422"><circle r="1.65" cy="525.787" cx="397.815"/><circle r="1.65" cy="525.787" cx="402.334"/></g><g transform="matrix(2.33146 0 0 2.33146 -900.011 -1179.466)" stroke-width=".422"><circle r="1.65" cy="525.787" cx="397.815"/><circle r="1.65" cy="525.787" cx="402.334"/></g><path d="M11.932 21.033L.492 32.473l11.44 11.443v-4.803h7.271V25.836h-7.271z" stroke-width=".985"/></g></svg>