<svg xmlns="http://www.w3.org/2000/svg" viewBox="0 0 64 64"><g fill="#9b9c9e"><path d="M23.67 48.97H10.638c-.682 0-1.24-.436-1.24-.97 0-.533.558-.97 1.24-.97H23.67c.683 0 1.241.437 1.241.97 0 .534-.558.97-1.24.97M23.67 51.88H10.638c-.682 0-1.24-.437-1.24-.97 0-.534.558-.97 1.24-.97H23.67c.683 0 1.241.436 1.241.97 0 .533-.558.97-1.24.97M23.447 54.788H10.862c-.807 0-1.465-.514-1.465-1.144 0-.436.46-.795 1.018-.795H23.88c.559 0 1.018.359 1.018.795.012.63-.645 1.144-1.452 1.144M17.154 58.667c2.743 0 4.965-1.3 4.965-2.909h-9.93c0 1.61 2.222 2.91 4.965 2.91"/></g><path d="M34.308 20.441c0-8.35-7.676-15.108-17.154-15.108C7.677 5.333 0 12.092 0 20.44c0 2.647.772 5.13 2.123 7.283.825 1.444 1.415 2.482 1.79 3.132.772 1.357 1.223 2.143 1.78 3.316.236.495.59 1.241.922 2.095 1.319 3.384 1.823 6.613 1.823 6.613s.246 1.688 1.243 2.512c.28.233.558.368.697.426.483.204.922.243 1.19.243H22.73c.258 0 .708-.039 1.19-.243.14-.058.419-.193.697-.426.997-.824 1.244-2.512 1.244-2.512s.504-3.229 1.823-6.613c.332-.854.686-1.6.922-2.095.557-1.173 1.008-1.959 1.78-3.316.375-.66.964-1.688 1.79-3.132 1.362-2.163 2.133-4.645 2.133-7.283" fill="#dae1e4"/><g fill="#6bc305" stroke="#569c04" stroke-width="1.479"><path d="M41.328 37.746A8.494 8.494 0 0 0 43.558 32a8.494 8.494 0 0 0-2.23-5.746l2.366-2.366c2.095 2.23 3.244 5.07 3.244 8.112s-1.149 5.949-3.244 8.112l-2.366-2.366" stroke-width=".99977442"/><path d="M46.6 32c0 2.84-1.014 5.543-2.906 7.639L41.8 37.746c1.352-1.622 2.095-3.583 2.095-5.746 0-2.163-.743-4.123-2.095-5.746l1.893-1.893c1.892 2.096 2.906 4.8 2.906 7.639m.676 0c0-3.11-1.216-6.219-3.582-8.585l-2.84 2.84A8.138 8.138 0 0 1 43.22 32c0 2.096-.81 4.124-2.365 5.746l2.839 2.839A12.139 12.139 0 0 0 47.276 32z" stroke-width=".99977442"/><path d="M47.074 43.492c2.974-3.11 4.596-7.166 4.596-11.492 0-4.326-1.622-8.382-4.596-11.492l2.366-2.366c3.582 3.718 5.61 8.653 5.61 13.858s-1.96 10.14-5.61 13.858l-2.366-2.366" stroke-width=".99977442"/><path d="M54.712 32c0 5.002-1.893 9.734-5.272 13.384l-1.893-1.892A16.916 16.916 0 0 0 52.008 32c0-4.259-1.554-8.315-4.461-11.492l1.893-1.892c3.38 3.65 5.272 8.382 5.272 13.384m.676 0c0-5.205-1.96-10.41-5.948-14.33l-2.84 2.838c3.178 3.177 4.732 7.3 4.732 11.492 0 4.124-1.554 8.315-4.732 11.492l2.84 2.839c3.988-3.92 5.948-9.126 5.948-14.331z" stroke-width=".99977442"/><path d="M52.82 49.238C57.28 44.573 59.781 38.489 59.781 32c0-6.49-2.501-12.573-6.963-17.238l2.366-2.366C60.323 17.67 63.162 24.632 63.162 32c0 7.368-2.84 14.33-7.977 19.604l-2.366-2.366" stroke-width=".99977442"/><path d="M62.824 32c0 7.165-2.704 13.925-7.639 19.13l-1.892-1.892C57.687 44.506 60.12 38.422 60.12 32c0-6.422-2.433-12.506-6.827-17.17l1.892-1.893C60.12 18.075 62.824 24.835 62.824 32m.676 0c0-7.3-2.772-14.534-8.315-20.077l-2.839 2.84c4.732 4.731 7.098 10.95 7.098 17.237 0 6.287-2.366 12.438-7.098 17.238l2.84 2.839A28.362 28.362 0 0 0 63.5 32z" stroke-width=".99977442"/></g></svg>