<svg xmlns="http://www.w3.org/2000/svg" width="64" height="64"><g fill="#852c2c"><path d="M44.676 57.203H18.348V53.03h26.328zM44.515 10.97H18.187V6.796h26.328zM16.95 29.222L0 11.67l3.003-2.9 16.95 17.552zM19.952 37.516L3.002 55.07l-3.004-2.9 16.95-17.553z"/><g transform="matrix(-2.36788 0 0 -2.36788 978.573 1292.039)"><circle cx="397.815" cy="525.787" r="1.65"/><circle cx="402.334" cy="525.787" r="1.65"/></g><g transform="matrix(-2.36788 0 0 -2.36788 978.573 1282.157)"><circle cx="397.815" cy="525.787" r="1.65"/><circle cx="402.334" cy="525.787" r="1.65"/></g><g transform="matrix(-2.36788 0 0 -2.36788 978.573 1272.276)"><circle cx="397.815" cy="525.787" r="1.65"/><circle cx="402.334" cy="525.787" r="1.65"/></g><g transform="matrix(-2.36788 0 0 -2.36788 978.573 1262.394)"><circle cx="397.815" cy="525.787" r="1.65"/><circle cx="402.334" cy="525.787" r="1.65"/></g><path d="M56.234 38.26H44.996V24.775h11.238z"/><path d="M52.383 43.138L64 31.521 52.383 19.899z"/></g></svg>