<svg xmlns="http://www.w3.org/2000/svg" viewBox="0 0 64 64"><path d="M14.64 21.759c-2.651 2.77-4.097 6.385-4.097 10.241s1.446 7.47 4.096 10.241l-2.108 2.109a17.766 17.766 0 0 1-5-12.35c0-4.639 1.747-9.037 5-12.35l2.108 2.109" fill="#6bc305"/><path d="M7.832 32c0-4.458 1.687-8.675 4.699-11.928l1.687 1.687A15.075 15.075 0 0 0 10.24 32c0 3.795 1.386 7.41 3.977 10.241l-1.687 1.687c-3.012-3.253-4.7-7.47-4.7-11.928m-.602 0c0 4.639 1.747 9.278 5.302 12.772l2.53-2.53C12.229 39.41 10.844 35.734 10.844 32c0-3.735 1.385-7.41 4.217-10.241l-2.53-2.53C8.976 22.721 7.229 27.36 7.229 32z" fill="#569c04"/><path d="M9.519 16.638C5.542 20.795 3.313 26.217 3.313 32c0 5.783 2.23 11.205 6.206 15.362L7.41 49.471A24.91 24.91 0 0 1 .301 32 24.91 24.91 0 0 1 7.41 14.53l2.109 2.108" fill="#6bc305"/><path d="M.602 32c0-6.386 2.41-12.41 6.808-17.049l1.687 1.687C5.18 20.855 3.012 26.277 3.012 32c0 5.723 2.169 11.145 6.085 15.302L7.41 48.989C3.012 44.41.602 38.386.602 32M0 32c0 6.506 2.47 12.952 7.41 17.892l2.53-2.53C5.723 43.145 3.615 37.602 3.615 32c0-5.603 2.108-11.085 6.325-15.362l-2.53-2.53A25.276 25.276 0 0 0 0 32z" fill="#569c04"/><g><path d="M49.36 42.241c2.651-2.77 4.097-6.385 4.097-10.241s-1.446-7.47-4.096-10.241l2.108-2.109c3.193 3.313 5 7.711 5 12.35 0 4.639-1.747 9.037-5 12.35l-2.108-2.109" fill="#6bc305"/><path d="M56.168 32c0 4.458-1.687 8.675-4.699 11.928l-1.687-1.687A15.075 15.075 0 0 0 53.76 32c0-3.795-1.386-7.41-3.977-10.241l1.687-1.687c3.012 3.253 4.7 7.47 4.7 11.928m.602 0c0-4.639-1.747-9.278-5.302-12.772l-2.53 2.53c2.832 2.832 4.217 6.507 4.217 10.242 0 3.735-1.385 7.41-4.217 10.241l2.53 2.53c3.555-3.493 5.302-8.132 5.302-12.771z" fill="#569c04"/><path d="M54.481 47.362c3.977-4.157 6.206-9.579 6.206-15.362 0-5.783-2.23-11.205-6.206-15.362l2.109-2.109A24.91 24.91 0 0 1 63.699 32a24.91 24.91 0 0 1-7.109 17.47l-2.109-2.108" fill="#6bc305"/><path d="M63.398 32c0 6.386-2.41 12.41-6.808 17.049l-1.687-1.687c3.916-4.217 6.085-9.639 6.085-15.362 0-5.723-2.169-11.145-6.085-15.302l1.687-1.687C60.988 19.59 63.398 25.614 63.398 32M64 32c0-6.506-2.47-12.952-7.41-17.892l-2.53 2.53c4.217 4.217 6.325 9.76 6.325 15.362 0 5.603-2.108 11.085-6.325 15.362l2.53 2.53A25.276 25.276 0 0 0 64 32z" fill="#569c04"/></g><g><g transform="matrix(.6092 0 0 .6092 12.656 12.013)"><ellipse cy="9.133" cx="23.489" rx="6" ry="5.694" fill="#dae1e4"/><ellipse cy="9.133" cx="23.489" rx="5" ry="4.745" fill="#c4cacc"/><path d="M17.49 9.505h12v42.708h-12z" fill="#dae1e4"/><path d="M18.49 9.455h10v41.802h-10z" fill="#c4cacc"/><ellipse cy="53.637" cx="23.489" rx="9" ry="8.542" fill="#dae1e4"/><ellipse cx="23.489" cy="53.637" rx="8" ry="7.593" fill="#d72a2a"/><path d="M18.49 12.4h10v35.47h-10z" fill="#d72a2a"/><g fill="#c4cacc"><path d="M9.478 10.425h5v2h-5zM9.478 18.425h5v2h-5zM9.478 26.425h5v2h-5zM9.478 34.425h5v2h-5zM9.478 42.425h5v2h-5z"/></g></g><g transform="matrix(.6092 0 0 .6092 12.656 11.663)"><circle r="4.2" cy="8.213" cx="47.729" fill="#dae1e4"/><circle r="3.5" cy="8.213" cx="47.729" fill="#c4cacc"/><path d="M43.529 7.963h8.4v31.5h-8.4z" fill="#dae1e4"/><path d="M44.229 7.926h7V38.76h-7z" fill="#c4cacc"/><circle r="6.3" cy="40.513" cx="47.729" fill="#dae1e4"/><g transform="matrix(.7 0 0 .7 25.329 2.013)" fill="#2e7de5"><circle r="8" cy="55" cx="32"/><path d="M27 39h10v12H27z"/></g><g fill="#c4cacc"><path d="M37.86 9.49h3.676v1.47H37.86zM37.86 15.37h3.676v1.47H37.86zM37.86 21.25h3.676v1.47H37.86zM37.86 27.13h3.676v1.47H37.86zM37.86 33.01h3.676v1.47H37.86z"/></g></g></g></svg>