<svg xmlns="http://www.w3.org/2000/svg" width="64" height="64"><g fill="#852c2c"><path d="M19.324 6.797h26.328v4.174H19.324zM19.485 53.03h26.328v4.174H19.485zM47.05 34.778L64 52.33l-3.003 2.9-16.95-17.552zM44.048 26.484L60.998 8.93l3.004 2.9-16.95 17.553z"/><g transform="matrix(2.36788 0 0 2.36788 -914.573 -1228.039)"><circle cx="397.815" cy="525.787" r="1.65"/><circle cx="402.334" cy="525.787" r="1.65"/></g><g transform="matrix(2.36788 0 0 2.36788 -914.573 -1218.157)"><circle cx="397.815" cy="525.787" r="1.65"/><circle cx="402.334" cy="525.787" r="1.65"/></g><g transform="matrix(2.36788 0 0 2.36788 -914.573 -1208.276)"><circle cx="397.815" cy="525.787" r="1.65"/><circle cx="402.334" cy="525.787" r="1.65"/></g><g transform="matrix(2.36788 0 0 2.36788 -914.573 -1198.394)"><circle cx="397.815" cy="525.787" r="1.65"/><circle cx="402.334" cy="525.787" r="1.65"/></g><path d="M7.766 25.74h11.238v13.485H7.766z"/><path d="M11.617 20.862L0 32.479l11.617 11.622z"/></g></svg>