<svg xmlns="http://www.w3.org/2000/svg" height="64" width="64"><linearGradient id="a" gradientUnits="userSpaceOnUse" x1="386.571" x2="386.571" y1="549.798" y2="497.798" gradientTransform="matrix(1.23077 0 0 1.23077 -470.857 -612.674)"><stop offset="0" stop-color="#7f8c8d"/><stop offset="1" stop-color="#afb0b3"/></linearGradient><linearGradient id="b" gradientUnits="userSpaceOnUse" x1="400.571" x2="420.571" y1="511.798" y2="531.798" gradientTransform="matrix(1.23077 0 0 1.23077 -470.857 -612.674)"><stop offset="0" stop-color="#292c2f"/><stop offset="1" stop-opacity="0"/></linearGradient><path d="M4.923 0h54.154v64H4.923z" fill="url(#a)"/><path d="M50.462 56.615h8.615V64h-8.615zm-45.539 0h8.615V64H4.923z" opacity=".2" fill="#292c2f"/><g stroke-width="1.857"><path d="M4.923 56.615h8.615V64h-1.23zm45.539 0h8.615V64h-8.615z" opacity=".2" fill="#292c2f"/><path d="M12.308 56.615h39.384V64H12.308z" fill="#292c2e"/><path d="M17.23 59.077h17.232v2.461H17.23zm19.693 0h9.846v2.461h-9.846z" fill="#f6b44d"/></g><path d="M9.846 44.308L29.538 64h29.539V16.335L50.91 8.167z" opacity=".2" fill="url(#b)"/><path d="M20.923 4.923A11.077 11.077 0 0 0 9.846 16v10.505A7.385 7.385 0 0 1 12.308 32a7.385 7.385 0 0 1-2.462 5.493v6.815l7.385 7.384h29.538l7.385-7.384v-6.813A7.385 7.385 0 0 1 51.692 32a7.385 7.385 0 0 1 2.462-5.493V16A11.077 11.077 0 0 0 43.077 4.923z" fill="#eef1f2"/><path d="M4.923 62.77h54.154V64H4.923z" opacity=".4" fill="#292c2f"/><path d="M10.514 3.775a1.5 1.5 0 1 1-3 0 1.5 1.5 0 0 1 3 0zM56.647 3.748a1.5 1.5 0 1 1-3-.001 1.5 1.5 0 0 1 3 0z" fill="#434a54"/><path d="M32.324 37.039c-3.648 0-7.078-1.421-9.658-4-2.58-2.582-4-6.01-4-9.66a13.57 13.57 0 0 1 4-9.657c2.58-2.58 6.01-4 9.658-4 3.649 0 7.079 1.42 9.658 4 2.58 2.58 4 6.01 4 9.658 0 3.648-1.42 7.077-4 9.658-2.58 2.58-6.01 4-9.658 4z" fill="#e6e9ed"/><path d="M32.324 8.746c-8.081 0-14.634 6.552-14.634 14.634s6.553 14.635 14.634 14.635c8.082 0 14.634-6.553 14.634-14.635S40.406 8.746 32.324 8.746zm8.968 23.602a12.608 12.608 0 0 1-8.968 3.714 12.608 12.608 0 0 1-8.967-3.714 12.628 12.628 0 0 1-3.716-8.968 12.634 12.634 0 0 1 3.716-8.968 12.618 12.618 0 0 1 4.031-2.719 12.596 12.596 0 0 1 4.936-.996c1.714 0 3.374.335 4.936.996a12.615 12.615 0 0 1 4.032 2.72 12.634 12.634 0 0 1 3.716 8.967 12.631 12.631 0 0 1-3.716 8.968z" fill="#ccd1d9"/><path d="M32.324 27.283a3.907 3.907 0 0 1-3.903-3.903 3.907 3.907 0 0 1 3.903-3.902 3.907 3.907 0 0 1 3.903 3.902 3.907 3.907 0 0 1-3.903 3.903z" fill="#5d9cec"/><path d="M32.324 18.502a4.877 4.877 0 1 0 0 9.755 4.877 4.877 0 0 0 0-9.755zm0 7.805a2.93 2.93 0 0 1-2.926-2.927 2.93 2.93 0 0 1 2.926-2.927 2.93 2.93 0 0 1 2.927 2.927 2.93 2.93 0 0 1-2.927 2.927z" fill="#4a89dc"/><path d="M17.174 33.136h-3.387v11.707a3.903 3.903 0 0 0 3.903 3.903h14.634V40.94c-6.248 0-11.776-3.08-15.15-7.805z" fill="#e6e9ed"/><path d="M33.3 23.38a.976.976 0 1 1-1.952 0 .976.976 0 0 1 1.952 0zM24.923 43.654L35.02 30.84a.976.976 0 0 0-1.375-1.375L20.83 39.563a2.926 2.926 0 1 0 4.093 4.091zM9.937 60.261a1.5 1.5 0 1 1-3 0 1.5 1.5 0 0 1 3 0zM56.726 60.165a1.5 1.5 0 1 1-3 0 1.5 1.5 0 0 1 3 0z" fill="#434a54"/></svg>