<svg xmlns="http://www.w3.org/2000/svg" height="64" width="64"><linearGradient id="a" gradientUnits="userSpaceOnUse" x1="22" x2="22" y1="30" y2="23" gradientTransform="matrix(2 0 0 2 -16 16)"><stop offset="0" stop-color="#82868d"/><stop offset="1" stop-color="#d9dada"/></linearGradient><linearGradient id="b" gradientTransform="matrix(2 0 0 1.95215 -16 17.197)" gradientUnits="userSpaceOnUse" x1="16" x2="16" y1="26" y2="1.412"><stop offset="0" stop-color="#f79f06"/><stop offset=".043" stop-color="#eeab32"/><stop offset=".167" stop-color="#e18f00"/><stop offset=".801" stop-color="#f8c468"/><stop offset="1" stop-color="#ffc35a"/></linearGradient><g transform="matrix(1.14286 0 0 1.14286 13.714 -22.857)"><circle r="7" cy="69" cx="27" fill="url(#a)"/><path d="M16 20c-3.969 0-7 3.094-7 6.953 0 .334.028.718.086 1.047C1.856 30.455.009 37.056 0 44.527 0 54.288-8 62.096-12 66v2h56v-2c-4-3.904-12-11.712-12-21.473-.009-7.47-1.857-14.072-9.086-16.527.058-.329.086-.713.086-1.047C23 23.093 19.969 20 16 20z" fill="url(#b)"/><path d="M-12 66h56v2h-56zM9.094 26c-.043.315-.094.626-.094.953 0 .334.028.718.086 1.047h13.828c.058-.329.086-.713.086-1.047 0-.327-.051-.638-.094-.953z" opacity=".15"/></g></svg>