<svg xmlns="http://www.w3.org/2000/svg" viewBox="0 0 64 64"><defs><radialGradient id="a" cx="16.333" cy="15.167" r="43.668" gradientUnits="userSpaceOnUse" gradientTransform="translate(4.34 4.34) scale(.86436)"><stop stop-color="#6c9ac2"/><stop offset="1" stop-color="#005096"/></radialGradient></defs><path d="M.533.533h62.934v62.934H.533z" fill="#ececed"/><path d="M62.933 1.067v61.866H1.067V1.067h61.866M64 0H0v64h64z" fill="#9b9c9e"/><path d="M8.662 8.662h46.676v46.676H8.662z" fill="url(#a)" transform="matrix(1.23405 0 0 1.23405 -7.49 -7.49)"/><g fill="#ececed"><path d="M13.867 1.067h1.066v61.866h-1.066z"/><path d="M5.333 1.067H6.4v61.866H5.333zM10.667 1.067h1.066v61.866h-1.066zM17.067 1.067h1.066v61.866h-1.066zM22.4 1.067h1.067v61.866H22.4zM28.8 1.067h1.067v61.866H28.8zM34.133 1.067H35.2v61.866h-1.067zM40.533 1.067H41.6v61.866h-1.067zM45.867 1.067h1.066v61.866h-1.066zM52.267 1.067h1.066v61.866h-1.066zM57.6 1.067h1.067v61.866H57.6z" opacity=".25"/><path d="M25.6 1.067h1.067v61.866H25.6zM49.067 1.067h1.066v61.866h-1.066zM37.333 1.067H38.4v61.866h-1.067z"/><path d="M1.067 49.067h61.866v1.066H1.067zM1.067 37.333h61.866V38.4H1.067zM1.067 25.6h61.866v1.067H1.067zM1.067 13.867h61.866v1.066H1.067z"/><path d="M14.4 12.137H16v3.2h-3.2zM26.133 12.137h1.6v3.2h-3.2zM37.867 12.137h1.6v3.2h-3.2zM49.6 12.137h1.6v3.2H48zM14.4 23.87H16v3.2h-3.2zM26.133 23.87h1.6v3.2h-3.2zM37.867 23.87h1.6v3.2h-3.2zM49.6 23.87h1.6v3.2H48zM14.4 35.604H16v3.2h-3.2zM26.133 35.604h1.6v3.2h-3.2zM35.603 37.867h3.864v3.2h-3.2zM47.337 37.867H51.2v3.2H48zM14.4 47.337H16v3.2h-3.2zM26.134 47.337h1.6v3.2h-3.2zM37.867 47.337h1.6v3.2h-3.2zM49.6 47.337h1.6v3.2H48z"/></g></svg>