<svg xmlns="http://www.w3.org/2000/svg" viewBox="0 0 64 64"><path d="M48.533 61.333v-54.4H15.467v54.4H11.2V2.667h41.6v58.666z" fill="#ececed"/><path d="M52.267 3.2v57.6h-3.2V6.4H14.933v54.4h-3.2V3.2h40.534m1.066-1.066H10.667v59.732H16v-54.4h32v54.4h5.333z" fill="#9b9c9e"/><path d="M16.533 8h30.934v53.333H16.533z" fill="#f0f0f0"/><g fill="#646464" transform="translate(-2.133 -1.066) scale(1.06666)"><path d="M46 9v49H18V9h28m1-1H17v51h30z"/><circle r="1" cy="37" cx="43"/><path d="M39.5 32h4c.28 0 .5.22.5.5s-.22.5-.5.5h-4c-.28 0-.5-.22-.5-.5s.22-.5.5-.5"/></g></svg>