<svg xmlns="http://www.w3.org/2000/svg" xmlns:xlink="http://www.w3.org/1999/xlink" width="64" height="64"><defs><linearGradient id="a"><stop stop-color="#63984b"/><stop offset="1" stop-color="#8fc278"/></linearGradient><linearGradient id="b"><stop stop-color="#2a2c2f"/><stop offset="1" stop-color="#424649"/></linearGradient><linearGradient xlink:href="#a" id="e" y1="549.798" y2="497.798" x2="0" gradientUnits="userSpaceOnUse" gradientTransform="translate(0 -29)"/><linearGradient xlink:href="#b" id="i" y1="527.798" y2="518.798" x2="0" gradientUnits="userSpaceOnUse" gradientTransform="matrix(.85714 0 0 .88889 60.653 46.644)"/><linearGradient xlink:href="#b" id="k" y1="527.798" y2="518.798" gradientUnits="userSpaceOnUse" x2="0" gradientTransform="matrix(.85714 0 0 .88889 52.653 46.644)"/><linearGradient xlink:href="#b" id="l" y1="527.798" y2="518.798" gradientUnits="userSpaceOnUse" x2="0" gradientTransform="matrix(.85714 0 0 .88889 44.653 46.644)"/><linearGradient id="c"><stop stop-color="#eef1f2"/><stop offset="1" stop-color="#f9fafb"/></linearGradient><linearGradient xlink:href="#c" id="j" y1="526.798" y2="519.798" x2="0" gradientUnits="userSpaceOnUse" gradientTransform="translate(0 -11)"/><linearGradient xlink:href="#d" id="h" y1="518.798" x1="408.571" y2="527.798" x2="417.571" gradientUnits="userSpaceOnUse" gradientTransform="translate(0 -11)"/><linearGradient id="d"><stop stop-color="#292c2f"/><stop offset="1" stop-opacity="0"/></linearGradient><linearGradient xlink:href="#d" id="f" y1="518.798" x1="408.571" y2="527.798" gradientUnits="userSpaceOnUse" x2="417.571" gradientTransform="translate(8 -11)"/><linearGradient xlink:href="#d" id="g" y1="518.798" x1="408.571" y2="527.798" gradientUnits="userSpaceOnUse" x2="417.571" gradientTransform="translate(16 -11)"/><linearGradient xlink:href="#a" id="m" y1="549.798" y2="497.798" gradientUnits="userSpaceOnUse" x2="0" gradientTransform="translate(0 -7)"/><linearGradient xlink:href="#d" id="n" y1="518.798" x1="408.571" y2="527.798" gradientUnits="userSpaceOnUse" x2="417.571" gradientTransform="translate(8 11)"/><linearGradient xlink:href="#d" id="o" y1="518.798" x1="408.571" y2="527.798" gradientUnits="userSpaceOnUse" x2="417.571" gradientTransform="translate(16 11)"/><linearGradient xlink:href="#d" id="p" y1="518.798" x1="408.571" y2="527.798" gradientUnits="userSpaceOnUse" x2="417.571" gradientTransform="translate(0 11)"/><linearGradient xlink:href="#b" id="q" y1="527.798" y2="518.798" gradientUnits="userSpaceOnUse" x2="0" gradientTransform="matrix(.85714 0 0 .88889 60.653 68.644)"/><linearGradient xlink:href="#c" id="r" y1="526.798" y2="519.798" gradientUnits="userSpaceOnUse" x2="0" gradientTransform="translate(0 11)"/><linearGradient xlink:href="#b" id="s" y1="527.798" y2="518.798" gradientUnits="userSpaceOnUse" x2="0" gradientTransform="matrix(.85714 0 0 .88889 52.653 68.644)"/><linearGradient xlink:href="#b" id="t" y1="527.798" y2="518.798" gradientUnits="userSpaceOnUse" x2="0" gradientTransform="matrix(.85714 0 0 .88889 44.653 68.644)"/></defs><path d="M382.571 504.798v16h52v-16z" fill="url(#e)" transform="matrix(1.23077 0 0 1.23077 -470.857 -612.674)"/><path d="M422.571 507.798l-6 8 5 5h13v-1z" opacity=".2" fill="url(#f)" fill-rule="evenodd" transform="matrix(1.23077 0 0 1.23077 -470.857 -612.674)"/><path d="M430.571 507.798l-6 8 5 5h5v-9z" opacity=".2" fill="url(#g)" fill-rule="evenodd" transform="matrix(1.23077 0 0 1.23077 -470.857 -612.674)"/><path d="M408.571 515.798l6-8 13 13h-15 1z" opacity=".2" fill="url(#h)" fill-rule="evenodd" transform="matrix(1.23077 0 0 1.23077 -470.857 -612.674)"/><path fill="#dce269" d="M0 27.077h64v1.23H0z"/><path fill="url(#i)" d="M424.571 507.798h6v8h-6z" transform="matrix(1.23077 0 0 1.23077 -470.857 -612.674)"/><path d="M60.308 12.308v1.23h1.23v-1.23zm1.23 1.23v1.231h1.231v-1.23zm0 1.231h-1.23V16h1.23zm0 1.231v1.23h1.231V16zm0 1.23h-1.23v1.232h1.23zm0 1.232v1.23h1.231v-1.23zm0 1.23h-1.23v1.231h1.23zm0 1.231v1.23h1.231v-1.23zm0 1.23h-1.23v1.232h1.23zm0 1.232v1.23h1.231v-1.23zm-1.23 0h-1.231v1.23h1.23zm-1.231 1.23h-1.23v1.231h1.23zm-1.23 0v-1.23h-1.232v1.23zm-1.232 0h-1.23v1.231h1.23zm-1.23 0v-1.23h-1.231v1.23z" opacity=".6" fill="#dee372"/><path fill="url(#j)" d="M385.571 508.798h19v7h-19z" transform="matrix(1.23077 0 0 1.23077 -470.857 -612.674)"/><path fill="url(#k)" d="M416.571 507.798h6v8h-6z" transform="matrix(1.23077 0 0 1.23077 -470.857 -612.674)"/><path fill="url(#l)" d="M408.571 507.798h6v8h-6z" transform="matrix(1.23077 0 0 1.23077 -470.857 -612.674)"/><path fill="#f55" d="M4.923 14.77h9.846V16H4.923z"/><path fill="#35383b" d="M4.923 17.23h3.692v1.232H4.923zM9.846 17.23h4.923v1.232H9.846zM9.846 19.692v1.231h-1.23v1.23h12.307v-1.23h-1.23v-1.23h-1.231v1.23H16v-1.23h-1.23v1.23h-1.232v-1.23h-1.23v1.23h-1.231v-1.23z"/><path d="M382.571 526.798v16h52v-16z" fill="url(#m)" transform="matrix(1.23077 0 0 1.23077 -470.857 -612.674)"/><path d="M422.571 529.798l-6 8 5 5h13v-1z" opacity=".2" fill="url(#n)" fill-rule="evenodd" transform="matrix(1.23077 0 0 1.23077 -470.857 -612.674)"/><path d="M430.571 529.798l-6 8 5 5h5v-9z" opacity=".2" fill="url(#o)" fill-rule="evenodd" transform="matrix(1.23077 0 0 1.23077 -470.857 -612.674)"/><path d="M408.571 537.798l6-8 13 13h-15 1z" opacity=".2" fill="url(#p)" fill-rule="evenodd" transform="matrix(1.23077 0 0 1.23077 -470.857 -612.674)"/><path fill="#dce269" d="M0 54.154h64v1.23H0z"/><path fill="url(#q)" d="M424.571 529.798h6v8h-6z" transform="matrix(1.23077 0 0 1.23077 -470.857 -612.674)"/><path d="M60.308 39.385v1.23h1.23v-1.23zm1.23 1.23v1.231h1.231v-1.23zm0 1.231h-1.23v1.23h1.23zm0 1.23v1.232h1.231v-1.231zm0 1.232h-1.23v1.23h1.23zm0 1.23v1.231h1.231v-1.23zm0 1.231h-1.23V48h1.23zm0 1.231v1.23h1.231V48zm0 1.23h-1.23v1.232h1.23zm0 1.232v1.23h1.231v-1.23zm-1.23 0h-1.231v1.23h1.23zm-1.231 1.23h-1.23v1.231h1.23zm-1.23 0v-1.23h-1.232v1.23zm-1.232 0h-1.23v1.231h1.23zm-1.23 0v-1.23h-1.231v1.23z" opacity=".6" fill="#dee372"/><path fill="url(#r)" d="M385.571 530.798h19v7h-19z" transform="matrix(1.23077 0 0 1.23077 -470.857 -612.674)"/><path fill="url(#s)" d="M416.571 529.798h6v8h-6z" transform="matrix(1.23077 0 0 1.23077 -470.857 -612.674)"/><path fill="url(#t)" d="M408.571 529.798h6v8h-6z" transform="matrix(1.23077 0 0 1.23077 -470.857 -612.674)"/><path fill="#f55" d="M4.923 41.846h9.846v1.231H4.923z"/><path fill="#35383b" d="M4.923 44.308h3.692v1.23H4.923zM9.846 44.308h4.923v1.23H9.846zM9.846 46.77V48h-1.23v1.23h12.307V48h-1.23v-1.23h-1.231V48H16v-1.23h-1.23V48h-1.232v-1.23h-1.23V48h-1.231v-1.23z"/></svg>