<svg xmlns="http://www.w3.org/2000/svg" xmlns:xlink="http://www.w3.org/1999/xlink" width="64" height="64"><defs><linearGradient id="a"><stop stop-color="#2a2c2f"/><stop offset="1" stop-color="#424649"/></linearGradient><linearGradient id="o" xlink:href="#a" y1="536.798" y2="503.798" gradientUnits="userSpaceOnUse" x2="0" gradientTransform="matrix(1.08333 0 0 1.0909 -34.048 -49.8)"/><linearGradient id="n" xlink:href="#b" y1="547.798" y2="536.798" gradientUnits="userSpaceOnUse" x2="0" gradientTransform="matrix(1.16667 0 0 1.0909 -68.096 -49.8)"/><linearGradient id="b"><stop stop-color="#c6cdd1"/><stop offset="1" stop-color="#e0e5e7"/></linearGradient><linearGradient id="c"><stop stop-color="#7e8f9e"/><stop offset="1" stop-color="#84ced5"/></linearGradient><linearGradient id="p" xlink:href="#c" y1="541.798" y2="489.798" gradientUnits="userSpaceOnUse" x2="0" gradientTransform="matrix(1.0871 0 0 1.1 -44.37 -47.98)"/><linearGradient id="q" xlink:href="#d" y1="535.798" y2="522.798" x1="394.571" gradientUnits="userSpaceOnUse" x2="404.571" gradientTransform="matrix(1.1 0 0 1.14286 -49.457 -70.685)"/><linearGradient id="d"><stop stop-color="#e4a56d"/><stop offset="1" stop-color="#a7bd78"/></linearGradient><linearGradient id="r" xlink:href="#e" x1="404.571" gradientUnits="userSpaceOnUse" x2="421.571" gradientTransform="matrix(1.07952 0 0 1.14286 -41.173 -70.685)"/><linearGradient id="e"><stop stop-color="#c3a278"/><stop offset="1" stop-color="#68a"/></linearGradient><linearGradient id="s" xlink:href="#f" y1="536.798" y2="524.798" x1="430.571" gradientUnits="userSpaceOnUse" x2="437.5" gradientTransform="matrix(1.1078 0 0 1.14286 -53.449 -70.685)"/><linearGradient id="f"><stop stop-color="#6588af"/><stop offset="1" stop-color="#8ba8cd"/></linearGradient><linearGradient id="t" xlink:href="#g" x1="421.571" gradientUnits="userSpaceOnUse" x2="438.571" gradientTransform="matrix(1.04899 0 0 1.1 -27.651 -47.98)"/><linearGradient id="g"><stop stop-color="#89ad8b"/><stop offset="1" stop-color="#82b3c7"/></linearGradient><linearGradient id="u" xlink:href="#h" y1="525.798" y2="513.798" x1="387.571" gradientUnits="userSpaceOnUse" x2="401.571" gradientTransform="matrix(1.1 0 0 1.27514 -49.457 -137.418)"/><linearGradient id="h"><stop stop-color="#e1b16f"/><stop offset="1" stop-color="#99bf83"/></linearGradient><linearGradient id="v" xlink:href="#i" y1="510.798" y2="498.798" x1="404.571" gradientUnits="userSpaceOnUse" x2="391.571" gradientTransform="matrix(1.1 0 0 1.1 -49.457 -47.98)"/><linearGradient id="i"><stop stop-color="#99c487"/><stop offset="1" stop-color="#b4d99e"/></linearGradient><linearGradient id="w" xlink:href="#j" y1="501.798" y2="501.616" x1="404.571" gradientUnits="userSpaceOnUse" x2="421.571" gradientTransform="matrix(1.11765 0 0 1.1 -56.597 -47.98)"/><linearGradient id="j"><stop stop-color="#75d5c7"/><stop offset="1" stop-color="#66afb9"/></linearGradient><linearGradient id="x" xlink:href="#k" y1="495.798" y2="504.798" x1="428.571" gradientUnits="userSpaceOnUse" x2="438.571" gradientTransform="matrix(1.04899 0 0 1.0625 -27.65 -29.238)"/><linearGradient id="k"><stop stop-color="#5c7b9e"/><stop offset="1" stop-color="#839dc0"/></linearGradient><linearGradient id="y" xlink:href="#l" x1="421.571" gradientUnits="userSpaceOnUse" x2="406.571" gradientTransform="matrix(1.0871 0 0 1.1 -44.37 -47.98)"/><linearGradient id="l"><stop stop-color="#7fbcc6"/><stop offset="1" stop-color="#8ee4e3"/></linearGradient><linearGradient id="z" xlink:href="#m" x1="421.571" gradientUnits="userSpaceOnUse" x2="436.571" gradientTransform="matrix(1.0871 0 0 1.1 -44.37 -47.98)"/><linearGradient id="m"><stop stop-color="#84d5d7"/><stop offset="1" stop-color="#84a8ba"/></linearGradient></defs><path d="M401.571 535.798v12h14v-12z" fill="url(#n)" transform="matrix(1.23077 0 0 1.23077 -470.857 -612.675)"/><path fill="url(#o)" d="M382.571 499.798h52v39.273h-52z" transform="matrix(1.23077 0 0 1.23077 -470.857 -612.675)"/><path d="M384.571 501.798v33h47.833v-33z" fill="url(#p)" transform="matrix(1.23077 0 0 1.23077 -470.857 -612.675)"/><path d="M395.571 518.798l-11 9.41v6.59h11z" fill="url(#q)" fill-rule="evenodd" transform="matrix(1.23077 0 0 1.23077 -470.857 -612.675)"/><path d="M395.571 519.798v15h18.352z" fill="url(#r)" fill-rule="evenodd" transform="matrix(1.23077 0 0 1.23077 -470.857 -612.675)"/><path d="M432.571 518.798l-19 16h19z" fill="url(#s)" fill-rule="evenodd" transform="matrix(1.23077 0 0 1.23077 -470.857 -612.675)"/><path d="M414.571 528.198v-24.4l18 15-18 16z" fill="url(#t)" fill-rule="evenodd" transform="matrix(1.23077 0 0 1.23077 -470.857 -612.675)"/><path d="M384.571 509.798v21l11-11z" fill="url(#u)" fill-rule="evenodd" transform="matrix(1.23077 0 0 1.23077 -470.857 -612.675)"/><path d="M384.571 501.798v8.542l11 9.458v-18z" fill="url(#v)" fill-rule="evenodd" transform="matrix(1.23077 0 0 1.23077 -470.857 -612.675)"/><path d="M395.571 501.798v18l19-16-3-2z" fill="url(#w)" fill-rule="evenodd" transform="matrix(1.23077 0 0 1.23077 -470.857 -612.675)"/><path d="M417.12 501.798l-2.549 2 18 15v-17z" fill="url(#x)" fill-rule="evenodd" transform="matrix(1.23077 0 0 1.23077 -470.857 -612.675)"/><path d="M411.571 501.798l3 2v-2z" fill="url(#y)" fill-rule="evenodd" transform="matrix(1.23077 0 0 1.23077 -470.857 -612.675)"/><path d="M414.571 501.798v2l3-2z" fill="url(#z)" fill-rule="evenodd" transform="matrix(1.23077 0 0 1.23077 -470.857 -612.675)"/><path fill="#99a1a7" d="M17.23 60.308H46.77v1.23H17.23z"/><g transform="matrix(1.23077 0 0 1.23077 -470.857 -612.675)"><path fill="#fff" fill-opacity=".784" d="M384.571 530.798h48v4h-48z"/><circle r="1" cy="532.798" cx="429.571" fill="#4d4d4d"/><path d="M386.571 531.798v1h1v-1zm1 1v1h1v-1z" fill="#4d4d4d"/></g><path fill="#fff" fill-opacity=".784" d="M4.923 7.385h24.615v20.923H4.923z"/><path d="M6.154 8.615v4.923h5.128V9.846H10l-1.282-1.23z" fill="#3580ca"/><path d="M16 8.615v6.154h4.923v-3.692l-2.461-2.462z" fill="#f95"/><path d="M18.462 8.615l2.461 2.462h-2.461z" fill="#d45500" fill-rule="evenodd"/><path d="M6.154 9.846h6.154v4.923H6.154z" fill="#7aabdc"/><path d="M23.385 8.615v6.154h4.923v-3.692l-2.462-2.462z" fill="#71c837"/><path d="M25.846 8.615l2.462 2.462h-2.462z" fill="#447821" fill-rule="evenodd"/></svg>