<svg xmlns="http://www.w3.org/2000/svg" viewBox="0 0 64 64"><g fill="#6bc305" stroke="#569c04"><path d="M32 62.945c-15.822 0-28.695-12.872-28.695-28.694a28.626 28.626 0 0 1 16.88-26.154v9.017a20.799 20.799 0 0 0-9.003 17.137c0 11.478 9.34 20.817 20.818 20.817 11.479 0 20.818-9.339 20.818-20.817 0-6.858-3.36-13.242-9.003-17.137V8.097a28.626 28.626 0 0 1 16.88 26.154c0 15.822-12.873 28.694-28.695 28.694z" stroke-width=".98462"/><path d="M44.378 8.984A28.063 28.063 0 0 1 60.132 34.25c0 15.511-12.62 28.131-28.132 28.131-15.512 0-28.132-12.62-28.132-28.131A28.063 28.063 0 0 1 19.622 8.984v7.837a21.357 21.357 0 0 0-9.002 17.43c0 11.79 9.59 21.38 21.38 21.38s21.38-9.59 21.38-21.38a21.359 21.359 0 0 0-9.002-17.43V8.984m-1.125-1.745v10.172c5.427 3.633 9.002 9.818 9.002 16.84 0 11.186-9.069 20.254-20.255 20.254-11.186 0-20.255-9.068-20.255-20.254 0-7.022 3.575-13.207 9.002-16.84V7.239C10.175 11.65 2.743 22.081 2.743 34.251c0 16.157 13.1 29.257 29.257 29.257 16.158 0 29.257-13.1 29.257-29.257 0-12.17-7.432-22.603-18.004-27.012z" stroke-width=".98462"/><path d="M28.062 1.055h7.876v25.881h-7.876z" stroke-width=".98462"/><path d="M35.376 1.618v24.756h-6.752V1.618h6.752M36.5.492H27.5V27.5H36.5z" stroke-width=".98462"/></g></svg>