<svg xmlns="http://www.w3.org/2000/svg" viewBox="0 0 64 64"><path d="M15.152 18.573l-.09.158c.112.135.218.27.338.398.391.407.805.798 1.188 1.211 3.13 3.324 5.288 7.243 6.905 11.462 2.459 6.415 3.625 13.109 4.136 19.923.218 2.903.24 5.828.353 8.739 0 .09.03.18.038.263h6.084v-.36c-.03-3.754-.263-7.484-.812-11.2-.594-4.015-1.52-7.941-2.925-11.754-1.888-5.122-4.498-9.815-8.25-13.816-1.61-1.715-3.378-3.234-5.438-4.37-.482-.263-1.016-.436-1.527-.654m22.547 42.162h6.303v-.655c.052-3.346.33-6.678.985-9.965.827-4.159 2.136-8.145 4.22-11.845.804-1.429 1.729-2.79 2.586-4.197.136-.233.188-.519.279-.774-.286.052-.594.052-.85.173-1.316.631-2.407 1.572-3.43 2.58-3.79 3.715-6.475 8.122-8.182 13.138a34.872 34.872 0 0 0-1.715 8.168c-.113 1.105-.135 2.226-.196 3.377m-11.74.014c-.045-.902-.075-1.752-.135-2.61-.188-2.797-.782-5.52-1.707-8.16-1.707-4.858-4.445-9.055-8.1-12.665-1.369-1.353-2.843-2.587-4.528-3.542-.459-.263-.925-.534-1.542-.466.873 1.406 2.054 2.58 2.926 3.963.88 1.4 1.79 2.79 2.542 4.265a37.016 37.016 0 0 1 1.933 4.572 38.784 38.784 0 0 1 1.316 4.784c.346 1.617.58 3.264.752 4.91.173 1.64.21 3.295.309 4.95h6.234m9.996-14.253c.022-.105.045-.24.067-.368.451-2.858 1.083-5.663 2.046-8.4 1.61-4.574 3.933-8.672 7.686-11.854.075-.06.113-.158.173-.24l-.068-.113c-.42.12-.85.195-1.248.353-2.166.843-3.896 2.294-5.423 3.994-1.835 2.046-3.15 4.422-4.316 6.896-.58 1.234-.918 2.43-.256 3.73.014.024.008.053.014.083.444 1.978.888 3.949 1.324 5.92"/><path d="M15.115 18.54c.512.219 1.046.392 1.527.662 2.068 1.144 3.836 2.663 5.438 4.37 3.752 4.001 6.362 8.702 8.25 13.816 1.406 3.813 2.331 7.739 2.925 11.755.55 3.715.783 7.445.813 11.198v.361h-6.085c-.015-.075-.037-.165-.037-.263-.113-2.918-.136-5.836-.354-8.74-.511-6.813-1.677-13.514-4.136-19.922-1.625-4.227-3.776-8.145-6.904-11.462-.391-.413-.797-.804-1.189-1.21-.12-.128-.225-.264-.338-.399a.71.71 0 0 1 .09-.165z" fill="#6bc305" stroke="#2aaa00" stroke-width=".1879098" stroke-miterlimit="10"/><path d="M37.663 60.702c.06-1.15.082-2.271.18-3.377.256-2.79.812-5.512 1.715-8.167 1.707-5.017 4.392-9.424 8.183-13.14 1.03-1.007 2.113-1.954 3.43-2.579.255-.12.563-.12.849-.173-.09.264-.135.55-.278.775-.85 1.406-1.783 2.768-2.587 4.197-2.084 3.707-3.392 7.693-4.22 11.845-.654 3.286-.932 6.618-.985 9.965v.654h-6.287z" fill="#569c04" stroke="#2aaa00" stroke-width=".1879098" stroke-miterlimit="10"/><path d="M25.923 60.717h-6.228c-.097-1.654-.135-3.309-.308-4.948-.173-1.647-.406-3.295-.752-4.911a40.156 40.156 0 0 0-1.316-4.784 36.364 36.364 0 0 0-1.933-4.572c-.745-1.474-1.655-2.866-2.542-4.265-.872-1.391-2.053-2.557-2.926-3.963.617-.068 1.083.203 1.542.466 1.685.955 3.159 2.189 4.528 3.542 3.655 3.61 6.392 7.815 8.1 12.665.932 2.648 1.519 5.363 1.707 8.16.045.858.075 1.715.128 2.61z" fill="#4b8903" stroke="#2aaa00" stroke-width=".1879098" stroke-miterlimit="10"/><path d="M35.918 46.465c-.444-1.97-.88-3.94-1.324-5.919-.007-.03-.007-.06-.015-.082-.662-1.294-.316-2.497.256-3.73 1.166-2.475 2.482-4.844 4.317-6.897 1.527-1.707 3.256-3.159 5.422-3.994.4-.158.835-.24 1.249-.353l.068.113c-.06.082-.098.18-.173.24-3.753 3.182-6.077 7.28-7.687 11.853-.962 2.73-1.594 5.543-2.045 8.4a8.697 8.697 0 0 1-.068.37z" fill="#407503" stroke="#009949" stroke-width=".1879098" stroke-miterlimit="10"/><g><path d="M21.722 15.748h-.152c-.153 0-.23 0-.306-.076h-.076c-1.756-.306-3.206-2.062-3.359-3.97v-.61c.076-.306.153-.688.23-1.07.152-.229.304-.534.457-.84l.534-.763c1.222-1.45 2.214-2.9 2.901-4.428.764 1.832 1.985 3.436 2.978 4.657.076.152.229.382.458.61.153.306.382.688.61.993.077.23.153.611.23.916V12.082c-.23 1.68-1.604 3.283-3.283 3.588h-.076c-.077 0-.153.076-.306.076h-.84" fill="#1e82ff"/><path d="M22.091 4.945c.764 1.603 1.833 2.901 2.672 3.97.153.229.306.382.382.534.23.306.382.611.534.993.077.229.153.534.153.763v.763c-.153 1.527-1.45 2.978-2.977 3.283h-.153H21.175c-1.603-.305-2.9-1.909-2.977-3.588v-.534l.229-.917c.153-.305.305-.534.458-.763l.534-.763c1.07-1.222 1.985-2.443 2.672-3.741m.077-1.756c-.84 1.832-1.985 3.512-3.283 5.115l-.61.763-.459.916c-.152.382-.229.764-.305 1.146v.61c.076 1.985 1.68 3.97 3.664 4.275.153.152.382.152.535.152h.687c.152 0 .381 0 .61-.076 1.833-.305 3.36-2.06 3.589-3.893.076-.076 0-.23.076-.382v-.61c-.076-.382-.153-.688-.23-1.07-.152-.381-.38-.763-.61-1.144-.153-.152-.305-.382-.458-.611-1.221-1.45-2.29-3.054-2.977-4.81l-.23-.381z" fill="#1271d8"/><path d="M10.271 24.336h-.152c-.153 0-.23 0-.306-.076h-.076c-1.756-.305-3.206-2.061-3.36-3.97v-.61c.077-.306.154-.688.23-1.07.153-.228.305-.534.458-.84l.534-.762c1.222-1.451 2.214-2.901 2.901-4.428.764 1.832 1.985 3.435 2.978 4.657.076.152.229.381.458.61.152.306.381.687.61.993.077.229.153.61.23.916V20.67c-.23 1.68-1.604 3.283-3.283 3.588h-.077c-.076 0-.152.076-.305.076H10.271" fill="#1e82ff"/><path d="M10.634 13.54c.763 1.603 1.832 2.901 2.672 3.97.152.229.305.381.382.534.229.305.381.61.534.993.076.229.153.534.153.763v.763c-.153 1.527-1.45 2.977-2.978 3.283h-.152H9.718c-1.603-.306-2.901-1.909-2.978-3.588V19.8l.23-.916c.152-.306.305-.535.458-.764l.534-.763c1.069-1.298 1.985-2.52 2.672-3.817m.076-1.756c-.84 1.832-1.985 3.511-3.282 5.115l-.611.763-.458.916c-.153.382-.23.764-.306 1.145v.611c.077 1.985 1.68 3.97 3.665 4.275.152.076.381.076.61.076h.688c.152 0 .381 0 .61-.076 1.832-.305 3.36-2.061 3.588-3.893.077-.076 0-.23.077-.382V19.8c-.077-.382-.153-.687-.23-1.07-.152-.38-.381-.763-.61-1.144-.153-.152-.305-.382-.458-.611-1.222-1.45-2.29-3.054-2.977-4.81z" fill="#1271d8"/><path d="M21.722 32.924h-.152c-.153 0-.23 0-.306-.076h-.076c-1.756-.305-3.206-2.06-3.359-3.97v-.61c.076-.306.153-.687.23-1.069.152-.229.304-.534.457-.84l.534-.763c1.222-1.45 2.214-2.901 2.901-4.428.764 1.832 1.985 3.435 2.978 4.657.076.152.229.382.458.61.153.306.382.688.61.993.077.23.153.61.23.916V29.26c-.23 1.68-1.604 3.283-3.283 3.588h-.076c-.077 0-.153.076-.306.076h-.84" fill="#1e82ff"/><path d="M22.091 22.122c.764 1.603 1.833 2.901 2.672 3.97.153.229.306.381.382.534.23.306.382.61.534.993.077.229.153.534.153.763v.763c-.153 1.527-1.45 2.977-2.977 3.283h-.153H21.175c-1.603-.306-2.9-1.909-2.977-3.588v-.535l.229-.916c.153-.305.305-.534.458-.763l.534-.764c1.07-1.221 1.985-2.443 2.672-3.74m.077-1.756c-.84 1.832-1.985 3.512-3.283 5.115l-.61.763-.459.916c-.152.382-.229.764-.305 1.145v.611c.076 1.985 1.68 3.97 3.664 4.275.153.152.382.152.535.152h.687c.152 0 .381 0 .61-.076 1.833-.305 3.36-2.061 3.589-3.893.076-.076 0-.23.076-.382v-.61c-.076-.382-.153-.688-.23-1.07-.152-.381-.38-.763-.61-1.145-.153-.152-.305-.381-.458-.61-1.221-1.45-2.29-3.054-2.977-4.81l-.23-.382z" fill="#1271d8"/><path d="M32.077 23.578h-.124c-.123 0-.185 0-.247-.062h-.062c-1.422-.247-2.597-1.67-2.72-3.215v-.495c.061-.247.123-.556.185-.866.123-.185.247-.432.37-.68l.434-.618c.989-1.175 1.793-2.35 2.35-3.587.618 1.484 1.607 2.783 2.411 3.772.062.124.186.31.371.495.124.247.31.557.495.804.062.185.123.495.185.742v.742c-.185 1.36-1.298 2.659-2.659 2.906h-.062c-.061 0-.123.062-.247.062h-.68" fill="#1e82ff"/><path d="M32.376 14.828c.618 1.299 1.484 2.35 2.164 3.216.124.185.247.31.31.433.185.247.308.494.432.803.062.186.124.433.124.619V20.517c-.124 1.237-1.175 2.412-2.412 2.66h-.124-1.236c-1.299-.248-2.35-1.547-2.412-2.907v-.433l.186-.742c.123-.247.247-.433.37-.618l.434-.619c.865-.989 1.607-1.978 2.164-3.03m.062-1.422c-.68 1.484-1.608 2.845-2.66 4.143l-.494.619-.371.742c-.124.309-.186.618-.247.927v.495c.061 1.608 1.36 3.215 2.968 3.463.123.123.309.123.433.123h.556c.124 0 .31 0 .495-.061 1.484-.248 2.72-1.67 2.906-3.154.062-.062 0-.186.062-.31V19.9c-.062-.31-.124-.557-.186-.866-.123-.309-.309-.618-.494-.927-.124-.124-.248-.31-.371-.495-.99-1.175-1.855-2.473-2.412-3.896l-.185-.309z" fill="#1271d8"/><g><path d="M43.956 18.026h-.152c-.153 0-.23 0-.306-.076h-.076c-1.756-.306-3.206-2.061-3.359-3.97v-.61c.076-.306.153-.688.23-1.07.152-.228.304-.534.457-.84l.535-.763c1.221-1.45 2.213-2.9 2.9-4.427.764 1.832 1.985 3.435 2.978 4.656.076.152.229.382.458.611.153.305.382.687.61.993.077.229.153.61.23.916V14.36c-.23 1.68-1.604 3.282-3.283 3.588h-.076c-.077 0-.153.076-.306.076h-.84" fill="#1e82ff"/><path d="M44.32 7.23c.763 1.603 1.831 2.9 2.671 3.97.153.229.305.381.382.534.229.305.381.61.534.992.076.23.153.535.153.764v.763c-.153 1.527-1.45 2.977-2.977 3.283h-.153H43.403c-1.603-.306-2.901-1.909-2.977-3.588v-.459l.229-.916c.152-.305.305-.534.458-.763l.534-.763c1.069-1.298 1.985-2.52 2.672-3.818m.076-1.755c-.84 1.832-1.984 3.511-3.282 5.115l-.611.763-.458.916c-.153.382-.229.763-.305 1.145v.61c.076 1.986 1.68 3.97 3.664 4.276.153.076.382.076.61.076h.688c.152 0 .382 0 .61-.076 1.833-.305 3.36-2.061 3.589-3.893.076-.076 0-.23.076-.382v-.535c-.076-.381-.153-.687-.23-1.068-.152-.382-.38-.764-.61-1.145-.153-.152-.305-.382-.458-.611-1.221-1.45-2.29-3.054-2.977-4.81z" fill="#1271d8"/></g><g><path d="M50.736 32.46h-.152c-.153 0-.23 0-.306-.075h-.076c-1.756-.306-3.206-2.062-3.359-3.97v-.611c.076-.305.153-.687.229-1.069.153-.229.305-.534.458-.84l.534-.763c1.222-1.45 2.214-2.9 2.901-4.428.764 1.832 1.985 3.436 2.978 4.657.076.152.229.382.458.61.152.306.382.688.61.993.077.23.153.611.23.916V28.795c-.23 1.68-1.604 3.283-3.283 3.588h-.076c-.077 0-.153.076-.306.076H50.736" fill="#1e82ff"/><path d="M51.099 21.665c.763 1.603 1.832 2.9 2.672 3.97.153.228.305.381.382.534.229.305.381.61.534.992.076.23.153.535.153.764v.763c-.153 1.526-1.45 2.977-2.978 3.282h-.152H50.183c-1.603-.305-2.901-1.908-2.977-3.588v-.458l.229-.916c.152-.305.305-.534.458-.763l.534-.764c1.069-1.298 1.985-2.519 2.672-3.817m.076-1.756c-.84 1.833-1.984 3.512-3.282 5.115l-.611.764-.458.916c-.153.381-.23.763-.305 1.145v.61c.076 1.985 1.68 3.97 3.664 4.276.153.076.382.076.61.076h.688c.152 0 .381 0 .61-.076 1.833-.306 3.36-2.061 3.589-3.894.076-.076 0-.229.076-.381v-.535c-.076-.381-.153-.687-.23-1.069-.152-.381-.38-.763-.61-1.145-.153-.152-.305-.381-.458-.61-1.221-1.45-2.29-3.054-2.977-4.81z" fill="#1271d8"/></g><g><path d="M39.247 31.275h-.124c-.124 0-.185 0-.247-.062h-.062c-1.422-.247-2.597-1.67-2.72-3.215v-.495c.061-.247.123-.557.185-.866.123-.185.247-.433.37-.68l.434-.618c.989-1.175 1.793-2.35 2.35-3.587.618 1.484 1.607 2.783 2.41 3.772.063.124.186.31.372.495.124.247.31.556.495.804.061.185.123.494.185.742V28.307c-.185 1.36-1.298 2.659-2.659 2.906h-.062c-.061 0-.123.062-.247.062h-.68" fill="#1e82ff"/><path d="M39.546 22.525c.618 1.299 1.484 2.35 2.164 3.216.124.185.247.309.31.432.185.248.308.495.432.804.062.186.124.433.124.619V28.214c-.124 1.237-1.175 2.412-2.412 2.659h-.124-1.236c-1.299-.247-2.35-1.546-2.412-2.906v-.433l.186-.742c.123-.247.247-.433.37-.619l.433-.618c.866-.99 1.608-1.979 2.165-3.03m.062-1.422c-.68 1.484-1.608 2.844-2.66 4.143l-.494.618-.371.742c-.124.31-.186.619-.247.928v.495c.061 1.607 1.36 3.215 2.968 3.462.123.124.309.124.433.124h.556c.124 0 .31 0 .495-.062 1.484-.247 2.72-1.67 2.906-3.153.062-.062 0-.186.062-.31v-.494c-.062-.31-.124-.557-.186-.866-.123-.31-.309-.618-.494-.928-.124-.123-.248-.309-.371-.494-.99-1.175-1.855-2.474-2.412-3.896l-.185-.31z" fill="#1271d8"/></g></g><g><path d="M2.696 29.696l-.045.08c.056.067.109.135.17.199.195.203.401.398.593.605 1.565 1.662 2.644 3.621 3.452 5.73 1.23 3.209 1.813 6.555 2.069 9.962.109 1.452.12 2.915.176 4.37 0 .045.015.09.02.131h3.041v-.18c-.015-1.877-.131-3.742-.406-5.6-.297-2.007-.76-3.97-1.463-5.877-.944-2.56-2.248-4.907-4.125-6.908-.805-.857-1.688-1.617-2.719-2.185-.24-.131-.507-.218-.763-.327M13.97 50.777h3.151v-.327c.026-1.673.165-3.34.493-4.983.413-2.079 1.068-4.072 2.11-5.922.402-.715.864-1.395 1.293-2.098.067-.117.094-.26.139-.388-.143.027-.297.027-.425.087-.658.316-1.203.786-1.715 1.29-1.895 1.857-3.237 4.06-4.091 6.569a17.436 17.436 0 0 0-.857 4.084c-.057.553-.068 1.113-.098 1.688m-5.87.008c-.023-.452-.038-.877-.068-1.305a15.439 15.439 0 0 0-.854-4.08c-.853-2.43-2.222-4.528-4.05-6.333-.684-.677-1.421-1.293-2.263-1.771-.23-.132-.463-.267-.771-.233.436.703 1.026 1.29 1.463 1.982.44.699.895 1.395 1.27 2.132.373.737.696 1.504.967 2.286.27.778.489 1.583.658 2.392.173.808.29 1.632.376 2.455.087.82.105 1.647.154 2.475H8.1m4.997-7.126c.012-.053.023-.12.034-.185.226-1.429.542-2.831 1.023-4.2.805-2.286 1.967-4.336 3.843-5.926.038-.03.057-.08.087-.12l-.034-.057c-.21.06-.425.098-.624.176-1.083.422-1.948 1.147-2.712 1.997-.917 1.023-1.575 2.211-2.158 3.449-.29.616-.459 1.214-.128 1.865.007.011.004.026.007.041.222.99.444 1.974.662 2.96"/><path d="M2.678 29.68c.255.11.522.196.763.331 1.034.572 1.918 1.331 2.719 2.185 1.876 2 3.181 4.35 4.125 6.908.703 1.906 1.166 3.87 1.463 5.877.274 1.858.39 3.723.406 5.6v.18H9.112c-.008-.038-.019-.083-.019-.132-.056-1.459-.068-2.918-.177-4.37-.255-3.406-.838-6.757-2.068-9.96-.812-2.114-1.888-4.073-3.452-5.731-.196-.207-.399-.403-.594-.606-.06-.064-.113-.131-.17-.2a.355.355 0 0 1 .046-.082z" fill="#6bc305" stroke="#2aaa00" stroke-width=".0939549" stroke-miterlimit="10"/><path d="M13.951 50.761c.03-.575.042-1.136.09-1.688.129-1.396.407-2.757.858-4.084.854-2.508 2.196-4.712 4.091-6.57.516-.504 1.057-.977 1.715-1.29.128-.06.282-.06.425-.086-.045.132-.068.275-.14.387-.424.704-.89 1.384-1.293 2.099-1.041 1.854-1.696 3.847-2.11 5.922-.326 1.644-.466 3.31-.492 4.983v.327h-3.144z" fill="#569c04" stroke="#2aaa00" stroke-width=".0939549" stroke-miterlimit="10"/><path d="M8.081 50.769H4.968c-.05-.828-.068-1.655-.154-2.475a23.452 23.452 0 0 0-.376-2.455 20.078 20.078 0 0 0-.659-2.392c-.27-.778-.59-1.55-.966-2.286-.372-.737-.827-1.433-1.27-2.133-.437-.695-1.028-1.278-1.464-1.981.309-.034.542.101.771.233.842.477 1.58 1.094 2.264 1.771 1.827 1.805 3.196 3.907 4.05 6.333.466 1.323.76 2.68.853 4.08.023.428.038.857.064 1.305z" fill="#4b8903" stroke="#2aaa00" stroke-width=".0939549" stroke-miterlimit="10"/><path d="M13.079 43.643c-.222-.986-.44-1.97-.662-2.96-.004-.015-.004-.03-.007-.041-.331-.647-.158-1.249.128-1.865.582-1.238 1.24-2.422 2.158-3.449.763-.853 1.628-1.58 2.711-1.997.2-.079.418-.12.625-.176.01.019.022.037.033.056-.03.042-.049.09-.086.12-1.877 1.591-3.039 3.64-3.843 5.927-.482 1.365-.797 2.771-1.023 4.2a4.348 4.348 0 0 1-.034.185z" fill="#407503" stroke="#009949" stroke-width=".0939549" stroke-miterlimit="10"/></g><g><path d="M45.495 28.73l-.045.078c.057.068.11.136.17.2.195.203.402.398.594.605 1.564 1.662 2.643 3.621 3.452 5.731 1.23 3.208 1.812 6.554 2.068 9.961.109 1.452.12 2.915.177 4.37 0 .045.015.09.019.132h3.042v-.18c-.015-1.877-.132-3.743-.406-5.6-.298-2.008-.76-3.971-1.463-5.878-.944-2.56-2.249-4.907-4.125-6.908-.805-.857-1.689-1.617-2.72-2.184-.24-.132-.507-.219-.763-.328M56.77 49.81h3.151v-.327c.027-1.673.166-3.34.493-4.982.414-2.08 1.068-4.073 2.11-5.923.402-.715.864-1.395 1.293-2.098.068-.117.094-.26.14-.388-.144.027-.298.027-.426.087-.658.316-1.203.786-1.714 1.29-1.896 1.857-3.238 4.06-4.092 6.57a17.436 17.436 0 0 0-.857 4.083c-.056.553-.068 1.113-.098 1.688m-5.87.008c-.022-.452-.037-.877-.068-1.305a15.439 15.439 0 0 0-.853-4.08c-.854-2.43-2.223-4.528-4.05-6.333-.684-.677-1.422-1.293-2.264-1.77-.23-.133-.462-.268-.77-.234.435.703 1.026 1.29 1.462 1.982.44.7.895 1.395 1.271 2.132.372.737.696 1.504.966 2.286.271.779.49 1.583.659 2.392.173.808.29 1.632.376 2.455.086.82.105 1.647.154 2.475h3.117m4.998-7.126c.011-.053.022-.12.034-.185.225-1.429.541-2.831 1.022-4.2.805-2.286 1.967-4.336 3.844-5.926.037-.03.056-.08.086-.12l-.034-.057c-.21.06-.425.098-.624.177-1.083.42-1.948 1.147-2.711 1.996-.918 1.023-1.576 2.212-2.159 3.449-.29.616-.459 1.214-.128 1.865.008.011.004.026.008.041.222.99.443 1.974.662 2.96"/><path d="M45.477 28.713c.256.11.523.196.763.331 1.035.572 1.918 1.331 2.72 2.185 1.876 2 3.18 4.35 4.124 6.908.704 1.906 1.166 3.87 1.463 5.877.275 1.858.391 3.723.406 5.6v.18h-3.042c-.007-.037-.019-.083-.019-.131-.056-1.46-.067-2.919-.176-4.37-.256-3.407-.839-6.758-2.069-9.961-.812-2.114-1.887-4.073-3.452-5.731-.195-.207-.398-.403-.594-.606-.06-.064-.113-.131-.169-.199a.355.355 0 0 1 .045-.083z" fill="#6bc305" stroke="#2aaa00" stroke-width=".0939549" stroke-miterlimit="10"/><path d="M56.75 49.794c.03-.575.042-1.136.091-1.688.128-1.395.406-2.757.857-4.084.854-2.508 2.197-4.712 4.092-6.57.515-.503 1.056-.977 1.715-1.29.127-.06.282-.06.424-.086-.045.132-.067.275-.139.387-.425.704-.89 1.384-1.293 2.099-1.042 1.854-1.696 3.847-2.11 5.922-.327 1.644-.466 3.31-.492 4.983v.327H56.75z" fill="#569c04" stroke="#2aaa00" stroke-width=".0939549" stroke-miterlimit="10"/><path d="M50.88 49.802h-3.113c-.049-.828-.067-1.655-.154-2.475a23.452 23.452 0 0 0-.376-2.455 20.078 20.078 0 0 0-.658-2.392c-.27-.778-.59-1.55-.967-2.286-.372-.737-.827-1.433-1.27-2.132-.437-.696-1.027-1.279-1.463-1.982.308-.034.541.101.77.233.843.478 1.58 1.094 2.264 1.771 1.828 1.805 3.197 3.907 4.05 6.333.467 1.323.76 2.68.854 4.08.022.428.038.857.064 1.305z" fill="#4b8903" stroke="#2aaa00" stroke-width=".0939549" stroke-miterlimit="10"/><path d="M55.878 42.676l-.661-2.96c-.004-.015-.004-.03-.008-.041-.33-.647-.158-1.249.128-1.865.583-1.237 1.24-2.422 2.158-3.449.764-.853 1.629-1.579 2.712-1.996.199-.08.417-.12.624-.177l.034.056c-.03.042-.05.09-.087.12-1.876 1.591-3.038 3.64-3.843 5.927-.481 1.365-.797 2.771-1.023 4.2a4.348 4.348 0 0 1-.034.185z" fill="#407503" stroke="#009949" stroke-width=".0939549" stroke-miterlimit="10"/></g></svg>