<svg xmlns="http://www.w3.org/2000/svg" viewBox="0 0 64 64"><defs><linearGradient id="a" y1="44" y2="4" x2="0" gradientUnits="userSpaceOnUse" gradientTransform="matrix(1.56098 0 0 1.6 -6.244 -6.4)"><stop stop-color="#7cbaf8"/><stop offset="1" stop-color="#f4fcff"/></linearGradient><linearGradient id="b" y1="39" y2="9" x2="0" gradientUnits="userSpaceOnUse" gradientTransform="matrix(1.60557 0 0 1.92 -14.539 -14.08)"><stop stop-color="#3660bf"/><stop offset="1" stop-color="#209ffa"/></linearGradient></defs><g fill="#9b9c9e"><path d="M26.56 51.042H11.937c-.766 0-1.393-.49-1.393-1.089 0-.598.627-1.088 1.393-1.088H26.56c.766 0 1.392.49 1.392 1.088 0 .599-.626 1.089-1.392 1.089M26.56 54.306H11.937c-.766 0-1.393-.49-1.393-1.088 0-.599.627-1.088 1.393-1.088H26.56c.766 0 1.392.49 1.392 1.088 0 .598-.626 1.088-1.392 1.088M26.309 57.57H12.188c-.906 0-1.644-.577-1.644-1.284 0-.49.516-.892 1.142-.892h15.11c.627 0 1.142.402 1.142.892.014.707-.724 1.284-1.63 1.284M19.248 61.922c3.078 0 5.57-1.458 5.57-3.264h-11.14c0 1.806 2.493 3.264 5.57 3.264"/></g><path d="M38.497 19.03c0-9.368-8.614-16.952-19.249-16.952C8.614 2.078 0 9.662 0 19.03c0 2.97.866 5.756 2.382 8.172.926 1.62 1.588 2.785 2.009 3.514.866 1.523 1.371 2.405 1.997 3.721.265.555.662 1.393 1.035 2.35 1.48 3.798 2.045 7.421 2.045 7.421s.276 1.894 1.395 2.818c.313.262.626.414.782.48a3.47 3.47 0 0 0 1.336.271h12.523a3.51 3.51 0 0 0 1.335-.272c.157-.065.47-.217.782-.479 1.119-.924 1.396-2.818 1.396-2.818s.565-3.623 2.045-7.42c.373-.958.77-1.796 1.034-2.35.626-1.317 1.131-2.199 1.997-3.722.422-.74 1.083-1.893 2.01-3.514 1.527-2.427 2.394-5.212 2.394-8.172" fill="#dae1e4"/><g color="#000" fill-rule="evenodd"><path d="M62.439 32A31.22 32 0 1 1 0 32a31.22 32 0 1 1 62.439 0" fill="url(#a)" transform="matrix(.45167 0 0 .44062 35.798 33.722)"/><path d="M31.22 3.2C15.702 3.2 3.122 16.096 3.122 32c0 15.906 12.581 28.8 28.098 28.8S59.317 47.904 59.317 32c0-15.906-12.581-28.8-28.097-28.8m-3.122 9.6h6.243v6.4h-6.243zm0 12.8h6.243v25.6h-6.243V32z" fill="url(#b)" transform="matrix(.45167 0 0 .44062 35.798 33.722)"/></g></svg>