<svg xmlns="http://www.w3.org/2000/svg" viewBox="0 0 64 64"><path d="M.533 1.794h62.934v61.665H.533z" fill="#fff"/><path d="M62.933 2.335v60.583H1.067V2.335h61.866M64 1.253H0V64h64z" fill="#7f7f7f"/><path d="M.262 1.253h64.005v15.146H.262z" fill="#d72a2a"/><g fill="#c8c8c8"><path d="M37.333 20.043h6.4v6.49h-6.4zM45.867 20.043h6.4v6.49h-6.4zM54.4 20.043h6.4v6.49h-6.4zM3.2 28.698h6.4v6.49H3.2zM11.733 28.698h6.4v6.49h-6.4zM20.267 28.698h6.4v6.49h-6.4zM28.8 28.698h6.4v6.49h-6.4zM37.333 28.698h6.4v6.49h-6.4zM45.867 28.698h6.4v6.49h-6.4zM54.4 28.698h6.4v6.49h-6.4zM3.2 37.352h6.4v6.491H3.2zM11.733 37.352h6.4v6.491h-6.4zM20.267 37.352h6.4v6.491h-6.4zM28.8 37.352h6.4v6.491h-6.4zM37.333 37.352h6.4v6.491h-6.4zM45.867 37.352h6.4v6.491h-6.4zM54.4 37.352h6.4v6.491h-6.4zM3.2 46.007h6.4v6.491H3.2zM11.733 46.007h6.4v6.491h-6.4zM20.267 46.007h6.4v6.491h-6.4zM28.8 46.007h6.4v6.491h-6.4zM37.333 46.007h6.4v6.491h-6.4zM45.867 46.007h6.4v6.491h-6.4zM54.4 46.007h6.4v6.491h-6.4zM3.2 54.662h6.4v6.491H3.2zM11.733 54.662h6.4v6.491h-6.4zM20.267 54.662h6.4v6.491h-6.4zM28.8 54.662h6.4v6.491h-6.4zM37.333 54.662h6.4v6.491h-6.4zM45.867 54.662h6.4v6.491h-6.4z"/></g><path d="M1.067 15.573h61.866v1.082H1.067z" fill="#e6e6e6"/><path d="M63.195 2.335v12.982H1.067V2.335h62.128m1.072-1.082H-.005v15.146h64.272z" fill="#d6001a"/></svg>