<svg xmlns="http://www.w3.org/2000/svg" viewBox="0 0 64 64"><path d="M29.638 64a1.922 1.922 0 0 1-1.92-1.92l-.011-3.002c-.012-1.64-1.245-3.305-2.816-3.794l-4.165-1.687c-.453-.244-1.07-.396-1.722-.396-1.105 0-2.175.42-2.873 1.13L14 56.47c-.36.361-.849.57-1.36.57-.512 0-.99-.197-1.35-.558l-3.572-3.526a1.939 1.939 0 0 1-.011-2.723l2.117-2.14c1.152-1.141 1.443-3.247.663-4.679l-1.722-4.13c-.477-1.513-2.14-2.735-3.78-2.735l-3.014.011a1.924 1.924 0 0 1-1.931-1.92l-.035-5.003c0-1.06.849-1.932 1.92-1.932l3.013-.011c1.64-.012 3.304-1.246 3.792-2.816l1.687-4.166c.757-1.397.442-3.445-.733-4.608l-2.129-2.118a1.93 1.93 0 0 1-.57-1.362c0-.512.198-1 .559-1.361l3.525-3.56c.36-.361.85-.57 1.361-.57.512 0 .989.197 1.35.558l2.152 2.117c.698.687 1.757 1.106 2.85 1.106a3.87 3.87 0 0 0 1.815-.43l4.13-1.723c1.525-.477 2.746-2.153 2.735-3.805l-.012-3.002c0-1.059.86-1.932 1.92-1.932L34.385 0c1.07 0 1.931.861 1.931 1.92l.012 3.002c.012 1.618 1.268 3.317 2.815 3.794l4.142 1.687c.466.244 1.082.396 1.722.396 1.105 0 2.187-.42 2.885-1.13l2.13-2.14c.36-.361.849-.57 1.36-.57.513 0 .99.197 1.35.558l3.572 3.526c.756.745.756 1.966.012 2.723l-2.13 2.14c-1.151 1.176-1.442 3.224-.663 4.667l1.722 4.131c.477 1.513 2.153 2.735 3.782 2.735l3.013-.012c1.07 0 1.931.861 1.931 1.908l.023 5.016a1.93 1.93 0 0 1-1.92 1.932l-3 .01c-1.618.012-3.317 1.27-3.794 2.817l-1.687 4.154c-.733 1.385-.419 3.48.733 4.608l2.153 2.118c.756.745.756 1.966.011 2.723l-3.537 3.56c-.36.361-.849.57-1.36.57-.513 0-.99-.197-1.35-.558l-2.141-2.118c-.698-.686-1.769-1.094-2.85-1.094-.664 0-1.292.152-1.815.443l-4.142 1.722c-1.524.489-2.746 2.164-2.734 3.805l.011 3.002a1.93 1.93 0 0 1-1.92 1.932L29.639 64m2.315-45.114c-7.224.035-13.077 5.946-13.053 13.172.035 7.191 5.91 13.045 13.112 13.045 7.294-.035 13.146-5.947 13.112-13.173-.035-7.191-5.91-13.044-13.1-13.044h-.07" fill="#8b96ac"/><path d="M34.313 0v1.142c.72 0 1.314.595 1.326 1.314l.011 2.948c.012 1.84 1.371 3.69 3.119 4.25l4.033 1.633c.571.297 1.257.446 1.953.446 1.246 0 2.457-.48 3.234-1.28l2.09-2.102a1.324 1.324 0 0 1 1.862-.011L55.45 11.8c.514.515.514 1.349.011 1.863l-2.09 2.102c-1.28 1.302-1.623 3.576-.777 5.198l1.679 4.021c.583 1.737 2.433 3.085 4.284 3.085l2.96-.011c.719 0 1.313.582 1.313 1.313l.011 4.936c0 .354-.137.685-.388.937a1.307 1.307 0 0 1-.925.388l-2.948.011c-1.828.012-3.69 1.371-4.25 3.12l-1.634 4.032c-.834 1.634-.468 3.907.834 5.198l2.103 2.08a1.33 1.33 0 0 1 .011 1.873l-3.473 3.496a1.313 1.313 0 0 1-.937.388c-.354 0-.685-.137-.925-.377l-2.102-2.09c-.789-.777-1.988-1.245-3.2-1.245-.719 0-1.416.16-1.999.468l-4.02 1.68c-1.737.582-3.086 2.444-3.074 4.272l.011 2.948c0 .342-.137.674-.388.925a1.307 1.307 0 0 1-.926.388l-4.935.035c-.72 0-1.314-.583-1.325-1.314l-.012-2.948c-.011-1.828-1.37-3.69-3.118-4.25l-4.045-1.633a4.245 4.245 0 0 0-1.953-.457c-1.234 0-2.445.48-3.233 1.268l-2.091 2.102a1.324 1.324 0 0 1-1.862.011L8.54 52.153a1.341 1.341 0 0 1-.012-1.874l2.08-2.102c1.302-1.302 1.645-3.576.788-5.21l-1.68-4.02c-.57-1.737-2.433-3.086-4.272-3.086l-2.96.012c-.719 0-1.313-.594-1.313-1.314l-.023-4.89c0-.73.583-1.313 1.314-1.325l2.959-.011c1.828-.012 3.679-1.371 4.25-3.12l1.634-4.032c.834-1.634.48-3.907-.834-5.198l-2.103-2.09a1.287 1.287 0 0 1-.388-.926c0-.354.137-.686.377-.937l3.462-3.496c.251-.251.57-.388.925-.388.354 0 .674.137.925.377l2.114 2.079c.788.777 1.988 1.245 3.199 1.245.72 0 1.405-.16 2-.468l4.02-1.668c1.737-.571 3.085-2.445 3.074-4.284l-.012-2.948c0-.354.137-.674.389-.937.251-.251.582-.388.925-.388l4.935-.012V0m-2.307 45.424h.068c7.415-.034 13.413-6.09 13.378-13.504-.034-7.38-6.066-13.378-13.435-13.378h-.068a13.357 13.357 0 0 0-9.494 3.976 13.38 13.38 0 0 0-3.896 9.528c.034 7.38 6.066 13.378 13.447 13.378M34.313 0h-.011l-4.924.023a2.477 2.477 0 0 0-2.445 2.479l.012 2.947c.011 1.36-1.04 2.8-2.33 3.2L20.5 10.361c-.445.24-.97.354-1.508.354-.89 0-1.793-.32-2.399-.914l-2.113-2.079a2.478 2.478 0 0 0-1.726-.708c-.628 0-1.268.24-1.747.73l-3.462 3.497c-.96.96-.948 2.525.011 3.484l2.091 2.08c.96.948 1.234 2.707.594 3.907l-1.668 4.135c-.4 1.291-1.828 2.354-3.176 2.365l-2.959.012C1.102 27.213-.006 28.32.006 29.68l.023 4.924c.011 1.348 1.12 2.456 2.456 2.456h.011l2.96-.011h.01c1.349 0 2.788 1.05 3.188 2.33l1.714 4.113c.65 1.188.4 2.959-.56 3.919l-2.08 2.102a2.479 2.479 0 0 0 .012 3.484l3.496 3.462c.48.468 1.097.708 1.725.708.628 0 1.268-.24 1.748-.72l2.09-2.102c.595-.605 1.52-.937 2.423-.937.525 0 1.04.115 1.473.343l4.136 1.68c1.291.4 2.354 1.828 2.365 3.176l.011 2.947A2.475 2.475 0 0 0 29.675 64h.012l4.923-.023a2.477 2.477 0 0 0 2.457-2.468l-.012-2.947c-.011-1.348 1.051-2.788 2.33-3.199L43.5 53.65c.445-.24.97-.365 1.508-.365.89 0 1.805.32 2.399.914l2.102 2.09c.48.469 1.108.709 1.725.709.628 0 1.268-.24 1.748-.72l3.473-3.496a2.479 2.479 0 0 0-.011-3.484l-2.114-2.08c-.96-.948-1.222-2.707-.594-3.907l1.68-4.124c.4-1.291 1.839-2.353 3.187-2.365l2.947-.011a2.46 2.46 0 0 0 2.445-2.468l-.023-4.924a2.465 2.465 0 0 0-2.456-2.445h-.011l-2.948.012h-.011c-1.348 0-2.788-1.051-3.188-2.33l-1.713-4.114c-.64-1.188-.389-2.947.56-3.907l2.09-2.102c.948-.96.948-2.536-.011-3.485l-3.508-3.461a2.478 2.478 0 0 0-1.725-.708c-.628 0-1.268.24-1.748.73l-2.09 2.103c-.594.605-1.52.937-2.422.937-.526 0-1.04-.115-1.474-.343l-4.124-1.668c-1.291-.389-2.354-1.828-2.365-3.176l-.012-2.948C36.77 1.108 35.662 0 34.313 0m-2.307 44.281c-6.775 0-12.27-5.46-12.304-12.235-.035-6.798 5.449-12.327 12.247-12.362h.057c6.763 0 12.27 5.473 12.292 12.236.035 6.798-5.449 12.327-12.235 12.361h-.057" fill="#676b72"/></svg>