<svg xmlns="http://www.w3.org/2000/svg" viewBox="0 0 64 64"><g fill="#9b9c9e"><path d="M23.67 48.97H10.638c-.682 0-1.24-.436-1.24-.97 0-.533.558-.97 1.24-.97H23.67c.683 0 1.241.437 1.241.97 0 .534-.558.97-1.24.97M23.67 51.88H10.638c-.682 0-1.24-.437-1.24-.97 0-.534.558-.97 1.24-.97H23.67c.683 0 1.241.436 1.241.97 0 .533-.558.97-1.24.97M23.447 54.788H10.862c-.807 0-1.465-.514-1.465-1.144 0-.436.46-.795 1.018-.795H23.88c.559 0 1.018.359 1.018.795.012.63-.645 1.144-1.452 1.144M17.154 58.667c2.743 0 4.965-1.3 4.965-2.909h-9.93c0 1.61 2.222 2.91 4.965 2.91"/></g><path d="M34.308 20.441c0-8.35-7.676-15.108-17.154-15.108C7.677 5.333 0 12.092 0 20.44c0 2.647.772 5.13 2.123 7.283.825 1.444 1.415 2.482 1.79 3.132.772 1.357 1.223 2.143 1.78 3.316.236.495.59 1.241.922 2.095a35.669 35.669 0 0 1 1.823 6.613s.246 1.688 1.243 2.512c.28.233.558.368.697.426.483.204.922.243 1.19.243H22.73c.258 0 .708-.039 1.19-.243.14-.058.419-.193.697-.426.997-.824 1.244-2.512 1.244-2.512s.504-3.229 1.823-6.613c.332-.854.686-1.6.922-2.095.557-1.173 1.008-1.959 1.78-3.316.375-.66.964-1.688 1.79-3.132 1.362-2.163 2.133-4.645 2.133-7.283" fill="#dae1e4"/><g fill="#9b9c9e"><path d="M41.828 38.196a8.494 8.494 0 0 0 2.23-5.746 8.494 8.494 0 0 0-2.23-5.746l2.366-2.366c2.095 2.23 3.244 5.07 3.244 8.112s-1.149 5.948-3.244 8.112l-2.366-2.366"/><path d="M47.1 32.45c0 2.839-1.014 5.543-2.906 7.638L42.3 38.196c1.352-1.623 2.095-3.583 2.095-5.746 0-2.163-.743-4.124-2.095-5.746l1.893-1.893c1.892 2.096 2.906 4.8 2.906 7.639m.676 0c0-3.11-1.216-6.22-3.582-8.585l-2.84 2.839a8.138 8.138 0 0 1 2.366 5.746c0 2.095-.81 4.123-2.365 5.746l2.839 2.839a12.139 12.139 0 0 0 3.582-8.585z"/><path d="M47.574 43.941c2.974-3.11 4.596-7.165 4.596-11.491 0-4.327-1.622-8.382-4.596-11.492l2.366-2.366c3.582 3.718 5.61 8.653 5.61 13.858s-1.96 10.14-5.61 13.857l-2.366-2.366"/><path d="M55.212 32.45c0 5.002-1.893 9.734-5.272 13.384l-1.893-1.893a16.916 16.916 0 0 0 4.461-11.491c0-4.259-1.554-8.315-4.461-11.492l1.893-1.893c3.38 3.65 5.272 8.382 5.272 13.385m.676 0c0-5.205-1.96-10.41-5.948-14.331l-2.84 2.839c3.178 3.177 4.732 7.3 4.732 11.492 0 4.123-1.554 8.314-4.732 11.491l2.84 2.84c3.988-3.921 5.948-9.126 5.948-14.331z"/><path d="M53.32 49.687c4.461-4.664 6.962-10.748 6.962-17.237 0-6.49-2.501-12.574-6.963-17.238l2.366-2.366c5.138 5.273 7.977 12.235 7.977 19.604 0 7.368-2.84 14.33-7.977 19.603l-2.366-2.366"/><path d="M63.324 32.45c0 7.165-2.704 13.925-7.639 19.13l-1.892-1.893c4.394-4.732 6.827-10.815 6.827-17.237 0-6.422-2.433-12.506-6.827-17.17l1.892-1.893c4.935 5.137 7.639 11.897 7.639 19.063m.676 0c0-7.3-2.772-14.534-8.315-20.077l-2.839 2.84c4.732 4.731 7.098 10.95 7.098 17.237 0 6.286-2.366 12.438-7.098 17.237l2.84 2.84A28.362 28.362 0 0 0 64 32.45z"/></g></svg>