<svg xmlns="http://www.w3.org/2000/svg" xmlns:xlink="http://www.w3.org/1999/xlink" width="64" height="64"><defs><linearGradient id="a"><stop offset="0" stop-color="#1966d6"/><stop offset="1" stop-color="#66a0f1"/></linearGradient><linearGradient id="b"><stop offset="0" stop-color="#4e90f0"/><stop offset="1" stop-color="#86b3f5"/></linearGradient><linearGradient id="c"><stop offset="0" stop-color="#91baf5"/><stop offset="1" stop-color="#a2c5f6"/></linearGradient><linearGradient xlink:href="#a" id="d" gradientUnits="userSpaceOnUse" x1="-273.463" y1="2.236" x2="-258.333" y2="-91.802"/><linearGradient xlink:href="#b" id="e" gradientUnits="userSpaceOnUse" x1="-274.935" y1="-3.751" x2="-256.67" y2="-65.649"/><linearGradient xlink:href="#c" id="f" gradientUnits="userSpaceOnUse" x1="-275.898" y1="-6.593" x2="-264.635" y2="-40.738"/><linearGradient xlink:href="#a" id="g" gradientUnits="userSpaceOnUse" x1="-254.77" y1="9.282" x2="-239.37" y2="-44.842"/><linearGradient xlink:href="#b" id="h" x1="-253.792" y1="7.393" x2="-239.011" y2="-22.599" gradientUnits="userSpaceOnUse"/><linearGradient xlink:href="#c" id="i" x1="-252.974" y1="5.604" x2="-243.076" y2="-9.852" gradientUnits="userSpaceOnUse"/></defs><path d="M28.774 63.32a31.503 31.504 0 0 0 6.453.01l.748-4.883a26.778 26.778 0 0 0 5.809-1.553l3.08 3.845a31.503 31.504 0 0 0 5.59-3.235l-1.787-4.585a26.778 26.778 0 0 0 4.268-4.245l4.557 1.775a31.503 31.504 0 0 0 3.23-5.597l-3.816-3.058a26.778 26.778 0 0 0 .96-2.864 26.778 26.778 0 0 0 .58-2.956l4.874-.748a31.503 31.504 0 0 0 .01-6.454l-4.883-.748a26.778 26.778 0 0 0-1.552-5.808l3.845-3.081a31.503 31.504 0 0 0-3.235-5.59l-4.586 1.787a26.778 26.778 0 0 0-4.245-4.268l1.776-4.556a31.503 31.504 0 0 0-5.598-3.23l-3.055 3.816a26.778 26.778 0 0 0-2.867-.96 26.778 26.778 0 0 0-2.955-.581L35.229.679A31.503 31.504 0 0 0 28.775.67l-.75 4.883a26.778 26.778 0 0 0-5.808 1.553L19.136 3.26a31.503 31.504 0 0 0-5.59 3.235l1.787 4.586a26.778 26.778 0 0 0-4.268 4.245L6.508 13.55a31.503 31.504 0 0 0-3.23 5.597l3.815 3.058a26.778 26.778 0 0 0-.958 2.864 26.778 26.778 0 0 0-.582 2.956l-4.874.748a31.503 31.504 0 0 0-.009 6.454l4.883.748a26.778 26.778 0 0 0 1.552 5.808L3.26 44.864a31.503 31.504 0 0 0 3.235 5.59l4.586-1.787a26.778 26.778 0 0 0 4.245 4.268l-1.775 4.557a31.503 31.504 0 0 0 5.597 3.23l3.057-3.816a26.778 26.778 0 0 0 2.865.959 26.778 26.778 0 0 0 2.956.582zm-2.482-10.019A22.052 22.052 0 0 1 10.7 26.293a22.052 22.052 0 0 1 27.008-15.594 22.052 22.052 0 0 1 15.594 27.009A22.052 22.052 0 0 1 26.292 53.3" color="#000" opacity=".98" fill="#4c73cc" stroke="#28478c" stroke-width="1.018" stroke-linejoin="round"/><g fill-rule="evenodd" stroke="#000" stroke-width=".079"><path d="M-258.333-91.802c-.656 3.448-1.311 6.894-2.599 10.767-1.287 3.873-3.205 8.17-5.042 11.378-1.838 3.207-3.593 5.324-5.667 7.64-2.074 2.318-4.464 4.833-6.54 7.264-2.077 2.43-3.839 4.773-4.953 6.41-1.115 1.638-1.582 2.566-2.183 3.833-.601 1.266-1.336 2.87-1.99 4.793-.654 1.923-1.226 4.165-1.617 5.865-.392 1.701-.604 2.859-.723 4.226a37.04 37.04 0 0 0-.091 4.405c.054 1.46.188 2.805.707 4.575.519 1.77 1.422 3.967 2.403 5.848.982 1.88 2.04 3.445 4.247 6.232 2.208 2.786 5.563 6.794 8.918 10.802m0 0c-.023-1.573-.045-3.072.025-4.839.07-1.766.25-3.835.576-5.156.327-1.32 1.112-3.1 1.823-4.355.712-1.254 1.478-2.275 2.854-3.632 1.377-1.357 3.364-3.05 5.038-4.515 1.674-1.465 3.036-2.701 4.67-4.31 1.635-1.61 3.543-3.591 5.073-5.562 1.53-1.97 2.684-3.928 3.874-6.075 1.19-2.146 2.416-4.48 3.326-6.823a36.902 36.902 0 0 0 1.86-6.66c.356-1.968.477-3.552.477-5.347 0-1.795-.12-3.8-.455-5.756-.336-1.955-.888-3.862-1.492-5.677a60.694 60.694 0 0 0-2.064-5.364c-.804-1.827-1.753-3.756-3.52-7.102-1.768-3.345-4.351-8.105-6.935-12.865" fill="url(#d)" transform="matrix(.32983 0 0 .32983 117.78 45.606)"/><path d="M-256.67-65.65c-1.174 2.105-2.279 4.084-3.783 6.09-1.504 2.006-3.303 3.823-4.92 5.274-1.616 1.45-3.777 3.194-6.478 5.041-2.701 1.848-5.363 3.427-7.594 5.357-2.23 1.93-4.166 4.41-5.46 7.012-1.293 2.601-2.027 5.432-2.37 7.782-.344 2.349-.297 4.216.215 6.45.513 2.233 1.49 4.833 3.588 8.043 2.098 3.21 5.318 7.03 8.537 10.85m0 0c.17-2.696.323-5.12.94-7.648.618-2.528 1.615-4.513 2.934-6.055 1.318-1.542 3.59-3.37 5.495-5.06 1.904-1.691 3.195-3.008 4.741-4.926 1.546-1.918 3.367-4.484 4.575-7.036 1.209-2.553 1.788-5.018 2.158-7.31.37-2.293.52-4.35.525-6.65.005-2.299-.136-4.84-.677-7.752-.542-2.911-1.484-6.186-2.426-9.461" fill="url(#e)" transform="matrix(.32983 0 0 .32983 117.78 45.606)"/><path d="M-264.635-40.738c-1.133 1.362-2.266 2.722-3.602 3.974-1.336 1.252-2.875 2.393-4.575 3.666-1.7 1.273-3.56 2.676-4.95 3.991-1.392 1.315-2.314 2.541-2.91 3.78-.596 1.239-.866 2.49-.896 3.974-.03 1.485.182 3.2.735 5.01.554 1.81 1.45 3.713 2.33 5.353.88 1.64 1.742 3.02 2.605 4.397m0 0c.067-2.342.135-4.684.473-6.502.338-1.819.947-3.112 1.666-4.283.719-1.172 1.548-2.22 2.69-3.505 1.14-1.286 2.595-2.808 3.72-4.224 1.124-1.417 1.92-2.727 2.46-4.097.541-1.37.829-2.8.977-4.16.148-1.362.156-2.656.013-3.873-.144-1.218-.44-2.36-.736-3.5" fill="url(#f)" transform="matrix(.32983 0 0 .32983 117.78 45.606)"/><path d="M-239.37-44.842c-.012 1.036-.024 1.963-.117 3.109a23.92 23.92 0 0 1-.434 3.034c-.184.856-.442 1.74-.826 2.82-.383 1.081-.826 2.181-1.322 3.139-.497.958-1.057 1.777-1.656 2.573a24.07 24.07 0 0 1-2.023 2.374 39.269 39.269 0 0 1-2.82 2.603c-1.014.853-2.043 1.64-3.002 2.388a84.875 84.875 0 0 0-2.71 2.185c-.855.726-1.67 1.463-2.442 2.398-.772.934-1.5 2.067-2.05 3.06-.551.993-.925 1.847-1.32 2.845-.396.998-.813 2.14-1.065 3.427a15.718 15.718 0 0 0-.232 4.164 17.52 17.52 0 0 0 .879 4.26c.462 1.364 1.079 2.637 1.655 3.7a29.354 29.354 0 0 0 1.786 2.893 118.77 118.77 0 0 0 2.299 3.152m0 0c1.092-.468 2.237-.958 3.26-1.437a52.786 52.786 0 0 0 3.047-1.55 32.55 32.55 0 0 0 2.718-1.644 43.212 43.212 0 0 0 3.108-2.325 32.735 32.735 0 0 0 2.39-2.207 34.332 34.332 0 0 0 1.755-1.87 37.908 37.908 0 0 0 1.956-2.474 33.52 33.52 0 0 0 1.828-2.78c.505-.873.863-1.633 1.272-2.52.41-.887.869-1.9 1.238-2.91.369-1.009.647-2.013.854-2.881.207-.868.341-1.599.501-2.586.16-.988.345-2.23.419-3.451.073-1.22.035-2.418-.013-3.369a26.582 26.582 0 0 0-.249-2.656 42.152 42.152 0 0 0-.599-3.285c-.23-.987-.462-1.664-.803-2.596a62.375 62.375 0 0 0-1.21-3.09 19.202 19.202 0 0 0-1.283-2.5 32.282 32.282 0 0 0-1.562-2.3 25.885 25.885 0 0 0-1.51-1.874c-.53-.595-1.124-1.207-1.717-1.82" fill="url(#g)" transform="matrix(.32983 0 0 .32983 117.78 45.606)"/><path d="M-239.011-22.6c-.249.624-.477 1.196-.862 1.803-.384.607-.898 1.162-1.436 1.668-.538.505-1.56 1.39-2.742 2.215s-2.665 1.718-4.034 2.667a40.873 40.873 0 0 0-3.505 2.727c-.877.768-1.4 1.319-1.9 1.93-.501.611-.975 1.275-1.386 1.99a9.307 9.307 0 0 0-.992 2.377c-.227.893-.331 1.911-.38 2.787-.049.875-.042 1.608.032 2.375.074.768.216 1.569.423 2.355.207.787.479 1.559.823 2.406.345.847.761 1.77 1.178 2.693m0 0c.84-.498 1.634-.968 2.53-1.537a77.894 77.894 0 0 0 2.639-1.759c.764-.531 2.009-1.42 2.918-2.113.909-.694 1.685-1.338 2.46-2.12.777-.784 1.553-1.706 2.21-2.524.656-.818 1.192-1.531 1.759-2.468a23.985 23.985 0 0 0 1.585-3.12c.42-1.025.662-1.912.815-2.94.152-1.026.215-2.192.2-3.167a14.529 14.529 0 0 0-.23-2.406c-.117-.647-.259-1.159-.4-1.67a23.156 23.156 0 0 0-.687-1.947 41.08 41.08 0 0 0-1.018-2.221" fill="url(#h)" transform="matrix(.32983 0 0 .32983 117.78 45.606)"/><path d="M-243.076-9.852c-.242.373-.483.744-.74 1.077a6.37 6.37 0 0 1-.975 1.003c-.445.38-1.063.847-1.627 1.21-.563.36-1.07.614-1.597.877-.526.263-1.07.536-1.477.745-.407.21-.674.355-1.033.63a8.588 8.588 0 0 0-1.186 1.112 6.215 6.215 0 0 0-.911 1.367c-.23.473-.383.956-.49 1.465a9.933 9.933 0 0 0-.196 1.696 18.16 18.16 0 0 0 .046 2.163c.061.733.174 1.422.288 2.11m0 0c.623-.473 1.199-.91 1.805-1.339.605-.429 1.164-.79 1.61-1.083.448-.293 1.163-.77 1.796-1.204.633-.433 1.297-.899 1.836-1.348a8.94 8.94 0 0 0 1.28-1.288 7.44 7.44 0 0 0 .777-1.197c.218-.41.419-.847.578-1.356.16-.51.278-1.088.345-1.539.067-.451.083-.776.095-1.339.012-.563.02-1.36-.019-2.027-.038-.667-.121-1.201-.205-1.735" fill="url(#i)" transform="matrix(.32983 0 0 .32983 117.78 45.606)"/></g></svg>