<?xml version="1.0" encoding="UTF-8" standalone="no"?>
<!-- Created with Inkscape (http://www.inkscape.org/) -->

<svg
   xmlns:dc="http://purl.org/dc/elements/1.1/"
   xmlns:cc="http://creativecommons.org/ns#"
   xmlns:rdf="http://www.w3.org/1999/02/22-rdf-syntax-ns#"
   xmlns:svg="http://www.w3.org/2000/svg"
   xmlns="http://www.w3.org/2000/svg"
   xmlns:sodipodi="http://sodipodi.sourceforge.net/DTD/sodipodi-0.dtd"
   xmlns:inkscape="http://www.inkscape.org/namespaces/inkscape"
   width="64"
   height="64"
   viewBox="0 0 16.933333 16.933334"
   version="1.1"
   id="svg8"
   inkscape:version="0.92.2 5c3e80d, 2017-08-06"
   sodipodi:docname="mower.svg">
  <defs
     id="defs2" />
  <sodipodi:namedview
     id="base"
     pagecolor="#ffffff"
     bordercolor="#666666"
     borderopacity="1.0"
     inkscape:pageopacity="0.0"
     inkscape:pageshadow="2"
     inkscape:zoom="7.9195959"
     inkscape:cx="46.902665"
     inkscape:cy="25.257421"
     inkscape:document-units="mm"
     inkscape:current-layer="g880"
     showgrid="false"
     units="px"
     inkscape:window-width="1920"
     inkscape:window-height="1013"
     inkscape:window-x="0"
     inkscape:window-y="0"
     inkscape:window-maximized="1" />
  <metadata
     id="metadata5">
    <rdf:RDF>
      <cc:Work
         rdf:about="">
        <dc:format>image/svg+xml</dc:format>
        <dc:type
           rdf:resource="http://purl.org/dc/dcmitype/StillImage" />
        <dc:title></dc:title>
      </cc:Work>
    </rdf:RDF>
  </metadata>
  <g
     inkscape:label="Ebene 1"
     inkscape:groupmode="layer"
     id="layer1"
     transform="translate(0,-280.06665)">
    <g
       id="g880"
       transform="matrix(0.15993361,0,0,0.15993361,44.371108,279.23813)">
      <g
         id="g953"
         transform="matrix(0.99922497,0,0,1.1018613,-0.17373173,-5.9200985)">
        <path
           id="path947"
           d="m -196.89647,80.107728 c -0.35886,-0.114923 -0.4763,-0.228842 -0.26098,-0.25314 0.21531,-0.02432 -0.1793,-0.219498 -0.87689,-0.433759 -1.83075,-0.562289 -3.61012,-2.416089 -4.24516,-4.422726 l -0.48909,-1.545449 -3.73834,-0.07256 c -2.08665,-0.04046 -3.70098,-0.176928 -3.65378,-0.308815 0.24669,-0.689222 3.29767,-3.779028 4.0363,-4.087645 0.6985,-0.291851 3.89533,-0.359212 17.04907,-0.359212 10.61892,0 16.18936,-0.08979 16.18936,-0.260986 0,-0.143533 0.11745,-0.260976 0.26098,-0.260976 0.33782,0 0.33782,3.913986 0,4.436716 -0.16865,0.260986 -0.25432,0.282734 -0.25699,0.06527 -0.002,-0.197317 -0.21025,-0.119964 -0.52596,0.195742 -0.49756,0.497566 -0.86995,0.521963 -7.96559,0.521963 h -7.44363 l -0.27239,0.717704 c -0.87106,2.295171 -1.75786,3.625246 -2.95828,4.437022 -0.69011,0.466672 -1.62295,0.95521 -2.07299,1.085639 -0.45004,0.130439 -0.64211,0.25945 -0.42678,0.286702 0.4439,0.05622 -0.70418,0.467459 -1.30492,0.467459 -0.21532,0 -0.68508,-0.09402 -1.04394,-0.208954 z"
           style="fill:#cfcfcf;fill-opacity:1;stroke:#000000;stroke-width:1.62872195;stroke-miterlimit:4;stroke-dasharray:none;stroke-opacity:1"
           inkscape:connector-curvature="0" />
        <path
           id="path945"
           d="m -256.9227,79.846752 0.65246,-0.208955 -0.74528,-0.02599 c -1.4125,-0.04932 -3.95821,-0.842148 -6.17078,-1.92186 -1.76889,-0.863197 -2.67224,-1.534452 -4.45854,-3.313026 -1.85844,-1.850394 -2.44875,-2.652895 -3.46403,-4.709172 -1.59268,-3.225679 -2.08615,-5.563794 -1.91738,-9.08472 0.0709,-1.480215 0.18625,-2.748552 0.25623,-2.818531 0.0699,-0.07 0.90944,0.0089 1.86545,0.175461 l 1.73822,0.3027 -0.16574,2.124356 c -0.336,4.306819 1.09646,8.161626 4.18768,11.269172 2.92823,2.943693 6.14732,4.295841 10.22719,4.295841 3.01181,0 5.1839,-0.650786 8.34195,-2.499359 l 0.82153,-0.480879 1.18997,1.294377 1.18997,1.294377 -0.70658,0.596914 c -1.73533,1.466018 -6.63609,3.403838 -8.78665,3.474349 -0.77391,0.0254 -0.77736,0.03111 -0.14091,0.234975 0.41899,0.13418 -0.28143,0.208945 -1.95737,0.208945 -1.67595,0 -2.37637,-0.07473 -1.95739,-0.208945 z"
           style="fill:#cfcfcf;fill-opacity:1;stroke:#000000;stroke-width:1.62872195;stroke-miterlimit:4;stroke-dasharray:none;stroke-opacity:1"
           inkscape:connector-curvature="0" />
        <path
           id="path943"
           d="m -240.21464,72.981197 c -0.70288,-0.24104 -2.01692,-1.610221 -5.80935,-6.05313 -6.92656,-8.114644 -7.94452,-9.211782 -9.08832,-9.795307 -0.68496,-0.349445 -3.66136,-0.937705 -9.17635,-1.813632 -4.4894,-0.713038 -8.60857,-1.42327 -9.15373,-1.578292 -1.20971,-0.344011 -1.82008,-1.25985 -2.27813,-3.418301 -0.1829,-0.861848 -0.41601,-1.431934 -0.51803,-1.266869 -0.29199,0.472451 -0.51696,-0.755215 -0.25664,-1.400518 0.12465,-0.30901 0.23407,-0.467156 0.24318,-0.351436 0.009,0.115719 1.25998,-1.645918 2.77974,-3.914754 2.952,-4.407 4.81249,-6.449954 6.13928,-6.741365 0.51679,-0.113509 0.70579,-0.253541 0.50756,-0.376055 -0.50977,-0.315057 1.23411,-0.45151 3.37815,-0.264329 1.38591,0.120995 1.65259,0.19233 0.91344,0.244331 -0.57416,0.0404 0.83515,0.23008 3.13181,0.421525 6.6973,0.558273 16.03867,1.854355 18.13836,2.51663 0.53464,0.168638 1.51531,0.918659 2.36484,1.808661 l 1.4514,1.520547 5.59515,0.796962 c 21.52969,3.06664 40.86803,7.359522 48.13547,10.685504 3.53168,1.616285 7.72124,5.850358 9.75648,9.860137 l 0.56299,1.109179 h -16.00842 c -17.2692,0 -17.48235,0.01526 -19.49596,1.393026 -0.50239,0.343765 -1.97625,1.844517 -3.27526,3.33501 -1.29901,1.490493 -2.76705,2.915339 -3.2623,3.166312 -0.81808,0.414572 -1.95103,0.455006 -12.38373,0.44199 -8.18172,-0.01024 -11.74444,-0.103886 -12.39163,-0.325826 z"
           style="fill:#4c7871;fill-opacity:1;stroke:#000000;stroke-width:1.62872195;stroke-miterlimit:4;stroke-dasharray:none;stroke-opacity:1"
           inkscape:connector-curvature="0" />
        <path
           id="path882"
           d="m -257.62102,70.352087 c -2.41148,-0.788196 -4.60961,-2.792756 -5.71257,-5.209504 -0.5484,-1.201646 -0.6984,-1.936028 -0.70827,-3.467664 -0.007,-1.068735 0.1099,-2.065581 0.25952,-2.215198 0.38578,-0.385784 6.1262,0.507638 7.11145,1.106806 0.42134,0.256241 2.24111,2.190063 4.04391,4.297387 2.43766,2.849416 3.20818,3.915424 3.00612,4.158895 -1.06101,1.278438 -5.76463,2.059969 -8.00016,1.329278 z"
           style="fill:#cfcfcf;fill-opacity:1;stroke:#000000;stroke-width:1.62872195;stroke-miterlimit:4;stroke-dasharray:none;stroke-opacity:1"
           inkscape:connector-curvature="0" />
      </g>
    </g>
  </g>
</svg>
