<?xml version="1.0" encoding="UTF-8" standalone="no"?>
<svg
   xmlns:dc="http://purl.org/dc/elements/1.1/"
   xmlns:cc="http://creativecommons.org/ns#"
   xmlns:rdf="http://www.w3.org/1999/02/22-rdf-syntax-ns#"
   xmlns:svg="http://www.w3.org/2000/svg"
   xmlns="http://www.w3.org/2000/svg"
   xmlns:sodipodi="http://sodipodi.sourceforge.net/DTD/sodipodi-0.dtd"
   xmlns:inkscape="http://www.inkscape.org/namespaces/inkscape"
   version="1.1"
   id="Layer_1"
   x="0px"
   y="0px"
   viewBox="0 0 64 64"
   xml:space="preserve"
   sodipodi:docname="roomba-eco.svg"
   width="64"
   height="64"
   inkscape:version="0.92.2 5c3e80d, 2017-08-06"><metadata
     id="metadata24"><rdf:RDF><cc:Work
         rdf:about=""><dc:format>image/svg+xml</dc:format><dc:type
           rdf:resource="http://purl.org/dc/dcmitype/StillImage" /><dc:title /></cc:Work></rdf:RDF></metadata><defs
     id="defs22" /><sodipodi:namedview
     pagecolor="#ffffff"
     bordercolor="#666666"
     borderopacity="1"
     objecttolerance="10"
     gridtolerance="10"
     guidetolerance="10"
     inkscape:pageopacity="0"
     inkscape:pageshadow="2"
     inkscape:window-width="1920"
     inkscape:window-height="1013"
     id="namedview20"
     showgrid="false"
     inkscape:zoom="10.40625"
     inkscape:cx="12.444133"
     inkscape:cy="29.341833"
     inkscape:window-x="0"
     inkscape:window-y="0"
     inkscape:window-maximized="1"
     inkscape:current-layer="Layer_1" /><g
     transform="translate(-2.0601362e-6)"
     id="g965"><circle
       r="30.158281"
       cy="32"
       cx="32.032223"
       id="path829-3"
       style="opacity:1;fill:#443f2f;fill-opacity:1;stroke:#9b9c9e;stroke-width:3.61899996;stroke-linecap:square;stroke-linejoin:round;stroke-miterlimit:10;stroke-dasharray:none;stroke-opacity:1" /><path
       id="rect865-5-6"
       d="M 3.7449406,30.214664 6.715649e-8,32.298764 3.7449406,34.382866 3.768733,34.369613 v -4.141718 z"
       style="opacity:1;fill:#000000;fill-opacity:1;stroke:none;stroke-width:1.47256267;stroke-linecap:square;stroke-linejoin:round;stroke-miterlimit:10;stroke-dasharray:none;stroke-opacity:1"
       inkscape:connector-curvature="0" /><path
       id="rect865-5-3-7"
       d="m 60.355936,34.382865 3.630834,-2.084101 -3.630833,-2.0841 -0.02302,0.01328 -1e-6,4.141716 z"
       style="opacity:1;fill:#000000;fill-opacity:1;stroke:none;stroke-width:1.44995499;stroke-linecap:square;stroke-linejoin:round;stroke-miterlimit:10;stroke-dasharray:none;stroke-opacity:1"
       inkscape:connector-curvature="0" /><circle
       r="1.8095"
       cy="1.8421516"
       cx="32"
       id="path824"
       style="opacity:1;fill:#000000;fill-opacity:1;stroke:none;stroke-width:1.94910145;stroke-linecap:square;stroke-linejoin:round;stroke-miterlimit:10;stroke-dasharray:none;stroke-opacity:1" /><path
       inkscape:connector-curvature="0"
       id="rect839"
       d="m 31.999023,3.7506432 a 30.158281,30.158281 0 0 0 -13.085938,3.015625 c -0.449525,0.886679 -0.707031,1.887343 -0.707031,2.953125 V 31.463534 c 0,3.613867 2.909571,6.523438 6.523438,6.523438 h 14.541015 c 3.613867,0 6.523438,-2.909571 6.523438,-6.523438 V 9.7193932 c 0,-1.058832 -0.255173,-2.053126 -0.699219,-2.935547 A 30.158281,30.158281 0 0 0 31.999023,3.7506432 Z"
       style="opacity:1;fill:#1d211c;fill-opacity:1;stroke:none;stroke-width:3.61899996;stroke-linecap:square;stroke-linejoin:round;stroke-miterlimit:10;stroke-dasharray:none;stroke-opacity:1" /><rect
       ry="0"
       y="11.178745"
       x="18.393307"
       height="1"
       width="27.587999"
       id="rect863"
       style="opacity:1;fill:#443f2f;fill-opacity:1;stroke:none;stroke-width:1.69023108;stroke-linecap:square;stroke-linejoin:round;stroke-miterlimit:10;stroke-dasharray:none;stroke-opacity:1" /><circle
       r="4"
       cy="18.284637"
       cx="32"
       id="path861"
       style="opacity:1;fill:#9b9c9e;fill-opacity:1;stroke:none;stroke-width:1.91437626;stroke-linecap:square;stroke-linejoin:round;stroke-miterlimit:10;stroke-dasharray:none;stroke-opacity:1" /><circle
       r="2"
       cy="18.24007"
       cx="23.554924"
       id="path865"
       style="opacity:1;fill:#443f2f;fill-opacity:1;stroke:none;stroke-width:2.17431378;stroke-linecap:square;stroke-linejoin:round;stroke-miterlimit:10;stroke-dasharray:none;stroke-opacity:1" /><circle
       r="2"
       cy="18.337465"
       cx="40.445076"
       id="path865-6"
       style="opacity:1;fill:#443f2f;fill-opacity:1;stroke:none;stroke-width:2.17431378;stroke-linecap:square;stroke-linejoin:round;stroke-miterlimit:10;stroke-dasharray:none;stroke-opacity:1" /><path
       inkscape:connector-curvature="0"
       id="rect905"
       d="m 27.65039,26.219574 v 3.941406 c 0,0.978755 0.788823,1.765625 1.767578,1.765625 h 5.164063 c 0.978755,0 1.767578,-0.78687 1.767578,-1.765625 v -3.941406 z"
       style="opacity:1;fill:#3d423d;fill-opacity:1;stroke:none;stroke-width:3.96744561;stroke-linecap:square;stroke-linejoin:round;stroke-miterlimit:10;stroke-dasharray:none;stroke-opacity:1" /></g><path
     inkscape:connector-curvature="0"
     d="m 14.339684,12.569611 c 0.612509,0.201089 1.252037,0.360579 1.828516,0.610209 2.477054,1.053999 4.593807,2.454707 6.512395,4.028771 4.494723,3.688995 7.620316,8.022871 9.881186,12.738127 1.684398,3.51564 2.792317,7.135292 3.503906,10.838154 0.657543,3.425496 0.936776,6.864859 0.972807,10.325025 0,0.09708 0,0.201092 0,0.332842 -2.441023,0 -4.846016,0 -7.287039,0 -0.01807,-0.06933 -0.04503,-0.152565 -0.04503,-0.242699 -0.135113,-2.690469 -0.162138,-5.380939 -0.423352,-8.05754 -0.612508,-6.282386 -2.008663,-12.460758 -4.954105,-18.368697 -1.945614,-3.89702 -4.521747,-7.509739 -8.268851,-10.567722 -0.468388,-0.38138 -0.954793,-0.74196 -1.423179,-1.116406 -0.144116,-0.117884 -0.270225,-0.242699 -0.405337,-0.367512 0.02703,-0.05549 0.06304,-0.104026 0.108086,-0.152548 z"
     style="fill:#000000;fill-opacity:1;stroke:none;stroke-width:0.19757842;stroke-miterlimit:10"
     id="path4-7-9-5" /><path
     inkscape:connector-curvature="0"
     d="m 36.61212,51.441882 c 0.06995,-1.167637 0.0962,-2.304748 0.209867,-3.426595 0.29731,-2.831328 0.944399,-5.593973 1.99373,-8.287934 1.98499,-5.090285 5.106759,-9.562411 9.513955,-13.33243 1.197992,-1.022636 2.457189,-1.984219 3.987468,-2.617644 0.297311,-0.1221 0.655831,-0.1221 0.98812,-0.175526 -0.104941,0.267105 -0.157403,0.557107 -0.323544,0.786056 -0.98812,1.427112 -2.072432,2.808432 -3.008088,4.25844 -2.422209,3.762387 -3.943742,7.807142 -4.905633,12.019792 -0.760766,3.335018 -1.08431,6.715822 -1.145519,10.111892 0,0.206051 0,0.419738 0,0.663949 -2.413468,0 -4.818191,0 -7.310356,0 z"
     style="fill:#000000;fill-opacity:1;stroke:none;stroke-width:0.20422752;stroke-miterlimit:10"
     id="path6-1-6" /><path
     inkscape:connector-curvature="0"
     d="m 30.245242,51.43633 c -2.586246,0 -5.080785,0 -7.593663,0 -0.119232,-1.728289 -0.165093,-3.456577 -0.376015,-5.169157 -0.210933,-1.720431 -0.495238,-3.440866 -0.917108,-5.129877 -0.421871,-1.689009 -0.944624,-3.370163 -1.604942,-4.996325 -0.660318,-1.626164 -1.439862,-3.236615 -2.35697,-4.776363 -0.907938,-1.539747 -2.017642,-2.993085 -3.099828,-4.454273 -1.063848,-1.453333 -2.50371,-2.670992 -3.567556,-4.140037 0.75203,-0.07071 1.320638,0.212107 1.880074,0.487062 2.054324,0.997694 3.851859,2.286055 5.520998,3.700108 4.45715,3.770816 7.795426,8.162241 9.877264,13.229269 1.137215,2.765265 1.852559,5.601231 2.081837,8.523609 0.05504,0.895567 0.09172,1.791138 0.155917,2.725984 z"
     style="fill:#000000;fill-opacity:1;stroke:none;stroke-width:0.21220098;stroke-miterlimit:10"
     id="path8-5-2-2" /><path
     id="path12-3-7-9"
     style="fill:#000000;fill-opacity:1;stroke:none;stroke-width:0.25647053;stroke-miterlimit:10"
     d="m 36.538772,43.285789 c -0.672877,-2.417759 -1.334348,-4.835519 -2.007226,-7.262502 -0.0114,-0.03689 -0.0114,-0.07384 -0.02291,-0.10152 -1.003618,-1.58723 -0.479,-3.063723 0.387758,-4.577128 1.767726,-3.036041 3.763542,-5.942889 6.546287,-8.462154 2.315156,-2.094779 4.938234,-3.875797 8.222785,-4.900116 0.604446,-0.193795 1.265917,-0.2953 1.89318,-0.433718 0.0342,0.04614 0.06841,0.09231 0.102608,0.138448 -0.09125,0.10152 -0.148262,0.221471 -0.26231,0.295294 -5.690937,3.903483 -9.214983,8.932787 -11.655588,14.543465 -1.459801,3.349792 -2.417795,6.801099 -3.102076,10.307766 -0.0342,0.166112 -0.06841,0.322987 -0.102661,0.452179 z"
     inkscape:connector-curvature="0" /><g
     transform="matrix(1.7899922,0,0,1.7899922,-66.038443,-59.451027)"
     id="g1080"><path
       style="stroke-width:0.31218392"
       id="path2-3"
       d="m 48.637787,43.58933 c -0.01248,0.02186 -0.02498,0.04371 -0.03745,0.06556 0.04682,0.05619 0.09054,0.11239 0.140484,0.165458 0.162334,0.168578 0.334037,0.330916 0.493249,0.502617 1.298685,1.379852 2.194653,3.00633 2.865849,4.757682 1.020841,2.662928 1.504726,5.441365 1.717011,8.269751 0.09054,1.205031 0.0999,2.419425 0.146725,3.627578 0,0.03746 0.01248,0.07492 0.01561,0.10927 0.84602,0 1.682671,0 2.525568,0 0,-0.05932 0,-0.103019 0,-0.14985 -0.01249,-1.557795 -0.10927,-3.106227 -0.337157,-4.648417 -0.246625,-1.667062 -0.630611,-3.296662 -1.214395,-4.879434 -0.783582,-2.125972 -1.866859,-4.074 -3.424659,-5.734818 -0.668077,-0.711778 -1.40171,-1.34239 -2.257092,-1.813789 -0.199799,-0.10927 -0.421449,-0.181065 -0.633735,-0.2716 m 9.359275,17.501034 c 0.889724,0 1.745108,0 2.6161,0 0,-0.0999 0,-0.18731 0,-0.271601 0.02186,-1.389218 0.137362,-2.772193 0.408961,-4.136437 0.343403,-1.726376 0.886603,-3.38095 1.751353,-4.916895 0.334036,-0.59315 0.718021,-1.158204 1.073914,-1.741986 0.05619,-0.09677 0.07805,-0.215409 0.115509,-0.321551 -0.118629,0.02186 -0.246626,0.02186 -0.352768,0.0718 -0.546324,0.262236 -0.998988,0.652466 -1.423558,1.070792 -1.573408,1.542188 -2.687904,3.371587 -3.39656,5.453852 -0.374622,1.10201 -0.60876,2.232115 -0.71178,3.390318 -0.04682,0.45891 -0.05619,0.924064 -0.08117,1.401706 m -4.873191,0.0061 c -0.01873,-0.374622 -0.03122,-0.72739 -0.05619,-1.083279 -0.07805,-1.161324 -0.324672,-2.291429 -0.708657,-3.387196 -0.708659,-2.016706 -1.845008,-3.758694 -3.362221,-5.257177 -0.568174,-0.561931 -1.180056,-1.073913 -1.879348,-1.470385 -0.190431,-0.10927 -0.383987,-0.22165 -0.639977,-0.193554 0.362133,0.583785 0.852262,1.070789 1.214395,1.64521 0.365256,0.580662 0.742997,1.1582 1.055182,1.770081 0.309064,0.611881 0.57754,1.248735 0.802313,1.898079 0.224773,0.646221 0.405839,1.314294 0.546323,1.985489 0.143603,0.671196 0.240382,1.354878 0.312183,2.038562 0.0718,0.68056 0.08741,1.367365 0.127995,2.05417 0.858506,0 1.704525,0 2.588006,0 m 4.148924,-5.915884 c 0.0093,-0.0437 0.01873,-0.0999 0.0281,-0.152971 0.187309,-1.186299 0.449542,-2.350745 0.849138,-3.487094 0.668073,-1.898078 1.632723,-3.599479 3.19052,-4.920019 0.03122,-0.02498 0.04682,-0.06556 0.0718,-0.0999 -0.0093,-0.01561 -0.01874,-0.03122 -0.0281,-0.04683 -0.174824,0.04995 -0.352767,0.08117 -0.518225,0.146728 -0.899091,0.349646 -1.617113,0.95216 -2.250846,1.657694 -0.76173,0.849142 -1.308053,1.835644 -1.791936,2.862728 -0.240382,0.511983 -0.380865,1.008354 -0.106151,1.548432 0.0061,0.0095 0.0032,0.02186 0.0061,0.03433 0.184189,0.821043 0.368377,1.638967 0.549443,2.456888"
       inkscape:connector-curvature="0" /><path
       id="path4-7"
       style="fill:#6bc305;fill-opacity:1;stroke:#2aaa00;stroke-width:0.07804598;stroke-miterlimit:10"
       d="m 48.622581,43.575888 c 0.212285,0.09053 0.433936,0.162336 0.633734,0.274722 0.858505,0.47452 1.592138,1.105131 2.257089,1.813789 1.557798,1.660818 2.641076,3.611967 3.424658,5.734818 0.583784,1.582772 0.96777,3.212373 1.214395,4.879435 0.227894,1.542188 0.324671,3.09062 0.337159,4.648418 0,0.04371 0,0.09053 0,0.149848 -0.846019,0 -1.67955,0 -2.525568,0 -0.0062,-0.03122 -0.01561,-0.06868 -0.01561,-0.109264 -0.04683,-1.211274 -0.05619,-2.422547 -0.146727,-3.627577 -0.212285,-2.828386 -0.69617,-5.609945 -1.717011,-8.269752 -0.674317,-1.754473 -1.567163,-3.380952 -2.865848,-4.757683 -0.162336,-0.171701 -0.330915,-0.334036 -0.493251,-0.502616 -0.04995,-0.05307 -0.09366,-0.109264 -0.140483,-0.165457 0.0094,-0.02497 0.02185,-0.04683 0.03746,-0.06868 z"
       inkscape:connector-curvature="0" /><path
       id="path6"
       style="fill:#569c04;fill-opacity:1;stroke:#2aaa00;stroke-width:0.07804598;stroke-miterlimit:10"
       d="m 57.981855,61.076918 c 0.02497,-0.477641 0.03434,-0.942795 0.07492,-1.401705 0.106143,-1.158203 0.337159,-2.288309 0.711779,-3.390318 0.708658,-2.082266 1.823154,-3.911664 3.396561,-5.453853 0.427692,-0.418326 0.877237,-0.811678 1.423559,-1.07079 0.106142,-0.04995 0.234138,-0.04995 0.352768,-0.0718 -0.03746,0.109265 -0.05619,0.227894 -0.115508,0.32155 -0.352768,0.583784 -0.739876,1.148836 -1.073913,1.741986 -0.864749,1.539067 -1.407949,3.193641 -1.751352,4.916896 -0.2716,1.364244 -0.387108,2.747219 -0.408961,4.136437 0,0.08429 0,0.171701 0,0.2716 -0.861627,0 -1.720133,0 -2.609857,0 z"
       inkscape:connector-curvature="0" /><path
       id="path8-5"
       style="fill:#4b8903;fill-opacity:1;stroke:#2aaa00;stroke-width:0.07804598;stroke-miterlimit:10"
       d="m 53.108664,61.083162 c -0.880359,0 -1.729499,0 -2.584883,0 -0.04058,-0.686805 -0.05619,-1.373609 -0.127995,-2.05417 -0.0718,-0.683683 -0.168579,-1.367366 -0.312184,-2.038561 -0.143605,-0.671196 -0.321549,-1.339269 -0.546322,-1.98549 -0.224772,-0.64622 -0.490129,-1.286197 -0.802312,-1.898078 -0.309063,-0.61188 -0.686805,-1.189421 -1.055182,-1.770083 -0.362133,-0.57754 -0.852262,-1.061425 -1.214396,-1.645209 0.255991,-0.0281 0.449545,0.08429 0.639977,0.193554 0.699292,0.396474 1.311173,0.908455 1.879348,1.470386 1.517213,1.498483 2.653563,3.243591 3.36222,5.257177 0.387108,1.098888 0.630612,2.225872 0.708658,3.387196 0.01873,0.355889 0.03122,0.711779 0.05307,1.083278 z"
       inkscape:connector-curvature="0" /><path
       inkscape:connector-curvature="0"
       d="m 57.257588,55.167277 c -0.184188,-0.817922 -0.365255,-1.635844 -0.549443,-2.456888 -0.0031,-0.01249 -0.0031,-0.02497 -0.0062,-0.03434 -0.274722,-0.536956 -0.131117,-1.03645 0.106142,-1.548432 0.483885,-1.027085 1.030207,-2.010464 1.791936,-2.862726 0.633733,-0.708658 1.351756,-1.311173 2.250846,-1.657697 0.165458,-0.06556 0.346524,-0.0999 0.518225,-0.146726 0.0094,0.01561 0.01873,0.03122 0.0281,0.04683 -0.02497,0.03434 -0.04058,0.07492 -0.0718,0.0999 -1.557798,1.320538 -2.522446,3.02194 -3.19052,4.920018 -0.399595,1.133228 -0.66183,2.300796 -0.84914,3.487095 -0.0094,0.05619 -0.01873,0.109264 -0.0281,0.15297 z"
       style="fill:#407503;fill-opacity:1;stroke:#009949;stroke-width:0.07804598;stroke-miterlimit:10"
       id="path12-3" /></g></svg>