<?xml version="1.0" encoding="UTF-8" standalone="no"?>
<svg
   xmlns:dc="http://purl.org/dc/elements/1.1/"
   xmlns:cc="http://creativecommons.org/ns#"
   xmlns:rdf="http://www.w3.org/1999/02/22-rdf-syntax-ns#"
   xmlns:svg="http://www.w3.org/2000/svg"
   xmlns="http://www.w3.org/2000/svg"
   xmlns:sodipodi="http://sodipodi.sourceforge.net/DTD/sodipodi-0.dtd"
   xmlns:inkscape="http://www.inkscape.org/namespaces/inkscape"
   version="1.1"
   id="Layer_1"
   x="0px"
   y="0px"
   viewBox="0 0 64 64"
   xml:space="preserve"
   sodipodi:docname="roomba-dock.svg"
   width="64"
   height="64"
   inkscape:version="0.92.2 5c3e80d, 2017-08-06"><metadata
     id="metadata24"><rdf:RDF><cc:Work
         rdf:about=""><dc:format>image/svg+xml</dc:format><dc:type
           rdf:resource="http://purl.org/dc/dcmitype/StillImage" /><dc:title /></cc:Work></rdf:RDF></metadata><defs
     id="defs22" /><sodipodi:namedview
     pagecolor="#ffffff"
     bordercolor="#666666"
     borderopacity="1"
     objecttolerance="10"
     gridtolerance="10"
     guidetolerance="10"
     inkscape:pageopacity="0"
     inkscape:pageshadow="2"
     inkscape:window-width="1920"
     inkscape:window-height="1013"
     id="namedview20"
     showgrid="false"
     inkscape:zoom="7.3583299"
     inkscape:cx="-6.7357528"
     inkscape:cy="47.906274"
     inkscape:window-x="0"
     inkscape:window-y="0"
     inkscape:window-maximized="1"
     inkscape:current-layer="Layer_1" /><g
     transform="translate(-0.03084509,0.25)"
     id="g827"><circle
       r="25.235849"
       cy="31.75"
       cx="32.057808"
       id="path829-3"
       style="opacity:1;fill:#000000;fill-opacity:1;stroke:#9b9c9e;stroke-width:3.02830195;stroke-linecap:square;stroke-linejoin:round;stroke-miterlimit:10;stroke-dasharray:none;stroke-opacity:1" /><path
       id="rect865-5-6"
       d="M 8.3875736,30.256066 5.2538819,32 l 3.1336917,1.743935 0.019909,-0.01109 v -3.465707 z"
       style="opacity:1;fill:#000000;fill-opacity:1;stroke:none;stroke-width:1.23221111;stroke-linecap:square;stroke-linejoin:round;stroke-miterlimit:10;stroke-dasharray:none;stroke-opacity:1"
       inkscape:connector-curvature="0" /><path
       id="rect865-5-3-7"
       d="M 55.758528,33.743934 58.796738,32 l -3.038209,-1.743934 -0.01926,0.01111 -10e-7,3.465706 z"
       style="opacity:1;fill:#000000;fill-opacity:1;stroke:none;stroke-width:1.21329343;stroke-linecap:square;stroke-linejoin:round;stroke-miterlimit:10;stroke-dasharray:none;stroke-opacity:1"
       inkscape:connector-curvature="0" /><path
       id="rect865-5-3-5-5"
       d="M 33.743934,8.2954765 32,5.1617747 l -1.743934,3.1336992 0.01111,0.019868 3.465706,2.5e-6 z"
       style="opacity:1;fill:#110000;fill-opacity:1;stroke:none;stroke-width:1.23221266;stroke-linecap:square;stroke-linejoin:round;stroke-miterlimit:10;stroke-dasharray:none;stroke-opacity:1"
       inkscape:connector-curvature="0" /></g><path
     style="opacity:1;fill:#000000;fill-opacity:1;stroke:#9b9c9e;stroke-width:2.45;stroke-linecap:square;stroke-linejoin:round;stroke-miterlimit:10;stroke-dasharray:none;stroke-opacity:1"
     d="M 20.811524,20.135097 A 16.4025,16.4025 0 0 0 15.59668,32.113613 16.4025,16.4025 0 0 0 31.999024,48.515957 16.4025,16.4025 0 0 0 48.403321,32.113613 16.4025,16.4025 0 0 0 43.174805,20.135097 Z"
     id="path829-6"
     inkscape:connector-curvature="0" /><g
     id="g856"
     transform="matrix(0.34867844,0,0,0.34867844,-7.919673,37.873164)"><path
       id="path2"
       style="fill:#bebec8"
       d="m 140.31532,-5.7612613 c -0.3,0 -0.5,-0.2 -0.5,-0.5 V -20.261261 c 0,-0.3 0.2,-0.5 0.5,-0.5 h 5 c 0.8,0 1.5,0.7 1.5,1.5 v 11.9999997 c 0,0.8 -0.7,1.5 -1.5,1.5 h -5"
       inkscape:connector-curvature="0" /><path
       id="path4"
       style="fill:#34383f"
       d="m 145.31532,-20.261261 c 0.6,0 1,0.4 1,1 v 11.9999997 c 0,0.6 -0.4,1 -1,1 h -5 V -20.261261 h 5 m 0,-1 h -5 c -0.6,0 -1,0.4 -1,1 v 13.9999997 c 0,0.6 0.4,1 1,1 h 5 c 1.1,0 2,-0.9 2,-2 V -19.261261 c 0,-1.1 -0.9,-2 -2,-2 z"
       inkscape:connector-curvature="0" /><path
       id="path6"
       style="fill:#f0f0f0"
       d="m 86.315315,1.2387387 c -1.4,0 -2.5,-1.09999996 -2.5,-2.5 V -25.261261 c 0,-1.4 1.1,-2.5 2.5,-2.5 h 51.000005 c 1.4,0 2.5,1.1 2.5,2.5 v 23.9999997 c 0,1.40000004 -1.1,2.5 -2.5,2.5 H 86.315315"
       inkscape:connector-curvature="0" /><path
       id="path8"
       style="fill:#34383f"
       d="m 137.31532,-27.261261 c 1.1,0 2,0.9 2,2 v 23.9999997 c 0,1.10000004 -0.9,2.00000004 -2,2.00000004 H 86.315315 c -1.1,0 -2,-0.9 -2,-2.00000004 V -25.261261 c 0,-1.1 0.9,-2 2,-2 h 51.000005 m 0,-1 H 86.315315 c -1.7,0 -3,1.3 -3,3 v 23.9999997 c 0,1.70000004 1.3,3 3,3 h 51.000005 c 1.7,0 3,-1.29999996 3,-3 V -25.261261 c 0,-1.7 -1.3,-3 -3,-3 z"
       inkscape:connector-curvature="0" /><path
       id="path10"
       style="fill:#00c83c"
       d="M 128.31532,0.73873874 H 86.315315 c -1.1,0 -2,-0.9 -2,-2.00000004 V -25.261261 c 0,-1.1 0.9,-2 2,-2 H 128.31532 V 0.73873874"
       inkscape:connector-curvature="0" /><path
       id="path12"
       style="fill:#00b22a"
       d="m 127.31532,-27.261261 h 1 V 0.73873874 h -1 z"
       inkscape:connector-curvature="0" /></g></svg>