<?xml version="1.0" encoding="UTF-8" standalone="no"?>
<svg
   xmlns:dc="http://purl.org/dc/elements/1.1/"
   xmlns:cc="http://creativecommons.org/ns#"
   xmlns:rdf="http://www.w3.org/1999/02/22-rdf-syntax-ns#"
   xmlns:svg="http://www.w3.org/2000/svg"
   xmlns="http://www.w3.org/2000/svg"
   xmlns:sodipodi="http://sodipodi.sourceforge.net/DTD/sodipodi-0.dtd"
   xmlns:inkscape="http://www.inkscape.org/namespaces/inkscape"
   version="1.1"
   id="Layer_1"
   x="0px"
   y="0px"
   viewBox="0 0 64 64"
   xml:space="preserve"
   sodipodi:docname="roomba-pause.svg"
   width="64"
   height="64"
   inkscape:version="0.92.2 5c3e80d, 2017-08-06"><metadata
     id="metadata24"><rdf:RDF><cc:Work
         rdf:about=""><dc:format>image/svg+xml</dc:format><dc:type
           rdf:resource="http://purl.org/dc/dcmitype/StillImage" /><dc:title /></cc:Work></rdf:RDF></metadata><defs
     id="defs22" /><sodipodi:namedview
     pagecolor="#ffffff"
     bordercolor="#666666"
     borderopacity="1"
     objecttolerance="10"
     gridtolerance="10"
     guidetolerance="10"
     inkscape:pageopacity="0"
     inkscape:pageshadow="2"
     inkscape:window-width="1920"
     inkscape:window-height="1013"
     id="namedview20"
     showgrid="false"
     inkscape:zoom="10.40625"
     inkscape:cx="45.468495"
     inkscape:cy="37.476423"
     inkscape:window-x="0"
     inkscape:window-y="0"
     inkscape:window-maximized="1"
     inkscape:current-layer="Layer_1" /><circle
     style="opacity:1;fill:#000000;fill-opacity:1;stroke:#9b9c9e;stroke-width:2.452;stroke-linecap:square;stroke-linejoin:round;stroke-miterlimit:10;stroke-dasharray:none;stroke-opacity:1"
     id="path829"
     cx="32"
     cy="32"
     r="25" /><path
     style="opacity:1;fill:#000000;fill-opacity:1;stroke:#9b9c9e;stroke-width:2.45;stroke-linecap:square;stroke-linejoin:round;stroke-miterlimit:10;stroke-dasharray:none;stroke-opacity:1"
     d="M 20.811524,20.135097 A 16.4025,16.4025 0 0 0 15.59668,32.113613 16.4025,16.4025 0 0 0 31.999024,48.515957 16.4025,16.4025 0 0 0 48.403321,32.113613 16.4025,16.4025 0 0 0 43.174805,20.135097 Z"
     id="path829-6"
     inkscape:connector-curvature="0" /><path
     inkscape:connector-curvature="0"
     style="opacity:1;fill:#000000;fill-opacity:1;stroke:none;stroke-width:1.09292114;stroke-linecap:square;stroke-linejoin:round;stroke-miterlimit:10;stroke-dasharray:none;stroke-opacity:1"
     d="M 8.199628,30.256066 5.7343624,32 8.199628,33.743935 8.21529,33.732849 v -3.465707 z"
     id="rect865-5" /><path
     inkscape:connector-curvature="0"
     style="opacity:1;fill:#000000;fill-opacity:1;stroke:none;stroke-width:1.09292114;stroke-linecap:square;stroke-linejoin:round;stroke-miterlimit:10;stroke-dasharray:none;stroke-opacity:1"
     d="M 55.754895,33.743934 58.220161,32 l -2.465265,-1.743934 -0.01563,0.01111 -10e-7,3.465706 z"
     id="rect865-5-3" /><path
     inkscape:connector-curvature="0"
     style="opacity:1;fill:#110000;fill-opacity:1;stroke:none;stroke-width:1.09292114;stroke-linecap:square;stroke-linejoin:round;stroke-miterlimit:10;stroke-dasharray:none;stroke-opacity:1"
     d="M 33.743934,8.2997144 32,5.8344474 l -1.743934,2.465265 0.01111,0.01563 3.465706,2e-6 z"
     id="rect865-5-3-5" /><g
     id="g833"
     transform="matrix(0.3138106,0,0,0.3138106,51.977977,11.424873)"
     style="fill:none;stroke:#009600;stroke-width:6.37327099;stroke-miterlimit:4;stroke-dasharray:none;stroke-opacity:1"><path
       id="path2-3"
       style="fill:none;stroke:#009600;stroke-width:6.37327099;stroke-miterlimit:4;stroke-dasharray:none;stroke-opacity:1"
       d="m 116.02162,64.805556 c -0.2,0 -0.5,-0.1 -0.8,-0.1 -0.6,-0.1 -1.2,-0.1 -1.7,-0.3 h -0.1 c -8.6,-1.5 -15.899998,-10.2 -16.299998,-19.3 v -2.7 c 0.3,-1.7 0.6,-3.5 1.3,-5.2 0.8,-1.5 1.4,-2.8 2.199998,-4 l 2.6,-3.7 c 6.2,-7.6 11,-14.9 14.6,-22.5000004 l 0.6,1.3 c 3.5,8.9000004 9.3,16.4000004 13.9,22.0000004 0.6,0.9 1.2,1.8 1.9,2.6 1,1.5 2,3.2 2.8,5 0.5,1.3 0.9,2.9 1.1,4.6 v 2.5 c -0.1,0.3 -0.1,0.6 -0.1,0.8 0,0.3 0,0.5 -0.1,0.7 v 0.1 0.1 c -0.9,8.4 -8,16.1 -16.1,17.5 h -0.1 c -0.5,0.2 -1.1,0.3 -1.7,0.3 -0.3,0 -0.6,0.1 -0.8,0.1 h -3.2 z"
       inkscape:connector-curvature="0" /><path
       id="path4-6"
       style="fill:none;stroke:#009600;stroke-width:6.37327099;stroke-miterlimit:4;stroke-dasharray:none;stroke-opacity:1"
       d="m 117.82162,8.2055556 0.2,0.4 c 3.6,8.9000004 9.3,16.5000004 13.9,22.1000004 0.6,0.9 1.3,1.8 1.9,2.6 1,1.5 2,3.2 2.8,4.9 0.5,1.3 0.8,2.8 1,4.5 v 2.4 c -0.1,0.3 -0.1,0.6 -0.1,0.9 0,0.2 0,0.4 -0.1,0.6 l -0.1,0.1 v 0.1 c -0.9,8.2 -7.8,15.7 -15.6,17.1 h -0.1 -0.1 c -0.5,0.2 -1,0.2 -1.6,0.3 -0.3,0 -0.6,0.1 -0.8,0.1 h -3 c -0.3,0 -0.5,-0.1 -0.8,-0.1 -0.6,-0.1 -1.2,-0.1 -1.6,-0.3 h -0.1 -0.1 c -8.4,-1.5 -15.499998,-9.9 -15.899998,-18.7 v -2.6 c 0.3,-1.7 0.6,-3.4 1.3,-5.1 0.7,-1.3 1.399998,-2.7 2.199998,-3.9 l 2.6,-3.6 c 5.9,-7.4 10.5,-14.6 14.1,-21.8000004 m 0,-2.4 c -3.9,8.4000004 -9.1,16.2000004 -15,23.4000004 l -2.6,3.7 c -0.799998,1.3 -1.499998,2.7 -2.299998,4.1 -0.7,1.7 -1.1,3.6 -1.3,5.4 v 2.7 c 0.4,9.2 7.699998,18.1 16.699998,19.7 0.8,0.3 1.8,0.3 2.7,0.5 h 3.2 c 0.9,-0.1 1.9,-0.1 2.7,-0.5 8.3,-1.5 15.5,-9.3 16.5,-18 0.2,-0.5 0.1,-1.2 0.2,-1.7 v -2.6 c -0.2,-1.6 -0.5,-3.2 -1.1,-4.8 -0.8,-1.8 -1.8,-3.5 -2.9,-5.1 -0.7,-0.9 -1.3,-1.7 -1.9,-2.6 -5.6,-6.7 -10.6,-13.8 -13.8,-21.9000004 z"
       inkscape:connector-curvature="0" /></g><g
     id="g844"
     transform="matrix(1.21,0,0,1.21,-6.72,-7.1437835)"><circle
       r="7"
       cy="34.018017"
       cx="32"
       id="path822"
       style="opacity:1;fill:#9b9c9e;fill-opacity:1;stroke:none;stroke-width:2.33129835;stroke-linecap:square;stroke-linejoin:round;stroke-miterlimit:4;stroke-dasharray:none;stroke-opacity:1" /><rect
       ry="3.5789287e-06"
       y="30.846846"
       x="28.732733"
       height="6.534534"
       width="2.3063064"
       id="rect824"
       style="opacity:1;fill:#000000;fill-opacity:1;stroke:none;stroke-width:1.45043802;stroke-linecap:square;stroke-linejoin:round;stroke-miterlimit:4;stroke-dasharray:none;stroke-opacity:1" /><rect
       ry="3.5789287e-06"
       y="30.846846"
       x="32.96096"
       height="6.534534"
       width="2.3063064"
       id="rect824-3"
       style="opacity:1;fill:#000000;fill-opacity:1;stroke:none;stroke-width:1.45043802;stroke-linecap:square;stroke-linejoin:round;stroke-miterlimit:4;stroke-dasharray:none;stroke-opacity:1" /></g></svg>