<?xml version="1.0" encoding="UTF-8" standalone="no"?>
<svg
   xmlns:dc="http://purl.org/dc/elements/1.1/"
   xmlns:cc="http://creativecommons.org/ns#"
   xmlns:rdf="http://www.w3.org/1999/02/22-rdf-syntax-ns#"
   xmlns:svg="http://www.w3.org/2000/svg"
   xmlns="http://www.w3.org/2000/svg"
   xmlns:sodipodi="http://sodipodi.sourceforge.net/DTD/sodipodi-0.dtd"
   xmlns:inkscape="http://www.inkscape.org/namespaces/inkscape"
   version="1.1"
   id="Layer_1"
   x="0px"
   y="0px"
   viewBox="0 0 64 64"
   xml:space="preserve"
   sodipodi:docname="roomba-run.svg"
   width="64"
   height="64"
   inkscape:version="0.92.2 5c3e80d, 2017-08-06"><metadata
     id="metadata24"><rdf:RDF><cc:Work
         rdf:about=""><dc:format>image/svg+xml</dc:format><dc:type
           rdf:resource="http://purl.org/dc/dcmitype/StillImage" /><dc:title /></cc:Work></rdf:RDF></metadata><defs
     id="defs22" /><sodipodi:namedview
     pagecolor="#ffffff"
     bordercolor="#666666"
     borderopacity="1"
     objecttolerance="10"
     gridtolerance="10"
     guidetolerance="10"
     inkscape:pageopacity="0"
     inkscape:pageshadow="2"
     inkscape:window-width="1920"
     inkscape:window-height="1013"
     id="namedview20"
     showgrid="false"
     inkscape:zoom="7.3583299"
     inkscape:cx="-11.889405"
     inkscape:cy="18.353848"
     inkscape:window-x="0"
     inkscape:window-y="0"
     inkscape:window-maximized="1"
     inkscape:current-layer="Layer_1" /><g
     transform="translate(-0.03084509,0.25)"
     id="g827"><circle
       r="25.235849"
       cy="31.75"
       cx="32.057808"
       id="path829"
       style="opacity:1;fill:#000000;fill-opacity:1;stroke:#9b9c9e;stroke-width:3.02830195;stroke-linecap:square;stroke-linejoin:round;stroke-miterlimit:10;stroke-dasharray:none;stroke-opacity:1" /><path
       id="rect865-5"
       d="M 8.3875736,30.256066 5.2538819,32 l 3.1336917,1.743935 0.019909,-0.01109 v -3.465707 z"
       style="opacity:1;fill:#000000;fill-opacity:1;stroke:none;stroke-width:1.23221111;stroke-linecap:square;stroke-linejoin:round;stroke-miterlimit:10;stroke-dasharray:none;stroke-opacity:1"
       inkscape:connector-curvature="0" /><path
       id="rect865-5-3"
       d="M 55.758528,33.743934 58.796738,32 l -3.038209,-1.743934 -0.01926,0.01111 -10e-7,3.465706 z"
       style="opacity:1;fill:#000000;fill-opacity:1;stroke:none;stroke-width:1.21329343;stroke-linecap:square;stroke-linejoin:round;stroke-miterlimit:10;stroke-dasharray:none;stroke-opacity:1"
       inkscape:connector-curvature="0" /><path
       id="rect865-5-3-5"
       d="M 33.743934,8.2954765 32,5.1617747 l -1.743934,3.1336992 0.01111,0.019868 3.465706,2.5e-6 z"
       style="opacity:1;fill:#110000;fill-opacity:1;stroke:none;stroke-width:1.23221266;stroke-linecap:square;stroke-linejoin:round;stroke-miterlimit:10;stroke-dasharray:none;stroke-opacity:1"
       inkscape:connector-curvature="0" /></g><path
     style="opacity:1;fill:#000000;fill-opacity:1;stroke:#9b9c9e;stroke-width:2.45;stroke-linecap:square;stroke-linejoin:round;stroke-miterlimit:10;stroke-dasharray:none;stroke-opacity:1"
     d="M 20.811524,20.135097 A 16.4025,16.4025 0 0 0 15.59668,32.113613 16.4025,16.4025 0 0 0 31.999024,48.515957 16.4025,16.4025 0 0 0 48.403321,32.113613 16.4025,16.4025 0 0 0 43.174805,20.135097 Z"
     id="path829-6"
     inkscape:connector-curvature="0" /><path
     style="fill:#001500;fill-opacity:1;stroke:none;stroke-width:0.03978831;stroke-opacity:1"
     inkscape:connector-curvature="0"
     d="m 33.49969,41.992814 c -0.23134,0.918219 -1.40399,2.92554 -3.27036,5.62983 0.51156,0.118726 0.99982,0.252681 1.49622,0.342826 0.90409,0.164531 1.81531,0.292542 2.7192,0.458132 0.29624,0.05432 0.44713,-0.05365 0.60523,-0.288792 1.8193,-2.704702 3.2858,-5.595022 4.51581,-8.606312 0.48143,-1.178389 0.89294,-2.385365 1.33633,-3.579147 0.045,-0.121453 0.0893,-0.242626 0.14296,-0.388672 0.97493,0.336312 1.92724,0.664641 2.92485,1.008608 -0.17882,0.52344 -0.34046,1.018054 -0.51641,1.507658 -1.49617,4.157148 -3.36029,8.132581 -5.84179,11.801917 -0.20606,0.304837 -0.43936,0.591393 -0.64281,0.897737 -0.46738,0.703122 -1.12103,0.920865 -1.94068,0.842776 -3.15912,-0.300196 -6.22009,-1.019401 -9.1861,-2.135983 -5.396204,-2.031427 -10.042022,-5.140105 -13.7241,-9.620982 -0.441193,-0.536918 -0.567859,-1.131572 -0.280001,-1.762093 0.277804,-0.608129 0.812195,-0.884344 1.464542,-0.892976 2.804086,-0.03716 5.507279,-0.599049 8.120939,-1.587218 2.36493,-0.894034 4.51976,-2.13244 6.17847,-4.092041 0.48053,-0.568108 0.87291,-1.210966 1.32644,-1.848735 0.85552,0.482113 1.73371,0.97697 2.70339,1.523254 -0.50169,0.725796 -0.94773,1.451307 -1.47248,2.11481 -1.28282,1.622232 -2.90107,2.854979 -4.69768,3.853654 -2.70715,1.504971 -5.63,2.372174 -8.674105,2.865037 -0.06002,0.0096 -0.119415,0.02219 -0.265872,0.04989 0.435209,0.399174 0.802097,0.771275 1.20567,1.0981 0.755846,0.611834 1.524555,1.209417 2.309473,1.783223 0.153092,0.112179 0.420959,0.159685 0.608784,0.117225 1.56058,-0.352557 2.9937,-0.976726 4.19513,-2.089323 -0.10355,0.546078 -1.0911,1.93448 -2.47616,3.479924 0.87005,0.43346 1.74955,0.813132 2.56903,1.294718 1.06073,0.623722 2.07503,0.45398 3.11662,0.0037 1.75969,-0.760527 3.26727,-1.897553 4.71092,-3.131807 0.234,-0.200115 0.46278,-0.406384 0.73854,-0.649006 z"
     id="path2-3-6"
     sodipodi:nodetypes="ccccccccccccccccccccccccccccccccccc" /><path
     style="fill:#001500;fill-opacity:1;stroke:none;stroke-width:0.04376714;stroke-opacity:1"
     inkscape:connector-curvature="0"
     d="m 44.623931,36.960064 c -5.432652,-2.41712 -10.82638,-4.816505 -16.260187,-7.23376 0.449485,-1.042959 1.153987,-1.836679 2.106208,-2.398445 1.59035,-0.938157 3.255314,-1.043141 4.946118,-0.307239 2.171461,0.944963 4.340112,1.898437 6.489078,2.89343 2.525692,1.169485 3.713313,3.799926 2.944943,6.411513 -0.06,0.203111 -0.14179,0.399815 -0.22616,0.634501 z"
     id="path2-3"
     sodipodi:nodetypes="ccccccc" /><path
     style="fill:#001500;fill-opacity:1;stroke:none;stroke-width:0.05295824;stroke-opacity:1"
     inkscape:connector-curvature="0"
     d="m 41.01663,31.31313 c -2.069947,-0.92176 -4.113758,-1.831543 -6.156419,-2.744037 -0.04295,-0.01934 -0.07405,-0.06616 -0.133185,-0.120589 0.07635,-0.154608 0.148007,-0.309711 0.228303,-0.460476 2.558714,-4.798636 5.118082,-9.597006 7.677667,-14.395377 0.428268,-0.80297 0.927671,-1.045914 1.849485,-0.911247 0.847085,0.123491 1.565122,0.48649 2.116374,1.148941 0.363278,0.43641 0.453157,0.911574 0.251402,1.467152 -1.91002,5.256188 -3.808377,10.516816 -5.711139,15.775659 -0.02323,0.06469 -0.06232,0.123543 -0.122548,0.239963 z"
     id="path2-3-7"
     sodipodi:nodetypes="ccccccccccc" /><path
     style="fill:#009600;fill-opacity:1;stroke:none;stroke-width:0.0328829;stroke-opacity:1"
     inkscape:connector-curvature="0"
     d="m 33.403594,41.89665 c -0.191192,0.758859 -1.160325,2.417802 -2.702777,4.652753 0.422771,0.09812 0.826293,0.208827 1.236547,0.283327 0.74718,0.135976 1.500251,0.24177 2.247266,0.378621 0.244832,0.04489 0.369537,-0.04434 0.500197,-0.238671 1.503551,-2.235291 2.715529,-4.623985 3.732074,-7.112654 0.397872,-0.973876 0.737964,-1.971377 1.104401,-2.957973 0.03716,-0.100375 0.0738,-0.200517 0.118148,-0.321216 0.805732,0.277943 1.592756,0.54929 2.417231,0.83356 -0.147781,0.432595 -0.281372,0.841367 -0.426781,1.245998 -1.236508,3.43566 -2.777104,6.721142 -4.827926,9.753651 -0.1703,0.251931 -0.363112,0.488754 -0.531257,0.741931 -0.386258,0.581092 -0.926464,0.761045 -1.603861,0.696509 -2.610845,-0.248096 -5.140566,-0.84248 -7.591816,-1.765275 -4.459674,-1.678865 -8.299193,-4.248021 -11.342233,-7.951225 -0.364622,-0.443734 -0.469305,-0.935183 -0.231406,-1.456275 0.22959,-0.502586 0.671236,-0.730863 1.210366,-0.737997 2.317426,-0.03071 4.55147,-0.495082 6.711518,-1.31175 1.954485,-0.738871 3.73534,-1.762347 5.106179,-3.381852 0.39713,-0.469511 0.721407,-1.000799 1.096226,-1.527881 0.707039,0.398441 1.432821,0.807414 2.234212,1.258888 -0.414627,0.599831 -0.783255,1.199428 -1.216927,1.747777 -1.060188,1.340688 -2.397578,2.359487 -3.882387,3.184838 -2.237308,1.243778 -4.652889,1.960474 -7.168678,2.367799 -0.0496,0.0079 -0.09869,0.01834 -0.219729,0.04123 0.359677,0.329896 0.66289,0.637417 0.996422,0.907521 0.624665,0.505648 1.259963,0.999518 1.908655,1.473738 0.126522,0.09271 0.3479,0.131971 0.503125,0.09688 1.289742,-0.291369 2.474131,-0.807212 3.467054,-1.726714 -0.08558,0.451305 -0.901734,1.598745 -2.046416,2.875971 0.719052,0.358231 1.445909,0.67201 2.123169,1.070015 0.876631,0.515474 1.714902,0.37519 2.575718,0.0031 1.454288,-0.628535 2.700222,-1.568226 3.893323,-2.58827 0.193384,-0.165385 0.382459,-0.335855 0.610363,-0.536369 z m 9.423793,-6.63113 c -4.081628,-1.816018 -8.134013,-3.618712 -12.216513,-5.434831 0.337704,-0.783591 0.867007,-1.379924 1.582425,-1.801987 1.194853,-0.704852 2.445766,-0.783727 3.716093,-0.230834 1.631452,0.709965 3.260789,1.426325 4.875338,2.173878 1.897593,0.878651 2.789875,2.85494 2.212579,4.817064 -0.04499,0.1526 -0.106524,0.300387 -0.169922,0.47671 z M 41.01486,28.150613 c -1.285268,-0.57234 -2.554315,-1.137245 -3.822654,-1.703831 -0.02674,-0.01201 -0.04598,-0.04108 -0.08268,-0.07487 0.0474,-0.096 0.09193,-0.192306 0.141763,-0.285919 1.588757,-2.979576 3.177934,-5.958986 4.767235,-8.938395 0.26592,-0.498582 0.576005,-0.649431 1.148374,-0.565813 0.525977,0.07668 0.971823,0.302071 1.314106,0.713401 0.225567,0.270975 0.281381,0.566014 0.156102,0.910985 -1.185979,3.26368 -2.364701,6.530116 -3.546163,9.795443 -0.01443,0.04016 -0.03865,0.07671 -0.0761,0.148999 z"
     id="path2" /></svg>