<?xml version="1.0" encoding="UTF-8" standalone="no"?>
<svg
   xmlns:dc="http://purl.org/dc/elements/1.1/"
   xmlns:cc="http://creativecommons.org/ns#"
   xmlns:rdf="http://www.w3.org/1999/02/22-rdf-syntax-ns#"
   xmlns:svg="http://www.w3.org/2000/svg"
   xmlns="http://www.w3.org/2000/svg"
   xmlns:sodipodi="http://sodipodi.sourceforge.net/DTD/sodipodi-0.dtd"
   xmlns:inkscape="http://www.inkscape.org/namespaces/inkscape"
   version="1.1"
   id="Layer_1"
   x="0px"
   y="0px"
   viewBox="0 0 64 64"
   xml:space="preserve"
   sodipodi:docname="roomba-resume.svg"
   width="64"
   height="64"
   inkscape:version="0.92.2 5c3e80d, 2017-08-06"><metadata
     id="metadata24"><rdf:RDF><cc:Work
         rdf:about=""><dc:format>image/svg+xml</dc:format><dc:type
           rdf:resource="http://purl.org/dc/dcmitype/StillImage" /><dc:title /></cc:Work></rdf:RDF></metadata><defs
     id="defs22" /><sodipodi:namedview
     pagecolor="#ffffff"
     bordercolor="#666666"
     borderopacity="1"
     objecttolerance="10"
     gridtolerance="10"
     guidetolerance="10"
     inkscape:pageopacity="0"
     inkscape:pageshadow="2"
     inkscape:window-width="1920"
     inkscape:window-height="1013"
     id="namedview20"
     showgrid="false"
     inkscape:zoom="7.3583299"
     inkscape:cx="-10.482512"
     inkscape:cy="18.353848"
     inkscape:window-x="0"
     inkscape:window-y="0"
     inkscape:window-maximized="1"
     inkscape:current-layer="Layer_1" /><g
     transform="translate(-2.0601362e-6)"
     id="g965"><circle
       r="30.158281"
       cy="32"
       cx="32.032223"
       id="path829"
       style="opacity:1;fill:#443f2f;fill-opacity:1;stroke:#9b9c9e;stroke-width:3.61899996;stroke-linecap:square;stroke-linejoin:round;stroke-miterlimit:10;stroke-dasharray:none;stroke-opacity:1" /><path
       id="rect865-5"
       d="M 3.7449406,30.214664 6.715649e-8,32.298764 3.7449406,34.382866 3.768733,34.369613 v -4.141718 z"
       style="opacity:1;fill:#000000;fill-opacity:1;stroke:none;stroke-width:1.47256267;stroke-linecap:square;stroke-linejoin:round;stroke-miterlimit:10;stroke-dasharray:none;stroke-opacity:1"
       inkscape:connector-curvature="0" /><path
       id="rect865-5-3"
       d="m 60.355936,34.382865 3.630834,-2.084101 -3.630833,-2.0841 -0.02302,0.01328 -1e-6,4.141716 z"
       style="opacity:1;fill:#000000;fill-opacity:1;stroke:none;stroke-width:1.44995499;stroke-linecap:square;stroke-linejoin:round;stroke-miterlimit:10;stroke-dasharray:none;stroke-opacity:1"
       inkscape:connector-curvature="0" /><circle
       r="1.8095"
       cy="1.8421516"
       cx="32"
       id="path824"
       style="opacity:1;fill:#000000;fill-opacity:1;stroke:none;stroke-width:1.94910145;stroke-linecap:square;stroke-linejoin:round;stroke-miterlimit:10;stroke-dasharray:none;stroke-opacity:1" /><path
       inkscape:connector-curvature="0"
       id="rect839"
       d="m 31.999023,3.7506432 a 30.158281,30.158281 0 0 0 -13.085938,3.015625 c -0.449525,0.886679 -0.707031,1.887343 -0.707031,2.953125 V 31.463534 c 0,3.613867 2.909571,6.523438 6.523438,6.523438 h 14.541015 c 3.613867,0 6.523438,-2.909571 6.523438,-6.523438 V 9.7193932 c 0,-1.058832 -0.255173,-2.053126 -0.699219,-2.935547 A 30.158281,30.158281 0 0 0 31.999023,3.7506432 Z"
       style="opacity:1;fill:#1d211c;fill-opacity:1;stroke:none;stroke-width:3.61899996;stroke-linecap:square;stroke-linejoin:round;stroke-miterlimit:10;stroke-dasharray:none;stroke-opacity:1" /><rect
       ry="0"
       y="11.178745"
       x="18.393307"
       height="1"
       width="27.587999"
       id="rect863"
       style="opacity:1;fill:#443f2f;fill-opacity:1;stroke:none;stroke-width:1.69023108;stroke-linecap:square;stroke-linejoin:round;stroke-miterlimit:10;stroke-dasharray:none;stroke-opacity:1" /><circle
       r="4"
       cy="18.284637"
       cx="32"
       id="path861"
       style="opacity:1;fill:#9b9c9e;fill-opacity:1;stroke:none;stroke-width:1.91437626;stroke-linecap:square;stroke-linejoin:round;stroke-miterlimit:10;stroke-dasharray:none;stroke-opacity:1" /><circle
       r="2"
       cy="18.24007"
       cx="23.554924"
       id="path865"
       style="opacity:1;fill:#443f2f;fill-opacity:1;stroke:none;stroke-width:2.17431378;stroke-linecap:square;stroke-linejoin:round;stroke-miterlimit:10;stroke-dasharray:none;stroke-opacity:1" /><circle
       r="2"
       cy="18.337465"
       cx="40.445076"
       id="path865-6"
       style="opacity:1;fill:#443f2f;fill-opacity:1;stroke:none;stroke-width:2.17431378;stroke-linecap:square;stroke-linejoin:round;stroke-miterlimit:10;stroke-dasharray:none;stroke-opacity:1" /><path
       inkscape:connector-curvature="0"
       id="rect905"
       d="m 27.65039,26.219574 v 3.941406 c 0,0.978755 0.788823,1.765625 1.767578,1.765625 h 5.164063 c 0.978755,0 1.767578,-0.78687 1.767578,-1.765625 v -3.941406 z"
       style="opacity:1;fill:#3d423d;fill-opacity:1;stroke:none;stroke-width:3.96744561;stroke-linecap:square;stroke-linejoin:round;stroke-miterlimit:10;stroke-dasharray:none;stroke-opacity:1" /></g><g
     id="g835"
     transform="translate(77.055529,0.27180076)"><path
       sodipodi:nodetypes="ccccccccccccccccccccccccccccccccccc"
       id="path2-3-6"
       d="m -40.457515,42.565865 c -0.25447,1.010041 -1.54439,3.218094 -3.59739,6.192813 0.56271,0.130599 1.0998,0.277949 1.64584,0.377109 0.9945,0.180984 1.99684,0.321796 2.99112,0.503945 0.32586,0.05975 0.49184,-0.05902 0.66575,-0.317671 2.00123,-2.975173 3.61438,-6.154525 4.96739,-9.466944 0.52958,-1.296228 0.98224,-2.623901 1.46996,-3.937061 0.0495,-0.133599 0.0982,-0.266889 0.15726,-0.42754 1.07242,0.369944 2.11996,0.731106 3.21734,1.109469 -0.19671,0.575784 -0.37451,1.11986 -0.56806,1.658424 -1.64578,4.572863 -3.69631,8.945839 -6.42596,12.982109 -0.22667,0.33532 -0.4833,0.650532 -0.7071,0.98751 -0.51411,0.773435 -1.23313,1.012952 -2.13474,0.927054 -3.47504,-0.330216 -6.842102,-1.121341 -10.104713,-2.349581 -5.935824,-2.23457 -11.046224,-5.654116 -15.09651,-10.583081 -0.485312,-0.590609 -0.624645,-1.244729 -0.308001,-1.938302 0.305584,-0.668942 0.893414,-0.972778 1.610996,-0.982273 3.084495,-0.04088 6.058007,-0.658954 8.933033,-1.74594 2.601423,-0.983438 4.971736,-2.345684 6.796317,-4.501245 0.528583,-0.624919 0.960201,-1.332063 1.459084,-2.033609 0.941074,0.530324 1.907084,1.074667 2.973724,1.67558 -0.55185,0.798375 -1.0425,1.596437 -1.61972,2.326291 -1.411105,1.784455 -3.19118,3.140477 -5.167451,4.239019 -2.977865,1.655468 -6.193,2.609391 -9.541516,3.151541 -0.06602,0.01056 -0.131356,0.02441 -0.292459,0.05488 0.47873,0.439091 0.882307,0.848402 1.326237,1.20791 0.831431,0.673017 1.677011,1.330358 2.540421,1.961545 0.168401,0.123397 0.463054,0.175654 0.669662,0.128948 1.716638,-0.387813 3.29307,-1.074399 4.614643,-2.298256 -0.113905,0.600686 -1.20021,2.127928 -2.723776,3.827917 0.957055,0.476806 1.924505,0.894445 2.825933,1.424189 1.166803,0.686095 2.282533,0.499378 3.428282,0.0041 1.935664,-0.836579 3.593994,-2.087308 5.182014,-3.444987 0.2574,-0.220127 0.50906,-0.447023 0.81239,-0.713907 z"
       inkscape:connector-curvature="0"
       style="fill:#001500;fill-opacity:1;stroke:none;stroke-width:0.04376714;stroke-opacity:1" /><path
       sodipodi:nodetypes="ccccccc"
       id="path2-3"
       d="m -28.220845,37.02984 c -5.97592,-2.658832 -11.90902,-5.298156 -17.886209,-7.957136 0.494434,-1.147255 1.269389,-2.020347 2.316829,-2.63829 1.74939,-1.031972 3.58085,-1.147455 5.44073,-0.337962 2.38861,1.039459 4.77412,2.08828 7.13799,3.182773 2.77826,1.286433 4.08464,4.179918 3.23943,7.052664 -0.066,0.223422 -0.15597,0.439796 -0.24877,0.697951 z"
       inkscape:connector-curvature="0"
       style="fill:#001500;fill-opacity:1;stroke:none;stroke-width:0.04814385;stroke-opacity:1" /><path
       sodipodi:nodetypes="ccccccccccc"
       id="path2-3-7"
       d="m -32.188875,30.818213 c -2.27695,-1.013936 -4.52514,-2.014698 -6.77206,-3.018441 -0.0472,-0.02127 -0.0815,-0.07278 -0.14651,-0.132648 0.084,-0.170069 0.16281,-0.340682 0.25113,-0.506524 2.81459,-5.278499 5.6299,-10.556706 8.44544,-15.834914 0.47109,-0.883267 1.02044,-1.150506 2.03443,-1.002372 0.9318,0.13584 1.72164,0.535139 2.32801,1.263835 0.39961,0.480051 0.49848,1.002731 0.27655,1.613867 -2.10103,5.781807 -4.18922,11.568498 -6.28226,17.353225 -0.0255,0.07116 -0.0686,0.135897 -0.1348,0.263959 z"
       inkscape:connector-curvature="0"
       style="fill:#001500;fill-opacity:1;stroke:none;stroke-width:0.05825406;stroke-opacity:1" /><path
       id="path2"
       d="m -40.563215,42.460085 c -0.21031,0.834744 -1.27636,2.659582 -2.97306,5.118028 0.46505,0.107932 0.90892,0.229709 1.3602,0.31166 0.8219,0.149573 1.65028,0.265947 2.472,0.416483 0.26931,0.04938 0.40649,-0.04877 0.55021,-0.262538 1.65391,-2.458821 2.98708,-5.086384 4.10528,-7.82392 0.43766,-1.071263 0.81176,-2.168515 1.21485,-3.25377 0.0409,-0.110413 0.0812,-0.220569 0.12996,-0.353338 0.8863,0.305738 1.75203,0.604219 2.65895,0.916916 -0.16256,0.475855 -0.30951,0.925504 -0.46946,1.370598 -1.36016,3.779226 -3.05481,7.393256 -5.31072,10.729016 -0.18733,0.277124 -0.39942,0.53763 -0.58438,0.816124 -0.42488,0.639201 -1.01911,0.83715 -1.76425,0.76616 -2.87192,-0.272905 -5.65462,-0.926728 -8.350993,-1.941802 -4.905641,-1.846752 -9.129112,-4.672824 -12.476456,-8.746348 -0.401085,-0.488107 -0.516236,-1.028701 -0.254547,-1.601902 0.252549,-0.552845 0.73836,-0.80395 1.331403,-0.811797 2.549168,-0.03378 5.006617,-0.54459 7.382669,-1.442925 2.149934,-0.812758 4.108874,-1.938582 5.616797,-3.720037 0.436843,-0.516462 0.793547,-1.100879 1.205847,-1.680669 0.77774,0.438285 1.57611,0.888155 2.45764,1.384776 -0.45609,0.659815 -0.86159,1.319371 -1.33862,1.922555 -1.16621,1.474757 -2.63734,2.595436 -4.27063,3.503322 -2.461039,1.368156 -5.118178,2.156521 -7.885546,2.604579 -0.05456,0.0087 -0.108559,0.02017 -0.241702,0.04535 0.395645,0.362885 0.729179,0.701158 1.096064,0.998273 0.687132,0.556213 1.38596,1.09947 2.099521,1.621112 0.139174,0.101981 0.38269,0.145168 0.553437,0.106568 1.418716,-0.320506 2.721544,-0.887934 3.81376,-1.899386 -0.09414,0.496436 -0.991908,1.75862 -2.251058,3.163568 0.790957,0.394054 1.5905,0.739211 2.335486,1.177017 0.964294,0.567021 1.886392,0.412709 2.83329,0.0034 1.599718,-0.691389 2.970248,-1.725049 4.282658,-2.847097 0.21272,-0.181924 0.4207,-0.369441 0.6714,-0.590006 z m 10.36617,-7.294243 c -4.48979,-1.99762 -8.94742,-3.980584 -13.43817,-5.978315 0.37148,-0.86195 0.95371,-1.517916 1.74067,-1.982185 1.31434,-0.775337 2.69034,-0.8621 4.0877,-0.253918 1.7946,0.780962 3.58687,1.568958 5.36288,2.391266 2.08735,0.966516 3.06886,3.140434 2.43383,5.298771 -0.0495,0.16786 -0.11717,0.330425 -0.18691,0.524381 z m -1.99378,-7.826398 c -1.4138,-0.629574 -2.80975,-1.25097 -4.20492,-1.874214 -0.0294,-0.01321 -0.0506,-0.04519 -0.0909,-0.08236 0.0521,-0.1056 0.10112,-0.211537 0.15594,-0.314511 1.74763,-3.277534 3.49573,-6.554885 5.24396,-9.832235 0.29251,-0.54844 0.6336,-0.714374 1.26321,-0.622394 0.57858,0.08435 1.06901,0.332278 1.44552,0.784741 0.24812,0.298073 0.30952,0.622615 0.17171,1.002084 -1.30458,3.590048 -2.60117,7.183127 -3.90078,10.774987 -0.0159,0.04418 -0.0425,0.08438 -0.0837,0.163899 z"
       inkscape:connector-curvature="0"
       style="fill:#6bc305;fill-opacity:1;stroke:none;stroke-width:0.03617119;stroke-opacity:1" /></g></svg>