<?xml version="1.0" encoding="UTF-8" standalone="no"?>
<svg
   xmlns:dc="http://purl.org/dc/elements/1.1/"
   xmlns:cc="http://creativecommons.org/ns#"
   xmlns:rdf="http://www.w3.org/1999/02/22-rdf-syntax-ns#"
   xmlns:svg="http://www.w3.org/2000/svg"
   xmlns="http://www.w3.org/2000/svg"
   xmlns:sodipodi="http://sodipodi.sourceforge.net/DTD/sodipodi-0.dtd"
   xmlns:inkscape="http://www.inkscape.org/namespaces/inkscape"
   viewBox="0 0 64 64"
   style="enable-background:new 0 0 64 64"
   version="1.1"
   id="svg18"
   sodipodi:docname="selfnetwork.svg"
   inkscape:version="0.92.2 5c3e80d, 2017-08-06">
  <metadata
     id="metadata24">
    <rdf:RDF>
      <cc:Work
         rdf:about="">
        <dc:format>image/svg+xml</dc:format>
        <dc:type
           rdf:resource="http://purl.org/dc/dcmitype/StillImage" />
      </cc:Work>
    </rdf:RDF>
  </metadata>
  <defs
     id="defs22" />
  <sodipodi:namedview
     pagecolor="#ffffff"
     bordercolor="#666666"
     borderopacity="1"
     objecttolerance="10"
     gridtolerance="10"
     guidetolerance="10"
     inkscape:pageopacity="0"
     inkscape:pageshadow="2"
     inkscape:window-width="1920"
     inkscape:window-height="1013"
     id="namedview20"
     showgrid="false"
     inkscape:zoom="10.429825"
     inkscape:cx="10.171663"
     inkscape:cy="27.318585"
     inkscape:window-x="0"
     inkscape:window-y="0"
     inkscape:window-maximized="1"
     inkscape:current-layer="svg18" />
  <path
     inkscape:connector-curvature="0"
     d="M 28.228956,50.10101 C 29.306397,49.239058 30.599327,48.700337 32,48.700337 c 1.400673,0 2.693603,0.430976 3.771044,1.400673 L 32,53.872054 28.228956,50.10101"
     style="fill:#6bc305;stroke-width:1.0774411;fill-opacity:1"
     id="path2" />
  <path
     inkscape:connector-curvature="0"
     d="m 32,49.239058 c 1.077441,0 2.047138,0.323232 3.016835,0.861952 L 32,53.117846 28.983165,50.10101 C 29.952862,49.56229 30.922559,49.239058 32,49.239058 m 0,-1.077442 c -1.616162,0 -3.340067,0.646465 -4.525253,1.939394 L 32,54.626263 36.525253,50.10101 C 35.340067,48.808081 33.616162,48.161616 32,48.161616 Z"
     style="fill:#569c04;stroke-width:1.0774411;fill-opacity:1"
     id="path4" />
  <path
     inkscape:connector-curvature="0"
     d="M 41.158249,44.713805 C 38.680135,42.451179 35.447812,41.158249 32,41.158249 c -3.447812,0 -6.680135,1.29293 -9.158249,3.555556 L 19.070707,40.942761 C 22.626262,37.602694 27.151515,35.771044 32,35.771044 c 4.848485,0 9.481482,1.83165 12.929293,5.171717 l -3.771044,3.771044"
     style="fill:#6bc305;stroke-width:1.0774411;fill-opacity:1"
     id="path6" />
  <path
     inkscape:connector-curvature="0"
     d="m 32,36.309764 c 4.525253,0 8.835017,1.616162 12.175084,4.632997 l -3.016835,3.016835 C 38.572391,41.804714 35.447812,40.619529 32,40.619529 c -3.447812,0 -6.572391,1.185185 -9.158249,3.340067 L 19.824916,40.942761 C 23.164983,37.925926 27.474747,36.309764 32,36.309764 m 0,-1.077441 c -4.956229,0 -9.912458,1.939394 -13.683502,5.710438 l 4.525253,4.525253 C 25.319865,42.989899 28.659933,41.69697 32,41.69697 c 3.340067,0 6.572391,1.292929 9.158249,3.771044 l 4.525253,-4.525253 C 41.912458,37.171717 36.956229,35.232323 32,35.232323 Z"
     style="fill:#569c04;stroke-width:1.0774411;fill-opacity:1"
     id="path8" />
  <path
     inkscape:connector-curvature="0"
     d="M 50.316499,35.555556 C 45.36027,30.814815 38.895623,28.228956 32,28.228956 c -6.895623,0 -13.36027,2.585859 -18.316499,7.3266 L 9.9124575,31.784512 C 15.838384,26.074074 23.703704,22.841751 32,22.841751 c 8.296296,0 16.161616,3.124579 22.087543,8.942761 l -3.771044,3.771044"
     style="fill:#6bc305;stroke-width:1.0774411;fill-opacity:1"
     id="path10" />
  <path
     inkscape:connector-curvature="0"
     d="m 32,23.380471 c 7.973064,0 15.515152,3.016835 21.333334,8.404041 l -3.016835,3.016835 C 45.252526,30.16835 38.787879,27.690236 32,27.690236 c -6.787879,0 -13.252526,2.478114 -18.316499,7.111111 L 10.666666,31.784512 C 16.484848,26.397306 24.026936,23.380471 32,23.380471 m 0,-1.077441 c -8.296296,0 -16.592593,3.124579 -22.8417513,9.481482 l 4.5252523,4.525252 C 18.747474,31.245791 25.319865,28.767677 32,28.767677 c 6.680135,0 13.252526,2.478114 18.316499,7.542087 l 4.525252,-4.525252 C 48.592593,25.427609 40.296296,22.30303 32,22.30303 Z"
     style="fill:#569c04;stroke-width:1.0774411;fill-opacity:1"
     id="path12" />
  <path
     inkscape:connector-curvature="0"
     d="M 59.474748,26.397306 C 52.040404,19.286195 42.343435,15.299663 32,15.299663 c -10.343435,0 -20.040404,3.986532 -27.4747481,11.097643 L 0.7542081,22.626262 C 9.1582487,14.43771 20.255892,9.9124575 32,9.9124575 c 11.744108,0 22.841751,4.5252525 31.245792,12.7138045 l -3.771044,3.771044"
     style="fill:#6bc305;stroke-width:1.0774411;fill-opacity:1"
     id="path14" />
  <path
     inkscape:connector-curvature="0"
     d="m 32,10.451178 c 11.420876,0 22.195287,4.309764 30.491583,12.175084 l -3.016835,3.016836 C 51.93266,18.63973 42.23569,14.760942 32,14.760942 c -10.23569,0 -19.93266,3.878788 -27.3670039,10.882156 L 1.616161,22.626262 C 9.8047133,14.760942 20.579124,10.451178 32,10.451178 M 32,9.3737369 C 20.363636,9.3737369 8.8350164,13.791245 -6.7e-7,22.626262 L 4.5252519,27.151515 C 12.06734,19.609427 21.979798,15.838384 32,15.838384 c 10.020202,0 19.824916,3.771043 27.474748,11.313131 l 4.525253,-4.525253 C 55.164984,13.791245 43.52862,9.3737369 32,9.3737369 Z"
     style="fill:#569c04;stroke-width:1.0774411;fill-opacity:1;stroke:none;stroke-opacity:1"
     id="path16" />
</svg>
