<?xml version="1.0" encoding="UTF-8" standalone="no"?>
<svg
   xmlns:osb="http://www.openswatchbook.org/uri/2009/osb"
   xmlns:dc="http://purl.org/dc/elements/1.1/"
   xmlns:cc="http://creativecommons.org/ns#"
   xmlns:rdf="http://www.w3.org/1999/02/22-rdf-syntax-ns#"
   xmlns:svg="http://www.w3.org/2000/svg"
   xmlns="http://www.w3.org/2000/svg"
   xmlns:sodipodi="http://sodipodi.sourceforge.net/DTD/sodipodi-0.dtd"
   xmlns:inkscape="http://www.inkscape.org/namespaces/inkscape"
   width="64"
   height="64"
   id="svg2"
   version="1.1"
   inkscape:version="0.92.2 5c3e80d, 2017-08-06"
   sodipodi:docname="selfenergy.svg">
  <metadata
     id="metadata58">
    <rdf:RDF>
      <cc:Work
         rdf:about="">
        <dc:format>image/svg+xml</dc:format>
        <dc:type
           rdf:resource="http://purl.org/dc/dcmitype/StillImage" />
        <dc:title />
      </cc:Work>
    </rdf:RDF>
  </metadata>
  <sodipodi:namedview
     pagecolor="#ffffff"
     bordercolor="#666666"
     borderopacity="1"
     objecttolerance="10"
     gridtolerance="10"
     guidetolerance="10"
     inkscape:pageopacity="0"
     inkscape:pageshadow="2"
     inkscape:window-width="1232"
     inkscape:window-height="705"
     id="namedview56"
     showgrid="false"
     showguides="false"
     inkscape:zoom="6.9532166"
     inkscape:cx="7.0612433"
     inkscape:cy="35.785213"
     inkscape:window-x="491"
     inkscape:window-y="166"
     inkscape:window-maximized="0"
     inkscape:current-layer="svg2" />
  <defs
     id="defs4">
    <linearGradient
       id="linearGradient4279"
       osb:paint="solid">
      <stop
         style="stop-color:#000000;stop-opacity:1;"
         offset="0"
         id="stop4281" />
    </linearGradient>
    <linearGradient
       id="e"
       y1="23"
       x1="24"
       y2="39"
       x2="40"
       gradientUnits="userSpaceOnUse">
      <stop
         stop-color="#292c2f"
         id="stop27"
         style="stop-color:#ffa701;stop-opacity:1" />
      <stop
         offset="1"
         stop-opacity="0"
         id="stop29"
         style="stop-color:#ff9100;stop-opacity:1" />
    </linearGradient>
  </defs>
  <g
     id="g4285"
     transform="matrix(1.6006212,0,0,1.6006212,-6.4149664,-6.4147127)">
    <path
       inkscape:connector-curvature="0"
       style="color:#000000;opacity:0.98000004;fill:#ff9300;fill-opacity:1;stroke-width:3;stroke-linejoin:round"
       id="path38"
       d="m 21.951885,43.88376 a 20,20 0 0 0 4.097059,0.0059 l 0.475,-3.1 a 17,17 0 0 0 3.687344,-0.985474 l 1.956,2.441 a 20,20 0 0 0 3.54897,-2.053782 l -1.135,-2.911 a 17,17 0 0 0 2.709819,-2.695171 l 2.893,1.127 a 20,20 0 0 0 2.050081,-3.553369 l -2.422,-1.941 a 17,17 0 0 0 0.608591,-1.818511 17,17 0 0 0 0.369366,-1.876546 l 3.094,-0.475 a 20,20 0 0 0 0.0059,-4.097059 l -3.1,-0.475 a 17,17 0 0 0 -0.985474,-3.687344 l 2.441,-1.956 a 20,20 0 0 0 -2.053782,-3.54897 l -2.911,1.135 a 17,17 0 0 0 -2.694886,-2.70962 L 35.713,7.816 A 20,20 0 0 0 32.15947,5.765905 L 30.22,8.188 A 17,17 0 0 0 28.399924,7.579261 17,17 0 0 0 26.523378,7.209895 L 26.05,4.116 A 20,20 0 0 0 21.952942,4.11009 L 21.476,7.21 A 17,17 0 0 0 17.788962,8.195745 L 15.833,5.755 a 20,20 0 0 0 -3.54897,2.053784 l 1.135,2.911 a 17,17 0 0 0 -2.709819,2.695171 L 7.816,12.287 a 20,20 0 0 0 -2.050081,3.553369 l 2.422,1.941 A 17,17 0 0 0 7.579328,19.59988 17,17 0 0 0 7.209962,21.476426 l -3.094,0.475 a 20,20 0 0 0 -0.00591,4.097058 l 3.1,0.475 a 17,17 0 0 0 0.985475,3.687344 l -2.441,1.956 a 20,20 0 0 0 2.053784,3.54897 l 2.911,-1.135 a 17,17 0 0 0 2.695171,2.709819 l -1.127,2.893 a 20,20 0 0 0 3.553369,2.050081 l 1.941,-2.422 a 17,17 0 0 0 1.818511,0.608591 17,17 0 0 0 1.876546,0.369366 z m -1.575352,-6.360798 a 14,14 0 0 1 -9.899495,-17.14643 14,14 0 0 1 17.14643,-9.899495 14,14 0 0 1 9.899495,17.14643 14,14 0 0 1 -17.14643,9.899495" />
    <path
       style="fill:#ff9300;fill-opacity:1"
       id="path10"
       d="m 24.531023,13.296594 c -0.01753,0.03508 -1.30491,2.481334 -2.861552,5.442441 l -2.832621,5.389816 h 1.902007 c 1.52156,0 1.896083,0.01753 1.878541,0.07609 -0.01753,0.07017 -5.214172,10.17684 -5.647243,10.984211 l -0.204804,0.380443 0.204804,-0.204804 c 0.111172,-0.111173 3.148368,-3.417642 6.741655,-7.344447 l 6.536852,-7.139415 -2.463792,-0.02916 -2.463792,-0.02916 2.416862,-3.62837 c 1.334298,-1.995637 2.469488,-3.698536 2.522113,-3.792167 l 0.105249,-0.158102 h -2.896636 c -1.755523,0 -2.914406,0.02346 -2.937643,0.05262 z"
       inkscape:connector-curvature="0" />
  </g>
</svg>
