<?xml version="1.0" encoding="UTF-8" standalone="no"?>
<svg
   xmlns:osb="http://www.openswatchbook.org/uri/2009/osb"
   xmlns:dc="http://purl.org/dc/elements/1.1/"
   xmlns:cc="http://creativecommons.org/ns#"
   xmlns:rdf="http://www.w3.org/1999/02/22-rdf-syntax-ns#"
   xmlns:svg="http://www.w3.org/2000/svg"
   xmlns="http://www.w3.org/2000/svg"
   xmlns:sodipodi="http://sodipodi.sourceforge.net/DTD/sodipodi-0.dtd"
   xmlns:inkscape="http://www.inkscape.org/namespaces/inkscape"
   width="64"
   height="64"
   id="svg2"
   version="1.1"
   inkscape:version="0.91 r13725"
   sodipodi:docname="selfautomode-on.svg">
  <metadata
     id="metadata58">
    <rdf:RDF>
      <cc:Work
         rdf:about="">
        <dc:format>image/svg+xml</dc:format>
        <dc:type
           rdf:resource="http://purl.org/dc/dcmitype/StillImage" />
        <dc:title />
      </cc:Work>
    </rdf:RDF>
  </metadata>
  <sodipodi:namedview
     pagecolor="#ffffff"
     bordercolor="#666666"
     borderopacity="1"
     objecttolerance="10"
     gridtolerance="10"
     guidetolerance="10"
     inkscape:pageopacity="0"
     inkscape:pageshadow="2"
     inkscape:window-width="1920"
     inkscape:window-height="1015"
     id="namedview56"
     showgrid="false"
     showguides="false"
     inkscape:zoom="7.1906339"
     inkscape:cx="-44.570385"
     inkscape:cy="22.863161"
     inkscape:window-x="1920"
     inkscape:window-y="0"
     inkscape:window-maximized="1"
     inkscape:current-layer="svg2" />
  <defs
     id="defs4">
    <linearGradient
       id="linearGradient4279"
       osb:paint="solid">
      <stop
         style="stop-color:#000000;stop-opacity:1;"
         offset="0"
         id="stop4281" />
    </linearGradient>
    <linearGradient
       id="e"
       y1="23"
       x1="24"
       y2="39"
       x2="40"
       gradientUnits="userSpaceOnUse">
      <stop
         stop-color="#292c2f"
         id="stop27"
         style="stop-color:#ffa701;stop-opacity:1" />
      <stop
         offset="1"
         stop-opacity="0"
         id="stop29"
         style="stop-color:#ff9100;stop-opacity:1" />
    </linearGradient>
  </defs>
  <path
     d="m 28.773799,63.320603 a 31.503098,31.503512 0 0 0 6.453501,0.0092 l 0.748198,-4.883046 a 26.777634,26.777986 0 0 0 5.808141,-1.552289 l 3.081002,3.844999 a 31.503098,31.503512 0 0 0 5.590175,-3.235065 l -1.787798,-4.585328 a 26.777634,26.777986 0 0 0 4.268381,-4.245368 l 4.556926,1.775223 a 31.503098,31.503512 0 0 0 3.229199,-5.597182 l -3.81503,-3.057414 a 26.777634,26.777986 0 0 0 0.958629,-2.864475 26.777634,26.777986 0 0 0 0.581806,-2.955888 l 4.873528,-0.748208 a 31.503098,31.503512 0 0 0 0.0095,-6.453589 l -4.883065,-0.748042 a 26.777634,26.777986 0 0 0 -1.552275,-5.808216 l 3.844955,-3.081047 A 31.503098,31.503512 0 0 0 57.504547,13.54462 L 52.91927,15.332444 A 26.777634,26.777986 0 0 0 48.674348,11.064339 L 50.449746,6.5076476 A 31.503098,31.503512 0 0 0 44.852305,3.2782942 l -3.054967,3.8152256 a 26.777634,26.777986 0 0 0 -2.8669,-0.958872 26.777634,26.777986 0 0 0 -2.955851,-0.5818162 L 35.228941,0.67940674 a 31.503098,31.503512 0 0 0 -6.453497,-0.00922 L 28.024182,5.5530954 A 26.777634,26.777986 0 0 0 22.216529,7.1058165 L 19.135588,3.2611612 a 31.503098,31.503512 0 0 0 -5.590183,3.2350704 l 1.787806,4.5853394 a 26.777634,26.777986 0 0 0 -4.268384,4.245368 L 6.5075699,13.550176 a 31.503098,31.503512 0 0 0 -3.2291956,5.59718 l 3.8150236,3.057419 a 26.777634,26.777986 0 0 0 -0.9586242,2.864474 26.777634,26.777986 0 0 0 -0.5818065,2.95589 l -4.87353059,0.74821 a 31.503098,31.503512 0 0 0 -0.00929,6.453586 L 5.5531236,35.975143 A 26.777634,26.777986 0 0 0 7.1053987,41.78336 L 3.260455,44.864403 a 31.503098,31.503512 0 0 0 3.2350241,5.590248 l 4.5852779,-1.787824 a 26.777634,26.777986 0 0 0 4.245311,4.268442 l -1.775198,4.556982 a 31.503098,31.503512 0 0 0 5.597107,3.229241 l 3.057384,-3.815077 a 26.777634,26.777986 0 0 0 2.864436,0.958638 26.777634,26.777986 0 0 0 2.955852,0.581812 z M 26.292373,53.301226 A 22.052167,22.05246 0 0 1 10.699136,26.292588 22.052167,22.05246 0 0 1 37.707418,10.699146 22.052167,22.05246 0 0 1 53.30066,37.707781 22.052167,22.05246 0 0 1 26.292373,53.301226"
     id="path38"
     style="color:#000000;opacity:0.98000004;fill:#6bc206;fill-opacity:1;stroke:#569b05;stroke-width:1.01814294;stroke-linejoin:round;stroke-miterlimit:4;stroke-dasharray:none;stroke-opacity:1"
     inkscape:connector-curvature="0" />
  <path
     style="opacity:1;fill:#d72a2a;fill-opacity:1;stroke:none;stroke-width:0.80069816;stroke-linecap:square;stroke-linejoin:round;stroke-miterlimit:10;stroke-dasharray:none;stroke-opacity:1"
     d="m 26.450141,17.735971 0,28.528045 14.437734,-14.26402 z"
     id="rect972"
     inkscape:connector-curvature="0" />
</svg>
