<?xml version="1.0" encoding="UTF-8" standalone="no"?>
<svg
   xmlns:dc="http://purl.org/dc/elements/1.1/"
   xmlns:cc="http://creativecommons.org/ns#"
   xmlns:rdf="http://www.w3.org/1999/02/22-rdf-syntax-ns#"
   xmlns:svg="http://www.w3.org/2000/svg"
   xmlns="http://www.w3.org/2000/svg"
   xmlns:sodipodi="http://sodipodi.sourceforge.net/DTD/sodipodi-0.dtd"
   xmlns:inkscape="http://www.inkscape.org/namespaces/inkscape"
   viewBox="0 0 64 64"
   style="enable-background:new 0 0 64 64"
   version="1.1"
   id="svg14"
   sodipodi:docname="selflight.svg"
   inkscape:version="0.92.2 5c3e80d, 2017-08-06">
  <metadata
     id="metadata20">
    <rdf:RDF>
      <cc:Work
         rdf:about="">
        <dc:format>image/svg+xml</dc:format>
        <dc:type
           rdf:resource="http://purl.org/dc/dcmitype/StillImage" />
      </cc:Work>
    </rdf:RDF>
  </metadata>
  <defs
     id="defs18" />
  <sodipodi:namedview
     pagecolor="#ffffff"
     bordercolor="#666666"
     borderopacity="1"
     objecttolerance="10"
     gridtolerance="10"
     guidetolerance="10"
     inkscape:pageopacity="0"
     inkscape:pageshadow="2"
     inkscape:window-width="1920"
     inkscape:window-height="1013"
     id="namedview16"
     showgrid="false"
     inkscape:zoom="5.6568542"
     inkscape:cx="43.657008"
     inkscape:cy="34.595547"
     inkscape:window-x="0"
     inkscape:window-y="0"
     inkscape:window-maximized="1"
     inkscape:current-layer="svg14" />
  <g
     style="fill:#9b9c9e;fill-opacity:1"
     id="g10"
     transform="matrix(1.2046292,0,0,0.941192,-6.5481348,1.91126)">
    <path
       inkscape:connector-curvature="0"
       d="m 37.25,50 h -10.5 c -0.55,0 -1,-0.45 -1,-1 0,-0.55 0.45,-1 1,-1 h 10.5 c 0.55,0 1,0.45 1,1 0,0.55 -0.45,1 -1,1"
       id="path2"
       style="fill:#9b9c9e;fill-opacity:1" />
    <path
       inkscape:connector-curvature="0"
       d="m 37.25,53 h -10.5 c -0.55,0 -1,-0.45 -1,-1 0,-0.55 0.45,-1 1,-1 h 10.5 c 0.55,0 1,0.45 1,1 0,0.55 -0.45,1 -1,1"
       id="path4"
       style="fill:#9b9c9e;fill-opacity:1" />
    <path
       inkscape:connector-curvature="0"
       d="M 37.07,56 H 26.93 c -0.65,0 -1.18,-0.53 -1.18,-1.18 0,-0.45 0.37,-0.82 0.82,-0.82 h 10.85 c 0.45,0 0.82,0.37 0.82,0.82 0.01,0.65 -0.52,1.18 -1.17,1.18"
       id="path6"
       style="fill:#9b9c9e;fill-opacity:1" />
    <path
       inkscape:connector-curvature="0"
       d="m 32,60 c 2.21,0 4,-1.34 4,-3 h -8 c 0,1.66 1.79,3 4,3"
       id="path8"
       style="fill:#9b9c9e;fill-opacity:1" />
  </g>
  <path
     inkscape:connector-curvature="0"
     d="M 48.649664,21.280991 C 48.649664,13.177328 41.198939,6.61722 32,6.61722 c -9.19894,0 -16.649664,6.560108 -16.649664,14.663771 0,2.569455 0.749235,4.978906 2.060396,7.068352 0.801265,1.402376 1.373597,2.409452 1.737808,3.04005 0.749235,1.317669 1.186289,2.080035 1.727403,3.218877 0.228933,0.480008 0.572332,1.204726 0.894919,2.032975 1.279943,3.28476 1.769027,6.418929 1.769027,6.418929 0,0 0.239339,1.637674 1.207101,2.437688 0.270557,0.225886 0.541114,0.357652 0.676392,0.414124 0.468272,0.19765 0.89492,0.235298 1.155071,0.235298 0.166496,0 0.332993,0 0.49949,0 h 4.849214 0.135279 4.849215 c 0.166496,0 0.332993,0 0.49949,0 0.249744,0 0.686798,-0.03765 1.15507,-0.235298 0.135278,-0.05647 0.405835,-0.188238 0.676393,-0.414124 0.967761,-0.800014 1.2071,-2.437688 1.2071,-2.437688 0,0 0.489084,-3.134169 1.769027,-6.418929 0.322587,-0.828249 0.665987,-1.552967 0.894919,-2.032975 0.541114,-1.138842 0.978168,-1.901208 1.727403,-3.218877 0.364211,-0.64001 0.936544,-1.637674 1.737809,-3.04005 1.321567,-2.098858 2.070802,-4.508309 2.070802,-7.068352"
     style="fill:#dae1e4;stroke-width:0.98965055"
     id="path12" />
</svg>
