<?xml version="1.0" encoding="UTF-8" standalone="no"?>
<svg
   xmlns:dc="http://purl.org/dc/elements/1.1/"
   xmlns:cc="http://creativecommons.org/ns#"
   xmlns:rdf="http://www.w3.org/1999/02/22-rdf-syntax-ns#"
   xmlns:svg="http://www.w3.org/2000/svg"
   xmlns="http://www.w3.org/2000/svg"
   xmlns:sodipodi="http://sodipodi.sourceforge.net/DTD/sodipodi-0.dtd"
   xmlns:inkscape="http://www.inkscape.org/namespaces/inkscape"
   viewBox="0 0 64 64"
   style="enable-background:new 0 0 64 64"
   version="1.1"
   id="svg14"
   sodipodi:docname="selfwater-off.svg"
   inkscape:version="0.92.2 5c3e80d, 2017-08-06">
  <metadata
     id="metadata20">
    <rdf:RDF>
      <cc:Work
         rdf:about="">
        <dc:format>image/svg+xml</dc:format>
        <dc:type
           rdf:resource="http://purl.org/dc/dcmitype/StillImage" />
      </cc:Work>
    </rdf:RDF>
  </metadata>
  <defs
     id="defs18" />
  <sodipodi:namedview
     pagecolor="#ffffff"
     bordercolor="#666666"
     borderopacity="1"
     objecttolerance="10"
     gridtolerance="10"
     guidetolerance="10"
     inkscape:pageopacity="0"
     inkscape:pageshadow="2"
     inkscape:window-width="1920"
     inkscape:window-height="1013"
     id="namedview16"
     showgrid="false"
     inkscape:zoom="10.429825"
     inkscape:cx="47.414039"
     inkscape:cy="31.472258"
     inkscape:window-x="0"
     inkscape:window-y="0"
     inkscape:window-maximized="1"
     inkscape:current-layer="svg14" />
  <path
     d="m38.5 26.5c0 0-.1 0-.2 0-.2 0-.3 0-.4-.1h-.1c-2.3-.4-4.2-2.7-4.4-5.2v-.8c.1-.4.2-.9.3-1.4.2-.3.4-.7.6-1.1l.7-1c1.6-1.9 2.9-3.8 3.8-5.8 1 2.4 2.6 4.5 3.9 6.1.1.2.3.5.6.8.2.4.5.9.8 1.3.1.3.2.8.3 1.2v.6c0 .1 0 .2 0 .3 0 0 0 .1 0 .1v.1.1c-.3 2.2-2.1 4.3-4.3 4.7h-.1c-.1 0-.2.1-.4.1-.1 0-.2 0-.2 0h-.9"
     style="fill:#8e8e8e;fill-opacity:1"
     id="path2" />
  <path
     d="m39 12.3c1 2.1 2.4 3.8 3.5 5.2.2.3.4.5.5.7.3.4.5.8.7 1.3.1.3.2.7.2 1v.6c0 .1 0 .2 0 .3v.1c-.2 2-1.9 3.9-3.9 4.3h-.1-.1c0 0-.2 0-.3 0-.1 0-.1 0-.2 0h-.8c-.1 0-.1 0-.2 0-.1 0-.2 0-.3 0h-.1-.1c-2.1-.4-3.8-2.5-3.9-4.7v-.7c.1-.4.2-.8.3-1.2.2-.4.4-.7.6-1l.7-1c1.4-1.6 2.6-3.2 3.5-4.9m.1-2.3c-1.1 2.4-2.6 4.6-4.3 6.7l-.8 1c-.2.4-.4.8-.6 1.2-.2.5-.3 1-.4 1.5v.8c.1 2.6 2.2 5.2 4.8 5.6.2.2.5.2.7.2h.9c.2 0 .5 0 .8-.1 2.4-.4 4.4-2.7 4.7-5.1.1-.1 0-.3.1-.5v-.8c-.1-.5-.2-.9-.3-1.4-.2-.5-.5-1-.8-1.5-.2-.2-.4-.5-.6-.8-1.6-1.9-3-4-3.9-6.3l-.3-.5z"
     style="fill:#757575;fill-opacity:1"
     id="path4" />
  <path
     d="m20.5 40c0 0-.1 0-.2 0-.2 0-.3 0-.4-.1h-.1c-2.3-.4-4.2-2.7-4.4-5.2v-.8c.1-.4.2-.9.3-1.4.2-.3.4-.7.6-1.1l.7-1c1.6-1.9 2.9-3.8 3.8-5.8 1 2.4 2.6 4.5 3.9 6.1.1.2.3.5.6.8.2.4.5.9.8 1.3.1.3.2.8.3 1.2v.6c0 .1 0 .2 0 .3 0 0 0 .1 0 .1v.1.1c-.3 2.2-2.1 4.3-4.3 4.7h-.1c-.1 0-.2.1-.4.1-.1 0-.2 0-.2 0h-.9"
     style="fill:#8e8e8e;fill-opacity:1"
     id="path6" />
  <path
     d="m21 25.8c1 2.1 2.4 3.8 3.5 5.2.2.3.4.5.5.7.3.4.5.8.7 1.3.1.3.2.7.2 1v.6c0 .1 0 .2 0 .3v.1c-.2 2-1.9 3.9-3.9 4.3h-.1-.1c0 0-.2 0-.3 0-.1 0-.1 0-.2 0h-.8c-.1 0-.1 0-.2 0-.1 0-.2 0-.3 0h-.1-.1c-2.1-.4-3.8-2.5-3.9-4.7v-.6c.1-.4.2-.8.3-1.2.2-.4.4-.7.6-1l.7-1c1.4-1.7 2.6-3.3 3.5-5m.1-2.3c-1.1 2.4-2.6 4.6-4.3 6.7l-.8 1c-.2.4-.4.8-.6 1.2-.2.5-.3 1-.4 1.5v.8c.1 2.6 2.2 5.2 4.8 5.6.2.1.5.1.8.1h.9c.2 0 .5 0 .8-.1 2.4-.4 4.4-2.7 4.7-5.1.1-.1 0-.3.1-.5v-.7c-.1-.5-.2-.9-.3-1.4-.2-.5-.5-1-.8-1.5-.2-.2-.4-.5-.6-.8-1.6-1.9-3-4-3.9-6.3l-.4-.5z"
     style="fill:#757575;fill-opacity:1"
     id="path8" />
  <path
     d="m38.5 53.5c0 0-.1 0-.2 0-.2 0-.3 0-.4-.1h-.1c-2.3-.4-4.2-2.7-4.4-5.2v-.8c.1-.4.2-.9.3-1.4.2-.3.4-.7.6-1.1l.7-1c1.6-1.9 2.9-3.8 3.8-5.8 1 2.4 2.6 4.5 3.9 6.1.1.2.3.5.6.8.2.4.5.9.8 1.3.1.3.2.8.3 1.2v.6c0 .1 0 .2 0 .3 0 0 0 .1 0 .1v.1.1c-.3 2.2-2.1 4.3-4.3 4.7h-.1c-.1 0-.2.1-.4.1-.1 0-.2 0-.2 0h-.9"
     style="fill:#8e8e8e;fill-opacity:1"
     id="path10" />
  <path
     d="m39 39.3c1 2.1 2.4 3.8 3.5 5.2.2.3.4.5.5.7.3.4.5.8.7 1.3.1.3.2.7.2 1v.6c0 .1 0 .2 0 .3v.1c-.2 2-1.9 3.9-3.9 4.3h-.1-.1c0 0-.2 0-.3 0-.1 0-.1 0-.2 0h-.8c-.1 0-.1 0-.2 0-.1 0-.2 0-.3 0h-.1-.1c-2.1-.4-3.8-2.5-3.9-4.7v-.7c.1-.4.2-.8.3-1.2.2-.4.4-.7.6-1l.7-1c1.4-1.6 2.6-3.2 3.5-4.9m.1-2.3c-1.1 2.4-2.6 4.6-4.3 6.7l-.8 1c-.2.4-.4.8-.6 1.2-.2.5-.3 1-.4 1.5v.8c.1 2.6 2.2 5.2 4.8 5.6.2.2.5.2.7.2h.9c.2 0 .5 0 .8-.1 2.4-.4 4.4-2.7 4.7-5.1.1-.1 0-.3.1-.5v-.8c-.1-.5-.2-.9-.3-1.4-.2-.5-.5-1-.8-1.5-.2-.2-.4-.5-.6-.8-1.6-1.9-3-4-3.9-6.3l-.3-.5z"
     style="fill:#757575;fill-opacity:1"
     id="path12" />
</svg>
