<?xml version="1.0" encoding="UTF-8" standalone="no"?>
<svg
   xmlns:dc="http://purl.org/dc/elements/1.1/"
   xmlns:cc="http://creativecommons.org/ns#"
   xmlns:rdf="http://www.w3.org/1999/02/22-rdf-syntax-ns#"
   xmlns:svg="http://www.w3.org/2000/svg"
   xmlns="http://www.w3.org/2000/svg"
   xmlns:sodipodi="http://sodipodi.sourceforge.net/DTD/sodipodi-0.dtd"
   xmlns:inkscape="http://www.inkscape.org/namespaces/inkscape"
   viewBox="0 0 64 64"
   style="enable-background:new 0 0 64 64"
   id="svg2"
   version="1.1"
   inkscape:version="0.91 r13725"
   sodipodi:docname="selfhouse.svg">
  <metadata
     id="metadata81">
    <rdf:RDF>
      <cc:Work
         rdf:about="">
        <dc:format>image/svg+xml</dc:format>
        <dc:type
           rdf:resource="http://purl.org/dc/dcmitype/StillImage" />
      </cc:Work>
    </rdf:RDF>
  </metadata>
  <sodipodi:namedview
     pagecolor="#ffffff"
     bordercolor="#666666"
     borderopacity="1"
     objecttolerance="10"
     gridtolerance="10"
     guidetolerance="10"
     inkscape:pageopacity="0"
     inkscape:pageshadow="2"
     inkscape:window-width="1920"
     inkscape:window-height="1015"
     id="namedview79"
     showgrid="false"
     inkscape:zoom="7.375"
     inkscape:cx="12.426326"
     inkscape:cy="53.038609"
     inkscape:window-x="1920"
     inkscape:window-y="0"
     inkscape:window-maximized="1"
     inkscape:current-layer="g4223" />
  <defs
     id="defs4">
    <linearGradient
       id="0"
       gradientUnits="userSpaceOnUse"
       x1="3"
       x2="61">
      <stop
         style="stop-color:#fff;stop-opacity:0"
         id="stop7" />
      <stop
         offset=".2"
         id="stop9" />
      <stop
         offset=".8"
         id="stop11" />
      <stop
         offset="1"
         style="stop-color:#fff;stop-opacity:0"
         id="stop13" />
    </linearGradient>
  </defs>
  <g
     id="g4223"
     transform="matrix(1.1,0,0,1.1,-3.2,4.136189)">
    <path
       inkscape:connector-curvature="0"
       id="path17"
       style="fill:#f0f0f0"
       d="M 12.5,46.992524 12.8698,13.199517 32,4.6 l 19.5,8.722784 0,33.66974 z"
       sodipodi:nodetypes="cccccc" />
    <path
       sodipodi:nodetypes="ccccccccccccc"
       inkscape:connector-curvature="0"
       id="path19"
       style="fill:#c8c8c8"
       d="M 32,5.1 51,14.6 51.813559,45.983051 11.915254,46.525424 13,14.6 32,5.1 M 32,4 12,14 l 0,32.983051 40,0 L 52,14 32,4 Z" />
    <path
       id="path21"
       style="fill:#f0f0f0"
       d="m 12.5,33.5 39,0 0,13 -39,0 z"
       inkscape:connector-curvature="0" />
    <path
       id="path23"
       style="fill:#c8c8c8"
       d="m 51,34 0,12 -38,0 0,-12 38,0 m 1,-1 -40,0 0,14 40,0 0,-14 z"
       inkscape:connector-curvature="0" />
    <path
       id="path25"
       style="fill:#f0f0f0"
       d="m 12.5,20.5 39,0 0,13 -39,0 z"
       inkscape:connector-curvature="0" />
    <path
       id="path27"
       style="fill:#c8c8c8"
       d="m 51,21 0,12 -38,0 0,-12 38,0 m 1,-1 -40,0 0,14 40,0 0,-14 z"
       inkscape:connector-curvature="0" />
    <path
       id="path29"
       style="fill:#f0f0f0"
       d="m 17.4,23.4 5.1,0 0,6.1 -5.1,0 z"
       inkscape:connector-curvature="0" />
    <path
       id="path31"
       style="fill:#c8c8c8"
       d="m 22.1,23.9 0,5.3 -4.3,0 0,-5.3 4.3,0 M 23,23 l -6,0 0,7 6,0 0,-7 z"
       inkscape:connector-curvature="0" />
    <path
       id="path33"
       style="fill:#f0f0f0"
       d="m 22.4,23.4 5.1,0 0,6.1 -5.1,0 z"
       inkscape:connector-curvature="0" />
    <path
       id="path35"
       style="fill:#c8c8c8"
       d="m 27.1,23.9 0,5.3 -4.3,0 0,-5.3 4.3,0 M 28,23 l -6,0 0,7 6,0 0,-7 z"
       inkscape:connector-curvature="0" />
    <path
       id="path37"
       style="fill:#f0f0f0"
       d="m 40.5,36.5 6,0 0,10 -6,0 z"
       inkscape:connector-curvature="0" />
    <path
       id="path39"
       style="fill:#c8c8c8"
       d="m 46,37 0,9 -5,0 0,-9 5,0 m 1,-1 -7,0 0,11 7,0 0,-11 z"
       inkscape:connector-curvature="0" />
    <path
       id="path41"
       style="fill:#f0f0f0"
       d="m 31.4,23.4 5.1,0 0,6.1 -5.1,0 z"
       inkscape:connector-curvature="0" />
    <path
       id="path43"
       style="fill:#c8c8c8"
       d="m 36.1,23.9 0,5.3 -4.3,0 0,-5.3 4.3,0 M 37,23 l -6,0 0,7 6,0 0,-7 z"
       inkscape:connector-curvature="0" />
    <path
       id="path45"
       style="fill:#f0f0f0"
       d="m 17.4,36.4 5.1,0 0,6.1 -5.1,0 z"
       inkscape:connector-curvature="0" />
    <path
       id="path47"
       style="fill:#c8c8c8"
       d="m 22.1,36.9 0,5.3 -4.3,0 0,-5.3 4.3,0 M 23,36 l -6,0 0,7 6,0 0,-7 z"
       inkscape:connector-curvature="0" />
    <path
       id="path49"
       style="fill:#f0f0f0"
       d="m 22.4,36.4 5.1,0 0,6.1 -5.1,0 z"
       inkscape:connector-curvature="0" />
    <path
       id="path51"
       style="fill:#c8c8c8"
       d="m 27.1,36.9 0,5.3 -4.3,0 0,-5.3 4.3,0 M 28,36 l -6,0 0,7 6,0 0,-7 z"
       inkscape:connector-curvature="0" />
    <path
       id="path53"
       style="fill:#f0f0f0"
       d="m 31.4,36.4 5.1,0 0,6.1 -5.1,0 z"
       inkscape:connector-curvature="0" />
    <path
       id="path55"
       style="fill:#c8c8c8"
       d="m 36.1,36.9 0,5.3 -4.3,0 0,-5.3 4.3,0 M 37,36 l -6,0 0,7 6,0 0,-7 z"
       inkscape:connector-curvature="0" />
    <path
       id="path57"
       style="fill:#f0f0f0"
       d="m 40.5,23.5 6.1,0 0,6.1 -6.1,0 z"
       inkscape:connector-curvature="0" />
    <g
       id="g59"
       style="fill:#c8c8c8">
      <path
         id="path61"
         d="m 46.1,23.9 0,5.1 -5.1,0 0,-5.1 5.1,0 M 47,23 l -7,0 0,7 7,0 0,-7 z"
         inkscape:connector-curvature="0" />
      <path
         id="path63"
         d="m 44,41 1,0 0,1 -1,0 z"
         inkscape:connector-curvature="0" />
    </g>
    <path
       id="path65"
       style="fill:#f0f0f0"
       d="m 12.5,20.5 0,-6.2 19.5,-9.7 19.5,9.7 0,6.2 z"
       inkscape:connector-curvature="0" />
    <path
       id="path67"
       style="fill:#c8c8c8"
       d="m 32,5.1 19,9.5 0,5.4 -38,0 0,-5.4 19,-9.5 M 32,4 12,14 12,21 52,21 52,14 32,4 Z"
       inkscape:connector-curvature="0" />
    <path
       id="path69"
       style="fill:none;stroke:#2e7de5;stroke-width:1.5;stroke-miterlimit:10"
       d="M 58,17.5 32,4.5 6,17.5"
       inkscape:connector-curvature="0" />
    <path
       id="path71"
       style="fill:#f0f0f0"
       d="m 25.5,12.5 5,0 0,5 -5,0 z"
       inkscape:connector-curvature="0" />
    <path
       id="path73"
       style="fill:#c8c8c8"
       d="m 30,13 0,4 -4,0 0,-4 4,0 m 1,-1 -6,0 0,6 6,0 0,-6 z"
       inkscape:connector-curvature="0" />
    <path
       id="path75"
       style="fill:#f0f0f0"
       d="m 33.5,12.5 5,0 0,5 -5,0 z"
       inkscape:connector-curvature="0" />
    <path
       id="path77"
       style="fill:#c8c8c8"
       d="m 38,13 0,4 -4,0 0,-4 4,0 m 1,-1 -6,0 0,6 6,0 0,-6 z"
       inkscape:connector-curvature="0" />
  </g>
</svg>
