<?xml version="1.0" encoding="UTF-8" standalone="no"?>
<svg
   xmlns:dc="http://purl.org/dc/elements/1.1/"
   xmlns:cc="http://creativecommons.org/ns#"
   xmlns:rdf="http://www.w3.org/1999/02/22-rdf-syntax-ns#"
   xmlns:svg="http://www.w3.org/2000/svg"
   xmlns="http://www.w3.org/2000/svg"
   xmlns:sodipodi="http://sodipodi.sourceforge.net/DTD/sodipodi-0.dtd"
   xmlns:inkscape="http://www.inkscape.org/namespaces/inkscape"
   viewBox="0 0 64 64"
   style="enable-background:new 0 0 64 64"
   id="svg2"
   version="1.1"
   inkscape:version="0.91 r13725"
   sodipodi:docname="selfruntime.svg">
  <metadata
     id="metadata76">
    <rdf:RDF>
      <cc:Work
         rdf:about="">
        <dc:format>image/svg+xml</dc:format>
        <dc:type
           rdf:resource="http://purl.org/dc/dcmitype/StillImage" />
        <dc:title />
      </cc:Work>
    </rdf:RDF>
  </metadata>
  <defs
     id="defs74" />
  <sodipodi:namedview
     pagecolor="#ffffff"
     bordercolor="#666666"
     borderopacity="1"
     objecttolerance="10"
     gridtolerance="10"
     guidetolerance="10"
     inkscape:pageopacity="0"
     inkscape:pageshadow="2"
     inkscape:window-width="1920"
     inkscape:window-height="1051"
     id="namedview72"
     showgrid="false"
     inkscape:zoom="2.6074563"
     inkscape:cx="-69.653373"
     inkscape:cy="16.162582"
     inkscape:window-x="3840"
     inkscape:window-y="0"
     inkscape:window-maximized="1"
     inkscape:current-layer="svg2" />
  <g
     id="g4165"
     transform="matrix(0.88309625,0,0,0.88309625,3.74092,3.74092)">
    <path
       inkscape:connector-curvature="0"
       id="path4"
       style="fill:#ececed"
       d="M 32,61.205 C 15.8927,61.205 2.795,48.1073 2.795,32 2.795,15.8927 15.8927,2.795 32,2.795 48.1073,2.795 61.205,15.8927 61.205,32 61.205,48.1073 48.1073,61.205 32,61.205 Z" />
    <path
       inkscape:connector-curvature="0"
       id="path6"
       style="fill:#9b9c9e"
       d="M 32,3.29 C 47.8301,3.29 60.71,16.1699 60.71,32 60.71,47.8301 47.8301,60.71 32,60.71 16.1699,60.71 3.29,47.8301 3.29,32 3.29,16.1699 16.1699,3.29 32,3.29 M 32,2.3 C 15.5957,2.3 2.3,15.5957 2.3,32 2.3,48.4043 15.5957,61.7 32,61.7 48.4043,61.7 61.7,48.4043 61.7,32 61.7,15.5957 48.4043,2.3 32,2.3 Z" />
    <path
       id="path8"
       style="fill:#ffffff"
       d="M 32,56.75 C 18.349,56.75 7.25,45.651 7.25,32 7.25,18.349 18.349,7.25 32,7.25 45.651,7.25 56.75,18.349 56.75,32 56.75,45.651 45.651,56.75 32,56.75 Z"
       inkscape:connector-curvature="0" />
    <path
       inkscape:connector-curvature="0"
       id="path8-3"
       d="m 31.678281,7.7816467 0,24.7578133 17.457032,17.457031 c 4.465292,-4.478481 7.228515,-10.655083 7.228515,-17.466797 0,-13.629373 -11.064268,-24.7129563 -24.685547,-24.7480473 z"
       style="fill:#9e8514;fill-opacity:1" />
    <path
       id="path10"
       style="fill:#9b9c9e"
       d="M 32,7.8 C 45.365,7.8 56.2,18.635 56.2,32 56.2,45.365 45.365,56.2 32,56.2 18.635,56.2 7.8,45.365 7.8,32 7.8,18.635 18.635,7.8 32,7.8 M 32,6.7 C 18.052,6.7 6.7,18.052 6.7,32 6.7,45.948 18.052,57.3 32,57.3 45.948,57.3 57.3,45.948 57.3,32 57.3,18.052 45.948,6.7 32,6.7 Z"
       inkscape:connector-curvature="0" />
    <path
       inkscape:connector-curvature="0"
       d="m 30.9,11.1 2.2,0 0,26.4 -2.2,0 z"
       id="path14"
       style="fill:#1a171b" />
    <path
       inkscape:connector-curvature="0"
       d="M 28.965577,26.895644 44.521928,42.451995 42.966293,44.00763 27.409942,28.451279 Z"
       id="path16"
       style="fill:#1a171b" />
    <path
       id="path18"
       style="opacity:0.15"
       d="m 23.079,14.345 -1.672,-2.893 -1.903,1.1 1.672,2.893 c 0.605,-0.407 1.243,-0.77 1.903,-1.1"
       inkscape:connector-curvature="0" />
    <path
       id="path20"
       style="opacity:0.15"
       d="m 13.201,25.818 -3.223,-0.869 -0.572,2.123 3.212,0.858 c 0.154,-0.704 0.352,-1.419 0.583,-2.112"
       inkscape:connector-curvature="0" />
    <path
       id="path22"
       style="opacity:0.15"
       d="m 27.941,12.618 -0.858,-3.212 -2.123,0.572 0.869,3.223 c 0.682,-0.231 1.397,-0.429 2.112,-0.583"
       inkscape:connector-curvature="0" />
    <path
       id="path24"
       style="opacity:0.15"
       d="m 18.811,17.26 -2.376,-2.376 -1.551,1.551 2.376,2.376 c 0.484,-0.539 1.012,-1.067 1.551,-1.551"
       inkscape:connector-curvature="0" />
    <path
       id="path26"
       style="opacity:0.15"
       d="m 15.434,21.165 -2.893,-1.672 -1.1,1.903 2.893,1.672 c 0.341,-0.649 0.704,-1.287 1.1,-1.903"
       inkscape:connector-curvature="0" />
    <path
       id="path28"
       style="opacity:0.15"
       d="m 51.382,27.941 3.212,-0.858 -0.572,-2.123 -3.223,0.869 c 0.231,0.682 0.429,1.397 0.583,2.112"
       inkscape:connector-curvature="0" />
    <path
       id="path30"
       style="opacity:0.15"
       d="m 49.655,23.079 2.893,-1.672 -1.1,-1.903 -2.893,1.672 c 0.407,0.605 0.77,1.243 1.1,1.903"
       inkscape:connector-curvature="0" />
    <path
       id="path32"
       style="opacity:0.15"
       d="m 46.74,18.811 2.376,-2.376 -1.551,-1.551 -2.376,2.376 c 0.539,0.484 1.067,1.012 1.551,1.551"
       inkscape:connector-curvature="0" />
    <path
       id="path34"
       d="m 32,12.2 c 0.374,0 0.737,0.033 1.1,0.055 l 0,-3.355 -2.2,0 0,3.355 C 31.263,12.233 31.626,12.2 32,12.2"
       inkscape:connector-curvature="0" />
    <path
       id="path36"
       d="m 12.2,32 c 0,-0.374 0.033,-0.737 0.055,-1.1 l -3.355,0 0,2.2 3.355,0 C 12.233,32.737 12.2,32.374 12.2,32"
       inkscape:connector-curvature="0" />
    <path
       id="path38"
       style="opacity:0.15"
       d="M 38.182,13.201 39.051,9.978 36.928,9.406 36.07,12.618 c 0.704,0.154 1.419,0.352 2.112,0.583"
       inkscape:connector-curvature="0" />
    <path
       id="path40"
       style="opacity:0.15"
       d="m 42.835,15.434 1.672,-2.893 -1.903,-1.1 -1.672,2.893 c 0.649,0.341 1.287,0.704 1.903,1.1"
       inkscape:connector-curvature="0" />
    <path
       id="path42"
       d="m 32,51.8 c -0.374,0 -0.737,-0.033 -1.1,-0.055 l 0,3.355 2.2,0 0,-3.355 C 32.737,51.767 32.374,51.8 32,51.8"
       inkscape:connector-curvature="0" />
    <path
       id="path44"
       style="opacity:0.15"
       d="m 48.566,42.835 2.893,1.672 1.1,-1.903 -2.893,-1.672 c -0.341,0.649 -0.704,1.287 -1.1,1.903"
       inkscape:connector-curvature="0" />
    <path
       id="path46"
       style="opacity:0.15"
       d="m 45.189,46.74 2.376,2.376 1.551,-1.551 -2.376,-2.376 c -0.484,0.539 -1.012,1.067 -1.551,1.551"
       inkscape:connector-curvature="0" />
    <path
       id="path48"
       style="opacity:0.15"
       d="m 50.799,38.182 3.223,0.869 0.572,-2.123 -3.212,-0.858 c -0.154,0.704 -0.352,1.419 -0.583,2.112"
       inkscape:connector-curvature="0" />
    <path
       id="path50"
       d="m 51.745,30.9 c 0.022,0.363 0.055,0.726 0.055,1.1 0,0.374 -0.033,0.737 -0.055,1.1 l 3.355,0 0,-2.2 -3.355,0"
       inkscape:connector-curvature="0" />
    <path
       id="path52"
       style="opacity:0.15"
       d="m 40.921,49.655 1.672,2.893 1.903,-1.1 -1.672,-2.893 c -0.605,0.407 -1.243,0.77 -1.903,1.1"
       inkscape:connector-curvature="0" />
    <path
       id="path54"
       style="opacity:0.15"
       d="m 25.818,50.799 -0.869,3.223 2.123,0.572 0.858,-3.212 C 27.226,51.228 26.511,51.03 25.818,50.799"
       inkscape:connector-curvature="0" />
    <path
       id="path56"
       style="opacity:0.15"
       d="m 14.345,40.921 -2.893,1.672 1.1,1.903 2.893,-1.672 c -0.407,-0.605 -0.77,-1.243 -1.1,-1.903"
       inkscape:connector-curvature="0" />
    <path
       id="path58"
       style="opacity:0.15"
       d="m 17.26,45.189 -2.376,2.376 1.551,1.551 2.376,-2.376 C 18.272,46.256 17.744,45.728 17.26,45.189"
       inkscape:connector-curvature="0" />
    <path
       id="path60"
       style="opacity:0.15"
       d="m 36.059,51.382 0.858,3.212 2.123,-0.572 -0.869,-3.223 c -0.682,0.231 -1.397,0.429 -2.112,0.583"
       inkscape:connector-curvature="0" />
    <path
       id="path62"
       style="opacity:0.15"
       d="m 12.618,36.059 -3.212,0.858 0.572,2.123 3.223,-0.869 C 12.97,37.489 12.772,36.774 12.618,36.059"
       inkscape:connector-curvature="0" />
    <path
       id="path64"
       style="opacity:0.15"
       d="m 21.165,48.566 -1.672,2.893 1.903,1.1 1.672,-2.893 c -0.649,-0.341 -1.287,-0.704 -1.903,-1.1"
       inkscape:connector-curvature="0" />
    <circle
       id="circle68"
       style="fill:#ececed"
       r="1.65"
       cy="32"
       cx="32" />
    <path
       id="path70"
       style="fill:#c80000"
       d="m 32,30.9 c 0.605,0 1.1,0.495 1.1,1.1 0,0.605 -0.495,1.1 -1.1,1.1 -0.605,0 -1.1,-0.495 -1.1,-1.1 0,-0.605 0.495,-1.1 1.1,-1.1 m 0,-1.1 c -1.21,0 -2.2,0.99 -2.2,2.2 0,1.21 0.99,2.2 2.2,2.2 1.21,0 2.2,-0.99 2.2,-2.2 0,-1.21 -0.99,-2.2 -2.2,-2.2 z"
       inkscape:connector-curvature="0" />
  </g>
</svg>
