<?xml version="1.0" encoding="UTF-8" standalone="no"?>
<svg
   xmlns:osb="http://www.openswatchbook.org/uri/2009/osb"
   xmlns:dc="http://purl.org/dc/elements/1.1/"
   xmlns:cc="http://creativecommons.org/ns#"
   xmlns:rdf="http://www.w3.org/1999/02/22-rdf-syntax-ns#"
   xmlns:svg="http://www.w3.org/2000/svg"
   xmlns="http://www.w3.org/2000/svg"
   xmlns:sodipodi="http://sodipodi.sourceforge.net/DTD/sodipodi-0.dtd"
   xmlns:inkscape="http://www.inkscape.org/namespaces/inkscape"
   width="64"
   height="64"
   id="svg2"
   version="1.1"
   inkscape:version="0.91 r13725"
   sodipodi:docname="selfenergy_solar.svg">
  <metadata
     id="metadata58">
    <rdf:RDF>
      <cc:Work
         rdf:about="">
        <dc:format>image/svg+xml</dc:format>
        <dc:type
           rdf:resource="http://purl.org/dc/dcmitype/StillImage" />
        <dc:title />
      </cc:Work>
    </rdf:RDF>
  </metadata>
  <sodipodi:namedview
     pagecolor="#ffffff"
     bordercolor="#666666"
     borderopacity="1"
     objecttolerance="10"
     gridtolerance="10"
     guidetolerance="10"
     inkscape:pageopacity="0"
     inkscape:pageshadow="2"
     inkscape:window-width="1920"
     inkscape:window-height="1015"
     id="namedview56"
     showgrid="false"
     showguides="false"
     inkscape:zoom="6.9532166"
     inkscape:cx="-8.2020427"
     inkscape:cy="40.066107"
     inkscape:window-x="1920"
     inkscape:window-y="0"
     inkscape:window-maximized="1"
     inkscape:current-layer="svg2" />
  <defs
     id="defs4">
    <linearGradient
       id="linearGradient4279"
       osb:paint="solid">
      <stop
         style="stop-color:#000000;stop-opacity:1;"
         offset="0"
         id="stop4281" />
    </linearGradient>
    <linearGradient
       id="e"
       y1="23"
       x1="24"
       y2="39"
       x2="40"
       gradientUnits="userSpaceOnUse">
      <stop
         stop-color="#292c2f"
         id="stop27"
         style="stop-color:#ffa701;stop-opacity:1" />
      <stop
         offset="1"
         stop-opacity="0"
         id="stop29"
         style="stop-color:#ff9100;stop-opacity:1" />
    </linearGradient>
    <radialGradient
       id="0"
       cx="16.3333"
       cy="15.1667"
       r="43.6679"
       gradientUnits="userSpaceOnUse"
       gradientTransform="matrix(0.86436,0,0,0.86436,4.34048,4.34048)">
      <stop
         style="stop-color:#6c9ac2"
         id="stop2" />
      <stop
         offset="1"
         style="stop-color:#005096"
         id="stop4" />
    </radialGradient>
  </defs>
  <path
     inkscape:connector-curvature="0"
     d="m 33.442955,15.399033 c -0.02619,0.05242 -1.949812,3.707635 -4.275763,8.132152 l -4.232532,8.053522 2.841999,0 c 2.273531,0 2.833147,0.02619 2.806936,0.113696 -0.02619,0.104848 -7.791072,15.206343 -8.438173,16.412726 l -0.306019,0.56846 0.306019,-0.306018 c 0.166117,-0.166115 4.704328,-5.106679 10.073455,-10.974153 l 9.767434,-10.667791 -3.681423,-0.04356 -3.681426,-0.04357 3.611302,-5.421548 c 1.993723,-2.981903 3.689935,-5.526393 3.768569,-5.666298 l 0.157264,-0.236237 -4.328184,0 c -2.623123,0 -4.354737,0.03505 -4.389458,0.07863 z"
     id="path10"
     style="fill:#ff9300;fill-opacity:1" />
  <path
     d="m 28.773801,63.320598 a 31.503094,31.503512 0 0 0 6.4535,0.0092 l 0.748197,-4.883046 a 26.777629,26.777986 0 0 0 5.808141,-1.55229 l 3.081002,3.845 a 31.503094,31.503512 0 0 0 5.590173,-3.235065 l -1.787798,-4.585328 a 26.777629,26.777986 0 0 0 4.268381,-4.245368 l 4.556925,1.775223 a 31.503094,31.503512 0 0 0 3.229199,-5.597182 l -3.815029,-3.057414 a 26.777629,26.777986 0 0 0 0.958628,-2.864475 26.777629,26.777986 0 0 0 0.581806,-2.955889 l 4.873528,-0.748208 a 31.503094,31.503512 0 0 0 0.0095,-6.453588 L 58.44689,28.024126 A 26.777629,26.777986 0 0 0 56.894615,22.21591 l 3.844955,-3.081047 a 31.503094,31.503512 0 0 0 -3.235025,-5.590248 l -4.585276,1.787824 A 26.777629,26.777986 0 0 0 48.674334,11.064324 L 50.449745,6.5076423 A 31.503094,31.503512 0 0 0 44.852304,3.2782888 L 41.797336,7.0935145 A 26.777629,26.777986 0 0 0 38.930438,6.1346425 26.777629,26.777986 0 0 0 35.974587,5.5528263 L 35.228941,0.67940137 a 31.503094,31.503512 0 0 0 -6.453496,-0.00922 L 28.024183,5.5530911 A 26.777629,26.777986 0 0 0 22.216532,7.1058125 L 19.135591,3.2611558 A 31.503094,31.503512 0 0 0 13.54541,6.4962263 l 1.787804,4.5853397 a 26.777629,26.777986 0 0 0 -4.268382,4.245367 L 6.5075763,13.550172 A 31.503094,31.503512 0 0 0 3.278381,19.147351 l 3.8150226,3.057418 a 26.777629,26.777986 0 0 0 -0.9586231,2.864475 26.777629,26.777986 0 0 0 -0.5818066,2.955889 l -4.87353045,0.74821 a 31.503094,31.503512 0 0 0 -0.00931,6.453587 l 4.88297635,0.748208 a 26.777629,26.777986 0 0 0 1.5522751,5.808217 l -3.8449432,3.081043 a 31.503094,31.503512 0 0 0 3.2350234,5.590249 l 4.5852769,-1.787824 a 26.777629,26.777986 0 0 0 4.24531,4.268442 l -1.775198,4.556981 a 31.503094,31.503512 0 0 0 5.597106,3.22924 l 3.057384,-3.815076 a 26.777629,26.777986 0 0 0 2.864435,0.958638 26.777629,26.777986 0 0 0 2.955852,0.581813 z M 26.292375,53.30122 A 22.052164,22.05246 0 0 1 10.699141,26.292583 22.052164,22.05246 0 0 1 37.707418,10.699141 22.052164,22.05246 0 0 1 53.300658,37.707776 22.052164,22.05246 0 0 1 26.292375,53.30122"
     id="path38-3"
     style="color:#000000;opacity:0.98000004;fill:#ff9300;fill-opacity:1;stroke:#c87300;stroke-width:1.01814282;stroke-linejoin:round;stroke-miterlimit:4;stroke-dasharray:none;stroke-opacity:1"
     inkscape:connector-curvature="0" />
  <g
     id="g892"
     transform="matrix(0.57846268,0,0,0.57846268,30.489194,30.489194)">
    <path
       inkscape:connector-curvature="0"
       id="path9"
       style="fill:#ececed;stroke-width:0.86435997"
       d="m 6.50138,6.50138 50.99724,0 0,50.99724 -50.99724,0 z" />
    <path
       inkscape:connector-curvature="0"
       id="path11"
       style="fill:#9b9c9e;stroke-width:0.86435997"
       d="m 57.06644,6.93356 0,50.13288 -50.13288,0 0,-50.13288 50.13288,0 m 0.86436,-0.86436 -51.8616,0 0,51.8616 51.8616,0 z" />
    <path
       inkscape:connector-curvature="0"
       id="path13"
       style="fill:url(#0);stroke-width:0.86435997"
       d="m 8.66228,8.66228 46.67544,0 0,46.67544 -46.67544,0 z" />
    <g
       transform="matrix(0.86436,0,0,0.86436,4.34048,4.34048)"
       id="g85"
       style="fill:#ececed">
      <path
         inkscape:connector-curvature="0"
         id="path15"
         d="m 15,3 1,0 0,58 -1,0 z" />
      <path
         inkscape:connector-curvature="0"
         id="path17"
         style="opacity:0.25"
         d="M 7,3 8,3 8,61 7,61 Z" />
      <path
         inkscape:connector-curvature="0"
         id="path19"
         style="opacity:0.25"
         d="m 12,3 1,0 0,58 -1,0 z" />
      <path
         inkscape:connector-curvature="0"
         id="path21"
         style="opacity:0.25"
         d="m 18,3 1,0 0,58 -1,0 z" />
      <path
         inkscape:connector-curvature="0"
         id="path23"
         style="opacity:0.25"
         d="m 23,3 1,0 0,58 -1,0 z" />
      <path
         inkscape:connector-curvature="0"
         id="path25"
         style="opacity:0.25"
         d="m 29,3 1,0 0,58 -1,0 z" />
      <path
         inkscape:connector-curvature="0"
         id="path27"
         style="opacity:0.25"
         d="m 34,3 1,0 0,58 -1,0 z" />
      <path
         inkscape:connector-curvature="0"
         id="path29"
         style="opacity:0.25"
         d="m 40,3 1,0 0,58 -1,0 z" />
      <path
         inkscape:connector-curvature="0"
         id="path31"
         style="opacity:0.25"
         d="m 45,3 1,0 0,58 -1,0 z" />
      <path
         inkscape:connector-curvature="0"
         id="path33"
         style="opacity:0.25"
         d="m 51,3 1,0 0,58 -1,0 z" />
      <path
         inkscape:connector-curvature="0"
         id="path35"
         style="opacity:0.25"
         d="m 56,3 1,0 0,58 -1,0 z" />
      <path
         inkscape:connector-curvature="0"
         id="path37"
         d="m 26,3 1,0 0,58 -1,0 z" />
      <path
         inkscape:connector-curvature="0"
         id="path39"
         d="m 48,3 1,0 0,58 -1,0 z" />
      <path
         inkscape:connector-curvature="0"
         id="path41"
         d="m 37,3 1,0 0,58 -1,0 z" />
      <path
         inkscape:connector-curvature="0"
         id="path43"
         d="m 3,48 58,0 0,1 -58,0 z" />
      <path
         inkscape:connector-curvature="0"
         id="path45"
         d="m 3,37 58,0 0,1 -58,0 z" />
      <path
         inkscape:connector-curvature="0"
         id="path47"
         d="m 3,26 58,0 0,1 -58,0 z" />
      <path
         inkscape:connector-curvature="0"
         id="path49"
         d="m 3,15 58,0 0,1 -58,0 z" />
      <g
         id="g83"
         style="stroke-width:0.9999904">
        <path
           inkscape:connector-curvature="0"
           id="path51"
           d="m 15.5,13.3785 1.5,0 0,3 -3,0 z" />
        <path
           inkscape:connector-curvature="0"
           id="path53"
           d="m 26.4999,13.3784 1.5001,0 0,3 -3,0 z" />
        <path
           inkscape:connector-curvature="0"
           id="path55"
           d="m 37.4999,13.3783 1.5001,0 0,3 -3,0 z" />
        <path
           inkscape:connector-curvature="0"
           id="path57"
           d="m 48.4998,13.3783 1.5002,0 0,3 -3,0 z" />
        <path
           inkscape:connector-curvature="0"
           id="path59"
           d="m 15.5001,24.3784 1.4999,0 0,3 -3,0 z" />
        <path
           inkscape:connector-curvature="0"
           id="path61"
           d="m 26.5,24.3783 1.5,0 0,3 -3,0 z" />
        <path
           inkscape:connector-curvature="0"
           id="path63"
           d="m 37.4999,24.3783 1.5001,0 0,3 -3,0 z" />
        <path
           inkscape:connector-curvature="0"
           id="path65"
           d="m 48.4999,24.3782 1.5001,0 0,3 -3,0 z" />
        <path
           inkscape:connector-curvature="0"
           id="path67"
           d="m 15.5002,35.3783 1.4998,0 0,3 -3,0 z" />
        <path
           inkscape:connector-curvature="0"
           id="path69"
           d="m 26.5001,35.3783 1.4999,0 0,3 -3,0 z" />
        <path
           inkscape:connector-curvature="0"
           id="path71"
           d="m 35.3782,37.5 3.6218,0 0,3 -3,0 z" />
        <path
           inkscape:connector-curvature="0"
           id="path73"
           d="m 46.3781,37.5001 3.6219,0 0,3 -3,0 z" />
        <path
           inkscape:connector-curvature="0"
           id="path75"
           d="m 15.5002,46.3783 1.4998,0 0,3 -3,0 z" />
        <path
           inkscape:connector-curvature="0"
           id="path77"
           d="m 26.5002,46.3782 1.4998,0 0,3 -3,0 z" />
        <path
           inkscape:connector-curvature="0"
           id="path79"
           d="m 37.5001,46.3781 1.4999,0 0,3 -3,0 z" />
        <path
           inkscape:connector-curvature="0"
           id="path81"
           d="m 48.5,46.378 1.5,0 0,3 -3,0 z" />
      </g>
    </g>
  </g>
</svg>
