<?xml version="1.0" encoding="UTF-8" standalone="no"?>
<svg
   xmlns:dc="http://purl.org/dc/elements/1.1/"
   xmlns:cc="http://creativecommons.org/ns#"
   xmlns:rdf="http://www.w3.org/1999/02/22-rdf-syntax-ns#"
   xmlns:svg="http://www.w3.org/2000/svg"
   xmlns="http://www.w3.org/2000/svg"
   xmlns:sodipodi="http://sodipodi.sourceforge.net/DTD/sodipodi-0.dtd"
   xmlns:inkscape="http://www.inkscape.org/namespaces/inkscape"
   height="64"
   width="64"
   version="1.1"
   id="svg35"
   sodipodi:docname="selfharddisk.svg"
   inkscape:version="0.92.2 5c3e80d, 2017-08-06">
  <metadata
     id="metadata41">
    <rdf:RDF>
      <cc:Work
         rdf:about="">
        <dc:format>image/svg+xml</dc:format>
        <dc:type
           rdf:resource="http://purl.org/dc/dcmitype/StillImage" />
      </cc:Work>
    </rdf:RDF>
  </metadata>
  <defs
     id="defs39" />
  <sodipodi:namedview
     pagecolor="#ffffff"
     bordercolor="#666666"
     borderopacity="1"
     objecttolerance="10"
     gridtolerance="10"
     guidetolerance="10"
     inkscape:pageopacity="0"
     inkscape:pageshadow="2"
     inkscape:window-width="1920"
     inkscape:window-height="1013"
     id="namedview37"
     showgrid="false"
     inkscape:zoom="10.429825"
     inkscape:cx="52.362717"
     inkscape:cy="32.017277"
     inkscape:window-x="0"
     inkscape:window-y="0"
     inkscape:window-maximized="1"
     inkscape:current-layer="svg35" />
  <linearGradient
     id="a"
     gradientUnits="userSpaceOnUse"
     x1="386.571"
     x2="386.571"
     y1="549.798"
     y2="497.798"
     gradientTransform="matrix(1.2307692,0,0,1.2307692,-470.8566,-612.67445)">
    <stop
       offset="0"
       stop-color="#7f8c8d"
       id="stop2" />
    <stop
       offset="1"
       stop-color="#afb0b3"
       id="stop4" />
  </linearGradient>
  <linearGradient
     id="c"
     gradientUnits="userSpaceOnUse"
     x1="12"
     x2="12"
     y1="48"
     y2="10"
     gradientTransform="matrix(1.2307692,0,0,1.2307692,-7.3846144,-7.3846144)">
    <stop
       offset="0"
       stop-color="#eef1f2"
       id="stop7" />
    <stop
       offset="1"
       stop-color="#f9fafb"
       id="stop9" />
  </linearGradient>
  <linearGradient
     id="b"
     gradientUnits="userSpaceOnUse"
     x1="400.571"
     x2="420.571"
     y1="511.798"
     y2="531.798"
     gradientTransform="matrix(1.2307692,0,0,1.2307692,-470.8566,-612.67445)">
    <stop
       offset="0"
       stop-color="#292c2f"
       id="stop12" />
    <stop
       offset="1"
       stop-opacity="0"
       id="stop14" />
  </linearGradient>
  <path
     inkscape:connector-curvature="0"
     style="fill:url(#a);stroke-width:1.23076916"
     d="M 4.9230804,-3.7784e-6 H 59.076925 V 63.999995 H 4.9230804 Z"
     id="path17" />
  <path
     style="opacity:0.2;fill:#292c2f;stroke-width:1.23076916"
     inkscape:connector-curvature="0"
     d="m 50.461538,56.615384 h 8.615384 v 7.384615 h -8.615384 z m -45.5384604,0 h 8.6153844 v 7.384615 H 4.9230776 Z"
     id="path19" />
  <g
     style="stroke-width:1.85699999"
     id="g27"
     transform="matrix(1.2307692,0,0,1.2307692,-7.3846144,-7.3846144)">
    <path
       style="opacity:0.2;fill:#292c2f"
       inkscape:connector-curvature="0"
       d="m 10,52 h 7 v 6 h -1 z m 37,0 h 7 v 6 h -7 z"
       id="path21" />
    <path
       style="fill:#292c2e"
       inkscape:connector-curvature="0"
       d="m 16,52 h 32 v 6 H 16 Z"
       id="path23" />
    <path
       style="fill:#f6b44d"
       inkscape:connector-curvature="0"
       d="m 20,54 h 14 v 2 H 20 Z m 16,0 h 8 v 2 h -8 z"
       id="path25" />
  </g>
  <path
     inkscape:connector-curvature="0"
     style="opacity:0.2;fill:url(#b);stroke-width:1.23076916"
     d="M 9.8461572,44.307687 29.538464,63.999995 H 59.076925 V 16.334765 L 50.909541,8.1673806 Z"
     id="path29" />
  <path
     inkscape:connector-curvature="0"
     style="fill:#eef1f2;stroke-width:1.23076916;fill-opacity:1"
     d="M 20.923077,4.9230776 A 11.076923,11.076923 0 0 0 9.8461544,16 V 26.504616 A 7.3846152,7.3846152 0 0 1 12.307693,32 7.3846152,7.3846152 0 0 1 9.8461544,37.492923 v 6.814769 l 7.3846156,7.384615 h 29.53846 l 7.384616,-7.384615 V 37.495384 A 7.3846152,7.3846152 0 0 1 51.692307,32 7.3846152,7.3846152 0 0 1 54.153846,26.507077 V 16 A 11.076923,11.076923 0 0 0 43.076923,4.9230776 Z"
     id="path31" />
  <path
     style="opacity:0.4;fill:#292c2f;stroke-width:1.23076916"
     inkscape:connector-curvature="0"
     d="M 4.9230776,62.76923 H 59.076922 v 1.230769 H 4.9230776 Z"
     id="path33" />
  <path
     style="fill:#434a54;stroke-width:0.14058107"
     inkscape:connector-curvature="0"
     id="path22"
     d="m 10.513938,3.7749112 c 0,0.828319 -0.6719908,1.499438 -1.5000008,1.499438 -0.82801,0 -1.5,-0.671119 -1.5,-1.499438 0,-0.828318 0.67199,-1.500562 1.5,-1.500562 0.82801,0 1.5000008,0.672244 1.5000008,1.500562 z" />
  <path
     style="fill:#434a54;stroke-width:0.14058107"
     inkscape:connector-curvature="0"
     id="path22-3"
     d="m 56.646727,3.7478215 c 0,0.828319 -0.671991,1.499438 -1.500001,1.499438 -0.82801,0 -1.5,-0.671119 -1.5,-1.499438 0,-0.828318 0.67199,-1.500562 1.5,-1.500562 0.82801,0 1.500001,0.672244 1.500001,1.500562 z" />
  <g
     id="g917"
     transform="matrix(0.09146286,0,0,0.09146286,27.446072,25.818956)">
    <path
       d="m 53.336,122.668 c -39.891,0 -77.391,-15.531 -105.594,-43.734 -28.203,-28.219 -43.734,-65.71 -43.734,-105.602 0,-39.883 15.531,-77.391 43.734,-105.594 28.203,-28.203 65.703,-43.734 105.594,-43.734 39.891,0 77.391,15.531 105.594,43.734 28.203,28.203 43.734,65.711 43.734,105.594 0,39.891 -15.531,77.383 -43.734,105.602 -28.203,28.203 -65.703,43.734 -105.594,43.734 z"
       id="path10"
       inkscape:connector-curvature="0"
       style="fill:#e6e9ed" />
    <path
       d="m 53.336,-186.668 c -88.359,0 -160,71.633 -160,160 0,88.367 71.641,160.008 160,160.008 88.359,0 160,-71.641 160,-160.008 0,-88.367 -71.641,-160 -160,-160 z m 98.047,258.055 c -12.734,12.734 -27.562,22.734 -44.078,29.734 -17.078,7.219 -35.235,10.875 -53.969,10.875 -18.734,0 -36.891,-3.656 -53.969,-10.875 -16.516,-7 -31.344,-17 -44.078,-29.734 -12.75,-12.733 -22.75,-27.578 -29.734,-44.086 -7.219,-17.078 -10.891,-35.234 -10.891,-53.969 0,-18.727 3.672,-36.883 10.891,-53.969 6.984,-16.508 16.984,-31.336 29.734,-44.078 12.734,-12.742 27.562,-22.75 44.078,-29.727 17.078,-7.227 35.234,-10.891 53.969,-10.891 18.734,0 36.891,3.664 53.969,10.891 16.517,6.977 31.344,16.984 44.078,29.727 12.75,12.742 22.75,27.57 29.734,44.078 7.219,17.086 10.891,35.242 10.891,53.969 0,18.734 -3.672,36.891 -10.891,53.969 -6.984,16.507 -16.984,31.351 -29.734,44.086 z"
       id="path12"
       inkscape:connector-curvature="0"
       style="fill:#ccd1d9" />
    <path
       d="m 53.336,16.004 c -23.531,0 -42.672,-19.141 -42.672,-42.672 0,-23.523 19.141,-42.664 42.672,-42.664 23.531,0 42.672,19.141 42.672,42.664 0,23.531 -19.141,42.672 -42.672,42.672 z"
       id="path18"
       inkscape:connector-curvature="0"
       style="fill:#5d9cec" />
    <path
       d="m 53.336,-79.996 c -29.453,0 -53.328,23.875 -53.328,53.328 0,29.453 23.875,53.336 53.328,53.336 29.453,0 53.328,-23.883 53.328,-53.336 0,-29.453 -23.875,-53.328 -53.328,-53.328 z m 0,85.328 c -17.641,0 -32,-14.352 -32,-32 0,-17.641 14.359,-32 32,-32 17.641,0 32,14.359 32,32 0,17.648 -14.359,32 -32,32 z"
       id="path20"
       inkscape:connector-curvature="0"
       style="fill:#4a89dc" />
    <path
       d="m -112.305,79.996 h -37.031 v 128 c 0,23.562 19.109,42.672 42.672,42.672 h 160 V 165.34 c -68.312,0 -128.75,-33.688 -165.641,-85.344 z"
       id="path24"
       inkscape:connector-curvature="0"
       style="fill:#e6e9ed" />
    <path
       d="m 64.008,-26.668 c 0,5.891 -4.781,10.672 -10.672,10.672 -5.891,0 -10.672,-4.781 -10.672,-10.672 0,-5.891 4.781,-10.664 10.672,-10.664 5.891,0 10.672,4.773 10.672,10.664 z"
       id="path26"
       inkscape:connector-curvature="0"
       style="fill:#434a54" />
    <g
       id="g38"
       transform="translate(-202.664,-240.004)">
      <path
         d="M 175.078,435 285.469,294.906 C 287.047,293.031 288,290.625 288,288 c 0,-5.875 -4.781,-10.656 -10.672,-10.656 -2.625,0 -5.031,0.938 -6.891,2.531 L 130.328,390.266 c -7.891,5.828 -13,15.188 -13,25.734 0,17.688 14.328,32 32,32 10.563,0 19.922,-5.109 25.75,-13 z"
         id="path36"
         inkscape:connector-curvature="0"
         style="fill:#434a54" />
    </g>
  </g>
  <path
     style="fill:#434a54;stroke-width:0.14058107"
     inkscape:connector-curvature="0"
     id="path22-6"
     d="m 9.9373418,60.261285 c 0,0.828319 -0.67199,1.499438 -1.5,1.499438 -0.82801,0 -1.5,-0.671119 -1.5,-1.499438 0,-0.828318 0.67199,-1.500562 1.5,-1.500562 0.82801,0 1.5,0.672244 1.5,1.500562 z" />
  <path
     style="fill:#434a54;stroke-width:0.14058107"
     inkscape:connector-curvature="0"
     id="path22-7"
     d="m 56.726238,60.165406 c 0,0.828319 -0.67199,1.499438 -1.5,1.499438 -0.82801,0 -1.5,-0.671119 -1.5,-1.499438 0,-0.828318 0.67199,-1.500562 1.5,-1.500562 0.82801,0 1.5,0.672244 1.5,1.500562 z" />
</svg>
