<?xml version="1.0" encoding="UTF-8" standalone="no"?>
<svg
   xmlns:dc="http://purl.org/dc/elements/1.1/"
   xmlns:cc="http://creativecommons.org/ns#"
   xmlns:rdf="http://www.w3.org/1999/02/22-rdf-syntax-ns#"
   xmlns:svg="http://www.w3.org/2000/svg"
   xmlns="http://www.w3.org/2000/svg"
   xmlns:sodipodi="http://sodipodi.sourceforge.net/DTD/sodipodi-0.dtd"
   xmlns:inkscape="http://www.inkscape.org/namespaces/inkscape"
   viewBox="0 0 64 64"
   style="enable-background:new 0 0 64 64"
   version="1.1"
   id="svg87"
   sodipodi:docname="selfsolarplant.svg"
   inkscape:version="0.92.2 5c3e80d, 2017-08-06">
  <metadata
     id="metadata91">
    <rdf:RDF>
      <cc:Work
         rdf:about="">
        <dc:format>image/svg+xml</dc:format>
        <dc:type
           rdf:resource="http://purl.org/dc/dcmitype/StillImage" />
        <dc:title />
      </cc:Work>
    </rdf:RDF>
  </metadata>
  <sodipodi:namedview
     pagecolor="#ffffff"
     bordercolor="#666666"
     borderopacity="1"
     objecttolerance="10"
     gridtolerance="10"
     guidetolerance="10"
     inkscape:pageopacity="0"
     inkscape:pageshadow="2"
     inkscape:window-width="1920"
     inkscape:window-height="1013"
     id="namedview89"
     showgrid="false"
     inkscape:zoom="3.6875"
     inkscape:cx="-134.77966"
     inkscape:cy="32"
     inkscape:window-x="0"
     inkscape:window-y="0"
     inkscape:window-maximized="1"
     inkscape:current-layer="svg87" />
  <defs
     id="defs7">
    <radialGradient
       id="0"
       cx="16.3333"
       cy="15.1667"
       r="43.6679"
       gradientUnits="userSpaceOnUse"
       gradientTransform="matrix(0.86436,0,0,0.86436,4.34048,4.34048)">
      <stop
         style="stop-color:#6c9ac2"
         id="stop2" />
      <stop
         offset="1"
         style="stop-color:#005096"
         id="stop4" />
    </radialGradient>
  </defs>
  <g
     id="g892"
     transform="matrix(1.2340537,0,0,1.2340537,-7.4897184,-7.4897184)">
    <path
       inkscape:connector-curvature="0"
       id="path9"
       style="fill:#ececed;stroke-width:0.86435997"
       d="M 6.50138,6.50138 H 57.49862 V 57.49862 H 6.50138 Z" />
    <path
       inkscape:connector-curvature="0"
       id="path11"
       style="fill:#9b9c9e;stroke-width:0.86435997"
       d="M 57.06644,6.93356 V 57.06644 H 6.93356 V 6.93356 H 57.06644 M 57.9308,6.0692 H 6.0692 v 51.8616 h 51.8616 z" />
    <path
       inkscape:connector-curvature="0"
       id="path13"
       style="fill:url(#0);stroke-width:0.86435997"
       d="M 8.66228,8.66228 H 55.33772 V 55.33772 H 8.66228 Z" />
    <g
       transform="matrix(0.86436,0,0,0.86436,4.34048,4.34048)"
       id="g85"
       style="fill:#ececed">
      <path
         inkscape:connector-curvature="0"
         id="path15"
         d="m 15,3 h 1 v 58 h -1 z" />
      <path
         inkscape:connector-curvature="0"
         id="path17"
         style="opacity:0.25"
         d="M 7,3 H 8 V 61 H 7 Z" />
      <path
         inkscape:connector-curvature="0"
         id="path19"
         style="opacity:0.25"
         d="m 12,3 h 1 v 58 h -1 z" />
      <path
         inkscape:connector-curvature="0"
         id="path21"
         style="opacity:0.25"
         d="m 18,3 h 1 v 58 h -1 z" />
      <path
         inkscape:connector-curvature="0"
         id="path23"
         style="opacity:0.25"
         d="m 23,3 h 1 v 58 h -1 z" />
      <path
         inkscape:connector-curvature="0"
         id="path25"
         style="opacity:0.25"
         d="m 29,3 h 1 v 58 h -1 z" />
      <path
         inkscape:connector-curvature="0"
         id="path27"
         style="opacity:0.25"
         d="m 34,3 h 1 v 58 h -1 z" />
      <path
         inkscape:connector-curvature="0"
         id="path29"
         style="opacity:0.25"
         d="m 40,3 h 1 v 58 h -1 z" />
      <path
         inkscape:connector-curvature="0"
         id="path31"
         style="opacity:0.25"
         d="m 45,3 h 1 v 58 h -1 z" />
      <path
         inkscape:connector-curvature="0"
         id="path33"
         style="opacity:0.25"
         d="m 51,3 h 1 v 58 h -1 z" />
      <path
         inkscape:connector-curvature="0"
         id="path35"
         style="opacity:0.25"
         d="m 56,3 h 1 v 58 h -1 z" />
      <path
         inkscape:connector-curvature="0"
         id="path37"
         d="m 26,3 h 1 v 58 h -1 z" />
      <path
         inkscape:connector-curvature="0"
         id="path39"
         d="m 48,3 h 1 v 58 h -1 z" />
      <path
         inkscape:connector-curvature="0"
         id="path41"
         d="m 37,3 h 1 v 58 h -1 z" />
      <path
         inkscape:connector-curvature="0"
         id="path43"
         d="m 3,48 h 58 v 1 H 3 Z" />
      <path
         inkscape:connector-curvature="0"
         id="path45"
         d="m 3,37 h 58 v 1 H 3 Z" />
      <path
         inkscape:connector-curvature="0"
         id="path47"
         d="m 3,26 h 58 v 1 H 3 Z" />
      <path
         inkscape:connector-curvature="0"
         id="path49"
         d="m 3,15 h 58 v 1 H 3 Z" />
      <g
         id="g83"
         style="stroke-width:0.9999904">
        <path
           inkscape:connector-curvature="0"
           id="path51"
           d="M 15.5,13.3785 H 17 v 3 h -3 z" />
        <path
           inkscape:connector-curvature="0"
           id="path53"
           d="M 26.4999,13.3784 H 28 v 3 h -3 z" />
        <path
           inkscape:connector-curvature="0"
           id="path55"
           d="M 37.4999,13.3783 H 39 v 3 h -3 z" />
        <path
           inkscape:connector-curvature="0"
           id="path57"
           d="M 48.4998,13.3783 H 50 v 3 h -3 z" />
        <path
           inkscape:connector-curvature="0"
           id="path59"
           d="M 15.5001,24.3784 H 17 v 3 h -3 z" />
        <path
           inkscape:connector-curvature="0"
           id="path61"
           d="M 26.5,24.3783 H 28 v 3 h -3 z" />
        <path
           inkscape:connector-curvature="0"
           id="path63"
           d="M 37.4999,24.3783 H 39 v 3 h -3 z" />
        <path
           inkscape:connector-curvature="0"
           id="path65"
           d="M 48.4999,24.3782 H 50 v 3 h -3 z" />
        <path
           inkscape:connector-curvature="0"
           id="path67"
           d="M 15.5002,35.3783 H 17 v 3 h -3 z" />
        <path
           inkscape:connector-curvature="0"
           id="path69"
           d="M 26.5001,35.3783 H 28 v 3 h -3 z" />
        <path
           inkscape:connector-curvature="0"
           id="path71"
           d="M 35.3782,37.5 H 39 v 3 h -3 z" />
        <path
           inkscape:connector-curvature="0"
           id="path73"
           d="M 46.3781,37.5001 H 50 v 3 h -3 z" />
        <path
           inkscape:connector-curvature="0"
           id="path75"
           d="M 15.5002,46.3783 H 17 v 3 h -3 z" />
        <path
           inkscape:connector-curvature="0"
           id="path77"
           d="M 26.5002,46.3782 H 28 v 3 h -3 z" />
        <path
           inkscape:connector-curvature="0"
           id="path79"
           d="M 37.5001,46.3781 H 39 v 3 h -3 z" />
        <path
           inkscape:connector-curvature="0"
           id="path81"
           d="M 48.5,46.378 H 50 v 3 h -3 z" />
      </g>
    </g>
  </g>
</svg>
