<?xml version="1.0" encoding="UTF-8" standalone="no"?>
<svg
   xmlns:dc="http://purl.org/dc/elements/1.1/"
   xmlns:cc="http://creativecommons.org/ns#"
   xmlns:rdf="http://www.w3.org/1999/02/22-rdf-syntax-ns#"
   xmlns:svg="http://www.w3.org/2000/svg"
   xmlns="http://www.w3.org/2000/svg"
   xmlns:sodipodi="http://sodipodi.sourceforge.net/DTD/sodipodi-0.dtd"
   xmlns:inkscape="http://www.inkscape.org/namespaces/inkscape"
   viewBox="0 0 64 64"
   style="enable-background:new 0 0 64 64"
   version="1.1"
   id="svg20"
   sodipodi:docname="selfwindow-closed.svg"
   inkscape:version="0.92.2 5c3e80d, 2017-08-06">
  <metadata
     id="metadata26">
    <rdf:RDF>
      <cc:Work
         rdf:about="">
        <dc:format>image/svg+xml</dc:format>
        <dc:type
           rdf:resource="http://purl.org/dc/dcmitype/StillImage" />
      </cc:Work>
    </rdf:RDF>
  </metadata>
  <defs
     id="defs24" />
  <sodipodi:namedview
     pagecolor="#ffffff"
     bordercolor="#666666"
     borderopacity="1"
     objecttolerance="10"
     gridtolerance="10"
     guidetolerance="10"
     inkscape:pageopacity="0"
     inkscape:pageshadow="2"
     inkscape:window-width="1920"
     inkscape:window-height="1013"
     id="namedview22"
     showgrid="false"
     inkscape:zoom="3.6875"
     inkscape:cx="-23.59322"
     inkscape:cy="32"
     inkscape:window-x="0"
     inkscape:window-y="0"
     inkscape:window-maximized="1"
     inkscape:current-layer="svg20" />
  <g
     id="g842"
     transform="matrix(1.2121136,0,0,1.4545455,-6.7876352,-14.545456)">
    <path
       id="path2"
       style="fill:#f0f0f0"
       d="m 15.5,15.5 h 33 v 33 h -33 z"
       inkscape:connector-curvature="0" />
    <path
       id="path4"
       style="fill:#646464"
       d="M 48,16 V 48 H 16 V 16 h 32 m 1,-1 H 15 v 34 h 34 z"
       inkscape:connector-curvature="0" />
    <path
       id="path6"
       style="fill:#d9f1ff"
       d="m 19.5,19.5 h 25 v 25 h -25 z"
       inkscape:connector-curvature="0" />
    <path
       id="path8"
       style="fill:#7aadcc"
       d="M 44,20 V 44 H 20 V 20 h 24 m 1,-1 H 19 v 26 h 26 z"
       inkscape:connector-curvature="0" />
    <path
       id="path10"
       style="fill:#ececed"
       d="m 10.5,53.5 v -43 h 43 v 43 h -43 m 4,-4 h 35 v -35 h -35 v 35"
       inkscape:connector-curvature="0" />
    <path
       id="path12"
       style="fill:#9b9c9e"
       d="M 53,11 V 53 H 11 V 11 H 53 M 14,50 h 1 34 1 V 49 15 14 H 49 15 14 v 1 34 1 M 54,10 H 10 V 54 H 54 Z M 15,49 V 15 H 49 V 49 H 15"
       inkscape:connector-curvature="0" />
    <g
       id="g18"
       style="fill:#646464">
      <path
         id="path14"
         d="m 46,36.5 v -5 c 0,-0.27 0.22,-0.5 0.5,-0.5 0.27,0 0.5,0.23 0.5,0.5 v 5 C 47,36.78 46.77,37 46.5,37 46.22,37 46,36.78 46,36.5"
         inkscape:connector-curvature="0" />
      <circle
         id="circle16"
         r="1"
         cy="31.5"
         cx="46.5" />
    </g>
  </g>
</svg>
