<?xml version="1.0" encoding="UTF-8" standalone="no"?>
<svg
   xmlns:dc="http://purl.org/dc/elements/1.1/"
   xmlns:cc="http://creativecommons.org/ns#"
   xmlns:rdf="http://www.w3.org/1999/02/22-rdf-syntax-ns#"
   xmlns:svg="http://www.w3.org/2000/svg"
   xmlns="http://www.w3.org/2000/svg"
   xmlns:sodipodi="http://sodipodi.sourceforge.net/DTD/sodipodi-0.dtd"
   xmlns:inkscape="http://www.inkscape.org/namespaces/inkscape"
   viewBox="0 0 64 64"
   style="enable-background:new 0 0 64 64"
   version="1.1"
   id="svg34"
   sodipodi:docname="selfrollershutter-down.svg"
   inkscape:version="0.92.2 5c3e80d, 2017-08-06">
  <metadata
     id="metadata40">
    <rdf:RDF>
      <cc:Work
         rdf:about="">
        <dc:format>image/svg+xml</dc:format>
        <dc:type
           rdf:resource="http://purl.org/dc/dcmitype/StillImage" />
      </cc:Work>
    </rdf:RDF>
  </metadata>
  <defs
     id="defs38" />
  <sodipodi:namedview
     pagecolor="#ffffff"
     bordercolor="#666666"
     borderopacity="1"
     objecttolerance="10"
     gridtolerance="10"
     guidetolerance="10"
     inkscape:pageopacity="0"
     inkscape:pageshadow="2"
     inkscape:window-width="1920"
     inkscape:window-height="1013"
     id="namedview36"
     showgrid="false"
     inkscape:zoom="3.6875"
     inkscape:cx="-79.18644"
     inkscape:cy="32"
     inkscape:window-x="0"
     inkscape:window-y="0"
     inkscape:window-maximized="1"
     inkscape:current-layer="svg34" />
  <g
     id="g843"
     transform="matrix(1.2121212,0,0,1.2121212,-6.7878784,-6.7878784)">
    <path
       inkscape:connector-curvature="0"
       id="path2"
       style="fill:#f0f0f0;stroke-width:1.09544516"
       d="m 15.5,12.2 h 33 v 39.6 h -33 z" />
    <path
       inkscape:connector-curvature="0"
       id="path4"
       style="fill:#646464;stroke-width:1.09544516"
       d="M 48,12.8 V 51.2 H 16 V 12.8 h 32 m 1,-1.2 H 15 v 40.8 h 34 z" />
    <path
       inkscape:connector-curvature="0"
       id="path6"
       style="fill:#d9f1ff;stroke-width:1.09544516"
       d="m 19.5,17 h 25 v 30 h -25 z" />
    <path
       inkscape:connector-curvature="0"
       id="path8"
       style="fill:#7aadcc;stroke-width:1.09544516"
       d="M 44,17.6 V 46.4 H 20 V 17.6 h 24 m 1,-1.2 H 19 v 31.2 h 26 z" />
    <path
       inkscape:connector-curvature="0"
       id="path10"
       style="fill:#ececed;stroke-width:1.09544516"
       d="M 10.5,57.8 V 6.2 h 43 v 51.6 h -43 m 4,-4.8 h 35 V 11 h -35 v 42" />
    <path
       inkscape:connector-curvature="0"
       id="path12"
       style="fill:#9b9c9e;stroke-width:1.09544516"
       d="M 53,6.8 V 57.2 H 11 V 6.8 H 53 M 14,53.6 h 1 34 1 V 52.4 11.6 10.4 H 49 15 14 v 1.2 40.8 1.2 M 54,5.6 H 10 V 58.4 H 54 Z M 15,52.4 V 11.6 H 49 V 52.4 H 15" />
    <path
       inkscape:connector-curvature="0"
       id="path14"
       style="fill:#c8c8c8;stroke-width:1.09544516"
       d="m 14.5,14.6 h 35 V 53 h -35 z" />
    <path
       inkscape:connector-curvature="0"
       id="path16"
       style="fill:#646464;stroke-width:1.09544516"
       d="M 49,15.2 V 52.4 H 15 V 15.2 H 49 M 50,14 H 14 v 39.6 h 36 z" />
    <path
       inkscape:connector-curvature="0"
       id="path18"
       style="opacity:0.25;stroke-width:1.09544516"
       d="M 15,18.8 H 49 V 20 H 15 Z" />
    <path
       inkscape:connector-curvature="0"
       id="path20"
       style="opacity:0.25;stroke-width:1.09544516"
       d="m 15,23.6 h 34 v 1.2 H 15 Z" />
    <path
       inkscape:connector-curvature="0"
       id="path22"
       style="opacity:0.25;stroke-width:1.09544516"
       d="m 15,28.4 h 34 v 1.2 H 15 Z" />
    <path
       inkscape:connector-curvature="0"
       id="path24"
       style="opacity:0.25;stroke-width:1.09544516"
       d="m 15,33.2 h 34 v 1.2 H 15 Z" />
    <path
       inkscape:connector-curvature="0"
       id="path26"
       style="opacity:0.25;stroke-width:1.09544516"
       d="m 15,38 h 34 v 1.2 H 15 Z" />
    <path
       inkscape:connector-curvature="0"
       id="path28"
       style="opacity:0.25;stroke-width:1.09544516"
       d="M 15,42.8 H 49 V 44 H 15 Z" />
    <path
       inkscape:connector-curvature="0"
       id="path30"
       style="opacity:0.25;stroke-width:1.09544516"
       d="m 15,47.6 h 34 v 1.2 H 15 Z" />
    <path
       inkscape:connector-curvature="0"
       id="path32"
       style="fill:#282828;stroke-width:1.09544516"
       d="m 14,10.4 h 36 v 4.8 H 14 Z" />
  </g>
</svg>
