<?xml version="1.0" encoding="UTF-8" standalone="no"?>
<svg
   xmlns:dc="http://purl.org/dc/elements/1.1/"
   xmlns:cc="http://creativecommons.org/ns#"
   xmlns:rdf="http://www.w3.org/1999/02/22-rdf-syntax-ns#"
   xmlns:svg="http://www.w3.org/2000/svg"
   xmlns="http://www.w3.org/2000/svg"
   xmlns:sodipodi="http://sodipodi.sourceforge.net/DTD/sodipodi-0.dtd"
   xmlns:inkscape="http://www.inkscape.org/namespaces/inkscape"
   viewBox="0 0 64 64"
   style="enable-background:new 0 0 64 64"
   version="1.1"
   id="svg16"
   sodipodi:docname="selfdoor-closed.svg"
   inkscape:version="0.92.2 5c3e80d, 2017-08-06">
  <metadata
     id="metadata22">
    <rdf:RDF>
      <cc:Work
         rdf:about="">
        <dc:format>image/svg+xml</dc:format>
        <dc:type
           rdf:resource="http://purl.org/dc/dcmitype/StillImage" />
      </cc:Work>
    </rdf:RDF>
  </metadata>
  <defs
     id="defs20" />
  <sodipodi:namedview
     pagecolor="#ffffff"
     bordercolor="#666666"
     borderopacity="1"
     objecttolerance="10"
     gridtolerance="10"
     guidetolerance="10"
     inkscape:pageopacity="0"
     inkscape:pageshadow="2"
     inkscape:window-width="1920"
     inkscape:window-height="1013"
     id="namedview18"
     showgrid="false"
     inkscape:zoom="3.6875"
     inkscape:cx="-23.59322"
     inkscape:cy="32"
     inkscape:window-x="0"
     inkscape:window-y="0"
     inkscape:window-maximized="1"
     inkscape:current-layer="svg16" />
  <g
     id="g836"
     transform="matrix(1.0666607,0,0,1.0666607,-2.1331424,-1.0664817)">
    <path
       id="path2"
       style="fill:#ececed"
       d="m 47.5,58.5 v -51 h -31 v 51 h -4 v -55 h 39 v 55 z"
       inkscape:connector-curvature="0" />
    <path
       id="path4"
       style="fill:#9b9c9e"
       d="M 51,4 V 58 H 48 V 8 7 H 47 17 16 V 8 58 H 13 V 4 H 51 M 52,3 H 12 v 56 h 5 V 8 h 30 v 51 h 5 z"
       inkscape:connector-curvature="0" />
    <path
       id="path6"
       style="fill:#f0f0f0"
       d="m 17.5,8.5 h 29 v 50 h -29 z"
       inkscape:connector-curvature="0" />
    <g
       id="g14"
       style="fill:#646464">
      <path
         id="path8"
         d="M 46,9 V 58 H 18 V 9 H 46 M 47,8 H 17 v 51 h 30 z"
         inkscape:connector-curvature="0" />
      <circle
         id="circle10"
         r="1"
         cy="37"
         cx="43" />
      <path
         id="path12"
         d="m 39.5,32 h 4 c 0.28,0 0.5,0.22 0.5,0.5 0,0.28 -0.22,0.5 -0.5,0.5 h -4 C 39.22,33 39,32.78 39,32.5 39,32.22 39.22,32 39.5,32"
         inkscape:connector-curvature="0" />
    </g>
  </g>
</svg>
