<?xml version="1.0" encoding="UTF-8" standalone="no"?>
<svg
   xmlns:osb="http://www.openswatchbook.org/uri/2009/osb"
   xmlns:dc="http://purl.org/dc/elements/1.1/"
   xmlns:cc="http://creativecommons.org/ns#"
   xmlns:rdf="http://www.w3.org/1999/02/22-rdf-syntax-ns#"
   xmlns:svg="http://www.w3.org/2000/svg"
   xmlns="http://www.w3.org/2000/svg"
   xmlns:xlink="http://www.w3.org/1999/xlink"
   xmlns:sodipodi="http://sodipodi.sourceforge.net/DTD/sodipodi-0.dtd"
   xmlns:inkscape="http://www.inkscape.org/namespaces/inkscape"
   width="64"
   height="64"
   id="svg2"
   version="1.1"
   inkscape:version="0.92.2 5c3e80d, 2017-08-06"
   sodipodi:docname="selfgas.svg">
  <metadata
     id="metadata58">
    <rdf:RDF>
      <cc:Work
         rdf:about="">
        <dc:format>image/svg+xml</dc:format>
        <dc:type
           rdf:resource="http://purl.org/dc/dcmitype/StillImage" />
        <dc:title />
      </cc:Work>
    </rdf:RDF>
  </metadata>
  <sodipodi:namedview
     pagecolor="#ffffff"
     bordercolor="#666666"
     borderopacity="1"
     objecttolerance="10"
     gridtolerance="10"
     guidetolerance="10"
     inkscape:pageopacity="0"
     inkscape:pageshadow="2"
     inkscape:window-width="1920"
     inkscape:window-height="1013"
     id="namedview56"
     showgrid="false"
     showguides="false"
     inkscape:zoom="6.9532166"
     inkscape:cx="-9.4964077"
     inkscape:cy="28.170124"
     inkscape:window-x="0"
     inkscape:window-y="0"
     inkscape:window-maximized="1"
     inkscape:current-layer="svg2" />
  <defs
     id="defs4">
    <linearGradient
       id="linearGradient4279"
       osb:paint="solid">
      <stop
         style="stop-color:#000000;stop-opacity:1;"
         offset="0"
         id="stop4281" />
    </linearGradient>
    <linearGradient
       id="e"
       y1="23"
       x1="24"
       y2="39"
       x2="40"
       gradientUnits="userSpaceOnUse">
      <stop
         stop-color="#292c2f"
         id="stop27"
         style="stop-color:#ffa701;stop-opacity:1" />
      <stop
         offset="1"
         stop-opacity="0"
         id="stop29"
         style="stop-color:#ff9100;stop-opacity:1" />
    </linearGradient>
    <linearGradient
       inkscape:collect="always"
       id="linearGradient841">
      <stop
         style="stop-color:#1966d6;stop-opacity:1"
         offset="0"
         id="stop837" />
      <stop
         style="stop-color:#66a0f1;stop-opacity:1"
         offset="1"
         id="stop839" />
    </linearGradient>
    <linearGradient
       inkscape:collect="always"
       id="linearGradient833">
      <stop
         style="stop-color:#4e90f0;stop-opacity:1"
         offset="0"
         id="stop829" />
      <stop
         style="stop-color:#86b3f5;stop-opacity:1"
         offset="1"
         id="stop831" />
    </linearGradient>
    <linearGradient
       inkscape:collect="always"
       id="linearGradient825">
      <stop
         style="stop-color:#91baf5;stop-opacity:1"
         offset="0"
         id="stop821" />
      <stop
         style="stop-color:#a2c5f6;stop-opacity:1"
         offset="1"
         id="stop823" />
    </linearGradient>
    <linearGradient
       inkscape:collect="always"
       xlink:href="#linearGradient841"
       id="linearGradient1569"
       gradientUnits="userSpaceOnUse"
       x1="-273.4632"
       y1="2.235502"
       x2="-258.33334"
       y2="-91.801704" />
    <inkscape:path-effect
       effect="bspline"
       id="path-effect846"
       is_visible="true"
       weight="33.333333"
       steps="2"
       helper_size="0"
       apply_no_weight="true"
       apply_with_weight="true"
       only_selected="false" />
    <linearGradient
       inkscape:collect="always"
       xlink:href="#linearGradient833"
       id="linearGradient1559"
       gradientUnits="userSpaceOnUse"
       x1="-274.93451"
       y1="-3.7513359"
       x2="-256.66956"
       y2="-65.649147" />
    <inkscape:path-effect
       effect="bspline"
       id="path-effect868"
       is_visible="true"
       weight="33.333333"
       steps="2"
       helper_size="0"
       apply_no_weight="true"
       apply_with_weight="true"
       only_selected="false" />
    <linearGradient
       inkscape:collect="always"
       xlink:href="#linearGradient825"
       id="linearGradient1549"
       gradientUnits="userSpaceOnUse"
       x1="-275.89847"
       y1="-6.592546"
       x2="-264.6351"
       y2="-40.737816" />
    <inkscape:path-effect
       effect="bspline"
       id="path-effect872"
       is_visible="true"
       weight="33.333333"
       steps="2"
       helper_size="0"
       apply_no_weight="true"
       apply_with_weight="true"
       only_selected="false" />
    <linearGradient
       inkscape:collect="always"
       xlink:href="#linearGradient841"
       id="linearGradient1592"
       gradientUnits="userSpaceOnUse"
       x1="-254.77036"
       y1="9.2820139"
       x2="-239.37003"
       y2="-44.842175" />
    <inkscape:path-effect
       effect="bspline"
       id="path-effect876"
       is_visible="true"
       weight="33.333333"
       steps="2"
       helper_size="0"
       apply_no_weight="true"
       apply_with_weight="true"
       only_selected="false" />
    <linearGradient
       inkscape:collect="always"
       xlink:href="#linearGradient833"
       id="linearGradient1531"
       x1="-253.79208"
       y1="7.3928599"
       x2="-239.01128"
       y2="-22.599237"
       gradientUnits="userSpaceOnUse" />
    <inkscape:path-effect
       effect="bspline"
       id="path-effect880"
       is_visible="true"
       weight="33.333333"
       steps="2"
       helper_size="0"
       apply_no_weight="true"
       apply_with_weight="true"
       only_selected="false" />
    <linearGradient
       inkscape:collect="always"
       xlink:href="#linearGradient825"
       id="linearGradient1523"
       x1="-252.97427"
       y1="5.6036367"
       x2="-243.07574"
       y2="-9.8519897"
       gradientUnits="userSpaceOnUse" />
    <inkscape:path-effect
       effect="bspline"
       id="path-effect884"
       is_visible="true"
       weight="33.333333"
       steps="2"
       helper_size="0"
       apply_no_weight="true"
       apply_with_weight="true"
       only_selected="false" />
  </defs>
  <path
     d="m 28.773801,63.320598 a 31.503094,31.503512 0 0 0 6.4535,0.0092 l 0.748197,-4.883046 a 26.777629,26.777986 0 0 0 5.808141,-1.55229 l 3.081002,3.845 a 31.503094,31.503512 0 0 0 5.590173,-3.235065 l -1.787798,-4.585328 a 26.777629,26.777986 0 0 0 4.268381,-4.245368 l 4.556925,1.775223 a 31.503094,31.503512 0 0 0 3.229199,-5.597182 l -3.815029,-3.057414 a 26.777629,26.777986 0 0 0 0.958628,-2.864475 26.777629,26.777986 0 0 0 0.581806,-2.955889 l 4.873528,-0.748208 a 31.503094,31.503512 0 0 0 0.0095,-6.453588 L 58.44689,28.024126 A 26.777629,26.777986 0 0 0 56.894615,22.21591 l 3.844955,-3.081047 a 31.503094,31.503512 0 0 0 -3.235025,-5.590248 l -4.585276,1.787824 A 26.777629,26.777986 0 0 0 48.674334,11.064324 L 50.449745,6.5076423 A 31.503094,31.503512 0 0 0 44.852304,3.2782888 L 41.797336,7.0935145 A 26.777629,26.777986 0 0 0 38.930438,6.1346425 26.777629,26.777986 0 0 0 35.974587,5.5528263 L 35.228941,0.67940137 a 31.503094,31.503512 0 0 0 -6.453496,-0.00922 L 28.024183,5.5530911 A 26.777629,26.777986 0 0 0 22.216532,7.1058125 L 19.135591,3.2611558 A 31.503094,31.503512 0 0 0 13.54541,6.4962263 l 1.787804,4.5853397 a 26.777629,26.777986 0 0 0 -4.268382,4.245367 L 6.5075763,13.550172 A 31.503094,31.503512 0 0 0 3.278381,19.147351 l 3.8150226,3.057418 a 26.777629,26.777986 0 0 0 -0.9586231,2.864475 26.777629,26.777986 0 0 0 -0.5818066,2.955889 l -4.87353045,0.74821 a 31.503094,31.503512 0 0 0 -0.00931,6.453587 l 4.88297635,0.748208 a 26.777629,26.777986 0 0 0 1.5522751,5.808217 l -3.8449432,3.081043 a 31.503094,31.503512 0 0 0 3.2350234,5.590249 l 4.5852769,-1.787824 a 26.777629,26.777986 0 0 0 4.24531,4.268442 l -1.775198,4.556981 a 31.503094,31.503512 0 0 0 5.597106,3.22924 l 3.057384,-3.815076 a 26.777629,26.777986 0 0 0 2.864435,0.958638 26.777629,26.777986 0 0 0 2.955852,0.581813 z M 26.292375,53.30122 A 22.052164,22.05246 0 0 1 10.699141,26.292583 22.052164,22.05246 0 0 1 37.707418,10.699141 22.052164,22.05246 0 0 1 53.300658,37.707776 22.052164,22.05246 0 0 1 26.292375,53.30122"
     id="path38-3"
     style="color:#000000;opacity:0.98000004;fill:#4c73cc;fill-opacity:1;stroke:#28478c;stroke-width:1.01814282;stroke-linejoin:round;stroke-miterlimit:4;stroke-dasharray:none;stroke-opacity:1"
     inkscape:connector-curvature="0" />
  <g
     id="g1590"
     transform="matrix(0.32983275,0,0,0.32983275,117.78092,45.605955)">
    <path
       sodipodi:nodetypes="cccccccccccccccccccccccccccccccc"
       inkscape:original-d="m -258.33335,-91.801707 c 0,0 -1.31085,6.893954 -1.96676,10.341795 -1.91844,4.297939 -3.83661,8.594929 -5.7556,12.893449 -1.75598,2.116984 -3.51171,4.233624 -5.26818,6.35109 -2.3908,2.515938 -4.78154,5.03179 -7.17263,7.548001 -1.76162,2.344058 -3.52298,4.687676 -5.28578,7.03312 -0.46685,0.928997 -0.93365,1.857637 -1.40085,2.786827 -0.73484,1.603605 -1.46993,3.207472 -2.20533,4.811691 -0.57189,2.242043 -1.14386,4.48364 -1.7164,6.726675 -0.21137,1.158179 -0.42289,2.316011 -0.63474,3.474492 -0.026,1.57634 -0.0523,3.152611 -0.0788,4.729596 0.13448,1.344335 0.26869,2.688792 0.40262,4.033317 0.90367,2.196004 1.80734,4.392914 2.71057,6.589673 1.0591,1.56446 2.11798,3.129242 3.17661,4.6943081 3.35549,4.007544 6.71066,8.015291 10.06546,12.023175 m 0,0 c 0,0 -0.0444,-3.07137103 -0.0686,-4.718915 0.16407,-1.886024 0.3438,-3.955037 0.46911,-5.40035 0.52733,-1.194879 1.31283,-2.9752451 1.969,-4.4628141 0.76646,-1.021342 1.53232,-2.041983 2.29822,-3.062764 1.98758,-1.693979 3.97448,-3.387341 5.96123,-5.08054 1.36172,-1.236236 2.72312,-2.472163 4.08448,-3.708029 1.908,-1.982489 3.8154,-3.964377 5.72264,-5.946098 1.15376,-1.958676 2.30743,-3.917389 3.46056,-5.875369 1.22635,-2.334461 2.45268,-4.669113 3.67867,-7.003354 0.59346,-2.35099 1.18662,-4.701527 1.77956,-7.052016 0.12078,-1.584585 0.24128,-3.168656 0.36154,-4.752793 -0.11946,-2.005486 -0.23917,-4.010424 -0.35914,-6.015151 -0.55152,-1.906776 -1.10333,-3.813318 -1.65543,-5.719704 -0.65662,-1.723515 -1.31345,-3.446638 -1.97057,-5.169529 -0.9495,-1.93005 -1.89922,-3.859728 -2.84934,-5.789427 -2.58397,-4.760767 -5.16779,-9.520502 -7.75209,-14.280356"
       inkscape:path-effect="#path-effect846"
       inkscape:connector-curvature="0"
       id="path844"
       d="m -258.33335,-91.801707 c -0.65559,3.447265 -1.31106,6.893915 -2.59819,10.766797 -1.28713,3.872882 -3.2053,8.169874 -5.04274,11.377642 -1.83743,3.207768 -3.59317,5.324405 -5.66679,7.641115 -2.07363,2.316709 -4.46437,4.832563 -6.54074,7.262684 -2.07637,2.430122 -3.83773,4.77374 -4.95259,6.410951 -1.11485,1.637212 -1.58165,2.565853 -2.18268,3.83225 -0.60102,1.266396 -1.33612,2.870261 -1.9898,4.793395 -0.65367,1.923135 -1.22565,4.164731 -1.61761,5.865343 -0.39197,1.700612 -0.60349,2.858445 -0.72244,4.225872 -0.11895,1.367427 -0.14522,2.943698 -0.0913,4.404374 0.054,1.460676 0.18817,2.805133 0.70695,4.575449 0.51878,1.770317 1.42245,3.967227 2.40362,5.847873 0.98118,1.880645 2.04006,3.445428 4.24713,6.2317505 2.20706,2.7863229 5.56223,6.794069 8.91732,10.8017136 m 0,0 c -0.0229,-1.57297167 -0.0446,-3.07136741 0.0253,-4.8381634 0.0699,-1.7667961 0.24967,-3.8358092 0.57605,-5.1559222 0.32638,-1.3201129 1.11188,-3.1004795 1.82323,-4.3549245 0.71135,-1.254445 1.47722,-2.275085 2.85399,-3.632438 1.37677,-1.357353 3.36367,-3.050715 5.0379,-4.515437 1.67423,-1.464723 3.03563,-2.700649 4.6703,-4.309836 1.63467,-1.609187 3.54208,-3.591071 5.07254,-5.561292 1.53046,-1.970221 2.68413,-3.928934 3.87386,-6.075155 1.18973,-2.146222 2.41606,-4.480875 3.32575,-6.823488 0.90968,-2.342613 1.50283,-4.693152 1.85967,-6.660674 0.35683,-1.967522 0.47733,-3.551593 0.47771,-5.346387 3.8e-4,-1.794794 -0.11932,-3.799733 -0.45509,-5.755446 -0.33577,-1.955712 -0.88758,-3.862256 -1.49194,-5.677192 -0.60436,-1.814935 -1.26119,-3.538056 -2.0645,-5.36451 -0.80331,-1.826453 -1.75303,-3.756133 -3.52007,-7.101358 -1.76705,-3.345224 -4.35087,-8.104959 -6.93485,-12.864986"
       style="fill:url(#linearGradient1569);fill-opacity:1;fill-rule:evenodd;stroke:#000000;stroke-width:0.07937501;stroke-linecap:butt;stroke-linejoin:miter;stroke-miterlimit:4;stroke-dasharray:none;stroke-opacity:1" />
    <path
       sodipodi:nodetypes="cccccccccccccccccccc"
       inkscape:original-d="m -256.66957,-65.649149 c 0,0 -2.27912,4.083539 -3.52272,6.3114 -1.76479,1.783337 -3.56377,3.601215 -5.00091,5.053444 -1.79622,1.44917 -3.95653,3.192153 -6.2525,5.044633 -3.10668,1.842354 -5.76874,3.421126 -8.46197,5.018487 -1.76766,2.264098 -3.70306,4.742968 -5.55526,7.115204 -0.73439,2.831367 -1.46887,5.662356 -2.20373,8.494048 0.0476,1.866929 0.0948,3.733943 0.14187,5.601431 0.97764,2.599512 1.955,5.199255 2.932,7.799006 3.21947,3.81952 6.43913,7.6398411 9.65829,11.4601601 m 0,0 c 0,0 0.32239,-5.119468 0.50883,-8.0864371 1.04905,-2.088986 2.04595,-4.074358 2.85821,-5.69228 1.82427,-1.466305 4.09731,-3.293248 6.41631,-5.157081 1.48888,-1.518333 2.7802,-2.835201 4.11829,-4.199779 1.75381,-2.471044 3.57459,-5.036555 5.39587,-7.602887 0.59604,-2.538724 1.1747,-5.004276 1.76483,-7.519543 0.1507,-2.069901 0.30023,-4.127092 0.44969,-6.186651 -0.13968,-2.538614 -0.27983,-5.080691 -0.42032,-7.62389 -0.9428,-3.279476 -1.88459,-6.55425 -2.82678,-9.829265"
       inkscape:path-effect="#path-effect868"
       inkscape:connector-curvature="0"
       id="path866"
       d="m -256.66957,-65.649149 c -1.17424,2.1038 -2.27921,4.08349 -3.78336,6.089112 -1.50415,2.005621 -3.30313,3.823499 -4.9198,5.274217 -1.61666,1.450717 -3.77698,3.193698 -6.47829,5.041139 -2.70131,1.847441 -5.36337,3.426212 -7.59386,5.35689 -2.23048,1.930677 -4.16588,4.409547 -5.45925,7.011339 -1.29337,2.601792 -2.02785,5.43278 -2.37155,7.782118 -0.3437,2.349338 -0.29641,4.21635 0.2159,6.449907 0.51231,2.233557 1.48967,4.8333 3.58792,8.042996 2.09825,3.209696 5.31791,7.0300195 8.53736,10.8500951 m 0,0 c 0.16961,-2.695479 0.32214,-5.1194839 0.93996,-7.6474791 0.61782,-2.527995 1.61471,-4.513369 2.93305,-6.055439 1.31833,-1.54207 3.59137,-3.369015 5.49529,-5.060116 1.90393,-1.691101 3.19524,-3.00797 4.74117,-4.925797 1.54593,-1.917826 3.36671,-4.483339 4.5753,-7.035871 1.20859,-2.552531 1.78725,-5.018083 2.15764,-7.310653 0.37039,-2.292571 0.51992,-4.349762 0.52479,-6.648832 0.005,-2.29907 -0.13528,-4.841147 -0.67694,-7.752447 -0.54166,-2.9113 -1.48345,-6.186075 -2.42533,-9.461179"
       style="fill:url(#linearGradient1559);fill-opacity:1;fill-rule:evenodd;stroke:#000000;stroke-width:0.07937501;stroke-linecap:butt;stroke-linejoin:miter;stroke-miterlimit:4;stroke-dasharray:none;stroke-opacity:1" />
    <path
       sodipodi:nodetypes="cccccccccccccccccc"
       inkscape:original-d="m -264.63511,-40.737816 c 0,0 -2.2657,2.722274 -3.3993,4.084241 -1.53905,1.141534 -3.07772,2.282851 -4.61697,3.424674 -1.86042,1.403702 -3.72007,2.806896 -5.58095,4.211082 -0.92159,1.22605 -1.84314,2.45197 -2.76511,3.678351 -0.27033,1.251222 -0.54085,2.502395 -0.81177,3.754459 0.21171,1.716727 0.42303,3.432648 0.63419,5.149696 0.89672,1.902571 1.79294,3.804928 2.68901,5.707788 0.86277,1.3780611 1.72529,2.7563891 2.58753,4.1349791 m 0,0 c 0,0 0.13556,-4.6848821 0.20294,-7.0269231 0.6091,-1.294032 1.21793,-2.5878 1.82649,-3.8813 0.82896,-1.048808 1.65764,-2.097349 2.48607,-3.145626 1.45469,-1.522344 2.90912,-3.04442 4.36329,-4.566232 0.79512,-1.310942 1.58999,-2.621621 2.38458,-3.932034 0.28777,-1.429324 0.57527,-2.858386 0.86251,-4.287184 0.009,-1.293767 0.0172,-2.587797 0.0254,-3.881297 -0.29569,-1.141823 -0.88788,-3.424674 -0.88788,-3.424674"
       inkscape:path-effect="#path-effect872"
       inkscape:connector-curvature="0"
       id="path870"
       d="m -264.63511,-40.737816 c -1.1331,1.361414 -2.26572,2.722255 -3.60202,3.974037 -1.3363,1.251782 -2.87497,2.393102 -4.5748,3.665863 -1.69984,1.272762 -3.55949,2.675954 -4.95076,3.991035 -1.39127,1.315082 -2.31282,2.540999 -2.90905,3.779796 -0.59622,1.238797 -0.86675,2.48997 -0.8964,3.974404 -0.0296,1.484435 0.18167,3.200356 0.73559,5.010224 0.55393,1.809867 1.45015,3.712223 2.32958,5.352704 0.87942,1.6404807 1.74194,3.0188127 2.60449,4.3972071 m 0,0 c 0.0677,-2.3423077 0.1353,-4.6848891 0.47361,-6.5029501 0.33831,-1.818061 0.94714,-3.111829 1.66594,-4.282969 0.7188,-1.171141 1.54749,-2.219678 2.68906,-3.504977 1.14158,-1.2853 2.59601,-2.807376 3.72062,-4.223774 1.12461,-1.416397 1.91947,-2.72708 2.46059,-4.096945 0.54111,-1.369865 0.82862,-2.798927 0.97657,-4.160191 0.14796,-1.361263 0.15643,-2.655292 0.0126,-3.872911 -0.14377,-1.21762 -0.43968,-2.358995 -0.73564,-3.500553"
       style="fill:url(#linearGradient1549);fill-opacity:1;fill-rule:evenodd;stroke:#000000;stroke-width:0.079375;stroke-linecap:butt;stroke-linejoin:miter;stroke-miterlimit:4;stroke-dasharray:none;stroke-opacity:1" />
    <path
       sodipodi:nodetypes="cccccccccccccccccccccccccccccccccccccccccc"
       inkscape:original-d="m -239.37003,-44.842176 c 0,0 -0.0233,1.962709 -0.0373,3.107489 -0.17352,1.14763 -0.32985,2.180332 -0.47183,3.116665 -0.22607,0.775347 -0.48388,1.658856 -0.75358,2.58242 -0.49746,1.237842 -0.93965,2.337785 -1.39212,3.462918 -0.54077,0.790681 -1.10084,1.609458 -1.66557,2.434934 -0.63451,0.767432 -1.25243,1.514764 -1.87299,2.265225 -0.99031,0.910211 -1.98965,1.828747 -2.99104,2.749189 -1.02761,0.786282 -2.05644,1.573551 -3.08245,2.358734 -0.89203,0.710087 -1.78647,1.422154 -2.68139,2.134652 -0.81665,0.738497 -1.63247,1.476264 -2.4484,2.214157 -0.72689,1.131182 -1.45461,2.263509 -2.18272,3.396293 -0.37366,0.85396 -0.74736,1.707658 -1.12136,2.561718 -0.41671,1.141338 -0.83376,2.283128 -1.25109,3.4252533 -0.088,1.4330054 -0.17632,2.8661549 -0.26486,4.2993958 0.30751,1.4533513 0.6148,2.9071528 0.92184,4.36132134 0.61705,1.27262991 1.23376,2.54536496 1.8502,3.81834166 0.53596,0.8550125 1.0717,1.7103583 1.60718,2.5659692 0.81267,1.0896032 1.62509,2.1794819 2.43716,3.2695143 m 0,0 c 0,0 2.23725,-0.9584257 3.27751,-1.4038446 1.00501,-0.5115487 1.99924,-1.017477 3.16484,-1.610478 0.89489,-0.5373203 1.7127,-1.0282595 2.42856,-1.4578909 1.02398,-0.7481775 2.24948,-1.6435058 3.4717,-2.5363702 0.80279,-0.7877931 1.55093,-1.52196054 2.27906,-2.23647882 0.53192,-0.55081998 1.05356,-1.09098828 1.57793,-1.63400408 0.68183,-0.8515931 1.36584,-1.705991 2.0499,-2.5605088 0.65459,-0.9888699 1.30728,-1.9750112 1.96004,-2.9613767 0.35821,-0.7592292 0.71641,-1.5187425 1.07437,-2.2780374 0.45982,-1.0145851 0.91918,-2.0284611 1.37828,-3.0421041 0.27902,-1.004761 0.55778,-2.009268 0.83637,-3.013868 0.13491,-0.731374 0.26945,-1.461938 0.40384,-2.192797 0.18535,-1.243962 0.37037,-2.487134 0.55513,-3.730116 -0.0376,-1.197375 -0.0756,-2.395625 -0.1137,-3.591692 -0.0581,-0.704344 -0.1166,-1.409418 -0.1753,-2.113826 -0.22639,-1.297699 -0.45299,-2.594885 -0.67989,-3.891953 -0.23239,-0.676893 -0.46499,-1.353363 -0.69796,-2.029861 -0.44972,-1.189163 -0.89956,-2.377669 -1.34968,-3.565947 -0.3869,-0.748837 -0.77409,-1.497444 -1.16161,-2.245917 -0.56776,-0.818367 -1.13564,-1.636261 -1.70385,-2.453984 -0.46468,-0.57922 -0.92962,-1.158172 -1.39485,-1.73688 -0.59322,-0.612363 -1.18663,-1.224392 -1.7804,-1.836255"
       inkscape:path-effect="#path-effect876"
       inkscape:connector-curvature="0"
       id="path874"
       d="m -239.37003,-44.842176 c -0.0124,1.03583 -0.0236,1.962706 -0.1173,3.108896 -0.0937,1.146191 -0.25007,2.178891 -0.43407,3.034723 -0.184,0.855832 -0.44182,1.739339 -0.82538,2.82004 -0.38356,1.080701 -0.82575,2.180645 -1.32233,3.138561 -0.49657,0.957916 -1.05664,1.776693 -1.65625,2.573156 -0.5996,0.796464 -1.21753,1.543792 -2.02294,2.374145 -0.80542,0.830354 -1.80476,1.748889 -2.81925,2.602264 -1.01449,0.853375 -2.04332,1.640647 -3.00234,2.388279 -0.95902,0.747632 -1.85346,1.459696 -2.70926,2.185184 -0.85579,0.725487 -1.67161,1.463256 -2.44306,2.397765 -0.77145,0.934509 -1.49917,2.066836 -2.05008,3.060202 -0.55092,0.993366 -0.92461,1.847065 -1.31998,2.844764 -0.39537,0.997699 -0.81241,2.13949 -1.06515,3.4270735 -0.25273,1.2875831 -0.34102,2.7207346 -0.23156,4.1640705 0.10945,1.443336 0.41674,2.8971383 0.87878,4.2605813 0.46204,1.36344296 1.07876,2.6361775 1.65496,3.7001921 0.5762,1.0640147 1.11194,1.9193601 1.78602,2.8919809 0.67409,0.9726209 1.4865,2.062501 2.29887,3.1523123 m 0,0 c 1.0925,-0.4679482 2.23731,-0.9582972 3.25994,-1.4367921 1.02263,-0.478495 2.01686,-0.9844241 3.04711,-1.5495977 1.03024,-0.5651736 1.84805,-1.0561136 2.71796,-1.6450334 0.86992,-0.5889198 2.09541,-1.4842501 3.1079,-2.3246013 1.01249,-0.8403512 1.76063,-1.57451587 2.39066,-2.20718756 0.63002,-0.63267169 1.15165,-1.17284434 1.75474,-1.87016034 0.60308,-0.6973161 1.2871,-1.5517108 1.95641,-2.4734123 0.66931,-0.9217015 1.322,-1.9078404 1.82746,-2.7806458 0.50545,-0.8728055 0.86366,-1.6323179 1.27254,-2.519258 0.40889,-0.8869401 0.86825,-1.9008181 1.23728,-2.9100171 0.36903,-1.009198 0.64779,-2.013706 0.85453,-2.881687 0.20673,-0.867981 0.34128,-1.598544 0.50114,-2.585952 0.15987,-0.987408 0.34488,-2.230581 0.41842,-3.450738 0.0735,-1.220157 0.0356,-2.41841 -0.0125,-3.368606 -0.0481,-0.950196 -0.10661,-1.655273 -0.24916,-2.656312 -0.14256,-1.001039 -0.36916,-2.298224 -0.59882,-3.285176 -0.22965,-0.986952 -0.46225,-1.663422 -0.8036,-2.596246 -0.34134,-0.932825 -0.79118,-2.121331 -1.20969,-3.089867 -0.41851,-0.968535 -0.8057,-1.717144 -1.28333,-2.500541 -0.47763,-0.783397 -1.04551,-1.601291 -1.56195,-2.299751 -0.51644,-0.698459 -0.98138,-1.277409 -1.51059,-1.872934 -0.52922,-0.595524 -1.12263,-1.207552 -1.71613,-1.819674"
       style="fill:url(#linearGradient1592);fill-opacity:1;fill-rule:evenodd;stroke:#000000;stroke-width:0.079375;stroke-linecap:butt;stroke-linejoin:miter;stroke-miterlimit:4;stroke-dasharray:none;stroke-opacity:1" />
    <path
       sodipodi:nodetypes="cccccccccccccccccccccccccccc"
       inkscape:original-d="m -239.01127,-22.599237 c 0,0 -0.47684,1.195761 -0.7456,1.8691 -0.50023,0.540419 -1.01375,1.095174 -1.38985,1.501455 -0.6999,0.605127 -1.72187,1.488768 -2.58922,2.238748 -1.4968,0.900942 -2.97971,1.793622 -4.47044,2.69112 -1.24822,1.000826 -2.50635,2.009647 -3.74465,3.002627 -0.51638,0.544555 -1.03856,1.095222 -1.56266,1.647896 -0.4773,0.6694573 -0.95087,1.3335736 -1.42463,1.9978531 -0.34974,0.765146 -0.70178,1.5350025 -1.05308,2.3029272 -0.10372,1.017734 -0.20769,2.035502 -0.31196,3.0539258 0.007,0.7329304 0.0133,1.46584868 0.0196,2.19918769 0.14206,0.80090535 0.28382,1.60193241 0.42537,2.40347091 0.27247,0.7717208 0.54457,1.5434019 0.8165,2.3156183 0.41691,0.9225526 0.8335,1.8452242 1.24983,2.7681681 m 0,0 c 0,0 1.63375,-0.968299 2.52119,-1.494105 0.90627,-0.6110533 1.88334,-1.269748 2.57317,-1.734715 0.83839,-0.5982252 2.08345,-1.4865141 3.12513,-2.2296231 0.77643,-0.6443947 1.55224,-1.28823111 2.32797,-1.93195893 0.77651,-0.92226072 1.55257,-1.84403847 2.32872,-2.76596227 0.53653,-0.7141406 1.07252,-1.4276555 1.60845,-2.1411615 0.59835,-1.1603266 1.1962,-2.3199175 1.79415,-3.4799418 0.24243,-0.888051 0.48445,-1.7753065 0.72631,-2.6626515 0.0633,-1.166882 0.12637,-2.333081 0.18918,-3.499616 -0.0943,-0.783589 -0.18883,-1.566377 -0.28367,-2.349446 -0.14151,-0.512228 -0.42523,-1.535528 -0.42523,-1.535528 0,0 -0.37696,-1.190199 -0.59218,-1.868025 -0.40353,-0.834931 -0.80916,-1.673389 -1.11239,-2.299363"
       inkscape:path-effect="#path-effect880"
       inkscape:connector-curvature="0"
       id="path878"
       d="m -239.01127,-22.599237 c -0.24853,0.623033 -0.47698,1.195706 -0.86141,1.802608 -0.38443,0.606902 -0.89795,1.161657 -1.43594,1.667376 -0.53798,0.505719 -1.55995,1.389358 -2.74201,2.214847 -1.18206,0.82549 -2.66497,1.718172 -4.03446,2.667311 -1.36948,0.949139 -2.62761,1.957962 -3.50497,2.72671 -0.87735,0.768749 -1.39954,1.319414 -1.90026,1.9304643 -0.50072,0.6110506 -0.97429,1.2751677 -1.38607,1.9898708 -0.41179,0.7147031 -0.76383,1.4845599 -0.9914,2.3774043 -0.22757,0.8928444 -0.33154,1.9106129 -0.38029,2.7863041 -0.0487,0.8756912 -0.0422,1.60860738 0.0319,2.3757555 0.0742,0.76714812 0.21591,1.568174 0.42291,2.3548332 0.207,0.7866592 0.4791,1.5583406 0.82352,2.4057397 0.34443,0.847399 0.76101,1.7700718 1.17766,2.6928732 m 0,0 c 0.8404,-0.498035 1.6338,-0.9682192 2.53065,-1.5366589 0.89685,-0.5684396 1.87392,-1.2271355 2.63803,-1.7587357 0.76411,-0.5316002 2.00917,-1.4198883 2.91821,-2.1136529 0.90905,-0.6937647 1.68486,-1.33760141 2.46096,-2.12061816 0.7761,-0.78301675 1.55216,-1.70479284 2.20849,-2.52283144 0.65633,-0.8180387 1.19232,-1.531551 1.75943,-2.4684779 0.56711,-0.9369269 1.16496,-2.0965182 1.58511,-3.120555 0.42015,-1.0240369 0.66218,-1.9112921 0.81473,-2.9383871 0.15256,-1.027096 0.2156,-2.193296 0.19983,-3.168333 -0.0158,-0.975037 -0.11029,-1.757827 -0.22848,-2.405449 -0.11819,-0.647623 -0.25985,-1.159167 -0.40159,-1.67101 -0.19739,-0.622675 -0.37727,-1.1901 -0.68665,-1.946451 -0.30938,-0.75635 -0.71501,-1.594808 -1.01792,-2.220937"
       style="fill:url(#linearGradient1531);fill-opacity:1;fill-rule:evenodd;stroke:#000000;stroke-width:0.079375;stroke-linecap:butt;stroke-linejoin:miter;stroke-miterlimit:4;stroke-dasharray:none;stroke-opacity:1" />
    <path
       sodipodi:nodetypes="ccccccccccccccccccccccccc"
       inkscape:original-d="m -243.07572,-9.8519899 c 0,0 -0.48331,0.7440066 -0.72632,1.1178725 -0.27224,0.2915468 -0.54328,0.5818044 -0.81536,0.8731441 -0.61846,0.4683807 -1.23639,0.936417 -1.85602,1.4058044 -0.50801,0.2538393 -1.01547,0.5076401 -1.52313,0.7614645 -0.54408,0.2720412 -1.08844,0.5441585 -1.63393,0.8170665 -0.2681,0.1459529 -0.5359,0.2918632 -0.80424,0.438189 -0.44916,0.4037619 -0.89828,0.8075101 -1.3483,1.212094 -0.30503,0.4615964 -0.60984,0.9227366 -0.91522,1.3845961 -0.15305,0.4834369 -0.3063,0.96693962 -0.45987,1.45090707 -0.0615,0.53301412 -0.12315,1.06606261 -0.18514,1.59961403 0.01,0.7760996 0.0196,1.5521862 0.0289,2.328734 0.11361,0.6884826 0.22695,1.3771578 0.34002,2.0661405 m 0,0 c 0,0 1.19929,-0.9109036 1.86972,-1.4200199 0.54049,-0.3484628 1.0995,-0.7087737 1.506,-0.9706835 0.48733,-0.3252425 1.20221,-0.8022256 1.80333,-1.2032089 0.66488,-0.4661175 1.32916,-0.9317333 1.99297,-1.3969377 0.41524,-0.43254466 0.83033,-0.86494503 1.2454,-1.29733184 0.23494,-0.38118626 0.46943,-0.76180216 0.70369,-1.14221716 0.20125,-0.4385135 0.40213,-0.8765552 0.60304,-1.3149525 0.11814,-0.5793202 0.23592,-1.1578714 0.35336,-1.7358027 0.0166,-0.3249037 0.0329,-0.6495958 0.049,-0.9745997 0.008,-0.8004927 0.0155,-1.598663 0.0228,-2.3977183 -0.0833,-0.5343698 -0.1669,-1.0683651 -0.25074,-1.6021545"
       inkscape:path-effect="#path-effect884"
       inkscape:connector-curvature="0"
       id="path882"
       d="m -243.07572,-9.8519899 c -0.24211,0.3726242 -0.48338,0.7439625 -0.74097,1.0766878 -0.2576,0.3327253 -0.52864,0.6229786 -0.97389,1.0028629 -0.44525,0.3798842 -1.06318,0.8479219 -1.62699,1.2095686 -0.56381,0.3616467 -1.07131,0.6153641 -1.59718,0.8782988 -0.52587,0.2629347 -1.07019,0.5351292 -1.47698,0.7445546 -0.4068,0.2094255 -0.6746,0.3553359 -1.03337,0.6303396 -0.35877,0.2750037 -0.80789,0.6787527 -1.18545,1.1118162 -0.37756,0.4330634 -0.68237,0.8942016 -0.91164,1.3668451 -0.22926,0.4726434 -0.38251,0.95614676 -0.49006,1.4646518 -0.10755,0.50850504 -0.16924,1.04154837 -0.19531,1.6963897 -0.0261,0.6548413 -0.0164,1.4309275 0.0451,2.1634653 0.0615,0.7325378 0.1748,1.421214 0.28818,2.1101463 m 0,0 c 0.62324,-0.47334 1.19932,-0.9108632 1.80479,-1.3396401 0.60546,-0.4287768 1.16447,-0.7890847 1.61139,-1.0826646 0.44691,-0.2935799 1.16179,-0.7705599 1.79479,-1.2041152 0.633,-0.4335553 1.29728,-0.8991709 1.83678,-1.34807534 0.5395,-0.44890441 0.9546,-0.88130403 1.27957,-1.28811103 0.32497,-0.40680703 0.55945,-0.78742403 0.77719,-1.19689293 0.21773,-0.4094689 0.41861,-0.847508 0.5781,-1.3563605 0.15948,-0.5088524 0.27726,-1.0874043 0.34425,-1.5388079 0.067,-0.4514036 0.0833,-0.7760944 0.0953,-1.3388386 0.012,-0.5627441 0.0196,-1.3609135 -0.0185,-2.0275995 -0.038,-0.6666859 -0.12158,-1.2006856 -0.20513,-1.734521"
       style="fill:url(#linearGradient1523);fill-opacity:1;fill-rule:evenodd;stroke:#000000;stroke-width:0.079375;stroke-linecap:butt;stroke-linejoin:miter;stroke-miterlimit:4;stroke-dasharray:none;stroke-opacity:1" />
  </g>
</svg>
