<?xml version="1.0" encoding="UTF-8" standalone="no"?>
<svg
   xmlns:dc="http://purl.org/dc/elements/1.1/"
   xmlns:cc="http://creativecommons.org/ns#"
   xmlns:rdf="http://www.w3.org/1999/02/22-rdf-syntax-ns#"
   xmlns:svg="http://www.w3.org/2000/svg"
   xmlns="http://www.w3.org/2000/svg"
   xmlns:sodipodi="http://sodipodi.sourceforge.net/DTD/sodipodi-0.dtd"
   xmlns:inkscape="http://www.inkscape.org/namespaces/inkscape"
   version="1.1"
   x="0px"
   y="0px"
   viewBox="0 0 64 64"
   enable-background="new 0 0 64 64"
   xml:space="preserve"
   id="svg10"
   sodipodi:docname="selfswitch-on.svg"
   inkscape:version="0.92.2 5c3e80d, 2017-08-06"><metadata
     id="metadata16"><rdf:RDF><cc:Work
         rdf:about=""><dc:format>image/svg+xml</dc:format><dc:type
           rdf:resource="http://purl.org/dc/dcmitype/StillImage" /></cc:Work></rdf:RDF></metadata><defs
     id="defs14" /><sodipodi:namedview
     pagecolor="#ffffff"
     bordercolor="#666666"
     borderopacity="1"
     objecttolerance="10"
     gridtolerance="10"
     guidetolerance="10"
     inkscape:pageopacity="0"
     inkscape:pageshadow="2"
     inkscape:window-width="1920"
     inkscape:window-height="1013"
     id="namedview12"
     showgrid="false"
     inkscape:zoom="3.6875"
     inkscape:cx="-68.687902"
     inkscape:cy="32"
     inkscape:window-x="0"
     inkscape:window-y="0"
     inkscape:window-maximized="1"
     inkscape:current-layer="svg10" /><g
     id="g819"
     transform="matrix(0.98461542,0,0,0.98461542,0.49230636,0.49230646)"><path
       id="path2"
       d="M 32,63.42857 C 15.930286,63.42857 2.857144,50.355428 2.857144,34.285714 2.857144,22.772572 9.5565723,12.440001 20,7.7234295 v 9.1577135 c -5.730285,3.957715 -9.142856,10.441143 -9.142856,17.404571 0,11.658285 9.484571,21.142857 21.142856,21.142857 11.658285,0 21.142856,-9.484572 21.142856,-21.142857 0,-6.964571 -3.412571,-13.447999 -9.142856,-17.404571 V 7.7234295 C 54.443428,12.440001 61.142856,22.772572 61.142856,34.285714 61.142856,50.355428 48.069714,63.42857 32,63.42857 Z"
       inkscape:connector-curvature="0"
       style="fill:#6bc305;fill-opacity:1;stroke:#569c04;stroke-width:1;stroke-miterlimit:4;stroke-dasharray:none;stroke-opacity:1" /><path
       id="path4"
       d="m 44.571428,8.6240009 c 9.774857,4.7828571 15.999999,14.6742851 15.999999,25.6617131 0,15.754285 -12.817142,28.571428 -28.571427,28.571428 -15.754285,0 -28.5714275,-12.817143 -28.5714275,-28.571428 0,-10.987428 6.2251426,-20.878856 15.9999995,-25.6617131 v 7.9600001 c -5.736,4.077714 -9.142857,10.650285 -9.142857,17.702856 0,11.973714 9.740571,21.714285 21.714285,21.714285 11.973714,0 21.714285,-9.740571 21.714285,-21.714285 0,-7.052571 -3.406857,-13.623999 -9.142857,-17.702856 V 8.6240009 M 43.428571,6.8525724 V 17.182858 c 5.512,3.690285 9.142857,9.971428 9.142857,17.102856 0,11.361143 -9.210286,20.571428 -20.571428,20.571428 -11.361142,0 -20.571428,-9.210285 -20.571428,-20.571428 0,-7.131428 3.630857,-13.412571 9.142857,-17.102856 V 6.8525724 C 9.8342865,11.330286 2.2857154,21.925715 2.2857154,34.285714 2.2857154,50.695999 15.589715,63.999999 32,63.999999 c 16.410285,0 29.714285,-13.304 29.714285,-29.714285 0,-12.359999 -7.548572,-22.955428 -18.285714,-27.4331416 z"
       inkscape:connector-curvature="0"
       style="fill:#6bc305;fill-opacity:1;stroke:#569c04;stroke-width:1;stroke-miterlimit:4;stroke-dasharray:none;stroke-opacity:1" /><rect
       id="rect6"
       height="26.285713"
       width="7.9999995"
       y="0.57142973"
       x="28"
       style="fill:#6bc305;fill-opacity:1;stroke:#569c04;stroke-width:1;stroke-miterlimit:4;stroke-dasharray:none;stroke-opacity:1" /><path
       id="path8"
       d="M 35.428571,1.1428583 V 26.285715 H 28.571429 V 1.1428583 h 6.857142 M 36.571428,1.2e-6 H 27.428572 V 27.428572 h 9.142856 z"
       inkscape:connector-curvature="0"
       style="fill:#6bc305;fill-opacity:1;stroke:#569c04;stroke-width:1;stroke-miterlimit:4;stroke-dasharray:none;stroke-opacity:1" /></g></svg>