<?xml version="1.0" encoding="UTF-8" standalone="no"?>
<!-- Created with Inkscape (http://www.inkscape.org/) -->

<svg
   xmlns:dc="http://purl.org/dc/elements/1.1/"
   xmlns:cc="http://creativecommons.org/ns#"
   xmlns:rdf="http://www.w3.org/1999/02/22-rdf-syntax-ns#"
   xmlns:svg="http://www.w3.org/2000/svg"
   xmlns="http://www.w3.org/2000/svg"
   xmlns:xlink="http://www.w3.org/1999/xlink"
   xmlns:sodipodi="http://sodipodi.sourceforge.net/DTD/sodipodi-0.dtd"
   xmlns:inkscape="http://www.inkscape.org/namespaces/inkscape"
   width="64"
   version="1.1"
   height="64"
   id="svg61"
   sodipodi:docname="selfmemory.svg"
   inkscape:version="0.92.2 5c3e80d, 2017-08-06">
  <sodipodi:namedview
     pagecolor="#ffffff"
     bordercolor="#666666"
     borderopacity="1"
     objecttolerance="10"
     gridtolerance="10"
     guidetolerance="10"
     inkscape:pageopacity="0"
     inkscape:pageshadow="2"
     inkscape:window-width="1920"
     inkscape:window-height="1013"
     id="namedview63"
     showgrid="false"
     inkscape:zoom="3.6875"
     inkscape:cx="32"
     inkscape:cy="32"
     inkscape:window-x="0"
     inkscape:window-y="0"
     inkscape:window-maximized="1"
     inkscape:current-layer="layer1" />
  <defs
     id="defs5455">
    <linearGradient
       inkscape:collect="always"
       id="linearGradient4251-0">
      <stop
         style="stop-color:#63984b"
         id="stop4253-4" />
      <stop
         offset="1"
         style="stop-color:#8fc278"
         id="stop4255-2" />
    </linearGradient>
    <linearGradient
       inkscape:collect="always"
       id="linearGradient4159">
      <stop
         style="stop-color:#2a2c2f"
         id="stop4161" />
      <stop
         offset="1"
         style="stop-color:#424649"
         id="stop4163" />
    </linearGradient>
    <linearGradient
       inkscape:collect="always"
       xlink:href="#linearGradient4251-0"
       id="linearGradient4291"
       y1="549.79797"
       y2="497.79797"
       x2="0"
       gradientUnits="userSpaceOnUse"
       gradientTransform="translate(-2e-6,-29)" />
    <linearGradient
       inkscape:collect="always"
       xlink:href="#linearGradient4159"
       id="linearGradient4183"
       y1="527.79797"
       y2="518.79797"
       x2="0"
       gradientUnits="userSpaceOnUse"
       gradientTransform="matrix(0.85714287,0,0,0.8888889,60.65304,46.644314)" />
    <linearGradient
       inkscape:collect="always"
       xlink:href="#linearGradient4159"
       id="linearGradient4281"
       y1="527.79797"
       y2="518.79797"
       gradientUnits="userSpaceOnUse"
       x2="0"
       gradientTransform="matrix(0.85714287,0,0,0.8888889,52.653035,46.644314)" />
    <linearGradient
       inkscape:collect="always"
       xlink:href="#linearGradient4159"
       id="linearGradient4324"
       y1="527.79797"
       y2="518.79797"
       gradientUnits="userSpaceOnUse"
       x2="0"
       gradientTransform="matrix(0.85714287,0,0,0.8888889,44.653035,46.644314)" />
    <linearGradient
       inkscape:collect="always"
       id="linearGradient4903">
      <stop
         style="stop-color:#eef1f2"
         id="stop4905" />
      <stop
         offset="1"
         style="stop-color:#f9fafb"
         id="stop4907" />
    </linearGradient>
    <linearGradient
       inkscape:collect="always"
       xlink:href="#linearGradient4903"
       id="linearGradient4455"
       y1="526.79797"
       y2="519.79797"
       x2="0"
       gradientUnits="userSpaceOnUse"
       gradientTransform="translate(0,-11)" />
    <linearGradient
       inkscape:collect="always"
       xlink:href="#linearGradient4227"
       id="linearGradient4184"
       y1="518.79797"
       x1="408.57144"
       y2="527.79797"
       x2="417.57144"
       gradientUnits="userSpaceOnUse"
       gradientTransform="translate(0,-11)" />
    <linearGradient
       inkscape:collect="always"
       id="linearGradient4227">
      <stop
         style="stop-color:#292c2f"
         id="stop4229" />
      <stop
         offset="1"
         style="stop-opacity:0"
         id="stop4231" />
    </linearGradient>
    <linearGradient
       inkscape:collect="always"
       xlink:href="#linearGradient4227"
       id="linearGradient4259"
       y1="518.79797"
       x1="408.57144"
       y2="527.79797"
       gradientUnits="userSpaceOnUse"
       x2="417.57144"
       gradientTransform="translate(7.999999,-11)" />
    <linearGradient
       inkscape:collect="always"
       xlink:href="#linearGradient4227"
       id="linearGradient4263"
       y1="518.79797"
       x1="408.57144"
       y2="527.79797"
       gradientUnits="userSpaceOnUse"
       x2="417.57144"
       gradientTransform="translate(15.999999,-11)" />
    <linearGradient
       inkscape:collect="always"
       xlink:href="#linearGradient4251-0"
       id="linearGradient4304"
       y1="549.79797"
       y2="497.79797"
       gradientUnits="userSpaceOnUse"
       x2="0"
       gradientTransform="translate(-2e-6,-7)" />
    <linearGradient
       inkscape:collect="always"
       xlink:href="#linearGradient4227"
       id="linearGradient4306"
       y1="518.79797"
       x1="408.57144"
       y2="527.79797"
       gradientUnits="userSpaceOnUse"
       x2="417.57144"
       gradientTransform="translate(7.999999,11)" />
    <linearGradient
       inkscape:collect="always"
       xlink:href="#linearGradient4227"
       id="linearGradient4308"
       y1="518.79797"
       x1="408.57144"
       y2="527.79797"
       gradientUnits="userSpaceOnUse"
       x2="417.57144"
       gradientTransform="translate(15.999999,11)" />
    <linearGradient
       inkscape:collect="always"
       xlink:href="#linearGradient4227"
       id="linearGradient4310"
       y1="518.79797"
       x1="408.57144"
       y2="527.79797"
       gradientUnits="userSpaceOnUse"
       x2="417.57144"
       gradientTransform="translate(0,11)" />
    <linearGradient
       inkscape:collect="always"
       xlink:href="#linearGradient4159"
       id="linearGradient4312"
       y1="527.79797"
       y2="518.79797"
       gradientUnits="userSpaceOnUse"
       x2="0"
       gradientTransform="matrix(0.85714287,0,0,0.8888889,60.65304,68.64431)" />
    <linearGradient
       inkscape:collect="always"
       xlink:href="#linearGradient4903"
       id="linearGradient4314"
       y1="526.79797"
       y2="519.79797"
       gradientUnits="userSpaceOnUse"
       x2="0"
       gradientTransform="translate(0,11)" />
    <linearGradient
       inkscape:collect="always"
       xlink:href="#linearGradient4159"
       id="linearGradient4316"
       y1="527.79797"
       y2="518.79797"
       gradientUnits="userSpaceOnUse"
       x2="0"
       gradientTransform="matrix(0.85714287,0,0,0.8888889,52.653035,68.64431)" />
    <linearGradient
       inkscape:collect="always"
       xlink:href="#linearGradient4159"
       id="linearGradient4318"
       y1="527.79797"
       y2="518.79797"
       gradientUnits="userSpaceOnUse"
       x2="0"
       gradientTransform="matrix(0.85714287,0,0,0.8888889,44.653035,68.64431)" />
  </defs>
  <metadata
     id="metadata5458">
    <rdf:RDF>
      <cc:Work
         rdf:about="">
        <dc:format>image/svg+xml</dc:format>
        <dc:type
           rdf:resource="http://purl.org/dc/dcmitype/StillImage" />
      </cc:Work>
    </rdf:RDF>
  </metadata>
  <g
     inkscape:label="Capa 1"
     inkscape:groupmode="layer"
     id="layer1"
     transform="matrix(1 0 0 1 -376.57144 -491.79797)">
    <g
       id="g898"
       transform="matrix(1.2307692,0,0,1.2307692,-94.285705,-120.87644)">
      <path
         d="m 382.57144,504.79797 c 0,17.33333 0,-1.33333 0,16 h 52 v -16 z"
         id="rect4283"
         style="fill:url(#linearGradient4291)"
         inkscape:connector-curvature="0" />
      <path
         d="m 422.57144,507.79797 -6,8 5,5 h 13 v -1 z"
         id="path4257"
         style="opacity:0.2;fill:url(#linearGradient4259);fill-rule:evenodd"
         inkscape:connector-curvature="0" />
      <path
         d="m 430.57144,507.79797 -6,8 5,5 h 5 v -9 z"
         id="path4261"
         style="opacity:0.2;fill:url(#linearGradient4263);fill-rule:evenodd"
         inkscape:connector-curvature="0" />
      <path
         d="m 408.57144,515.79797 6,-8 13,13 h -13 -2 1 z"
         id="path4181"
         style="opacity:0.2;fill:url(#linearGradient4184);fill-rule:evenodd"
         inkscape:connector-curvature="0" />
      <rect
         id="rect4293"
         style="fill:#dce269"
         height="1"
         y="519.79773"
         x="382.57144"
         width="52" />
      <rect
         id="rect4175"
         style="fill:url(#linearGradient4183)"
         height="7.999999"
         y="507.79803"
         x="424.57144"
         width="6" />
      <path
         d="m 431.57144,507.79797 v 1 h 1 v -1 z m 1,1 v 1 h 1 v -1 z m 0,1 h -1 v 1 h 1 z m 0,1 v 1 h 1 v -1 z m 0,1 h -1 v 1 h 1 z m 0,1 v 1 h 1 v -1 z m 0,1 h -1 v 1 h 1 z m 0,1 v 1 h 1 v -1 z m 0,1 h -1 v 1 h 1 z m 0,1 v 1 h 1 v -1 z m -1,0 h -1 v 1 h 1 z m -1,1 h -1 v 1 h 1 z m -1,0 v -1 h -1 v 1 z m -1,0 h -1 v 1 h 1 z m -1,0 v -1 h -1 v 1 z"
         id="rect4193"
         style="opacity:0.6;fill:#dee372"
         inkscape:connector-curvature="0" />
      <rect
         id="rect4277"
         style="fill:url(#linearGradient4455)"
         height="7"
         y="508.79797"
         x="385.57144"
         width="19" />
      <rect
         id="rect4279"
         style="fill:url(#linearGradient4281)"
         height="7.999999"
         y="507.79803"
         x="416.57144"
         width="6" />
      <rect
         id="rect4322"
         style="fill:url(#linearGradient4324)"
         height="7.999999"
         y="507.79803"
         x="408.57144"
         width="6" />
      <rect
         id="rect4457"
         style="fill:#ff5555"
         height="1"
         y="509.79797"
         x="386.57144"
         width="8" />
      <rect
         id="rect4459"
         style="fill:#35383b"
         height="0.99999601"
         y="511.79797"
         x="386.57144"
         width="2.9999981" />
      <rect
         id="rect4461"
         style="fill:#35383b"
         height="0.99999601"
         y="511.79797"
         x="390.57144"
         width="3.9999981" />
      <path
         d="m 390.57144,513.79797 v 1 h -1 v 1 h 1 1 1 1 1 1 1 1 1 1 v -1 h -1 v -1 h -1 v 1 h -1 -1 v -1 h -1 v 1 h -1 v -1 h -1 v 1 h -1 v -1 z"
         id="rect4463"
         style="fill:#35383b"
         inkscape:connector-curvature="0" />
      <path
         d="m 382.57144,526.79797 c 0,17.33333 0,-1.33333 0,16 h 52 v -16 z"
         id="path4275"
         style="fill:url(#linearGradient4304)"
         inkscape:connector-curvature="0" />
      <path
         d="m 422.57144,529.79797 -6,8 5,5 h 13 v -1 z"
         id="path4277"
         style="opacity:0.2;fill:url(#linearGradient4306);fill-rule:evenodd"
         inkscape:connector-curvature="0" />
      <path
         d="m 430.57144,529.79797 -6,8 5,5 h 5 v -9 z"
         id="path4279"
         style="opacity:0.2;fill:url(#linearGradient4308);fill-rule:evenodd"
         inkscape:connector-curvature="0" />
      <path
         d="m 408.57144,537.79797 6,-8 13,13 h -13 -2 1 z"
         id="path4281"
         style="opacity:0.2;fill:url(#linearGradient4310);fill-rule:evenodd"
         inkscape:connector-curvature="0" />
      <rect
         id="rect4284"
         style="fill:#dce269"
         height="1"
         y="541.79773"
         x="382.57144"
         width="52" />
      <rect
         id="rect4286"
         style="fill:url(#linearGradient4312)"
         height="7.999999"
         y="529.79803"
         x="424.57144"
         width="6" />
      <path
         d="m 431.57144,529.79797 v 1 h 1 v -1 z m 1,1 v 1 h 1 v -1 z m 0,1 h -1 v 1 h 1 z m 0,1 v 1 h 1 v -1 z m 0,1 h -1 v 1 h 1 z m 0,1 v 1 h 1 v -1 z m 0,1 h -1 v 1 h 1 z m 0,1 v 1 h 1 v -1 z m 0,1 h -1 v 1 h 1 z m 0,1 v 1 h 1 v -1 z m -1,0 h -1 v 1 h 1 z m -1,1 h -1 v 1 h 1 z m -1,0 v -1 h -1 v 1 z m -1,0 h -1 v 1 h 1 z m -1,0 v -1 h -1 v 1 z"
         id="path4288"
         style="opacity:0.6;fill:#dee372"
         inkscape:connector-curvature="0" />
      <rect
         id="rect4290"
         style="fill:url(#linearGradient4314)"
         height="7"
         y="530.79797"
         x="385.57144"
         width="19" />
      <rect
         id="rect4292"
         style="fill:url(#linearGradient4316)"
         height="7.999999"
         y="529.79803"
         x="416.57144"
         width="6" />
      <rect
         id="rect4294"
         style="fill:url(#linearGradient4318)"
         height="7.999999"
         y="529.79803"
         x="408.57144"
         width="6" />
      <rect
         id="rect4296"
         style="fill:#ff5555"
         height="1"
         y="531.79797"
         x="386.57144"
         width="8" />
      <rect
         id="rect4298"
         style="fill:#35383b"
         height="0.99999601"
         y="533.79797"
         x="386.57144"
         width="2.9999981" />
      <rect
         id="rect4300"
         style="fill:#35383b"
         height="0.99999601"
         y="533.79797"
         x="390.57144"
         width="3.9999981" />
      <path
         d="m 390.57144,535.79797 v 1 h -1 v 1 h 1 1 1 1 1 1 1 1 1 1 v -1 h -1 v -1 h -1 v 1 h -1 -1 v -1 h -1 v 1 h -1 v -1 h -1 v 1 h -1 v -1 z"
         id="path4302"
         style="fill:#35383b"
         inkscape:connector-curvature="0" />
    </g>
  </g>
</svg>
