<?xml version="1.0" encoding="UTF-8" standalone="no"?>
<svg
   xmlns:dc="http://purl.org/dc/elements/1.1/"
   xmlns:cc="http://creativecommons.org/ns#"
   xmlns:rdf="http://www.w3.org/1999/02/22-rdf-syntax-ns#"
   xmlns:svg="http://www.w3.org/2000/svg"
   xmlns="http://www.w3.org/2000/svg"
   xmlns:sodipodi="http://sodipodi.sourceforge.net/DTD/sodipodi-0.dtd"
   xmlns:inkscape="http://www.inkscape.org/namespaces/inkscape"
   viewBox="0 0 59.999997 59.999997"
   id="svg366"
   version="1.1"
   inkscape:version="0.91 r13725"
   sodipodi:docname="selfrollershutter.svg"
   width="64"
   height="64">
  <metadata
     id="metadata400">
    <rdf:RDF>
      <cc:Work
         rdf:about="">
        <dc:format>image/svg+xml</dc:format>
        <dc:type
           rdf:resource="http://purl.org/dc/dcmitype/StillImage" />
        <dc:title />
      </cc:Work>
    </rdf:RDF>
  </metadata>
  <defs
     id="defs398" />
  <sodipodi:namedview
     pagecolor="#ffffff"
     bordercolor="#666666"
     borderopacity="1"
     objecttolerance="10"
     gridtolerance="10"
     guidetolerance="10"
     inkscape:pageopacity="0"
     inkscape:pageshadow="2"
     inkscape:window-width="1920"
     inkscape:window-height="1015"
     id="namedview396"
     showgrid="false"
     inkscape:zoom="7.375"
     inkscape:cx="-17.081674"
     inkscape:cy="25.99729"
     inkscape:window-x="1920"
     inkscape:window-y="0"
     inkscape:window-maximized="1"
     inkscape:current-layer="svg366" />
  <g
     id="g4165">
    <path
       inkscape:connector-curvature="0"
       id="path6-3"
       style="fill:#d9f1ff;stroke-width:1.09544516"
       d="m 15.668335,13.208782 28.409089,0 0,34.090907 -28.409089,0 z" />
    <path
       inkscape:connector-curvature="0"
       id="path368"
       d="m 11.249999,7.4999992 0,44.9999988 37.499999,0 0,-44.9999988 z m 4.545454,5.4545448 28.40909,0 0,34.090908 -28.40909,0 z"
       style="fill:#f0f0f0;stroke-width:1.09544516" />
    <path
       inkscape:connector-curvature="0"
       id="path370"
       style="fill:#646464;stroke-width:1.09544516"
       d="m 48.181816,8.1818174 0,43.6363626 -36.363635,0 0,-43.6363626 36.363635,0 m 1.136364,-1.3636363 -38.636363,0 0,46.3636349 38.636363,0 z" />
    <path
       inkscape:connector-curvature="0"
       id="path374"
       style="fill:#7aadcc;stroke-width:1.09544516"
       d="m 43.636362,13.636363 0,32.727271 -27.272727,0 0,-32.727271 27.272727,0 m 1.136363,-1.363637 -29.545453,0 0,35.454545 29.545453,0 z" />
    <path
       inkscape:connector-curvature="0"
       id="path376"
       style="fill:#ececed;stroke-width:1.09544516"
       d="m 5.5681811,59.318179 0,-58.63636138 48.8636349,0 0,58.63636138 -48.8636349,0 m 4.5454539,-5.454545 39.772726,0 0,-47.7272711 -39.772726,0 0,47.7272711" />
    <path
       inkscape:connector-curvature="0"
       id="path378"
       style="fill:#9b9c9e;stroke-width:1.09544516"
       d="m 53.863634,1.3636358 0,57.2727252 -47.7272711,0 0,-57.2727252 47.7272711,0 M 9.5454537,54.545452 l 1.1363633,0 38.636363,0 1.136363,0 0,-1.363636 0,-46.3636349 0,-1.3636364 -1.136363,0 -38.636363,0 -1.1363633,0 0,1.3636364 0,46.3636349 0,1.363636 M 54.999998,-5.4000001e-7 l -49.9999987,0 0,59.99999854000001 49.9999987,0 z M 10.681817,53.181816 l 0,-46.3636349 38.636363,0 0,46.3636349 -38.636363,0" />
    <path
       inkscape:connector-curvature="0"
       id="path380"
       style="fill:#c8c8c8;stroke-width:1.09544516"
       d="m 10.113635,6.1363629 39.772726,0 0,34.0909081 -39.772726,0 z" />
    <path
       inkscape:connector-curvature="0"
       id="path382"
       style="fill:#646464;stroke-width:1.09544516"
       d="m 49.31818,6.8181811 0,32.7272719 -38.636363,0 0,-32.7272719 38.636363,0 m 1.136363,-1.3636364 -40.9090893,0 0,35.4545443 40.9090893,0 z" />
    <path
       inkscape:connector-curvature="0"
       id="path384"
       style="opacity:0.25;stroke-width:1.09544516"
       d="m 10.681817,12.272726 38.636363,0 0,1.363637 -38.636363,0 z" />
    <path
       inkscape:connector-curvature="0"
       id="path386"
       style="opacity:0.25;stroke-width:1.09544516"
       d="m 10.681817,17.727272 38.636363,0 0,1.363636 -38.636363,0 z" />
    <path
       inkscape:connector-curvature="0"
       id="path388"
       style="opacity:0.25;stroke-width:1.09544516"
       d="m 10.681817,23.181817 38.636363,0 0,1.363636 -38.636363,0 z" />
    <path
       inkscape:connector-curvature="0"
       id="path390"
       style="opacity:0.25;stroke-width:1.09544516"
       d="m 10.681817,28.636362 38.636363,0 0,1.363636 -38.636363,0 z" />
    <path
       inkscape:connector-curvature="0"
       id="path392"
       style="opacity:0.25;stroke-width:1.09544516"
       d="m 10.681817,34.090907 38.636363,0 0,1.363637 -38.636363,0 z" />
    <path
       inkscape:connector-curvature="0"
       id="path394"
       style="fill:#282828;stroke-width:1.09544516"
       d="m 9.5454537,5.4545447 40.9090893,0 0,5.4545453 -40.9090893,0 z" />
  </g>
</svg>
