<?xml version="1.0" encoding="UTF-8" standalone="no"?>
<svg
   xmlns:dc="http://purl.org/dc/elements/1.1/"
   xmlns:cc="http://creativecommons.org/ns#"
   xmlns:rdf="http://www.w3.org/1999/02/22-rdf-syntax-ns#"
   xmlns:svg="http://www.w3.org/2000/svg"
   xmlns="http://www.w3.org/2000/svg"
   xmlns:xlink="http://www.w3.org/1999/xlink"
   xmlns:sodipodi="http://sodipodi.sourceforge.net/DTD/sodipodi-0.dtd"
   xmlns:inkscape="http://www.inkscape.org/namespaces/inkscape"
   viewBox="0 0 64 64"
   style="enable-background:new 0 0 64 64"
   version="1.1"
   id="svg18"
   sodipodi:docname="selfmotion-closed.svg"
   inkscape:version="0.92.2 5c3e80d, 2017-08-06">
  <metadata
     id="metadata24">
    <rdf:RDF>
      <cc:Work
         rdf:about="">
        <dc:format>image/svg+xml</dc:format>
        <dc:type
           rdf:resource="http://purl.org/dc/dcmitype/StillImage" />
      </cc:Work>
    </rdf:RDF>
  </metadata>
  <defs
     id="defs22">
    <clipPath
       id="1">
      <use
         height="100%"
         width="100%"
         y="0"
         x="0"
         xlink:href="#0"
         id="use3" />
    </clipPath>
    <clipPath
       id="clipPath880">
      <use
         height="100%"
         width="100%"
         y="0"
         x="0"
         xlink:href="#0"
         id="use878" />
    </clipPath>
  </defs>
  <sodipodi:namedview
     pagecolor="#ffffff"
     bordercolor="#666666"
     borderopacity="1"
     objecttolerance="10"
     gridtolerance="10"
     guidetolerance="10"
     inkscape:pageopacity="0"
     inkscape:pageshadow="2"
     inkscape:window-width="1920"
     inkscape:window-height="1013"
     id="namedview20"
     showgrid="false"
     inkscape:zoom="7.375"
     inkscape:cx="-48.086076"
     inkscape:cy="39.129073"
     inkscape:window-x="0"
     inkscape:window-y="0"
     inkscape:window-maximized="1"
     inkscape:current-layer="svg18" />
  <path
     transform="matrix(1.2626433,0,0,1.2626433,-25.011555,6.3405211)"
     inkscape:connector-curvature="0"
     d="m 29.3,17.3 c 0,0 2.7,7.9 2.7,10.7 0,-2.7 2.7,-10.7 2.7,-10.7 h -5.4"
     style="fill:#ffffff"
     clip-path="url(#1)"
     id="path36" />
  <path
     transform="matrix(1.2626433,0,0,1.2626433,-25.011555,6.3405211)"
     inkscape:connector-curvature="0"
     d="m 30,17 1.5,2 -1.5,3 2,6 2,-6 -1.5,-3 1.5,-2 z"
     style="fill:#e70003"
     clip-path="url(#1)"
     id="path38" />
  <g
     id="g840"
     transform="matrix(0,-0.74557824,0.74557824,0,30.821768,54.601209)"
     style="fill:#9b9c9e;fill-opacity:1">
    <path
       id="path6"
       style="fill:#9b9c9e;fill-opacity:1"
       d="m 40.5,43.8 c -2.3,-2.1 -5.3,-3.3 -8.5,-3.3 -3.2,0 -6.2,1.2 -8.5,3.3 L 20,40.3 c 3.3,-3.1 7.5,-4.8 12,-4.8 4.5,0 8.8,1.7 12,4.8 l -3.5,3.5"
       inkscape:connector-curvature="0" />
    <path
       id="path8"
       d="m 32,36 c 4.2,0 8.2,1.5 11.3,4.3 l -2.8,2.8 C 38.1,41.1 35.2,40 32,40 c -3.2,0 -6.1,1.1 -8.5,3.1 L 20.7,40.3 C 23.8,37.5 27.8,36 32,36 m 0,-1 c -4.6,0 -9.2,1.8 -12.7,5.3 l 4.2,4.2 C 25.8,42.2 28.9,41 32,41 c 3.1,0 6.1,1.2 8.5,3.5 l 4.2,-4.2 C 41.2,36.8 36.6,35 32,35 Z"
       inkscape:connector-curvature="0"
       style="fill:#9b9c9e;fill-opacity:1" />
    <path
       id="path10"
       style="fill:#9b9c9e;fill-opacity:1"
       d="m 49,35.3 c -4.6,-4.4 -10.6,-6.8 -17,-6.8 -6.4,0 -12.4,2.4 -17,6.8 L 11.5,31.8 C 17,26.5 24.3,23.5 32,23.5 c 7.7,0 15,2.9 20.5,8.3 L 49,35.3"
       inkscape:connector-curvature="0" />
    <path
       id="path12"
       d="m 32,24 c 7.4,0 14.4,2.8 19.8,7.8 L 49,34.6 C 44.3,30.3 38.3,28 32,28 25.7,28 19.7,30.3 15,34.6 L 12.2,31.8 C 17.6,26.8 24.6,24 32,24 m 0,-1 c -7.7,0 -15.4,2.9 -21.2,8.8 L 15,36 c 4.7,-4.7 10.8,-7 17,-7 6.1,0 12.3,2.3 17,7 l 4.2,-4.2 C 47.4,25.9 39.7,23 32,23 Z"
       inkscape:connector-curvature="0"
       style="fill:#9b9c9e;fill-opacity:1" />
    <path
       id="path14"
       style="fill:#9b9c9e;fill-opacity:1"
       d="M 57.5,26.8 C 50.6,20.2 41.6,16.5 32,16.5 22.4,16.5 13.4,20.2 6.5,26.8 L 3,23.3 c 7.8,-7.6 18.1,-11.8 29,-11.8 10.9,0 21.2,4.2 29,11.8 l -3.5,3.5"
       inkscape:connector-curvature="0" />
    <path
       id="path16"
       d="m 32,12 c 10.6,0 20.6,4 28.3,11.3 l -2.8,2.8 C 50.5,19.6 41.5,16 32,16 22.5,16 13.5,19.6 6.6,26.1 L 3.8,23.3 C 11.4,16 21.4,12 32,12 m 0,-1 C 21.2,11 10.5,15.1 2.3,23.3 l 4.2,4.2 C 13.5,20.5 22.7,17 32,17 c 9.3,0 18.4,3.5 25.5,10.5 l 4.2,-4.2 C 53.5,15.1 42.7,11 32,11 Z"
       inkscape:connector-curvature="0"
       style="fill:#9b9c9e;fill-opacity:1" />
  </g>
  <path
     inkscape:connector-curvature="0"
     d="m 30.303438,56.621544 c -1.010115,0 -1.893965,-0.88385 -1.893965,-1.893965 v -4.419251 h 3.78793 v 4.419251 c 0,1.010115 -0.88385,1.893965 -1.893965,1.893965"
     style="fill:#d29e7c;stroke-width:1.26264334"
     id="path8-3" />
  <path
     inkscape:connector-curvature="0"
     d="m 31.566081,50.939649 v 3.78793 c 0,0.757586 -0.505057,1.262644 -1.262643,1.262644 -0.757586,0 -1.262643,-0.505058 -1.262643,-1.262644 v -3.78793 h 2.525286 m 1.262644,-1.262643 h -5.050574 v 5.050573 c 0,1.388908 1.136379,2.525287 2.525287,2.525287 1.388908,0 2.525287,-1.136379 2.525287,-2.525287 z"
     style="fill:#c18a6b;stroke-width:1.26264334"
     id="path10-6" />
  <path
     inkscape:connector-curvature="0"
     d="m 2.5252867,56.621544 c -1.0101146,0 -1.89396496,-0.88385 -1.89396496,-1.893965 V 50.308328 H 4.4192516 v 4.419251 c 0,1.010115 -0.7575859,1.893965 -1.8939649,1.893965"
     style="fill:#d29e7c;stroke-width:1.26264334"
     id="path12-7" />
  <path
     inkscape:connector-curvature="0"
     d="m 3.78793,50.939649 v 3.78793 c 0,0.757586 -0.5050573,1.262644 -1.2626433,1.262644 -0.757586,0 -1.2626433,-0.505058 -1.2626433,-1.262644 v -3.78793 H 3.78793 M 5.0505733,49.677006 H 9.199573e-8 v 5.050573 c 0,1.388908 1.13637900800427,2.525287 2.52528660800427,2.525287 1.3889076,0 2.5252866,-1.136379 2.5252866,-2.525287 z"
     style="fill:#c18a6b;stroke-width:1.26264334"
     id="path14-5" />
  <path
     inkscape:connector-curvature="0"
     d="m 21.212406,26.949427 h -9.469823 c -6.4394812,0 -11.61631858,5.176837 -11.61631858,11.616318 v 0.757586 C 0.12626442,39.449595 9.199573e-8,39.702124 9.199573e-8,39.828388 V 52.202293 H 5.0505733 v -6.818274 -4.798045 c 0,-1.515172 0.5050572,-2.777815 1.2626432,-3.914194 V 52.202293 H 26.515508 V 36.545516 c 0.631322,0.88385 1.136379,2.020229 1.262643,3.156608 0,0.126264 0,0.126264 0,0.126264 v 12.373905 h 5.050574 V 40.585974 39.828388 38.439481 c 0,-6.313217 -5.176838,-11.490054 -11.616319,-11.490054"
     style="fill:#569c04;stroke-width:1.26264334;fill-opacity:1"
     id="path16-3" />
  <ellipse
     cx="16.414362"
     cy="26.949423"
     rx="4.4192514"
     ry="2.5252867"
     style="fill:#ffffff;stroke-width:1.26264334"
     id="ellipse22" />
  <path
     inkscape:connector-curvature="0"
     d="m 15.15172,30.737357 h 1.262643 V 52.202293 H 15.15172 Z"
     style="opacity:0.2;stroke-width:1.26264334;fill:#152701;fill-opacity:1"
     id="path26" />
  <path
     inkscape:connector-curvature="0"
     d="m 17.045685,48.414363 c -0.378793,0 -0.631322,0.252529 -0.631322,0.631322 0,0.378793 0.252529,0.631321 0.631322,0.631321 0.378791,0 0.63132,-0.252528 0.63132,-0.631321 0,-0.378793 -0.252529,-0.631322 -0.63132,-0.631322"
     style="opacity:0.2;stroke-width:1.26264334;fill:#152701;fill-opacity:1"
     id="path28" />
  <path
     inkscape:connector-curvature="0"
     d="m 17.045685,45.889076 c -0.378793,0 -0.631322,0.252529 -0.631322,0.631322 0,0.378793 0.252529,0.631322 0.631322,0.631322 0.378791,0 0.63132,-0.252529 0.63132,-0.631322 0,-0.378793 -0.252529,-0.631322 -0.63132,-0.631322"
     style="opacity:0.2;stroke-width:1.26264334;fill:#152701;fill-opacity:1"
     id="path30" />
  <path
     inkscape:connector-curvature="0"
     d="m 17.045685,43.36379 c -0.378793,0 -0.631322,0.252528 -0.631322,0.631321 0,0.378793 0.252529,0.631322 0.631322,0.631322 0.378791,0 0.63132,-0.252529 0.63132,-0.631322 0,-0.378793 -0.252529,-0.631321 -0.63132,-0.631321"
     style="opacity:0.2;stroke-width:1.26264334;fill:#152701;fill-opacity:1"
     id="path32" />
  <path
     inkscape:connector-curvature="0"
     d="m 17.045685,40.838503 c -0.378793,0 -0.631322,0.252529 -0.631322,0.631322 0,0.378793 0.252529,0.631321 0.631322,0.631321 0.378791,0 0.63132,-0.252528 0.63132,-0.631321 0,-0.378793 -0.252529,-0.631322 -0.63132,-0.631322"
     style="opacity:0.2;stroke-width:1.26264334;fill:#152701;fill-opacity:1"
     id="path34" />
  <g
     transform="matrix(1.2626433,0,0,1.2626433,-23.990223,5.4844907)"
     style="fill:#ffffff"
     id="g44">
    <path
       inkscape:connector-curvature="0"
       d="M 32.64596,17.12745 H 36.1 v 1.5 h -3.3 z"
       id="path40" />
    <path
       inkscape:connector-curvature="0"
       d="M 28.15956,15.96335 H 31.1 v 1.5 h -3.3 z"
       id="path42" />
  </g>
  <path
     inkscape:connector-curvature="0"
     d="m 16.414363,26.318105 c -5.176838,0 -9.4698249,-4.292987 -9.4698249,-9.469825 0,-5.176837 4.2929869,-9.4698244 9.4698249,-9.4698244 5.176836,0 9.469823,4.2929874 9.469823,9.4698244 0,5.176838 -4.292987,9.469825 -9.469823,9.469825"
     style="fill:#d29e7c;stroke-width:1.26264334"
     id="path46" />
  <path
     inkscape:connector-curvature="0"
     d="m 16.414363,8.0097773 c 4.924307,0 8.838502,3.9141947 8.838502,8.8385027 0,4.924309 -3.914195,8.838503 -8.838502,8.838503 -4.924309,0 -8.8385032,-3.914194 -8.8385032,-8.838503 0,-4.924308 3.9141942,-8.8385027 8.8385032,-8.8385027 m 0,-1.2626433 c -5.555631,0 -10.1011465,4.545516 -10.1011465,10.101146 0,5.555631 4.5455155,10.101147 10.1011465,10.101147 5.555629,0 10.101145,-4.545516 10.101145,-10.101147 0,-5.55563 -4.545516,-10.101146 -10.101145,-10.101146 z"
     style="fill:#c18a6b;stroke-width:1.26264334"
     id="path48" />
  <path
     inkscape:connector-curvature="0"
     d="m 6.9445381,16.595752 c 0.1262643,-5.176838 4.2929869,-9.2172964 9.4698249,-9.2172964 5.176836,0 9.343559,4.0404584 9.469823,9.2172964 -1.262643,-1.262644 -2.272758,-2.777816 -2.777815,-4.419252 l -0.126264,-0.378793 h -0.505058 c -0.757586,0 -1.388907,0.126265 -2.020229,0.126265 -1.010114,0 -1.893965,-0.126265 -2.777815,-0.252529 l -3.409136,-0.505057 3.030343,1.641436 c 0.378793,0.252528 0.757586,0.505057 1.136379,0.631321 -0.631322,0 -1.262642,0 -1.767699,0 -2.525287,0 -4.671781,-0.378793 -6.69201,-1.136378 L 9.3435604,12.050236 9.0910317,12.681558 c -0.5050573,1.641436 -1.2626433,2.904079 -2.1464936,3.914194"
     style="fill:#61452d;stroke-width:1.26264334"
     id="path50" />
  <path
     inkscape:connector-curvature="0"
     d="m 16.414363,8.0097773 c 2.65155,0 5.050572,1.136379 6.692008,3.0303437 l -0.757586,0.126265 c -0.631322,0 -1.388908,0.126264 -2.020229,0.126264 -0.88385,0 -1.893965,-0.126264 -2.651551,-0.252529 l -6.818273,-1.010114 5.050574,2.904079 c -2.146494,0 -4.166723,-0.378793 -5.80816,-1.010114 L 9.2172961,11.671443 C 10.984997,9.3986849 13.510283,8.0097773 16.414363,8.0097773 m 7.197065,3.6616657 c 0.631322,0.88385 1.136379,1.7677 1.388908,2.777815 -0.505057,-0.757586 -0.88385,-1.641436 -1.262643,-2.525286 L 23.611428,11.671443 M 16.414363,6.747134 c -5.555631,0 -10.1011465,4.545516 -10.1011465,10.101146 0,0.378793 0,0.757586 0.1262643,1.136379 1.136379,-0.88385 2.3990223,-2.399022 3.2828726,-4.924309 1.7677006,0.631322 4.0404586,1.136379 6.8182736,1.136379 1.262642,0 2.777814,-0.126264 4.292986,-0.252528 0,0 -1.641436,-0.505058 -3.409137,-1.515172 0.883851,0.126264 1.893965,0.252529 2.90408,0.252529 0.631321,0 1.388907,0 2.146493,-0.126265 0.631322,1.767701 1.893965,3.661666 4.040459,5.429366 0,-0.378793 0,-0.757586 0,-1.136379 0,-5.55563 -4.545516,-10.101146 -10.101145,-10.101146 z"
     style="fill:#513624;stroke-width:1.26264334"
     id="path52" />
</svg>
