<?xml version="1.0" encoding="UTF-8" standalone="no"?>
<svg
   xmlns:dc="http://purl.org/dc/elements/1.1/"
   xmlns:cc="http://creativecommons.org/ns#"
   xmlns:rdf="http://www.w3.org/1999/02/22-rdf-syntax-ns#"
   xmlns:svg="http://www.w3.org/2000/svg"
   xmlns="http://www.w3.org/2000/svg"
   xmlns:sodipodi="http://sodipodi.sourceforge.net/DTD/sodipodi-0.dtd"
   xmlns:inkscape="http://www.inkscape.org/namespaces/inkscape"
   viewBox="0 0 64 64"
   style="enable-background:new 0 0 64 64"
   version="1.1"
   id="svg14"
   sodipodi:docname="selflightmotion-on.svg"
   inkscape:version="0.92.2 5c3e80d, 2017-08-06">
  <metadata
     id="metadata20">
    <rdf:RDF>
      <cc:Work
         rdf:about="">
        <dc:format>image/svg+xml</dc:format>
        <dc:type
           rdf:resource="http://purl.org/dc/dcmitype/StillImage" />
      </cc:Work>
    </rdf:RDF>
  </metadata>
  <defs
     id="defs18" />
  <sodipodi:namedview
     pagecolor="#ffffff"
     bordercolor="#666666"
     borderopacity="1"
     objecttolerance="10"
     gridtolerance="10"
     guidetolerance="10"
     inkscape:pageopacity="0"
     inkscape:pageshadow="2"
     inkscape:window-width="1920"
     inkscape:window-height="1013"
     id="namedview16"
     showgrid="false"
     inkscape:zoom="5.6568542"
     inkscape:cx="-28.821438"
     inkscape:cy="34.595547"
     inkscape:window-x="0"
     inkscape:window-y="0"
     inkscape:window-maximized="1"
     inkscape:current-layer="svg14" />
  <g
     id="g841"
     transform="matrix(0.81,0,0,0.81,-4.880155,5.675)">
    <g
       transform="matrix(1.2046292,0,0,0.941192,-6.5481348,1.91126)"
       id="g10"
       style="fill:#9b9c9e;fill-opacity:1">
      <path
         style="fill:#9b9c9e;fill-opacity:1"
         id="path2"
         d="m 37.25,50 h -10.5 c -0.55,0 -1,-0.45 -1,-1 0,-0.55 0.45,-1 1,-1 h 10.5 c 0.55,0 1,0.45 1,1 0,0.55 -0.45,1 -1,1"
         inkscape:connector-curvature="0" />
      <path
         style="fill:#9b9c9e;fill-opacity:1"
         id="path4"
         d="m 37.25,53 h -10.5 c -0.55,0 -1,-0.45 -1,-1 0,-0.55 0.45,-1 1,-1 h 10.5 c 0.55,0 1,0.45 1,1 0,0.55 -0.45,1 -1,1"
         inkscape:connector-curvature="0" />
      <path
         style="fill:#9b9c9e;fill-opacity:1"
         id="path6"
         d="M 37.07,56 H 26.93 c -0.65,0 -1.18,-0.53 -1.18,-1.18 0,-0.45 0.37,-0.82 0.82,-0.82 h 10.85 c 0.45,0 0.82,0.37 0.82,0.82 0.01,0.65 -0.52,1.18 -1.17,1.18"
         inkscape:connector-curvature="0" />
      <path
         style="fill:#9b9c9e;fill-opacity:1"
         id="path8"
         d="m 32,60 c 2.21,0 4,-1.34 4,-3 h -8 c 0,1.66 1.79,3 4,3"
         inkscape:connector-curvature="0" />
    </g>
    <path
       id="path12"
       style="fill:#dae1e4;stroke-width:0.98965055"
       d="M 48.649664,21.280991 C 48.649664,13.177328 41.198939,6.61722 32,6.61722 c -9.19894,0 -16.649664,6.560108 -16.649664,14.663771 0,2.569455 0.749235,4.978906 2.060396,7.068352 0.801265,1.402376 1.373597,2.409452 1.737808,3.04005 0.749235,1.317669 1.186289,2.080035 1.727403,3.218877 0.228933,0.480008 0.572332,1.204726 0.894919,2.032975 1.279943,3.28476 1.769027,6.418929 1.769027,6.418929 0,0 0.239339,1.637674 1.207101,2.437688 0.270557,0.225886 0.541114,0.357652 0.676392,0.414124 0.468272,0.19765 0.89492,0.235298 1.155071,0.235298 0.166496,0 0.332993,0 0.49949,0 h 4.849214 0.135279 4.849215 c 0.166496,0 0.332993,0 0.49949,0 0.249744,0 0.686798,-0.03765 1.15507,-0.235298 0.135278,-0.05647 0.405835,-0.188238 0.676393,-0.414124 0.967761,-0.800014 1.2071,-2.437688 1.2071,-2.437688 0,0 0.489084,-3.134169 1.769027,-6.418929 0.322587,-0.828249 0.665987,-1.552967 0.894919,-2.032975 0.541114,-1.138842 0.978168,-1.901208 1.727403,-3.218877 0.364211,-0.64001 0.936544,-1.637674 1.737809,-3.04005 1.321567,-2.098858 2.070802,-4.508309 2.070802,-7.068352"
       inkscape:connector-curvature="0" />
  </g>
  <g
     id="g840"
     transform="matrix(0,0.531441,-0.531441,0,63.714629,15.347441)"
     style="fill:#6ca235;fill-opacity:1">
    <path
       id="path6-3"
       style="fill:#6ca235;fill-opacity:1"
       d="m 40.5,43.8 c -2.3,-2.1 -5.3,-3.3 -8.5,-3.3 -3.2,0 -6.2,1.2 -8.5,3.3 L 20,40.3 c 3.3,-3.1 7.5,-4.8 12,-4.8 4.5,0 8.8,1.7 12,4.8 l -3.5,3.5"
       inkscape:connector-curvature="0" />
    <path
       id="path8-6"
       d="m 32,36 c 4.2,0 8.2,1.5 11.3,4.3 l -2.8,2.8 C 38.1,41.1 35.2,40 32,40 c -3.2,0 -6.1,1.1 -8.5,3.1 L 20.7,40.3 C 23.8,37.5 27.8,36 32,36 m 0,-1 c -4.6,0 -9.2,1.8 -12.7,5.3 l 4.2,4.2 C 25.8,42.2 28.9,41 32,41 c 3.1,0 6.1,1.2 8.5,3.5 l 4.2,-4.2 C 41.2,36.8 36.6,35 32,35 Z"
       inkscape:connector-curvature="0"
       style="fill:#6ca235;fill-opacity:1" />
    <path
       id="path10"
       style="fill:#6ca235;fill-opacity:1"
       d="m 49,35.3 c -4.6,-4.4 -10.6,-6.8 -17,-6.8 -6.4,0 -12.4,2.4 -17,6.8 L 11.5,31.8 C 17,26.5 24.3,23.5 32,23.5 c 7.7,0 15,2.9 20.5,8.3 L 49,35.3"
       inkscape:connector-curvature="0" />
    <path
       id="path12-7"
       d="m 32,24 c 7.4,0 14.4,2.8 19.8,7.8 L 49,34.6 C 44.3,30.3 38.3,28 32,28 25.7,28 19.7,30.3 15,34.6 L 12.2,31.8 C 17.6,26.8 24.6,24 32,24 m 0,-1 c -7.7,0 -15.4,2.9 -21.2,8.8 L 15,36 c 4.7,-4.7 10.8,-7 17,-7 6.1,0 12.3,2.3 17,7 l 4.2,-4.2 C 47.4,25.9 39.7,23 32,23 Z"
       inkscape:connector-curvature="0"
       style="fill:#6ca235;fill-opacity:1" />
    <path
       id="path14"
       style="fill:#6ca235;fill-opacity:1"
       d="M 57.5,26.8 C 50.6,20.2 41.6,16.5 32,16.5 22.4,16.5 13.4,20.2 6.5,26.8 L 3,23.3 c 7.8,-7.6 18.1,-11.8 29,-11.8 10.9,0 21.2,4.2 29,11.8 l -3.5,3.5"
       inkscape:connector-curvature="0" />
    <path
       id="path16"
       d="m 32,12 c 10.6,0 20.6,4 28.3,11.3 l -2.8,2.8 C 50.5,19.6 41.5,16 32,16 22.5,16 13.5,19.6 6.6,26.1 L 3.8,23.3 C 11.4,16 21.4,12 32,12 m 0,-1 C 21.2,11 10.5,15.1 2.3,23.3 l 4.2,4.2 C 13.5,20.5 22.7,17 32,17 c 9.3,0 18.4,3.5 25.5,10.5 l 4.2,-4.2 C 53.5,15.1 42.7,11 32,11 Z"
       inkscape:connector-curvature="0"
       style="fill:#6ca235;fill-opacity:1" />
  </g>
</svg>
