<?xml version="1.0" encoding="UTF-8" standalone="no"?>
<svg
   xmlns:dc="http://purl.org/dc/elements/1.1/"
   xmlns:cc="http://creativecommons.org/ns#"
   xmlns:rdf="http://www.w3.org/1999/02/22-rdf-syntax-ns#"
   xmlns:svg="http://www.w3.org/2000/svg"
   xmlns="http://www.w3.org/2000/svg"
   xmlns:xlink="http://www.w3.org/1999/xlink"
   xmlns:sodipodi="http://sodipodi.sourceforge.net/DTD/sodipodi-0.dtd"
   xmlns:inkscape="http://www.inkscape.org/namespaces/inkscape"
   viewBox="0 0 64 64"
   style="enable-background:new 0 0 64 64"
   version="1.1"
   id="svg48"
   sodipodi:docname="selfcouch.svg"
   inkscape:version="0.92.2 5c3e80d, 2017-08-06">
  <metadata
     id="metadata52">
    <rdf:RDF>
      <cc:Work
         rdf:about="">
        <dc:format>image/svg+xml</dc:format>
        <dc:type
           rdf:resource="http://purl.org/dc/dcmitype/StillImage" />
      </cc:Work>
    </rdf:RDF>
  </metadata>
  <sodipodi:namedview
     pagecolor="#ffffff"
     bordercolor="#666666"
     borderopacity="1"
     objecttolerance="10"
     gridtolerance="10"
     guidetolerance="10"
     inkscape:pageopacity="0"
     inkscape:pageshadow="2"
     inkscape:window-width="1920"
     inkscape:window-height="1013"
     id="namedview50"
     showgrid="false"
     inkscape:zoom="3.6875"
     inkscape:cx="32"
     inkscape:cy="32"
     inkscape:window-x="0"
     inkscape:window-y="0"
     inkscape:window-maximized="1"
     inkscape:current-layer="svg48" />
  <defs
     id="defs22">
    <linearGradient
       id="3"
       gradientUnits="userSpaceOnUse"
       y1="36"
       x2="0"
       y2="46">
      <stop
         style="stop-color:#c80000"
         id="stop2" />
      <stop
         offset=".1"
         style="stop-color:#a60000"
         id="stop4" />
      <stop
         offset=".5817"
         style="stop-color:#950000"
         id="stop6" />
      <stop
         offset="1"
         style="stop-color:#8c0000"
         id="stop8" />
    </linearGradient>
    <linearGradient
       id="2"
       gradientUnits="userSpaceOnUse"
       y1="20.54"
       x2="0"
       y2="42.54">
      <stop
         style="stop-color:#c80000"
         id="stop11" />
      <stop
         offset=".2659"
         style="stop-color:#a60000"
         id="stop13" />
      <stop
         offset=".6588"
         style="stop-color:#950000"
         id="stop15" />
      <stop
         offset="1"
         style="stop-color:#8c0000"
         id="stop17" />
    </linearGradient>
    <linearGradient
       id="0"
       gradientUnits="userSpaceOnUse"
       x1="9.5"
       x2="1.5"
       xlink:href="#3" />
    <linearGradient
       id="1"
       gradientUnits="userSpaceOnUse"
       x1="54.5"
       x2="62.5"
       xlink:href="#3" />
    <linearGradient
       inkscape:collect="always"
       xlink:href="#3"
       id="linearGradient876"
       gradientUnits="userSpaceOnUse"
       y1="36"
       x2="0"
       y2="46" />
  </defs>
  <g
     id="g874"
     transform="matrix(0.9025,0,0,0.9025,3.12,3.2682)">
    <path
       id="path24"
       style="fill:url(#2)"
       d="m 15,42.54 c -3.58,0 -6.5,-2.92 -6.5,-6.5 v -9 c 0,-3.58 2.92,-6.5 6.5,-6.5 h 34 c 3.58,0 6.5,2.92 6.5,6.5 v 9 c 0,3.58 -2.92,6.5 -6.5,6.5 H 15"
       inkscape:connector-curvature="0" />
    <path
       id="path26"
       style="fill:#8c0000"
       d="m 49,21.04 c 3.31,0 6,2.69 6,6 v 9 c 0,3.31 -2.69,6 -6,6 H 15 c -3.31,0 -6,-2.69 -6,-6 v -9 c 0,-3.31 2.69,-6 6,-6 h 34 m 0,-1 H 15 c -3.85,0 -7,3.15 -7,7 v 9 c 0,3.85 3.15,7 7,7 h 34 c 3.85,0 7,-3.15 7,-7 v -9 c 0,-3.85 -3.15,-7 -7,-7 z"
       inkscape:connector-curvature="0" />
    <path
       id="path28"
       style="fill:url(#linearGradient876)"
       d="M 7,36 H 57 V 46 H 7 Z"
       inkscape:connector-curvature="0" />
    <path
       id="path30"
       style="fill:url(#1)"
       d="m 54.5,46.5 v -16 h 0.06 L 54.55,29.94 54.53,29.78 C 54.52,29.69 54.5,29.59 54.5,29.5 c 0,-2.21 1.79,-4 4,-4 2.21,0 4,1.79 4,4 0,2.03 -1.53,3.73 -3.56,3.95 L 58.5,33.5 v 13 h -4"
       inkscape:connector-curvature="0" />
    <path
       id="path32"
       style="fill:#8c0000"
       d="m 58.5,26 c 1.93,0 3.5,1.57 3.5,3.5 0,1.77 -1.34,3.26 -3.11,3.46 L 58,33.06 V 33.95 46 H 55 V 31 h 0.17 L 55.05,29.89 55.03,29.72 C 55.01,29.65 55,29.58 55,29.5 55,27.57 56.57,26 58.5,26 m 0,-1 c -2.49,0 -4.5,2.01 -4.5,4.5 0,0.17 0.03,0.33 0.05,0.5 H 54 v 17 h 5 V 33.95 C 61.25,33.7 63,31.81 63,29.5 63,27.01 60.99,25 58.5,25 Z"
       inkscape:connector-curvature="0" />
    <path
       id="path34"
       style="fill:url(#0)"
       d="m 5.5,46.5 v -13 L 5.06,33.45 C 3.03,33.23 1.5,31.53 1.5,29.5 c 0,-2.21 1.79,-4 4,-4 2.21,0 4,1.79 4,4 0,0.1 -0.01,0.19 -0.03,0.28 L 9.39,30.5 H 9.5 v 16 h -4"
       inkscape:connector-curvature="0" />
    <path
       id="path36"
       style="fill:#8c0000"
       d="M 5.5,26 C 7.43,26 9,27.57 9,29.5 9,29.58 8.99,29.65 8.98,29.72 L 8.96,29.89 8.83,31 H 9 V 46 H 6 V 33.95 33.06 L 5.11,32.96 C 3.34,32.76 2,31.27 2,29.5 2,27.57 3.57,26 5.5,26 m 0,-1 C 3.01,25 1,27.01 1,29.5 c 0,2.31 1.75,4.2 4,4.45 V 47 h 5 V 30 H 9.95 C 9.97,29.83 10,29.67 10,29.5 10,27.01 7.99,25 5.5,25 Z"
       inkscape:connector-curvature="0" />
    <path
       id="path38"
       d="m 13,46 h 4 v 1 h -4 z"
       inkscape:connector-curvature="0" />
    <path
       id="path40"
       d="m 47,46 h 4 v 1 h -4 z"
       inkscape:connector-curvature="0" />
    <g
       id="g46"
       style="fill:#845340;stroke:#663629;stroke-miterlimit:10">
      <circle
         id="circle42"
         r="2.04"
         cy="29.5"
         cx="5.5" />
      <circle
         id="circle44"
         r="2.04"
         cy="29.5"
         cx="58.5" />
    </g>
  </g>
</svg>
