<?xml version="1.0" encoding="UTF-8" standalone="no"?>
<svg
   xmlns:dc="http://purl.org/dc/elements/1.1/"
   xmlns:cc="http://creativecommons.org/ns#"
   xmlns:rdf="http://www.w3.org/1999/02/22-rdf-syntax-ns#"
   xmlns:svg="http://www.w3.org/2000/svg"
   xmlns="http://www.w3.org/2000/svg"
   xmlns:sodipodi="http://sodipodi.sourceforge.net/DTD/sodipodi-0.dtd"
   xmlns:inkscape="http://www.inkscape.org/namespaces/inkscape"
   width="64"
   height="64"
   version="1.1"
   id="svg114"
   sodipodi:docname="selfstatus.svg"
   inkscape:version="0.92.2 5c3e80d, 2017-08-06">
  <metadata
     id="metadata118">
    <rdf:RDF>
      <cc:Work
         rdf:about="">
        <dc:format>image/svg+xml</dc:format>
        <dc:type
           rdf:resource="http://purl.org/dc/dcmitype/StillImage" />
        <dc:title></dc:title>
      </cc:Work>
    </rdf:RDF>
  </metadata>
  <sodipodi:namedview
     pagecolor="#ffffff"
     bordercolor="#666666"
     borderopacity="1"
     objecttolerance="10"
     gridtolerance="10"
     guidetolerance="10"
     inkscape:pageopacity="0"
     inkscape:pageshadow="2"
     inkscape:window-width="1920"
     inkscape:window-height="1013"
     id="namedview116"
     showgrid="false"
     inkscape:zoom="4.9166667"
     inkscape:cx="-17.694915"
     inkscape:cy="24"
     inkscape:window-x="0"
     inkscape:window-y="0"
     inkscape:window-maximized="1"
     inkscape:current-layer="svg114" />
  <defs
     id="defs12">
    <linearGradient
       id="a"
       y1="543.79999"
       y2="503.79999"
       x2="0"
       gradientUnits="userSpaceOnUse"
       gradientTransform="matrix(1.5999997,0,0,1.4399997,-621.71188,-719.07185)">
      <stop
         stop-color="#1d1e1e"
         id="stop2" />
      <stop
         offset="1"
         stop-color="#44484c"
         id="stop4" />
    </linearGradient>
    <linearGradient
       id="b"
       y1="44"
       y2="4"
       x2="0"
       gradientUnits="userSpaceOnUse"
       gradientTransform="matrix(1.5999997,0,0,1.5999997,-6.3999954,-6.3999799)">
      <stop
         stop-color="#c6cdd1"
         id="stop7" />
      <stop
         offset="1"
         stop-color="#e0e5e7"
         id="stop9" />
    </linearGradient>
  </defs>
  <g
     id="g1024"
     transform="matrix(1.2120844,0,0,1.2120844,-5.8160678,-7.6787985)">
    <g
       transform="matrix(1.5999997,0,0,1.5999997,-621.71188,-806.07983)"
       id="g38"
       style="color:#000000;stroke-width:3;stroke-linecap:round;stroke-linejoin:round">
      <circle
         cx="395.07001"
         cy="533.29999"
         r="3.5"
         id="circle30"
         style="fill:#eff0f1" />
      <circle
         cx="395.07001"
         cy="533.29999"
         r="2.5"
         id="circle32"
         style="fill:#3daefd" />
      <circle
         cx="395.07001"
         cy="524.29999"
         r="3.5"
         id="circle34"
         style="fill:#eff0f1" />
      <circle
         cx="395.07001"
         cy="524.29999"
         r="2.5"
         id="circle36"
         style="fill:#3daefd" />
    </g>
    <g
       transform="matrix(1.5999997,0,0,1.5999997,-621.71188,-806.07983)"
       id="g44"
       style="fill:#da4453">
      <rect
         width="2"
         x="399.57001"
         y="513.79999"
         height="1"
         id="rect40" />
      <rect
         width="3"
         x="402.57001"
         y="513.79999"
         height="1"
         id="rect42" />
    </g>
    <g
       transform="matrix(1.5999997,0,0,1.5999997,-621.71188,-806.07983)"
       id="g52"
       style="fill:#95a5a6">
      <rect
         width="3"
         x="408.57001"
         y="513.79999"
         height="1"
         id="rect46" />
      <rect
         width="6"
         x="413.57001"
         y="513.79999"
         height="1"
         id="rect48" />
      <rect
         width="4"
         x="420.57001"
         y="513.79999"
         height="1"
         id="rect50" />
    </g>
    <g
       transform="matrix(1.5999997,0,0,1.5999997,-621.71188,-806.07983)"
       id="g58"
       style="fill:#bdc3c7">
      <rect
         width="4"
         x="399.57001"
         y="515.79999"
         height="1"
         id="rect54" />
      <rect
         width="2"
         x="404.57001"
         y="515.79999"
         height="1"
         id="rect56" />
    </g>
    <rect
       width="12.799997"
       x="32.000008"
       y="19.199995"
       height="1.5999997"
       id="rect60"
       style="fill:#95a5a6;stroke-width:1.59999967" />
    <g
       transform="matrix(1.5999997,0,0,1.5999997,-621.71188,-806.07983)"
       id="g66"
       style="fill:#3daefd">
      <rect
         width="2"
         x="399.57001"
         y="522.79999"
         height="1"
         id="rect62" />
      <rect
         width="3"
         x="402.57001"
         y="522.79999"
         height="1"
         id="rect64" />
    </g>
    <g
       transform="matrix(1.5999997,0,0,1.5999997,-621.71188,-806.07983)"
       id="g74"
       style="fill:#95a5a6">
      <rect
         width="4"
         x="408.57001"
         y="522.79999"
         height="1"
         id="rect68" />
      <rect
         width="4"
         x="414.57001"
         y="522.79999"
         height="1"
         id="rect70" />
      <rect
         width="5"
         x="419.57001"
         y="522.79999"
         height="1"
         id="rect72" />
    </g>
    <rect
       width="4.7999992"
       x="17.600012"
       y="33.599995"
       height="1.5999997"
       id="rect76"
       style="fill:#bdc3c7;stroke-width:1.59999967" />
    <g
       transform="matrix(1.5999997,0,0,1.5999997,-621.71188,-806.07983)"
       id="g90"
       style="fill:#95a5a6">
      <rect
         width="3"
         x="408.57001"
         y="524.79999"
         height="1"
         id="rect78" />
      <rect
         width="1"
         x="412.57001"
         y="524.79999"
         height="1"
         id="rect80" />
      <rect
         width="5"
         x="414.57001"
         y="524.79999"
         height="1"
         id="rect82" />
      <g
         transform="scale(-1,1)"
         id="g88">
        <rect
           width="2"
           x="-419.57001"
           y="533.79999"
           height="1"
           id="rect84" />
        <rect
           width="8"
           x="-416.57001"
           y="533.79999"
           height="1"
           id="rect86" />
      </g>
    </g>
    <g
       transform="matrix(-1.5999997,0,0,1.5999997,-621.71188,-806.07983)"
       id="g104">
      <rect
         width="7"
         x="-406.57001"
         y="533.79999"
         height="1"
         id="rect92"
         style="fill:#bdc3c7" />
      <g
         id="g100"
         style="fill:#95a5a6">
        <rect
           width="2"
           x="-424.57001"
           y="531.79999"
           height="1"
           id="rect94" />
        <rect
           width="3"
           x="-421.57001"
           y="531.79999"
           height="1"
           id="rect96" />
        <rect
           width="9"
           x="-417.57001"
           y="531.79999"
           height="1"
           id="rect98" />
      </g>
      <rect
         width="5"
         x="-404.57001"
         y="531.79999"
         height="1"
         id="rect102"
         style="fill:#3daefd" />
    </g>
    <g
       transform="matrix(1.5999997,0,0,1.5999997,-621.71188,-806.07983)"
       id="g110"
       style="fill-rule:evenodd">
      <path
         d="m 395.07,511.72 -3.501,1.467 c 0,0 0.416,1.902 0.867,3 0.225,0.551 0.5,1.121 0.889,1.617 0.389,0.496 0.965,0.99 1.745,0.99 0.78,0 1.354,-0.494 1.743,-0.99 0.389,-0.496 0.664,-1.066 0.889,-1.617 0.451,-1.102 0.869,-3 0.869,-3 z"
         id="path106"
         inkscape:connector-curvature="0"
         style="color:#000000;color-interpolation:sRGB;color-interpolation-filters:linearRGB;fill:#eff0f1;stroke-width:2;color-rendering:auto;image-rendering:auto;shape-rendering:auto;text-rendering:auto" />
      <path
         d="m 392.57,513.8 2.5,-1 2.5,1 c 0,0 -0.928,4 -2.5,4 -1.572,0 -2.5,-4 -2.5,-4"
         id="path108"
         inkscape:connector-curvature="0"
         style="fill:#da4453" />
    </g>
  </g>
</svg>
