<?xml version="1.0" encoding="UTF-8" standalone="no"?>
<svg
   xmlns:dc="http://purl.org/dc/elements/1.1/"
   xmlns:cc="http://creativecommons.org/ns#"
   xmlns:rdf="http://www.w3.org/1999/02/22-rdf-syntax-ns#"
   xmlns:svg="http://www.w3.org/2000/svg"
   xmlns="http://www.w3.org/2000/svg"
   xmlns:sodipodi="http://sodipodi.sourceforge.net/DTD/sodipodi-0.dtd"
   xmlns:inkscape="http://www.inkscape.org/namespaces/inkscape"
   viewBox="0 0 64 64"
   style="enable-background:new 0 0 64 64"
   version="1.1"
   id="svg6"
   sodipodi:docname="selfsettings.svg"
   inkscape:version="0.92.2 5c3e80d, 2017-08-06">
  <metadata
     id="metadata12">
    <rdf:RDF>
      <cc:Work
         rdf:about="">
        <dc:format>image/svg+xml</dc:format>
        <dc:type
           rdf:resource="http://purl.org/dc/dcmitype/StillImage" />
      </cc:Work>
    </rdf:RDF>
  </metadata>
  <defs
     id="defs10" />
  <sodipodi:namedview
     pagecolor="#ffffff"
     bordercolor="#666666"
     borderopacity="1"
     objecttolerance="10"
     gridtolerance="10"
     guidetolerance="10"
     inkscape:pageopacity="0"
     inkscape:pageshadow="2"
     inkscape:window-width="1920"
     inkscape:window-height="1013"
     id="namedview8"
     showgrid="false"
     inkscape:zoom="3.6875"
     inkscape:cx="-23.59322"
     inkscape:cy="32"
     inkscape:window-x="0"
     inkscape:window-y="0"
     inkscape:window-maximized="1"
     inkscape:current-layer="svg6" />
  <path
     d="M 29.638232,64 C 28.579509,64 27.71857,63.138909 27.71857,62.08 L 27.70693,59.077818 C 27.6953,57.437091 26.462058,55.773091 24.891425,55.284364 l -4.165086,-1.687273 c -0.453738,-0.244364 -1.070357,-0.395636 -1.721879,-0.395636 -1.10526,0 -2.175617,0.418909 -2.873676,1.128727 l -2.129081,2.141091 c -0.360664,0.360727 -0.849305,0.570182 -1.361215,0.570182 -0.51191,0 -0.988917,-0.197819 -1.349581,-0.558546 L 7.7191768,52.957091 C 6.9745804,52.212364 6.9629461,50.990545 7.7075425,50.234182 L 9.8249884,48.093091 C 10.976786,46.952727 11.267644,44.846545 10.488144,43.415273 L 8.7662654,39.284364 C 8.2892584,37.771636 6.6255508,36.549818 4.9851119,36.549818 l -3.0132884,0.01164 c -1.07035735,0 -1.93129692,-0.861091 -1.93129692,-1.92 l -0.03490295,-5.00364 c 0,-1.058909 0.84930524,-1.931636 1.91966257,-1.931636 l 3.0132885,-0.01164 c 1.6404389,-0.01164 3.3041464,-1.24509 3.7927878,-2.816 l 1.6869755,-4.165818 c 0.756231,-1.396363 0.442104,-3.444363 -0.7329614,-4.608 L 7.5562963,13.986909 C 7.1956325,13.626182 6.9862147,13.137455 6.9862147,12.625455 c 0,-0.512 0.1977834,-1.000728 0.5584473,-1.361455 L 11.06986,7.7032727 c 0.360664,-0.3607272 0.849305,-0.5701818 1.361215,-0.5701818 0.51191,0 0.988917,0.1978182 1.349581,0.5585455 l 2.152349,2.1178181 c 0.698059,0.6865455 1.756782,1.1054545 2.850408,1.1054545 0.663156,0 1.29141,-0.151273 1.814954,-0.430545 L 24.72855,8.7621818 c 1.524096,-0.4770909 2.745699,-2.1527273 2.734065,-3.8050909 l -0.01164,-3.0021818 c 0,-1.0589091 0.86094,-1.93163637 1.919663,-1.93163637 L 34.385034,0 c 1.070358,0 1.931297,0.86109091 1.931297,1.92 l 0.01163,3.0021818 c 0.01163,1.6174546 1.268141,3.3163637 2.815506,3.7934546 l 4.141817,1.6872726 c 0.465373,0.244364 1.081992,0.395636 1.721879,0.395636 1.10526,0 2.187252,-0.418909 2.885311,-1.1287268 l 2.12908,-2.1410909 c 0.360668,-0.3607273 0.84931,-0.5701818 1.36122,-0.5701818 0.51191,0 0.988917,0.1978181 1.34958,0.5585454 l 3.571736,3.5258181 c 0.756231,0.744727 0.756231,1.966546 0.01163,2.722909 l -2.129081,2.141091 c -1.151797,1.175273 -1.442655,3.223273 -0.663156,4.666182 L 55.245367,24.704 c 0.477007,1.512727 2.152349,2.734545 3.781154,2.734545 l 3.013288,-0.01164 c 1.070358,0 1.931297,0.861091 1.931297,1.908364 l 0.02327,5.015272 c 0,0.512 -0.197784,1.000728 -0.558448,1.361455 -0.360663,0.360727 -0.849305,0.570182 -1.361215,0.570182 l -3.001654,0.01164 c -1.61717,0.01164 -3.315781,1.268364 -3.792788,2.816 L 53.593294,43.264 c -0.732962,1.384727 -0.418835,3.479273 0.732962,4.608 l 2.152349,2.117818 c 0.756231,0.744727 0.756231,1.966546 0.01163,2.722909 l -3.536832,3.560728 c -0.360664,0.360727 -0.849306,0.570181 -1.361216,0.570181 -0.51191,0 -0.988917,-0.197818 -1.349581,-0.558545 l -2.140714,-2.117818 c -0.698059,-0.686546 -1.768417,-1.093818 -2.850408,-1.093818 -0.663156,0 -1.29141,0.151272 -1.814954,0.442181 l -4.141817,1.722182 c -1.524096,0.488727 -2.745699,2.164364 -2.734065,3.805091 l 0.01163,3.002182 c 0,0.512 -0.197783,0.989091 -0.558447,1.361454 -0.360664,0.360728 -0.849305,0.570182 -1.361215,0.570182 L 29.638232,64 m 2.31523,-45.114182 C 24.72855,18.920728 18.876488,24.832 18.899756,32.058182 c 0.0349,7.191273 5.910234,13.044363 13.111877,13.044363 7.294718,-0.03491 13.14678,-5.946181 13.111877,-13.172363 -0.0349,-7.191273 -5.910234,-13.044364 -13.100242,-13.044364 h -0.06981"
     style="fill:#8b96ac;stroke-width:1.16353405"
     id="path2"
     inkscape:connector-curvature="0" />
  <path
     d="m 34.313463,0 v 1.1424491 c 0.719743,0 1.313817,0.5940736 1.325241,1.3138165 l 0.01142,2.9475188 c 0.01142,1.8393431 1.370939,3.6901106 3.118886,4.2499107 l 4.032845,1.6337019 c 0.571225,0.297037 1.256694,0.445556 1.953588,0.445556 1.24527,0 2.456266,-0.479829 3.233131,-1.279544 l 2.090682,-2.1021059 c 0.251339,-0.2513388 0.582649,-0.3884327 0.936809,-0.3884327 0.354159,0 0.674045,0.1370939 0.925383,0.3770082 l 3.507319,3.4616204 c 0.514102,0.514103 0.514102,1.34809 0.01143,1.862193 l -2.090682,2.102106 c -1.279543,1.302392 -1.622278,3.575866 -0.776866,5.198143 l 1.679401,4.021421 c 0.582649,1.736523 2.433416,3.084613 4.284184,3.084613 l 2.958943,-0.01142 c 0.719743,0 1.313817,0.582649 1.313817,1.313816 l 0.01142,4.93538 c 0,0.354159 -0.137094,0.68547 -0.388433,0.936809 -0.251338,0.251338 -0.582649,0.388432 -0.925383,0.388432 l -2.947519,0.01142 c -1.827919,0.01142 -3.690111,1.370939 -4.249911,3.118886 l -1.633702,4.032845 c -0.833988,1.633702 -0.468404,3.907176 0.833988,5.198144 l 2.102106,2.079257 c 0.514102,0.514102 0.525527,1.34809 0.01142,1.873617 l -3.473046,3.495894 c -0.251339,0.251339 -0.582649,0.388433 -0.936808,0.388433 -0.354159,0 -0.68547,-0.137094 -0.925384,-0.377008 l -2.102106,-2.090682 c -0.78829,-0.776866 -1.987862,-1.24527 -3.198858,-1.24527 -0.719743,0 -1.416637,0.159943 -1.999286,0.468404 l -4.021421,1.6794 c -1.736522,0.58265 -3.084612,2.444842 -3.073188,4.27276 l 0.01143,2.947519 c 0,0.342735 -0.137094,0.674045 -0.388433,0.925384 -0.251339,0.251339 -0.582649,0.388432 -0.925384,0.388432 l -4.93538,0.03427 c -0.719743,0 -1.313817,-0.582649 -1.325241,-1.313817 l -0.01142,-2.947518 c -0.01142,-1.827919 -1.370938,-3.690111 -3.118886,-4.249911 l -4.04427,-1.633702 c -0.571224,-0.297037 -1.245269,-0.45698 -1.953588,-0.45698 -1.233845,0 -2.444841,0.479829 -3.233131,1.268119 l -2.090681,2.102106 c -0.251339,0.251339 -0.58265,0.388433 -0.936809,0.388433 -0.354159,0 -0.674045,-0.137094 -0.925384,-0.377009 L 8.5398114,52.152803 C 8.0257092,51.6387 8.0257092,50.804713 8.5283869,50.279186 L 10.607644,48.17708 c 1.302392,-1.302392 1.645127,-3.575866 0.78829,-5.209568 l -1.6794,-4.021421 C 9.1453094,37.209568 7.2831173,35.861478 5.4437742,35.861478 l -2.9589432,0.01142 c -0.719743,0 -1.3138165,-0.594074 -1.3138165,-1.313817 l -0.022849,-4.889682 c 0,-0.731168 0.5826491,-1.313817 1.3138165,-1.325241 l 2.9589432,-0.01142 c 1.8279186,-0.01142 3.6786862,-1.370939 4.2499108,-3.118886 l 1.633702,-4.032845 c 0.833988,-1.633702 0.479829,-3.907176 -0.833988,-5.198144 L 8.368444,13.892181 C 8.1171052,13.640843 7.9800113,13.320957 7.9800113,12.966798 c 0,-0.35416 0.1370939,-0.68547 0.3770082,-0.936809 L 11.81864,8.534095 c 0.251339,-0.2513388 0.571225,-0.3884327 0.925384,-0.3884327 0.354159,0 0.674045,0.1370939 0.925384,0.3770082 l 2.113531,2.0792575 c 0.78829,0.776865 1.987861,1.245269 3.198857,1.245269 0.719743,0 1.405213,-0.159942 1.999286,-0.468404 L 25.002503,9.7108176 C 26.739026,9.139593 28.087116,7.2659764 28.075691,5.4266333 l -0.01142,-2.9475187 c 0,-0.3541592 0.137094,-0.674045 0.388432,-0.9368083 0.251339,-0.2513388 0.582649,-0.3884327 0.925384,-0.3884327 l 4.93538,-0.011425 V 0 M 32.00572,45.423777 h 0.06855 c 7.414495,-0.03427 13.412353,-6.089254 13.378079,-13.503748 -0.03427,-7.380222 -6.066404,-13.37808 -13.435201,-13.37808 h -0.06855 c -3.587291,0.01142 -6.96894,1.428062 -9.493752,3.975723 -2.524813,2.547662 -3.907177,5.929311 -3.895752,9.528026 0.03427,7.380221 6.066405,13.378079 13.446626,13.378079 M 34.313463,0 c 0,0 -0.01142,0 -0.01142,0 l -4.92396,0.02284898 C 28.029993,0.03427347 26.933242,1.1424491 26.933242,2.5019636 l 0.01143,2.9475187 c 0.01142,1.3595145 -1.039629,2.7990004 -2.330597,3.1988576 l -4.112817,1.7136741 c -0.445555,0.239914 -0.971081,0.354159 -1.508032,0.354159 -0.891111,0 -1.793645,-0.319886 -2.399144,-0.9139595 L 14.480547,7.7229561 C 14.000718,7.2545519 13.372371,7.0146376 12.755448,7.0146376 c -0.628347,0 -1.268118,0.2399143 -1.747947,0.7311675 L 7.5458806,11.241699 c -0.9596572,0.959658 -0.9482328,2.524813 0.011425,3.48447 l 2.0906819,2.079258 c 0.9596565,0.948232 1.2338445,2.707604 0.5940725,3.907176 l -1.6679747,4.135665 c -0.3998572,1.290968 -1.8279186,2.353446 -3.1760085,2.36487 l -2.9589433,0.01143 c -1.3366655,-0.01143 -2.44484109,1.096751 -2.4334166,2.456265 l 0.02284898,4.923956 c 0.01142449,1.34809 1.11960012,2.456266 2.45626562,2.456266 0,0 0.011424,0 0.011424,0 l 2.9589432,-0.01143 c 0,0 0,0 0.011424,0 1.34809,0 2.7875759,1.051053 3.1874331,2.330596 l 1.7136742,4.112817 c 0.651196,1.188147 0.399857,2.958943 -0.5598006,3.918601 L 7.728672,49.513745 c -0.9482328,0.959657 -0.9482328,2.524813 0.011425,3.48447 l 3.495894,3.461621 c 0.479829,0.468404 1.096751,0.708318 1.725098,0.708318 0.628347,0 1.268119,-0.239914 1.747947,-0.719743 l 2.090682,-2.102106 c 0.594074,-0.605498 1.519458,-0.936808 2.421992,-0.936808 0.525527,0 1.039629,0.114245 1.47376,0.342734 l 4.135666,1.679401 c 1.290967,0.399857 2.353445,1.827918 2.364869,3.176008 l 0.01142,2.947519 C 27.218845,62.903249 28.327025,64 29.675115,64 c 0,0 0.01142,0 0.01142,0 l 4.923956,-0.02285 c 1.359515,-0.01142 2.456266,-1.1196 2.456266,-2.46769 l -0.01143,-2.947519 c -0.01142,-1.34809 1.051054,-2.787576 2.330597,-3.198857 L 43.49874,53.64941 c 0.445556,-0.239914 0.971082,-0.365584 1.508033,-0.365584 0.891111,0 1.80507,0.319886 2.399143,0.91396 l 2.102107,2.090681 c 0.479828,0.468405 1.108175,0.708319 1.725098,0.708319 0.628347,0 1.268118,-0.239914 1.747947,-0.719743 l 3.473045,-3.495894 c 0.948233,-0.959658 0.948233,-2.524813 -0.01142,-3.48447 l -2.113531,-2.079258 c -0.959657,-0.948232 -1.22242,-2.707604 -0.594073,-3.907176 l 1.6794,-4.124241 c 0.399857,-1.290968 1.839343,-2.353445 3.187433,-2.36487 l 2.947519,-0.01142 c 1.359514,-0.01142 2.456265,-1.1196 2.444841,-2.46769 l -0.02285,-4.923956 c -0.01143,-1.34809 -1.108176,-2.444841 -2.456266,-2.444841 0,0 -0.01142,0 -0.01142,0 l -2.947519,0.01142 c 0,0 -0.01143,0 -0.01143,0 -1.34809,0 -2.787575,-1.051053 -3.187433,-2.330596 l -1.713673,-4.112817 c -0.639772,-1.188147 -0.388433,-2.947518 0.5598,-3.907176 l 2.090682,-2.102106 c 0.948232,-0.959657 0.948232,-2.536237 -0.01142,-3.48447 L 52.775441,7.5858622 C 52.295613,7.1174581 51.667266,6.8775437 51.050343,6.8775437 c -0.628347,0 -1.268118,0.2399144 -1.747947,0.7311675 l -2.090682,2.1021064 c -0.594073,0.6054984 -1.519457,0.9368084 -2.421992,0.9368084 -0.525527,0 -1.039629,-0.114245 -1.473759,-0.342735 L 39.191721,8.6369154 C 37.900754,8.2484827 36.838276,6.8089968 36.826851,5.4609068 L 36.815427,2.5133881 C 36.769729,1.1081757 35.661553,0 34.313463,0 m -2.307747,44.281328 c -6.774723,0 -12.269903,-5.460907 -12.304177,-12.23563 -0.03427,-6.797572 5.449482,-12.327026 12.247055,-12.3613 0.02285,0 0.03427,0 0.05712,0 6.763299,0 12.269904,5.472332 12.292753,12.235631 0.03427,6.797572 -5.449483,12.327026 -12.23563,12.361299 -0.02285,0 -0.0457,0 -0.05712,0"
     style="fill:#676b72;stroke-width:1.14244914"
     id="path4"
     inkscape:connector-curvature="0" />
</svg>
