<?xml version="1.0" encoding="UTF-8" standalone="no"?>
<svg
   xmlns:dc="http://purl.org/dc/elements/1.1/"
   xmlns:cc="http://creativecommons.org/ns#"
   xmlns:rdf="http://www.w3.org/1999/02/22-rdf-syntax-ns#"
   xmlns:svg="http://www.w3.org/2000/svg"
   xmlns="http://www.w3.org/2000/svg"
   xmlns:xlink="http://www.w3.org/1999/xlink"
   xmlns:sodipodi="http://sodipodi.sourceforge.net/DTD/sodipodi-0.dtd"
   xmlns:inkscape="http://www.inkscape.org/namespaces/inkscape"
   viewBox="0 0 64 64"
   style="enable-background:new 0 0 64 64"
   version="1.1"
   id="svg52"
   sodipodi:docname="selfbedsleep.svg"
   inkscape:version="0.92.2 5c3e80d, 2017-08-06">
  <metadata
     id="metadata56">
    <rdf:RDF>
      <cc:Work
         rdf:about="">
        <dc:format>image/svg+xml</dc:format>
        <dc:type
           rdf:resource="http://purl.org/dc/dcmitype/StillImage" />
        <dc:title />
      </cc:Work>
    </rdf:RDF>
  </metadata>
  <sodipodi:namedview
     pagecolor="#ffffff"
     bordercolor="#666666"
     borderopacity="1"
     objecttolerance="10"
     gridtolerance="10"
     guidetolerance="10"
     inkscape:pageopacity="0"
     inkscape:pageshadow="2"
     inkscape:window-width="1920"
     inkscape:window-height="1013"
     id="namedview54"
     showgrid="false"
     inkscape:zoom="3.6875"
     inkscape:cx="-112.49833"
     inkscape:cy="27.454359"
     inkscape:window-x="0"
     inkscape:window-y="0"
     inkscape:window-maximized="1"
     inkscape:current-layer="svg52" />
  <defs
     id="defs28">
    <linearGradient
       id="3"
       gradientUnits="userSpaceOnUse"
       x1="19.7097"
       y1="25.8555"
       x2="11.1442"
       y2="34.421"
       gradientTransform="translate(0.54237288,10.033898)">
      <stop
         style="stop-color:#fff"
         id="stop2" />
      <stop
         offset="1"
         style="stop-color:#c8c8c8"
         id="stop4" />
    </linearGradient>
    <linearGradient
       id="2"
       gradientUnits="userSpaceOnUse"
       x1="2.4692"
       x2="9.8538"
       gradientTransform="matrix(1.2374.212-.1689.9856 18.7773 12.1372)">
      <stop
         style="stop-color:#00255f"
         id="stop7" />
      <stop
         offset=".0124"
         style="stop-color:#00255e"
         id="stop9" />
      <stop
         offset=".6276"
         style="stop-color:#001945"
         id="stop11" />
      <stop
         offset="1"
         style="stop-color:#00143c"
         id="stop13" />
    </linearGradient>
    <linearGradient
       id="0"
       gradientUnits="userSpaceOnUse"
       x1="18"
       x2="58"
       xlink:href="#2"
       gradientTransform="translate(0.54237288,10.033898)" />
    <linearGradient
       id="1"
       gradientUnits="userSpaceOnUse"
       y1="24.75"
       x2="0"
       y2="46"
       gradientTransform="translate(0.54237288,10.033898)">
      <stop
         style="stop-color:#0062ca"
         id="stop17" />
      <stop
         offset=".28"
         style="stop-color:#004ca0"
         id="stop19" />
      <stop
         offset=".5974"
         style="stop-color:#003678"
         id="stop21" />
      <stop
         offset=".8485"
         style="stop-color:#00295e"
         id="stop23" />
      <stop
         offset="1"
         style="stop-color:#002455"
         id="stop25" />
    </linearGradient>
    <radialGradient
       gradientTransform="matrix(0.32805,0,0,0.32805,36.417656,9.5344647)"
       id="0-3"
       cx="31.999815"
       cy="31.999947"
       r="30.999989"
       gradientUnits="userSpaceOnUse">
      <stop
         offset=".8"
         style="stop-color:#f8f5e5;stop-opacity:0"
         id="stop2-6" />
      <stop
         offset=".8"
         style="stop-color:#ffde52;stop-opacity:.2"
         id="stop4-7" />
      <stop
         offset="1"
         style="stop-color:#ffde52;stop-opacity:0"
         id="stop6" />
    </radialGradient>
    <linearGradient
       inkscape:collect="always"
       xlink:href="#2"
       id="linearGradient882"
       gradientUnits="userSpaceOnUse"
       gradientTransform="matrix(1.2374,0.212,-0.1689,0.9856,19.319673,22.171098)"
       x1="2.4692"
       x2="9.8538" />
  </defs>
  <g
     id="g857"
     transform="matrix(1.2345679,0,0,1.2345679,-7.5061728,-8.8048996)">
    <g
       transform="matrix(0.81,0,0,0.81,5.6406779,5.5100284)"
       id="g895">
      <path
         d="m 59.042373,35.533898 h 5 v 24 h -5 z"
         style="fill:#845340"
         id="path30"
         inkscape:connector-curvature="0" />
      <path
         d="m 63.542373,36.033898 v 23 h -4 v -23 h 4 m 1,-1 h -6 v 25 h 6 z"
         style="fill:#663629"
         id="path32"
         inkscape:connector-curvature="0" />
      <path
         d="m 21.292373,46.953898 c -0.5,0 -0.98,-0.11 -1.43,-0.33 l -11.3800001,-5.62 c -0.78,-0.38 -1.36,-1.05 -1.64,-1.87 -0.28,-0.82 -0.22,-1.71 0.16,-2.48 l 0.71,-1.45 c 0.54,-1.1 1.69,-1.81 2.9300001,-1.81 0.5,0 0.98,0.11 1.43,0.33 l 11.38,5.61 c 0.78,0.38 1.36,1.05 1.64,1.87 0.28,0.83 0.22,1.71 -0.16,2.48 l -0.71,1.45 c -0.54,1.1 -1.69,1.82 -2.93,1.82"
         style="fill:url(#3)"
         id="path34"
         inkscape:connector-curvature="0" />
      <path
         d="m 10.642373,33.143898 v 0.5 c 0.46,0 0.9,0.1 1.32,0.31 l 11.39,5.61 c 0.72,0.35 1.25,0.97 1.51,1.73 0.26,0.76 0.21,1.57 -0.15,2.29 l -0.71,1.45 c -0.5,1.02 -1.56,1.67 -2.7,1.67 -0.46,0 -0.9,-0.1 -1.32,-0.31 l -11.3900001,-5.61 c -1.48,-0.73 -2.1,-2.53 -1.37,-4.02 l 0.71,-1.45 c 0.5,-1.02 1.56,-1.67 2.7000001,-1.67 v -0.5 m 0.01,0 c -1.2900001,0 -2.5400001,0.72 -3.1500001,1.95 l -0.71,1.45 c -0.85,1.73 -0.13,3.84 1.59,4.69 l 11.3900001,5.61 c 0.49,0.24 1.02,0.36 1.54,0.36 1.29,0 2.54,-0.72 3.15,-1.95 l 0.71,-1.45 c 0.85,-1.73 0.13,-3.84 -1.59,-4.69 l -11.39,-5.61 c -0.5,-0.24 -1.02,-0.36 -1.54,-0.36"
         style="fill:#bebebe"
         id="path36"
         inkscape:connector-curvature="0" />
      <path
         d="M 6.0423729,42.533898 H 59.042373 v 10 H 6.0423729 Z"
         style="fill:#845340"
         id="path38"
         inkscape:connector-curvature="0" />
      <path
         d="m 58.542373,43.033898 v 9 H 6.5423729 v -9 H 58.542373 m 1,-1 H 5.5423729 v 11 H 59.542373 Z"
         style="fill:#663629"
         id="path40"
         inkscape:connector-curvature="0" />
      <path
         d="m 54.792373,41.033898 h -13.75 c 0,0 -7.6,-0.1 -12.5,-2.5 -4.9,-2.4 -10,-3.75 -10,-3.75 v 6.25 11.25 c 0,2.07 1.68,3.75 3.75,3.75 h 31.25 c 2.76,0 5,-2.24 5,-5 v -6.25 c 0,-2.07 -1.68,-3.75 -3.75,-3.75"
         style="fill:url(#1)"
         id="path42"
         inkscape:connector-curvature="0" />
      <path
         d="m 19.542373,36.113898 c 1.8,0.55 5.25,1.69 8.56,3.32 5.04,2.46 12.61,2.6 12.94,2.6 h 13.75 c 1.52,0 2.75,1.23 2.75,2.75 v 6.25 c 0,2.21 -1.79,4 -4,4 h -31.25 c -1.52,0 -2.75,-1.23 -2.75,-2.75 v -11.25 -4.92 m -1,-1.33 v 6.25 11.25 c 0,2.07 1.68,3.75 3.75,3.75 h 31.25 c 2.76,0 5,-2.24 5,-5 v -6.25 c 0,-2.07 -1.68,-3.75 -3.75,-3.75 h -13.75 c 0,0 -7.6,-0.1 -12.5,-2.5 -4.9,-2.4 -10,-3.75 -10,-3.75 z"
         style="fill:url(#0)"
         id="path44"
         inkscape:connector-curvature="0" />
      <path
         d="m 28.332373,42.813898 -9.14,-1.57 0.21,-1.21 9.14,1.57 z"
         style="opacity:0.6;fill:url(#linearGradient882)"
         id="path46"
         inkscape:connector-curvature="0" />
      <path
         d="m 1.0423729,24.533898 h 5 v 35 h -5 z"
         style="fill:#845340"
         id="path48"
         inkscape:connector-curvature="0" />
      <path
         d="m 5.5423729,25.033898 v 34 h -4 v -34 h 4 m 1,-1 H 0.54237288 v 36 H 6.5423729 Z"
         style="fill:#663629"
         id="path50"
         inkscape:connector-curvature="0" />
    </g>
    <path
       style="fill:#ffde52;fill-opacity:1;stroke:#ffde52;stroke-width:0.31381059;stroke-linejoin:round;stroke-miterlimit:4;stroke-dasharray:none;stroke-opacity:1"
       id="path18"
       d="m 48.901371,20.067774 c 0,-2.939433 1.588885,-5.481647 3.972213,-6.911642 -1.191664,-0.714999 -2.542216,-1.032775 -3.972213,-1.032775 -4.369437,0 -7.94443,3.574988 -7.94443,7.944417 0,4.36943 3.574993,7.944418 7.94443,7.944418 1.429997,0 2.780549,-0.397222 3.972213,-1.032774 -2.383328,-1.350552 -3.972213,-3.972209 -3.972213,-6.911644 z"
       inkscape:connector-curvature="0" />
  </g>
</svg>
