<?xml version="1.0" encoding="UTF-8" standalone="no"?>
<!-- Created with Inkscape (http://www.inkscape.org/) -->

<svg
   xmlns:dc="http://purl.org/dc/elements/1.1/"
   xmlns:cc="http://creativecommons.org/ns#"
   xmlns:rdf="http://www.w3.org/1999/02/22-rdf-syntax-ns#"
   xmlns:svg="http://www.w3.org/2000/svg"
   xmlns="http://www.w3.org/2000/svg"
   xmlns:xlink="http://www.w3.org/1999/xlink"
   xmlns:sodipodi="http://sodipodi.sourceforge.net/DTD/sodipodi-0.dtd"
   xmlns:inkscape="http://www.inkscape.org/namespaces/inkscape"
   width="64"
   version="1.1"
   height="64"
   id="svg21"
   sodipodi:docname="selferror-2.svg"
   inkscape:version="0.92.2 5c3e80d, 2017-08-06">
  <sodipodi:namedview
     pagecolor="#ffffff"
     bordercolor="#666666"
     borderopacity="1"
     objecttolerance="10"
     gridtolerance="10"
     guidetolerance="10"
     inkscape:pageopacity="0"
     inkscape:pageshadow="2"
     inkscape:window-width="1920"
     inkscape:window-height="1013"
     id="namedview23"
     showgrid="false"
     inkscape:zoom="3.6875"
     inkscape:cx="-23.59322"
     inkscape:cy="32"
     inkscape:window-x="0"
     inkscape:window-y="0"
     inkscape:window-maximized="1"
     inkscape:current-layer="layer1" />
  <defs
     id="defs3811">
    <linearGradient
       inkscape:collect="always"
       id="linearGradient4344">
      <stop
         style="stop-color:#ed868d"
         id="stop4346" />
      <stop
         offset="1"
         style="stop-color:#fbe6e8"
         id="stop4348" />
    </linearGradient>
    <linearGradient
       inkscape:collect="always"
       id="linearGradient4435">
      <stop
         style="stop-color:#c61423"
         id="stop4437" />
      <stop
         offset="1"
         style="stop-color:#dc2b41"
         id="stop4439" />
    </linearGradient>
    <linearGradient
       inkscape:collect="always"
       id="linearGradient4179"
       xlink:href="#linearGradient4344"
       y1="201.93361"
       y2="177.93361"
       gradientUnits="userSpaceOnUse"
       x2="0"
       gradientTransform="translate(2e-6,-2.999999)" />
    <linearGradient
       inkscape:collect="always"
       xlink:href="#linearGradient4435"
       id="linearGradient4424"
       y1="58"
       y2="6"
       x2="0"
       gradientUnits="userSpaceOnUse" />
  </defs>
  <metadata
     id="metadata3814">
    <rdf:RDF>
      <cc:Work
         rdf:about="">
        <dc:format>image/svg+xml</dc:format>
        <dc:type
           rdf:resource="http://purl.org/dc/dcmitype/StillImage" />
      </cc:Work>
    </rdf:RDF>
  </metadata>
  <g
     inkscape:label="Layer 1"
     inkscape:groupmode="layer"
     id="layer1"
     transform="matrix(1 0 0 1 -736.85718 -157.93361)">
    <g
       id="g833"
       transform="matrix(1.2308154,0,0,1.2308154,-177.46408,-43.838402)">
      <path
         transform="translate(736.85718,157.93361)"
         d="M 32,6 C 25.66667,9.35447 19.33333,10.72491 13,12 V 37 C 13,44 23.26331,53.561337 32,57.998047 40.73669,53.561337 51,44 51,37 V 12 C 44.66667,10.72491 38.33333,9.35447 32,6 Z"
         id="rect4186-2-1"
         style="fill:url(#linearGradient4424);stroke-width:2;stroke-linecap:square"
         inkscape:connector-curvature="0" />
      <path
         d="m 779.44312,174.93361 1.41406,1.41406 -10.58594,10.58594 10.58594,10.58594 -1.41406,1.41406 -10.58594,-10.58594 -10.58594,10.58594 -1.41406,-1.41406 10.58594,-10.58594 -10.58594,-10.58594 1.41406,-1.41406 10.58594,10.58594 z"
         id="rect4168"
         style="fill:url(#linearGradient4179)"
         inkscape:connector-curvature="0" />
      <path
         d="m 749.85718,192.93361 v 2 c 0,7 10.26331,16.56134 19,20.99805 8.73669,-4.43671 19,-13.99805 19,-20.99805 v -2 c 0,7 -10.26331,16.56134 -19,20.99805 -8.73669,-4.43671 -19,-13.99805 -19,-20.99805 z"
         id="rect4186-2-1-5"
         style="fill:#aa111e;stroke-width:2;stroke-linecap:square"
         inkscape:connector-curvature="0" />
    </g>
  </g>
</svg>
