<?xml version="1.0" encoding="UTF-8" standalone="no"?>
<svg
   xmlns:dc="http://purl.org/dc/elements/1.1/"
   xmlns:cc="http://creativecommons.org/ns#"
   xmlns:rdf="http://www.w3.org/1999/02/22-rdf-syntax-ns#"
   xmlns:svg="http://www.w3.org/2000/svg"
   xmlns="http://www.w3.org/2000/svg"
   xmlns:sodipodi="http://sodipodi.sourceforge.net/DTD/sodipodi-0.dtd"
   xmlns:inkscape="http://www.inkscape.org/namespaces/inkscape"
   viewBox="0 0 64 64"
   style="enable-background:new 0 0 64 64"
   id="svg24"
   version="1.1"
   inkscape:version="0.92.2 5c3e80d, 2017-08-06"
   sodipodi:docname="selfrollershutter-10.svg">
  <metadata
     id="metadata50">
    <rdf:RDF>
      <cc:Work
         rdf:about="">
        <dc:format>image/svg+xml</dc:format>
        <dc:type
           rdf:resource="http://purl.org/dc/dcmitype/StillImage" />
      </cc:Work>
    </rdf:RDF>
  </metadata>
  <defs
     id="defs48" />
  <sodipodi:namedview
     pagecolor="#ffffff"
     bordercolor="#666666"
     borderopacity="1"
     objecttolerance="10"
     gridtolerance="10"
     guidetolerance="10"
     inkscape:pageopacity="0"
     inkscape:pageshadow="2"
     inkscape:window-width="1920"
     inkscape:window-height="1013"
     id="namedview46"
     showgrid="false"
     inkscape:zoom="7.375"
     inkscape:cx="5.7267298"
     inkscape:cy="34.702795"
     inkscape:window-x="0"
     inkscape:window-y="0"
     inkscape:window-maximized="1"
     inkscape:current-layer="svg24" />
  <g
     id="g829"
     transform="matrix(1.2121212,0,0,1.2121212,-6.7878784,-6.7878784)">
    <path
       inkscape:connector-curvature="0"
       id="path26"
       d="m 15.5,12.2 v 39.6 h 33 V 12.2 Z m 4,4.8 h 25 v 30 h -25 z"
       style="fill:#f0f0f0;stroke-width:1.09544516" />
    <path
       inkscape:connector-curvature="0"
       id="path28"
       style="fill:#646464;stroke-width:1.09544516"
       d="M 48,12.8 V 51.2 H 16 V 12.8 h 32 m 1,-1.2 H 15 v 40.8 h 34 z" />
    <path
       inkscape:connector-curvature="0"
       id="path32"
       style="fill:#7aadcc;stroke-width:1.09544516"
       d="M 44,17.6 V 46.4 H 20 V 17.6 h 24 m 1,-1.2 H 19 v 31.2 h 26 z" />
    <path
       inkscape:connector-curvature="0"
       id="path34"
       style="fill:#ececed;stroke-width:1.09544516"
       d="M 10.5,57.8 V 6.2 h 43 v 51.6 h -43 m 4,-4.8 h 35 V 11 h -35 v 42" />
    <path
       inkscape:connector-curvature="0"
       id="path36"
       style="fill:#9b9c9e;stroke-width:1.09544516"
       d="M 53,6.8 V 57.2 H 11 V 6.8 H 53 M 14,53.6 h 1 34 1 V 52.4 11.6 10.4 H 49 15 14 v 1.2 40.8 1.2 M 54,5.6 H 10 V 58.4 H 54 Z M 15,52.4 V 11.6 H 49 V 52.4 H 15" />
    <path
       inkscape:connector-curvature="0"
       id="path38"
       style="fill:#c8c8c8;stroke-width:1.09544516"
       d="m 14.5,11 h 35 v 6 h -35 z" />
    <path
       inkscape:connector-curvature="0"
       id="path40"
       style="fill:#646464;stroke-width:1.09544516"
       d="m 49,11.6 v 4.8 H 15 v -4.8 h 34 m 1,-1.2 H 14 v 7.2 h 36 z" />
    <path
       inkscape:connector-curvature="0"
       id="path42"
       style="opacity:0.25;stroke-width:1.09544516"
       d="m 15,11.6 h 34 v 1.2 H 15 Z" />
    <path
       inkscape:connector-curvature="0"
       id="path44"
       style="fill:#282828;stroke-width:1.09544516"
       d="m 14,10.4 h 36 v 4.8 H 14 Z" />
  </g>
</svg>
