<?xml version="1.0" encoding="UTF-8" standalone="no"?>
<svg
   xmlns:dc="http://purl.org/dc/elements/1.1/"
   xmlns:cc="http://creativecommons.org/ns#"
   xmlns:rdf="http://www.w3.org/1999/02/22-rdf-syntax-ns#"
   xmlns:svg="http://www.w3.org/2000/svg"
   xmlns="http://www.w3.org/2000/svg"
   xmlns:xlink="http://www.w3.org/1999/xlink"
   xmlns:sodipodi="http://sodipodi.sourceforge.net/DTD/sodipodi-0.dtd"
   xmlns:inkscape="http://www.inkscape.org/namespaces/inkscape"
   viewBox="0 0 64 64"
   style="enable-background:new 0 0 64 64"
   version="1.1"
   id="svg52"
   sodipodi:docname="selfbed.svg"
   inkscape:version="0.92.2 5c3e80d, 2017-08-06">
  <metadata
     id="metadata56">
    <rdf:RDF>
      <cc:Work
         rdf:about="">
        <dc:format>image/svg+xml</dc:format>
        <dc:type
           rdf:resource="http://purl.org/dc/dcmitype/StillImage" />
      </cc:Work>
    </rdf:RDF>
  </metadata>
  <sodipodi:namedview
     pagecolor="#ffffff"
     bordercolor="#666666"
     borderopacity="1"
     objecttolerance="10"
     gridtolerance="10"
     guidetolerance="10"
     inkscape:pageopacity="0"
     inkscape:pageshadow="2"
     inkscape:window-width="1920"
     inkscape:window-height="1013"
     id="namedview54"
     showgrid="false"
     inkscape:zoom="3.6875"
     inkscape:cx="-23.59322"
     inkscape:cy="32"
     inkscape:window-x="0"
     inkscape:window-y="0"
     inkscape:window-maximized="1"
     inkscape:current-layer="svg52" />
  <defs
     id="defs28">
    <linearGradient
       id="3"
       gradientUnits="userSpaceOnUse"
       x1="19.7097"
       y1="25.8555"
       x2="11.1442"
       y2="34.421">
      <stop
         style="stop-color:#fff"
         id="stop2" />
      <stop
         offset="1"
         style="stop-color:#c8c8c8"
         id="stop4" />
    </linearGradient>
    <linearGradient
       id="2"
       gradientUnits="userSpaceOnUse"
       x1="2.4692"
       x2="9.8538"
       gradientTransform="matrix(1.2374.212-.1689.9856 18.7773 12.1372)">
      <stop
         style="stop-color:#00255f"
         id="stop7" />
      <stop
         offset=".0124"
         style="stop-color:#00255e"
         id="stop9" />
      <stop
         offset=".6276"
         style="stop-color:#001945"
         id="stop11" />
      <stop
         offset="1"
         style="stop-color:#00143c"
         id="stop13" />
    </linearGradient>
    <linearGradient
       id="0"
       gradientUnits="userSpaceOnUse"
       x1="18"
       x2="58"
       xlink:href="#2" />
    <linearGradient
       id="1"
       gradientUnits="userSpaceOnUse"
       y1="24.75"
       x2="0"
       y2="46">
      <stop
         style="stop-color:#0062ca"
         id="stop17" />
      <stop
         offset=".28"
         style="stop-color:#004ca0"
         id="stop19" />
      <stop
         offset=".5974"
         style="stop-color:#003678"
         id="stop21" />
      <stop
         offset=".8485"
         style="stop-color:#00295e"
         id="stop23" />
      <stop
         offset="1"
         style="stop-color:#002455"
         id="stop25" />
    </linearGradient>
    <linearGradient
       inkscape:collect="always"
       xlink:href="#2"
       id="linearGradient879"
       gradientUnits="userSpaceOnUse"
       gradientTransform="matrix(1.2374,0.212,-0.1689,0.9856,18.7773,12.1372)"
       x1="2.4692"
       x2="9.8538" />
  </defs>
  <g
     id="g877"
     transform="matrix(0.81,0,0,0.81,6.08,6.08)">
    <path
       id="path30"
       style="fill:#845340"
       d="m 58.5,25.5 h 5 v 24 h -5 z"
       inkscape:connector-curvature="0" />
    <path
       id="path32"
       style="fill:#663629"
       d="M 63,26 V 49 H 59 V 26 h 4 m 1,-1 h -6 v 25 h 6 z"
       inkscape:connector-curvature="0" />
    <path
       id="path34"
       style="fill:url(#3)"
       d="m 20.75,36.92 c -0.5,0 -0.98,-0.11 -1.43,-0.33 L 7.94,30.97 C 7.16,30.59 6.58,29.92 6.3,29.1 6.02,28.28 6.08,27.39 6.46,26.62 l 0.71,-1.45 c 0.54,-1.1 1.69,-1.81 2.93,-1.81 0.5,0 0.98,0.11 1.43,0.33 l 11.38,5.61 c 0.78,0.38 1.36,1.05 1.64,1.87 0.28,0.83 0.22,1.71 -0.16,2.48 l -0.71,1.45 c -0.54,1.1 -1.69,1.82 -2.93,1.82"
       inkscape:connector-curvature="0" />
    <path
       id="path36"
       style="fill:#bebebe"
       d="m 10.1,23.11 v 0.5 c 0.46,0 0.9,0.1 1.32,0.31 l 11.39,5.61 c 0.72,0.35 1.25,0.97 1.51,1.73 0.26,0.76 0.21,1.57 -0.15,2.29 L 23.46,35 c -0.5,1.02 -1.56,1.67 -2.7,1.67 -0.46,0 -0.9,-0.1 -1.32,-0.31 L 8.05,30.75 C 6.57,30.02 5.95,28.22 6.68,26.73 l 0.71,-1.45 c 0.5,-1.02 1.56,-1.67 2.7,-1.67 v -0.5 m 0.01,0 c -1.29,0 -2.54,0.72 -3.15,1.95 l -0.71,1.45 c -0.85,1.73 -0.13,3.84 1.59,4.69 l 11.39,5.61 c 0.49,0.24 1.02,0.36 1.54,0.36 1.29,0 2.54,-0.72 3.15,-1.95 l 0.71,-1.45 c 0.85,-1.73 0.13,-3.84 -1.59,-4.69 L 11.64,23.47 c -0.5,-0.24 -1.02,-0.36 -1.54,-0.36"
       inkscape:connector-curvature="0" />
    <path
       id="path38"
       style="fill:#845340"
       d="m 5.5,32.5 h 53 v 10 h -53 z"
       inkscape:connector-curvature="0" />
    <path
       id="path40"
       style="fill:#663629"
       d="m 58,33 v 9 H 6 v -9 h 52 m 1,-1 H 5 v 11 h 54 z"
       inkscape:connector-curvature="0" />
    <path
       id="path42"
       style="fill:url(#1)"
       d="M 54.25,31 H 40.5 C 40.5,31 32.9,30.9 28,28.5 23.1,26.1 18,24.75 18,24.75 V 31 42.25 C 18,44.32 19.68,46 21.75,46 H 53 c 2.76,0 5,-2.24 5,-5 V 34.75 C 58,32.68 56.32,31 54.25,31"
       inkscape:connector-curvature="0" />
    <path
       id="path44"
       style="fill:url(#0)"
       d="m 19,26.08 c 1.8,0.55 5.25,1.69 8.56,3.32 C 32.6,31.86 40.17,32 40.5,32 H 54.25 C 55.77,32 57,33.23 57,34.75 V 41 c 0,2.21 -1.79,4 -4,4 H 21.75 C 20.23,45 19,43.77 19,42.25 V 31 26.08 M 18,24.75 V 31 42.25 C 18,44.32 19.68,46 21.75,46 H 53 c 2.76,0 5,-2.24 5,-5 V 34.75 C 58,32.68 56.32,31 54.25,31 H 40.5 C 40.5,31 32.9,30.9 28,28.5 23.1,26.1 18,24.75 18,24.75 Z"
       inkscape:connector-curvature="0" />
    <path
       id="path46"
       style="opacity:0.6;fill:url(#linearGradient879)"
       d="M 27.79,32.78 18.65,31.21 18.86,30 28,31.57 Z"
       inkscape:connector-curvature="0" />
    <path
       id="path48"
       style="fill:#845340"
       d="m 0.5,14.5 h 5 v 35 h -5 z"
       inkscape:connector-curvature="0" />
    <path
       id="path50"
       style="fill:#663629"
       d="M 5,15 V 49 H 1 V 15 H 5 M 6,14 H 0 v 36 h 6 z"
       inkscape:connector-curvature="0" />
  </g>
</svg>
