<?xml version="1.0" encoding="UTF-8" standalone="no"?>
<svg
   xmlns:dc="http://purl.org/dc/elements/1.1/"
   xmlns:cc="http://creativecommons.org/ns#"
   xmlns:rdf="http://www.w3.org/1999/02/22-rdf-syntax-ns#"
   xmlns:svg="http://www.w3.org/2000/svg"
   xmlns="http://www.w3.org/2000/svg"
   xmlns:sodipodi="http://sodipodi.sourceforge.net/DTD/sodipodi-0.dtd"
   xmlns:inkscape="http://www.inkscape.org/namespaces/inkscape"
   viewBox="0 0 64 64"
   style="enable-background:new 0 0 64 64"
   id="svg110"
   version="1.1"
   inkscape:version="0.91 r13725"
   sodipodi:docname="selfrollershutter-40.svg">
  <metadata
     id="metadata140">
    <rdf:RDF>
      <cc:Work
         rdf:about="">
        <dc:format>image/svg+xml</dc:format>
        <dc:type
           rdf:resource="http://purl.org/dc/dcmitype/StillImage" />
      </cc:Work>
    </rdf:RDF>
  </metadata>
  <defs
     id="defs138" />
  <sodipodi:namedview
     pagecolor="#ffffff"
     bordercolor="#666666"
     borderopacity="1"
     objecttolerance="10"
     gridtolerance="10"
     guidetolerance="10"
     inkscape:pageopacity="0"
     inkscape:pageshadow="2"
     inkscape:window-width="1920"
     inkscape:window-height="1015"
     id="namedview136"
     showgrid="false"
     inkscape:zoom="7.375"
     inkscape:cx="-29.269381"
     inkscape:cy="25.210986"
     inkscape:window-x="1920"
     inkscape:window-y="0"
     inkscape:window-maximized="1"
     inkscape:current-layer="svg110" />
  <g
     id="g4161">
    <path
       inkscape:connector-curvature="0"
       id="path6-3"
       style="fill:#d9f1ff;stroke-width:1.09544516"
       d="m 16.984078,14.089368 30.30303,0 0,36.363636 -30.30303,0 z" />
    <path
       inkscape:connector-curvature="0"
       id="path112"
       d="M 12,8.0000002 12,56 52,56 52,8.0000002 Z m 4.848485,5.8181818 30.30303,0 0,36.363636 -30.30303,0 z"
       style="fill:#f0f0f0;stroke-width:1.09544516" />
    <path
       inkscape:connector-curvature="0"
       id="path114"
       style="fill:#646464;stroke-width:1.09544516"
       d="m 51.393939,8.727273 0,46.545454 -38.787878,0 0,-46.545454 38.787878,0 m 1.212121,-1.4545455 -41.21212,0 0,49.4545445 41.21212,0 z" />
    <path
       inkscape:connector-curvature="0"
       id="path118"
       style="fill:#7aadcc;stroke-width:1.09544516"
       d="m 46.545454,14.545455 0,34.90909 -29.090908,0 0,-34.90909 29.090908,0 m 1.212122,-1.454546 -31.515152,0 0,37.818182 31.515152,0 z" />
    <path
       inkscape:connector-curvature="0"
       id="path120"
       style="fill:#ececed;stroke-width:1.09544516"
       d="m 5.9393942,63.272727 0,-62.54545396 52.1212118,0 0,62.54545396 -52.1212118,0 m 4.8484848,-5.818182 42.424242,0 0,-50.9090902 -42.424242,0 0,50.9090902" />
    <path
       inkscape:connector-curvature="0"
       id="path122"
       style="fill:#9b9c9e;stroke-width:1.09544516"
       d="m 57.454545,1.4545458 0,61.0909082 -50.9090902,0 0,-61.0909082 50.9090902,0 m -47.272727,56.7272722 1.212122,0 41.21212,0 1.212122,0 0,-1.454546 0,-49.4545445 0,-1.4545454 -1.212122,0 -41.21212,0 -1.212122,0 0,1.4545454 0,49.4545445 0,1.454546 M 58.666666,3.1999999e-7 l -53.3333324,0 L 5.3333336,64 58.666666,64 Z M 11.39394,56.727272 l 0,-49.4545445 41.21212,0 0,49.4545445 -41.21212,0" />
    <path
       inkscape:connector-curvature="0"
       id="path124"
       style="fill:#c8c8c8;stroke-width:1.09544516"
       d="m 10.787879,6.5454548 42.424242,0 0,20.3636362 -42.424242,0 z" />
    <path
       inkscape:connector-curvature="0"
       id="path126"
       style="fill:#646464;stroke-width:1.09544516"
       d="m 52.60606,7.2727275 0,18.9090905 -41.21212,0 0,-18.9090905 41.21212,0 m 1.212122,-1.4545454 -43.636364,0 0,21.8181819 43.636364,0 z" />
    <path
       inkscape:connector-curvature="0"
       id="path128"
       style="opacity:0.25;stroke-width:1.09544516"
       d="m 11.39394,8.727273 41.21212,0 0,1.454545 -41.21212,0 z" />
    <path
       inkscape:connector-curvature="0"
       id="path130"
       style="opacity:0.25;stroke-width:1.09544516"
       d="m 11.39394,14.545455 41.21212,0 0,1.454545 -41.21212,0 z" />
    <path
       inkscape:connector-curvature="0"
       id="path132"
       style="opacity:0.25;stroke-width:1.09544516"
       d="m 11.39394,20.363636 41.21212,0 0,1.454546 -41.21212,0 z" />
    <path
       inkscape:connector-curvature="0"
       id="path134"
       style="fill:#282828;stroke-width:1.09544516"
       d="m 10.181818,5.8181821 43.636364,0 0,5.8181819 -43.636364,0 z" />
  </g>
</svg>
