<?xml version="1.0" encoding="UTF-8" standalone="no"?>
<svg
   xmlns:dc="http://purl.org/dc/elements/1.1/"
   xmlns:cc="http://creativecommons.org/ns#"
   xmlns:rdf="http://www.w3.org/1999/02/22-rdf-syntax-ns#"
   xmlns:svg="http://www.w3.org/2000/svg"
   xmlns="http://www.w3.org/2000/svg"
   xmlns:sodipodi="http://sodipodi.sourceforge.net/DTD/sodipodi-0.dtd"
   xmlns:inkscape="http://www.inkscape.org/namespaces/inkscape"
   viewBox="0 0 64 64"
   style="enable-background:new 0 0 64 64"
   version="1.1"
   id="svg42"
   sodipodi:docname="selfgarden.svg"
   inkscape:version="0.92.2 5c3e80d, 2017-08-06">
  <metadata
     id="metadata48">
    <rdf:RDF>
      <cc:Work
         rdf:about="">
        <dc:format>image/svg+xml</dc:format>
        <dc:type
           rdf:resource="http://purl.org/dc/dcmitype/StillImage" />
        <dc:title />
      </cc:Work>
    </rdf:RDF>
  </metadata>
  <defs
     id="defs46" />
  <sodipodi:namedview
     pagecolor="#ffffff"
     bordercolor="#666666"
     borderopacity="1"
     objecttolerance="10"
     gridtolerance="10"
     guidetolerance="10"
     inkscape:pageopacity="0"
     inkscape:pageshadow="2"
     inkscape:window-width="1920"
     inkscape:window-height="1013"
     id="namedview44"
     showgrid="false"
     inkscape:zoom="7.375"
     inkscape:cx="15.03921"
     inkscape:cy="36.3943"
     inkscape:window-x="0"
     inkscape:window-y="0"
     inkscape:window-maximized="1"
     inkscape:current-layer="svg42" />
  <g
     id="g1110">
    <g
       transform="matrix(0.93150621,0,0,0.93150621,-2.8458259,2.0132804)"
       style="fill:#356202;stroke:#009949;stroke-width:0.25;stroke-miterlimit:10;fill-opacity:1"
       id="g6">
      <path
         style="fill:#356202;fill-opacity:1"
         inkscape:connector-curvature="0"
         d="m 44.22,39.65 c -1.58,0 -2.94,0.6 -3.63,1.47 l -6.06,-4.51 -3.83,-0.97 -3.84,1.45 -2.25,1.45 c -1.09,-1.35 -3.01,-2.25 -5.21,-2.25 -3.4,0 -6.16,2.14 -6.16,4.77 0,2.63 2.76,4.77 6.16,4.77 2.47,0 4.58,-1.13 5.57,-2.76 0.52,1.14 1.61,1.79 2.63,1.5 0.3,-0.09 0.56,-0.25 0.77,-0.46 0.62,1.21 2.42,1.63 4.13,0.93 0.44,-0.18 0.83,-0.42 1.16,-0.69 0.25,1.35 1.96,2.4 4.06,2.4 2,0 3.66,-0.95 4.03,-2.2 0.69,0.34 1.54,0.56 2.46,0.56 2.27,0 4.11,-1.22 4.11,-2.73 0.01,-1.5 -1.83,-2.73 -4.1,-2.73 z"
         id="path2" />
      <path
         style="fill:#356202;fill-opacity:1"
         inkscape:connector-curvature="0"
         d="m 47.16,17.62 c 0.19,-0.32 0.31,-0.7 0.31,-1.1 0,-1.22 -1.02,-2.21 -2.28,-2.21 -0.48,0 -0.93,0.15 -1.3,0.4 L 40,11.45 32.34,12.47 25.11,17.66 14.3,25.42 c -0.38,-0.27 -0.84,-0.44 -1.35,-0.44 -1.26,0 -2.28,0.99 -2.28,2.21 0,1.22 1.02,2.21 2.28,2.21 0.32,0 0.62,-0.07 0.9,-0.18 l 0.66,2.07 9.35,-1.21 1.31,-4.03 15.32,-2.91 7.47,-4.8 z"
         id="path4" />
    </g>
    <path
       id="path18"
       style="fill:#ad7440;stroke-width:0.93150622"
       d="m 28.182646,60.931048 c -0.0652,0 -0.130411,-0.02794 -0.176986,-0.08383 -0.0093,-0.0093 -0.884931,-1.043287 -2.533697,-1.043287 -0.763835,0 -1.583561,0.223561 -2.440546,0.652054 -0.03726,0.01863 -0.06521,0.02795 -0.102466,0.02795 -0.07452,0 -0.149041,-0.03726 -0.195616,-0.102465 -0.06521,-0.09315 -0.04658,-0.232877 0.03726,-0.307398 0.01863,-0.01863 1.956163,-1.760546 1.956163,-5.020818 0,-3.241642 -0.940821,-4.275614 -0.950136,-4.284929 -0.08384,-0.09315 -0.08384,-0.242191 0.0093,-0.326027 L 24.30758,49.94859 c 0.04657,-0.04658 0.102466,-0.06521 0.158356,-0.06521 0.05589,0 0.111781,0.01863 0.158356,0.05589 0.03726,0.02794 0.186301,0.176986 0.353973,0.372602 v -6.520543 c 0,-0.03726 0.121095,-2.785204 -0.62411,-4.061367 -0.512328,-0.875616 -1.108492,-1.332054 -1.928217,-1.946848 -0.391233,-0.298082 -0.838356,-0.633424 -1.332054,-1.061917 -0.335343,-0.288767 -0.530959,-0.512329 -0.447123,-0.73589 0.02794,-0.07452 0.11178,-0.204931 0.353972,-0.204931 0.549589,0 2.2263,0.735889 2.412601,0.819725 0.484383,0.344657 1.630136,1.136438 2.216985,1.462465 0.204931,-0.959452 0.279452,-2.002739 0.0652,-2.17041 -0.07452,-0.0652 -0.11178,-0.167671 -0.07452,-0.260821 0.03726,-0.09315 0.121096,-0.158357 0.223561,-0.158357 h 1.183013 c 0.06521,0 0.130411,0.02795 0.176986,0.07452 0.04658,0.04657 0.06521,0.111781 0.05589,0.186301 0,0.0093 -0.121096,1.033972 0.05589,1.956163 0.391233,-0.912876 1.006027,-2.133149 1.481095,-2.216985 0.0093,0 0.02794,0 0.03726,0 0.03726,0 0.08384,0.0093 0.111781,0.02795 l 1.285479,0.73589 c 0.09315,0.05589 0.139726,0.167671 0.102465,0.279451 -0.02794,0.09315 -0.121096,0.158356 -0.223561,0.158356 -0.0093,0 -0.02794,0 -0.02794,0 -0.195617,0 -1.723287,0.130411 -1.723287,4.294244 v 4.648216 c 0.06521,-0.04657 0.130411,-0.09315 0.195616,-0.121096 0.02795,-0.0093 0.06521,-0.01863 0.09315,-0.01863 0.04657,0 0.08384,0.0093 0.130411,0.03726 0.0652,0.04658 0.102466,0.111781 0.102466,0.195617 v 0.698629 c 0,0.102466 -0.06521,0.195617 -0.167672,0.223562 0.0093,0 -0.549588,0.409863 -0.549588,3.530408 0,3.921642 0.288767,7.815337 2.393971,9.818076 0.05589,0.05589 0.08384,0.130411 0.07452,0.204931 -0.0093,0.07452 -0.05589,0.139726 -0.121096,0.176986 -0.02794,0.0093 -0.176986,0.08384 -0.465753,0.08384 -0.381917,0 -1.015341,-0.121096 -1.937533,-0.661369 0.04658,0.214246 0.130411,0.493698 0.316713,0.819725 0.05589,0.102466 0.02794,0.232877 -0.07452,0.307397 -0.07452,0.0093 -0.121096,0.01863 -0.167671,0.01863"
       inkscape:connector-curvature="0" />
    <path
       id="path20"
       style="fill:#724524;stroke-width:0.93150622"
       d="m 28.81607,35.696545 1.285479,0.73589 c 0,0 -0.01863,0 -0.04658,0 -0.298082,0 -1.937532,0.195616 -1.937532,4.52712 v 5.197805 c 0,0 0.316712,-0.363288 0.521643,-0.447123 v 0.698629 c 0,0 -0.726575,0.204932 -0.726575,3.75397 0,3.549039 0.176986,7.815337 2.459177,9.985747 0,0 -0.111781,0.05589 -0.363288,0.05589 -0.381917,0 -1.099177,-0.139726 -2.216985,-0.875615 0,0 -0.0652,0.568218 0.381918,1.378629 0,0 -0.922191,-1.136438 -2.719998,-1.136438 -0.71726,0 -1.564931,0.176986 -2.543012,0.68 0,0 2.030683,-1.788492 2.030683,-5.197805 0,-3.409313 -1.015341,-4.4526 -1.015341,-4.4526 l 0.521643,-0.493698 c 0,0 0.652054,0.586849 0.745205,1.061917 v -7.386844 c 0,0 0.139726,-2.822464 -0.652054,-4.182463 -0.791781,-1.359999 -1.769862,-1.741917 -3.316162,-3.073971 -0.456438,-0.391232 -0.456438,-0.530958 -0.242192,-0.530958 0.512328,0 2.31945,0.801095 2.31945,0.801095 0,0 1.928218,1.378629 2.477807,1.583561 0,0 0.558904,-2.28219 0.04658,-2.692053 h 1.183013 c 0,0 -0.204931,1.602191 0.251507,2.692053 0,0 1.015342,-2.589587 1.555615,-2.682738 M 27.018263,35.230792 H 25.83525 c -0.195616,0 -0.372602,0.121096 -0.437808,0.316712 -0.06521,0.195616 -0.0093,0.391233 0.149041,0.521643 0.09315,0.149041 0.05589,0.856986 -0.08383,1.620821 -0.549589,-0.335342 -1.359999,-0.884931 -1.872328,-1.257533 -0.02794,-0.01863 -0.05589,-0.03726 -0.08383,-0.04657 -0.447123,-0.195617 -1.937533,-0.838356 -2.505752,-0.838356 -0.400548,0 -0.540274,0.270137 -0.568219,0.353972 -0.158356,0.419178 0.242192,0.763835 0.512329,0.996712 0.503013,0.437808 0.950136,0.77315 1.350684,1.071232 0.801095,0.605479 1.378629,1.043287 1.872327,1.881643 0.586849,1.015341 0.624109,3.176436 0.596164,3.921641 v 5.970955 c -0.08384,-0.06521 -0.176986,-0.09315 -0.279452,-0.09315 -0.11178,0 -0.232876,0.04657 -0.326027,0.130411 l -0.521643,0.493698 c -0.09315,0.08384 -0.139726,0.204932 -0.139726,0.326027 0,0.121096 0.04658,0.242192 0.130411,0.335343 0,0 0.88493,1.006026 0.88493,4.126572 0,3.139176 -1.853697,4.825202 -1.872327,4.843832 -0.176986,0.158356 -0.204931,0.419178 -0.07452,0.614794 0.09315,0.130411 0.232876,0.204932 0.381917,0.204932 0.07452,0 0.139726,-0.01863 0.214246,-0.04658 0.819726,-0.419178 1.602191,-0.633425 2.338081,-0.633425 1.555615,0 2.347396,0.950137 2.356711,0.959452 0.09315,0.11178 0.223561,0.167671 0.363287,0.167671 0.09315,0 0.176986,-0.02795 0.260822,-0.08384 0.195616,-0.139726 0.260822,-0.400547 0.149041,-0.614794 -0.04658,-0.08384 -0.08384,-0.158356 -0.121096,-0.232876 0.69863,0.335342 1.210958,0.419177 1.536985,0.419177 0.326028,0 0.512329,-0.07452 0.577534,-0.11178 0.130411,-0.06521 0.223562,-0.195617 0.251507,-0.344658 0.02794,-0.149041 -0.02794,-0.298082 -0.139726,-0.400547 -2.039999,-1.937533 -2.31945,-5.775339 -2.31945,-9.64109 0,-2.636162 0.409862,-3.260271 0.484383,-3.344107 0.149041,-0.08384 0.242191,-0.232876 0.242191,-0.409863 v -0.707944 c 0,-0.158356 -0.08384,-0.307397 -0.214246,-0.391233 -0.07452,-0.04657 -0.167671,-0.07452 -0.251507,-0.07452 -0.01863,0 -0.03726,0 -0.05589,0 V 40.95024 c 0,-2.142464 0.409863,-3.148491 0.763835,-3.604929 0.326027,-0.437808 0.652054,-0.456438 0.707945,-0.456438 0.02794,0.0093 0.05589,0.0093 0.08383,0.0093 0.186301,0 0.353973,-0.121096 0.419178,-0.307397 0.07452,-0.214247 -0.02794,-0.456438 -0.223561,-0.568219 l -1.285479,-0.73589 c -0.07452,-0.03726 -0.149041,-0.0652 -0.232877,-0.0652 -0.02794,0 -0.04658,0 -0.07452,0.0093 -0.158356,0.02795 -0.577534,0.09315 -1.304109,1.574245 -0.01863,-0.419177 0.0093,-0.801095 0.02794,-1.015341 0.0093,-0.02795 0.0093,-0.06521 0.0093,-0.102466 -0.02794,-0.251507 -0.242191,-0.456438 -0.493698,-0.456438 z"
       inkscape:connector-curvature="0" />
    <path
       id="path22"
       style="fill:#99561f;stroke-width:0.93150622"
       d="m 21.23361,36.534901 c 1.536985,1.332053 2.524381,1.713971 3.316162,3.07397 0.79178,1.350684 0.652054,4.182463 0.652054,4.182463 v 2.99945 c 0.176986,0.400548 0.391233,0.763835 0.624109,0.912876 0.64274,0.409863 0.829041,2.170409 0.707945,3.79123 -0.121096,1.630136 0.782465,1.946848 0.782465,1.946848 0,0 0.316712,-0.353972 0.633424,-0.968766 -0.03726,-0.782465 -0.04658,-1.555616 -0.04658,-2.300821 0,-3.549038 0.726575,-3.75397 0.726575,-3.75397 v -0.717259 c -0.204931,0.09315 -0.521644,0.447123 -0.521644,0.447123 V 40.95024 c 0,-4.769312 1.984109,-4.52712 1.984109,-4.52712 L 28.806755,35.68723 C 28.266482,35.780381 27.25114,38.379283 27.25114,38.379283 26.804017,37.298736 26.999633,35.68723 26.999633,35.68723 H 25.81662 c 0.512329,0.409863 -0.04658,2.692053 -0.04658,2.692053 -0.549589,-0.204932 -2.477807,-1.583561 -2.477807,-1.583561 0,0 -3.595614,-1.60219 -2.058628,-0.260821"
       inkscape:connector-curvature="0" />
    <g
       transform="translate(16.589933,29.283938)"
       id="g1057">
      <g
         id="g1041"
         transform="translate(-49.008793,-26.989947)">
        <path
           id="path8"
           style="fill:#569d03;fill-opacity:1;stroke:#2aaa00;stroke-width:0.23287655;stroke-miterlimit:10"
           d="m 85.23708,23.707928 c -0.79178,-0.894246 -1.797807,-1.350684 -2.543012,-1.238903 1.080547,-1.015342 1.322739,-2.608217 0.493699,-3.75397 -0.558904,-0.77315 -1.47178,-1.155068 -2.412602,-1.099177 0.204932,-0.73589 0.121096,-1.50904 -0.316712,-2.123834 -0.838355,-1.164383 -2.617532,-1.313424 -3.958901,-0.344658 -0.05589,0.03726 -0.09315,0.08384 -0.139726,0.121096 -0.04658,-0.270137 -0.149041,-0.540274 -0.326027,-0.77315 -0.66137,-0.922191 -2.039999,-1.052602 -3.083286,-0.307397 -0.596164,0.428493 -0.940821,1.061917 -1.006026,1.695341 -0.540274,-0.503013 -1.304109,-0.819725 -2.161095,-0.819725 -1.620821,0 -2.943559,1.117807 -2.943559,2.496436 0,0.64274 0.298082,1.220273 0.763835,1.667396 l -0.01863,0.01863 c -0.679999,-0.875616 -2.021368,-0.996712 -3.03671,-0.260822 -1.033972,0.745205 -1.341369,2.105204 -0.679999,3.01808 0.456438,0.633424 1.248218,0.884931 2.039998,0.745205 l 0.242192,3.148491 7.004927,2.254245 h 6.278351 l 0.652055,-0.344657 c 0.08383,0.158356 0.176986,0.307397 0.298082,0.437808 0.77315,0.8663 2.077259,0.968766 2.915614,0.223561 0.447123,-0.400548 0.670685,-0.959451 0.66137,-1.52767 0.726575,0.353972 1.443834,0.381917 1.881642,-0.0093 0.69863,-0.605479 0.428493,-2.058629 -0.605479,-3.223012 z"
           inkscape:connector-curvature="0" />
        <path
           id="path10"
           style="fill:#407503;fill-opacity:1;stroke:#2aaa00;stroke-width:0.23287655;stroke-miterlimit:10"
           d="m 83.644205,32.818059 c -0.549589,-0.465753 -1.164383,-0.75452 -1.732602,-0.847671 0.605479,-0.735889 0.884931,-1.695341 0.642739,-2.645477 -0.409862,-1.648766 -2.161094,-2.636163 -3.921641,-2.198355 -1.50904,0.372603 -2.515067,1.676711 -2.515067,3.073971 l -8.346295,0.186301 -2.766574,2.021368 c -0.242191,-0.04657 -0.493698,-0.07452 -0.75452,-0.07452 -1.769862,0 -3.204381,1.071232 -3.204381,2.384656 0,0.782465 0.512328,1.47178 1.304109,1.909587 -0.484384,0.69863 -0.64274,1.499725 -0.335343,2.18904 0.549589,1.201643 2.291506,1.574246 3.912326,0.838356 0.232877,-0.102466 0.447123,-0.232877 0.652055,-0.372603 -0.0093,0.605479 0.176986,1.164383 0.596164,1.5463 0.959451,0.903561 2.719998,0.577534 3.930956,-0.717259 0.186301,-0.204932 0.344657,-0.419178 0.484383,-0.64274 0.782465,0.66137 2.021369,0.940822 3.297532,0.62411 1.033972,-0.260822 1.853698,-0.847671 2.338081,-1.555616 0.745205,0.586849 1.853697,0.829041 2.98082,0.549589 1.481095,-0.372603 2.505751,-1.50904 2.580272,-2.719998 0.73589,0.195616 1.425204,0.08384 1.807122,-0.363288 0.652054,-0.763835 0.223561,-2.189039 -0.950136,-3.185751 z"
           inkscape:connector-curvature="0" />
        <path
           id="path12"
           style="fill:#6bc305;fill-opacity:1;stroke:#2aaa00;stroke-width:0.23287655;stroke-miterlimit:10"
           d="m 81.40859,29.529842 c 0.149041,-1.257533 -0.456438,-2.356711 -1.350684,-2.459176 -0.186302,-0.01863 -0.363288,0.0093 -0.540274,0.07452 0.176986,-0.260821 0.279452,-0.558903 0.279452,-0.866301 0,-1.117807 -1.248218,-2.021368 -2.775889,-2.021368 -0.75452,0 -1.443834,0.223561 -1.937533,0.577534 0.0093,-0.353973 -0.07452,-0.689315 -0.288766,-0.959452 -0.633425,-0.782465 -2.049314,-0.689314 -3.167122,0.214247 -0.558903,0.447123 -0.931506,1.015342 -1.089862,1.56493 -0.353972,-0.335342 -0.819725,-0.605479 -1.378629,-0.763835 -1.378629,-0.391232 -2.729313,0.06521 -2.99945,1.033972 -0.270137,0.968767 0.614794,2.077259 2.002738,2.468492 0.06521,0.01863 0.139726,0.02794 0.204932,0.04657 l -0.521644,0.912876 1.238903,1.248218 c -0.167671,0.614794 -0.08383,1.39726 0.288767,2.142465 0.530959,1.061917 1.47178,1.686026 2.291506,1.630135 -0.06521,0.875616 0.372602,1.695342 1.155067,2.002739 0.987397,0.391232 2.142465,-0.186301 2.570958,-1.285479 0.02795,-0.07452 0.04658,-0.158356 0.06521,-0.232876 0.232877,0.186301 0.512328,0.353972 0.819725,0.493698 1.192328,0.540274 2.393971,0.447123 2.701368,-0.214246 0.149041,-0.316713 0.04658,-0.707945 -0.214246,-1.080548 1.108492,0.456438 2.20767,0.335343 2.505752,-0.298082 0.298082,-0.652054 -0.363288,-1.592875 -1.481095,-2.123834 0.782465,-0.102466 1.49041,-0.968766 1.620821,-2.105204 z"
           inkscape:connector-curvature="0" />
      </g>
      <g
         id="g1036">
        <g
           transform="translate(-51.371526,0.74435488)"
           id="g1019">
          <path
             inkscape:connector-curvature="0"
             d="m 73.02759,-17.499355 c -0.71726,-0.139726 -1.406574,-0.11178 -1.993423,0.03726 0.866301,-1.564931 0.204931,-3.781916 -1.620821,-5.123285 -1.425204,-1.043287 -3.148491,-1.248218 -4.433969,-0.670684 0.05589,-0.81041 -0.195617,-1.713972 -0.782466,-2.496437 -1.108492,-1.47178 -2.952874,-1.946848 -4.117257,-1.071232 -0.847671,0.633424 -1.089862,1.807122 -0.745205,2.971505 -0.298082,-0.195616 -0.624109,-0.307397 -0.968767,-0.307397 -1.322738,0 -2.39397,1.602191 -2.39397,3.567669 0,1.453149 0.586848,2.692053 1.415889,3.250956 l -0.475068,1.033972 -1.39726,-0.316712 c 0.279452,-0.419178 0.456439,-0.894246 0.456439,-1.415889 0,-1.536986 -1.425205,-2.775889 -3.185752,-2.775889 -1.760546,0 -3.185751,1.248219 -3.185751,2.775889 0,1.52767 1.425205,2.775888 3.185751,2.775888 0.726575,0 1.39726,-0.223561 1.928218,-0.586849 l 0.475068,0.586849 1.536986,0.503014 c -0.940822,0.819725 -1.43452,1.62082 -1.183013,2.151779 0.437808,0.922191 2.887669,0.679999 5.477256,-0.549589 1.266849,-0.596164 2.328766,-1.313424 3.027395,-2.002738 -0.139726,0.372602 -0.158356,0.73589 -0.0093,1.052602 0.437808,0.922191 2.049314,1.071232 3.595614,0.344657 0.782465,-0.372602 1.39726,-0.894246 1.760547,-1.434519 0.316712,0.884931 1.387944,1.676711 2.785204,1.946848 1.807122,0.344657 3.455888,-0.316713 3.679449,-1.49041 0.251507,-1.173698 -1.024657,-2.403286 -2.831779,-2.757259 z"
             style="fill:#6bc305;fill-opacity:1;stroke:#2aaa00;stroke-width:0.23287655;stroke-miterlimit:10"
             id="path24" />
          <path
             inkscape:connector-curvature="0"
             d="M 56.567876,7.3066557 C 56.195273,6.5148754 55.599109,5.9652867 55.040205,5.8162457 L 54.518562,2.6304945 45.073089,3.1707681 41.132818,4.651863 C 40.583229,4.055699 39.772819,3.6644664 38.841312,3.6644664 c -1.648766,0 -2.98082,1.2109581 -2.98082,2.701368 0,1.4904099 1.332054,2.701368 2.98082,2.701368 0.0093,0 0.0093,0 0.0093,0 -0.288767,0.5682188 -0.344657,1.1830126 -0.102465,1.7139716 0.512328,1.117807 2.142464,1.47178 3.642189,0.782465 0.652054,1.024657 2.20767,1.676711 3.977532,1.52767 1.462464,-0.121096 2.692052,-0.763835 3.344107,-1.611506 0.614794,0.475069 1.713971,0.60548 2.850409,0.270137 1.350684,-0.400547 2.30082,-1.332054 2.31945,-2.1983544 0.475068,0.4191778 1.006027,0.5868494 1.41589,0.3912326 0.698629,-0.3260271 0.81041,-1.50904 0.270137,-2.6361625 z"
             style="fill:#407503;fill-opacity:1;stroke:#2aaa00;stroke-width:0.23287655;stroke-miterlimit:10"
             id="path26" />
          <path
             inkscape:connector-curvature="0"
             d="m 55.971712,1.1307695 -3.66082,-5.5983523 -4.881092,1.0898622 c -0.121096,-0.6706844 -0.465754,-1.2202731 -1.024657,-1.4531497 -1.033972,-0.4378079 -2.347396,0.3632875 -2.94356,1.7791769 -0.270137,0.6427393 -0.335342,1.3041087 -0.242191,1.8723275 -0.493699,-0.6520544 -1.350684,-1.0898623 -2.310136,-1.0898623 -1.536985,0 -2.775888,1.0898623 -2.775888,2.44054629 0,0.30739705 0.07452,0.60547904 0.195616,0.87561581 -0.158356,-0.03726 -0.316712,-0.0745205 -0.475068,-0.0931506 -1.52767,-0.16767112 -2.859724,0.5868489 -2.990135,1.7046564 -0.09315,0.8383556 0.530958,1.6394509 1.499725,2.0493136 0.05589,0.3167121 0.186301,0.596164 0.409863,0.8197255 0.652054,0.6520543 1.788491,0.596164 2.785203,-0.046575 -0.158356,1.0991773 0.223562,2.095889 1.033972,2.4405463 0.856986,0.3632874 1.918903,-0.139726 2.589587,-1.1364376 -0.04657,1.0619171 0.353973,1.946848 1.071232,2.1517793 0.829041,0.2421916 1.788492,-0.5030133 2.300821,-1.7046563 0.214246,0.4843832 0.549588,0.8197254 0.959451,0.8756158 0.689315,0.1024657 1.378629,-0.5682188 1.760547,-1.5928756 0.251507,0.8476706 0.838355,1.4810949 1.602191,1.5928756 1.164382,0.1769862 2.30082,-0.9221911 2.524381,-2.4405463 0.102466,-0.6799995 -0.0093,-1.3227388 -0.251506,-1.8443823 z"
             style="fill:#6bc305;fill-opacity:1;stroke:#2aaa00;stroke-width:0.23287655;stroke-miterlimit:10"
             id="path28" />
        </g>
        <g
           id="g1025">
          <path
             id="path32"
             style="fill:#407503;fill-opacity:1;stroke:#009949;stroke-width:0.23287655;stroke-miterlimit:10"
             d="m 9.6572148,-9.4354619 c 0.8849312,-0.4098627 1.4904102,-1.2295881 1.4904102,-2.1797241 0,-1.359999 -1.2202734,-2.459177 -2.7293134,-2.459177 -1.5090401,0 -2.7293132,1.099178 -2.7293132,2.459177 0,0.11178 0.01863,0.223561 0.03726,0.335342 L -5.31209,-8.0475176 c -0.3726025,-1.1364376 -1.3786292,-1.9654784 -2.561642,-1.9654784 -1.5090401,0 -2.729313,1.313424 -2.729313,2.9342448 0,1.1364376 0.6054788,2.1052041 1.4904097,2.5989024 -0.3353422,0.3353422 -0.5495887,0.7452049 -0.5495887,1.1923279 0,1.1178075 1.2482184,2.0213685 2.7758885,2.0213685 0.6986297,0 1.3227389,-0.1956163 1.8071221,-0.5030134 0.1397259,1.0153418 1.2389032,1.80712208 2.5895872,1.80712208 1.4438347,0 2.6175325,-0.90356103 2.6175325,-2.02136848 0,-0.065205 -0.0186301,-0.1304109 -0.02794519,-0.1956163 L 5.2791356,-2.8869732 6.9465318,-4.9362869 c 0.5216434,0.1863013 1.1084923,0.3073971 1.7512316,0.3073971 2.0306836,0 3.6794496,-1.0991774 3.6794496,-2.4591764 -0.0093,-1.1178075 -1.164383,-2.0586288 -2.7199982,-2.3473957 z"
             inkscape:connector-curvature="0" />
          <path
             id="path34"
             style="fill:#569d03;fill-opacity:1;stroke:#2aaa00;stroke-width:0.23287655;stroke-miterlimit:10"
             d="m 9.9739269,-13.496829 c -0.4378079,-0.69863 -1.201643,-1.024657 -1.807122,-0.81041 0.05589,-0.121096 0.1024657,-0.242192 0.1304109,-0.372603 0.2328765,-1.099177 -0.6427393,-2.216985 -1.9561631,-2.496436 -0.9967116,-0.214247 -1.956163,0.11178 -2.4684914,0.75452 -0.3632875,-0.912877 -1.2109581,-1.546301 -2.1983547,-1.546301 -1.28547856,0 -2.32876552,1.089863 -2.38465589,2.449862 -0.50301331,-0.670685 -1.34136891,-1.108493 -2.29150531,-1.108493 -1.5369852,0 -2.7758885,1.145753 -2.7758885,2.552327 0,0.400548 0.1024657,0.763835 0.2794519,1.099178 -0.093151,-0.02795 -0.1863013,-0.06521 -0.2794519,-0.08384 -1.499725,-0.316712 -2.9156144,0.307397 -3.148491,1.406574 -0.149041,0.69863 0.2049314,1.406575 0.8663008,1.9189031 -1.2202731,-0.1024656 -2.3008207,0.5216435 -2.5150667,1.5090401 -0.232877,1.0991773 0.6986296,2.2262998 2.0772588,2.5243818 0.7358899,0.1583561 1.4438346,0.03726 1.9841082,-0.2608217 0.1583561,0.8476706 0.9128761,1.6021907 1.9561631,1.8257522 1.2575333,0.2701368 2.4591764,-0.3353423 2.7665734,-1.350684 0.6799995,0.4843832 1.7698618,0.3819175 2.60821739,-0.298082 0.77315011,-0.6334243 1.09917731,-1.5556154 0.88493091,-2.3008204 0.4098627,0.4098628 0.9967116,0.745205 1.6860262,0.8849309 1.341369,0.2887669 2.5989024,-0.1863012 3.0273952,-1.0712321 0.1117808,0.158356 0.2515067,0.2608217 0.4191778,0.307397 0.6427393,0.1676712 1.4065744,-0.6334242 1.7046564,-1.7884919 0.149041,-0.577534 0.158356,-1.136438 0.046575,-1.574245 0.3819175,0.149041 0.7824652,0.139725 1.1084924,-0.05589 0.6427392,-0.372602 0.7638352,-1.332054 0.2794518,-2.114519 z"
             inkscape:connector-curvature="0" />
          <path
             id="path36"
             style="fill:#407503;fill-opacity:1;stroke:#009949;stroke-width:0.23287655;stroke-miterlimit:10"
             d="M 21.925152,1.6122018 C 21.096111,0.6713805 19.838578,0.41987382 19.112003,1.0626131 c -0.04658,0.046575 -0.08384,0.093151 -0.130411,0.1397259 L 18.459949,0.70864075 15.143786,-0.66067338 6.8533811,-0.42779683 3.5465341,0.41987382 C 3.0342057,-0.23218052 2.2610555,-0.65135832 1.3761246,-0.65135832 c -1.53698523,0 -2.7758885,1.25753338 -2.7758885,2.80383372 0,1.0339719 0.5682188,1.9282178 1.39725933,2.4219161 -0.59616398,0.6799996 -0.86630078,1.4531497 -0.6147941,2.1238342 0.45643804,1.2295882 2.43123117,1.6301358 4.40602437,0.903561 0.2142464,-0.083836 0.4191778,-0.1769862 0.6147941,-0.2701368 -0.05589,0.5030134 0.05589,0.9687665 0.3446573,1.3320539 0.75452,0.9315062 2.4405463,0.8197254 3.7632851,-0.2515067 0.298082,-0.2421916 0.5495887,-0.5123284 0.75452,-0.8010953 0.6893146,0.4191778 1.6021908,0.6334242 2.5709568,0.5402736 1.210958,-0.1210958 2.235615,-0.6986297 2.803834,-1.4810949 0.68,0.3912326 1.5463,0.5868489 2.477807,0.4936983 1.676711,-0.1676711 2.971504,-1.2109581 3.241641,-2.4498613 0.633424,0.2421916 1.285479,0.1863012 1.732602,-0.2049314 0.745205,-0.6799995 0.661369,-1.9561631 -0.167671,-2.8969843 z"
             inkscape:connector-curvature="0" />
          <path
             id="path38"
             style="fill:#569d03;fill-opacity:1;stroke:#2aaa00;stroke-width:0.23287655;stroke-miterlimit:10"
             d="m 19.195838,-0.23218052 c 0.08384,-0.0465753 0.167672,-0.0931506 0.242192,-0.15835606 1.024657,-0.84767062 1.061917,-2.47780652 0.102466,-3.65150432 -0.68,-0.8290406 -1.686027,-1.1830129 -2.580272,-1.0339719 0.242191,-0.6427393 0.223561,-1.350684 -0.130411,-1.9375329 -0.66137,-1.0805472 -2.198355,-1.341369 -3.427943,-0.5868489 -0.251507,0.158356 -0.465753,0.3539723 -0.652055,0.5589037 0.01863,-0.3167121 -0.03726,-0.6147941 -0.204931,-0.8756159 -0.540274,-0.8756158 -1.928218,-1.0153417 -3.0926005,-0.2980819 -0.6893146,0.4284928 -1.1457527,1.052602 -1.2854786,1.6767111 -0.00932,-0.00931 -0.00932,-0.01863 -0.01863,-0.027945 -0.7079448,-0.9873965 -2.3008204,-1.061917 -3.5676688,-0.158356 -1.0619171,0.75452 -1.5369853,1.956163 -1.2482183,2.9062994 -1.201643,-0.4936983 -2.49643668,-0.2142465 -3.01808016,0.7265748 -0.42849286,0.7731502 -0.21424643,1.7605467 0.45643804,2.51506678 -1.17369782,0.27945186 -2.01205338,1.1550677 -1.97479318,2.16109442 0.046575,1.1830129 1.29479365,2.0865739 2.7758885,2.0306835 0.139726,-0.00931 0.2794519,-0.027945 0.4191778,-0.05589 C 1.8232476,4.043433 1.8232476,4.5278162 2.0561242,4.9097338 2.5963978,5.7853496 4.0961228,5.850555 5.4095465,5.0401446 5.7448887,4.8352133 6.0336557,4.5930216 6.2665322,4.3321999 6.229272,4.797953 6.3410527,5.245076 6.6205046,5.5990484 7.3470794,6.5119244 8.9120099,6.4653491 10.113653,5.5058977 10.244064,5.403432 10.355844,5.2916513 10.45831,5.1798706 c 0.204932,0.1304108 0.419178,0.2328765 0.670685,0.2887669 1.322738,0.298082 2.673422,-0.6706845 3.008765,-2.1797246 0.06521,-0.2887669 0.07452,-0.5682187 0.06521,-0.8383555 0.07452,0.1210958 0.149041,0.2328765 0.242192,0.3446573 0.875616,1.052602 2.2263,1.3786291 3.01808,0.7172597 0.493698,-0.4098627 0.661369,-1.1084924 0.493698,-1.8257521 0.102466,0.046575 0.204932,0.07452 0.316712,0.1117807 0.903561,0.2421916 1.760547,-0.03726 1.918903,-0.6334242 0.158356,-0.51232843 -0.279452,-1.08986228 -0.996712,-1.39725932 z"
             inkscape:connector-curvature="0" />
        </g>
      </g>
    </g>
  </g>
  <g
     id="g1080">
    <path
       style="stroke-width:0.31218392"
       id="path2-3"
       d="m 48.637787,43.58933 c -0.01248,0.02186 -0.02498,0.04371 -0.03745,0.06556 0.04682,0.05619 0.09054,0.11239 0.140484,0.165458 0.162334,0.168578 0.334037,0.330916 0.493249,0.502617 1.298685,1.379852 2.194653,3.00633 2.865849,4.757682 1.020841,2.662928 1.504726,5.441365 1.717011,8.269751 0.09054,1.205031 0.0999,2.419425 0.146725,3.627578 0,0.03746 0.01248,0.07492 0.01561,0.10927 0.84602,0 1.682671,0 2.525568,0 0,-0.05932 0,-0.103019 0,-0.14985 -0.01249,-1.557795 -0.10927,-3.106227 -0.337157,-4.648417 -0.246625,-1.667062 -0.630611,-3.296662 -1.214395,-4.879434 -0.783582,-2.125972 -1.866859,-4.074 -3.424659,-5.734818 -0.668077,-0.711778 -1.40171,-1.34239 -2.257092,-1.813789 -0.199799,-0.10927 -0.421449,-0.181065 -0.633735,-0.2716 m 9.359275,17.501034 c 0.889724,0 1.745108,0 2.6161,0 0,-0.0999 0,-0.18731 0,-0.271601 0.02186,-1.389218 0.137362,-2.772193 0.408961,-4.136437 0.343403,-1.726376 0.886603,-3.38095 1.751353,-4.916895 0.334036,-0.59315 0.718021,-1.158204 1.073914,-1.741986 0.05619,-0.09677 0.07805,-0.215409 0.115509,-0.321551 -0.118629,0.02186 -0.246626,0.02186 -0.352768,0.0718 -0.546324,0.262236 -0.998988,0.652466 -1.423558,1.070792 -1.573408,1.542188 -2.687904,3.371587 -3.39656,5.453852 -0.374622,1.10201 -0.60876,2.232115 -0.71178,3.390318 -0.04682,0.45891 -0.05619,0.924064 -0.08117,1.401706 m -4.873191,0.0061 c -0.01873,-0.374622 -0.03122,-0.72739 -0.05619,-1.083279 -0.07805,-1.161324 -0.324672,-2.291429 -0.708657,-3.387196 -0.708659,-2.016706 -1.845008,-3.758694 -3.362221,-5.257177 -0.568174,-0.561931 -1.180056,-1.073913 -1.879348,-1.470385 -0.190431,-0.10927 -0.383987,-0.22165 -0.639977,-0.193554 0.362133,0.583785 0.852262,1.070789 1.214395,1.64521 0.365256,0.580662 0.742997,1.1582 1.055182,1.770081 0.309064,0.611881 0.57754,1.248735 0.802313,1.898079 0.224773,0.646221 0.405839,1.314294 0.546323,1.985489 0.143603,0.671196 0.240382,1.354878 0.312183,2.038562 0.0718,0.68056 0.08741,1.367365 0.127995,2.05417 0.858506,0 1.704525,0 2.588006,0 m 4.148924,-5.915884 c 0.0093,-0.0437 0.01873,-0.0999 0.0281,-0.152971 0.187309,-1.186299 0.449542,-2.350745 0.849138,-3.487094 0.668073,-1.898078 1.632723,-3.599479 3.19052,-4.920019 0.03122,-0.02498 0.04682,-0.06556 0.0718,-0.0999 -0.0093,-0.01561 -0.01874,-0.03122 -0.0281,-0.04683 -0.174824,0.04995 -0.352767,0.08117 -0.518225,0.146728 -0.899091,0.349646 -1.617113,0.95216 -2.250846,1.657694 -0.76173,0.849142 -1.308053,1.835644 -1.791936,2.862728 -0.240382,0.511983 -0.380865,1.008354 -0.106151,1.548432 0.0061,0.0095 0.0032,0.02186 0.0061,0.03433 0.184189,0.821043 0.368377,1.638967 0.549443,2.456888"
       inkscape:connector-curvature="0" />
    <path
       id="path4-7"
       style="fill:#6bc305;stroke:#2aaa00;stroke-width:0.07804598;stroke-miterlimit:10;fill-opacity:1"
       d="m 48.622581,43.575888 c 0.212285,0.09053 0.433936,0.162336 0.633734,0.274722 0.858505,0.47452 1.592138,1.105131 2.257089,1.813789 1.557798,1.660818 2.641076,3.611967 3.424658,5.734818 0.583784,1.582772 0.96777,3.212373 1.214395,4.879435 0.227894,1.542188 0.324671,3.09062 0.337159,4.648418 0,0.04371 0,0.09053 0,0.149848 -0.846019,0 -1.67955,0 -2.525568,0 -0.0062,-0.03122 -0.01561,-0.06868 -0.01561,-0.109264 -0.04683,-1.211274 -0.05619,-2.422547 -0.146727,-3.627577 -0.212285,-2.828386 -0.69617,-5.609945 -1.717011,-8.269752 -0.674317,-1.754473 -1.567163,-3.380952 -2.865848,-4.757683 -0.162336,-0.171701 -0.330915,-0.334036 -0.493251,-0.502616 -0.04995,-0.05307 -0.09366,-0.109264 -0.140483,-0.165457 0.0094,-0.02497 0.02185,-0.04683 0.03746,-0.06868 z"
       inkscape:connector-curvature="0" />
    <path
       id="path6"
       style="fill:#569c04;stroke:#2aaa00;stroke-width:0.07804598;stroke-miterlimit:10;fill-opacity:1"
       d="m 57.981855,61.076918 c 0.02497,-0.477641 0.03434,-0.942795 0.07492,-1.401705 0.106143,-1.158203 0.337159,-2.288309 0.711779,-3.390318 0.708658,-2.082266 1.823154,-3.911664 3.396561,-5.453853 0.427692,-0.418326 0.877237,-0.811678 1.423559,-1.07079 0.106142,-0.04995 0.234138,-0.04995 0.352768,-0.0718 -0.03746,0.109265 -0.05619,0.227894 -0.115508,0.32155 -0.352768,0.583784 -0.739876,1.148836 -1.073913,1.741986 -0.864749,1.539067 -1.407949,3.193641 -1.751352,4.916896 -0.2716,1.364244 -0.387108,2.747219 -0.408961,4.136437 0,0.08429 0,0.171701 0,0.2716 -0.861627,0 -1.720133,0 -2.609857,0 z"
       inkscape:connector-curvature="0" />
    <path
       id="path8-5"
       style="fill:#4b8903;stroke:#2aaa00;stroke-width:0.07804598;stroke-miterlimit:10;fill-opacity:1"
       d="m 53.108664,61.083162 c -0.880359,0 -1.729499,0 -2.584883,0 -0.04058,-0.686805 -0.05619,-1.373609 -0.127995,-2.05417 -0.0718,-0.683683 -0.168579,-1.367366 -0.312184,-2.038561 -0.143605,-0.671196 -0.321549,-1.339269 -0.546322,-1.98549 -0.224772,-0.64622 -0.490129,-1.286197 -0.802312,-1.898078 -0.309063,-0.61188 -0.686805,-1.189421 -1.055182,-1.770083 -0.362133,-0.57754 -0.852262,-1.061425 -1.214396,-1.645209 0.255991,-0.0281 0.449545,0.08429 0.639977,0.193554 0.699292,0.396474 1.311173,0.908455 1.879348,1.470386 1.517213,1.498483 2.653563,3.243591 3.36222,5.257177 0.387108,1.098888 0.630612,2.225872 0.708658,3.387196 0.01873,0.355889 0.03122,0.711779 0.05307,1.083278 z"
       inkscape:connector-curvature="0" />
    <path
       inkscape:connector-curvature="0"
       d="m 57.257588,55.167277 c -0.184188,-0.817922 -0.365255,-1.635844 -0.549443,-2.456888 -0.0031,-0.01249 -0.0031,-0.02497 -0.0062,-0.03434 -0.274722,-0.536956 -0.131117,-1.03645 0.106142,-1.548432 0.483885,-1.027085 1.030207,-2.010464 1.791936,-2.862726 0.633733,-0.708658 1.351756,-1.311173 2.250846,-1.657697 0.165458,-0.06556 0.346524,-0.0999 0.518225,-0.146726 0.0094,0.01561 0.01873,0.03122 0.0281,0.04683 -0.02497,0.03434 -0.04058,0.07492 -0.0718,0.0999 -1.557798,1.320538 -2.522446,3.02194 -3.19052,4.920018 -0.399595,1.133228 -0.66183,2.300796 -0.84914,3.487095 -0.0094,0.05619 -0.01873,0.109264 -0.0281,0.15297 z"
       style="fill:#407503;stroke:#009949;stroke-width:0.07804598;stroke-miterlimit:10;fill-opacity:1"
       id="path12-3" />
  </g>
  <g
     id="g1087">
    <path
       style="stroke-width:0.20482387"
       id="path2-3-5"
       d="m 35.734327,49.385785 c -0.0082,0.01434 -0.0164,0.02869 -0.02458,0.04302 0.03072,0.03686 0.05942,0.07374 0.09216,0.108558 0.106507,0.110609 0.219161,0.217114 0.323621,0.329767 0.852067,0.905321 1.439913,1.972453 1.880284,3.121516 0.669774,1.747147 0.98725,3.570079 1.12653,5.425782 0.05941,0.790621 0.06555,1.587386 0.09626,2.380055 0,0.02458 0.0082,0.04915 0.01032,0.07168 0.555074,0 1.104001,0 1.657025,0 0,-0.03892 0,-0.06759 0,-0.09831 -0.0084,-1.02207 -0.07169,-2.037996 -0.221208,-3.049826 -0.161811,-1.09376 -0.413744,-2.16294 -0.796765,-3.201398 -0.514107,-1.394849 -1.224846,-2.672951 -2.246919,-3.762614 -0.438326,-0.466996 -0.919661,-0.880741 -1.480877,-1.190026 -0.131089,-0.07169 -0.276512,-0.118801 -0.415794,-0.178196 m 6.14062,11.482426 c 0.583749,0 1.144965,0 1.716423,0 0,-0.06555 0,-0.122893 0,-0.178196 0.01434,-0.911465 0.09012,-1.818836 0.268319,-2.713916 0.225308,-1.132675 0.5817,-2.218242 1.149065,-3.225975 0.219159,-0.389166 0.471092,-0.759897 0.704594,-1.142917 0.03686,-0.0635 0.0512,-0.141329 0.07578,-0.210969 -0.07784,0.01434 -0.161812,0.01434 -0.231451,0.04711 -0.358443,0.172054 -0.655436,0.428083 -0.933996,0.702546 -1.032315,1.01183 -1.763536,2.212098 -2.228484,3.578272 -0.24579,0.723029 -0.399408,1.464492 -0.466999,2.224389 -0.03072,0.30109 -0.03686,0.606278 -0.05325,0.91966 m -3.197299,0.0039 c -0.01229,-0.24579 -0.02049,-0.477241 -0.03686,-0.710741 -0.05121,-0.761944 -0.213018,-1.503406 -0.464951,-2.222339 -0.464952,-1.323161 -1.21051,-2.466078 -2.205954,-3.449233 -0.372779,-0.368683 -0.774235,-0.704594 -1.233042,-0.964719 -0.124939,-0.07169 -0.251933,-0.145425 -0.419887,-0.126991 0.237596,0.383021 0.55917,0.702545 0.796764,1.079421 0.239644,0.380973 0.487481,0.759896 0.692305,1.161351 0.202777,0.401455 0.378923,0.819296 0.526398,1.245329 0.147474,0.423986 0.266271,0.862308 0.358442,1.302679 0.09423,0.440372 0.157716,0.888936 0.204824,1.337501 0.04711,0.446515 0.05734,0.897129 0.08397,1.347742 0.563268,0 1.118338,0 1.69799,0 m 2.722111,-3.881413 c 0.006,-0.02868 0.01229,-0.06555 0.01843,-0.100365 0.122893,-0.778331 0.294945,-1.542323 0.557121,-2.287881 0.438321,-1.24533 1.071228,-2.361618 2.093298,-3.228025 0.02049,-0.0164 0.03072,-0.04302 0.0471,-0.06555 -0.0061,-0.01032 -0.01229,-0.02049 -0.01844,-0.03073 -0.114699,0.03278 -0.231451,0.05325 -0.340007,0.09626 -0.589895,0.229402 -1.060989,0.624713 -1.476782,1.087613 -0.499769,0.557123 -0.858211,1.204366 -1.175687,1.878235 -0.157716,0.335913 -0.249886,0.661583 -0.06965,1.015928 0.0041,0.0061 0.0021,0.01435 0.0041,0.02252 0.120852,0.538686 0.241691,1.075325 0.36049,1.611964"
       inkscape:connector-curvature="0" />
    <path
       id="path4-7-9"
       style="fill:#6bc305;stroke:#2aaa00;stroke-width:0.05120597;stroke-miterlimit:10;fill-opacity:1"
       d="m 35.71733,49.370792 c 0.13928,0.0594 0.284705,0.106508 0.415792,0.180245 0.563266,0.311332 1.044602,0.725076 1.480877,1.190026 1.022071,1.089663 1.73281,2.369812 2.246918,3.762615 0.38302,1.038457 0.634954,2.107637 0.796764,3.201397 0.149522,1.01183 0.213017,2.027756 0.22121,3.049827 0,0.02868 0,0.0594 0,0.09832 -0.555073,0 -1.101952,0 -1.657025,0 -0.0041,-0.02048 -0.01024,-0.04506 -0.01024,-0.07169 -0.03072,-0.794716 -0.03687,-1.589433 -0.09627,-2.380053 -0.139281,-1.855704 -0.456758,-3.680685 -1.126532,-5.425784 -0.442419,-1.151111 -1.028215,-2.218243 -1.880283,-3.121516 -0.106508,-0.112653 -0.217113,-0.219162 -0.323621,-0.329767 -0.03277,-0.03482 -0.06145,-0.07169 -0.09217,-0.108556 0.0061,-0.01639 0.01434,-0.03072 0.02458,-0.04506 z"
       inkscape:connector-curvature="0" />
    <path
       id="path6-1"
       style="fill:#569c04;stroke:#2aaa00;stroke-width:0.05120597;stroke-miterlimit:10;fill-opacity:1"
       d="m 41.857949,60.853218 c 0.01639,-0.313381 0.02253,-0.618568 0.04916,-0.919659 0.06964,-0.759897 0.22121,-1.501359 0.466998,-2.224388 0.464951,-1.366175 1.196172,-2.566443 2.228484,-3.578273 0.280609,-0.274464 0.575555,-0.532542 0.933997,-0.702546 0.06964,-0.03277 0.153618,-0.03277 0.231451,-0.04711 -0.02458,0.07169 -0.03687,0.149521 -0.07578,0.210968 -0.231451,0.383021 -0.485432,0.753752 -0.704594,1.142918 -0.567362,1.009781 -0.923756,2.095348 -1.149062,3.225976 -0.178197,0.89508 -0.253981,1.80245 -0.268319,2.713916 0,0.0553 0,0.112653 0,0.178197 -0.565314,0 -1.12858,0 -1.712328,0 z"
       inkscape:connector-curvature="0" />
    <path
       id="path8-5-2"
       style="fill:#4b8903;stroke:#2aaa00;stroke-width:0.05120597;stroke-miterlimit:10;fill-opacity:1"
       d="m 38.660649,60.857314 c -0.577604,0 -1.134725,0 -1.695942,0 -0.02663,-0.450612 -0.03687,-0.901225 -0.08398,-1.347741 -0.04711,-0.448564 -0.110605,-0.897128 -0.204824,-1.3375 -0.09422,-0.440371 -0.210968,-0.878694 -0.358441,-1.30268 -0.147474,-0.423985 -0.321574,-0.843874 -0.526398,-1.245329 -0.202775,-0.401455 -0.450612,-0.780379 -0.692304,-1.161351 -0.237596,-0.378924 -0.55917,-0.696401 -0.796765,-1.079422 0.167955,-0.01843 0.294946,0.0553 0.419889,0.126991 0.458805,0.260126 0.86026,0.596037 1.233039,0.96472 0.995444,0.983155 1.741003,2.12812 2.205953,3.449234 0.253982,0.72098 0.413745,1.460395 0.464951,2.222339 0.01229,0.2335 0.02048,0.466999 0.03482,0.710739 z"
       inkscape:connector-curvature="0" />
    <path
       inkscape:connector-curvature="0"
       d="m 41.382758,56.975902 c -0.120846,-0.536639 -0.239644,-1.073277 -0.36049,-1.611964 -0.002,-0.0082 -0.002,-0.01639 -0.0041,-0.02253 -0.180245,-0.352297 -0.08603,-0.680015 0.06964,-1.015926 0.317477,-0.673871 0.675918,-1.319066 1.175689,-1.878235 0.415792,-0.46495 0.886887,-0.86026 1.47678,-1.087615 0.108556,-0.04301 0.227354,-0.06554 0.340007,-0.09627 0.0061,0.01024 0.01229,0.02048 0.01843,0.03072 -0.01638,0.02253 -0.02663,0.04916 -0.04711,0.06554 -1.022071,0.866405 -1.654977,1.982695 -2.0933,3.228024 -0.262175,0.743511 -0.434227,1.509552 -0.557121,2.287883 -0.0061,0.03687 -0.01229,0.07169 -0.01843,0.100364 z"
       style="fill:#407503;stroke:#009949;stroke-width:0.05120597;stroke-miterlimit:10;fill-opacity:1"
       id="path12-3-7" />
  </g>
</svg>
