<?xml version="1.0" encoding="UTF-8" standalone="no"?>
<svg
   xmlns:dc="http://purl.org/dc/elements/1.1/"
   xmlns:cc="http://creativecommons.org/ns#"
   xmlns:rdf="http://www.w3.org/1999/02/22-rdf-syntax-ns#"
   xmlns:svg="http://www.w3.org/2000/svg"
   xmlns="http://www.w3.org/2000/svg"
   xmlns:sodipodi="http://sodipodi.sourceforge.net/DTD/sodipodi-0.dtd"
   xmlns:inkscape="http://www.inkscape.org/namespaces/inkscape"
   viewBox="0 0 64 64"
   style="enable-background:new 0 0 64 64"
   id="svg2"
   version="1.1"
   inkscape:version="0.91 r13725"
   sodipodi:docname="selfwater-on.svg">
  <metadata
     id="metadata20">
    <rdf:RDF>
      <cc:Work
         rdf:about="">
        <dc:format>image/svg+xml</dc:format>
        <dc:type
           rdf:resource="http://purl.org/dc/dcmitype/StillImage" />
        <dc:title></dc:title>
      </cc:Work>
    </rdf:RDF>
  </metadata>
  <defs
     id="defs18" />
  <sodipodi:namedview
     pagecolor="#ffffff"
     bordercolor="#666666"
     borderopacity="1"
     objecttolerance="10"
     gridtolerance="10"
     guidetolerance="10"
     inkscape:pageopacity="0"
     inkscape:pageshadow="2"
     inkscape:window-width="1920"
     inkscape:window-height="1015"
     id="namedview16"
     showgrid="false"
     inkscape:zoom="3.6875"
     inkscape:cx="32"
     inkscape:cy="32"
     inkscape:window-x="1920"
     inkscape:window-y="0"
     inkscape:window-maximized="1"
     inkscape:current-layer="svg2" />
  <path
     inkscape:connector-curvature="0"
     d="m 40.104,27.248 c 0,0 -0.144,0 -0.288,0 -0.288,0 -0.432,0 -0.576,-0.144 l -0.144,0 C 35.784,26.528 33.048,23.216 32.76,19.616 l 0,-1.152 c 0.144,-0.576 0.288,-1.296 0.432,-2.016 0.288,-0.432 0.576,-1.008 0.864,-1.584 l 1.008,-1.44 c 2.304,-2.736 4.176,-5.472 5.472,-8.352 1.44,3.456 3.744,6.48 5.616,8.784 0.144,0.288 0.432,0.72 0.864,1.152 0.288,0.576 0.72,1.296 1.152,1.872 0.144,0.432 0.288,1.152 0.432,1.728 l 0,0.864 c 0,0.144 0,0.288 0,0.432 0,0 0,0.144 0,0.144 l 0,0.144 0,0.144 c -0.432,3.168 -3.024,6.192 -6.192,6.768 l -0.144,0 c -0.144,0 -0.288,0.144 -0.576,0.144 -0.144,0 -0.288,0 -0.288,0 l -1.296,0"
     style="fill:#1e82ff"
     id="path4" />
  <path
     inkscape:connector-curvature="0"
     d="m 40.8,6.872 c 1.44,3.024 3.456,5.472 5.04,7.488 0.288,0.432 0.576,0.72 0.72,1.008 0.432,0.576 0.72,1.152 1.008,1.872 0.144,0.432 0.288,1.008 0.288,1.44 l 0,0.864 c 0,0.144 0,0.288 0,0.432 l 0,0.144 C 47.568,23 45.12,25.736 42.24,26.312 l -0.144,0 -0.144,0 c 0,0 -0.288,0 -0.432,0 -0.144,0 -0.144,0 -0.288,0 l -1.152,0 c -0.144,0 -0.144,0 -0.288,0 -0.144,0 -0.288,0 -0.432,0 l -0.144,0 -0.144,0 c -3.024,-0.576 -5.472,-3.6 -5.616,-6.768 l 0,-1.008 c 0.144,-0.576 0.288,-1.152 0.432,-1.728 0.288,-0.576 0.576,-1.008 0.864,-1.44 l 1.008,-1.44 C 37.776,11.624 39.504,9.32 40.8,6.872 M 40.944,3.56 C 39.36,7.016 37.2,10.184 34.752,13.208 l -1.152,1.44 c -0.288,0.576 -0.576,1.152 -0.864,1.728 -0.288,0.72 -0.432,1.44 -0.576,2.16 l 0,1.152 c 0.144,3.744 3.168,7.488 6.912,8.064 0.288,0.288 0.72,0.288 1.008,0.288 l 1.296,0 c 0.288,0 0.72,0 1.152,-0.144 3.456,-0.576 6.336,-3.888 6.768,-7.344 0.144,-0.144 0,-0.432 0.144,-0.72 l 0,-1.152 c -0.144,-0.72 -0.288,-1.296 -0.432,-2.016 -0.288,-0.72 -0.72,-1.44 -1.152,-2.16 -0.288,-0.288 -0.576,-0.72 -0.864,-1.152 -2.304,-2.736 -4.32,-5.76 -5.616,-9.072 L 40.944,3.56 Z"
     style="fill:#1271d8"
     id="path6" />
  <path
     inkscape:connector-curvature="0"
     d="m 18.504,43.448 c 0,0 -0.144,0 -0.288,0 -0.288,0 -0.432,0 -0.576,-0.144 l -0.144,0 C 14.184,42.728 11.448,39.416 11.16,35.816 l 0,-1.152 c 0.144,-0.576 0.288,-1.296 0.432,-2.016 0.288,-0.432 0.576,-1.008 0.864,-1.584 l 1.008,-1.44 c 2.304,-2.736 4.176,-5.472 5.472,-8.352 1.44,3.456 3.744,6.48 5.616,8.784 0.144,0.288 0.432,0.72 0.864,1.152 0.288,0.576 0.72,1.296 1.152,1.872 0.144,0.432 0.288,1.152 0.432,1.728 l 0,0.864 c 0,0.144 0,0.288 0,0.432 0,0 0,0.144 0,0.144 l 0,0.144 0,0.144 c -0.432,3.168 -3.024,6.192 -6.192,6.768 l -0.144,0 c -0.144,0 -0.288,0.144 -0.576,0.144 -0.144,0 -0.288,0 -0.288,0 l -1.296,0"
     style="fill:#1e82ff"
     id="path8" />
  <path
     inkscape:connector-curvature="0"
     d="m 19.188,23.084 c 1.44,3.024 3.456,5.472 5.04,7.488 0.288,0.432 0.576,0.72 0.72,1.008 0.432,0.576 0.72,1.152 1.008,1.872 0.144,0.432 0.288,1.008 0.288,1.44 l 0,0.864 c 0,0.144 0,0.288 0,0.432 l 0,0.144 c -0.288,2.88 -2.736,5.616 -5.616,6.192 l -0.144,0 -0.144,0 c 0,0 -0.288,0 -0.432,0 -0.144,0 -0.144,0 -0.288,0 l -1.152,0 c -0.144,0 -0.144,0 -0.288,0 -0.144,0 -0.288,0 -0.432,0 l -0.144,0 -0.144,0 c -3.024,-0.576 -5.472,-3.6 -5.616,-6.768 l 0,-0.864 c 0.144,-0.576 0.288,-1.152 0.432,-1.728 0.288,-0.576 0.576,-1.008 0.864,-1.44 l 1.008,-1.44 c 2.016,-2.448 3.744,-4.752 5.04,-7.2 m 0.144,-3.312 c -1.584,3.456 -3.744,6.624 -6.192,9.648 l -1.152,1.44 c -0.288,0.576 -0.576,1.152 -0.864,1.728 -0.288,0.72 -0.432,1.44 -0.576,2.16 l 0,1.152 c 0.144,3.744 3.168,7.488 6.912,8.064 0.288,0.144 0.72,0.144 1.152,0.144 l 1.296,0 c 0.288,0 0.72,0 1.152,-0.144 3.456,-0.576 6.336,-3.888 6.768,-7.344 0.144,-0.144 0,-0.432 0.144,-0.72 l 0,-1.008 c -0.144,-0.72 -0.288,-1.296 -0.432,-2.016 -0.288,-0.72 -0.72,-1.44 -1.152,-2.16 -0.288,-0.288 -0.576,-0.72 -0.864,-1.152 -2.304,-2.736 -4.32,-5.76 -5.616,-9.072 l -0.576,-0.72 z"
     style="fill:#1271d8"
     id="path10" />
  <path
     inkscape:connector-curvature="0"
     d="m 40.104,59.648 c 0,0 -0.144,0 -0.288,0 -0.288,0 -0.432,0 -0.576,-0.144 l -0.144,0 C 35.784,58.928 33.048,55.616 32.76,52.016 l 0,-1.152 c 0.144,-0.576 0.288,-1.296 0.432,-2.016 0.288,-0.432 0.576,-1.008 0.864,-1.584 l 1.008,-1.44 c 2.304,-2.736 4.176,-5.472 5.472,-8.352 1.44,3.456 3.744,6.48 5.616,8.784 0.144,0.288 0.432,0.72 0.864,1.152 0.288,0.576 0.72,1.296 1.152,1.872 0.144,0.432 0.288,1.152 0.432,1.728 l 0,0.864 c 0,0.144 0,0.288 0,0.432 0,0 0,0.144 0,0.144 l 0,0.144 0,0.144 c -0.432,3.168 -3.024,6.192 -6.192,6.768 l -0.144,0 c -0.144,0 -0.288,0.144 -0.576,0.144 -0.144,0 -0.288,0 -0.288,0 l -1.296,0"
     style="fill:#1e82ff"
     id="path12" />
  <path
     inkscape:connector-curvature="0"
     d="m 40.8,39.272 c 1.44,3.024 3.456,5.472 5.04,7.488 0.288,0.432 0.576,0.72 0.72,1.008 0.432,0.576 0.72,1.152 1.008,1.872 0.144,0.432 0.288,1.008 0.288,1.44 l 0,0.864 c 0,0.144 0,0.288 0,0.432 l 0,0.144 c -0.288,2.88 -2.736,5.616 -5.616,6.192 l -0.144,0 -0.144,0 c 0,0 -0.288,0 -0.432,0 -0.144,0 -0.144,0 -0.288,0 l -1.152,0 c -0.144,0 -0.144,0 -0.288,0 -0.144,0 -0.288,0 -0.432,0 l -0.144,0 -0.144,0 c -3.024,-0.576 -5.472,-3.6 -5.616,-6.768 l 0,-1.008 c 0.144,-0.576 0.288,-1.152 0.432,-1.728 0.288,-0.576 0.576,-1.008 0.864,-1.44 l 1.008,-1.44 c 2.016,-2.304 3.744,-4.608 5.04,-7.056 m 0.144,-3.312 c -1.584,3.456 -3.744,6.624 -6.192,9.648 l -1.152,1.44 c -0.288,0.576 -0.576,1.152 -0.864,1.728 -0.288,0.72 -0.432,1.44 -0.576,2.16 l 0,1.152 c 0.144,3.744 3.168,7.488 6.912,8.064 0.288,0.288 0.72,0.288 1.008,0.288 l 1.296,0 c 0.288,0 0.72,0 1.152,-0.144 3.456,-0.576 6.336,-3.888 6.768,-7.344 0.144,-0.144 0,-0.432 0.144,-0.72 l 0,-1.152 c -0.144,-0.72 -0.288,-1.296 -0.432,-2.016 -0.288,-0.72 -0.72,-1.44 -1.152,-2.16 -0.288,-0.288 -0.576,-0.72 -0.864,-1.152 -2.304,-2.736 -4.32,-5.76 -5.616,-9.072 l -0.432,-0.72 z"
     style="fill:#1271d8"
     id="path14" />
</svg>
