<?xml version="1.0" encoding="UTF-8" standalone="no"?>
<svg
   xmlns:dc="http://purl.org/dc/elements/1.1/"
   xmlns:cc="http://creativecommons.org/ns#"
   xmlns:rdf="http://www.w3.org/1999/02/22-rdf-syntax-ns#"
   xmlns:svg="http://www.w3.org/2000/svg"
   xmlns="http://www.w3.org/2000/svg"
   xmlns:sodipodi="http://sodipodi.sourceforge.net/DTD/sodipodi-0.dtd"
   xmlns:inkscape="http://www.inkscape.org/namespaces/inkscape"
   viewBox="0 0 64 64"
   style="enable-background:new 0 0 64 64"
   id="svg2"
   version="1.1"
   inkscape:version="0.92.2 5c3e80d, 2017-08-06"
   sodipodi:docname="selfwater-off.svg">
  <metadata
     id="metadata20">
    <rdf:RDF>
      <cc:Work
         rdf:about="">
        <dc:format>image/svg+xml</dc:format>
        <dc:type
           rdf:resource="http://purl.org/dc/dcmitype/StillImage" />
        <dc:title />
      </cc:Work>
    </rdf:RDF>
  </metadata>
  <defs
     id="defs18" />
  <sodipodi:namedview
     pagecolor="#ffffff"
     bordercolor="#666666"
     borderopacity="1"
     objecttolerance="10"
     gridtolerance="10"
     guidetolerance="10"
     inkscape:pageopacity="0"
     inkscape:pageshadow="2"
     inkscape:window-width="1920"
     inkscape:window-height="1013"
     id="namedview16"
     showgrid="false"
     inkscape:zoom="7.375"
     inkscape:cx="45.597162"
     inkscape:cy="11.387894"
     inkscape:window-x="0"
     inkscape:window-y="0"
     inkscape:window-maximized="1"
     inkscape:current-layer="svg2" />
  <g
     id="g823"
     transform="matrix(1.1251758,0,0,1.1251758,-1.7485229,-4.0056256)">
    <path
       id="path4"
       style="fill:#8e8e8e;fill-opacity:1"
       d="m 40.104,27.248 c 0,0 -0.144,0 -0.288,0 -0.288,0 -0.432,0 -0.576,-0.144 H 39.096 C 35.784,26.528 33.048,23.216 32.76,19.616 v -1.152 c 0.144,-0.576 0.288,-1.296 0.432,-2.016 0.288,-0.432 0.576,-1.008 0.864,-1.584 l 1.008,-1.44 c 2.304,-2.736 4.176,-5.472 5.472,-8.352 1.44,3.456 3.744,6.48 5.616,8.784 0.144,0.288 0.432,0.72 0.864,1.152 0.288,0.576 0.72,1.296 1.152,1.872 0.144,0.432 0.288,1.152 0.432,1.728 v 0.864 c 0,0.144 0,0.288 0,0.432 0,0 0,0.144 0,0.144 v 0.144 0.144 c -0.432,3.168 -3.024,6.192 -6.192,6.768 h -0.144 c -0.144,0 -0.288,0.144 -0.576,0.144 -0.144,0 -0.288,0 -0.288,0 h -1.296"
       inkscape:connector-curvature="0" />
    <path
       id="path6"
       style="fill:#757575;fill-opacity:1"
       d="m 40.8,6.872 c 1.44,3.024 3.456,5.472 5.04,7.488 0.288,0.432 0.576,0.72 0.72,1.008 0.432,0.576 0.72,1.152 1.008,1.872 0.144,0.432 0.288,1.008 0.288,1.44 v 0.864 c 0,0.144 0,0.288 0,0.432 V 20.12 C 47.568,23 45.12,25.736 42.24,26.312 h -0.144 -0.144 c 0,0 -0.288,0 -0.432,0 -0.144,0 -0.144,0 -0.288,0 H 40.08 c -0.144,0 -0.144,0 -0.288,0 -0.144,0 -0.288,0 -0.432,0 h -0.144 -0.144 c -3.024,-0.576 -5.472,-3.6 -5.616,-6.768 v -1.008 c 0.144,-0.576 0.288,-1.152 0.432,-1.728 0.288,-0.576 0.576,-1.008 0.864,-1.44 l 1.008,-1.44 C 37.776,11.624 39.504,9.32 40.8,6.872 M 40.944,3.56 C 39.36,7.016 37.2,10.184 34.752,13.208 l -1.152,1.44 c -0.288,0.576 -0.576,1.152 -0.864,1.728 -0.288,0.72 -0.432,1.44 -0.576,2.16 v 1.152 c 0.144,3.744 3.168,7.488 6.912,8.064 0.288,0.288 0.72,0.288 1.008,0.288 h 1.296 c 0.288,0 0.72,0 1.152,-0.144 3.456,-0.576 6.336,-3.888 6.768,-7.344 0.144,-0.144 0,-0.432 0.144,-0.72 V 18.68 c -0.144,-0.72 -0.288,-1.296 -0.432,-2.016 -0.288,-0.72 -0.72,-1.44 -1.152,-2.16 -0.288,-0.288 -0.576,-0.72 -0.864,-1.152 -2.304,-2.736 -4.32,-5.76 -5.616,-9.072 z"
       inkscape:connector-curvature="0" />
    <path
       id="path8"
       style="fill:#8e8e8e;fill-opacity:1"
       d="m 18.504,43.448 c 0,0 -0.144,0 -0.288,0 -0.288,0 -0.432,0 -0.576,-0.144 H 17.496 C 14.184,42.728 11.448,39.416 11.16,35.816 v -1.152 c 0.144,-0.576 0.288,-1.296 0.432,-2.016 0.288,-0.432 0.576,-1.008 0.864,-1.584 l 1.008,-1.44 c 2.304,-2.736 4.176,-5.472 5.472,-8.352 1.44,3.456 3.744,6.48 5.616,8.784 0.144,0.288 0.432,0.72 0.864,1.152 0.288,0.576 0.72,1.296 1.152,1.872 0.144,0.432 0.288,1.152 0.432,1.728 v 0.864 c 0,0.144 0,0.288 0,0.432 0,0 0,0.144 0,0.144 v 0.144 0.144 c -0.432,3.168 -3.024,6.192 -6.192,6.768 h -0.144 c -0.144,0 -0.288,0.144 -0.576,0.144 -0.144,0 -0.288,0 -0.288,0 h -1.296"
       inkscape:connector-curvature="0" />
    <path
       id="path10"
       style="fill:#757575;fill-opacity:1"
       d="m 19.188,23.084 c 1.44,3.024 3.456,5.472 5.04,7.488 0.288,0.432 0.576,0.72 0.72,1.008 0.432,0.576 0.72,1.152 1.008,1.872 0.144,0.432 0.288,1.008 0.288,1.44 v 0.864 c 0,0.144 0,0.288 0,0.432 v 0.144 c -0.288,2.88 -2.736,5.616 -5.616,6.192 H 20.484 20.34 c 0,0 -0.288,0 -0.432,0 -0.144,0 -0.144,0 -0.288,0 h -1.152 c -0.144,0 -0.144,0 -0.288,0 -0.144,0 -0.288,0 -0.432,0 H 17.604 17.46 c -3.024,-0.576 -5.472,-3.6 -5.616,-6.768 v -0.864 c 0.144,-0.576 0.288,-1.152 0.432,-1.728 0.288,-0.576 0.576,-1.008 0.864,-1.44 l 1.008,-1.44 c 2.016,-2.448 3.744,-4.752 5.04,-7.2 m 0.144,-3.312 c -1.584,3.456 -3.744,6.624 -6.192,9.648 l -1.152,1.44 c -0.288,0.576 -0.576,1.152 -0.864,1.728 -0.288,0.72 -0.432,1.44 -0.576,2.16 V 35.9 c 0.144,3.744 3.168,7.488 6.912,8.064 0.288,0.144 0.72,0.144 1.152,0.144 h 1.296 c 0.288,0 0.72,0 1.152,-0.144 3.456,-0.576 6.336,-3.888 6.768,-7.344 0.144,-0.144 0,-0.432 0.144,-0.72 v -1.008 c -0.144,-0.72 -0.288,-1.296 -0.432,-2.016 -0.288,-0.72 -0.72,-1.44 -1.152,-2.16 -0.288,-0.288 -0.576,-0.72 -0.864,-1.152 -2.304,-2.736 -4.32,-5.76 -5.616,-9.072 z"
       inkscape:connector-curvature="0" />
    <path
       id="path12"
       style="fill:#8e8e8e;fill-opacity:1"
       d="m 40.104,59.648 c 0,0 -0.144,0 -0.288,0 -0.288,0 -0.432,0 -0.576,-0.144 H 39.096 C 35.784,58.928 33.048,55.616 32.76,52.016 v -1.152 c 0.144,-0.576 0.288,-1.296 0.432,-2.016 0.288,-0.432 0.576,-1.008 0.864,-1.584 l 1.008,-1.44 c 2.304,-2.736 4.176,-5.472 5.472,-8.352 1.44,3.456 3.744,6.48 5.616,8.784 0.144,0.288 0.432,0.72 0.864,1.152 0.288,0.576 0.72,1.296 1.152,1.872 0.144,0.432 0.288,1.152 0.432,1.728 v 0.864 c 0,0.144 0,0.288 0,0.432 0,0 0,0.144 0,0.144 v 0.144 0.144 c -0.432,3.168 -3.024,6.192 -6.192,6.768 h -0.144 c -0.144,0 -0.288,0.144 -0.576,0.144 -0.144,0 -0.288,0 -0.288,0 h -1.296"
       inkscape:connector-curvature="0" />
    <path
       id="path14"
       style="fill:#757575;fill-opacity:1"
       d="m 40.8,39.272 c 1.44,3.024 3.456,5.472 5.04,7.488 0.288,0.432 0.576,0.72 0.72,1.008 0.432,0.576 0.72,1.152 1.008,1.872 0.144,0.432 0.288,1.008 0.288,1.44 v 0.864 c 0,0.144 0,0.288 0,0.432 v 0.144 c -0.288,2.88 -2.736,5.616 -5.616,6.192 h -0.144 -0.144 c 0,0 -0.288,0 -0.432,0 -0.144,0 -0.144,0 -0.288,0 H 40.08 c -0.144,0 -0.144,0 -0.288,0 -0.144,0 -0.288,0 -0.432,0 h -0.144 -0.144 c -3.024,-0.576 -5.472,-3.6 -5.616,-6.768 v -1.008 c 0.144,-0.576 0.288,-1.152 0.432,-1.728 0.288,-0.576 0.576,-1.008 0.864,-1.44 l 1.008,-1.44 c 2.016,-2.304 3.744,-4.608 5.04,-7.056 m 0.144,-3.312 c -1.584,3.456 -3.744,6.624 -6.192,9.648 l -1.152,1.44 c -0.288,0.576 -0.576,1.152 -0.864,1.728 -0.288,0.72 -0.432,1.44 -0.576,2.16 v 1.152 c 0.144,3.744 3.168,7.488 6.912,8.064 0.288,0.288 0.72,0.288 1.008,0.288 h 1.296 c 0.288,0 0.72,0 1.152,-0.144 3.456,-0.576 6.336,-3.888 6.768,-7.344 0.144,-0.144 0,-0.432 0.144,-0.72 V 51.08 c -0.144,-0.72 -0.288,-1.296 -0.432,-2.016 -0.288,-0.72 -0.72,-1.44 -1.152,-2.16 -0.288,-0.288 -0.576,-0.72 -0.864,-1.152 -2.304,-2.736 -4.32,-5.76 -5.616,-9.072 z"
       inkscape:connector-curvature="0" />
  </g>
</svg>
