<?xml version="1.0" encoding="UTF-8" standalone="no"?>
<svg
   xmlns:dc="http://purl.org/dc/elements/1.1/"
   xmlns:cc="http://creativecommons.org/ns#"
   xmlns:rdf="http://www.w3.org/1999/02/22-rdf-syntax-ns#"
   xmlns:svg="http://www.w3.org/2000/svg"
   xmlns="http://www.w3.org/2000/svg"
   xmlns:sodipodi="http://sodipodi.sourceforge.net/DTD/sodipodi-0.dtd"
   xmlns:inkscape="http://www.inkscape.org/namespaces/inkscape"
   viewBox="0 0 64 64"
   style="enable-background:new 0 0 64 64"
   id="svg2"
   version="1.1"
   inkscape:version="0.91 r13725"
   sodipodi:docname="selfhouse1.svg">
  <metadata
     id="metadata75">
    <rdf:RDF>
      <cc:Work
         rdf:about="">
        <dc:format>image/svg+xml</dc:format>
        <dc:type
           rdf:resource="http://purl.org/dc/dcmitype/StillImage" />
      </cc:Work>
    </rdf:RDF>
  </metadata>
  <sodipodi:namedview
     pagecolor="#ffffff"
     bordercolor="#666666"
     borderopacity="1"
     objecttolerance="10"
     gridtolerance="10"
     guidetolerance="10"
     inkscape:pageopacity="0"
     inkscape:pageshadow="2"
     inkscape:window-width="821"
     inkscape:window-height="480"
     id="namedview73"
     showgrid="false"
     inkscape:zoom="2.6074563"
     inkscape:cx="36.337822"
     inkscape:cy="39.896946"
     inkscape:window-x="3042"
     inkscape:window-y="185"
     inkscape:window-maximized="0"
     inkscape:current-layer="g4217" />
  <defs
     id="defs4">
    <linearGradient
       id="0"
       gradientUnits="userSpaceOnUse"
       x1="3"
       x2="61">
      <stop
         style="stop-color:#fff;stop-opacity:0"
         id="stop7" />
      <stop
         offset=".2"
         id="stop9" />
      <stop
         offset=".8"
         id="stop11" />
      <stop
         offset="1"
         style="stop-color:#fff;stop-opacity:0"
         id="stop13" />
    </linearGradient>
  </defs>
  <g
     id="g4217"
     transform="translate(0,6.6565507)">
    <g
       id="g4247"
       transform="matrix(1.1025,0,0,1.1025,-3.28,-2.5977036)">
      <path
         sodipodi:nodetypes="cccccc"
         d="M 12.5,47.025424 12.404121,13.534366 32,4.56 51.691758,13.822003 51.5,47.025424 Z"
         style="fill:#f0f0f0"
         id="path17"
         inkscape:connector-curvature="0" />
      <path
         d="m 32,5.12 19,9.5 0.767031,32.29926 L 11.983051,46.728814 13,14.62 32,5.12 M 32,4 12,14 12,46.711864 51.808242,46.960472 52,14 32,4 Z"
         style="fill:#c8c8c8"
         id="path19"
         inkscape:connector-curvature="0"
         sodipodi:nodetypes="ccccccccccccc" />
      <path
         inkscape:connector-curvature="0"
         d="M 58,17.5 32,4.5 6,17.5"
         style="fill:none;stroke:#2e7de5;stroke-width:1.5;stroke-miterlimit:10"
         id="path21" />
      <path
         inkscape:connector-curvature="0"
         d="m 12.5,20.5 39,0 0,13 -39,0 z"
         style="fill:#f0f0f0"
         id="path23" />
      <path
         inkscape:connector-curvature="0"
         d="m 51,21 0,12 -38,0 0,-12 38,0 m 1,-1 -40,0 0,14 40,0 0,-14 z"
         style="fill:#c8c8c8"
         id="path25" />
      <path
         inkscape:connector-curvature="0"
         d="m 12.5,33.5 39,0 0,13 -39,0 z"
         style="fill:#ffccd3"
         id="path27" />
      <path
         inkscape:connector-curvature="0"
         d="m 51,34 0,12 -38,0 0,-12 38,0 m 1,-1 -40,0 0,14 40,0 0,-14 z"
         style="fill:#ff6666"
         id="path29" />
      <path
         inkscape:connector-curvature="0"
         d="m 17.43,23.43 5.13,0 0,6.13 -5.13,0 z"
         style="fill:#f0f0f0"
         id="path31" />
      <path
         inkscape:connector-curvature="0"
         d="m 22.13,23.87 0,5.27 -4.27,0 0,-5.27 4.27,0 M 23,23 l -6,0 0,7 6,0 0,-7 z"
         style="fill:#c8c8c8"
         id="path33" />
      <path
         inkscape:connector-curvature="0"
         d="m 22.43,23.43 5.13,0 0,6.13 -5.13,0 z"
         style="fill:#f0f0f0"
         id="path35" />
      <path
         inkscape:connector-curvature="0"
         d="m 27.13,23.87 0,5.27 -4.27,0 0,-5.27 4.27,0 M 28,23 l -6,0 0,7 6,0 0,-7 z"
         style="fill:#c8c8c8"
         id="path37" />
      <path
         inkscape:connector-curvature="0"
         d="m 25.43,12.43 5.14,0 0,5.14 -5.14,0 z"
         style="fill:#f0f0f0"
         id="path39" />
      <path
         inkscape:connector-curvature="0"
         d="m 30.14,12.86 0,4.29 -4.29,0 0,-4.29 4.29,0 M 31,12 l -6,0 0,6 6,0 0,-6 z"
         style="fill:#c8c8c8"
         id="path41" />
      <path
         inkscape:connector-curvature="0"
         d="m 33.43,12.43 5.14,0 0,5.14 -5.14,0 z"
         style="fill:#f0f0f0"
         id="path43" />
      <path
         inkscape:connector-curvature="0"
         d="m 38.14,12.86 0,4.29 -4.29,0 0,-4.29 4.29,0 M 39,12 l -6,0 0,6 6,0 0,-6 z"
         style="fill:#c8c8c8"
         id="path45" />
      <path
         inkscape:connector-curvature="0"
         d="m 40.5,36.5 6,0 0,10 -6,0 z"
         style="fill:#ffccd3"
         id="path47" />
      <path
         inkscape:connector-curvature="0"
         d="m 46,37 0,9 -5,0 0,-9 5,0 m 1,-1 -7,0 0,11 7,0 0,-11 z"
         style="fill:#ff6666"
         id="path49" />
      <path
         inkscape:connector-curvature="0"
         d="m 31.43,23.43 5.13,0 0,6.13 -5.13,0 z"
         style="fill:#f0f0f0"
         id="path51" />
      <path
         inkscape:connector-curvature="0"
         d="m 36.13,23.87 0,5.27 -4.27,0 0,-5.27 4.27,0 M 37,23 l -6,0 0,7 6,0 0,-7 z"
         style="fill:#c8c8c8"
         id="path53" />
      <path
         inkscape:connector-curvature="0"
         d="m 17.5,36.5 5,0 0,6 -5,0 z"
         style="fill:#ffccd3"
         id="path55" />
      <path
         inkscape:connector-curvature="0"
         d="m 22,37 0,5 -4,0 0,-5 4,0 m 1,-1 -6,0 0,7 6,0 0,-7 z"
         style="fill:#ff6666"
         id="path57" />
      <path
         inkscape:connector-curvature="0"
         d="m 22.5,36.5 5,0 0,6 -5,0 z"
         style="fill:#ffccd3"
         id="path59" />
      <path
         inkscape:connector-curvature="0"
         d="m 27,37 0,5 -4,0 0,-5 4,0 m 1,-1 -6,0 0,7 6,0 0,-7 z"
         style="fill:#ff6666"
         id="path61" />
      <path
         inkscape:connector-curvature="0"
         d="m 31.5,36.5 5,0 0,6 -5,0 z"
         style="fill:#ffccd3"
         id="path63" />
      <path
         inkscape:connector-curvature="0"
         d="m 36,37 0,5 -4,0 0,-5 4,0 m 1,-1 -6,0 0,7 6,0 0,-7 z"
         style="fill:#ff6666"
         id="path65" />
      <path
         inkscape:connector-curvature="0"
         d="m 40.47,23.47 6.06,0 0,6.06 -6.06,0 z"
         style="fill:#f0f0f0"
         id="path67" />
      <path
         inkscape:connector-curvature="0"
         d="m 46.06,23.94 0,5.13 -5.13,0 0,-5.13 5.13,0 M 47,23 l -7,0 0,7 7,0 0,-7 z"
         style="fill:#c8c8c8"
         id="path69" />
      <path
         inkscape:connector-curvature="0"
         d="m 44,41 1,0 0,1 -1,0 z"
         style="fill:#ff6666"
         id="path71" />
    </g>
  </g>
</svg>
