<?xml version="1.0" encoding="UTF-8" standalone="no"?>
<svg
   xmlns:dc="http://purl.org/dc/elements/1.1/"
   xmlns:cc="http://creativecommons.org/ns#"
   xmlns:rdf="http://www.w3.org/1999/02/22-rdf-syntax-ns#"
   xmlns:svg="http://www.w3.org/2000/svg"
   xmlns="http://www.w3.org/2000/svg"
   xmlns:sodipodi="http://sodipodi.sourceforge.net/DTD/sodipodi-0.dtd"
   xmlns:inkscape="http://www.inkscape.org/namespaces/inkscape"
   height="64"
   viewBox="0 0 64 64"
   width="64"
   version="1.1"
   id="svg26"
   sodipodi:docname="selfbell.svg"
   inkscape:version="0.92.2 5c3e80d, 2017-08-06">
  <metadata
     id="metadata32">
    <rdf:RDF>
      <cc:Work
         rdf:about="">
        <dc:format>image/svg+xml</dc:format>
        <dc:type
           rdf:resource="http://purl.org/dc/dcmitype/StillImage" />
        <dc:title />
      </cc:Work>
    </rdf:RDF>
  </metadata>
  <defs
     id="defs30" />
  <sodipodi:namedview
     pagecolor="#ffffff"
     bordercolor="#666666"
     borderopacity="1"
     objecttolerance="10"
     gridtolerance="10"
     guidetolerance="10"
     inkscape:pageopacity="0"
     inkscape:pageshadow="2"
     inkscape:window-width="1920"
     inkscape:window-height="1013"
     id="namedview28"
     showgrid="false"
     inkscape:zoom="7.375"
     inkscape:cx="-67.38983"
     inkscape:cy="16"
     inkscape:window-x="0"
     inkscape:window-y="0"
     inkscape:window-maximized="1"
     inkscape:current-layer="svg26" />
  <linearGradient
     id="a"
     gradientUnits="userSpaceOnUse"
     x1="22"
     x2="22"
     y1="30"
     y2="22.999998"
     gradientTransform="matrix(2,0,0,2,-16,16)">
    <stop
       offset="0"
       stop-color="#82868d"
       id="stop2" />
    <stop
       offset="1"
       stop-color="#d9dada"
       id="stop4" />
  </linearGradient>
  <linearGradient
     id="b"
     gradientTransform="matrix(2,0,0,1.9521495,-16.000002,17.197238)"
     gradientUnits="userSpaceOnUse"
     x1="16"
     x2="16"
     y1="26"
     y2="1.411719">
    <stop
       offset="0"
       stop-color="#f79f06"
       id="stop7" />
    <stop
       offset=".0427864"
       stop-color="#eeab32"
       id="stop9" />
    <stop
       offset=".16666667"
       stop-color="#e18f00"
       id="stop11" />
    <stop
       offset=".80145305"
       stop-color="#f8c468"
       id="stop13" />
    <stop
       offset="1"
       stop-color="#ffc35a"
       id="stop15" />
  </linearGradient>
  <g
     id="g843"
     transform="matrix(1.1428571,0,0,1.1428571,13.714286,-22.857141)">
    <circle
       style="fill:url(#a);stroke-width:2"
       id="circle18"
       r="7"
       cy="69"
       cx="27" />
    <path
       style="fill:url(#b);stroke-width:2"
       inkscape:connector-curvature="0"
       id="path20"
       d="M 16,20 C 12.03125,20 9,23.093698 9,26.953124 8.999566,27.28662 9.028318,27.67128 9.085938,28 1.8567556,30.454652 0.008606,37.056372 0,44.527344 0,54.288092 -8,62.095698 -12,66 v 2 H 16 44 V 66 C 40,62.0957 32,54.288092 32,44.527344 31.9914,37.056372 30.143242,30.454652 22.914062,28 22.971682,27.67128 23.00044,27.28662 23,26.953124 23,23.093698 19.96875,20 16,20 Z" />
    <path
       style="opacity:0.15;stroke-width:2"
       inkscape:connector-curvature="0"
       id="path22"
       d="m -12,66 h 56 v 1.999998 h -56 z" />
    <path
       style="opacity:0.15;stroke-width:2"
       inkscape:connector-curvature="0"
       id="path24"
       d="M 9.09375,26 C 9.051498,26.314604 9,26.62611 9,26.953124 8.999566,27.28662 9.028318,27.67128 9.085938,28 H 22.914062 C 22.971682,27.67128 23.00044,27.28662 23,26.953124 23,26.62611 22.948502,26.314604 22.90625,26 Z" />
  </g>
</svg>
