<?xml version="1.0" encoding="UTF-8" standalone="no"?>
<svg
   xmlns:dc="http://purl.org/dc/elements/1.1/"
   xmlns:cc="http://creativecommons.org/ns#"
   xmlns:rdf="http://www.w3.org/1999/02/22-rdf-syntax-ns#"
   xmlns:svg="http://www.w3.org/2000/svg"
   xmlns="http://www.w3.org/2000/svg"
   xmlns:sodipodi="http://sodipodi.sourceforge.net/DTD/sodipodi-0.dtd"
   xmlns:inkscape="http://www.inkscape.org/namespaces/inkscape"
   viewBox="0 0 64 64"
   style="enable-background:new 0 0 64 64"
   id="svg2"
   version="1.1"
   inkscape:version="0.92.2 5c3e80d, 2017-08-06"
   sodipodi:docname="selfhouse.svg">
  <metadata
     id="metadata81">
    <rdf:RDF>
      <cc:Work
         rdf:about="">
        <dc:format>image/svg+xml</dc:format>
        <dc:type
           rdf:resource="http://purl.org/dc/dcmitype/StillImage" />
      </cc:Work>
    </rdf:RDF>
  </metadata>
  <sodipodi:namedview
     pagecolor="#ffffff"
     bordercolor="#666666"
     borderopacity="1"
     objecttolerance="10"
     gridtolerance="10"
     guidetolerance="10"
     inkscape:pageopacity="0"
     inkscape:pageshadow="2"
     inkscape:window-width="1920"
     inkscape:window-height="1013"
     id="namedview79"
     showgrid="false"
     inkscape:zoom="7.375"
     inkscape:cx="-15.370284"
     inkscape:cy="53.038609"
     inkscape:window-x="0"
     inkscape:window-y="0"
     inkscape:window-maximized="1"
     inkscape:current-layer="g4223" />
  <defs
     id="defs4">
    <linearGradient
       id="0"
       gradientUnits="userSpaceOnUse"
       x1="3"
       x2="61">
      <stop
         style="stop-color:#fff;stop-opacity:0"
         id="stop7" />
      <stop
         offset=".2"
         id="stop9" />
      <stop
         offset=".8"
         id="stop11" />
      <stop
         offset="1"
         style="stop-color:#fff;stop-opacity:0"
         id="stop13" />
    </linearGradient>
  </defs>
  <g
     id="g4223"
     transform="matrix(1.1,0,0,1.1,-3.2,4.136189)">
    <g
       id="g879"
       transform="matrix(1.1046309,0,0,1.1046309,-3.3481888,-2.6503778)">
      <path
         sodipodi:nodetypes="cccccc"
         d="M 12.5,46.992524 12.8698,13.199517 32,4.6 51.5,13.322784 v 33.66974 z"
         style="fill:#f0f0f0"
         id="path17"
         inkscape:connector-curvature="0" />
      <path
         d="M 32,5.1 51,14.6 51.813559,45.983051 11.915254,46.525424 13,14.6 32,5.1 M 32,4 12,14 V 46.983051 H 52 V 14 Z"
         style="fill:#c8c8c8"
         id="path19"
         inkscape:connector-curvature="0"
         sodipodi:nodetypes="ccccccccccccc" />
      <path
         inkscape:connector-curvature="0"
         d="m 12.5,33.5 h 39 v 13 h -39 z"
         style="fill:#f0f0f0"
         id="path21" />
      <path
         inkscape:connector-curvature="0"
         d="M 51,34 V 46 H 13 V 34 h 38 m 1,-1 H 12 v 14 h 40 z"
         style="fill:#c8c8c8"
         id="path23" />
      <path
         inkscape:connector-curvature="0"
         d="m 12.5,20.5 h 39 v 13 h -39 z"
         style="fill:#f0f0f0"
         id="path25" />
      <path
         inkscape:connector-curvature="0"
         d="M 51,21 V 33 H 13 V 21 h 38 m 1,-1 H 12 v 14 h 40 z"
         style="fill:#c8c8c8"
         id="path27" />
      <path
         inkscape:connector-curvature="0"
         d="m 17.4,23.4 h 5.1 v 6.1 h -5.1 z"
         style="fill:#f0f0f0"
         id="path29" />
      <path
         inkscape:connector-curvature="0"
         d="m 22.1,23.9 v 5.3 h -4.3 v -5.3 h 4.3 M 23,23 h -6 v 7 h 6 z"
         style="fill:#c8c8c8"
         id="path31" />
      <path
         inkscape:connector-curvature="0"
         d="m 22.4,23.4 h 5.1 v 6.1 h -5.1 z"
         style="fill:#f0f0f0"
         id="path33" />
      <path
         inkscape:connector-curvature="0"
         d="m 27.1,23.9 v 5.3 h -4.3 v -5.3 h 4.3 M 28,23 h -6 v 7 h 6 z"
         style="fill:#c8c8c8"
         id="path35" />
      <path
         inkscape:connector-curvature="0"
         d="m 40.5,36.5 h 6 v 10 h -6 z"
         style="fill:#f0f0f0"
         id="path37" />
      <path
         inkscape:connector-curvature="0"
         d="m 46,37 v 9 h -5 v -9 h 5 m 1,-1 h -7 v 11 h 7 z"
         style="fill:#c8c8c8"
         id="path39" />
      <path
         inkscape:connector-curvature="0"
         d="m 31.4,23.4 h 5.1 v 6.1 h -5.1 z"
         style="fill:#f0f0f0"
         id="path41" />
      <path
         inkscape:connector-curvature="0"
         d="m 36.1,23.9 v 5.3 h -4.3 v -5.3 h 4.3 M 37,23 h -6 v 7 h 6 z"
         style="fill:#c8c8c8"
         id="path43" />
      <path
         inkscape:connector-curvature="0"
         d="m 17.4,36.4 h 5.1 v 6.1 h -5.1 z"
         style="fill:#f0f0f0"
         id="path45" />
      <path
         inkscape:connector-curvature="0"
         d="m 22.1,36.9 v 5.3 h -4.3 v -5.3 h 4.3 M 23,36 h -6 v 7 h 6 z"
         style="fill:#c8c8c8"
         id="path47" />
      <path
         inkscape:connector-curvature="0"
         d="m 22.4,36.4 h 5.1 v 6.1 h -5.1 z"
         style="fill:#f0f0f0"
         id="path49" />
      <path
         inkscape:connector-curvature="0"
         d="m 27.1,36.9 v 5.3 h -4.3 v -5.3 h 4.3 M 28,36 h -6 v 7 h 6 z"
         style="fill:#c8c8c8"
         id="path51" />
      <path
         inkscape:connector-curvature="0"
         d="m 31.4,36.4 h 5.1 v 6.1 h -5.1 z"
         style="fill:#f0f0f0"
         id="path53" />
      <path
         inkscape:connector-curvature="0"
         d="m 36.1,36.9 v 5.3 h -4.3 v -5.3 h 4.3 M 37,36 h -6 v 7 h 6 z"
         style="fill:#c8c8c8"
         id="path55" />
      <path
         inkscape:connector-curvature="0"
         d="m 40.5,23.5 h 6.1 v 6.1 h -6.1 z"
         style="fill:#f0f0f0"
         id="path57" />
      <g
         style="fill:#c8c8c8"
         id="g59">
        <path
           inkscape:connector-curvature="0"
           d="M 46.1,23.9 V 29 H 41 v -5.1 h 5.1 M 47,23 h -7 v 7 h 7 z"
           id="path61" />
        <path
           inkscape:connector-curvature="0"
           d="m 44,41 h 1 v 1 h -1 z"
           id="path63" />
      </g>
      <path
         inkscape:connector-curvature="0"
         d="M 12.5,20.5 V 14.3 L 32,4.6 51.5,14.3 v 6.2 z"
         style="fill:#f0f0f0"
         id="path65" />
      <path
         inkscape:connector-curvature="0"
         d="m 32,5.1 19,9.5 V 20 H 13 V 14.6 L 32,5.1 M 32,4 12,14 v 7 h 40 v -7 z"
         style="fill:#c8c8c8"
         id="path67" />
      <path
         inkscape:connector-curvature="0"
         d="M 58,17.5 32,4.5 6,17.5"
         style="fill:none;stroke:#2e7de5;stroke-width:1.5;stroke-miterlimit:10"
         id="path69" />
      <path
         inkscape:connector-curvature="0"
         d="m 25.5,12.5 h 5 v 5 h -5 z"
         style="fill:#f0f0f0"
         id="path71" />
      <path
         inkscape:connector-curvature="0"
         d="m 30,13 v 4 h -4 v -4 h 4 m 1,-1 h -6 v 6 h 6 z"
         style="fill:#c8c8c8"
         id="path73" />
      <path
         inkscape:connector-curvature="0"
         d="m 33.5,12.5 h 5 v 5 h -5 z"
         style="fill:#f0f0f0"
         id="path75" />
      <path
         inkscape:connector-curvature="0"
         d="m 38,13 v 4 h -4 v -4 h 4 m 1,-1 h -6 v 6 h 6 z"
         style="fill:#c8c8c8"
         id="path77" />
    </g>
  </g>
</svg>
