<?xml version="1.0" encoding="UTF-8" standalone="no"?>
<svg
   xmlns:dc="http://purl.org/dc/elements/1.1/"
   xmlns:cc="http://creativecommons.org/ns#"
   xmlns:rdf="http://www.w3.org/1999/02/22-rdf-syntax-ns#"
   xmlns:svg="http://www.w3.org/2000/svg"
   xmlns="http://www.w3.org/2000/svg"
   xmlns:sodipodi="http://sodipodi.sourceforge.net/DTD/sodipodi-0.dtd"
   xmlns:inkscape="http://www.inkscape.org/namespaces/inkscape"
   viewBox="0 0 64 64"
   style="enable-background:new 0 0 64 64"
   id="svg2"
   version="1.1"
   inkscape:version="0.91 r13725"
   sodipodi:docname="selfcalendar.svg">
  <metadata
     id="metadata80">
    <rdf:RDF>
      <cc:Work
         rdf:about="">
        <dc:format>image/svg+xml</dc:format>
        <dc:type
           rdf:resource="http://purl.org/dc/dcmitype/StillImage" />
      </cc:Work>
    </rdf:RDF>
  </metadata>
  <defs
     id="defs78" />
  <sodipodi:namedview
     pagecolor="#ffffff"
     bordercolor="#666666"
     borderopacity="1"
     objecttolerance="10"
     gridtolerance="10"
     guidetolerance="10"
     inkscape:pageopacity="0"
     inkscape:pageshadow="2"
     inkscape:window-width="821"
     inkscape:window-height="480"
     id="namedview76"
     showgrid="false"
     inkscape:zoom="3.6875"
     inkscape:cx="4.3389831"
     inkscape:cy="32"
     inkscape:window-x="855"
     inkscape:window-y="207"
     inkscape:window-maximized="0"
     inkscape:current-layer="svg2" />
  <g
     id="g4168"
     transform="matrix(0.857375,0,0,0.857375,4.564,5.0355562)">
    <path
       inkscape:connector-curvature="0"
       id="path4"
       style="fill:#ffffff"
       d="m 3.975,4.925 56.05,0 0,54.15 -56.05,0 z" />
    <path
       inkscape:connector-curvature="0"
       id="path6"
       style="fill:#7f7f7f"
       d="m 59.55,5.4 0,53.2 -55.1,0 0,-53.2 55.1,0 m 0.95,-0.95 -57,0 0,55.1 57,0 0,-55.1 0,0 z" />
    <path
       inkscape:connector-curvature="0"
       id="path8"
       style="fill:#dc0000"
       d="m 3.975,3.825 56.05,0 0,12.35 -56.05,0 z" />
    <path
       inkscape:connector-curvature="0"
       id="path10"
       style="fill:#990000"
       d="m 59.55,4.3 0,11.4 -55.1,0 0,-11.4 55.1,0 m 0.95,-0.95 -57,0 0,13.3 57,0 0,-13.3 0,0 z" />
    <g
       transform="matrix(0.95,0,0,0.95,1.6,1.95)"
       id="g12"
       style="fill:#c8c8c8">
      <path
         inkscape:connector-curvature="0"
         id="path14"
         d="m 37,20 6,0 0,6 -6,0 z" />
      <path
         inkscape:connector-curvature="0"
         id="path16"
         d="m 45,20 6,0 0,6 -6,0 z" />
      <path
         inkscape:connector-curvature="0"
         id="path18"
         d="m 53,20 6,0 0,6 -6,0 z" />
      <path
         inkscape:connector-curvature="0"
         id="path20"
         d="m 5,28 6,0 0,6 -6,0 z" />
      <path
         inkscape:connector-curvature="0"
         id="path22"
         d="m 13,28 6,0 0,6 -6,0 z" />
      <path
         inkscape:connector-curvature="0"
         id="path24"
         d="m 21,28 6,0 0,6 -6,0 z" />
      <path
         inkscape:connector-curvature="0"
         id="path26"
         d="m 29,28 6,0 0,6 -6,0 z" />
      <path
         inkscape:connector-curvature="0"
         id="path28"
         d="m 37,28 6,0 0,6 -6,0 z" />
      <path
         inkscape:connector-curvature="0"
         id="path30"
         d="m 45,28 6,0 0,6 -6,0 z" />
      <path
         inkscape:connector-curvature="0"
         id="path32"
         d="m 53,28 6,0 0,6 -6,0 z" />
      <path
         inkscape:connector-curvature="0"
         id="path34"
         d="m 5,36 6,0 0,6 -6,0 z" />
      <path
         inkscape:connector-curvature="0"
         id="path36"
         d="m 13,36 6,0 0,6 -6,0 z" />
      <path
         inkscape:connector-curvature="0"
         id="path38"
         d="m 21,36 6,0 0,6 -6,0 z" />
      <path
         inkscape:connector-curvature="0"
         id="path40"
         d="m 29,36 6,0 0,6 -6,0 z" />
      <path
         inkscape:connector-curvature="0"
         id="path42"
         d="m 37,36 6,0 0,6 -6,0 z" />
      <path
         inkscape:connector-curvature="0"
         id="path44"
         d="m 45,36 6,0 0,6 -6,0 z" />
      <path
         inkscape:connector-curvature="0"
         id="path46"
         d="m 53,36 6,0 0,6 -6,0 z" />
      <path
         inkscape:connector-curvature="0"
         id="path48"
         d="m 5,44 6,0 0,6 -6,0 z" />
      <path
         inkscape:connector-curvature="0"
         id="path50"
         d="m 13,44 6,0 0,6 -6,0 z" />
      <path
         inkscape:connector-curvature="0"
         id="path52"
         d="m 21,44 6,0 0,6 -6,0 z" />
      <path
         inkscape:connector-curvature="0"
         id="path54"
         d="m 29,44 6,0 0,6 -6,0 z" />
      <path
         inkscape:connector-curvature="0"
         id="path56"
         d="m 37,44 6,0 0,6 -6,0 z" />
      <path
         inkscape:connector-curvature="0"
         id="path58"
         d="m 45,44 6,0 0,6 -6,0 z" />
      <path
         inkscape:connector-curvature="0"
         id="path60"
         d="m 53,44 6,0 0,6 -6,0 z" />
      <path
         inkscape:connector-curvature="0"
         id="path62"
         d="m 5,52 6,0 0,6 -6,0 z" />
      <path
         inkscape:connector-curvature="0"
         id="path64"
         d="m 13,52 6,0 0,6 -6,0 z" />
      <path
         inkscape:connector-curvature="0"
         id="path66"
         d="m 21,52 6,0 0,6 -6,0 z" />
      <path
         inkscape:connector-curvature="0"
         id="path68"
         d="m 29,52 6,0 0,6 -6,0 z" />
      <path
         inkscape:connector-curvature="0"
         id="path70"
         d="m 37,52 6,0 0,6 -6,0 z" />
      <path
         inkscape:connector-curvature="0"
         id="path72"
         d="m 45,52 6,0 0,6 -6,0 z" />
    </g>
    <path
       inkscape:connector-curvature="0"
       id="path74"
       style="fill:#e6e6e6"
       d="m 4.45,17.025 55.1,0 0,0.95 -55.1,0 z" />
  </g>
</svg>
