<?xml version="1.0" encoding="UTF-8" standalone="no"?>
<svg
   xmlns:dc="http://purl.org/dc/elements/1.1/"
   xmlns:cc="http://creativecommons.org/ns#"
   xmlns:rdf="http://www.w3.org/1999/02/22-rdf-syntax-ns#"
   xmlns:svg="http://www.w3.org/2000/svg"
   xmlns="http://www.w3.org/2000/svg"
   xmlns:xlink="http://www.w3.org/1999/xlink"
   xmlns:sodipodi="http://sodipodi.sourceforge.net/DTD/sodipodi-0.dtd"
   xmlns:inkscape="http://www.inkscape.org/namespaces/inkscape"
   viewBox="0 0 64 64"
   style="enable-background:new 0 0 64 64"
   version="1.1"
   id="svg18"
   sodipodi:docname="selfmotion.svg"
   inkscape:version="0.92.2 5c3e80d, 2017-08-06">
  <metadata
     id="metadata24">
    <rdf:RDF>
      <cc:Work
         rdf:about="">
        <dc:format>image/svg+xml</dc:format>
        <dc:type
           rdf:resource="http://purl.org/dc/dcmitype/StillImage" />
      </cc:Work>
    </rdf:RDF>
  </metadata>
  <defs
     id="defs22">
    <clipPath
       id="1">
      <use
         height="100%"
         width="100%"
         y="0"
         x="0"
         xlink:href="#0"
         id="use3" />
    </clipPath>
    <clipPath
       id="clipPath880">
      <use
         height="100%"
         width="100%"
         y="0"
         x="0"
         xlink:href="#0"
         id="use878" />
    </clipPath>
  </defs>
  <sodipodi:namedview
     pagecolor="#ffffff"
     bordercolor="#666666"
     borderopacity="1"
     objecttolerance="10"
     gridtolerance="10"
     guidetolerance="10"
     inkscape:pageopacity="0"
     inkscape:pageshadow="2"
     inkscape:window-width="1920"
     inkscape:window-height="1013"
     id="namedview20"
     showgrid="false"
     inkscape:zoom="7.375"
     inkscape:cx="7.5071438"
     inkscape:cy="39.129073"
     inkscape:window-x="0"
     inkscape:window-y="0"
     inkscape:window-maximized="1"
     inkscape:current-layer="svg18" />
  <g
     id="g2085"
     transform="translate(0.54948398,-0.240967)">
    <path
       id="path36"
       clip-path="url(#1)"
       style="fill:#ffffff"
       d="m 29.3,17.3 c 0,0 2.7,7.9 2.7,10.7 0,-2.7 2.7,-10.7 2.7,-10.7 h -5.4"
       inkscape:connector-curvature="0"
       transform="translate(-13.152542,11.677967)" />
    <path
       id="path38"
       clip-path="url(#1)"
       style="fill:#e70003"
       d="m 30,17 1.5,2 -1.5,3 2,6 2,-6 -1.5,-3 1.5,-2 z"
       inkscape:connector-curvature="0"
       transform="translate(-13.152542,11.677967)" />
    <g
       style="fill:#9b9c9e;fill-opacity:1"
       transform="matrix(0,-0.59049,0.59049,0,30.517369,50.140883)"
       id="g840">
      <path
         inkscape:connector-curvature="0"
         d="m 40.5,43.8 c -2.3,-2.1 -5.3,-3.3 -8.5,-3.3 -3.2,0 -6.2,1.2 -8.5,3.3 L 20,40.3 c 3.3,-3.1 7.5,-4.8 12,-4.8 4.5,0 8.8,1.7 12,4.8 l -3.5,3.5"
         style="fill:#9b9c9e;fill-opacity:1"
         id="path6" />
      <path
         style="fill:#9b9c9e;fill-opacity:1"
         inkscape:connector-curvature="0"
         d="m 32,36 c 4.2,0 8.2,1.5 11.3,4.3 l -2.8,2.8 C 38.1,41.1 35.2,40 32,40 c -3.2,0 -6.1,1.1 -8.5,3.1 L 20.7,40.3 C 23.8,37.5 27.8,36 32,36 m 0,-1 c -4.6,0 -9.2,1.8 -12.7,5.3 l 4.2,4.2 C 25.8,42.2 28.9,41 32,41 c 3.1,0 6.1,1.2 8.5,3.5 l 4.2,-4.2 C 41.2,36.8 36.6,35 32,35 Z"
         id="path8" />
      <path
         inkscape:connector-curvature="0"
         d="m 49,35.3 c -4.6,-4.4 -10.6,-6.8 -17,-6.8 -6.4,0 -12.4,2.4 -17,6.8 L 11.5,31.8 C 17,26.5 24.3,23.5 32,23.5 c 7.7,0 15,2.9 20.5,8.3 L 49,35.3"
         style="fill:#9b9c9e;fill-opacity:1"
         id="path10" />
      <path
         style="fill:#9b9c9e;fill-opacity:1"
         inkscape:connector-curvature="0"
         d="m 32,24 c 7.4,0 14.4,2.8 19.8,7.8 L 49,34.6 C 44.3,30.3 38.3,28 32,28 25.7,28 19.7,30.3 15,34.6 L 12.2,31.8 C 17.6,26.8 24.6,24 32,24 m 0,-1 c -7.7,0 -15.4,2.9 -21.2,8.8 L 15,36 c 4.7,-4.7 10.8,-7 17,-7 6.1,0 12.3,2.3 17,7 l 4.2,-4.2 C 47.4,25.9 39.7,23 32,23 Z"
         id="path12" />
      <path
         inkscape:connector-curvature="0"
         d="M 57.5,26.8 C 50.6,20.2 41.6,16.5 32,16.5 22.4,16.5 13.4,20.2 6.5,26.8 L 3,23.3 c 7.8,-7.6 18.1,-11.8 29,-11.8 10.9,0 21.2,4.2 29,11.8 l -3.5,3.5"
         style="fill:#9b9c9e;fill-opacity:1"
         id="path14" />
      <path
         style="fill:#9b9c9e;fill-opacity:1"
         inkscape:connector-curvature="0"
         d="m 32,12 c 10.6,0 20.6,4 28.3,11.3 l -2.8,2.8 C 50.5,19.6 41.5,16 32,16 22.5,16 13.5,19.6 6.6,26.1 L 3.8,23.3 C 11.4,16 21.4,12 32,12 m 0,-1 C 21.2,11 10.5,15.1 2.3,23.3 l 4.2,4.2 C 13.5,20.5 22.7,17 32,17 c 9.3,0 18.4,3.5 25.5,10.5 l 4.2,-4.2 C 53.5,15.1 42.7,11 32,11 Z"
         id="path16" />
    </g>
    <g
       transform="translate(0.25939995,-0.437)"
       id="g912">
      <path
         inkscape:connector-curvature="0"
         d="m 29.847457,52.177967 c -0.8,0 -1.5,-0.7 -1.5,-1.5 v -3.5 h 3 v 3.5 c 0,0.8 -0.7,1.5 -1.5,1.5"
         style="fill:#d29e7c"
         id="path8-3" />
      <path
         inkscape:connector-curvature="0"
         d="m 30.847457,47.677967 v 3 c 0,0.6 -0.4,1 -1,1 -0.6,0 -1,-0.4 -1,-1 v -3 h 2 m 1,-1 h -4 v 4 c 0,1.1 0.9,2 2,2 1.1,0 2,-0.9 2,-2 z"
         style="fill:#c18a6b"
         id="path10-6" />
      <path
         inkscape:connector-curvature="0"
         d="m 7.8474581,52.177967 c -0.8,0 -1.5,-0.7 -1.5,-1.5 v -3.5 h 3 v 3.5 c 0,0.8 -0.6,1.5 -1.5,1.5"
         style="fill:#d29e7c"
         id="path12-7" />
      <path
         inkscape:connector-curvature="0"
         d="m 8.8474581,47.677967 v 3 c 0,0.6 -0.4,1 -1,1 -0.6,0 -1,-0.4 -1,-1 v -3 h 2 m 1,-1 h -4 v 4 c 0,1.1 0.9,2 2,2 1.1,0 2,-0.9 2,-2 z"
         style="fill:#c18a6b"
         id="path14-5" />
      <path
         inkscape:connector-curvature="0"
         d="m 22.647457,28.677967 h -7.499999 c -5.1,0 -9.1999999,4.1 -9.1999999,9.2 v 0.6 c 0,0.1 -0.1,0.3 -0.1,0.4 v 9.8 h 4 v -5.4 -3.8 c 0,-1.2 0.3999999,-2.2 0.9999999,-3.1 v 12.3 h 15.999999 v -12.4 c 0.5,0.7 0.9,1.6 1,2.5 0,0.1 0,0.1 0,0.1 v 9.8 h 4 v -9.2 -0.6 -1.1 c 0,-5 -4.1,-9.1 -9.2,-9.1"
         style="fill:#00783c"
         id="path16-3" />
      <ellipse
         cx="18.847458"
         cy="28.677963"
         rx="3.5"
         ry="2"
         style="fill:#ffffff"
         id="ellipse22" />
      <path
         inkscape:connector-curvature="0"
         d="m 17.847458,31.677967 h 1 v 17 h -1 z"
         style="opacity:0.2"
         id="path26" />
      <path
         inkscape:connector-curvature="0"
         d="m 19.347458,45.677967 c -0.3,0 -0.5,0.2 -0.5,0.5 0,0.3 0.2,0.5 0.5,0.5 0.299999,0 0.499999,-0.2 0.499999,-0.5 0,-0.3 -0.2,-0.5 -0.499999,-0.5"
         style="opacity:0.2"
         id="path28" />
      <path
         inkscape:connector-curvature="0"
         d="m 19.347458,43.677967 c -0.3,0 -0.5,0.2 -0.5,0.5 0,0.3 0.2,0.5 0.5,0.5 0.299999,0 0.499999,-0.2 0.499999,-0.5 0,-0.3 -0.2,-0.5 -0.499999,-0.5"
         style="opacity:0.2"
         id="path30" />
      <path
         inkscape:connector-curvature="0"
         d="m 19.347458,41.677967 c -0.3,0 -0.5,0.2 -0.5,0.5 0,0.3 0.2,0.5 0.5,0.5 0.299999,0 0.499999,-0.2 0.499999,-0.5 0,-0.3 -0.2,-0.5 -0.499999,-0.5"
         style="opacity:0.2"
         id="path32" />
      <path
         inkscape:connector-curvature="0"
         d="m 19.347458,39.677967 c -0.3,0 -0.5,0.2 -0.5,0.5 0,0.3 0.2,0.5 0.5,0.5 0.299999,0 0.499999,-0.2 0.499999,-0.5 0,-0.3 -0.2,-0.5 -0.499999,-0.5"
         style="opacity:0.2"
         id="path34" />
      <g
         transform="translate(-13.152542,11.677967)"
         style="fill:#ffffff"
         id="g44">
        <path
           inkscape:connector-curvature="0"
           d="M 32.64596,17.12745 H 36.1 v 1.5 h -3.3 z"
           id="path40" />
        <path
           inkscape:connector-curvature="0"
           d="M 28.15956,15.96335 H 31.1 v 1.5 h -3.3 z"
           id="path42" />
      </g>
      <path
         inkscape:connector-curvature="0"
         d="m 18.847458,28.177967 c -4.1,0 -7.5,-3.4 -7.5,-7.5 0,-4.1 3.4,-7.5 7.5,-7.5 4.099999,0 7.499999,3.4 7.499999,7.5 0,4.1 -3.4,7.5 -7.499999,7.5"
         style="fill:#d29e7c"
         id="path46" />
      <path
         inkscape:connector-curvature="0"
         d="m 18.847458,13.677967 c 3.899999,0 6.999999,3.1 6.999999,7 0,3.9 -3.1,7 -6.999999,7 -3.9,0 -7,-3.1 -7,-7 0,-3.9 3.1,-7 7,-7 m 0,-1 c -4.4,0 -8,3.6 -8,8 0,4.4 3.6,8 8,8 4.399999,0 7.999999,-3.6 7.999999,-8 0,-4.4 -3.6,-8 -7.999999,-8 z"
         style="fill:#c18a6b"
         id="path48" />
      <path
         inkscape:connector-curvature="0"
         d="m 11.347458,20.477967 c 0.1,-4.1 3.4,-7.3 7.5,-7.3 4.099999,0 7.399999,3.2 7.499999,7.3 -1,-1 -1.8,-2.2 -2.2,-3.5 l -0.1,-0.3 h -0.4 c -0.6,0 -1.1,0.1 -1.6,0.1 -0.8,0 -1.5,-0.1 -2.2,-0.2 l -2.699999,-0.4 2.399999,1.3 c 0.3,0.2 0.6,0.4 0.9,0.5 -0.5,0 -0.999999,0 -1.399999,0 -2,0 -3.7,-0.3 -5.3,-0.9 l -0.5,-0.2 -0.2,0.5 c -0.4,1.3 -1,2.3 -1.7,3.1"
         style="fill:#61452d"
         id="path50" />
      <path
         inkscape:connector-curvature="0"
         d="m 18.847458,13.677967 c 2.099999,0 3.999999,0.9 5.299999,2.4 l -0.6,0.1 c -0.5,0 -1.1,0.1 -1.6,0.1 -0.7,0 -1.5,-0.1 -2.1,-0.2 l -5.399999,-0.8 4,2.3 c -1.7,0 -3.3,-0.3 -4.6,-0.8 l -0.7,-0.2 c 1.4,-1.8 3.4,-2.9 5.7,-2.9 m 5.699999,2.9 c 0.5,0.7 0.9,1.4 1.1,2.2 -0.4,-0.6 -0.7,-1.3 -1,-2 l -0.1,-0.2 m -5.699999,-3.9 c -4.4,0 -8,3.6 -8,8 0,0.3 0,0.6 0.1,0.9 0.9,-0.7 1.9,-1.9 2.6,-3.9 1.4,0.5 3.2,0.9 5.4,0.9 0.999999,0 2.199999,-0.1 3.399999,-0.2 0,0 -1.3,-0.4 -2.7,-1.2 0.7,0.1 1.5,0.2 2.3,0.2 0.5,0 1.1,0 1.7,-0.1 0.5,1.4 1.5,2.9 3.2,4.3 0,-0.3 0,-0.6 0,-0.9 0,-4.4 -3.6,-8 -7.999999,-8 z"
         style="fill:#513624"
         id="path52" />
    </g>
  </g>
</svg>
