<?xml version="1.0" encoding="UTF-8" standalone="no"?>
<svg
   xmlns:dc="http://purl.org/dc/elements/1.1/"
   xmlns:cc="http://creativecommons.org/ns#"
   xmlns:rdf="http://www.w3.org/1999/02/22-rdf-syntax-ns#"
   xmlns:svg="http://www.w3.org/2000/svg"
   xmlns="http://www.w3.org/2000/svg"
   xmlns:sodipodi="http://sodipodi.sourceforge.net/DTD/sodipodi-0.dtd"
   xmlns:inkscape="http://www.inkscape.org/namespaces/inkscape"
   viewBox="0 0 64 64"
   style="enable-background:new 0 0 64 64"
   version="1.1"
   id="svg14"
   sodipodi:docname="selfbattery-70.svg"
   inkscape:version="0.92.2 5c3e80d, 2017-08-06">
  <metadata
     id="metadata20">
    <rdf:RDF>
      <cc:Work
         rdf:about="">
        <dc:format>image/svg+xml</dc:format>
        <dc:type
           rdf:resource="http://purl.org/dc/dcmitype/StillImage" />
      </cc:Work>
    </rdf:RDF>
  </metadata>
  <defs
     id="defs18" />
  <sodipodi:namedview
     pagecolor="#ffffff"
     bordercolor="#666666"
     borderopacity="1"
     objecttolerance="10"
     gridtolerance="10"
     guidetolerance="10"
     inkscape:pageopacity="0"
     inkscape:pageshadow="2"
     inkscape:window-width="1920"
     inkscape:window-height="1013"
     id="namedview16"
     showgrid="false"
     inkscape:zoom="3.6875"
     inkscape:cx="-134.77966"
     inkscape:cy="32"
     inkscape:window-x="0"
     inkscape:window-y="0"
     inkscape:window-maximized="1"
     inkscape:current-layer="svg14" />
  <path
     d="m57 39.5c-.3 0-.5-.2-.5-.5v-14c0-.3.2-.5.5-.5h5c.8 0 1.5.7 1.5 1.5v12c0 .8-.7 1.5-1.5 1.5h-5"
     style="fill:#bebec8"
     id="path2" />
  <path
     d="m62 25c.6 0 1 .4 1 1v12c0 .6-.4 1-1 1h-5v-14h5m0-1h-5c-.6 0-1 .4-1 1v14c0 .6.4 1 1 1h5c1.1 0 2-.9 2-2v-12c0-1.1-.9-2-2-2z"
     style="fill:#34383f"
     id="path4" />
  <path
     d="m3 46.5c-1.4 0-2.5-1.1-2.5-2.5v-24c0-1.4 1.1-2.5 2.5-2.5h51c1.4 0 2.5 1.1 2.5 2.5v24c0 1.4-1.1 2.5-2.5 2.5h-51"
     style="fill:#f0f0f0"
     id="path6" />
  <path
     d="m54 18c1.1 0 2 .9 2 2v24c0 1.1-.9 2-2 2h-51c-1.1 0-2-.9-2-2v-24c0-1.1.9-2 2-2h51m0-1h-51c-1.7 0-3 1.3-3 3v24c0 1.7 1.3 3 3 3h51c1.7 0 3-1.3 3-3v-24c0-1.7-1.3-3-3-3z"
     style="fill:#34383f"
     id="path8" />
  <path
     d="m40 46h-37c-1.1 0-2-.9-2-2v-24c0-1.1.9-2 2-2h37v28"
     style="fill:#6bc305;fill-opacity:1"
     id="path10" />
  <path
     d="m39 18h1v28h-1z"
     style="fill:#559c04;fill-opacity:1"
     id="path12" />
</svg>
