<?xml version="1.0" encoding="UTF-8" standalone="no"?>
<svg
   xmlns:osb="http://www.openswatchbook.org/uri/2009/osb"
   xmlns:dc="http://purl.org/dc/elements/1.1/"
   xmlns:cc="http://creativecommons.org/ns#"
   xmlns:rdf="http://www.w3.org/1999/02/22-rdf-syntax-ns#"
   xmlns:svg="http://www.w3.org/2000/svg"
   xmlns="http://www.w3.org/2000/svg"
   xmlns:sodipodi="http://sodipodi.sourceforge.net/DTD/sodipodi-0.dtd"
   xmlns:inkscape="http://www.inkscape.org/namespaces/inkscape"
   width="64"
   height="64"
   id="svg2"
   version="1.1"
   inkscape:version="0.91 r13725"
   sodipodi:docname="selfenergy_supply.svg">
  <metadata
     id="metadata58">
    <rdf:RDF>
      <cc:Work
         rdf:about="">
        <dc:format>image/svg+xml</dc:format>
        <dc:type
           rdf:resource="http://purl.org/dc/dcmitype/StillImage" />
        <dc:title></dc:title>
      </cc:Work>
    </rdf:RDF>
  </metadata>
  <sodipodi:namedview
     pagecolor="#ffffff"
     bordercolor="#666666"
     borderopacity="1"
     objecttolerance="10"
     gridtolerance="10"
     guidetolerance="10"
     inkscape:pageopacity="0"
     inkscape:pageshadow="2"
     inkscape:window-width="1920"
     inkscape:window-height="1015"
     id="namedview56"
     showgrid="false"
     showguides="false"
     inkscape:zoom="6.9532166"
     inkscape:cx="-8.2020427"
     inkscape:cy="45.81884"
     inkscape:window-x="1920"
     inkscape:window-y="0"
     inkscape:window-maximized="1"
     inkscape:current-layer="svg2" />
  <defs
     id="defs4">
    <linearGradient
       id="linearGradient4279"
       osb:paint="solid">
      <stop
         style="stop-color:#000000;stop-opacity:1;"
         offset="0"
         id="stop4281" />
    </linearGradient>
    <linearGradient
       id="e"
       y1="23"
       x1="24"
       y2="39"
       x2="40"
       gradientUnits="userSpaceOnUse">
      <stop
         stop-color="#292c2f"
         id="stop27"
         style="stop-color:#ffa701;stop-opacity:1" />
      <stop
         offset="1"
         stop-opacity="0"
         id="stop29"
         style="stop-color:#ff9100;stop-opacity:1" />
    </linearGradient>
  </defs>
  <path
     inkscape:connector-curvature="0"
     d="m 33.442955,15.399033 c -0.02619,0.05242 -1.949812,3.707635 -4.275763,8.132152 l -4.232532,8.053522 2.841999,0 c 2.273531,0 2.833147,0.02619 2.806936,0.113696 -0.02619,0.104848 -7.791072,15.206343 -8.438173,16.412726 l -0.306019,0.56846 0.306019,-0.306018 c 0.166117,-0.166115 4.704328,-5.106679 10.073455,-10.974153 l 9.767434,-10.667791 -3.681423,-0.04356 -3.681426,-0.04357 3.611302,-5.421548 c 1.993723,-2.981903 3.689935,-5.526393 3.768569,-5.666298 l 0.157264,-0.236237 -4.328184,0 c -2.623123,0 -4.354737,0.03505 -4.389458,0.07863 z"
     id="path10"
     style="fill:#ff9300;fill-opacity:1" />
  <path
     d="m 28.773801,63.320598 a 31.503094,31.503512 0 0 0 6.4535,0.0092 l 0.748197,-4.883046 a 26.777629,26.777986 0 0 0 5.808141,-1.55229 l 3.081002,3.845 a 31.503094,31.503512 0 0 0 5.590173,-3.235065 l -1.787798,-4.585328 a 26.777629,26.777986 0 0 0 4.268381,-4.245368 l 4.556925,1.775223 a 31.503094,31.503512 0 0 0 3.229199,-5.597182 l -3.815029,-3.057414 a 26.777629,26.777986 0 0 0 0.958628,-2.864475 26.777629,26.777986 0 0 0 0.581806,-2.955889 l 4.873528,-0.748208 a 31.503094,31.503512 0 0 0 0.0095,-6.453588 L 58.44689,28.024126 A 26.777629,26.777986 0 0 0 56.894615,22.21591 l 3.844955,-3.081047 a 31.503094,31.503512 0 0 0 -3.235025,-5.590248 l -4.585276,1.787824 A 26.777629,26.777986 0 0 0 48.674334,11.064324 L 50.449745,6.5076423 A 31.503094,31.503512 0 0 0 44.852304,3.2782888 L 41.797336,7.0935145 A 26.777629,26.777986 0 0 0 38.930438,6.1346425 26.777629,26.777986 0 0 0 35.974587,5.5528263 L 35.228941,0.67940137 a 31.503094,31.503512 0 0 0 -6.453496,-0.00922 L 28.024183,5.5530911 A 26.777629,26.777986 0 0 0 22.216532,7.1058125 L 19.135591,3.2611558 A 31.503094,31.503512 0 0 0 13.54541,6.4962263 l 1.787804,4.5853397 a 26.777629,26.777986 0 0 0 -4.268382,4.245367 L 6.5075763,13.550172 A 31.503094,31.503512 0 0 0 3.278381,19.147351 l 3.8150226,3.057418 a 26.777629,26.777986 0 0 0 -0.9586231,2.864475 26.777629,26.777986 0 0 0 -0.5818066,2.955889 l -4.87353045,0.74821 a 31.503094,31.503512 0 0 0 -0.00931,6.453587 l 4.88297635,0.748208 a 26.777629,26.777986 0 0 0 1.5522751,5.808217 l -3.8449432,3.081043 a 31.503094,31.503512 0 0 0 3.2350234,5.590249 l 4.5852769,-1.787824 a 26.777629,26.777986 0 0 0 4.24531,4.268442 l -1.775198,4.556981 a 31.503094,31.503512 0 0 0 5.597106,3.22924 l 3.057384,-3.815076 a 26.777629,26.777986 0 0 0 2.864435,0.958638 26.777629,26.777986 0 0 0 2.955852,0.581813 z M 26.292375,53.30122 A 22.052164,22.05246 0 0 1 10.699141,26.292583 22.052164,22.05246 0 0 1 37.707418,10.699141 22.052164,22.05246 0 0 1 53.300658,37.707776 22.052164,22.05246 0 0 1 26.292375,53.30122"
     id="path38-3"
     style="color:#000000;opacity:0.98000004;fill:#ff9300;fill-opacity:1;stroke:#c87300;stroke-width:1.01814282;stroke-linejoin:round;stroke-miterlimit:4;stroke-dasharray:none;stroke-opacity:1"
     inkscape:connector-curvature="0" />
  <path
     inkscape:connector-curvature="0"
     d="m 48.997683,63.74288 c -0.205697,0 -0.401108,-0.08228 -0.545094,-0.226266 L 34.485839,48.716797 c -0.272547,-0.272547 -0.267405,-0.617088 -0.1697,-0.848496 0.09771,-0.231408 0.334256,-0.478242 0.714794,-0.478242 l 4.710436,0 c 0.70965,0 1.285599,-0.575949 1.285599,-1.285601 l 0,-10.27965 c 0,-0.426819 0.34454,-0.77136 0.771359,-0.77136 l 14.398711,0 c 0.426819,0 0.77136,0.344541 0.77136,0.77136 l 0,10.284794 c 0,0.70965 0.575947,1.285599 1.285598,1.285599 l 4.715577,0 c 0.380538,0 0.617088,0.246835 0.714794,0.478242 0.09771,0.231408 0.10284,0.570807 -0.1697,0.838212 L 49.537633,63.521757 c -0.13884,0.143985 -0.334255,0.221123 -0.53995,0.221123"
     style="fill:#3660bf;stroke:#2c4e9c;stroke-width:0.51423967;stroke-opacity:1;fill-opacity:1"
     id="path4" />
</svg>
