<?xml version="1.0" encoding="UTF-8" standalone="no"?>
<svg
   xmlns:dc="http://purl.org/dc/elements/1.1/"
   xmlns:cc="http://creativecommons.org/ns#"
   xmlns:rdf="http://www.w3.org/1999/02/22-rdf-syntax-ns#"
   xmlns:svg="http://www.w3.org/2000/svg"
   xmlns="http://www.w3.org/2000/svg"
   viewbox="0 0 64 64"
   version="1.1"
   viewBox="0 0 64 64"
   id="svg2">
  <metadata
     id="metadata14">
    <rdf:RDF>
      <cc:Work
         rdf:about="">
        <dc:format>image/svg+xml</dc:format>
        <dc:type
           rdf:resource="http://purl.org/dc/dcmitype/StillImage" />
        <dc:title></dc:title>
      </cc:Work>
    </rdf:RDF>
  </metadata>
  <defs
     id="defs12" />
  <g
     id="g4138">
    <path
       style="fill:none;fill-opacity:0.66666667;stroke:#000000;stroke-width:1;stroke-linejoin:round;stroke-miterlimit:4;stroke-dasharray:none;stroke-opacity:1"
       d="m 26.964091,10.303736 c -3.241489,0 -5.86875,2.627261 -5.86875,5.86875 0,0.700862 0.174784,1.40237 0.35,2.015624 -0.262824,-0.08761 -0.613739,-0.0875 -0.876562,-0.0875 -3.241489,0 -5.86875,2.628823 -5.86875,5.870312 0,2.858468 2.089105,5.277132 4.828124,5.771876 -0.0082,-0.143316 -0.025,-0.286106 -0.025,-0.429688 0,-5.44788 4.417745,-9.865625 9.865626,-9.865625 5.131205,0 9.238037,4.088661 9.709374,9.065625 1.987644,-1.331686 3.304688,-3.510438 3.304688,-6.032813 0,-4.029959 -3.240461,-7.182812 -7.182812,-7.182812 -0.876078,0 -1.664655,0.174677 -2.453125,0.4375 -0.262823,-2.978665 -2.71654,-5.43125 -5.782813,-5.43125 z"
       id="path6" />
    <path
       d="m 55.264061,39.90084 c 0,-6.77304 -5.44788,-12.07368 -12.07368,-12.07368 -1.4724,0 -2.79756,0.29448 -4.12272,0.7362 -0.44172,-5.00616 -4.56444,-9.12888 -9.71784,-9.12888 -5.44788,0 -9.86508,4.4172 -9.86508,9.86508 0,1.17792 0.29448,2.35584 0.58896,3.38652 -0.44172,-0.14724 -1.03068,-0.14724 -1.4724,-0.14724 -5.44788,0 -9.8650802,4.4172 -9.8650802,9.86508 0,5.30064 4.2699602,9.71784 9.5706002,9.86508 l 25.32528,0 c 6.47856,-0.7362 11.63196,-5.8896 11.63196,-12.36816 z"
       id="path8"
       style="fill:none;fill-opacity:0.66666667;stroke:#000000;stroke-width:1;stroke-linejoin:round;stroke-miterlimit:4;stroke-dasharray:none;stroke-opacity:1" />
  </g>
</svg>
