<?xml version="1.0" encoding="UTF-8" standalone="no"?>
<svg
   xmlns:dc="http://purl.org/dc/elements/1.1/"
   xmlns:cc="http://creativecommons.org/ns#"
   xmlns:rdf="http://www.w3.org/1999/02/22-rdf-syntax-ns#"
   xmlns:svg="http://www.w3.org/2000/svg"
   xmlns="http://www.w3.org/2000/svg"
   id="svg2"
   viewbox="0 0 64 64"
   version="1.1"
   viewBox="0 0 64 64">
  <metadata
     id="metadata52">
    <rdf:RDF>
      <cc:Work
         rdf:about="">
        <dc:format>image/svg+xml</dc:format>
        <dc:type
           rdf:resource="http://purl.org/dc/dcmitype/StillImage" />
        <dc:title></dc:title>
      </cc:Work>
    </rdf:RDF>
  </metadata>
  <defs
     id="defs50" />
  <g
     id="g4241">
    <g
       id="g4161">
      <line
         x2="9.7929821"
         y2="36.813099"
         id="line18"
         x1="12.874836"
         y1="33.731247"
         style="fill:none;stroke:#000000;stroke-width:1;stroke-linecap:round;stroke-miterlimit:4;stroke-dasharray:none;stroke-opacity:1" />
      <line
         x2="4.6867981"
         y2="24.485683"
         id="line22"
         x1="9.0451984"
         y1="24.485683"
         style="fill:none;stroke:#000000;stroke-width:1;stroke-linecap:round;stroke-miterlimit:4;stroke-dasharray:none;stroke-opacity:1" />
      <line
         x2="9.7929821"
         y2="12.158268"
         id="line26"
         x1="12.874836"
         y1="15.240122"
         style="fill:none;stroke:#000000;stroke-width:1;stroke-linecap:round;stroke-miterlimit:4;stroke-dasharray:none;stroke-opacity:1" />
      <line
         x2="22.120398"
         y2="7.052084"
         id="line30"
         x1="22.120398"
         y1="11.410484"
         style="fill:none;stroke:#000000;stroke-width:1;stroke-linecap:round;stroke-miterlimit:4;stroke-dasharray:none;stroke-opacity:1" />
      <line
         x2="34.447815"
         y2="12.158268"
         id="line34"
         x1="31.365959"
         y1="15.240122"
         style="fill:none;stroke:#000000;stroke-width:1;stroke-linecap:round;stroke-miterlimit:4;stroke-dasharray:none;stroke-opacity:1" />
      <path
         style="fill:none;stroke:#000000;stroke-width:1;stroke-miterlimit:4;stroke-dasharray:none;stroke-opacity:1"
         d="m 22.121094,17.222542 a 7.264,7.264 0 0 0 -7.265625,7.263672 7.264,7.264 0 0 0 6.318359,7.193359 c -0.166108,-0.716516 -0.302735,-1.456294 -0.302735,-2.212889 0,-4.441276 2.979033,-8.181462 7.044922,-9.34961 a 7.264,7.264 0 0 0 -5.794921,-2.894532 z"
         id="circle44" />
    </g>
    <path
       d="m 56.217502,40.06548 c 0,-6.68288 -5.37536,-11.91296 -11.91296,-11.91296 -1.4528,0 -2.76032,0.29056 -4.06784,0.7264 -0.43584,-4.93952 -4.50368,-9.00736 -9.58848,-9.00736 -5.37536,0 -9.733761,4.3584 -9.733761,9.73376 0,1.16224 0.290561,2.32448 0.581121,3.34144 -0.43584,-0.14528 -1.016961,-0.14528 -1.452801,-0.14528 -5.37536,0 -9.73376,4.3584 -9.73376,9.73376 0,5.23008 4.21312,9.58848 9.4432,9.73376 l 24.988161,0 c 6.39232,-0.7264 11.47712,-5.8112 11.47712,-12.20352 z"
       id="path46"
       style="fill:none;fill-opacity:0.66667002;stroke:#000000;stroke-width:1;stroke-linejoin:round;stroke-miterlimit:4;stroke-dasharray:none;stroke-opacity:1" />
    <path
       id="path46-3"
       d="m 47.771484,15.898438 c -2.254446,0.113463 -4.270543,1.673323 -4.861328,3.974609 -0.15722,0.612399 -0.162014,1.262736 -0.146484,1.837891 -0.20999,-0.135503 -0.516444,-0.214482 -0.746094,-0.273438 -1.778356,-0.456539 -3.576589,0.04687 -4.849609,1.185547 1.659229,1.627253 2.754479,3.841127 2.96875,6.269531 1.30752,-0.43584 2.615559,-0.726562 4.068359,-0.726562 4.726328,0 8.832432,2.741482 10.751953,6.78125 2.442978,-0.518856 4.493508,-2.266385 5.140625,-4.78711 0.90399,-3.521303 -1.221255,-7.004336 -4.666015,-7.888672 -0.7655,-0.196519 -1.494278,-0.220751 -2.242188,-0.167968 0.43852,-2.661658 -1.154734,-5.355152 -3.833984,-6.042969 -0.531066,-0.136335 -1.063728,-0.188293 -1.583985,-0.162109 z"
       style="fill:none;fill-opacity:0.66667002;stroke:#000000;stroke-width:1;stroke-linejoin:round;stroke-miterlimit:4;stroke-dasharray:none;stroke-opacity:1" />
  </g>
</svg>
