<?xml version="1.0" encoding="UTF-8" standalone="no"?>
<svg
   xmlns:dc="http://purl.org/dc/elements/1.1/"
   xmlns:cc="http://creativecommons.org/ns#"
   xmlns:rdf="http://www.w3.org/1999/02/22-rdf-syntax-ns#"
   xmlns:svg="http://www.w3.org/2000/svg"
   xmlns="http://www.w3.org/2000/svg"
   viewBox="0 0 64 64"
   version="1.1"
   viewbox="0 0 64 64"
   id="svg2">
  <metadata
     id="metadata52">
    <rdf:RDF>
      <cc:Work
         rdf:about="">
        <dc:format>image/svg+xml</dc:format>
        <dc:type
           rdf:resource="http://purl.org/dc/dcmitype/StillImage" />
        <dc:title></dc:title>
      </cc:Work>
    </rdf:RDF>
  </metadata>
  <defs
     id="defs50" />
  <g
     id="g4206">
    <path
       style="fill:none;stroke:#000000;stroke-width:1;stroke-linejoin:round;stroke-miterlimit:4;stroke-dasharray:none;stroke-opacity:1"
       id="path8"
       d="m 61.224638,40.06548 c 0,-6.68288 -5.37536,-11.91296 -11.91296,-11.91296 -1.4528,0 -2.76032,0.29056 -4.06784,0.7264 -0.43584,-4.93952 -4.50368,-9.00736 -9.58848,-9.00736 -5.37536,0 -9.73376,4.3584 -9.73376,9.73376 0,1.16224 0.29056,2.32448 0.58112,3.34144 -0.43584,-0.14528 -1.01696,-0.14528 -1.4528,-0.14528 -5.37536,0 -9.73376,4.3584 -9.73376,9.73376 0,5.23008 4.21312,9.58848 9.4432,9.73376 l 24.98816,0 c 6.39232,-0.7264 11.47712,-5.8112 11.47712,-12.20352 z" />
    <g
       id="g4160">
      <line
         style="fill:none;stroke:#000000;stroke-width:1;stroke-linecap:round;stroke-miterlimit:4;stroke-dasharray:none;stroke-opacity:1"
         id="line18"
         y2="39.660557"
         x2="8.5297213"
         x1="11.611575"
         y1="36.578705" />
      <line
         style="fill:none;stroke:#000000;stroke-width:1;stroke-linecap:round;stroke-miterlimit:4;stroke-dasharray:none;stroke-opacity:1"
         id="line22"
         y2="27.333141"
         x2="3.423537"
         x1="7.7819371"
         y1="27.333141" />
      <line
         style="fill:none;stroke:#000000;stroke-width:1;stroke-linecap:round;stroke-miterlimit:4;stroke-dasharray:none;stroke-opacity:1"
         id="line26"
         y2="15.005725"
         x2="8.5297213"
         x1="11.611575"
         y1="18.08758" />
      <line
         style="fill:none;stroke:#000000;stroke-width:1;stroke-linecap:round;stroke-miterlimit:4;stroke-dasharray:none;stroke-opacity:1"
         id="line30"
         y2="9.8995409"
         x2="20.857138"
         x1="20.857138"
         y1="14.257941" />
      <line
         style="fill:none;stroke:#000000;stroke-width:1;stroke-linecap:round;stroke-miterlimit:4;stroke-dasharray:none;stroke-opacity:1"
         id="line34"
         y2="15.005725"
         x2="33.184551"
         x1="30.102699"
         y1="18.08758" />
      <path
         id="path4183"
         d="m 27.432886,24.294288 c -1.128133,-2.701497 -3.647877,-4.222041 -6.575463,-4.225147 -4.01154,1.81e-4 -7.263491,3.252132 -7.263672,7.263672 0.0042,3.619823 2.529063,6.612232 6.113994,7.113637 0.477797,-0.311125 1.023115,-0.654707 1.553975,-0.879262 1.16451,-0.49259 2.469192,-0.765625 3.813032,-0.765625 0.154844,0 0.385075,-0.0037 0.563564,0.0028 0.760322,0.145958 0.759129,-0.184508 0.641338,-0.65359 -0.200618,-0.801521 -0.357778,-1.684086 -0.357778,-2.544565 0,-1.34384 0.273035,-2.624552 0.765625,-3.789062 0.204316,-0.483015 0.469031,-1.083446 0.745385,-1.5229 z"
         style="fill:none;stroke:#000000;stroke-width:1;stroke-miterlimit:4;stroke-dasharray:none;stroke-opacity:1" />
    </g>
  </g>
</svg>
