<?xml version="1.0" encoding="UTF-8" standalone="no"?>
<svg
   xmlns:dc="http://purl.org/dc/elements/1.1/"
   xmlns:cc="http://creativecommons.org/ns#"
   xmlns:rdf="http://www.w3.org/1999/02/22-rdf-syntax-ns#"
   xmlns:svg="http://www.w3.org/2000/svg"
   xmlns="http://www.w3.org/2000/svg"
   viewBox="0 0 64 64"
   version="1.1"
   viewbox="0 0 64 64"
   id="svg2">
  <metadata
     id="metadata52">
    <rdf:RDF>
      <cc:Work
         rdf:about="">
        <dc:format>image/svg+xml</dc:format>
        <dc:type
           rdf:resource="http://purl.org/dc/dcmitype/StillImage" />
        <dc:title></dc:title>
      </cc:Work>
    </rdf:RDF>
  </metadata>
  <defs
     id="defs50" />
  <g
     id="g4167">
    <g
       id="g4162">
      <path
         style="fill:none;stroke:#000000;stroke-width:0.99999994;stroke-linecap:round;stroke-miterlimit:4;stroke-dasharray:none;stroke-opacity:1"
         d="m 22.40839,44.243592 0,4.7028"
         id="line14" />
      <path
         id="line18"
         d="M 12.432245,40.111337 9.1068632,43.436719"
         style="fill:none;stroke:#000000;stroke-width:1;stroke-linecap:round;stroke-miterlimit:4;stroke-dasharray:none;stroke-opacity:1" />
      <path
         id="line22"
         d="m 8.29999,30.135192 -4.7028,0"
         style="fill:none;stroke:#000000;stroke-width:0.99999994;stroke-linecap:round;stroke-miterlimit:4;stroke-dasharray:none;stroke-opacity:1" />
      <path
         id="line26"
         d="M 12.432245,20.159047 9.1068632,16.833665"
         style="fill:none;stroke:#000000;stroke-width:1;stroke-linecap:round;stroke-miterlimit:4;stroke-dasharray:none;stroke-opacity:1" />
      <path
         id="line30"
         d="m 22.40839,16.026792 0,-4.7028"
         style="fill:none;stroke:#000000;stroke-width:0.99999994;stroke-linecap:round;stroke-miterlimit:4;stroke-dasharray:none;stroke-opacity:1" />
      <path
         id="line34"
         d="m 32.384535,20.159047 3.325382,-3.325382"
         style="fill:none;stroke:#000000;stroke-width:1;stroke-linecap:round;stroke-miterlimit:4;stroke-dasharray:none;stroke-opacity:1" />
      <path
         id="circle44"
         d="m 30.24639,30.135192 a 7.838,7.838 0 0 1 -7.838,7.838 7.838,7.838 0 0 1 -7.838,-7.838 7.838,7.838 0 0 1 7.838,-7.838 7.838,7.838 0 0 1 7.838,7.838 z"
         style="fill:none;stroke:#000000;stroke-width:0.99999994;stroke-miterlimit:4;stroke-dasharray:none;stroke-opacity:1" />
    </g>
    <path
       style="fill:none;fill-opacity:0.66667002;stroke:#000000;stroke-width:1;stroke-linejoin:round;stroke-miterlimit:4;stroke-dasharray:none;stroke-opacity:1"
       id="path46"
       d="m 61.269721,42.709274 c 0,-5.26163 -4.232109,-9.379428 -9.379427,-9.379428 -1.143832,0 -2.173352,0.228766 -3.202731,0.571916 C 48.344413,30.012731 45.141611,26.81 41.138267,26.81 c -4.23211,0 -7.663749,3.431497 -7.663749,7.663748 0,0.915067 0.228766,1.830134 0.457533,2.630887 -0.34315,-0.114383 -0.800683,-0.114383 -1.143833,-0.114383 -4.23211,0 -7.663749,3.431498 -7.663749,7.66375 0,4.117797 3.317044,7.549295 7.434841,7.663748 l 19.673639,0 c 5.032864,-0.571916 9.036348,-4.57533 9.036348,-9.608193 z" />
  </g>
</svg>
