<?xml version="1.0" encoding="UTF-8" standalone="no"?>
<svg
   xmlns:dc="http://purl.org/dc/elements/1.1/"
   xmlns:cc="http://creativecommons.org/ns#"
   xmlns:rdf="http://www.w3.org/1999/02/22-rdf-syntax-ns#"
   xmlns:svg="http://www.w3.org/2000/svg"
   xmlns="http://www.w3.org/2000/svg"
   id="svg2"
   viewbox="0 0 64 64"
   version="1.1"
   viewBox="0 0 64 64">
  <metadata
     id="metadata30">
    <rdf:RDF>
      <cc:Work
         rdf:about="">
        <dc:format>image/svg+xml</dc:format>
        <dc:type
           rdf:resource="http://purl.org/dc/dcmitype/StillImage" />
        <dc:title></dc:title>
      </cc:Work>
    </rdf:RDF>
  </metadata>
  <defs
     id="defs28" />
  <g
     id="g4198">
    <g
       id="g4187">
      <polygon
         style="fill:#000000;fill-opacity:1"
         id="polygon14"
         points="2.7,4 1.5,3.3 2.7,2.7 3.3,1.5 4,2.7 5.2,3.3 4,4 3.3,5.2 "
         transform="matrix(1.19224,0,0,1.19224,32.004406,6.726103)" />
      <polygon
         style="fill:#000000;fill-opacity:1"
         id="polygon18"
         points="2.7,4 1.5,3.3 2.7,2.7 3.3,1.5 4,2.7 5.2,3.3 4,4 3.3,5.2 "
         transform="matrix(1.19224,0,0,1.19224,55.849206,18.648503)" />
      <path
         id="path22"
         d="m 49.291016,10.540906 c -5.871076,0 -10.771822,4.305381 -11.736328,9.912109 3.631964,1.421853 6.207031,4.937311 6.207031,9.05664 0,1.106285 -0.267696,2.204507 -0.544922,3.185547 0.05828,0.03483 0.114922,0.07161 0.173828,0.105469 0.403509,-0.08881 0.876369,-0.0957 1.248047,-0.0957 2.019036,0 3.893032,0.610776 5.451172,1.654297 4.62e-4,3.09e-4 0.0015,-3.1e-4 0.002,0 1.850068,-0.127142 3.597294,-0.68887 5.162109,-1.523438 -3.57672,-2.026808 -5.96289,-5.961759 -5.96289,-10.373047 0,-4.411287 2.38617,-8.22506 5.96289,-10.371092 -1.78836,-1.073017 -3.816858,-1.550782 -5.96289,-1.550782 z"
         style="fill:none;stroke:#000000;stroke-width:1;stroke-linejoin:round;stroke-miterlimit:4;stroke-dasharray:none;stroke-opacity:1" />
    </g>
    <path
       d="m 8.2541221,40.021039 c 0,-6.702821 5.4118299,-11.948507 11.9937849,-11.948507 1.462656,0 2.779047,0.291427 4.095438,0.728568 0.438797,-4.954259 4.534236,-9.034237 9.653534,-9.034237 5.41183,0 9.799801,4.371405 9.799801,9.762804 0,1.165708 -0.292532,2.331416 -0.585064,3.351411 0.438797,-0.145714 1.023861,-0.145714 1.462658,-0.145714 5.41183,0 9.799799,4.371405 9.799799,9.762805 0,5.245686 -4.241704,9.617091 -9.507268,9.762804 l -25.157695,0 C 13.37342,51.532406 8.2541221,46.432433 8.2541221,40.021039 Z"
       id="path46"
       style="fill:none;fill-opacity:0.66667002;stroke:#000000;stroke-width:1.00488245;stroke-linejoin:round;stroke-miterlimit:4;stroke-dasharray:none;stroke-opacity:1" />
    <path
       id="path46-3"
       d="m 16.757443,15.781885 c 2.269741,0.113802 4.299517,1.678316 4.89431,3.986469 0.158287,0.614227 0.163113,1.266504 0.147478,1.843375 0.211415,-0.135907 0.519948,-0.215122 0.751156,-0.274254 1.790421,-0.457901 3.600855,0.04701 4.882512,1.189085 -1.670487,1.632108 -2.773168,3.852588 -2.988892,6.288239 -1.316391,-0.437141 -2.633305,-0.72873 -4.095961,-0.72873 -4.758395,0 -8.892357,2.749662 -10.8249012,6.801484 -2.4595526,-0.520404 -4.5239946,-2.273147 -5.175502,-4.801394 -0.9101232,-3.53181 1.2295407,-7.025236 4.697672,-7.912211 0.7706936,-0.197105 1.5044162,-0.22141 2.2574002,-0.168469 -0.441495,-2.6696 1.162569,-5.371132 3.859996,-6.061001 0.534669,-0.136742 1.070945,-0.188855 1.594732,-0.162593 z"
       style="fill:none;fill-opacity:0.66667002;stroke:#000000;stroke-width:1.00488245;stroke-linejoin:round;stroke-miterlimit:4;stroke-dasharray:none;stroke-opacity:1" />
  </g>
</svg>
