<?xml version="1.0" encoding="UTF-8" standalone="no"?>
<!-- Generator: Adobe Illustrator 17.1.0, SVG Export Plug-In . SVG Version: 6.00 Build 0)  -->
<svg id="Capa_1" xmlns:rdf="http://www.w3.org/1999/02/22-rdf-syntax-ns#" xmlns="http://www.w3.org/2000/svg" xml:space="preserve" viewBox="0 0 64.000002 64.000002" height="64" width="64" version="1.1" y="0px" x="0px" xmlns:cc="http://creativecommons.org/ns#" xmlns:dc="http://purl.org/dc/elements/1.1/"><metadata id="metadata45"><rdf:RDF><cc:Work rdf:about=""><dc:format>image/svg+xml</dc:format><dc:type rdf:resource="http://purl.org/dc/dcmitype/StillImage"/><dc:title/></cc:Work></rdf:RDF></metadata><g id="g3" transform="translate(0 -236.14)" stroke="#000" fill="none"><path id="path9" d="m38.21 270.2c0.11016-0.2432 0.09976-0.51032-0.02745-0.74281-0.12712-0.2326-0.35286-0.3253-0.59608-0.3253h-5.3174l1.1447-11.166c0.03899-0.37857-0.17013-0.77076-0.49589-0.87927-0.06723-0.0223-0.13534-0.033-0.20257-0.033-0.25826 0-0.50236 0.1649-0.62257 0.43575l-7.1911 16.214c-0.10788 0.24319-0.096 0.56701 0.03147 0.79815 0.12756 0.23102 0.35242 0.41917 0.59468 0.41917h5.2473l-1.0757 10.746c-0.0376 0.3771 0.17057 0.69425 0.49457 0.80295 0.06654 0.0223 0.13394 0.0284 0.20047 0.0284 0.25773 0 0.50183-0.16058 0.62362-0.42947l7.192-15.868z" stroke-width="1.9"/><path id="path4285" stroke-linejoin="round" d="m57.527 294.59-51.077-0.0684c-3.7079 0.25518-4.114-1.5548-2.0782-4.9448l24.593-42.84c2.9997-5.0097 4.486-2.4788 5.9863-0.005l24.656 42.87c2.5422 4.0406 0.98085 4.9756-2.0807 4.9889z" stroke-linecap="round" stroke-width="2"/></g></svg>
