<?xml version="1.0" encoding="UTF-8" standalone="no"?>
<svg
   xmlns:dc="http://purl.org/dc/elements/1.1/"
   xmlns:cc="http://creativecommons.org/ns#"
   xmlns:rdf="http://www.w3.org/1999/02/22-rdf-syntax-ns#"
   xmlns:svg="http://www.w3.org/2000/svg"
   xmlns="http://www.w3.org/2000/svg"
   viewBox="0 0 64 64"
   x="0px"
   y="0px"
   version="1.1"
   xml:space="preserve"
   enable-background="new 0 0 1000 1000"
   id="svg2"><defs
     id="defs9" /><metadata
     id="metadata4"> Svg Vector Icons : http://www.onlinewebfonts.com/icon <rdf:RDF><cc:Work
     rdf:about=""><dc:format>image/svg+xml</dc:format><dc:type
       rdf:resource="http://purl.org/dc/dcmitype/StillImage" /><dc:title></dc:title></cc:Work></rdf:RDF></metadata><g
     transform="matrix(.065306 0 0 .065306 -.65306 -.65316)"
     id="g6"><g
       transform="matrix(.1 0 0 -.1 0 511)"
       id="g8"><path
         d="m 2334,3620.7 c -57.186,-2.8934 -109.22,-8.5697 -142.52,-17.306 -414.03,-98.488 -735.36,-509.62 -735.36,-935.23 l 0,-150.67 -156.44,-66.511 c -364.92,-150.6 -599.62,-489.5 -605.4,-877.6 l -2.7148,-211.41 -165.26,-109.95 c -628.38,-414.1 -547.13,-1372.7 144.89,-1697 159.3,-72.391 176.75,-75.194 851.41,-83.818 l 494.2473,-1.15662 30.2536,-1339.58138 25.0629,-1324.0093 739.782,-5.1907 -15.5721,1314.5185 -19.8722,1355.15346 584.6485,0.26604 c 683.4,8.7376 686.32,8.5725 851.41,89.586 208.44,101.32 376.47,269.36 477.79,477.79 69.44,141.94 81.103,199.9 81.103,411.28 -2.9502,188.24 -17.389,278.16 -63.796,382.44 -75.227,162.14 -286.76,396.56 -428.59,474.74 -101.32,52.08 -101.12,55.052 -101.12,249.08 0,396.67 -226.14,744.3 -582.31,889.08 l -164.92,69.226 -11.538,194.1 c -37.67,506.73 -411.2,883.22 -912.15,912.15 -53.499,2.9502 -115.88,2.8933 -173.06,0 z m 5492.6,-810.69 c -211.39,0 -266.56,-11.445 -393.98,-78.049 -286.73,-150.57 -475.08,-449.15 -475.08,-750.29 l 0,-138.79 -153.38,-69.565 c -338.8,-153.5 -518.1,-420.1 -523.9,-773.39 -2.8,-176.66 -11.8,-202.62 -66.8,-228.71 -118.7,-55.04 -300.9,-246.15 -379.1,-390.93 -60.8,-118.68 -75.7,-188.13 -75.7,-364.79 -2.8374,-280.94 81.181,-471.82 275.21,-648.48 220.12,-199.81 318.68,-220.23 1002.1,-220.23 l 463.3163,-5.19069 0,-1167.60931 0,-1172.8 655.248,0.3476 0,1167.6093 -10.3814,1167.20932 473.1471,10.38138 c 683.2356,14.99095 781.73,20.421 1001.7,220.23 367.74,330.07 376.55,923.57 14.591,1256.6 -69.554,63.654 -156.43,130.48 -194.1,147.95 -55.031,26.097 -63.674,52.07 -66.511,222.95 -5.7875,356.17 -188.43,625.39 -524.28,778.79 l -153.38,69.557 0,138.79 c 0,301.14 -188.35,599.72 -475.08,750.29 -127.42,66.604 -182.25,78.049 -393.64,78.049 z"
         id="path10" /></g></g></svg>