<?xml version="1.0" encoding="UTF-8" standalone="no"?>
<svg
   xmlns:dc="http://purl.org/dc/elements/1.1/"
   xmlns:cc="http://creativecommons.org/ns#"
   xmlns:rdf="http://www.w3.org/1999/02/22-rdf-syntax-ns#"
   xmlns:svg="http://www.w3.org/2000/svg"
   xmlns="http://www.w3.org/2000/svg"
   viewBox="0 0 64 64"
   x="0px"
   y="0px"
   version="1.1"
   xml:space="preserve"
   enable-background="new 0 0 1000 1000"
   id="svg2"><defs
     id="defs10" /><metadata
     id="metadata4"> Svg Vector Icons : http://www.onlinewebfonts.com/icon <rdf:RDF><cc:Work
     rdf:about=""><dc:format>image/svg+xml</dc:format><dc:type
       rdf:resource="http://purl.org/dc/dcmitype/StillImage" /><dc:title></dc:title></cc:Work></rdf:RDF></metadata><g
     transform="matrix(.065306 0 0 .065306 -.65306 -.65037)"
     id="g6"><path
       d="m394.9 211.1c-5.8 0-11.6 1.7-16.5 4.9l-212.6 137.2h-78.4c-42.6 0-77.4 34.7-77.4 77.4v166.7c0 42.7 34.7 77.4 77.4 77.4h78.4l212.6 137.2c4.9 3.2 10.6 4.9 16.5 4.9 42.7 0 77.4-34.7 77.4-77.4v-450.9c-0.1-42.7-34.8-77.4-77.4-77.4zm16.6 528.2c0 6.7-4 12.5-9.8 15.1l-210.5-135.8c-4.9-3.2-10.6-4.8-16.5-4.8h-87.3c-9.1 0-16.6-7.4-16.6-16.6v-166.7c0-9.1 7.4-16.6 16.6-16.6h87.4c5.8 0 11.6-1.7 16.5-4.9l210.4-135.8c5.8 2.6 9.8 8.4 9.8 15.1v451z"
       id="path8" /><path
       d="m821.4 136.2c-13.7-9.8-32.7-6.6-42.4 7.1s-6.6 32.7 7.1 42.4c88.3 63 143.1 183.5 143.1 314.3 0 130.9-54.8 251.3-143.1 314.3-13.7 9.8-16.8 28.7-7.1 42.4 5.9 8.3 15.3 12.7 24.8 12.7 6.1 0 12.3-1.8 17.6-5.7 104-74.1 168.6-213.5 168.6-363.7s-64.6-289.6-168.6-363.8z"
       id="path10" /><path
       d="m639.1 221.7c-13.7-9.8-32.7-6.6-42.4 7.1s-6.6 32.6 7.1 42.4c64 45.7 103.8 133.4 103.8 228.9s-39.8 183.1-103.8 228.9c-13.7 9.7-16.8 28.7-7.1 42.4 5.9 8.3 15.3 12.7 24.8 12.7 6.1 0 12.3-1.9 17.6-5.7 79.7-56.9 129.3-163.6 129.3-278.3s-49.6-221.5-129.3-278.4z"
       id="path12" /><path
       style="fill:#5a5a5a;fill-opacity:1"
       d="m 638.84509,221.2404 c -13.7,-9.8 -32.7,-6.6 -42.4,7.1 -9.7,13.7 -6.6,32.6 7.1,42.4 64,45.7 103.8,133.4 103.8,228.9 0,95.5 -39.8,183.09999 -103.8,228.9 -13.7,9.69999 -16.8,28.69999 -7.1,42.39999 5.9,8.3 15.3,12.70001 24.8,12.70001 6.1,0 12.3,-1.90001 17.6,-5.70001 79.7,-56.89999 129.3,-163.59999 129.3,-278.29999 0,-114.70001 -49.6,-221.5 -129.3,-278.4 z"
       id="path12-3" /></g></svg>