<?xml version="1.0" encoding="UTF-8" standalone="no"?>
<svg
   xmlns:dc="http://purl.org/dc/elements/1.1/"
   xmlns:cc="http://creativecommons.org/ns#"
   xmlns:rdf="http://www.w3.org/1999/02/22-rdf-syntax-ns#"
   xmlns:svg="http://www.w3.org/2000/svg"
   xmlns="http://www.w3.org/2000/svg"
   id="svg2"
   viewbox="0 0 64 64"
   version="1.1"
   viewBox="0 0 64 64">
  <metadata
     id="metadata24">
    <rdf:RDF>
      <cc:Work
         rdf:about="">
        <dc:format>image/svg+xml</dc:format>
        <dc:type
           rdf:resource="http://purl.org/dc/dcmitype/StillImage" />
        <dc:title></dc:title>
      </cc:Work>
    </rdf:RDF>
  </metadata>
  <defs
     id="defs22" />
  <g
     id="g4146">
    <polygon
       transform="matrix(2.5316,0,0,2.5316,-1.635,-0.327)"
       style="fill:#000000;fill-opacity:1;stroke-miterlimit:10"
       id="polygon10"
       stroke-miterlimit="10"
       points="2.7,4 1.5,3.3 2.7,2.7 3.3,1.5 4,2.7 5.2,3.3 4,4 3.3,5.2 " />
    <polygon
       style="fill:#000000;fill-opacity:1;stroke-miterlimit:10"
       id="polygon14"
       stroke-miterlimit="10"
       points="2.7,4 1.5,3.3 2.7,2.7 3.3,1.5 4,2.7 5.2,3.3 4,4 3.3,5.2 "
       transform="matrix(2.5316,0,0,2.5316,48.997,24.989)" />
    <path
       style="fill:none;stroke:#000000;stroke-width:1;stroke-linejoin:round;stroke-miterlimit:4;stroke-dasharray:none;stroke-opacity:1"
       id="path18"
       d="m 35.0732,33.09012 c 0,-9.36692 5.0632,-17.46804 12.658,-22.02492 -3.7974,-2.27844 -8.10112,-3.29108 -12.658,-3.29108 -13.9238,0 -25.316,11.3922 -25.316,25.316 0,13.9238 11.3922,25.316 25.316,25.316 4.55688,0 8.8606,-1.2658 12.658,-3.29108 -7.5948,-4.30372 -12.658,-12.658 -12.658,-22.02492 z" />
  </g>
</svg>
