<?xml version="1.0" encoding="UTF-8" standalone="no"?>
<svg
   xmlns:dc="http://purl.org/dc/elements/1.1/"
   xmlns:cc="http://creativecommons.org/ns#"
   xmlns:rdf="http://www.w3.org/1999/02/22-rdf-syntax-ns#"
   xmlns:svg="http://www.w3.org/2000/svg"
   xmlns="http://www.w3.org/2000/svg"
   version="1.1"
   id="svg2"
   viewBox="0 0 64 64"
   height="64"
   width="64">
  <g
     transform="translate(0,-988.3622)"
     id="layer1">
    <path
       id="path4274"
       d="m 7.4330265,1052.1528 c -1.9140038,-0.3835 -3.5730607,-1.3155 -4.875192,-2.7388 -4.0097431,-4.3826 -3.10501925,-11.0324 1.9416196,-14.271 l 1.820777,-1.1685 -1.6219731,-0.2079 c -0.8920852,-0.1144 -2.0490554,-0.4739 -2.571045,-0.7989 C 1.0710783,1032.3101 0,1030.364 0,1029.1027 c 0,-1.3153 1.0707979,-3.2067 2.2246259,-3.9296 l 1.0464845,-0.6556 26.1688836,-0.078 c 25.470203,-0.076 26.218893,-0.062 28.04194,0.4953 3.058089,0.9356 5.289487,3.2692 6.115652,6.3957 0.50871,1.9252 0.504102,3.1976 -0.01798,4.9688 -0.658654,2.2346 -1.977027,3.98 -4.034072,5.341 l -1.840489,1.2176 1.609334,0.208 c 0.885134,0.1143 2.036417,0.4738 2.558402,0.7989 1.056137,0.6576 2.127216,2.6037 2.127216,3.8649 0,1.3153 -1.070797,3.2068 -2.224626,3.9297 l -1.046496,0.6555 -26.026661,0.043 c -14.314666,0.024 -26.5858006,-0.069 -27.2691905,-0.2057 z m 52.9178975,-3.3208 c 0.646893,-0.5898 0.667009,-1.4664 0.04942,-2.154 -0.449481,-0.5003 -1.639521,-0.524 -26.33955,-0.524 l -25.8687987,0 -0.967111,-0.9744 c -1.2314507,-1.2407 -1.3419822,-2.8531 -0.2808023,-4.0964 l 0.6863085,-0.804 24.2736855,-0.1433 c 24.193842,-0.1428 24.277432,-0.1454 25.411467,-0.7619 2.295068,-1.2477 3.555554,-3.2789 3.555554,-5.7297 0,-2.5652 -1.830051,-5.0618 -4.244558,-5.7906 -0.777257,-0.2347 -8.346654,-0.3272 -26.770486,-0.3272 -23.5026874,0 -25.7310479,0.04 -26.2069927,0.4743 -0.6468928,0.5898 -0.6670069,1.4665 -0.049423,2.154 0.4494828,0.5004 1.639521,0.5241 26.3395507,0.5241 l 25.868799,0 0.967111,0.9743 c 1.231456,1.2407 1.341982,2.8532 0.280788,4.0964 l -0.686321,0.8041 -24.273674,0.1433 c -17.80278,0.1051 -24.4737751,0.2336 -25.0242962,0.4823 -1.2470019,0.5632 -2.8629004,2.1657 -3.412226,3.384 -1.4497202,3.2151 0.206845,7.15 3.5196856,8.3605 0.6866772,0.2509 7.6448316,0.3446 26.7896506,0.3607 23.684434,0.02 25.90584,-0.018 26.382216,-0.4525 z m -41.435382,-28.7097 c -2.173291,-1.3353 -3.961055,-4.3753 -4.449669,-7.5664 -0.550133,-3.5929 0.266075,-6.0466 3.527559,-10.6046 1.995373,-2.78863 2.342549,-3.77399 1.91242,-5.4279 -0.397905,-1.53004 -1.294133,-2.94173 -2.971416,-4.68045 -1.483115,-1.53746 -1.654507,-2.4637 -0.586357,-3.16881 0.66142,-0.43663 0.764215,-0.42679 1.713252,0.16415 1.252265,0.77974 3.275925,3.25011 4.157028,5.07466 0.425037,0.88015 0.702638,2.05532 0.772511,3.27028 0.135903,2.36308 -0.335314,3.52237 -2.887025,7.10267 -2.242935,3.147 -2.87814,4.8766 -2.684346,7.3089 0.178395,2.2391 1.183205,4.2523 2.8903,5.7909 1.442795,1.3003 1.589248,1.8333 0.739085,2.6899 -0.701577,0.7068 -1.046638,0.7144 -2.133342,0.047 z m 13.159793,-0.2617 c -2.53529,-1.9558 -3.963801,-4.8043 -4.144992,-8.2652 -0.166578,-3.1818 0.385984,-4.9238 2.581558,-8.1387 0.974895,-1.4275 2.058433,-3.076 2.407858,-3.66324 1.309614,-2.20102 0.601907,-4.59594 -2.273123,-7.69241 -1.404286,-1.51243 -1.665349,-1.9483 -1.518939,-2.53598 0.230481,-0.92521 1.071008,-1.37591 1.942998,-1.0419 1.032367,0.39545 3.779219,3.54973 4.568851,5.24653 1.690478,3.63259 1.346111,5.47688 -1.943522,10.4086 -2.685149,4.0255 -3.187334,5.5261 -2.705663,8.085 0.380985,2.0239 1.137307,3.4099 2.692828,4.9346 1.403244,1.3754 1.623104,2.2109 0.783297,2.9766 -0.724128,0.6602 -1.211449,0.5962 -2.391151,-0.3139 z m 13.862426,0.2617 c -3.135064,-1.9262 -5.200902,-7.0113 -4.465943,-10.993 0.411846,-2.2311 1.291512,-4.0303 3.465015,-7.0869 0.944424,-1.3281 1.843703,-2.88833 1.998397,-3.46712 0.522308,-1.95424 -0.573524,-4.33059 -3.196165,-6.93098 -1.284835,-1.27393 -1.406238,-2.28529 -0.357435,-2.97766 0.68296,-0.45084 0.766132,-0.43786 1.857481,0.28976 1.39497,0.93007 3.801633,4.15324 4.390399,5.87994 0.593747,1.7413 0.540945,4.19457 -0.121945,5.66566 -0.298181,0.6617 -1.372212,2.3678 -2.386731,3.7912 -2.237802,3.1399 -2.872811,4.8705 -2.679116,7.3016 0.178394,2.2391 1.183204,4.2523 2.890298,5.7909 1.442796,1.3003 1.589248,1.8333 0.739087,2.6899 -0.701581,0.7068 -1.046639,0.7144 -2.133342,0.047 z"
       style="fill:#11556a" />
  </g>
</svg>
