<?xml version="1.0" encoding="UTF-8" standalone="no"?>
<svg
   xmlns:dc="http://purl.org/dc/elements/1.1/"
   xmlns:cc="http://creativecommons.org/ns#"
   xmlns:rdf="http://www.w3.org/1999/02/22-rdf-syntax-ns#"
   xmlns:svg="http://www.w3.org/2000/svg"
   xmlns="http://www.w3.org/2000/svg"
   viewBox="0 0 64 64"
   x="0px"
   y="0px"
   version="1.1"
   xml:space="preserve"
   enable-background="new 0 0 1000 1000"
   id="svg2"><defs
     id="defs10" /><metadata
     id="metadata4"> Svg Vector Icons : http://www.onlinewebfonts.com/icon <rdf:RDF><cc:Work
     rdf:about=""><dc:format>image/svg+xml</dc:format><dc:type
       rdf:resource="http://purl.org/dc/dcmitype/StillImage" /><dc:title></dc:title></cc:Work></rdf:RDF></metadata><g
     transform="matrix(.065306 0 0 .065306 -.65306 -.65306)"
     id="g6"><path
       d="m951.5 309.3c-24.7-58.4-60-110.8-105-155.7-45-45-97.4-80.3-155.7-105-60.5-25.6-124.7-38.6-190.8-38.6s-130.3 13-190.7 38.5c-58.4 24.7-110.8 60-155.7 105-45 45-80.3 97.4-105 155.7-25.6 60.5-38.6 124.7-38.6 190.8s13 130.3 38.5 190.7c24.7 58.4 60 110.8 105 155.7 45 45 97.4 80.3 155.7 105 60.5 25.6 124.7 38.6 190.8 38.6s130.3-13 190.7-38.5c58.4-24.7 110.8-60 155.7-105 45-45 80.3-97.4 105-155.7 25.6-60.5 38.6-124.7 38.6-190.8s-13-130.3-38.5-190.7zm-757.2-115c81.6-81.7 190.2-126.7 305.7-126.7s224.1 45 305.7 126.6c81.7 81.7 126.6 190.2 126.6 305.7 0 7.2-0.2 14.3-0.5 21.4h-108.2c0.2-5.1 0.4-10.1 0.4-15.2 0-85.9-33.5-166.7-94.2-227.5s-141.5-94.2-227.5-94.2c-85.9 0-166.7 33.5-227.5 94.2-60.8 60.8-94.2 141.5-94.2 227.5 0 5.1 0.1 10.1 0.4 15.2h-112.8c-0.3-7.1-0.5-14.2-0.5-21.4-0.1-115.4 44.9-224 126.6-305.6zm611.4 611.4c-81.6 81.7-190.2 126.7-305.7 126.7s-224.1-45-305.7-126.6c-62.7-62.8-103.8-141.4-119.5-226.7h134.6c11.7 0 21.7-6.9 26.2-16.9 4-5.7 6-12.9 4.9-20.4-1.6-11.7-2.4-23.7-2.4-35.6 0-70.5 27.5-136.8 77.3-186.7 49.9-49.9 116.2-77.3 186.7-77.3s136.8 27.5 186.7 77.3c49.9 49.9 77.3 116.2 77.3 186.7 0 10.6-0.6 21.3-1.9 31.8-1.7 3.7-2.7 7.8-2.7 12.2 0 15.9 12.9 28.8 28.8 28.8h134.6c-15.4 85.4-56.5 164-119.2 226.7z"
       id="path8" /><path
       d="m502.3 350.8c-107.4 0-194.8 87.4-194.8 194.8s87.4 194.8 194.8 194.8 194.8-87.4 194.8-194.8c0.1-107.4-87.4-194.8-194.8-194.8zm0 332c-75.7 0-137.2-61.5-137.2-137.2s61.5-137.2 137.2-137.2 137.2 61.5 137.2 137.2-61.5 137.2-137.2 137.2z"
       id="path10" /><path
       d="m500 484.5c-33.7 0-61.1 27.4-61.1 61.1s27.4 61.1 61.1 61.1 61.1-27.4 61.1-61.1-27.4-61.1-61.1-61.1zm0 64.6c-1.9 0-3.5-1.6-3.5-3.5s1.6-3.5 3.5-3.5 3.5 1.6 3.5 3.5-1.6 3.5-3.5 3.5z"
       id="path12" /><path
       style="fill:#6a6a6a;fill-opacity:1;stroke:none;stroke-opacity:1"
       d="m 502.07176,350.72693 c -107.4,0 -194.8,87.4 -194.8,194.8 0,107.4 87.4,194.80001 194.8,194.80001 107.4,0 194.79999,-87.40001 194.79999,-194.80001 0.1,-107.4 -87.39999,-194.8 -194.79999,-194.8 z m 0,332 c -75.7,0 -137.2,-61.5 -137.2,-137.2 0,-75.7 61.5,-137.2 137.2,-137.2 75.7,0 137.2,61.5 137.2,137.2 0,75.7 -61.5,137.2 -137.2,137.2 z"
       id="path10-3" /></g></svg>