<?xml version="1.0" encoding="UTF-8" standalone="no"?>
<!--part of the matt icon theme by sixsixfive released under CC0 (https://creativecommons.org/publicdomain/zero/1.0/) on openclipart-->
<svg id="svg2" xmlns:rdf="http://www.w3.org/1999/02/22-rdf-syntax-ns#" xmlns="http://www.w3.org/2000/svg" version="1.1" xmlns:cc="http://creativecommons.org/ns#" xmlns:xlink="http://www.w3.org/1999/xlink" viewBox="0 0 64 64" xmlns:dc="http://purl.org/dc/elements/1.1/">
 <metadata id="metadata47">
  <rdf:RDF>
   <cc:Work rdf:about="">
    <dc:format>image/svg+xml</dc:format>
    <dc:type rdf:resource="http://purl.org/dc/dcmitype/StillImage"/>
    <dc:title/>
   </cc:Work>
  </rdf:RDF>
 </metadata>
 <defs id="0">
  <radialGradient id="B" gradientUnits="userSpaceOnUse" cy="63.56" cx="64.13" gradientTransform="matrix(1.1551 -5.4782e-8 5.5265e-8 1.1666 -10.072 -10.15)" r="56.16">
   <stop id="Z" stop-color="#555" offset="0"/>
   <stop id="a" stop-color="#1f1f1f" offset="1"/>
  </radialGradient>
  <radialGradient id="E" gradientUnits="userSpaceOnUse" cy="58.42" cx="64.68" gradientTransform="matrix(1 0 0 .90690 0 7.4915)" r="46.744">
   <stop id="T" stop-color="#090909" stop-opacity=".539" offset="0"/>
   <stop id="U" stop-color="#3f3f3f" stop-opacity=".096" offset="1"/>
  </radialGradient>
 </defs>
 <g id="1" transform="matrix(.52063 0 0 .52063 -1.3204 -1.3205)">
  <path id="G" fill="#bf0303" d="m90.384 25.828-8.681 15.037c5.3505 3.8084 9.4112 9.475 11.271 16.415 1.7585 6.5628 1.2161 13.127-1.1545 18.858l15.036 8.6813c4.5974-9.6798 5.9797-20.982 2.9916-32.134-3.08-11.5-10.244-20.795-19.466-26.857z"/>
  <path id="H" fill="#8bb300" d="m22.601 44.508c-4.6902 9.7316-6.088 21.129-3.0741 32.378 2.9218 10.904 9.5091 19.899 18.046 25.98l8.681-15.041c-4.681-3.757-8.254-9.018-9.955-15.364-1.801-6.721-1.182-13.432 1.338-19.276l-15.036-8.6813z"/>
  <path id="I" fill="#ff7e00" d="m50.261 20.322c-12.565 4.059-22.283 13.028-27.66 24.186l15.036 8.6813c3.4116-7.9106 10.308-14.216 19.406-16.654 8.8798-2.3793 17.813-0.54361 24.659 4.3293l8.6813-15.036c-10.765-7.0762-24.355-9.7316-37.779-6.1344-0.77888 0.2087-1.5854 0.38298-2.3442 0.62812z"/>
  <path id="J" fill="url(#E)" d="m65.156 18.084c-4.1362-0.04119-8.3673 0.50089-12.562 1.625-0.77888 0.2087-1.585 0.37986-2.3438 0.625-12.564 4.0593-22.279 13.029-27.656 24.188-4.6902 9.7316-6.0765 21.127-3.0625 32.375 2.9218 10.904 9.4946 19.888 18.031 25.969l8.687-15.036c-4.6805-3.7566-8.2371-9.0289-9.9375-15.375-1.801-6.7214-1.2078-13.437 1.3125-19.281 3.4116-7.9106 10.308-14.218 19.406-16.656 8.8798-2.3793 17.81-0.52919 24.656 4.3438 5.3504 3.8084 9.4217 9.4663 11.281 16.406 1.7585 6.5628 1.2144 13.144-1.1562 18.875l15.031 8.6875c4.5974-9.6798 5.9881-21.005 3-32.156-3.0813-11.5-10.247-20.782-19.469-26.844-7.401-4.8649-16.119-7.6594-25.219-7.75z"/>
  <path id="K" fill="#1b1b1b" d="m64 4.5886c-32.782-0.0105-59.412 26.644-59.412 59.446 0.0005 32.802 26.63 59.385 59.412 59.375 32.782 0.01 59.41-26.573 59.41-59.375s-26.628-59.457-59.41-59.446zm-1.887 14.127c0.78018-0.03957 1.5864 0 2.3765 0 25.28 0 45.782 20.444 45.782 45.739s-20.501 45.809-45.782 45.809c-25.28 0-45.782-20.514-45.782-45.809 0-24.505 19.22-44.512 43.405-45.739z"/>
  <path id="M" fill="#323232" d="m91.925 43.793 6.1328-0.86859-3.7885 5.073-24.803 14.854-2.3443-4.2044 24.803-14.854z"/>
  <path id="O" fill="#323232" d="m64 71.634c-4.2134 0-7.629-3.4176-7.629-7.6335s3.4156-7.6335 7.629-7.6335 7.629 3.4176 7.629 7.6335-3.4156 7.6335-7.629 7.6335z"/>
  <path id="P" fill="url(#B)" d="m63.996 6.8481c-31.565-0.0101-57.153 25.602-57.153 57.187-4e-7 31.585 25.585 57.133 57.153 57.123 31.568 0.0102 57.153-25.538 57.153-57.123s-25.588-57.197-57.153-57.187zm-2.0037 9.6107c0.93169-0.04725 1.7657 0 2.4808 0 26.49 0 48.057 21.478 48.057 47.99 0 26.511-21.561 48.085-48.057 48.085s-48.025-21.576-48.025-48.085c0.000001-25.681 20.186-46.703 45.544-47.99z"/>
 </g>
</svg>
