<?xml version="1.0" encoding="UTF-8" standalone="no"?>
<svg
   xmlns:dc="http://purl.org/dc/elements/1.1/"
   xmlns:cc="http://creativecommons.org/ns#"
   xmlns:rdf="http://www.w3.org/1999/02/22-rdf-syntax-ns#"
   xmlns:svg="http://www.w3.org/2000/svg"
   xmlns="http://www.w3.org/2000/svg"
   version="1.1"
   id="svg2"
   style="enable-background:new 0 0 64 64"
   viewBox="0 0 64 64">
  <metadata
     id="metadata22">
    <rdf:RDF>
      <cc:Work
         rdf:about="">
        <dc:format>image/svg+xml</dc:format>
        <dc:type
           rdf:resource="http://purl.org/dc/dcmitype/StillImage" />
        <dc:title></dc:title>
      </cc:Work>
    </rdf:RDF>
  </metadata>
  <defs
     id="defs20">
    <filter
       height="2.1916948"
       y="-0.5958474"
       width="1.3818727"
       x="-0.19093636"
       id="filter4272"
       style="color-interpolation-filters:sRGB">
      <feGaussianBlur
         id="feGaussianBlur4274"
         stdDeviation="0.4965395" />
    </filter>
  </defs>
  <path
     style="fill:#000000;fill-opacity:1"
     id="path4-3"
     d="M 4.4000151,15.760664 C 3.9502685,15.776414 3.531581,16.0536 3.3600635,16.500585 1.7465284,20.7198 0.81996672,26.762201 0.81996672,33.078896 c 0,6.321315 0.92766358,12.365863 2.54235358,16.585078 0.17787,0.462 0.6150907,0.744433 1.0805556,0.744433 0.137445,0 0.2776875,-0.02473 0.4128225,-0.0767 0.59598,-0.227535 0.8930136,-0.895143 0.6654786,-1.491123 -1.518825,-3.96627 -2.3889546,-9.710698 -2.3889546,-15.759433 0,-6.046425 0.8690289,-11.788653 2.3866989,-15.754923 0.227535,-0.59598 -0.069496,-1.263588 -0.6654787,-1.491123 -0.1487062,-0.05631 -0.303512,-0.0797 -0.4534275,-0.07445 z m 55.7197329,0 c -0.150011,-0.005 -0.302471,0.01784 -0.451177,0.07444 -0.59598,0.227535 -0.895264,0.895142 -0.667729,1.491122 1.516515,3.96627 2.388956,9.707343 2.388956,15.754923 0,6.048735 -0.871286,11.795418 -2.388956,15.761688 -0.227535,0.59598 0.06953,1.263589 0.665476,1.491124 0.135135,0.05082 0.275375,0.07446 0.41282,0.07446 0.46431,0 0.902737,-0.281333 1.078297,-0.742178 1.61469,-4.219215 2.542363,-10.264919 2.542363,-16.585079 0,-6.31785 -0.926564,-12.36135 -2.540099,-16.580565 -0.170652,-0.447861 -0.58994,-0.72461 -1.039951,-0.739936 z M 8.6703573,20.378407 c -0.4497466,0.01544 -0.8684341,0.295193 -1.0399516,0.742178 -1.16655,3.05151 -1.8362698,7.411022 -1.8362698,11.960567 0,4.55301 0.6697198,8.914723 1.8362698,11.965078 0.176715,0.460845 0.613991,0.742177 1.078301,0.742177 0.137445,0 0.2776875,-0.02473 0.4128225,-0.0767 0.59598,-0.227535 0.8930138,-0.895143 0.6654786,-1.491123 -1.06953,-2.797406 -1.6828719,-6.857844 -1.6828719,-11.139429 0,-4.279275 0.6121869,-8.337512 1.6828719,-11.134922 C 10.014543,21.350253 9.7175118,20.682645 9.1215292,20.45511 8.9728229,20.39823 8.8202728,20.37326 8.6703573,20.37841 Z m 47.4362167,0.0023 c -0.150069,-0.005 -0.304435,0.01756 -0.45343,0.07444 -0.59598,0.227535 -0.893012,0.895144 -0.665477,1.491124 1.06953,2.79741 1.68287,6.855646 1.68287,11.134921 0,4.28274 -0.614448,8.34428 -1.685133,11.14169 -0.227535,0.59598 0.07173,1.263588 0.66774,1.491123 0.13629,0.05082 0.273123,0.07445 0.410568,0.07445 0.46431,0 0.901581,-0.281332 1.078296,-0.742177 1.167705,-3.050355 1.838529,-7.412068 1.838529,-11.965078 0,-4.549545 -0.667463,-8.910212 -1.834013,-11.960567 -0.170651,-0.447852 -0.589777,-0.724763 -1.03995,-0.739915 z" />
  <path
     id="path4"
     style="fill:#000000;fill-opacity:1"
     d="m 14.800306,57.809579 0,-50.1552 34.83,0 0,50.1552 -34.83,0 m 3.24,-4.6656 28.35,0 0,-40.824002 -28.35,0 0,40.824002" />
  <path
     style="fill:#000000;fill-opacity:1"
     d="m 32.581867,7.497293 -14.460059,4.627547 0,40.661577 14.460059,4.6305 0,-49.919624 z m -2.553223,6.145453 0,37.625766 -9.353613,-3.369516 0,-30.886734 9.353613,-3.369516 z"
     id="path8-3" />
  <path
     id="path10"
     style="fill:#000000;fill-opacity:1"
     d="m 32.15579,8.2676258 0,48.3886882 -13.608,-4.360003 0,-39.680929 13.608,-4.3477562 m 0.8505,-1.5308988 -15.309,4.898879 0,41.640481 15.309,4.89888 0,-51.43824 z" />
  <path
     id="path14"
     style="fill:#000000;fill-opacity:1"
     d="m 29.60429,14.427967 0,36.055758 -8.505,-3.0618 0,-29.932158 8.505,-3.0618 m 0.8505,-1.567641 -10.206,3.67416 0,31.842721 10.206,3.67416 0,-39.191041 z" />
  <g
     id="g16"
     style="fill:#000000;fill-opacity:1"
     transform="matrix(0.81,0,0,1.1664,6.2953059,-4.5928216)">
    <path
       style="fill:#000000;fill-opacity:1"
       id="path18"
       d="M 25.46,30.4 30.44,30 c 0.27,-0.02 0.52,0.18 0.54,0.46 C 31,30.73 30.8,30.98 30.52,31 l -4.98,0.4 C 25.27,31.42 25.02,31.22 25,30.94 24.98,30.66 25.19,30.42 25.46,30.4" />
    <ellipse
       style="fill:#000000;fill-opacity:1"
       id="ellipse20"
       ry="1"
       rx="0.62"
       cy="30.5"
       cx="30.620001" />
  </g>
</svg>
